<?xml version="1.0" encoding="UTF-8" standalone="no"?>
<!DOCTYPE svg PUBLIC "-//W3C//DTD SVG 1.1//EN"
 "http://www.w3.org/Graphics/SVG/1.1/DTD/svg11.dtd">
<!-- Generated by graphviz version 2.50.0 (20211204.2007)
 -->
<!-- Title: dependency&#45;cruiser output Pages: 1 -->
<svg width="1011pt" height="772pt"
 viewBox="0.00 0.00 1011.00 772.00" xmlns="http://www.w3.org/2000/svg" xmlns:xlink="http://www.w3.org/1999/xlink">
<g id="graph0" class="graph" transform="scale(1 1) rotate(0) translate(4 768)">
<title>dependency&#45;cruiser output</title>
<polygon fill="white" stroke="transparent" points="-4,4 -4,-768 1007,-768 1007,4 -4,4"/>
<g id="clust1" class="cluster">
<title>cluster_src</title>
<path fill="#ffffff" stroke="black" stroke-width="2" d="M20,-8C20,-8 983,-8 983,-8 989,-8 995,-14 995,-20 995,-20 995,-744 995,-744 995,-750 989,-756 983,-756 983,-756 20,-756 20,-756 14,-756 8,-750 8,-744 8,-744 8,-20 8,-20 8,-14 14,-8 20,-8"/>
<text text-anchor="middle" x="501.5" y="-744.8" font-family="Helvetica,sans-Serif" font-weight="bold" font-size="9.00">src</text>
</g>
<g id="clust2" class="cluster">
<title>cluster_src/gathering</title>
<path fill="#ffffff" stroke="black" stroke-width="2" d="M480.5,-350C480.5,-350 975,-350 975,-350 981,-350 987,-356 987,-362 987,-362 987,-718 987,-718 987,-724 981,-730 975,-730 975,-730 480.5,-730 480.5,-730 474.5,-730 468.5,-724 468.5,-718 468.5,-718 468.5,-362 468.5,-362 468.5,-356 474.5,-350 480.5,-350"/>
<text text-anchor="middle" x="727.75" y="-718.8" font-family="Helvetica,sans-Serif" font-weight="bold" font-size="9.00">gathering</text>
</g>
<g id="clust6" class="cluster">
<title>cluster_src/gathering/CollectionOrganizer</title>
<path fill="#ffffff" stroke="black" stroke-width="2" d="M648,-532C648,-532 753,-532 753,-532 759,-532 765,-538 765,-544 765,-544 765,-692 765,-692 765,-698 759,-704 753,-704 753,-704 648,-704 648,-704 642,-704 636,-698 636,-692 636,-692 636,-544 636,-544 636,-538 642,-532 648,-532"/>
<text text-anchor="middle" x="700.5" y="-692.8" font-family="Helvetica,sans-Serif" font-weight="bold" font-size="9.00">CollectionOrganizer</text>
</g>
<g id="clust7" class="cluster">
<title>cluster_src/gathering/CollectionOrganizer/sort&#45;cards&#45;by</title>
<path fill="#ffffff" stroke="black" stroke-width="2" d="M656,-566C656,-566 745,-566 745,-566 751,-566 757,-572 757,-578 757,-578 757,-666 757,-666 757,-672 751,-678 745,-678 745,-678 656,-678 656,-678 650,-678 644,-672 644,-666 644,-666 644,-578 644,-578 644,-572 650,-566 656,-566"/>
<text text-anchor="middle" x="700.5" y="-666.8" font-family="Helvetica,sans-Serif" font-weight="bold" font-size="9.00">sort&#45;cards&#45;by</text>
</g>
<g id="clust4" class="cluster">
<title>cluster_src/gathering/CollectionEntity</title>
<path fill="#ffffff" stroke="black" stroke-width="2" d="M660,-472C660,-472 741,-472 741,-472 747,-472 753,-478 753,-484 753,-484 753,-512 753,-512 753,-518 747,-524 741,-524 741,-524 660,-524 660,-524 654,-524 648,-518 648,-512 648,-512 648,-484 648,-484 648,-478 654,-472 660,-472"/>
<text text-anchor="middle" x="700.5" y="-512.8" font-family="Helvetica,sans-Serif" font-weight="bold" font-size="9.00">CollectionEntity</text>
</g>
<g id="clust5" class="cluster">
<title>cluster_src/gathering/CollectionLoader</title>
<path fill="#ffffff" stroke="black" stroke-width="2" d="M488.5,-424C488.5,-424 577.5,-424 577.5,-424 583.5,-424 589.5,-430 589.5,-436 589.5,-436 589.5,-464 589.5,-464 589.5,-470 583.5,-476 577.5,-476 577.5,-476 488.5,-476 488.5,-476 482.5,-476 476.5,-470 476.5,-464 476.5,-464 476.5,-436 476.5,-436 476.5,-430 482.5,-424 488.5,-424"/>
<text text-anchor="middle" x="533" y="-464.8" font-family="Helvetica,sans-Serif" font-weight="bold" font-size="9.00">CollectionLoader</text>
</g>
<g id="clust3" class="cluster">
<title>cluster_src/gathering/CollectionEditor</title>
<path fill="#ffffff" stroke="black" stroke-width="2" d="M491,-364C491,-364 575,-364 575,-364 581,-364 587,-370 587,-376 587,-376 587,-404 587,-404 587,-410 581,-416 575,-416 575,-416 491,-416 491,-416 485,-416 479,-410 479,-404 479,-404 479,-376 479,-376 479,-370 485,-364 491,-364"/>
<text text-anchor="middle" x="533" y="-404.8" font-family="Helvetica,sans-Serif" font-weight="bold" font-size="9.00">CollectionEditor</text>
</g>
<g id="clust8" class="cluster">
<title>cluster_src/lib</title>
<path fill="#ffffff" stroke="black" stroke-width="2" d="M450,-16C450,-16 616,-16 616,-16 622,-16 628,-22 628,-28 628,-28 628,-330 628,-330 628,-336 622,-342 616,-342 616,-342 450,-342 450,-342 444,-342 438,-336 438,-330 438,-330 438,-28 438,-28 438,-22 444,-16 450,-16"/>
<text text-anchor="middle" x="533" y="-330.8" font-family="Helvetica,sans-Serif" font-weight="bold" font-size="9.00">lib</text>
</g>
<g id="clust10" class="cluster">
<title>cluster_src/lib/SortablePlayerCardTypes</title>
<path fill="#ffffff" stroke="black" stroke-width="2" d="M458,-144C458,-144 608,-144 608,-144 614,-144 620,-150 620,-156 620,-156 620,-184 620,-184 620,-190 614,-196 608,-196 608,-196 458,-196 458,-196 452,-196 446,-190 446,-184 446,-184 446,-156 446,-156 446,-150 452,-144 458,-144"/>
<text text-anchor="middle" x="533" y="-184.8" font-family="Helvetica,sans-Serif" font-weight="bold" font-size="9.00">SortablePlayerCardTypes</text>
</g>
<g id="clust12" class="cluster">
<title>cluster_src/lib/userBrowsesItsCollection</title>
<path fill="#ffffff" stroke="black" stroke-width="2" d="M470.5,-24C470.5,-24 595.5,-24 595.5,-24 601.5,-24 607.5,-30 607.5,-36 607.5,-36 607.5,-64 607.5,-64 607.5,-70 601.5,-76 595.5,-76 595.5,-76 470.5,-76 470.5,-76 464.5,-76 458.5,-70 458.5,-64 458.5,-64 458.5,-36 458.5,-36 458.5,-30 464.5,-24 470.5,-24"/>
<text text-anchor="middle" x="533" y="-64.8" font-family="Helvetica,sans-Serif" font-weight="bold" font-size="9.00">userBrowsesItsCollection</text>
</g>
<g id="clust13" class="cluster">
<title>cluster_src/lib/userEditsItsCollection</title>
<path fill="#ffffff" stroke="black" stroke-width="2" d="M478.5,-264C478.5,-264 587.5,-264 587.5,-264 593.5,-264 599.5,-270 599.5,-276 599.5,-276 599.5,-304 599.5,-304 599.5,-310 593.5,-316 587.5,-316 587.5,-316 478.5,-316 478.5,-316 472.5,-316 466.5,-310 466.5,-304 466.5,-304 466.5,-276 466.5,-276 466.5,-270 472.5,-264 478.5,-264"/>
<text text-anchor="middle" x="533" y="-304.8" font-family="Helvetica,sans-Serif" font-weight="bold" font-size="9.00">userEditsItsCollection</text>
</g>
<g id="clust11" class="cluster">
<title>cluster_src/lib/SortableSlots</title>
<path fill="#ffffff" stroke="black" stroke-width="2" d="M483,-204C483,-204 583,-204 583,-204 589,-204 595,-210 595,-216 595,-216 595,-244 595,-244 595,-250 589,-256 583,-256 583,-256 483,-256 483,-256 477,-256 471,-250 471,-244 471,-244 471,-216 471,-216 471,-210 477,-204 483,-204"/>
<text text-anchor="middle" x="533" y="-244.8" font-family="Helvetica,sans-Serif" font-weight="bold" font-size="9.00">SortableSlots</text>
</g>
<g id="clust9" class="cluster">
<title>cluster_src/lib/SortableClasses</title>
<path fill="#ffffff" stroke="black" stroke-width="2" d="M476,-84C476,-84 590,-84 590,-84 596,-84 602,-90 602,-96 602,-96 602,-124 602,-124 602,-130 596,-136 590,-136 590,-136 476,-136 476,-136 470,-136 464,-130 464,-124 464,-124 464,-96 464,-96 464,-90 470,-84 476,-84"/>
<text text-anchor="middle" x="533" y="-124.8" font-family="Helvetica,sans-Serif" font-weight="bold" font-size="9.00">SortableClasses</text>
</g>
<g id="clust14" class="cluster">
<title>cluster_src/routes</title>
<path fill="#ffffff" stroke="black" stroke-width="2" d="M28,-26C28,-26 418,-26 418,-26 424,-26 430,-32 430,-38 430,-38 430,-100 430,-100 430,-106 424,-112 418,-112 418,-112 28,-112 28,-112 22,-112 16,-106 16,-100 16,-100 16,-38 16,-38 16,-32 22,-26 28,-26"/>
<text text-anchor="middle" x="223" y="-100.8" font-family="Helvetica,sans-Serif" font-weight="bold" font-size="9.00">routes</text>
</g>
<g id="clust15" class="cluster">
<title>cluster_src/routes/collection</title>
<path fill="#ffffff" stroke="black" stroke-width="2" d="M36,-34C36,-34 410,-34 410,-34 416,-34 422,-40 422,-46 422,-46 422,-74 422,-74 422,-80 416,-86 410,-86 410,-86 36,-86 36,-86 30,-86 24,-80 24,-74 24,-74 24,-46 24,-46 24,-40 30,-34 36,-34"/>
<text text-anchor="middle" x="223" y="-74.8" font-family="Helvetica,sans-Serif" font-weight="bold" font-size="9.00">collection</text>
</g>
<!-- src/gathering/Collection.ts -->
<g id="node1" class="node">
<title>src/gathering/Collection.ts</title>
<g id="a_node1"><a xlink:href="src/gathering/Collection.ts" xlink:title="Collection.ts">
<path fill="#ddfeff" stroke="black" d="M856,-446C856,-446 800,-446 800,-446 797,-446 794,-443 794,-440 794,-440 794,-434 794,-434 794,-431 797,-428 800,-428 800,-428 856,-428 856,-428 859,-428 862,-431 862,-434 862,-434 862,-440 862,-440 862,-443 859,-446 856,-446"/>
<text text-anchor="start" x="802" y="-434.8" font-family="Helvetica,sans-Serif" font-size="9.00">Collection.ts</text>
</a>
</g>
</g>
<!-- src/gathering/Pack.ts -->
<g id="node2" class="node">
<title>src/gathering/Pack.ts</title>
<g id="a_node2"><a xlink:href="src/gathering/Pack.ts" xlink:title="Pack.ts">
<path fill="#ddfeff" stroke="black" d="M958.5,-461C958.5,-461 916.5,-461 916.5,-461 913.5,-461 910.5,-458 910.5,-455 910.5,-455 910.5,-449 910.5,-449 910.5,-446 913.5,-443 916.5,-443 916.5,-443 958.5,-443 958.5,-443 961.5,-443 964.5,-446 964.5,-449 964.5,-449 964.5,-455 964.5,-455 964.5,-458 961.5,-461 958.5,-461"/>
<text text-anchor="start" x="922" y="-449.8" font-family="Helvetica,sans-Serif" font-size="9.00">Pack.ts</text>
</a>
</g>
</g>
<!-- src/gathering/Collection.ts&#45;&gt;src/gathering/Pack.ts -->
<g id="edge1" class="edge">
<title>src/gathering/Collection.ts&#45;&gt;src/gathering/Pack.ts</title>
<path fill="none" stroke="#000000" stroke-opacity="0.200000" d="M862.13,-441.62C875.61,-443.5 891.13,-445.67 904.5,-447.53"/>
<polygon fill="none" stroke="#000000" stroke-opacity="0.200000" points="904.24,-449.62 910.47,-448.37 904.82,-445.46 904.24,-449.62"/>
</g>
<!-- src/gathering/CollectionEditor/CollectionEditor.ts -->
<g id="node3" class="node">
<title>src/gathering/CollectionEditor/CollectionEditor.ts</title>
<g id="a_node3"><a xlink:href="src/gathering/CollectionEditor/CollectionEditor.ts" xlink:title="CollectionEditor.ts">
<path fill="#ddfeff" stroke="black" d="M573,-390C573,-390 493,-390 493,-390 490,-390 487,-387 487,-384 487,-384 487,-378 487,-378 487,-375 490,-372 493,-372 493,-372 573,-372 573,-372 576,-372 579,-375 579,-378 579,-378 579,-384 579,-384 579,-387 576,-390 573,-390"/>
<text text-anchor="start" x="495" y="-378.8" font-family="Helvetica,sans-Serif" font-size="9.00">CollectionEditor.ts</text>
</a>
</g>
</g>
<!-- src/gathering/CollectionEditor/CollectionEditor.ts&#45;&gt;src/gathering/Pack.ts -->
<g id="edge4" class="edge">
<title>src/gathering/CollectionEditor/CollectionEditor.ts&#45;&gt;src/gathering/Pack.ts</title>
<path fill="none" stroke="#000000" stroke-opacity="0.200000" d="M566.63,-371.98C631.9,-355.9 781.01,-329.29 883,-389 902.9,-400.65 918.89,-422.49 928.05,-437.14"/>
<polygon fill="none" stroke="#000000" stroke-opacity="0.200000" points="926.42,-438.51 931.32,-442.56 930.01,-436.34 926.42,-438.51"/>
</g>
<!-- src/gathering/ICollectionEditor.ts -->
<g id="node4" class="node">
<title>src/gathering/ICollectionEditor.ts</title>
<g id="a_node4"><a xlink:href="src/gathering/ICollectionEditor.ts" xlink:title="ICollectionEditor.ts">
<path fill="#ddfeff" stroke="black" d="M741.5,-390C741.5,-390 659.5,-390 659.5,-390 656.5,-390 653.5,-387 653.5,-384 653.5,-384 653.5,-378 653.5,-378 653.5,-375 656.5,-372 659.5,-372 659.5,-372 741.5,-372 741.5,-372 744.5,-372 747.5,-375 747.5,-378 747.5,-378 747.5,-384 747.5,-384 747.5,-387 744.5,-390 741.5,-390"/>
<text text-anchor="start" x="661.5" y="-378.8" font-family="Helvetica,sans-Serif" font-size="9.00">ICollectionEditor.ts</text>
</a>
</g>
</g>
<!-- src/gathering/CollectionEditor/CollectionEditor.ts&#45;&gt;src/gathering/ICollectionEditor.ts -->
<g id="edge2" class="edge">
<title>src/gathering/CollectionEditor/CollectionEditor.ts&#45;&gt;src/gathering/ICollectionEditor.ts</title>
<path fill="none" stroke="#000000" stroke-opacity="0.200000" d="M579.22,-381C600.31,-381 625.51,-381 647.39,-381"/>
<polygon fill="none" stroke="#000000" stroke-opacity="0.200000" points="647.47,-383.1 653.47,-381 647.47,-378.9 647.47,-383.1"/>
</g>
<!-- src/gathering/ICollectionOutput.ts -->
<g id="node5" class="node">
<title>src/gathering/ICollectionOutput.ts</title>
<g id="a_node5"><a xlink:href="src/gathering/ICollectionOutput.ts" xlink:title="ICollectionOutput.ts">
<path fill="#ddfeff" stroke="black" d="M743,-420C743,-420 658,-420 658,-420 655,-420 652,-417 652,-414 652,-414 652,-408 652,-408 652,-405 655,-402 658,-402 658,-402 743,-402 743,-402 746,-402 749,-405 749,-408 749,-408 749,-414 749,-414 749,-417 746,-420 743,-420"/>
<text text-anchor="start" x="660" y="-408.8" font-family="Helvetica,sans-Serif" font-size="9.00">ICollectionOutput.ts</text>
</a>
</g>
</g>
<!-- src/gathering/CollectionEditor/CollectionEditor.ts&#45;&gt;src/gathering/ICollectionOutput.ts -->
<g id="edge3" class="edge">
<title>src/gathering/CollectionEditor/CollectionEditor.ts&#45;&gt;src/gathering/ICollectionOutput.ts</title>
<path fill="none" stroke="#000000" stroke-opacity="0.200000" d="M579.22,-389.2C599.78,-392.92 624.26,-397.36 645.75,-401.26"/>
<polygon fill="none" stroke="#000000" stroke-opacity="0.200000" points="645.45,-403.34 651.73,-402.34 646.2,-399.2 645.45,-403.34"/>
</g>
<!-- src/gathering/ICollectionEditor.ts&#45;&gt;src/gathering/Pack.ts -->
<g id="edge22" class="edge">
<title>src/gathering/ICollectionEditor.ts&#45;&gt;src/gathering/Pack.ts</title>
<path fill="none" stroke="#000000" stroke-opacity="0.200000" d="M747.7,-387.65C785.04,-393.91 838.52,-404.92 883,-422 895.08,-426.64 907.74,-433.63 917.72,-439.7"/>
<polygon fill="none" stroke="#000000" stroke-opacity="0.200000" points="916.75,-441.57 922.96,-442.95 918.97,-438.01 916.75,-441.57"/>
</g>
<!-- src/gathering/ICollectionOutput.ts&#45;&gt;src/gathering/Collection.ts -->
<g id="edge25" class="edge">
<title>src/gathering/ICollectionOutput.ts&#45;&gt;src/gathering/Collection.ts</title>
<path fill="none" stroke="#000000" stroke-opacity="0.200000" d="M745.04,-420.02C758.92,-422.9 774.18,-426.06 787.73,-428.86"/>
<polygon fill="none" stroke="#000000" stroke-opacity="0.200000" points="787.53,-430.97 793.83,-430.13 788.38,-426.85 787.53,-430.97"/>
</g>
<!-- src/gathering/CollectionEntity/CollectionEntity.ts -->
<g id="node6" class="node">
<title>src/gathering/CollectionEntity/CollectionEntity.ts</title>
<g id="a_node6"><a xlink:href="src/gathering/CollectionEntity/CollectionEntity.ts" xlink:title="CollectionEntity.ts">
<path fill="#ddfeff" stroke="black" d="M739,-498C739,-498 662,-498 662,-498 659,-498 656,-495 656,-492 656,-492 656,-486 656,-486 656,-483 659,-480 662,-480 662,-480 739,-480 739,-480 742,-480 745,-483 745,-486 745,-486 745,-492 745,-492 745,-495 742,-498 739,-498"/>
<text text-anchor="start" x="664" y="-486.8" font-family="Helvetica,sans-Serif" font-size="9.00">CollectionEntity.ts</text>
</a>
</g>
</g>
<!-- src/gathering/CollectionEntity/CollectionEntity.ts&#45;&gt;src/gathering/Pack.ts -->
<g id="edge6" class="edge">
<title>src/gathering/CollectionEntity/CollectionEntity.ts&#45;&gt;src/gathering/Pack.ts</title>
<path fill="none" stroke="#000000" stroke-opacity="0.200000" d="M745.3,-492.97C782.62,-495.03 837.32,-494.88 883,-482 895.8,-478.39 908.84,-471.17 918.84,-464.71"/>
<polygon fill="none" stroke="#000000" stroke-opacity="0.200000" points="920.24,-466.3 924.07,-461.23 917.91,-462.81 920.24,-466.3"/>
</g>
<!-- src/gathering/IPackRepository.ts -->
<g id="node7" class="node">
<title>src/gathering/IPackRepository.ts</title>
<g id="a_node7"><a xlink:href="src/gathering/IPackRepository.ts" xlink:title="IPackRepository.ts">
<path fill="#ddfeff" stroke="black" d="M868.5,-476C868.5,-476 787.5,-476 787.5,-476 784.5,-476 781.5,-473 781.5,-470 781.5,-470 781.5,-464 781.5,-464 781.5,-461 784.5,-458 787.5,-458 787.5,-458 868.5,-458 868.5,-458 871.5,-458 874.5,-461 874.5,-464 874.5,-464 874.5,-470 874.5,-470 874.5,-473 871.5,-476 868.5,-476"/>
<text text-anchor="start" x="789.5" y="-464.8" font-family="Helvetica,sans-Serif" font-size="9.00">IPackRepository.ts</text>
</a>
</g>
</g>
<!-- src/gathering/CollectionEntity/CollectionEntity.ts&#45;&gt;src/gathering/IPackRepository.ts -->
<g id="edge5" class="edge">
<title>src/gathering/CollectionEntity/CollectionEntity.ts&#45;&gt;src/gathering/IPackRepository.ts</title>
<path fill="none" stroke="#000000" stroke-opacity="0.200000" d="M745.04,-481.37C754.77,-479.66 765.19,-477.84 775.22,-476.08"/>
<polygon fill="none" stroke="#000000" stroke-opacity="0.200000" points="775.85,-478.1 781.4,-474.99 775.13,-473.96 775.85,-478.1"/>
</g>
<!-- src/gathering/IPackRepository.ts&#45;&gt;src/gathering/Pack.ts -->
<g id="edge26" class="edge">
<title>src/gathering/IPackRepository.ts&#45;&gt;src/gathering/Pack.ts</title>
<path fill="none" stroke="#000000" stroke-opacity="0.200000" d="M874.59,-460.64C884.64,-459.24 895.07,-457.78 904.45,-456.47"/>
<polygon fill="none" stroke="#000000" stroke-opacity="0.200000" points="904.79,-458.55 910.44,-455.64 904.21,-454.39 904.79,-458.55"/>
</g>
<!-- src/gathering/CollectionLoader/CollectionLoader.ts -->
<g id="node8" class="node">
<title>src/gathering/CollectionLoader/CollectionLoader.ts</title>
<g id="a_node8"><a xlink:href="src/gathering/CollectionLoader/CollectionLoader.ts" xlink:title="CollectionLoader.ts">
<path fill="#ddfeff" stroke="black" d="M575.5,-450C575.5,-450 490.5,-450 490.5,-450 487.5,-450 484.5,-447 484.5,-444 484.5,-444 484.5,-438 484.5,-438 484.5,-435 487.5,-432 490.5,-432 490.5,-432 575.5,-432 575.5,-432 578.5,-432 581.5,-435 581.5,-438 581.5,-438 581.5,-444 581.5,-444 581.5,-447 578.5,-450 575.5,-450"/>
<text text-anchor="start" x="492.5" y="-438.8" font-family="Helvetica,sans-Serif" font-size="9.00">CollectionLoader.ts</text>
</a>
</g>
</g>
<!-- src/gathering/CollectionLoader/CollectionLoader.ts&#45;&gt;src/gathering/Collection.ts -->
<g id="edge7" class="edge">
<title>src/gathering/CollectionLoader/CollectionLoader.ts&#45;&gt;src/gathering/Collection.ts</title>
<path fill="none" stroke="#000000" stroke-opacity="0.200000" d="M571.37,-450.08C617.52,-459.79 698.12,-471.79 765,-456 768.87,-455.09 769.29,-453.43 773,-452 777.76,-450.17 782.84,-448.45 787.91,-446.89"/>
<polygon fill="none" stroke="#000000" stroke-opacity="0.200000" points="788.68,-448.85 793.83,-445.13 787.48,-444.83 788.68,-448.85"/>
</g>
<!-- src/gathering/CollectionLoader/CollectionLoader.ts&#45;&gt;src/gathering/ICollectionEditor.ts -->
<g id="edge8" class="edge">
<title>src/gathering/CollectionLoader/CollectionLoader.ts&#45;&gt;src/gathering/ICollectionEditor.ts</title>
<path fill="none" stroke="#000000" stroke-opacity="0.200000" d="M581.81,-439.03C598.13,-436.14 615.42,-430.33 628,-419 636.04,-411.76 627.96,-403.25 636,-396 639.49,-392.85 643.51,-390.33 647.81,-388.32"/>
<polygon fill="none" stroke="#000000" stroke-opacity="0.200000" points="648.63,-390.25 653.38,-386.02 647.03,-386.37 648.63,-390.25"/>
</g>
<!-- src/gathering/CollectionLoader/CollectionLoader.ts&#45;&gt;src/gathering/ICollectionOutput.ts -->
<g id="edge10" class="edge">
<title>src/gathering/CollectionLoader/CollectionLoader.ts&#45;&gt;src/gathering/ICollectionOutput.ts</title>
<path fill="none" stroke="#000000" stroke-opacity="0.200000" d="M581.87,-432.32C601.85,-428.7 625.16,-424.48 645.73,-420.75"/>
<polygon fill="none" stroke="#000000" stroke-opacity="0.200000" points="646.21,-422.79 651.74,-419.66 645.46,-418.66 646.21,-422.79"/>
</g>
<!-- src/gathering/ICollectionLoader.ts -->
<g id="node9" class="node">
<title>src/gathering/ICollectionLoader.ts</title>
<g id="a_node9"><a xlink:href="src/gathering/ICollectionLoader.ts" xlink:title="ICollectionLoader.ts">
<path fill="#ddfeff" stroke="black" d="M744,-450C744,-450 657,-450 657,-450 654,-450 651,-447 651,-444 651,-444 651,-438 651,-438 651,-435 654,-432 657,-432 657,-432 744,-432 744,-432 747,-432 750,-435 750,-438 750,-438 750,-444 750,-444 750,-447 747,-450 744,-450"/>
<text text-anchor="start" x="659" y="-438.8" font-family="Helvetica,sans-Serif" font-size="9.00">ICollectionLoader.ts</text>
</a>
</g>
</g>
<!-- src/gathering/CollectionLoader/CollectionLoader.ts&#45;&gt;src/gathering/ICollectionLoader.ts -->
<g id="edge9" class="edge">
<title>src/gathering/CollectionLoader/CollectionLoader.ts&#45;&gt;src/gathering/ICollectionLoader.ts</title>
<path fill="none" stroke="#000000" stroke-opacity="0.200000" d="M581.87,-441C601.51,-441 624.36,-441 644.66,-441"/>
<polygon fill="none" stroke="#000000" stroke-opacity="0.200000" points="644.88,-443.1 650.88,-441 644.88,-438.9 644.88,-443.1"/>
</g>
<!-- src/gathering/ICollectionLoader.ts&#45;&gt;src/gathering/Collection.ts -->
<g id="edge23" class="edge">
<title>src/gathering/ICollectionLoader.ts&#45;&gt;src/gathering/Collection.ts</title>
<path fill="none" stroke="#000000" stroke-opacity="0.200000" d="M750.02,-439.45C762.47,-439.06 775.72,-438.63 787.64,-438.25"/>
<polygon fill="none" stroke="#000000" stroke-opacity="0.200000" points="787.82,-440.35 793.75,-438.06 787.68,-436.15 787.82,-440.35"/>
</g>
<!-- src/gathering/CollectionOrganizer/CollectionOrganizer.ts -->
<g id="node10" class="node">
<title>src/gathering/CollectionOrganizer/CollectionOrganizer.ts</title>
<g id="a_node10"><a xlink:href="src/gathering/CollectionOrganizer/CollectionOrganizer.ts" xlink:title="CollectionOrganizer.ts">
<path fill="#ddfeff" stroke="black" d="M748,-558C748,-558 653,-558 653,-558 650,-558 647,-555 647,-552 647,-552 647,-546 647,-546 647,-543 650,-540 653,-540 653,-540 748,-540 748,-540 751,-540 754,-543 754,-546 754,-546 754,-552 754,-552 754,-555 751,-558 748,-558"/>
<text text-anchor="start" x="655" y="-546.8" font-family="Helvetica,sans-Serif" font-size="9.00">CollectionOrganizer.ts</text>
</a>
</g>
</g>
<!-- src/gathering/IBinderOutput.ts -->
<g id="node11" class="node">
<title>src/gathering/IBinderOutput.ts</title>
<g id="a_node11"><a xlink:href="src/gathering/IBinderOutput.ts" xlink:title="IBinderOutput.ts">
<path fill="#ddfeff" stroke="black" d="M973,-578C973,-578 902,-578 902,-578 899,-578 896,-575 896,-572 896,-572 896,-566 896,-566 896,-563 899,-560 902,-560 902,-560 973,-560 973,-560 976,-560 979,-563 979,-566 979,-566 979,-572 979,-572 979,-575 976,-578 973,-578"/>
<text text-anchor="start" x="904" y="-566.8" font-family="Helvetica,sans-Serif" font-size="9.00">IBinderOutput.ts</text>
</a>
</g>
</g>
<!-- src/gathering/CollectionOrganizer/CollectionOrganizer.ts&#45;&gt;src/gathering/IBinderOutput.ts -->
<g id="edge11" class="edge">
<title>src/gathering/CollectionOrganizer/CollectionOrganizer.ts&#45;&gt;src/gathering/IBinderOutput.ts</title>
<path fill="none" stroke="#000000" stroke-opacity="0.200000" d="M745.99,-558.06C754.9,-559.6 764.22,-561.02 773,-562 812.04,-566.36 856.61,-568.06 889.35,-568.69"/>
<polygon fill="none" stroke="#000000" stroke-opacity="0.200000" points="889.69,-570.8 895.73,-568.8 889.77,-566.6 889.69,-570.8"/>
</g>
<!-- src/gathering/ICardRepository.ts -->
<g id="node12" class="node">
<title>src/gathering/ICardRepository.ts</title>
<g id="a_node12"><a xlink:href="src/gathering/ICardRepository.ts" xlink:title="ICardRepository.ts">
<path fill="#ddfeff" stroke="black" d="M868.5,-556C868.5,-556 787.5,-556 787.5,-556 784.5,-556 781.5,-553 781.5,-550 781.5,-550 781.5,-544 781.5,-544 781.5,-541 784.5,-538 787.5,-538 787.5,-538 868.5,-538 868.5,-538 871.5,-538 874.5,-541 874.5,-544 874.5,-544 874.5,-550 874.5,-550 874.5,-553 871.5,-556 868.5,-556"/>
<text text-anchor="start" x="789.5" y="-544.8" font-family="Helvetica,sans-Serif" font-size="9.00">ICardRepository.ts</text>
</a>
</g>
</g>
<!-- src/gathering/CollectionOrganizer/CollectionOrganizer.ts&#45;&gt;src/gathering/ICardRepository.ts -->
<g id="edge12" class="edge">
<title>src/gathering/CollectionOrganizer/CollectionOrganizer.ts&#45;&gt;src/gathering/ICardRepository.ts</title>
<path fill="none" stroke="#000000" stroke-opacity="0.200000" d="M754.36,-548.16C761.23,-548.05 768.27,-547.94 775.12,-547.83"/>
<polygon fill="none" stroke="#000000" stroke-opacity="0.200000" points="775.39,-549.92 781.36,-547.73 775.33,-545.72 775.39,-549.92"/>
</g>
<!-- src/gathering/ICollectionOrganizer.ts -->
<g id="node13" class="node">
<title>src/gathering/ICollectionOrganizer.ts</title>
<g id="a_node13"><a xlink:href="src/gathering/ICollectionOrganizer.ts" xlink:title="ICollectionOrganizer.ts">
<path fill="#ddfeff" stroke="black" d="M877,-526C877,-526 779,-526 779,-526 776,-526 773,-523 773,-520 773,-520 773,-514 773,-514 773,-511 776,-508 779,-508 779,-508 877,-508 877,-508 880,-508 883,-511 883,-514 883,-514 883,-520 883,-520 883,-523 880,-526 877,-526"/>
<text text-anchor="start" x="781" y="-514.8" font-family="Helvetica,sans-Serif" font-size="9.00">ICollectionOrganizer.ts</text>
</a>
</g>
</g>
<!-- src/gathering/CollectionOrganizer/CollectionOrganizer.ts&#45;&gt;src/gathering/ICollectionOrganizer.ts -->
<g id="edge13" class="edge">
<title>src/gathering/CollectionOrganizer/CollectionOrganizer.ts&#45;&gt;src/gathering/ICollectionOrganizer.ts</title>
<path fill="none" stroke="#000000" stroke-opacity="0.200000" d="M737.13,-539.92C752.1,-536.1 769.62,-531.63 785.19,-527.66"/>
<polygon fill="none" stroke="#000000" stroke-opacity="0.200000" points="785.99,-529.62 791.28,-526.11 784.95,-525.55 785.99,-529.62"/>
</g>
<!-- src/gathering/ICardRepository.ts&#45;&gt;src/gathering/Pack.ts -->
<g id="edge20" class="edge">
<title>src/gathering/ICardRepository.ts&#45;&gt;src/gathering/Pack.ts</title>
<path fill="none" stroke="#000000" stroke-opacity="0.200000" d="M872.45,-537.98C876.19,-536.31 879.77,-534.34 883,-532 906.23,-515.2 922.36,-484.97 930.46,-466.87"/>
<polygon fill="none" stroke="#000000" stroke-opacity="0.200000" points="932.45,-467.58 932.91,-461.24 928.59,-465.91 932.45,-467.58"/>
</g>
<!-- src/gathering/ICardRepository.ts&#45;&gt;src/gathering/IBinderOutput.ts -->
<g id="edge21" class="edge">
<title>src/gathering/ICardRepository.ts&#45;&gt;src/gathering/IBinderOutput.ts</title>
<path fill="none" stroke="#000000" stroke-opacity="0.200000" d="M873.03,-556.01C878.57,-557.14 884.25,-558.31 889.82,-559.45"/>
<polygon fill="none" stroke="#000000" stroke-opacity="0.200000" points="889.52,-561.53 895.82,-560.67 890.36,-557.41 889.52,-561.53"/>
</g>
<!-- src/gathering/ICollectionOrganizer.ts&#45;&gt;src/gathering/IBinderOutput.ts -->
<g id="edge24" class="edge">
<title>src/gathering/ICollectionOrganizer.ts&#45;&gt;src/gathering/IBinderOutput.ts</title>
<path fill="none" stroke="#000000" stroke-opacity="0.200000" d="M867.63,-526.02C872.9,-527.74 878.15,-529.73 883,-532 896.59,-538.36 910.48,-548.09 920.7,-555.97"/>
<polygon fill="none" stroke="#000000" stroke-opacity="0.200000" points="919.68,-557.83 925.69,-559.89 922.27,-554.53 919.68,-557.83"/>
</g>
<!-- src/gathering/CollectionOrganizer/sort&#45;cards&#45;by/asset&#45;slots.ts -->
<g id="node14" class="node">
<title>src/gathering/CollectionOrganizer/sort&#45;cards&#45;by/asset&#45;slots.ts</title>
<g id="a_node14"><a xlink:href="src/gathering/CollectionOrganizer/sort-cards-by/asset-slots.ts" xlink:title="asset&#45;slots.ts">
<path fill="#ddfeff" stroke="black" d="M731,-592C731,-592 670,-592 670,-592 667,-592 664,-589 664,-586 664,-586 664,-580 664,-580 664,-577 667,-574 670,-574 670,-574 731,-574 731,-574 734,-574 737,-577 737,-580 737,-580 737,-586 737,-586 737,-589 734,-592 731,-592"/>
<text text-anchor="start" x="672" y="-580.8" font-family="Helvetica,sans-Serif" font-size="9.00">asset&#45;slots.ts</text>
</a>
</g>
</g>
<!-- src/gathering/CollectionOrganizer/sort&#45;cards&#45;by/asset&#45;slots.ts&#45;&gt;src/gathering/IBinderOutput.ts -->
<g id="edge14" class="edge">
<title>src/gathering/CollectionOrganizer/sort&#45;cards&#45;by/asset&#45;slots.ts&#45;&gt;src/gathering/IBinderOutput.ts</title>
<path fill="none" stroke="#000000" stroke-opacity="0.200000" d="M737.33,-581.23C773.95,-579.38 832.46,-576.28 883,-573 885.22,-572.86 887.5,-572.7 889.79,-572.55"/>
<polygon fill="none" stroke="#000000" stroke-opacity="0.200000" points="890.06,-574.63 895.9,-572.12 889.77,-570.44 890.06,-574.63"/>
</g>
<!-- src/gathering/CollectionOrganizer/sort&#45;cards&#45;by/asset&#45;slots.ts&#45;&gt;src/gathering/ICollectionOrganizer.ts -->
<g id="edge15" class="edge">
<title>src/gathering/CollectionOrganizer/sort&#45;cards&#45;by/asset&#45;slots.ts&#45;&gt;src/gathering/ICollectionOrganizer.ts</title>
<path fill="none" stroke="#000000" stroke-opacity="0.200000" d="M737.25,-582.82C747.39,-581.03 757.66,-577.3 765,-570 777.24,-557.83 761.19,-544.58 773,-532 773.67,-531.29 774.36,-530.61 775.09,-529.97"/>
<polygon fill="none" stroke="#000000" stroke-opacity="0.200000" points="776.66,-531.41 780.21,-526.14 774.15,-528.05 776.66,-531.41"/>
</g>
<!-- src/gathering/CollectionOrganizer/sort&#45;cards&#45;by/classes.ts -->
<g id="node15" class="node">
<title>src/gathering/CollectionOrganizer/sort&#45;cards&#45;by/classes.ts</title>
<g id="a_node15"><a xlink:href="src/gathering/CollectionOrganizer/sort-cards-by/classes.ts" xlink:title="classes.ts">
<path fill="#ddfeff" stroke="black" d="M724,-622C724,-622 677,-622 677,-622 674,-622 671,-619 671,-616 671,-616 671,-610 671,-610 671,-607 674,-604 677,-604 677,-604 724,-604 724,-604 727,-604 730,-607 730,-610 730,-610 730,-616 730,-616 730,-619 727,-622 724,-622"/>
<text text-anchor="start" x="679" y="-610.8" font-family="Helvetica,sans-Serif" font-size="9.00">classes.ts</text>
</a>
</g>
</g>
<!-- src/gathering/CollectionOrganizer/sort&#45;cards&#45;by/classes.ts&#45;&gt;src/gathering/IBinderOutput.ts -->
<g id="edge16" class="edge">
<title>src/gathering/CollectionOrganizer/sort&#45;cards&#45;by/classes.ts&#45;&gt;src/gathering/IBinderOutput.ts</title>
<path fill="none" stroke="#000000" stroke-opacity="0.200000" d="M730.14,-608C765.95,-601.71 829.08,-590.44 883,-580 885.23,-579.57 887.5,-579.12 889.8,-578.67"/>
<polygon fill="none" stroke="#000000" stroke-opacity="0.200000" points="890.44,-580.68 895.92,-577.45 889.62,-576.56 890.44,-580.68"/>
</g>
<!-- src/gathering/CollectionOrganizer/sort&#45;cards&#45;by/classes.ts&#45;&gt;src/gathering/ICollectionOrganizer.ts -->
<g id="edge17" class="edge">
<title>src/gathering/CollectionOrganizer/sort&#45;cards&#45;by/classes.ts&#45;&gt;src/gathering/ICollectionOrganizer.ts</title>
<path fill="none" stroke="#000000" stroke-opacity="0.200000" d="M730.17,-613.2C742.62,-611.72 756.32,-607.71 765,-598 784.7,-575.98 753.73,-554.4 773,-532 773.48,-531.45 773.97,-530.91 774.48,-530.4"/>
<polygon fill="none" stroke="#000000" stroke-opacity="0.200000" points="776.21,-531.69 779.5,-526.26 773.54,-528.46 776.21,-531.69"/>
</g>
<!-- src/gathering/CollectionOrganizer/sort&#45;cards&#45;by/player&#45;card&#45;types.ts -->
<g id="node16" class="node">
<title>src/gathering/CollectionOrganizer/sort&#45;cards&#45;by/player&#45;card&#45;types.ts</title>
<g id="a_node16"><a xlink:href="src/gathering/CollectionOrganizer/sort-cards-by/player-card-types.ts" xlink:title="player&#45;card&#45;types.ts">
<path fill="#ddfeff" stroke="black" d="M743,-652C743,-652 658,-652 658,-652 655,-652 652,-649 652,-646 652,-646 652,-640 652,-640 652,-637 655,-634 658,-634 658,-634 743,-634 743,-634 746,-634 749,-637 749,-640 749,-640 749,-646 749,-646 749,-649 746,-652 743,-652"/>
<text text-anchor="start" x="660" y="-640.8" font-family="Helvetica,sans-Serif" font-size="9.00">player&#45;card&#45;types.ts</text>
</a>
</g>
</g>
<!-- src/gathering/CollectionOrganizer/sort&#45;cards&#45;by/player&#45;card&#45;types.ts&#45;&gt;src/gathering/IBinderOutput.ts -->
<g id="edge18" class="edge">
<title>src/gathering/CollectionOrganizer/sort&#45;cards&#45;by/player&#45;card&#45;types.ts&#45;&gt;src/gathering/IBinderOutput.ts</title>
<path fill="none" stroke="#000000" stroke-opacity="0.200000" d="M742.14,-633.93C779.35,-625.13 835.65,-610.55 883,-593 892.8,-589.37 903.35,-584.79 912.46,-580.6"/>
<polygon fill="none" stroke="#000000" stroke-opacity="0.200000" points="913.38,-582.49 917.94,-578.06 911.61,-578.68 913.38,-582.49"/>
</g>
<!-- src/gathering/CollectionOrganizer/sort&#45;cards&#45;by/player&#45;card&#45;types.ts&#45;&gt;src/gathering/ICollectionOrganizer.ts -->
<g id="edge19" class="edge">
<title>src/gathering/CollectionOrganizer/sort&#45;cards&#45;by/player&#45;card&#45;types.ts&#45;&gt;src/gathering/ICollectionOrganizer.ts</title>
<path fill="none" stroke="#000000" stroke-opacity="0.200000" d="M749,-638.9C755.11,-636.47 760.71,-632.98 765,-628 778.97,-611.78 759.35,-548.49 773,-532 773.47,-531.44 773.95,-530.9 774.45,-530.37"/>
<polygon fill="none" stroke="#000000" stroke-opacity="0.200000" points="776.19,-531.66 779.4,-526.17 773.47,-528.45 776.19,-531.66"/>
</g>
<!-- src/lib/SortableClasses/SortableClasses.svelte.ts -->
<g id="node17" class="node">
<title>src/lib/SortableClasses/SortableClasses.svelte.ts</title>
<g id="a_node17"><a xlink:href="src/lib/SortableClasses/SortableClasses.svelte.ts" xlink:title="SortableClasses.svelte.ts">
<path fill="#ddfeff" stroke="black" d="M588,-110C588,-110 478,-110 478,-110 475,-110 472,-107 472,-104 472,-104 472,-98 472,-98 472,-95 475,-92 478,-92 478,-92 588,-92 588,-92 591,-92 594,-95 594,-98 594,-98 594,-104 594,-104 594,-107 591,-110 588,-110"/>
<text text-anchor="start" x="480" y="-98.8" font-family="Helvetica,sans-Serif" font-size="9.00">SortableClasses.svelte.ts</text>
</a>
</g>
</g>
<!-- src/lib/SortableClasses/SortableClasses.svelte.ts&#45;&gt;src/gathering/ICollectionOrganizer.ts -->
<g id="edge27" class="edge">
<title>src/lib/SortableClasses/SortableClasses.svelte.ts&#45;&gt;src/gathering/ICollectionOrganizer.ts</title>
<path fill="none" stroke="#000000" stroke-opacity="0.200000" d="M594.14,-101.72C648.39,-105.94 725.54,-121.58 765,-174 785.59,-201.35 756.26,-452.14 773,-482 778.58,-491.95 788.29,-499.53 797.96,-505.05"/>
<polygon fill="none" stroke="#000000" stroke-opacity="0.200000" points="797.02,-506.93 803.3,-507.9 799,-503.22 797.02,-506.93"/>
</g>
<!-- src/lib/SortablePlayerCardTypes/SortablePlayerCardTypes.svelte.ts -->
<g id="node18" class="node">
<title>src/lib/SortablePlayerCardTypes/SortablePlayerCardTypes.svelte.ts</title>
<g id="a_node18"><a xlink:href="src/lib/SortablePlayerCardTypes/SortablePlayerCardTypes.svelte.ts" xlink:title="SortablePlayerCardTypes.svelte.ts">
<path fill="#ddfeff" stroke="black" d="M606,-170C606,-170 460,-170 460,-170 457,-170 454,-167 454,-164 454,-164 454,-158 454,-158 454,-155 457,-152 460,-152 460,-152 606,-152 606,-152 609,-152 612,-155 612,-158 612,-158 612,-164 612,-164 612,-167 609,-170 606,-170"/>
<text text-anchor="start" x="462" y="-158.8" font-family="Helvetica,sans-Serif" font-size="9.00">SortablePlayerCardTypes.svelte.ts</text>
</a>
</g>
</g>
<!-- src/lib/SortablePlayerCardTypes/SortablePlayerCardTypes.svelte.ts&#45;&gt;src/gathering/ICollectionOrganizer.ts -->
<g id="edge28" class="edge">
<title>src/lib/SortablePlayerCardTypes/SortablePlayerCardTypes.svelte.ts&#45;&gt;src/gathering/ICollectionOrganizer.ts</title>
<path fill="none" stroke="#000000" stroke-opacity="0.200000" d="M606.64,-170.04C659.98,-180.85 729.14,-204.48 765,-256 779.35,-276.62 760.61,-460.14 773,-482 778.62,-491.92 788.35,-499.5 798.01,-505.02"/>
<polygon fill="none" stroke="#000000" stroke-opacity="0.200000" points="797.07,-506.9 803.35,-507.88 799.05,-503.19 797.07,-506.9"/>
</g>
<!-- src/lib/SortableSlots/SortableSlots.svelte.ts -->
<g id="node19" class="node">
<title>src/lib/SortableSlots/SortableSlots.svelte.ts</title>
<g id="a_node19"><a xlink:href="src/lib/SortableSlots/SortableSlots.svelte.ts" xlink:title="SortableSlots.svelte.ts">
<path fill="#ddfeff" stroke="black" d="M581,-230C581,-230 485,-230 485,-230 482,-230 479,-227 479,-224 479,-224 479,-218 479,-218 479,-215 482,-212 485,-212 485,-212 581,-212 581,-212 584,-212 587,-215 587,-218 587,-218 587,-224 587,-224 587,-227 584,-230 581,-230"/>
<text text-anchor="start" x="487" y="-218.8" font-family="Helvetica,sans-Serif" font-size="9.00">SortableSlots.svelte.ts</text>
</a>
</g>
</g>
<!-- src/lib/SortableSlots/SortableSlots.svelte.ts&#45;&gt;src/gathering/ICollectionOrganizer.ts -->
<g id="edge29" class="edge">
<title>src/lib/SortableSlots/SortableSlots.svelte.ts&#45;&gt;src/gathering/ICollectionOrganizer.ts</title>
<path fill="none" stroke="#000000" stroke-opacity="0.200000" d="M566.59,-230.06C619.71,-246.8 723.22,-288.2 765,-366 777.23,-388.76 759.89,-459.74 773,-482 778.84,-491.91 788.71,-499.51 798.43,-505.05"/>
<polygon fill="none" stroke="#000000" stroke-opacity="0.200000" points="797.51,-506.94 803.79,-507.92 799.49,-503.24 797.51,-506.94"/>
</g>
<!-- src/lib/userBrowsesItsCollection/userBrowsesItsCollection.ts -->
<g id="node20" class="node">
<title>src/lib/userBrowsesItsCollection/userBrowsesItsCollection.ts</title>
<g id="a_node20"><a xlink:href="src/lib/userBrowsesItsCollection/userBrowsesItsCollection.ts" xlink:title="userBrowsesItsCollection.ts">
<path fill="#ddfeff" stroke="black" d="M593.5,-50C593.5,-50 472.5,-50 472.5,-50 469.5,-50 466.5,-47 466.5,-44 466.5,-44 466.5,-38 466.5,-38 466.5,-35 469.5,-32 472.5,-32 472.5,-32 593.5,-32 593.5,-32 596.5,-32 599.5,-35 599.5,-38 599.5,-38 599.5,-44 599.5,-44 599.5,-47 596.5,-50 593.5,-50"/>
<text text-anchor="start" x="474.5" y="-38.8" font-family="Helvetica,sans-Serif" font-size="9.00">userBrowsesItsCollection.ts</text>
</a>
</g>
</g>
<!-- src/lib/userBrowsesItsCollection/userBrowsesItsCollection.ts&#45;&gt;src/gathering/IBinderOutput.ts -->
<g id="edge30" class="edge">
<title>src/lib/userBrowsesItsCollection/userBrowsesItsCollection.ts&#45;&gt;src/gathering/IBinderOutput.ts</title>
<path fill="none" stroke="#000000" stroke-opacity="0.200000" d="M582.57,-31.95C633.66,-25.35 713.64,-23.67 765,-65 838.2,-123.9 865.59,-378.1 896,-467 906.79,-498.53 921.74,-534.59 930.13,-554.27"/>
<polygon fill="none" stroke="#000000" stroke-opacity="0.200000" points="928.22,-555.14 932.51,-559.83 932.08,-553.49 928.22,-555.14"/>
</g>
<!-- src/lib/userBrowsesItsCollection/userBrowsesItsCollection.ts&#45;&gt;src/gathering/ICollectionOrganizer.ts -->
<g id="edge31" class="edge">
<title>src/lib/userBrowsesItsCollection/userBrowsesItsCollection.ts&#45;&gt;src/gathering/ICollectionOrganizer.ts</title>
<path fill="none" stroke="#000000" stroke-opacity="0.200000" d="M571.69,-50.03C635.6,-65.53 758.95,-96.25 765,-104 777.93,-120.56 762.77,-463.65 773,-482 778.55,-491.96 788.26,-499.55 797.94,-505.06"/>
<polygon fill="none" stroke="#000000" stroke-opacity="0.200000" points="797,-506.94 803.28,-507.92 798.98,-503.24 797,-506.94"/>
</g>
<!-- src/lib/userEditsItsCollection/userEditsItsCollection.ts -->
<g id="node21" class="node">
<title>src/lib/userEditsItsCollection/userEditsItsCollection.ts</title>
<g id="a_node21"><a xlink:href="src/lib/userEditsItsCollection/userEditsItsCollection.ts" xlink:title="userEditsItsCollection.ts">
<path fill="#ddfeff" stroke="black" d="M585.5,-290C585.5,-290 480.5,-290 480.5,-290 477.5,-290 474.5,-287 474.5,-284 474.5,-284 474.5,-278 474.5,-278 474.5,-275 477.5,-272 480.5,-272 480.5,-272 585.5,-272 585.5,-272 588.5,-272 591.5,-275 591.5,-278 591.5,-278 591.5,-284 591.5,-284 591.5,-287 588.5,-290 585.5,-290"/>
<text text-anchor="start" x="482.5" y="-278.8" font-family="Helvetica,sans-Serif" font-size="9.00">userEditsItsCollection.ts</text>
</a>
</g>
</g>
<!-- src/lib/userEditsItsCollection/userEditsItsCollection.ts&#45;&gt;src/gathering/Collection.ts -->
<g id="edge32" class="edge">
<title>src/lib/userEditsItsCollection/userEditsItsCollection.ts&#45;&gt;src/gathering/Collection.ts</title>
<path fill="none" stroke="#000000" stroke-opacity="0.200000" d="M577.03,-290.01C625.82,-301.7 706.21,-325.54 765,-366 787.33,-381.37 806.72,-406.58 817.63,-422.46"/>
<polygon fill="none" stroke="#000000" stroke-opacity="0.200000" points="816.16,-424.04 821.25,-427.85 819.65,-421.7 816.16,-424.04"/>
</g>
<!-- src/lib/userEditsItsCollection/userEditsItsCollection.ts&#45;&gt;src/gathering/ICollectionEditor.ts -->
<g id="edge33" class="edge">
<title>src/lib/userEditsItsCollection/userEditsItsCollection.ts&#45;&gt;src/gathering/ICollectionEditor.ts</title>
<path fill="none" stroke="#000000" stroke-opacity="0.200000" d="M548.98,-290.05C578.61,-307.96 644.79,-347.94 678.66,-368.4"/>
<polygon fill="none" stroke="#000000" stroke-opacity="0.200000" points="677.97,-370.45 684.2,-371.75 680.15,-366.85 677.97,-370.45"/>
</g>
<!-- src/lib/userEditsItsCollection/userEditsItsCollection.ts&#45;&gt;src/gathering/ICollectionOutput.ts -->
<g id="edge34" class="edge">
<title>src/lib/userEditsItsCollection/userEditsItsCollection.ts&#45;&gt;src/gathering/ICollectionOutput.ts</title>
<path fill="none" stroke="#000000" stroke-opacity="0.200000" d="M550.07,-290.11C571.35,-303.03 608.44,-328.75 628,-361 636.27,-374.64 624.76,-384.68 636,-396 639,-399.02 642.49,-401.48 646.27,-403.48"/>
<polygon fill="none" stroke="#000000" stroke-opacity="0.200000" points="645.64,-405.5 651.97,-406.08 647.38,-401.68 645.64,-405.5"/>
</g>
<!-- src/routes/collection/+page.svelte.ts -->
<g id="node22" class="node">
<title>src/routes/collection/+page.svelte.ts</title>
<g id="a_node22"><a xlink:href="src/routes/collection/+page.svelte.ts" xlink:title="+page.svelte.ts">
<path fill="#ddfeff" stroke="black" d="M105,-60C105,-60 38,-60 38,-60 35,-60 32,-57 32,-54 32,-54 32,-48 32,-48 32,-45 35,-42 38,-42 38,-42 105,-42 105,-42 108,-42 111,-45 111,-48 111,-48 111,-54 111,-54 111,-57 108,-60 105,-60"/>
<text text-anchor="start" x="40" y="-48.8" font-family="Helvetica,sans-Serif" font-size="9.00">+page.svelte.ts</text>
</a>
</g>
</g>
<!-- src/routes/collection/+page.svelte.ts&#45;&gt;src/lib/SortableClasses/SortableClasses.svelte.ts -->
<g id="edge36" class="edge">
<title>src/routes/collection/+page.svelte.ts&#45;&gt;src/lib/SortableClasses/SortableClasses.svelte.ts</title>
<path fill="none" stroke="#000000" stroke-width="2" stroke-opacity="0.200000" d="M86.32,-60.03C96.36,-66.14 110.5,-73.82 124,-78 240.08,-113.95 383.48,-112.09 465.67,-106.92"/>
<polygon fill="#000000" fill-opacity="0.200000" stroke="#000000" stroke-width="2" stroke-opacity="0.200000" points="466.12,-109 471.97,-106.51 465.85,-104.8 466.12,-109"/>
</g>
<!-- src/routes/collection/+page.svelte.ts&#45;&gt;src/lib/SortablePlayerCardTypes/SortablePlayerCardTypes.svelte.ts -->
<g id="edge37" class="edge">
<title>src/routes/collection/+page.svelte.ts&#45;&gt;src/lib/SortablePlayerCardTypes/SortablePlayerCardTypes.svelte.ts</title>
<path fill="none" stroke="#000000" stroke-width="2" stroke-opacity="0.200000" d="M81.44,-60.23C91.05,-69.55 107.22,-83.6 124,-91 229.47,-137.52 362.95,-153.22 447.93,-158.47"/>
<polygon fill="#000000" fill-opacity="0.200000" stroke="#000000" stroke-width="2" stroke-opacity="0.200000" points="447.85,-160.57 453.96,-158.83 448.1,-156.37 447.85,-160.57"/>
</g>
<!-- src/routes/collection/+page.svelte.ts&#45;&gt;src/lib/SortableSlots/SortableSlots.svelte.ts -->
<g id="edge38" class="edge">
<title>src/routes/collection/+page.svelte.ts&#45;&gt;src/lib/SortableSlots/SortableSlots.svelte.ts</title>
<path fill="none" stroke="#000000" stroke-width="2" stroke-opacity="0.200000" d="M78.36,-60.09C86.92,-72.65 104,-95.21 124,-108 234.38,-178.62 388.91,-205.68 472.55,-215.61"/>
<polygon fill="#000000" fill-opacity="0.200000" stroke="#000000" stroke-width="2" stroke-opacity="0.200000" points="472.49,-217.71 478.69,-216.32 472.98,-213.54 472.49,-217.71"/>
</g>
<!-- src/routes/collection/+page.svelte.ts&#45;&gt;src/lib/userBrowsesItsCollection/userBrowsesItsCollection.ts -->
<g id="edge39" class="edge">
<title>src/routes/collection/+page.svelte.ts&#45;&gt;src/lib/userBrowsesItsCollection/userBrowsesItsCollection.ts</title>
<path fill="none" stroke="#000000" stroke-width="2" stroke-opacity="0.200000" d="M100.06,-60.06C107.74,-62.3 116.14,-64.49 124,-66 257.61,-91.69 295.7,-96.79 430,-75 456.5,-70.7 485.41,-60.5 505.67,-52.39"/>
<polygon fill="#000000" fill-opacity="0.200000" stroke="#000000" stroke-width="2" stroke-opacity="0.200000" points="506.63,-54.26 511.4,-50.06 505.05,-50.37 506.63,-54.26"/>
</g>
<!-- src/routes/collection/Binder.svelte.ts -->
<g id="node23" class="node">
<title>src/routes/collection/Binder.svelte.ts</title>
<g id="a_node23"><a xlink:href="src/routes/collection/Binder.svelte.ts" xlink:title="Binder.svelte.ts">
<path fill="#ddfeff" stroke="black" d="M198,-60C198,-60 130,-60 130,-60 127,-60 124,-57 124,-54 124,-54 124,-48 124,-48 124,-45 127,-42 130,-42 130,-42 198,-42 198,-42 201,-42 204,-45 204,-48 204,-48 204,-54 204,-54 204,-57 201,-60 198,-60"/>
<text text-anchor="start" x="132" y="-48.8" font-family="Helvetica,sans-Serif" font-size="9.00">Binder.svelte.ts</text>
</a>
</g>
</g>
<!-- src/routes/collection/+page.svelte.ts&#45;&gt;src/routes/collection/Binder.svelte.ts -->
<g id="edge35" class="edge">
<title>src/routes/collection/+page.svelte.ts&#45;&gt;src/routes/collection/Binder.svelte.ts</title>
<path fill="none" stroke="#000000" stroke-width="2" stroke-opacity="0.200000" d="M111.14,-51C113.26,-51 115.39,-51 117.52,-51"/>
<polygon fill="#000000" fill-opacity="0.200000" stroke="#000000" stroke-width="2" stroke-opacity="0.200000" points="117.91,-53.1 123.91,-51 117.91,-48.9 117.91,-53.1"/>
</g>
<!-- src/routes/collection/Binder.svelte.ts&#45;&gt;src/lib/userBrowsesItsCollection/userBrowsesItsCollection.ts -->
<g id="edge41" class="edge">
<title>src/routes/collection/Binder.svelte.ts&#45;&gt;src/lib/userBrowsesItsCollection/userBrowsesItsCollection.ts</title>
<path fill="none" stroke="#000000" stroke-opacity="0.200000" d="M190.88,-60.01C199.12,-62.46 208.35,-64.78 217,-66 310.73,-79.25 336.02,-77.35 430,-66 452.64,-63.27 477.5,-57.24 497.01,-51.78"/>
<polygon fill="none" stroke="#000000" stroke-opacity="0.200000" points="497.69,-53.78 502.89,-50.12 496.54,-49.74 497.69,-53.78"/>
</g>
<!-- src/routes/collection/PocketSheet.svelte.ts -->
<g id="node24" class="node">
<title>src/routes/collection/PocketSheet.svelte.ts</title>
<g id="a_node24"><a xlink:href="src/routes/collection/PocketSheet.svelte.ts" xlink:title="PocketSheet.svelte.ts">
<path fill="#ddfeff" stroke="black" d="M315,-60C315,-60 223,-60 223,-60 220,-60 217,-57 217,-54 217,-54 217,-48 217,-48 217,-45 220,-42 223,-42 223,-42 315,-42 315,-42 318,-42 321,-45 321,-48 321,-48 321,-54 321,-54 321,-57 318,-60 315,-60"/>
<text text-anchor="start" x="225" y="-48.8" font-family="Helvetica,sans-Serif" font-size="9.00">PocketSheet.svelte.ts</text>
</a>
</g>
</g>
<!-- src/routes/collection/Binder.svelte.ts&#45;&gt;src/routes/collection/PocketSheet.svelte.ts -->
<g id="edge40" class="edge">
<title>src/routes/collection/Binder.svelte.ts&#45;&gt;src/routes/collection/PocketSheet.svelte.ts</title>
<path fill="none" stroke="#000000" stroke-width="2" stroke-opacity="0.200000" d="M204.23,-51C206.28,-51 208.35,-51 210.44,-51"/>
<polygon fill="#000000" fill-opacity="0.200000" stroke="#000000" stroke-width="2" stroke-opacity="0.200000" points="210.73,-53.1 216.73,-51 210.73,-48.9 210.73,-53.1"/>
</g>
<!-- src/routes/collection/PocketSheet.svelte.ts&#45;&gt;src/lib/userBrowsesItsCollection/userBrowsesItsCollection.ts -->
<g id="edge44" class="edge">
<title>src/routes/collection/PocketSheet.svelte.ts&#45;&gt;src/lib/userBrowsesItsCollection/userBrowsesItsCollection.ts</title>
<path fill="none" stroke="#000000" stroke-opacity="0.200000" d="M301.98,-41.98C312.13,-39.53 323.46,-37.22 334,-36 375.49,-31.2 422.19,-32.08 459.81,-34.33"/>
<polygon fill="none" stroke="#000000" stroke-opacity="0.200000" points="460.12,-36.46 466.24,-34.74 460.39,-32.27 460.12,-36.46"/>
</g>
<!-- src/routes/collection/Pocket.svelte.ts -->
<g id="node25" class="node">
<title>src/routes/collection/Pocket.svelte.ts</title>
<g id="a_node25"><a xlink:href="src/routes/collection/Pocket.svelte.ts" xlink:title="Pocket.svelte.ts">
<path fill="#ddfeff" stroke="black" d="M408,-60C408,-60 340,-60 340,-60 337,-60 334,-57 334,-54 334,-54 334,-48 334,-48 334,-45 337,-42 340,-42 340,-42 408,-42 408,-42 411,-42 414,-45 414,-48 414,-48 414,-54 414,-54 414,-57 411,-60 408,-60"/>
<text text-anchor="start" x="342" y="-48.8" font-family="Helvetica,sans-Serif" font-size="9.00">Pocket.svelte.ts</text>
</a>
</g>
</g>
<!-- src/routes/collection/PocketSheet.svelte.ts&#45;&gt;src/routes/collection/Pocket.svelte.ts -->
<g id="edge43" class="edge">
<title>src/routes/collection/PocketSheet.svelte.ts&#45;&gt;src/routes/collection/Pocket.svelte.ts</title>
<path fill="none" stroke="#000000" stroke-width="2" stroke-opacity="0.200000" d="M321.2,-51C323.32,-51 325.44,-51 327.55,-51"/>
<polygon fill="#000000" fill-opacity="0.200000" stroke="#000000" stroke-width="2" stroke-opacity="0.200000" points="327.81,-53.1 333.81,-51 327.81,-48.9 327.81,-53.1"/>
</g>
<!-- src/routes/collection/Pocket.svelte.ts&#45;&gt;src/lib/userBrowsesItsCollection/userBrowsesItsCollection.ts -->
<g id="edge42" class="edge">
<title>src/routes/collection/Pocket.svelte.ts&#45;&gt;src/lib/userBrowsesItsCollection/userBrowsesItsCollection.ts</title>
<path fill="none" stroke="#000000" stroke-opacity="0.200000" d="M414.21,-48.5C428.16,-47.61 444.35,-46.58 460.17,-45.58"/>
<polygon fill="none" stroke="#000000" stroke-opacity="0.200000" points="460.59,-47.65 466.44,-45.18 460.32,-43.46 460.59,-47.65"/>
</g>
</g>
</svg>
