<?xml version="1.0" encoding="UTF-8" standalone="no"?>
<!DOCTYPE svg PUBLIC "-//W3C//DTD SVG 1.1//EN"
 "http://www.w3.org/Graphics/SVG/1.1/DTD/svg11.dtd">
<!-- Generated by graphviz version 2.50.0 (20211204.2007)
 -->
<!-- Title: dependency&#45;cruiser output Pages: 1 -->
<svg width="372pt" height="418pt"
 viewBox="0.00 0.00 372.00 418.00" xmlns="http://www.w3.org/2000/svg" xmlns:xlink="http://www.w3.org/1999/xlink">
<g id="graph0" class="graph" transform="scale(1 1) rotate(0) translate(4 414)">
<title>dependency&#45;cruiser output</title>
<polygon fill="white" stroke="transparent" points="-4,4 -4,-414 368,-414 368,4 -4,4"/>
<g id="clust1" class="cluster">
<title>cluster_src</title>
<path fill="#ffffff" stroke="black" stroke-width="2" d="M20,-8C20,-8 344,-8 344,-8 350,-8 356,-14 356,-20 356,-20 356,-390 356,-390 356,-396 350,-402 344,-402 344,-402 20,-402 20,-402 14,-402 8,-396 8,-390 8,-390 8,-20 8,-20 8,-14 14,-8 20,-8"/>
<text text-anchor="middle" x="182" y="-390.8" font-family="Helvetica,sans-Serif" font-weight="bold" font-size="9.00">src</text>
</g>
<g id="clust4" class="cluster">
<title>cluster_src/lib</title>
<path fill="#ffffff" stroke="black" stroke-width="2" d="M173,-16C173,-16 266,-16 266,-16 272,-16 278,-22 278,-28 278,-28 278,-240 278,-240 278,-246 272,-252 266,-252 266,-252 173,-252 173,-252 167,-252 161,-246 161,-240 161,-240 161,-28 161,-28 161,-22 167,-16 173,-16"/>
<text text-anchor="middle" x="219.5" y="-240.8" font-family="Helvetica,sans-Serif" font-weight="bold" font-size="9.00">lib</text>
</g>
<g id="clust5" class="cluster">
<title>cluster_src/lib/BinderStorage</title>
<path fill="#ffffff" stroke="black" stroke-width="2" d="M192.5,-174C192.5,-174 246.5,-174 246.5,-174 252.5,-174 258.5,-180 258.5,-186 258.5,-186 258.5,-214 258.5,-214 258.5,-220 252.5,-226 246.5,-226 246.5,-226 192.5,-226 192.5,-226 186.5,-226 180.5,-220 180.5,-214 180.5,-214 180.5,-186 180.5,-186 180.5,-180 186.5,-174 192.5,-174"/>
<text text-anchor="middle" x="219.5" y="-214.8" font-family="Helvetica,sans-Serif" font-weight="bold" font-size="9.00">BinderStorage</text>
</g>
<g id="clust6" class="cluster">
<title>cluster_src/lib/server</title>
<path fill="#ffffff" stroke="black" stroke-width="2" d="M181,-24C181,-24 258,-24 258,-24 264,-24 270,-30 270,-36 270,-36 270,-154 270,-154 270,-160 264,-166 258,-166 258,-166 181,-166 181,-166 175,-166 169,-160 169,-154 169,-154 169,-36 169,-36 169,-30 175,-24 181,-24"/>
<text text-anchor="middle" x="219.5" y="-154.8" font-family="Helvetica,sans-Serif" font-weight="bold" font-size="9.00">server</text>
</g>
<g id="clust7" class="cluster">
<title>cluster_src/lib/server/collection</title>
<path fill="#ffffff" stroke="black" stroke-width="2" d="M195.5,-88C195.5,-88 243.5,-88 243.5,-88 249.5,-88 255.5,-94 255.5,-100 255.5,-100 255.5,-128 255.5,-128 255.5,-134 249.5,-140 243.5,-140 243.5,-140 195.5,-140 195.5,-140 189.5,-140 183.5,-134 183.5,-128 183.5,-128 183.5,-100 183.5,-100 183.5,-94 189.5,-88 195.5,-88"/>
<text text-anchor="middle" x="219.5" y="-128.8" font-family="Helvetica,sans-Serif" font-weight="bold" font-size="9.00">collection</text>
</g>
<g id="clust2" class="cluster">
<title>cluster_src/gathering</title>
<path fill="#ffffff" stroke="black" stroke-width="2" d="M28,-260C28,-260 336,-260 336,-260 342,-260 348,-266 348,-272 348,-272 348,-364 348,-364 348,-370 342,-376 336,-376 336,-376 28,-376 28,-376 22,-376 16,-370 16,-364 16,-364 16,-272 16,-272 16,-266 22,-260 28,-260"/>
<text text-anchor="middle" x="182" y="-364.8" font-family="Helvetica,sans-Serif" font-weight="bold" font-size="9.00">gathering</text>
</g>
<g id="clust3" class="cluster">
<title>cluster_src/gathering/CollectionEditor</title>
<path fill="#ffffff" stroke="black" stroke-width="2" d="M36,-268C36,-268 264,-268 264,-268 270,-268 276,-274 276,-280 276,-280 276,-338 276,-338 276,-344 270,-350 264,-350 264,-350 36,-350 36,-350 30,-350 24,-344 24,-338 24,-338 24,-280 24,-280 24,-274 30,-268 36,-268"/>
<text text-anchor="middle" x="150" y="-338.8" font-family="Helvetica,sans-Serif" font-weight="bold" font-size="9.00">CollectionEditor</text>
</g>
<g id="clust8" class="cluster">
<title>cluster_src/routes</title>
<path fill="#ffffff" stroke="black" stroke-width="2" d="M37,-55C37,-55 141,-55 141,-55 147,-55 153,-61 153,-67 153,-67 153,-163 153,-163 153,-169 147,-175 141,-175 141,-175 37,-175 37,-175 31,-175 25,-169 25,-163 25,-163 25,-67 25,-67 25,-61 31,-55 37,-55"/>
<text text-anchor="middle" x="89" y="-163.8" font-family="Helvetica,sans-Serif" font-weight="bold" font-size="9.00">routes</text>
</g>
<g id="clust9" class="cluster">
<title>cluster_src/routes/collection</title>
<path fill="#ffffff" stroke="black" stroke-width="2" d="M45,-63C45,-63 133,-63 133,-63 139,-63 145,-69 145,-75 145,-75 145,-137 145,-137 145,-143 139,-149 133,-149 133,-149 45,-149 45,-149 39,-149 33,-143 33,-137 33,-137 33,-75 33,-75 33,-69 39,-63 45,-63"/>
<text text-anchor="middle" x="89" y="-137.8" font-family="Helvetica,sans-Serif" font-weight="bold" font-size="9.00">collection</text>
</g>
<g id="clust10" class="cluster">
<title>cluster_src/routes/collection/couz</title>
<path fill="#ffffff" stroke="black" stroke-width="2" d="M53,-71C53,-71 125,-71 125,-71 131,-71 137,-77 137,-83 137,-83 137,-111 137,-111 137,-117 131,-123 125,-123 125,-123 53,-123 53,-123 47,-123 41,-117 41,-111 41,-111 41,-83 41,-83 41,-77 47,-71 53,-71"/>
<text text-anchor="middle" x="89" y="-111.8" font-family="Helvetica,sans-Serif" font-weight="bold" font-size="9.00">couz</text>
</g>
<!-- src/gathering/CollectionEditor/PackRepository.ts -->
<g id="node1" class="node">
<title>src/gathering/CollectionEditor/PackRepository.ts</title>
<g id="a_node1"><a xlink:href="src/gathering/CollectionEditor/PackRepository.ts" xlink:title="PackRepository.ts">
<path fill="#ddfeff" stroke="black" d="M259,-294C259,-294 180,-294 180,-294 177,-294 174,-291 174,-288 174,-288 174,-282 174,-282 174,-279 177,-276 180,-276 180,-276 259,-276 259,-276 262,-276 265,-279 265,-282 265,-282 265,-288 265,-288 265,-291 262,-294 259,-294"/>
<text text-anchor="start" x="182" y="-282.8" font-family="Helvetica,sans-Serif" font-size="9.00">PackRepository.ts</text>
</a>
</g>
</g>
<!-- src/gathering/index.ts -->
<g id="node2" class="node">
<title>src/gathering/index.ts</title>
<g id="a_node2"><a xlink:href="src/gathering/index.ts" xlink:title="index.ts">
<path fill="#ddfeff" stroke="black" d="M334,-324C334,-324 292,-324 292,-324 289,-324 286,-321 286,-318 286,-318 286,-312 286,-312 286,-309 289,-306 292,-306 292,-306 334,-306 334,-306 337,-306 340,-309 340,-312 340,-312 340,-318 340,-318 340,-321 337,-324 334,-324"/>
<text text-anchor="start" x="297" y="-312.8" font-family="Helvetica,sans-Serif" font-size="9.00">index.ts</text>
</a>
</g>
</g>
<!-- src/gathering/CollectionEditor/PackRepository.ts&#45;&gt;src/gathering/index.ts -->
<g id="edge1" class="edge">
<title>src/gathering/CollectionEditor/PackRepository.ts&#45;&gt;src/gathering/index.ts</title>
<path fill="none" stroke="#000000" stroke-opacity="0.200000" d="M258.8,-294.07C265.26,-295.87 271.86,-297.86 278,-300 280.89,-301.01 283.88,-302.16 286.84,-303.36"/>
<polygon fill="none" stroke="#000000" stroke-opacity="0.200000" points="286.45,-305.48 292.8,-305.89 288.09,-301.61 286.45,-305.48"/>
</g>
<!-- src/gathering/CollectionEditor/addRemovePack.test.ts -->
<g id="node3" class="node">
<title>src/gathering/CollectionEditor/addRemovePack.test.ts</title>
<g id="a_node3"><a xlink:href="src/gathering/CollectionEditor/addRemovePack.test.ts" xlink:title="addRemovePack.test.ts">
<path fill="#ddfeff" stroke="black" d="M140,-324C140,-324 38,-324 38,-324 35,-324 32,-321 32,-318 32,-318 32,-312 32,-312 32,-309 35,-306 38,-306 38,-306 140,-306 140,-306 143,-306 146,-309 146,-312 146,-312 146,-318 146,-318 146,-321 143,-324 140,-324"/>
<text text-anchor="start" x="40" y="-312.8" font-family="Helvetica,sans-Serif" font-size="9.00">addRemovePack.test.ts</text>
</a>
</g>
</g>
<!-- src/gathering/CollectionEditor/addRemovePack.test.ts&#45;&gt;src/gathering/CollectionEditor/PackRepository.ts -->
<g id="edge3" class="edge">
<title>src/gathering/CollectionEditor/addRemovePack.test.ts&#45;&gt;src/gathering/CollectionEditor/PackRepository.ts</title>
<path fill="none" stroke="#000000" stroke-width="2" stroke-opacity="0.200000" d="M128.55,-306C142.66,-302.71 158.73,-298.95 173.36,-295.54"/>
<polygon fill="#000000" fill-opacity="0.200000" stroke="#000000" stroke-width="2" stroke-opacity="0.200000" points="174.16,-297.51 179.53,-294.1 173.21,-293.42 174.16,-297.51"/>
</g>
<!-- src/gathering/CollectionEditor/addRemovePack.test.ts&#45;&gt;src/gathering/index.ts -->
<g id="edge4" class="edge">
<title>src/gathering/CollectionEditor/addRemovePack.test.ts&#45;&gt;src/gathering/index.ts</title>
<path fill="none" stroke="#000000" stroke-opacity="0.200000" d="M126.43,-324.01C164.6,-332.03 226.1,-340.94 278,-330 281.81,-329.2 285.72,-327.94 289.46,-326.48"/>
<polygon fill="none" stroke="#000000" stroke-opacity="0.200000" points="290.46,-328.34 295.17,-324.07 288.82,-324.47 290.46,-328.34"/>
</g>
<!-- src/gathering/CollectionEditor/addRemovePack.ts -->
<g id="node4" class="node">
<title>src/gathering/CollectionEditor/addRemovePack.ts</title>
<g id="a_node4"><a xlink:href="src/gathering/CollectionEditor/addRemovePack.ts" xlink:title="addRemovePack.ts">
<path fill="#ddfeff" stroke="black" d="M262,-324C262,-324 177,-324 177,-324 174,-324 171,-321 171,-318 171,-318 171,-312 171,-312 171,-309 174,-306 177,-306 177,-306 262,-306 262,-306 265,-306 268,-309 268,-312 268,-312 268,-318 268,-318 268,-321 265,-324 262,-324"/>
<text text-anchor="start" x="179" y="-312.8" font-family="Helvetica,sans-Serif" font-size="9.00">addRemovePack.ts</text>
</a>
</g>
</g>
<!-- src/gathering/CollectionEditor/addRemovePack.test.ts&#45;&gt;src/gathering/CollectionEditor/addRemovePack.ts -->
<g id="edge2" class="edge">
<title>src/gathering/CollectionEditor/addRemovePack.test.ts&#45;&gt;src/gathering/CollectionEditor/addRemovePack.ts</title>
<path fill="none" stroke="#000000" stroke-width="2" stroke-opacity="0.200000" d="M146.36,-315C152.3,-315 158.34,-315 164.26,-315"/>
<polygon fill="#000000" fill-opacity="0.200000" stroke="#000000" stroke-width="2" stroke-opacity="0.200000" points="164.62,-317.1 170.62,-315 164.62,-312.9 164.62,-317.1"/>
</g>
<!-- src/gathering/CollectionEditor/addRemovePack.ts&#45;&gt;src/gathering/index.ts -->
<g id="edge5" class="edge">
<title>src/gathering/CollectionEditor/addRemovePack.ts&#45;&gt;src/gathering/index.ts</title>
<path fill="none" stroke="#000000" stroke-opacity="0.200000" d="M268.13,-315C272.02,-315 275.9,-315 279.64,-315"/>
<polygon fill="none" stroke="#000000" stroke-opacity="0.200000" points="279.8,-317.1 285.8,-315 279.8,-312.9 279.8,-317.1"/>
</g>
<!-- src/lib/BinderStorage/index.ts -->
<g id="node5" class="node">
<title>src/lib/BinderStorage/index.ts</title>
<g id="a_node5"><a xlink:href="src/lib/BinderStorage/index.ts" xlink:title="index.ts">
<path fill="#ddfeff" stroke="black" d="M240.5,-200C240.5,-200 198.5,-200 198.5,-200 195.5,-200 192.5,-197 192.5,-194 192.5,-194 192.5,-188 192.5,-188 192.5,-185 195.5,-182 198.5,-182 198.5,-182 240.5,-182 240.5,-182 243.5,-182 246.5,-185 246.5,-188 246.5,-188 246.5,-194 246.5,-194 246.5,-197 243.5,-200 240.5,-200"/>
<text text-anchor="start" x="203.5" y="-188.8" font-family="Helvetica,sans-Serif" font-size="9.00">index.ts</text>
</a>
</g>
</g>
<!-- src/lib/server/ahdb.cards.json -->
<g id="node6" class="node">
<title>src/lib/server/ahdb.cards.json</title>
<g id="a_node6"><a xlink:href="src/lib/server/ahdb.cards.json" xlink:title="ahdb.cards.json">
<path fill="#ffee44" stroke="black" d="M255,-80C255,-80 184,-80 184,-80 181,-80 178,-77 178,-74 178,-74 178,-68 178,-68 178,-65 181,-62 184,-62 184,-62 255,-62 255,-62 258,-62 261,-65 261,-68 261,-68 261,-74 261,-74 261,-77 258,-80 255,-80"/>
<text text-anchor="start" x="186" y="-68.8" font-family="Helvetica,sans-Serif" font-size="9.00">ahdb.cards.json</text>
</a>
</g>
</g>
<!-- src/lib/server/ahdb.packs.json -->
<g id="node7" class="node">
<title>src/lib/server/ahdb.packs.json</title>
<g id="a_node7"><a xlink:href="src/lib/server/ahdb.packs.json" xlink:title="ahdb.packs.json">
<path fill="#ffee44" stroke="black" d="M256,-50C256,-50 183,-50 183,-50 180,-50 177,-47 177,-44 177,-44 177,-38 177,-38 177,-35 180,-32 183,-32 183,-32 256,-32 256,-32 259,-32 262,-35 262,-38 262,-38 262,-44 262,-44 262,-47 259,-50 256,-50"/>
<text text-anchor="start" x="185" y="-38.8" font-family="Helvetica,sans-Serif" font-size="9.00">ahdb.packs.json</text>
</a>
</g>
</g>
<!-- src/lib/server/collection/couz.json -->
<g id="node8" class="node">
<title>src/lib/server/collection/couz.json</title>
<g id="a_node8"><a xlink:href="src/lib/server/collection/couz.json" xlink:title="couz.json">
<path fill="#ffee44" stroke="black" d="M241.5,-114C241.5,-114 197.5,-114 197.5,-114 194.5,-114 191.5,-111 191.5,-108 191.5,-108 191.5,-102 191.5,-102 191.5,-99 194.5,-96 197.5,-96 197.5,-96 241.5,-96 241.5,-96 244.5,-96 247.5,-99 247.5,-102 247.5,-102 247.5,-108 247.5,-108 247.5,-111 244.5,-114 241.5,-114"/>
<text text-anchor="start" x="199.5" y="-102.8" font-family="Helvetica,sans-Serif" font-size="9.00">couz.json</text>
</a>
</g>
</g>
<!-- src/routes/collection/couz/+page.server.ts -->
<g id="node9" class="node">
<title>src/routes/collection/couz/+page.server.ts</title>
<g id="a_node9"><a xlink:href="src/routes/collection/couz/+page.server.ts" xlink:title="+page.server.ts">
<path fill="#ddfeff" stroke="black" d="M123,-97C123,-97 55,-97 55,-97 52,-97 49,-94 49,-91 49,-91 49,-85 49,-85 49,-82 52,-79 55,-79 55,-79 123,-79 123,-79 126,-79 129,-82 129,-85 129,-85 129,-91 129,-91 129,-94 126,-97 123,-97"/>
<text text-anchor="start" x="57" y="-85.8" font-family="Helvetica,sans-Serif" font-size="9.00">+page.server.ts</text>
</a>
</g>
</g>
<!-- src/routes/collection/couz/+page.server.ts&#45;&gt;src/lib/BinderStorage/index.ts -->
<g id="edge6" class="edge">
<title>src/routes/collection/couz/+page.server.ts&#45;&gt;src/lib/BinderStorage/index.ts</title>
<path fill="none" stroke="#000000" stroke-opacity="0.200000" d="M101.4,-97.14C124.21,-115.42 175.51,-156.54 201.99,-177.76"/>
<polygon fill="none" stroke="#000000" stroke-opacity="0.200000" points="200.94,-179.62 206.94,-181.73 203.57,-176.34 200.94,-179.62"/>
</g>
<!-- src/routes/collection/couz/+page.server.ts&#45;&gt;src/lib/server/ahdb.cards.json -->
<g id="edge7" class="edge">
<title>src/routes/collection/couz/+page.server.ts&#45;&gt;src/lib/server/ahdb.cards.json</title>
<path fill="none" stroke="#000000" stroke-width="2" stroke-opacity="0.200000" d="M129.25,-82.81C142.57,-81.05 157.57,-79.06 171.43,-77.23"/>
<polygon fill="#000000" fill-opacity="0.200000" stroke="#000000" stroke-width="2" stroke-opacity="0.200000" points="172.04,-79.27 177.71,-76.4 171.49,-75.1 172.04,-79.27"/>
</g>
<!-- src/routes/collection/couz/+page.server.ts&#45;&gt;src/lib/server/ahdb.packs.json -->
<g id="edge8" class="edge">
<title>src/routes/collection/couz/+page.server.ts&#45;&gt;src/lib/server/ahdb.packs.json</title>
<path fill="none" stroke="#000000" stroke-width="2" stroke-opacity="0.200000" d="M107.75,-78.99C121.91,-72.05 142.39,-62.57 161,-56 165.31,-54.48 169.85,-53.04 174.41,-51.69"/>
<polygon fill="#000000" fill-opacity="0.200000" stroke="#000000" stroke-width="2" stroke-opacity="0.200000" points="174.99,-53.7 180.18,-50.03 173.84,-49.67 174.99,-53.7"/>
</g>
<!-- src/routes/collection/couz/+page.server.ts&#45;&gt;src/lib/server/collection/couz.json -->
<g id="edge9" class="edge">
<title>src/routes/collection/couz/+page.server.ts&#45;&gt;src/lib/server/collection/couz.json</title>
<path fill="none" stroke="#000000" stroke-width="2" stroke-opacity="0.200000" d="M129.25,-93.19C147.13,-95.56 168.07,-98.33 185.17,-100.59"/>
<polygon fill="#000000" fill-opacity="0.200000" stroke="#000000" stroke-width="2" stroke-opacity="0.200000" points="185.06,-102.69 191.29,-101.4 185.62,-98.53 185.06,-102.69"/>
</g>
</g>
</svg>
