<?xml version="1.0" encoding="UTF-8" standalone="no"?>
<!DOCTYPE svg PUBLIC "-//W3C//DTD SVG 1.1//EN"
 "http://www.w3.org/Graphics/SVG/1.1/DTD/svg11.dtd">
<!-- Generated by graphviz version 2.50.0 (20211204.2007)
 -->
<!-- Title: dependency&#45;cruiser output Pages: 1 -->
<svg width="990pt" height="636pt"
 viewBox="0.00 0.00 989.50 636.00" xmlns="http://www.w3.org/2000/svg" xmlns:xlink="http://www.w3.org/1999/xlink">
<g id="graph0" class="graph" transform="scale(1 1) rotate(0) translate(4 632)">
<title>dependency&#45;cruiser output</title>
<polygon fill="white" stroke="transparent" points="-4,4 -4,-632 985.5,-632 985.5,4 -4,4"/>
<g id="clust1" class="cluster">
<title>cluster_src</title>
<path fill="#ffffff" stroke="black" stroke-width="2" d="M20,-8C20,-8 961.5,-8 961.5,-8 967.5,-8 973.5,-14 973.5,-20 973.5,-20 973.5,-608 973.5,-608 973.5,-614 967.5,-620 961.5,-620 961.5,-620 20,-620 20,-620 14,-620 8,-614 8,-608 8,-608 8,-20 8,-20 8,-14 14,-8 20,-8"/>
<text text-anchor="middle" x="490.75" y="-608.8" font-family="Helvetica,sans-Serif" font-weight="bold" font-size="9.00">src</text>
</g>
<g id="clust2" class="cluster">
<title>cluster_src/gathering</title>
<path fill="#ffffff" stroke="black" stroke-width="2" d="M262,-302C262,-302 953.5,-302 953.5,-302 959.5,-302 965.5,-308 965.5,-314 965.5,-314 965.5,-582 965.5,-582 965.5,-588 959.5,-594 953.5,-594 953.5,-594 262,-594 262,-594 256,-594 250,-588 250,-582 250,-582 250,-314 250,-314 250,-308 256,-302 262,-302"/>
<text text-anchor="middle" x="607.75" y="-582.8" font-family="Helvetica,sans-Serif" font-weight="bold" font-size="9.00">gathering</text>
</g>
<g id="clust5" class="cluster">
<title>cluster_src/gathering/CollectionLoader</title>
<path fill="#ffffff" stroke="black" stroke-width="2" d="M270,-516C270,-516 508,-516 508,-516 514,-516 520,-522 520,-528 520,-528 520,-556 520,-556 520,-562 514,-568 508,-568 508,-568 270,-568 270,-568 264,-568 258,-562 258,-556 258,-556 258,-528 258,-528 258,-522 264,-516 270,-516"/>
<text text-anchor="middle" x="389" y="-556.8" font-family="Helvetica,sans-Serif" font-weight="bold" font-size="9.00">CollectionLoader</text>
</g>
<g id="clust3" class="cluster">
<title>cluster_src/gathering/CollectionEditor</title>
<path fill="#ffffff" stroke="black" stroke-width="2" d="M272.5,-360C272.5,-360 515.5,-360 515.5,-360 521.5,-360 527.5,-366 527.5,-372 527.5,-372 527.5,-430 527.5,-430 527.5,-436 521.5,-442 515.5,-442 515.5,-442 272.5,-442 272.5,-442 266.5,-442 260.5,-436 260.5,-430 260.5,-430 260.5,-372 260.5,-372 260.5,-366 266.5,-360 272.5,-360"/>
<text text-anchor="middle" x="394" y="-430.8" font-family="Helvetica,sans-Serif" font-weight="bold" font-size="9.00">CollectionEditor</text>
</g>
<g id="clust4" class="cluster">
<title>cluster_src/gathering/CollectionEntity</title>
<path fill="#ffffff" stroke="black" stroke-width="2" d="M589,-316C589,-316 772.5,-316 772.5,-316 778.5,-316 784.5,-322 784.5,-328 784.5,-328 784.5,-356 784.5,-356 784.5,-362 778.5,-368 772.5,-368 772.5,-368 589,-368 589,-368 583,-368 577,-362 577,-356 577,-356 577,-328 577,-328 577,-322 583,-316 589,-316"/>
<text text-anchor="middle" x="680.75" y="-356.8" font-family="Helvetica,sans-Serif" font-weight="bold" font-size="9.00">CollectionEntity</text>
</g>
<g id="clust6" class="cluster">
<title>cluster_src/gathering/PackRepository</title>
<path fill="#ffffff" stroke="black" stroke-width="2" d="M702,-386C702,-386 762,-386 762,-386 768,-386 774,-392 774,-398 774,-398 774,-426 774,-426 774,-432 768,-438 762,-438 762,-438 702,-438 702,-438 696,-438 690,-432 690,-426 690,-426 690,-398 690,-398 690,-392 696,-386 702,-386"/>
<text text-anchor="middle" x="732" y="-426.8" font-family="Helvetica,sans-Serif" font-weight="bold" font-size="9.00">PackRepository</text>
</g>
<g id="clust7" class="cluster">
<title>cluster_src/lib</title>
<path fill="#ffffff" stroke="black" stroke-width="2" d="M401,-208C401,-208 526,-208 526,-208 532,-208 538,-214 538,-220 538,-220 538,-282 538,-282 538,-288 532,-294 526,-294 526,-294 401,-294 401,-294 395,-294 389,-288 389,-282 389,-282 389,-220 389,-220 389,-214 395,-208 401,-208"/>
<text text-anchor="middle" x="463.5" y="-282.8" font-family="Helvetica,sans-Serif" font-weight="bold" font-size="9.00">lib</text>
</g>
<g id="clust8" class="cluster">
<title>cluster_src/lib/userEditsItsCollection</title>
<path fill="#ffffff" stroke="black" stroke-width="2" d="M409,-216C409,-216 518,-216 518,-216 524,-216 530,-222 530,-228 530,-228 530,-256 530,-256 530,-262 524,-268 518,-268 518,-268 409,-268 409,-268 403,-268 397,-262 397,-256 397,-256 397,-228 397,-228 397,-222 403,-216 409,-216"/>
<text text-anchor="middle" x="463.5" y="-256.8" font-family="Helvetica,sans-Serif" font-weight="bold" font-size="9.00">userEditsItsCollection</text>
</g>
<g id="clust9" class="cluster">
<title>cluster_src/routes</title>
<path fill="#ffffff" stroke="black" stroke-width="2" d="M28,-16C28,-16 542.5,-16 542.5,-16 548.5,-16 554.5,-22 554.5,-28 554.5,-28 554.5,-188 554.5,-188 554.5,-194 548.5,-200 542.5,-200 542.5,-200 28,-200 28,-200 22,-200 16,-194 16,-188 16,-188 16,-28 16,-28 16,-22 22,-16 28,-16"/>
<text text-anchor="middle" x="285.25" y="-188.8" font-family="Helvetica,sans-Serif" font-weight="bold" font-size="9.00">routes</text>
</g>
<g id="clust10" class="cluster">
<title>cluster_src/routes/collection</title>
<path fill="#ffffff" stroke="black" stroke-width="2" d="M36,-24C36,-24 534.5,-24 534.5,-24 540.5,-24 546.5,-30 546.5,-36 546.5,-36 546.5,-162 546.5,-162 546.5,-168 540.5,-174 534.5,-174 534.5,-174 36,-174 36,-174 30,-174 24,-168 24,-162 24,-162 24,-36 24,-36 24,-30 30,-24 36,-24"/>
<text text-anchor="middle" x="285.25" y="-162.8" font-family="Helvetica,sans-Serif" font-weight="bold" font-size="9.00">collection</text>
</g>
<g id="clust11" class="cluster">
<title>cluster_src/routes/collection/edit</title>
<path fill="#ffffff" stroke="black" stroke-width="2" d="M44,-32C44,-32 526.5,-32 526.5,-32 532.5,-32 538.5,-38 538.5,-44 538.5,-44 538.5,-136 538.5,-136 538.5,-142 532.5,-148 526.5,-148 526.5,-148 44,-148 44,-148 38,-148 32,-142 32,-136 32,-136 32,-44 32,-44 32,-38 38,-32 44,-32"/>
<text text-anchor="middle" x="285.25" y="-136.8" font-family="Helvetica,sans-Serif" font-weight="bold" font-size="9.00">edit</text>
</g>
<g id="clust12" class="cluster">
<title>cluster_src/routes/collection/edit/PacksBundle</title>
<path fill="#ffffff" stroke="black" stroke-width="2" d="M139,-40C139,-40 518.5,-40 518.5,-40 524.5,-40 530.5,-46 530.5,-52 530.5,-52 530.5,-110 530.5,-110 530.5,-116 524.5,-122 518.5,-122 518.5,-122 139,-122 139,-122 133,-122 127,-116 127,-110 127,-110 127,-52 127,-52 127,-46 133,-40 139,-40"/>
<text text-anchor="middle" x="328.75" y="-110.8" font-family="Helvetica,sans-Serif" font-weight="bold" font-size="9.00">PacksBundle</text>
</g>
<!-- src/gathering/Collection.ts -->
<g id="node1" class="node">
<title>src/gathering/Collection.ts</title>
<g id="a_node1"><a xlink:href="src/gathering/Collection.ts" xlink:title="Collection.ts">
<path fill="#ddfeff" stroke="black" d="M760,-518C760,-518 704,-518 704,-518 701,-518 698,-515 698,-512 698,-512 698,-506 698,-506 698,-503 701,-500 704,-500 704,-500 760,-500 760,-500 763,-500 766,-503 766,-506 766,-506 766,-512 766,-512 766,-515 763,-518 760,-518"/>
<text text-anchor="start" x="706" y="-506.8" font-family="Helvetica,sans-Serif" font-size="9.00">Collection.ts</text>
</a>
</g>
</g>
<!-- src/gathering/Pack.ts -->
<g id="node2" class="node">
<title>src/gathering/Pack.ts</title>
<g id="a_node2"><a xlink:href="src/gathering/Pack.ts" xlink:title="Pack.ts">
<path fill="#ddfeff" stroke="black" d="M951.5,-456C951.5,-456 909.5,-456 909.5,-456 906.5,-456 903.5,-453 903.5,-450 903.5,-450 903.5,-444 903.5,-444 903.5,-441 906.5,-438 909.5,-438 909.5,-438 951.5,-438 951.5,-438 954.5,-438 957.5,-441 957.5,-444 957.5,-444 957.5,-450 957.5,-450 957.5,-453 954.5,-456 951.5,-456"/>
<text text-anchor="start" x="915" y="-444.8" font-family="Helvetica,sans-Serif" font-size="9.00">Pack.ts</text>
</a>
</g>
</g>
<!-- src/gathering/Collection.ts&#45;&gt;src/gathering/Pack.ts -->
<g id="edge1" class="edge">
<title>src/gathering/Collection.ts&#45;&gt;src/gathering/Pack.ts</title>
<path fill="none" stroke="#000000" stroke-opacity="0.200000" d="M766.13,-507.45C799.04,-504.83 850.29,-497.82 890.5,-479 900.17,-474.48 909.47,-467.01 916.56,-460.42"/>
<polygon fill="none" stroke="#000000" stroke-opacity="0.200000" points="918.23,-461.73 921.1,-456.05 915.32,-458.7 918.23,-461.73"/>
</g>
<!-- src/gathering/CollectionEditor/CollectionEditor.test.ts -->
<g id="node3" class="node">
<title>src/gathering/CollectionEditor/CollectionEditor.test.ts</title>
<g id="a_node3"><a xlink:href="src/gathering/CollectionEditor/CollectionEditor.test.ts" xlink:title="CollectionEditor.test.ts">
<path fill="#ddfeff" stroke="black" d="M371.5,-401C371.5,-401 274.5,-401 274.5,-401 271.5,-401 268.5,-398 268.5,-395 268.5,-395 268.5,-389 268.5,-389 268.5,-386 271.5,-383 274.5,-383 274.5,-383 371.5,-383 371.5,-383 374.5,-383 377.5,-386 377.5,-389 377.5,-389 377.5,-395 377.5,-395 377.5,-398 374.5,-401 371.5,-401"/>
<text text-anchor="start" x="276.5" y="-389.8" font-family="Helvetica,sans-Serif" font-size="9.00">CollectionEditor.test.ts</text>
</a>
</g>
</g>
<!-- src/gathering/CollectionEditor/CollectionEditor.test.ts&#45;&gt;src/gathering/Collection.ts -->
<g id="edge4" class="edge">
<title>src/gathering/CollectionEditor/CollectionEditor.test.ts&#45;&gt;src/gathering/Collection.ts</title>
<path fill="none" stroke="#000000" stroke-opacity="0.200000" d="M331.84,-401.4C343.16,-414.38 365.34,-437.72 389,-451 487.44,-506.26 625.09,-511.69 691.74,-510.64"/>
<polygon fill="none" stroke="#000000" stroke-opacity="0.200000" points="692.01,-512.73 697.97,-510.52 691.93,-508.53 692.01,-512.73"/>
</g>
<!-- src/gathering/CollectionEditor/CollectionEditor.ts -->
<g id="node4" class="node">
<title>src/gathering/CollectionEditor/CollectionEditor.ts</title>
<g id="a_node4"><a xlink:href="src/gathering/CollectionEditor/CollectionEditor.ts" xlink:title="CollectionEditor.ts">
<path fill="#ddfeff" stroke="black" d="M503.5,-416C503.5,-416 423.5,-416 423.5,-416 420.5,-416 417.5,-413 417.5,-410 417.5,-410 417.5,-404 417.5,-404 417.5,-401 420.5,-398 423.5,-398 423.5,-398 503.5,-398 503.5,-398 506.5,-398 509.5,-401 509.5,-404 509.5,-404 509.5,-410 509.5,-410 509.5,-413 506.5,-416 503.5,-416"/>
<text text-anchor="start" x="425.5" y="-404.8" font-family="Helvetica,sans-Serif" font-size="9.00">CollectionEditor.ts</text>
</a>
</g>
</g>
<!-- src/gathering/CollectionEditor/CollectionEditor.test.ts&#45;&gt;src/gathering/CollectionEditor/CollectionEditor.ts -->
<g id="edge2" class="edge">
<title>src/gathering/CollectionEditor/CollectionEditor.test.ts&#45;&gt;src/gathering/CollectionEditor/CollectionEditor.ts</title>
<path fill="none" stroke="#000000" stroke-width="2" stroke-opacity="0.200000" d="M377.55,-397.8C388.59,-399 400.2,-400.25 411.17,-401.44"/>
<polygon fill="#000000" fill-opacity="0.200000" stroke="#000000" stroke-width="2" stroke-opacity="0.200000" points="411,-403.53 417.19,-402.09 411.45,-399.36 411,-403.53"/>
</g>
<!-- src/gathering/CollectionEditor/PackRepositoryMock.ts -->
<g id="node5" class="node">
<title>src/gathering/CollectionEditor/PackRepositoryMock.ts</title>
<g id="a_node5"><a xlink:href="src/gathering/CollectionEditor/PackRepositoryMock.ts" xlink:title="PackRepositoryMock.ts">
<path fill="#ddfeff" stroke="black" d="M513.5,-386C513.5,-386 413.5,-386 413.5,-386 410.5,-386 407.5,-383 407.5,-380 407.5,-380 407.5,-374 407.5,-374 407.5,-371 410.5,-368 413.5,-368 413.5,-368 513.5,-368 513.5,-368 516.5,-368 519.5,-371 519.5,-374 519.5,-374 519.5,-380 519.5,-380 519.5,-383 516.5,-386 513.5,-386"/>
<text text-anchor="start" x="415.5" y="-374.8" font-family="Helvetica,sans-Serif" font-size="9.00">PackRepositoryMock.ts</text>
</a>
</g>
</g>
<!-- src/gathering/CollectionEditor/CollectionEditor.test.ts&#45;&gt;src/gathering/CollectionEditor/PackRepositoryMock.ts -->
<g id="edge3" class="edge">
<title>src/gathering/CollectionEditor/CollectionEditor.test.ts&#45;&gt;src/gathering/CollectionEditor/PackRepositoryMock.ts</title>
<path fill="none" stroke="#000000" stroke-width="2" stroke-opacity="0.200000" d="M377.55,-386.2C385.31,-385.36 393.35,-384.49 401.26,-383.63"/>
<polygon fill="#000000" fill-opacity="0.200000" stroke="#000000" stroke-width="2" stroke-opacity="0.200000" points="401.52,-385.72 407.26,-382.98 401.07,-381.54 401.52,-385.72"/>
</g>
<!-- src/gathering/CollectionEntity/index.ts -->
<g id="node6" class="node">
<title>src/gathering/CollectionEntity/index.ts</title>
<g id="a_node6"><a xlink:href="src/gathering/CollectionEntity/index.ts" xlink:title="index.ts">
<path fill="#ddfeff" stroke="black" d="M633,-342C633,-342 591,-342 591,-342 588,-342 585,-339 585,-336 585,-336 585,-330 585,-330 585,-327 588,-324 591,-324 591,-324 633,-324 633,-324 636,-324 639,-327 639,-330 639,-330 639,-336 639,-336 639,-339 636,-342 633,-342"/>
<text text-anchor="start" x="596" y="-330.8" font-family="Helvetica,sans-Serif" font-size="9.00">index.ts</text>
</a>
</g>
</g>
<!-- src/gathering/CollectionEditor/CollectionEditor.test.ts&#45;&gt;src/gathering/CollectionEntity/index.ts -->
<g id="edge5" class="edge">
<title>src/gathering/CollectionEditor/CollectionEditor.test.ts&#45;&gt;src/gathering/CollectionEntity/index.ts</title>
<path fill="none" stroke="#000000" stroke-width="2" stroke-opacity="0.200000" d="M340.03,-382.93C352.88,-376.08 371.57,-367.03 389,-362 454.67,-343.03 534.87,-336.44 578.65,-334.17"/>
<polygon fill="#000000" fill-opacity="0.200000" stroke="#000000" stroke-width="2" stroke-opacity="0.200000" points="578.95,-336.26 584.84,-333.87 578.75,-332.06 578.95,-336.26"/>
</g>
<!-- src/gathering/CollectionEntity/CollectionEntity.ts -->
<g id="node7" class="node">
<title>src/gathering/CollectionEntity/CollectionEntity.ts</title>
<g id="a_node7"><a xlink:href="src/gathering/CollectionEntity/CollectionEntity.ts" xlink:title="CollectionEntity.ts">
<path fill="#ddfeff" stroke="black" d="M770.5,-342C770.5,-342 693.5,-342 693.5,-342 690.5,-342 687.5,-339 687.5,-336 687.5,-336 687.5,-330 687.5,-330 687.5,-327 690.5,-324 693.5,-324 693.5,-324 770.5,-324 770.5,-324 773.5,-324 776.5,-327 776.5,-330 776.5,-330 776.5,-336 776.5,-336 776.5,-339 773.5,-342 770.5,-342"/>
<text text-anchor="start" x="695.5" y="-330.8" font-family="Helvetica,sans-Serif" font-size="9.00">CollectionEntity.ts</text>
</a>
</g>
</g>
<!-- src/gathering/CollectionEditor/CollectionEditor.test.ts&#45;&gt;src/gathering/CollectionEntity/CollectionEntity.ts -->
<g id="edge6" class="edge">
<title>src/gathering/CollectionEditor/CollectionEditor.test.ts&#45;&gt;src/gathering/CollectionEntity/CollectionEntity.ts</title>
<path fill="none" stroke="#000000" stroke-width="2" stroke-opacity="0.200000" d="M330.74,-382.67C341.35,-368.81 363.4,-343.22 389,-332 489.5,-287.97 623.11,-308.02 689.66,-322.59"/>
<polygon fill="#000000" fill-opacity="0.200000" stroke="#000000" stroke-width="2" stroke-opacity="0.200000" points="689.58,-324.72 695.89,-323.98 690.49,-320.62 689.58,-324.72"/>
</g>
<!-- src/gathering/ICollectionOutput.ts -->
<g id="node8" class="node">
<title>src/gathering/ICollectionOutput.ts</title>
<g id="a_node8"><a xlink:href="src/gathering/ICollectionOutput.ts" xlink:title="ICollectionOutput.ts">
<path fill="#ddfeff" stroke="black" d="M654.5,-496C654.5,-496 569.5,-496 569.5,-496 566.5,-496 563.5,-493 563.5,-490 563.5,-490 563.5,-484 563.5,-484 563.5,-481 566.5,-478 569.5,-478 569.5,-478 654.5,-478 654.5,-478 657.5,-478 660.5,-481 660.5,-484 660.5,-484 660.5,-490 660.5,-490 660.5,-493 657.5,-496 654.5,-496"/>
<text text-anchor="start" x="571.5" y="-484.8" font-family="Helvetica,sans-Serif" font-size="9.00">ICollectionOutput.ts</text>
</a>
</g>
</g>
<!-- src/gathering/CollectionEditor/CollectionEditor.test.ts&#45;&gt;src/gathering/ICollectionOutput.ts -->
<g id="edge7" class="edge">
<title>src/gathering/CollectionEditor/CollectionEditor.test.ts&#45;&gt;src/gathering/ICollectionOutput.ts</title>
<path fill="none" stroke="#000000" stroke-opacity="0.200000" d="M341.91,-401.14C354.79,-407.49 372.71,-415.89 389,-422 450,-444.87 522.83,-464.85 568.01,-476.43"/>
<polygon fill="none" stroke="#000000" stroke-opacity="0.200000" points="567.59,-478.49 573.92,-477.93 568.63,-474.42 567.59,-478.49"/>
</g>
<!-- src/gathering/CollectionEditor/CollectionEditor.ts&#45;&gt;src/gathering/Pack.ts -->
<g id="edge11" class="edge">
<title>src/gathering/CollectionEditor/CollectionEditor.ts&#45;&gt;src/gathering/Pack.ts</title>
<path fill="none" stroke="#000000" stroke-opacity="0.200000" d="M509.81,-409.84C524.39,-411.72 540.42,-414.84 554.5,-420 558.44,-421.44 558.58,-423.51 562.5,-425 604.21,-440.91 618.26,-430.88 661.5,-442 673.34,-445.04 675.44,-448.97 687.5,-451 776.47,-465.96 800.4,-455.61 890.5,-451 892.54,-450.9 894.64,-450.76 896.75,-450.6"/>
<polygon fill="none" stroke="#000000" stroke-opacity="0.200000" points="897.29,-452.67 903.09,-450.08 896.94,-448.48 897.29,-452.67"/>
</g>
<!-- src/gathering/CollectionEditor/CollectionEditor.ts&#45;&gt;src/gathering/CollectionEntity/index.ts -->
<g id="edge8" class="edge">
<title>src/gathering/CollectionEditor/CollectionEditor.ts&#45;&gt;src/gathering/CollectionEntity/index.ts</title>
<path fill="none" stroke="#000000" stroke-width="2" stroke-opacity="0.200000" d="M509.64,-409.69C525.76,-408.26 542.81,-403.61 554.5,-392 569.22,-377.38 548.5,-361.32 562.5,-346 566.82,-341.27 572.66,-338.19 578.79,-336.19"/>
<polygon fill="#000000" fill-opacity="0.200000" stroke="#000000" stroke-width="2" stroke-opacity="0.200000" points="579.71,-338.12 584.97,-334.54 578.63,-334.06 579.71,-338.12"/>
</g>
<!-- src/gathering/CollectionEditor/CollectionEditor.ts&#45;&gt;src/gathering/ICollectionOutput.ts -->
<g id="edge10" class="edge">
<title>src/gathering/CollectionEditor/CollectionEditor.ts&#45;&gt;src/gathering/ICollectionOutput.ts</title>
<path fill="none" stroke="#000000" stroke-opacity="0.200000" d="M509.67,-403.08C525.8,-404.13 542.84,-408.44 554.5,-420 571.11,-436.46 547.23,-454.29 562.5,-472 563.11,-472.71 563.76,-473.39 564.43,-474.03"/>
<polygon fill="none" stroke="#000000" stroke-opacity="0.200000" points="563.25,-475.77 569.25,-477.84 565.85,-472.48 563.25,-475.77"/>
</g>
<!-- src/gathering/ICollectionEditor.ts -->
<g id="node9" class="node">
<title>src/gathering/ICollectionEditor.ts</title>
<g id="a_node9"><a xlink:href="src/gathering/ICollectionEditor.ts" xlink:title="ICollectionEditor.ts">
<path fill="#ddfeff" stroke="black" d="M653,-466C653,-466 571,-466 571,-466 568,-466 565,-463 565,-460 565,-460 565,-454 565,-454 565,-451 568,-448 571,-448 571,-448 653,-448 653,-448 656,-448 659,-451 659,-454 659,-454 659,-460 659,-460 659,-463 656,-466 653,-466"/>
<text text-anchor="start" x="573" y="-454.8" font-family="Helvetica,sans-Serif" font-size="9.00">ICollectionEditor.ts</text>
</a>
</g>
</g>
<!-- src/gathering/CollectionEditor/CollectionEditor.ts&#45;&gt;src/gathering/ICollectionEditor.ts -->
<g id="edge9" class="edge">
<title>src/gathering/CollectionEditor/CollectionEditor.ts&#45;&gt;src/gathering/ICollectionEditor.ts</title>
<path fill="none" stroke="#000000" stroke-opacity="0.200000" d="M509.65,-404.8C525.21,-406.17 541.88,-410.25 554.5,-420 561.75,-425.6 555.88,-432.66 562.5,-439 564.73,-441.14 567.24,-443.03 569.92,-444.7"/>
<polygon fill="none" stroke="#000000" stroke-opacity="0.200000" points="569.32,-446.77 575.59,-447.82 571.35,-443.09 569.32,-446.77"/>
</g>
<!-- src/gathering/CollectionEditor/PackRepositoryMock.ts&#45;&gt;src/gathering/Pack.ts -->
<g id="edge13" class="edge">
<title>src/gathering/CollectionEditor/PackRepositoryMock.ts&#45;&gt;src/gathering/Pack.ts</title>
<path fill="none" stroke="#000000" stroke-opacity="0.200000" d="M519.81,-377.03C532.31,-379.4 544.76,-383.9 554.5,-392 562.5,-398.65 554.35,-407.53 562.5,-414 579.85,-427.78 640.48,-418.99 661.5,-426 674.16,-430.22 674.66,-437.39 687.5,-441 725.87,-451.79 840.25,-449.88 896.92,-448.17"/>
<polygon fill="none" stroke="#000000" stroke-opacity="0.200000" points="897.28,-450.26 903.21,-447.98 897.15,-446.06 897.28,-450.26"/>
</g>
<!-- src/gathering/IPackRepository.ts -->
<g id="node10" class="node">
<title>src/gathering/IPackRepository.ts</title>
<g id="a_node10"><a xlink:href="src/gathering/IPackRepository.ts" xlink:title="IPackRepository.ts">
<path fill="#ddfeff" stroke="black" d="M884.5,-400C884.5,-400 803.5,-400 803.5,-400 800.5,-400 797.5,-397 797.5,-394 797.5,-394 797.5,-388 797.5,-388 797.5,-385 800.5,-382 803.5,-382 803.5,-382 884.5,-382 884.5,-382 887.5,-382 890.5,-385 890.5,-388 890.5,-388 890.5,-394 890.5,-394 890.5,-397 887.5,-400 884.5,-400"/>
<text text-anchor="start" x="805.5" y="-388.8" font-family="Helvetica,sans-Serif" font-size="9.00">IPackRepository.ts</text>
</a>
</g>
</g>
<!-- src/gathering/CollectionEditor/PackRepositoryMock.ts&#45;&gt;src/gathering/IPackRepository.ts -->
<g id="edge12" class="edge">
<title>src/gathering/CollectionEditor/PackRepositoryMock.ts&#45;&gt;src/gathering/IPackRepository.ts</title>
<path fill="none" stroke="#000000" stroke-opacity="0.200000" d="M519.52,-376.08C583.35,-375.46 691.71,-375.81 784.5,-383 786.73,-383.17 789,-383.37 791.29,-383.6"/>
<polygon fill="none" stroke="#000000" stroke-opacity="0.200000" points="791.2,-385.7 797.39,-384.24 791.64,-381.52 791.2,-385.7"/>
</g>
<!-- src/gathering/CollectionEntity/index.ts&#45;&gt;src/gathering/CollectionEntity/CollectionEntity.ts -->
<g id="edge17" class="edge">
<title>src/gathering/CollectionEntity/index.ts&#45;&gt;src/gathering/CollectionEntity/CollectionEntity.ts</title>
<path fill="none" stroke="#000000" stroke-width="2" stroke-opacity="0.200000" d="M639.19,-333C651.55,-333 666.72,-333 681.14,-333"/>
<polygon fill="#000000" fill-opacity="0.200000" stroke="#000000" stroke-width="2" stroke-opacity="0.200000" points="681.27,-335.1 687.27,-333 681.27,-330.9 681.27,-335.1"/>
</g>
<!-- src/gathering/PackRepository/index.ts -->
<g id="node11" class="node">
<title>src/gathering/PackRepository/index.ts</title>
<g id="a_node11"><a xlink:href="src/gathering/PackRepository/index.ts" xlink:title="index.ts">
<path fill="#ddfeff" stroke="black" d="M753,-412C753,-412 711,-412 711,-412 708,-412 705,-409 705,-406 705,-406 705,-400 705,-400 705,-397 708,-394 711,-394 711,-394 753,-394 753,-394 756,-394 759,-397 759,-400 759,-400 759,-406 759,-406 759,-409 756,-412 753,-412"/>
<text text-anchor="start" x="716" y="-400.8" font-family="Helvetica,sans-Serif" font-size="9.00">index.ts</text>
</a>
</g>
</g>
<!-- src/gathering/CollectionEntity/index.ts&#45;&gt;src/gathering/PackRepository/index.ts -->
<g id="edge16" class="edge">
<title>src/gathering/CollectionEntity/index.ts&#45;&gt;src/gathering/PackRepository/index.ts</title>
<path fill="none" stroke="#000000" stroke-width="2" stroke-opacity="0.200000" d="M639.11,-337.45C646.64,-339.39 654.67,-342.14 661.5,-346 675.46,-353.88 675.24,-360.67 687.5,-371 695.42,-377.67 704.61,-384.55 712.5,-390.21"/>
<polygon fill="#000000" fill-opacity="0.200000" stroke="#000000" stroke-width="2" stroke-opacity="0.200000" points="711.61,-392.15 717.71,-393.91 714.04,-388.73 711.61,-392.15"/>
</g>
<!-- src/gathering/CollectionEntity/CollectionEntity.ts&#45;&gt;src/gathering/Pack.ts -->
<g id="edge15" class="edge">
<title>src/gathering/CollectionEntity/CollectionEntity.ts&#45;&gt;src/gathering/Pack.ts</title>
<path fill="none" stroke="#000000" stroke-opacity="0.200000" d="M776.61,-335.64C810.8,-339.73 857.9,-350.06 890.5,-376 908.57,-390.38 919.5,-415.52 925.02,-431.71"/>
<polygon fill="none" stroke="#000000" stroke-opacity="0.200000" points="923.09,-432.57 926.94,-437.63 927.09,-431.28 923.09,-432.57"/>
</g>
<!-- src/gathering/CollectionEntity/CollectionEntity.ts&#45;&gt;src/gathering/IPackRepository.ts -->
<g id="edge14" class="edge">
<title>src/gathering/CollectionEntity/CollectionEntity.ts&#45;&gt;src/gathering/IPackRepository.ts</title>
<path fill="none" stroke="#000000" stroke-opacity="0.200000" d="M775.11,-342.09C778.35,-343.25 781.51,-344.55 784.5,-346 801.25,-354.12 817.82,-367.51 829.03,-377.58"/>
<polygon fill="none" stroke="#000000" stroke-opacity="0.200000" points="827.65,-379.16 833.49,-381.67 830.48,-376.06 827.65,-379.16"/>
</g>
<!-- src/gathering/ICollectionOutput.ts&#45;&gt;src/gathering/Collection.ts -->
<g id="edge32" class="edge">
<title>src/gathering/ICollectionOutput.ts&#45;&gt;src/gathering/Collection.ts</title>
<path fill="none" stroke="#000000" stroke-opacity="0.200000" d="M660.65,-495.88C670.93,-497.8 681.68,-499.81 691.6,-501.65"/>
<polygon fill="none" stroke="#000000" stroke-opacity="0.200000" points="691.38,-503.75 697.66,-502.78 692.15,-499.62 691.38,-503.75"/>
</g>
<!-- src/gathering/ICollectionEditor.ts&#45;&gt;src/gathering/Pack.ts -->
<g id="edge30" class="edge">
<title>src/gathering/ICollectionEditor.ts&#45;&gt;src/gathering/Pack.ts</title>
<path fill="none" stroke="#000000" stroke-opacity="0.200000" d="M659.04,-462.72C668.44,-463.67 678.28,-464.51 687.5,-465 777.59,-469.82 802.38,-484.35 890.5,-465 896.51,-463.68 902.7,-461.34 908.32,-458.78"/>
<polygon fill="none" stroke="#000000" stroke-opacity="0.200000" points="909.24,-460.67 913.73,-456.17 907.42,-456.88 909.24,-460.67"/>
</g>
<!-- src/gathering/IPackRepository.ts&#45;&gt;src/gathering/Pack.ts -->
<g id="edge33" class="edge">
<title>src/gathering/IPackRepository.ts&#45;&gt;src/gathering/Pack.ts</title>
<path fill="none" stroke="#000000" stroke-opacity="0.200000" d="M858.95,-400.25C873.1,-409.63 895.09,-424.2 910.76,-434.58"/>
<polygon fill="none" stroke="#000000" stroke-opacity="0.200000" points="909.64,-436.36 915.81,-437.92 911.96,-432.86 909.64,-436.36"/>
</g>
<!-- src/gathering/PackRepository/index.ts&#45;&gt;src/gathering/Pack.ts -->
<g id="edge35" class="edge">
<title>src/gathering/PackRepository/index.ts&#45;&gt;src/gathering/Pack.ts</title>
<path fill="none" stroke="#000000" stroke-opacity="0.200000" d="M759.09,-408.84C794.77,-416.83 858.73,-431.15 897.33,-439.8"/>
<polygon fill="none" stroke="#000000" stroke-opacity="0.200000" points="896.98,-441.87 903.3,-441.13 897.9,-437.77 896.98,-441.87"/>
</g>
<!-- src/gathering/PackRepository/index.ts&#45;&gt;src/gathering/IPackRepository.ts -->
<g id="edge34" class="edge">
<title>src/gathering/PackRepository/index.ts&#45;&gt;src/gathering/IPackRepository.ts</title>
<path fill="none" stroke="#000000" stroke-opacity="0.200000" d="M759.07,-400.16C768.72,-399.1 780.03,-397.87 791.16,-396.65"/>
<polygon fill="none" stroke="#000000" stroke-opacity="0.200000" points="791.58,-398.72 797.32,-395.98 791.13,-394.55 791.58,-398.72"/>
</g>
<!-- src/gathering/CollectionLoader/CollectionLoader.test.ts -->
<g id="node12" class="node">
<title>src/gathering/CollectionLoader/CollectionLoader.test.ts</title>
<g id="a_node12"><a xlink:href="src/gathering/CollectionLoader/CollectionLoader.test.ts" xlink:title="CollectionLoader.test.ts">
<path fill="#ddfeff" stroke="black" d="M374,-542C374,-542 272,-542 272,-542 269,-542 266,-539 266,-536 266,-536 266,-530 266,-530 266,-527 269,-524 272,-524 272,-524 374,-524 374,-524 377,-524 380,-527 380,-530 380,-530 380,-536 380,-536 380,-539 377,-542 374,-542"/>
<text text-anchor="start" x="274" y="-530.8" font-family="Helvetica,sans-Serif" font-size="9.00">CollectionLoader.test.ts</text>
</a>
</g>
</g>
<!-- src/gathering/CollectionLoader/CollectionLoader.test.ts&#45;&gt;src/gathering/Collection.ts -->
<g id="edge19" class="edge">
<title>src/gathering/CollectionLoader/CollectionLoader.test.ts&#45;&gt;src/gathering/Collection.ts</title>
<path fill="none" stroke="#000000" stroke-opacity="0.200000" d="M351.09,-542.11C409.49,-560.26 550.9,-596.23 661.5,-560 684.05,-552.61 705.32,-534.82 718.25,-522.34"/>
<polygon fill="none" stroke="#000000" stroke-opacity="0.200000" points="719.84,-523.72 722.63,-518.01 716.88,-520.74 719.84,-523.72"/>
</g>
<!-- src/gathering/CollectionLoader/CollectionLoader.test.ts&#45;&gt;src/gathering/CollectionEditor/CollectionEditor.ts -->
<g id="edge20" class="edge">
<title>src/gathering/CollectionLoader/CollectionLoader.test.ts&#45;&gt;src/gathering/CollectionEditor/CollectionEditor.ts</title>
<path fill="none" stroke="#000000" stroke-width="2" stroke-opacity="0.200000" d="M329.05,-523.96C338.82,-507.1 361.77,-470.45 389,-447 402.61,-435.28 420.21,-425.56 434.77,-418.63"/>
<polygon fill="#000000" fill-opacity="0.200000" stroke="#000000" stroke-width="2" stroke-opacity="0.200000" points="435.84,-420.45 440.4,-416.02 434.07,-416.64 435.84,-420.45"/>
</g>
<!-- src/gathering/CollectionLoader/CollectionLoader.test.ts&#45;&gt;src/gathering/CollectionEditor/PackRepositoryMock.ts -->
<g id="edge21" class="edge">
<title>src/gathering/CollectionLoader/CollectionLoader.test.ts&#45;&gt;src/gathering/CollectionEditor/PackRepositoryMock.ts</title>
<path fill="none" stroke="#000000" stroke-width="2" stroke-opacity="0.200000" d="M331.76,-523.96C344.35,-508.77 369,-476.66 381,-445 389.44,-422.72 372.59,-409.27 389,-392 392.61,-388.2 396.9,-385.22 401.57,-382.91"/>
<polygon fill="#000000" fill-opacity="0.200000" stroke="#000000" stroke-width="2" stroke-opacity="0.200000" points="402.53,-384.78 407.21,-380.48 400.87,-380.92 402.53,-384.78"/>
</g>
<!-- src/gathering/CollectionLoader/CollectionLoader.test.ts&#45;&gt;src/gathering/CollectionEntity/index.ts -->
<g id="edge22" class="edge">
<title>src/gathering/CollectionLoader/CollectionLoader.test.ts&#45;&gt;src/gathering/CollectionEntity/index.ts</title>
<path fill="none" stroke="#000000" stroke-width="2" stroke-opacity="0.200000" d="M328.54,-523.81C337.45,-506.89 359.02,-471.15 389,-456 421.89,-439.37 528.25,-470.88 554.5,-445 570.22,-429.5 548.37,-362.96 562.5,-346 566.73,-340.92 572.71,-337.71 579.03,-335.71"/>
<polygon fill="#000000" fill-opacity="0.200000" stroke="#000000" stroke-width="2" stroke-opacity="0.200000" points="579.6,-337.73 584.88,-334.19 578.55,-333.66 579.6,-337.73"/>
</g>
<!-- src/gathering/CollectionLoader/CollectionLoader.test.ts&#45;&gt;src/gathering/ICollectionOutput.ts -->
<g id="edge24" class="edge">
<title>src/gathering/CollectionLoader/CollectionLoader.test.ts&#45;&gt;src/gathering/ICollectionOutput.ts</title>
<path fill="none" stroke="#000000" stroke-opacity="0.200000" d="M360.66,-523.95C369.88,-521.83 379.78,-519.71 389,-518 446.02,-507.46 511.86,-498.69 556.95,-493.2"/>
<polygon fill="none" stroke="#000000" stroke-opacity="0.200000" points="557.46,-495.25 563.17,-492.44 556.96,-491.08 557.46,-495.25"/>
</g>
<!-- src/gathering/CollectionLoader/CollectionLoader.test.ts&#45;&gt;src/gathering/ICollectionEditor.ts -->
<g id="edge23" class="edge">
<title>src/gathering/CollectionLoader/CollectionLoader.test.ts&#45;&gt;src/gathering/ICollectionEditor.ts</title>
<path fill="none" stroke="#000000" stroke-opacity="0.200000" d="M334.68,-523.77C346.92,-513.73 368.03,-498.04 389,-490 444.54,-468.71 512.78,-461.08 558.82,-458.38"/>
<polygon fill="none" stroke="#000000" stroke-opacity="0.200000" points="559.01,-460.48 564.89,-458.05 558.78,-456.28 559.01,-460.48"/>
</g>
<!-- src/gathering/CollectionLoader/CollectionLoader.ts -->
<g id="node13" class="node">
<title>src/gathering/CollectionLoader/CollectionLoader.ts</title>
<g id="a_node13"><a xlink:href="src/gathering/CollectionLoader/CollectionLoader.ts" xlink:title="CollectionLoader.ts">
<path fill="#ddfeff" stroke="black" d="M506,-542C506,-542 421,-542 421,-542 418,-542 415,-539 415,-536 415,-536 415,-530 415,-530 415,-527 418,-524 421,-524 421,-524 506,-524 506,-524 509,-524 512,-527 512,-530 512,-530 512,-536 512,-536 512,-539 509,-542 506,-542"/>
<text text-anchor="start" x="423" y="-530.8" font-family="Helvetica,sans-Serif" font-size="9.00">CollectionLoader.ts</text>
</a>
</g>
</g>
<!-- src/gathering/CollectionLoader/CollectionLoader.test.ts&#45;&gt;src/gathering/CollectionLoader/CollectionLoader.ts -->
<g id="edge18" class="edge">
<title>src/gathering/CollectionLoader/CollectionLoader.test.ts&#45;&gt;src/gathering/CollectionLoader/CollectionLoader.ts</title>
<path fill="none" stroke="#000000" stroke-width="2" stroke-opacity="0.200000" d="M380.33,-533C389.67,-533 399.33,-533 408.61,-533"/>
<polygon fill="#000000" fill-opacity="0.200000" stroke="#000000" stroke-width="2" stroke-opacity="0.200000" points="408.64,-535.1 414.64,-533 408.64,-530.9 408.64,-535.1"/>
</g>
<!-- src/gathering/CollectionLoader/CollectionLoader.ts&#45;&gt;src/gathering/Collection.ts -->
<g id="edge26" class="edge">
<title>src/gathering/CollectionLoader/CollectionLoader.ts&#45;&gt;src/gathering/Collection.ts</title>
<path fill="none" stroke="#000000" stroke-opacity="0.200000" d="M512.14,-528.71C563.3,-524.1 643.64,-516.87 691.43,-512.56"/>
<polygon fill="none" stroke="#000000" stroke-opacity="0.200000" points="691.88,-514.63 697.67,-512 691.5,-510.45 691.88,-514.63"/>
</g>
<!-- src/gathering/CollectionLoader/CollectionLoader.ts&#45;&gt;src/gathering/ICollectionOutput.ts -->
<g id="edge29" class="edge">
<title>src/gathering/CollectionLoader/CollectionLoader.ts&#45;&gt;src/gathering/ICollectionOutput.ts</title>
<path fill="none" stroke="#000000" stroke-opacity="0.200000" d="M512.03,-529.6C525.98,-527.68 541.09,-524.69 554.5,-520 568.51,-515.11 582.93,-506.62 593.7,-499.47"/>
<polygon fill="none" stroke="#000000" stroke-opacity="0.200000" points="594.89,-501.2 598.67,-496.09 592.53,-497.73 594.89,-501.2"/>
</g>
<!-- src/gathering/CollectionLoader/CollectionLoader.ts&#45;&gt;src/gathering/ICollectionEditor.ts -->
<g id="edge27" class="edge">
<title>src/gathering/CollectionLoader/CollectionLoader.ts&#45;&gt;src/gathering/ICollectionEditor.ts</title>
<path fill="none" stroke="#000000" stroke-opacity="0.200000" d="M512.39,-536.62C527.66,-535.26 543.44,-530.82 554.5,-520 569.96,-504.87 548.27,-488.29 562.5,-472 563.12,-471.29 563.76,-470.62 564.44,-469.98"/>
<polygon fill="none" stroke="#000000" stroke-opacity="0.200000" points="565.86,-471.54 569.29,-466.18 563.27,-468.23 565.86,-471.54"/>
</g>
<!-- src/gathering/index.ts -->
<g id="node14" class="node">
<title>src/gathering/index.ts</title>
<g id="a_node14"><a xlink:href="src/gathering/index.ts" xlink:title="index.ts">
<path fill="#ddfeff" stroke="black" d="M633,-408C633,-408 591,-408 591,-408 588,-408 585,-405 585,-402 585,-402 585,-396 585,-396 585,-393 588,-390 591,-390 591,-390 633,-390 633,-390 636,-390 639,-393 639,-396 639,-396 639,-402 639,-402 639,-405 636,-408 633,-408"/>
<text text-anchor="start" x="596" y="-396.8" font-family="Helvetica,sans-Serif" font-size="9.00">index.ts</text>
</a>
</g>
</g>
<!-- src/gathering/CollectionLoader/CollectionLoader.ts&#45;&gt;src/gathering/index.ts -->
<g id="edge25" class="edge">
<title>src/gathering/CollectionLoader/CollectionLoader.ts&#45;&gt;src/gathering/index.ts</title>
<path fill="none" stroke="#000000" stroke-width="2" stroke-opacity="0.200000" d="M477.22,-523.96C495.7,-510.4 530.4,-483.37 554.5,-455 558.89,-449.83 558.14,-447.2 562.5,-442 571.87,-430.85 584.16,-419.98 594.03,-411.96"/>
<polygon fill="#000000" fill-opacity="0.200000" stroke="#000000" stroke-width="2" stroke-opacity="0.200000" points="595.56,-413.42 598.94,-408.04 592.94,-410.14 595.56,-413.42"/>
</g>
<!-- src/gathering/ICollectionLoader.ts -->
<g id="node15" class="node">
<title>src/gathering/ICollectionLoader.ts</title>
<g id="a_node15"><a xlink:href="src/gathering/ICollectionLoader.ts" xlink:title="ICollectionLoader.ts">
<path fill="#ddfeff" stroke="black" d="M655.5,-554C655.5,-554 568.5,-554 568.5,-554 565.5,-554 562.5,-551 562.5,-548 562.5,-548 562.5,-542 562.5,-542 562.5,-539 565.5,-536 568.5,-536 568.5,-536 655.5,-536 655.5,-536 658.5,-536 661.5,-539 661.5,-542 661.5,-542 661.5,-548 661.5,-548 661.5,-551 658.5,-554 655.5,-554"/>
<text text-anchor="start" x="570.5" y="-542.8" font-family="Helvetica,sans-Serif" font-size="9.00">ICollectionLoader.ts</text>
</a>
</g>
</g>
<!-- src/gathering/CollectionLoader/CollectionLoader.ts&#45;&gt;src/gathering/ICollectionLoader.ts -->
<g id="edge28" class="edge">
<title>src/gathering/CollectionLoader/CollectionLoader.ts&#45;&gt;src/gathering/ICollectionLoader.ts</title>
<path fill="none" stroke="#000000" stroke-opacity="0.200000" d="M512.06,-536.9C526.17,-538.05 541.74,-539.33 556.26,-540.52"/>
<polygon fill="none" stroke="#000000" stroke-opacity="0.200000" points="556.27,-542.62 562.42,-541.02 556.61,-538.44 556.27,-542.62"/>
</g>
<!-- src/gathering/index.ts&#45;&gt;src/gathering/CollectionEditor/CollectionEditor.ts -->
<g id="edge36" class="edge">
<title>src/gathering/index.ts&#45;&gt;src/gathering/CollectionEditor/CollectionEditor.ts</title>
<path fill="none" stroke="#000000" stroke-width="2" stroke-opacity="0.200000" d="M584.97,-400.42C565.83,-401.47 539.19,-402.92 515.83,-404.2"/>
<polygon fill="#000000" fill-opacity="0.200000" stroke="#000000" stroke-width="2" stroke-opacity="0.200000" points="515.53,-402.11 509.65,-404.53 515.76,-406.3 515.53,-402.11"/>
</g>
<!-- src/gathering/index.ts&#45;&gt;src/gathering/PackRepository/index.ts -->
<g id="edge37" class="edge">
<title>src/gathering/index.ts&#45;&gt;src/gathering/PackRepository/index.ts</title>
<path fill="none" stroke="#000000" stroke-width="2" stroke-opacity="0.200000" d="M639.19,-399.89C656.76,-400.48 680.02,-401.27 698.73,-401.91"/>
<polygon fill="#000000" fill-opacity="0.200000" stroke="#000000" stroke-width="2" stroke-opacity="0.200000" points="698.82,-404.01 704.89,-402.11 698.96,-399.81 698.82,-404.01"/>
</g>
<!-- src/gathering/ICollectionLoader.ts&#45;&gt;src/gathering/Collection.ts -->
<g id="edge31" class="edge">
<title>src/gathering/ICollectionLoader.ts&#45;&gt;src/gathering/Collection.ts</title>
<path fill="none" stroke="#000000" stroke-opacity="0.200000" d="M642.78,-535.92C658.71,-531.06 678.44,-525.03 695.2,-519.92"/>
<polygon fill="none" stroke="#000000" stroke-opacity="0.200000" points="696.11,-521.84 701.23,-518.08 694.88,-517.82 696.11,-521.84"/>
</g>
<!-- src/lib/userEditsItsCollection/userEditsItsCollection.ts -->
<g id="node16" class="node">
<title>src/lib/userEditsItsCollection/userEditsItsCollection.ts</title>
<g id="a_node16"><a xlink:href="src/lib/userEditsItsCollection/userEditsItsCollection.ts" xlink:title="userEditsItsCollection.ts">
<path fill="#ddfeff" stroke="black" d="M516,-242C516,-242 411,-242 411,-242 408,-242 405,-239 405,-236 405,-236 405,-230 405,-230 405,-227 408,-224 411,-224 411,-224 516,-224 516,-224 519,-224 522,-227 522,-230 522,-230 522,-236 522,-236 522,-239 519,-242 516,-242"/>
<text text-anchor="start" x="413" y="-230.8" font-family="Helvetica,sans-Serif" font-size="9.00">userEditsItsCollection.ts</text>
</a>
</g>
</g>
<!-- src/lib/userEditsItsCollection/userEditsItsCollection.ts&#45;&gt;src/gathering/Collection.ts -->
<g id="edge39" class="edge">
<title>src/lib/userEditsItsCollection/userEditsItsCollection.ts&#45;&gt;src/gathering/Collection.ts</title>
<path fill="none" stroke="#000000" stroke-opacity="0.200000" d="M522.38,-241.45C567.03,-251.06 626.85,-271.24 661.5,-313 698.57,-357.67 665.71,-387.19 687.5,-441 695.67,-461.18 709.95,-481.92 719.91,-495.1"/>
<polygon fill="none" stroke="#000000" stroke-opacity="0.200000" points="718.3,-496.45 723.62,-499.93 721.63,-493.89 718.3,-496.45"/>
</g>
<!-- src/lib/userEditsItsCollection/userEditsItsCollection.ts&#45;&gt;src/gathering/ICollectionOutput.ts -->
<g id="edge41" class="edge">
<title>src/lib/userEditsItsCollection/userEditsItsCollection.ts&#45;&gt;src/gathering/ICollectionOutput.ts</title>
<path fill="none" stroke="#000000" stroke-opacity="0.200000" d="M474.08,-242.17C493.39,-261.34 536.69,-308 554.5,-357 563.25,-381.08 546.59,-451.92 562.5,-472 562.94,-472.55 563.4,-473.09 563.87,-473.6"/>
<polygon fill="none" stroke="#000000" stroke-opacity="0.200000" points="562.7,-475.37 568.61,-477.72 565.46,-472.2 562.7,-475.37"/>
</g>
<!-- src/lib/userEditsItsCollection/userEditsItsCollection.ts&#45;&gt;src/gathering/ICollectionEditor.ts -->
<g id="edge40" class="edge">
<title>src/lib/userEditsItsCollection/userEditsItsCollection.ts&#45;&gt;src/gathering/ICollectionEditor.ts</title>
<path fill="none" stroke="#000000" stroke-opacity="0.200000" d="M473.8,-242.27C492.6,-261.65 534.99,-308.65 554.5,-357 564.08,-380.72 550.41,-391.46 562.5,-414 569.02,-426.16 580.43,-436.54 590.54,-444.05"/>
<polygon fill="none" stroke="#000000" stroke-opacity="0.200000" points="589.57,-445.94 595.67,-447.71 592.01,-442.52 589.57,-445.94"/>
</g>
<!-- src/lib/userEditsItsCollection/userEditsItsCollection.ts&#45;&gt;src/gathering/index.ts -->
<g id="edge38" class="edge">
<title>src/lib/userEditsItsCollection/userEditsItsCollection.ts&#45;&gt;src/gathering/index.ts</title>
<path fill="none" stroke="#000000" stroke-width="2" stroke-opacity="0.200000" d="M471.63,-242.09C487.33,-262.27 525.78,-312.53 554.5,-357 558.39,-363.02 557.44,-365.92 562.5,-371 568.73,-377.26 576.65,-382.6 584.27,-386.89"/>
<polygon fill="#000000" fill-opacity="0.200000" stroke="#000000" stroke-width="2" stroke-opacity="0.200000" points="583.72,-388.98 590.01,-389.96 585.71,-385.28 583.72,-388.98"/>
</g>
<!-- src/routes/collection/edit/+page.svelte.ts -->
<g id="node17" class="node">
<title>src/routes/collection/edit/+page.svelte.ts</title>
<g id="a_node17"><a xlink:href="src/routes/collection/edit/+page.svelte.ts" xlink:title="+page.svelte.ts">
<path fill="#ddfeff" stroke="black" d="M113,-109C113,-109 46,-109 46,-109 43,-109 40,-106 40,-103 40,-103 40,-97 40,-97 40,-94 43,-91 46,-91 46,-91 113,-91 113,-91 116,-91 119,-94 119,-97 119,-97 119,-103 119,-103 119,-106 116,-109 113,-109"/>
<text text-anchor="start" x="48" y="-97.8" font-family="Helvetica,sans-Serif" font-size="9.00">+page.svelte.ts</text>
</a>
</g>
</g>
<!-- src/routes/collection/edit/+page.svelte.ts&#45;&gt;src/lib/userEditsItsCollection/userEditsItsCollection.ts -->
<g id="edge43" class="edge">
<title>src/routes/collection/edit/+page.svelte.ts&#45;&gt;src/lib/userEditsItsCollection/userEditsItsCollection.ts</title>
<path fill="none" stroke="#000000" stroke-width="2" stroke-opacity="0.200000" d="M95.65,-109.05C104.58,-114.16 116.2,-120.41 127,-125 230.09,-168.87 357.33,-205.23 421.45,-222.39"/>
<polygon fill="#000000" fill-opacity="0.200000" stroke="#000000" stroke-width="2" stroke-opacity="0.200000" points="421.12,-224.47 427.45,-223.99 422.2,-220.41 421.12,-224.47"/>
</g>
<!-- src/routes/collection/edit/PacksBundle/PacksBundle.svelte.ts -->
<g id="node18" class="node">
<title>src/routes/collection/edit/PacksBundle/PacksBundle.svelte.ts</title>
<g id="a_node18"><a xlink:href="src/routes/collection/edit/PacksBundle/PacksBundle.svelte.ts" xlink:title="PacksBundle.svelte.ts">
<path fill="#ddfeff" stroke="black" d="M236,-96C236,-96 141,-96 141,-96 138,-96 135,-93 135,-90 135,-90 135,-84 135,-84 135,-81 138,-78 141,-78 141,-78 236,-78 236,-78 239,-78 242,-81 242,-84 242,-84 242,-90 242,-90 242,-93 239,-96 236,-96"/>
<text text-anchor="start" x="143" y="-84.8" font-family="Helvetica,sans-Serif" font-size="9.00">PacksBundle.svelte.ts</text>
</a>
</g>
</g>
<!-- src/routes/collection/edit/+page.svelte.ts&#45;&gt;src/routes/collection/edit/PacksBundle/PacksBundle.svelte.ts -->
<g id="edge42" class="edge">
<title>src/routes/collection/edit/+page.svelte.ts&#45;&gt;src/routes/collection/edit/PacksBundle/PacksBundle.svelte.ts</title>
<path fill="none" stroke="#000000" stroke-width="2" stroke-opacity="0.200000" d="M119.13,-95.31C122.35,-94.92 125.64,-94.52 128.96,-94.11"/>
<polygon fill="#000000" fill-opacity="0.200000" stroke="#000000" stroke-width="2" stroke-opacity="0.200000" points="129.26,-96.19 134.96,-93.38 128.75,-92.02 129.26,-96.19"/>
</g>
<!-- src/routes/collection/edit/PacksBundle/PacksBundle.svelte.ts&#45;&gt;src/lib/userEditsItsCollection/userEditsItsCollection.ts -->
<g id="edge48" class="edge">
<title>src/routes/collection/edit/PacksBundle/PacksBundle.svelte.ts&#45;&gt;src/lib/userEditsItsCollection/userEditsItsCollection.ts</title>
<path fill="none" stroke="#000000" stroke-opacity="0.200000" d="M211.29,-96.08C247.39,-111.4 321.54,-144.06 381,-178 403.91,-191.08 428.86,-208.41 445.04,-220.09"/>
<polygon fill="none" stroke="#000000" stroke-opacity="0.200000" points="444.08,-221.99 450.17,-223.82 446.55,-218.6 444.08,-221.99"/>
</g>
<!-- src/routes/collection/edit/PacksBundle/CollectiblePack.svelte.ts -->
<g id="node19" class="node">
<title>src/routes/collection/edit/PacksBundle/CollectiblePack.svelte.ts</title>
<g id="a_node19"><a xlink:href="src/routes/collection/edit/PacksBundle/CollectiblePack.svelte.ts" xlink:title="CollectiblePack.svelte.ts">
<path fill="#ddfeff" stroke="black" d="M375,-96C375,-96 271,-96 271,-96 268,-96 265,-93 265,-90 265,-90 265,-84 265,-84 265,-81 268,-78 271,-78 271,-78 375,-78 375,-78 378,-78 381,-81 381,-84 381,-84 381,-90 381,-90 381,-93 378,-96 375,-96"/>
<text text-anchor="start" x="273" y="-84.8" font-family="Helvetica,sans-Serif" font-size="9.00">CollectiblePack.svelte.ts</text>
</a>
</g>
</g>
<!-- src/routes/collection/edit/PacksBundle/PacksBundle.svelte.ts&#45;&gt;src/routes/collection/edit/PacksBundle/CollectiblePack.svelte.ts -->
<g id="edge47" class="edge">
<title>src/routes/collection/edit/PacksBundle/PacksBundle.svelte.ts&#45;&gt;src/routes/collection/edit/PacksBundle/CollectiblePack.svelte.ts</title>
<path fill="none" stroke="#000000" stroke-width="2" stroke-opacity="0.200000" d="M242.25,-87C247.54,-87 252.95,-87 258.34,-87"/>
<polygon fill="#000000" fill-opacity="0.200000" stroke="#000000" stroke-width="2" stroke-opacity="0.200000" points="258.64,-89.1 264.64,-87 258.64,-84.9 258.64,-89.1"/>
</g>
<!-- src/routes/collection/edit/PacksBundle/CollectiblePack.svelte.ts&#45;&gt;src/lib/userEditsItsCollection/userEditsItsCollection.ts -->
<g id="edge46" class="edge">
<title>src/routes/collection/edit/PacksBundle/CollectiblePack.svelte.ts&#45;&gt;src/lib/userEditsItsCollection/userEditsItsCollection.ts</title>
<path fill="none" stroke="#000000" stroke-opacity="0.200000" d="M359.47,-96.05C367.19,-99.22 374.88,-103.43 381,-109 386.88,-114.35 384.98,-118.14 389,-125 409.44,-159.84 437.01,-198.47 451.9,-218.76"/>
<polygon fill="none" stroke="#000000" stroke-opacity="0.200000" points="450.32,-220.16 455.57,-223.74 453.7,-217.67 450.32,-220.16"/>
</g>
<!-- src/routes/collection/edit/PacksBundle/arrow&#45;down.svg.svelte.ts -->
<g id="node20" class="node">
<title>src/routes/collection/edit/PacksBundle/arrow&#45;down.svg.svelte.ts</title>
<g id="a_node20"><a xlink:href="src/routes/collection/edit/PacksBundle/arrow-down.svg.svelte.ts" xlink:title="arrow&#45;down.svg.svelte.ts">
<path fill="#ddfeff" stroke="black" d="M516.5,-66C516.5,-66 410.5,-66 410.5,-66 407.5,-66 404.5,-63 404.5,-60 404.5,-60 404.5,-54 404.5,-54 404.5,-51 407.5,-48 410.5,-48 410.5,-48 516.5,-48 516.5,-48 519.5,-48 522.5,-51 522.5,-54 522.5,-54 522.5,-60 522.5,-60 522.5,-63 519.5,-66 516.5,-66"/>
<text text-anchor="start" x="412.5" y="-54.8" font-family="Helvetica,sans-Serif" font-size="9.00">arrow&#45;down.svg.svelte.ts</text>
</a>
</g>
</g>
<!-- src/routes/collection/edit/PacksBundle/CollectiblePack.svelte.ts&#45;&gt;src/routes/collection/edit/PacksBundle/arrow&#45;down.svg.svelte.ts -->
<g id="edge44" class="edge">
<title>src/routes/collection/edit/PacksBundle/CollectiblePack.svelte.ts&#45;&gt;src/routes/collection/edit/PacksBundle/arrow&#45;down.svg.svelte.ts</title>
<path fill="none" stroke="#000000" stroke-width="2" stroke-opacity="0.200000" d="M362.46,-77.95C371.18,-75.95 380.4,-73.87 389,-72 396.16,-70.44 403.72,-68.85 411.16,-67.3"/>
<polygon fill="#000000" fill-opacity="0.200000" stroke="#000000" stroke-width="2" stroke-opacity="0.200000" points="411.92,-69.29 417.37,-66.02 411.07,-65.18 411.92,-69.29"/>
</g>
<!-- src/routes/collection/edit/PacksBundle/arrow&#45;up.svg.svelte.ts -->
<g id="node21" class="node">
<title>src/routes/collection/edit/PacksBundle/arrow&#45;up.svg.svelte.ts</title>
<g id="a_node21"><a xlink:href="src/routes/collection/edit/PacksBundle/arrow-up.svg.svelte.ts" xlink:title="arrow&#45;up.svg.svelte.ts">
<path fill="#ddfeff" stroke="black" d="M510.5,-96C510.5,-96 416.5,-96 416.5,-96 413.5,-96 410.5,-93 410.5,-90 410.5,-90 410.5,-84 410.5,-84 410.5,-81 413.5,-78 416.5,-78 416.5,-78 510.5,-78 510.5,-78 513.5,-78 516.5,-81 516.5,-84 516.5,-84 516.5,-90 516.5,-90 516.5,-93 513.5,-96 510.5,-96"/>
<text text-anchor="start" x="418.5" y="-84.8" font-family="Helvetica,sans-Serif" font-size="9.00">arrow&#45;up.svg.svelte.ts</text>
</a>
</g>
</g>
<!-- src/routes/collection/edit/PacksBundle/CollectiblePack.svelte.ts&#45;&gt;src/routes/collection/edit/PacksBundle/arrow&#45;up.svg.svelte.ts -->
<g id="edge45" class="edge">
<title>src/routes/collection/edit/PacksBundle/CollectiblePack.svelte.ts&#45;&gt;src/routes/collection/edit/PacksBundle/arrow&#45;up.svg.svelte.ts</title>
<path fill="none" stroke="#000000" stroke-width="2" stroke-opacity="0.200000" d="M381.13,-87C388.7,-87 396.47,-87 404.06,-87"/>
<polygon fill="#000000" fill-opacity="0.200000" stroke="#000000" stroke-width="2" stroke-opacity="0.200000" points="404.38,-89.1 410.38,-87 404.38,-84.9 404.38,-89.1"/>
</g>
</g>
</svg>
