<?xml version="1.0" encoding="UTF-8" standalone="no"?>
<!DOCTYPE svg PUBLIC "-//W3C//DTD SVG 1.1//EN"
 "http://www.w3.org/Graphics/SVG/1.1/DTD/svg11.dtd">
<!-- Generated by graphviz version 2.50.0 (20211204.2007)
 -->
<!-- Title: dependency&#45;cruiser output Pages: 1 -->
<svg width="434pt" height="482pt"
 viewBox="0.00 0.00 434.00 482.00" xmlns="http://www.w3.org/2000/svg" xmlns:xlink="http://www.w3.org/1999/xlink">
<g id="graph0" class="graph" transform="scale(1 1) rotate(0) translate(4 478)">
<title>dependency&#45;cruiser output</title>
<polygon fill="white" stroke="transparent" points="-4,4 -4,-478 430,-478 430,4 -4,4"/>
<g id="clust1" class="cluster">
<title>cluster_src</title>
<path fill="#ffffff" stroke="black" stroke-width="2" d="M20,-8C20,-8 406,-8 406,-8 412,-8 418,-14 418,-20 418,-20 418,-454 418,-454 418,-460 412,-466 406,-466 406,-466 20,-466 20,-466 14,-466 8,-460 8,-454 8,-454 8,-20 8,-20 8,-14 14,-8 20,-8"/>
<text text-anchor="middle" x="213" y="-454.8" font-family="Helvetica,sans-Serif" font-weight="bold" font-size="9.00">src</text>
</g>
<g id="clust2" class="cluster">
<title>cluster_src/gathering</title>
<path fill="#ffffff" stroke="black" stroke-width="2" d="M156,-140C156,-140 379.5,-140 379.5,-140 385.5,-140 391.5,-146 391.5,-152 391.5,-152 391.5,-214 391.5,-214 391.5,-220 385.5,-226 379.5,-226 379.5,-226 156,-226 156,-226 150,-226 144,-220 144,-214 144,-214 144,-152 144,-152 144,-146 150,-140 156,-140"/>
<text text-anchor="middle" x="267.75" y="-214.8" font-family="Helvetica,sans-Serif" font-weight="bold" font-size="9.00">gathering</text>
</g>
<g id="clust3" class="cluster">
<title>cluster_src/gathering/CollectionOrganizer</title>
<path fill="#ffffff" stroke="black" stroke-width="2" d="M164,-148C164,-148 257,-148 257,-148 263,-148 269,-154 269,-160 269,-160 269,-188 269,-188 269,-194 263,-200 257,-200 257,-200 164,-200 164,-200 158,-200 152,-194 152,-188 152,-188 152,-160 152,-160 152,-154 158,-148 164,-148"/>
<text text-anchor="middle" x="210.5" y="-188.8" font-family="Helvetica,sans-Serif" font-weight="bold" font-size="9.00">CollectionOrganizer</text>
</g>
<g id="clust4" class="cluster">
<title>cluster_src/lib</title>
<path fill="#ffffff" stroke="black" stroke-width="2" d="M140,-16C140,-16 388.5,-16 388.5,-16 394.5,-16 400.5,-22 400.5,-28 400.5,-28 400.5,-120 400.5,-120 400.5,-126 394.5,-132 388.5,-132 388.5,-132 140,-132 140,-132 134,-132 128,-126 128,-120 128,-120 128,-28 128,-28 128,-22 134,-16 140,-16"/>
<text text-anchor="middle" x="264.25" y="-120.8" font-family="Helvetica,sans-Serif" font-weight="bold" font-size="9.00">lib</text>
</g>
<g id="clust5" class="cluster">
<title>cluster_src/lib/userBrowsesItsCollection</title>
<path fill="#ffffff" stroke="black" stroke-width="2" d="M148,-24C148,-24 380.5,-24 380.5,-24 386.5,-24 392.5,-30 392.5,-36 392.5,-36 392.5,-94 392.5,-94 392.5,-100 386.5,-106 380.5,-106 380.5,-106 148,-106 148,-106 142,-106 136,-100 136,-94 136,-94 136,-36 136,-36 136,-30 142,-24 148,-24"/>
<text text-anchor="middle" x="264.25" y="-94.8" font-family="Helvetica,sans-Serif" font-weight="bold" font-size="9.00">userBrowsesItsCollection</text>
</g>
<g id="clust6" class="cluster">
<title>cluster_src/routes</title>
<path fill="#ffffff" stroke="black" stroke-width="2" d="M28,-234C28,-234 398,-234 398,-234 404,-234 410,-240 410,-246 410,-246 410,-428 410,-428 410,-434 404,-440 398,-440 398,-440 28,-440 28,-440 22,-440 16,-434 16,-428 16,-428 16,-246 16,-246 16,-240 22,-234 28,-234"/>
<text text-anchor="middle" x="213" y="-428.8" font-family="Helvetica,sans-Serif" font-weight="bold" font-size="9.00">routes</text>
</g>
<g id="clust7" class="cluster">
<title>cluster_src/routes/cards</title>
<path fill="#ffffff" stroke="black" stroke-width="2" d="M36,-302C36,-302 108,-302 108,-302 114,-302 120,-308 120,-314 120,-314 120,-342 120,-342 120,-348 114,-354 108,-354 108,-354 36,-354 36,-354 30,-354 24,-348 24,-342 24,-342 24,-314 24,-314 24,-308 30,-302 36,-302"/>
<text text-anchor="middle" x="72" y="-342.8" font-family="Helvetica,sans-Serif" font-weight="bold" font-size="9.00">cards</text>
</g>
<g id="clust9" class="cluster">
<title>cluster_src/routes/packs</title>
<path fill="#ffffff" stroke="black" stroke-width="2" d="M36,-242C36,-242 108,-242 108,-242 114,-242 120,-248 120,-254 120,-254 120,-282 120,-282 120,-288 114,-294 108,-294 108,-294 36,-294 36,-294 30,-294 24,-288 24,-282 24,-282 24,-254 24,-254 24,-248 30,-242 36,-242"/>
<text text-anchor="middle" x="72" y="-282.8" font-family="Helvetica,sans-Serif" font-weight="bold" font-size="9.00">packs</text>
</g>
<g id="clust8" class="cluster">
<title>cluster_src/routes/collection</title>
<path fill="#ffffff" stroke="black" stroke-width="2" d="M36.5,-362C36.5,-362 390,-362 390,-362 396,-362 402,-368 402,-374 402,-374 402,-402 402,-402 402,-408 396,-414 390,-414 390,-414 36.5,-414 36.5,-414 30.5,-414 24.5,-408 24.5,-402 24.5,-402 24.5,-374 24.5,-374 24.5,-368 30.5,-362 36.5,-362"/>
<text text-anchor="middle" x="213.25" y="-402.8" font-family="Helvetica,sans-Serif" font-weight="bold" font-size="9.00">collection</text>
</g>
<!-- src/gathering/CollectionOrganizer/regroupByPockets.ts -->
<g id="node1" class="node">
<title>src/gathering/CollectionOrganizer/regroupByPockets.ts</title>
<g id="a_node1"><a xlink:href="src/gathering/CollectionOrganizer/regroupByPockets.ts" xlink:title="regroupByPockets.ts">
<path fill="#ddfeff" stroke="black" d="M255,-174C255,-174 166,-174 166,-174 163,-174 160,-171 160,-168 160,-168 160,-162 160,-162 160,-159 163,-156 166,-156 166,-156 255,-156 255,-156 258,-156 261,-159 261,-162 261,-162 261,-168 261,-168 261,-171 258,-174 255,-174"/>
<text text-anchor="start" x="168" y="-162.8" font-family="Helvetica,sans-Serif" font-size="9.00">regroupByPockets.ts</text>
</a>
</g>
</g>
<!-- src/lib/userBrowsesItsCollection/ahdb.cards.json -->
<g id="node2" class="node">
<title>src/lib/userBrowsesItsCollection/ahdb.cards.json</title>
<g id="a_node2"><a xlink:href="src/lib/userBrowsesItsCollection/ahdb.cards.json" xlink:title="ahdb.cards.json">
<path fill="#ffee44" stroke="black" d="M246,-50C246,-50 175,-50 175,-50 172,-50 169,-47 169,-44 169,-44 169,-38 169,-38 169,-35 172,-32 175,-32 175,-32 246,-32 246,-32 249,-32 252,-35 252,-38 252,-38 252,-44 252,-44 252,-47 249,-50 246,-50"/>
<text text-anchor="start" x="177" y="-38.8" font-family="Helvetica,sans-Serif" font-size="9.00">ahdb.cards.json</text>
</a>
</g>
</g>
<!-- src/gathering/CollectionOrganizer/regroupByPockets.ts&#45;&gt;src/lib/userBrowsesItsCollection/ahdb.cards.json -->
<g id="edge1" class="edge">
<title>src/gathering/CollectionOrganizer/regroupByPockets.ts&#45;&gt;src/lib/userBrowsesItsCollection/ahdb.cards.json</title>
<path fill="none" stroke="#000000" stroke-width="2" stroke-opacity="0.200000" d="M193.29,-155.95C175.54,-146.05 147.75,-128.91 128,-109 125.74,-106.72 124.93,-106.07 124,-103 118.72,-85.56 118.72,-79.44 124,-62 128.87,-45.93 145.18,-39.72 162.36,-37.89"/>
<polygon fill="#000000" fill-opacity="0.200000" stroke="#000000" stroke-width="2" stroke-opacity="0.200000" points="162.88,-39.96 168.7,-37.41 162.56,-35.77 162.88,-39.96"/>
</g>
<!-- src/gathering/IBinderOutput.ts -->
<g id="node3" class="node">
<title>src/gathering/IBinderOutput.ts</title>
<g id="a_node3"><a xlink:href="src/gathering/IBinderOutput.ts" xlink:title="IBinderOutput.ts">
<path fill="#ddfeff" stroke="black" d="M377.5,-170C377.5,-170 306.5,-170 306.5,-170 303.5,-170 300.5,-167 300.5,-164 300.5,-164 300.5,-158 300.5,-158 300.5,-155 303.5,-152 306.5,-152 306.5,-152 377.5,-152 377.5,-152 380.5,-152 383.5,-155 383.5,-158 383.5,-158 383.5,-164 383.5,-164 383.5,-167 380.5,-170 377.5,-170"/>
<text text-anchor="start" x="308.5" y="-158.8" font-family="Helvetica,sans-Serif" font-size="9.00">IBinderOutput.ts</text>
</a>
</g>
</g>
<!-- src/gathering/CollectionOrganizer/regroupByPockets.ts&#45;&gt;src/gathering/IBinderOutput.ts -->
<g id="edge2" class="edge">
<title>src/gathering/CollectionOrganizer/regroupByPockets.ts&#45;&gt;src/gathering/IBinderOutput.ts</title>
<path fill="none" stroke="#000000" stroke-opacity="0.200000" d="M261.2,-163.46C272.05,-163.13 283.5,-162.78 294.23,-162.44"/>
<polygon fill="none" stroke="#000000" stroke-opacity="0.200000" points="294.53,-164.54 300.46,-162.25 294.4,-160.34 294.53,-164.54"/>
</g>
<!-- src/lib/userBrowsesItsCollection/ahdb.packs.json -->
<g id="node4" class="node">
<title>src/lib/userBrowsesItsCollection/ahdb.packs.json</title>
<g id="a_node4"><a xlink:href="src/lib/userBrowsesItsCollection/ahdb.packs.json" xlink:title="ahdb.packs.json">
<path fill="#ffee44" stroke="black" d="M378.5,-50C378.5,-50 305.5,-50 305.5,-50 302.5,-50 299.5,-47 299.5,-44 299.5,-44 299.5,-38 299.5,-38 299.5,-35 302.5,-32 305.5,-32 305.5,-32 378.5,-32 378.5,-32 381.5,-32 384.5,-35 384.5,-38 384.5,-38 384.5,-44 384.5,-44 384.5,-47 381.5,-50 378.5,-50"/>
<text text-anchor="start" x="307.5" y="-38.8" font-family="Helvetica,sans-Serif" font-size="9.00">ahdb.packs.json</text>
</a>
</g>
</g>
<!-- src/lib/userBrowsesItsCollection/couz.json -->
<g id="node5" class="node">
<title>src/lib/userBrowsesItsCollection/couz.json</title>
<g id="a_node5"><a xlink:href="src/lib/userBrowsesItsCollection/couz.json" xlink:title="couz.json">
<path fill="#ffee44" stroke="black" d="M364,-80C364,-80 320,-80 320,-80 317,-80 314,-77 314,-74 314,-74 314,-68 314,-68 314,-65 317,-62 320,-62 320,-62 364,-62 364,-62 367,-62 370,-65 370,-68 370,-68 370,-74 370,-74 370,-77 367,-80 364,-80"/>
<text text-anchor="start" x="322" y="-68.8" font-family="Helvetica,sans-Serif" font-size="9.00">couz.json</text>
</a>
</g>
</g>
<!-- src/lib/userBrowsesItsCollection/userBrowsesItsCollection.ts -->
<g id="node6" class="node">
<title>src/lib/userBrowsesItsCollection/userBrowsesItsCollection.ts</title>
<g id="a_node6"><a xlink:href="src/lib/userBrowsesItsCollection/userBrowsesItsCollection.ts" xlink:title="userBrowsesItsCollection.ts">
<path fill="#ddfeff" stroke="black" d="M271,-80C271,-80 150,-80 150,-80 147,-80 144,-77 144,-74 144,-74 144,-68 144,-68 144,-65 147,-62 150,-62 150,-62 271,-62 271,-62 274,-62 277,-65 277,-68 277,-68 277,-74 277,-74 277,-77 274,-80 271,-80"/>
<text text-anchor="start" x="152" y="-68.8" font-family="Helvetica,sans-Serif" font-size="9.00">userBrowsesItsCollection.ts</text>
</a>
</g>
</g>
<!-- src/lib/userBrowsesItsCollection/userBrowsesItsCollection.ts&#45;&gt;src/gathering/CollectionOrganizer/regroupByPockets.ts -->
<g id="edge5" class="edge">
<title>src/lib/userBrowsesItsCollection/userBrowsesItsCollection.ts&#45;&gt;src/gathering/CollectionOrganizer/regroupByPockets.ts</title>
<path fill="none" stroke="#000000" stroke-width="2" stroke-opacity="0.200000" d="M210.5,-80.18C210.5,-103.3 210.5,-126.41 210.5,-149.53"/>
<polygon fill="#000000" fill-opacity="0.200000" stroke="#000000" stroke-width="2" stroke-opacity="0.200000" points="208.4,-149.72 210.5,-155.72 212.6,-149.72 208.4,-149.72"/>
</g>
<!-- src/lib/userBrowsesItsCollection/userBrowsesItsCollection.ts&#45;&gt;src/gathering/IBinderOutput.ts -->
<g id="edge6" class="edge">
<title>src/lib/userBrowsesItsCollection/userBrowsesItsCollection.ts&#45;&gt;src/gathering/IBinderOutput.ts</title>
<path fill="none" stroke="#000000" stroke-opacity="0.200000" d="M224.87,-80.29C248.26,-96.55 296.6,-130.14 322.93,-148.44"/>
<polygon fill="none" stroke="#000000" stroke-opacity="0.200000" points="321.77,-150.19 327.89,-151.89 324.17,-146.74 321.77,-150.19"/>
</g>
<!-- src/lib/userBrowsesItsCollection/userBrowsesItsCollection.ts&#45;&gt;src/lib/userBrowsesItsCollection/ahdb.packs.json -->
<g id="edge3" class="edge">
<title>src/lib/userBrowsesItsCollection/userBrowsesItsCollection.ts&#45;&gt;src/lib/userBrowsesItsCollection/ahdb.packs.json</title>
<path fill="none" stroke="#000000" stroke-width="2" stroke-opacity="0.200000" d="M250.99,-61.99C259.57,-60.02 268.59,-57.95 277,-56 283.3,-54.54 289.94,-52.99 296.47,-51.47"/>
<polygon fill="#000000" fill-opacity="0.200000" stroke="#000000" stroke-width="2" stroke-opacity="0.200000" points="297.06,-53.49 302.43,-50.07 296.11,-49.4 297.06,-53.49"/>
</g>
<!-- src/lib/userBrowsesItsCollection/userBrowsesItsCollection.ts&#45;&gt;src/lib/userBrowsesItsCollection/couz.json -->
<g id="edge4" class="edge">
<title>src/lib/userBrowsesItsCollection/userBrowsesItsCollection.ts&#45;&gt;src/lib/userBrowsesItsCollection/couz.json</title>
<path fill="none" stroke="#000000" stroke-width="2" stroke-opacity="0.200000" d="M277.01,-71C287.71,-71 298.39,-71 307.87,-71"/>
<polygon fill="#000000" fill-opacity="0.200000" stroke="#000000" stroke-width="2" stroke-opacity="0.200000" points="307.91,-73.1 313.91,-71 307.91,-68.9 307.91,-73.1"/>
</g>
<!-- src/routes/cards/+page.server.ts -->
<g id="node7" class="node">
<title>src/routes/cards/+page.server.ts</title>
<g id="a_node7"><a xlink:href="src/routes/cards/+page.server.ts" xlink:title="+page.server.ts">
<path fill="#ddfeff" stroke="black" d="M106,-328C106,-328 38,-328 38,-328 35,-328 32,-325 32,-322 32,-322 32,-316 32,-316 32,-313 35,-310 38,-310 38,-310 106,-310 106,-310 109,-310 112,-313 112,-316 112,-316 112,-322 112,-322 112,-325 109,-328 106,-328"/>
<text text-anchor="start" x="40" y="-316.8" font-family="Helvetica,sans-Serif" font-size="9.00">+page.server.ts</text>
</a>
</g>
</g>
<!-- src/routes/cards/+page.server.ts&#45;&gt;src/lib/userBrowsesItsCollection/ahdb.cards.json -->
<g id="edge7" class="edge">
<title>src/routes/cards/+page.server.ts&#45;&gt;src/lib/userBrowsesItsCollection/ahdb.cards.json</title>
<path fill="none" stroke="#000000" stroke-width="2" stroke-opacity="0.200000" d="M104.92,-309.89C110.85,-306.75 116.33,-302.57 120,-297 134.75,-274.63 110.52,-76.3 128,-56 136.63,-45.98 149.57,-41.22 162.61,-39.24"/>
<polygon fill="#000000" fill-opacity="0.200000" stroke="#000000" stroke-width="2" stroke-opacity="0.200000" points="162.89,-41.32 168.6,-38.51 162.39,-37.15 162.89,-41.32"/>
</g>
<!-- src/routes/collection/+page.svelte.ts -->
<g id="node8" class="node">
<title>src/routes/collection/+page.svelte.ts</title>
<g id="a_node8"><a xlink:href="src/routes/collection/+page.svelte.ts" xlink:title="+page.svelte.ts">
<path fill="#ddfeff" stroke="black" d="M105.5,-388C105.5,-388 38.5,-388 38.5,-388 35.5,-388 32.5,-385 32.5,-382 32.5,-382 32.5,-376 32.5,-376 32.5,-373 35.5,-370 38.5,-370 38.5,-370 105.5,-370 105.5,-370 108.5,-370 111.5,-373 111.5,-376 111.5,-376 111.5,-382 111.5,-382 111.5,-385 108.5,-388 105.5,-388"/>
<text text-anchor="start" x="40.5" y="-376.8" font-family="Helvetica,sans-Serif" font-size="9.00">+page.svelte.ts</text>
</a>
</g>
</g>
<!-- src/routes/collection/+page.svelte.ts&#45;&gt;src/lib/userBrowsesItsCollection/userBrowsesItsCollection.ts -->
<g id="edge9" class="edge">
<title>src/routes/collection/+page.svelte.ts&#45;&gt;src/lib/userBrowsesItsCollection/userBrowsesItsCollection.ts</title>
<path fill="none" stroke="#000000" stroke-width="2" stroke-opacity="0.200000" d="M104.9,-369.88C110.84,-366.74 116.32,-362.56 120,-357 133.02,-337.35 118.05,-166.37 128,-145 140.68,-117.76 168.52,-96.07 188.12,-83.38"/>
<polygon fill="#000000" fill-opacity="0.200000" stroke="#000000" stroke-width="2" stroke-opacity="0.200000" points="189.46,-85.02 193.41,-80.05 187.22,-81.47 189.46,-85.02"/>
</g>
<!-- src/routes/collection/Binder.svelte.ts -->
<g id="node9" class="node">
<title>src/routes/collection/Binder.svelte.ts</title>
<g id="a_node9"><a xlink:href="src/routes/collection/Binder.svelte.ts" xlink:title="Binder.svelte.ts">
<path fill="#ddfeff" stroke="black" d="M244.5,-388C244.5,-388 176.5,-388 176.5,-388 173.5,-388 170.5,-385 170.5,-382 170.5,-382 170.5,-376 170.5,-376 170.5,-373 173.5,-370 176.5,-370 176.5,-370 244.5,-370 244.5,-370 247.5,-370 250.5,-373 250.5,-376 250.5,-376 250.5,-382 250.5,-382 250.5,-385 247.5,-388 244.5,-388"/>
<text text-anchor="start" x="178.5" y="-376.8" font-family="Helvetica,sans-Serif" font-size="9.00">Binder.svelte.ts</text>
</a>
</g>
</g>
<!-- src/routes/collection/+page.svelte.ts&#45;&gt;src/routes/collection/Binder.svelte.ts -->
<g id="edge8" class="edge">
<title>src/routes/collection/+page.svelte.ts&#45;&gt;src/routes/collection/Binder.svelte.ts</title>
<path fill="none" stroke="#000000" stroke-width="2" stroke-opacity="0.200000" d="M111.75,-379C128.04,-379 147.1,-379 164.04,-379"/>
<polygon fill="#000000" fill-opacity="0.200000" stroke="#000000" stroke-width="2" stroke-opacity="0.200000" points="164.18,-381.1 170.18,-379 164.18,-376.9 164.18,-381.1"/>
</g>
<!-- src/routes/collection/PocketSheet.svelte.ts -->
<g id="node10" class="node">
<title>src/routes/collection/PocketSheet.svelte.ts</title>
<g id="a_node10"><a xlink:href="src/routes/collection/PocketSheet.svelte.ts" xlink:title="PocketSheet.svelte.ts">
<path fill="#ddfeff" stroke="black" d="M388,-388C388,-388 296,-388 296,-388 293,-388 290,-385 290,-382 290,-382 290,-376 290,-376 290,-373 293,-370 296,-370 296,-370 388,-370 388,-370 391,-370 394,-373 394,-376 394,-376 394,-382 394,-382 394,-385 391,-388 388,-388"/>
<text text-anchor="start" x="298" y="-376.8" font-family="Helvetica,sans-Serif" font-size="9.00">PocketSheet.svelte.ts</text>
</a>
</g>
</g>
<!-- src/routes/collection/Binder.svelte.ts&#45;&gt;src/routes/collection/PocketSheet.svelte.ts -->
<g id="edge10" class="edge">
<title>src/routes/collection/Binder.svelte.ts&#45;&gt;src/routes/collection/PocketSheet.svelte.ts</title>
<path fill="none" stroke="#000000" stroke-width="2" stroke-opacity="0.200000" d="M250.71,-379C261.13,-379 272.61,-379 283.79,-379"/>
<polygon fill="#000000" fill-opacity="0.200000" stroke="#000000" stroke-width="2" stroke-opacity="0.200000" points="283.96,-381.1 289.96,-379 283.96,-376.9 283.96,-381.1"/>
</g>
<!-- src/routes/packs/+page.server.ts -->
<g id="node11" class="node">
<title>src/routes/packs/+page.server.ts</title>
<g id="a_node11"><a xlink:href="src/routes/packs/+page.server.ts" xlink:title="+page.server.ts">
<path fill="#ddfeff" stroke="black" d="M106,-268C106,-268 38,-268 38,-268 35,-268 32,-265 32,-262 32,-262 32,-256 32,-256 32,-253 35,-250 38,-250 38,-250 106,-250 106,-250 109,-250 112,-253 112,-256 112,-256 112,-262 112,-262 112,-265 109,-268 106,-268"/>
<text text-anchor="start" x="40" y="-256.8" font-family="Helvetica,sans-Serif" font-size="9.00">+page.server.ts</text>
</a>
</g>
</g>
<!-- src/routes/packs/+page.server.ts&#45;&gt;src/lib/userBrowsesItsCollection/ahdb.packs.json -->
<g id="edge11" class="edge">
<title>src/routes/packs/+page.server.ts&#45;&gt;src/lib/userBrowsesItsCollection/ahdb.packs.json</title>
<path fill="none" stroke="#000000" stroke-width="2" stroke-opacity="0.200000" d="M73.69,-249.82C76.9,-210.22 91.66,-54.76 128,-26 182.94,17.48 272.87,-11.42 316.17,-29.52"/>
<polygon fill="#000000" fill-opacity="0.200000" stroke="#000000" stroke-width="2" stroke-opacity="0.200000" points="315.37,-31.47 321.71,-31.89 317.02,-27.6 315.37,-31.47"/>
</g>
</g>
</svg>
