<?xml version="1.0" encoding="UTF-8" standalone="no"?>
<!DOCTYPE svg PUBLIC "-//W3C//DTD SVG 1.1//EN"
 "http://www.w3.org/Graphics/SVG/1.1/DTD/svg11.dtd">
<!-- Generated by graphviz version 2.50.0 (20211204.2007)
 -->
<!-- Title: dependency&#45;cruiser output Pages: 1 -->
<svg width="624pt" height="514pt"
 viewBox="0.00 0.00 624.00 514.00" xmlns="http://www.w3.org/2000/svg" xmlns:xlink="http://www.w3.org/1999/xlink">
<g id="graph0" class="graph" transform="scale(1 1) rotate(0) translate(4 510)">
<title>dependency&#45;cruiser output</title>
<polygon fill="white" stroke="transparent" points="-4,4 -4,-510 620,-510 620,4 -4,4"/>
<g id="clust1" class="cluster">
<title>cluster_src</title>
<path fill="#ffffff" stroke="black" stroke-width="2" d="M20,-8C20,-8 596,-8 596,-8 602,-8 608,-14 608,-20 608,-20 608,-486 608,-486 608,-492 602,-498 596,-498 596,-498 20,-498 20,-498 14,-498 8,-492 8,-486 8,-486 8,-20 8,-20 8,-14 14,-8 20,-8"/>
<text text-anchor="middle" x="308" y="-486.8" font-family="Helvetica,sans-Serif" font-weight="bold" font-size="9.00">src</text>
</g>
<g id="clust2" class="cluster">
<title>cluster_src/gathering</title>
<path fill="#ffffff" stroke="black" stroke-width="2" d="M158.5,-16C158.5,-16 588,-16 588,-16 594,-16 600,-22 600,-28 600,-28 600,-306 600,-306 600,-312 594,-318 588,-318 588,-318 158.5,-318 158.5,-318 152.5,-318 146.5,-312 146.5,-306 146.5,-306 146.5,-28 146.5,-28 146.5,-22 152.5,-16 158.5,-16"/>
<text text-anchor="middle" x="373.25" y="-306.8" font-family="Helvetica,sans-Serif" font-weight="bold" font-size="9.00">gathering</text>
</g>
<g id="clust6" class="cluster">
<title>cluster_src/gathering/CollectionOrganizer</title>
<path fill="#ffffff" stroke="black" stroke-width="2" d="M169,-240C169,-240 268,-240 268,-240 274,-240 280,-246 280,-252 280,-252 280,-280 280,-280 280,-286 274,-292 268,-292 268,-292 169,-292 169,-292 163,-292 157,-286 157,-280 157,-280 157,-252 157,-252 157,-246 163,-240 169,-240"/>
<text text-anchor="middle" x="218.5" y="-280.8" font-family="Helvetica,sans-Serif" font-weight="bold" font-size="9.00">CollectionOrganizer</text>
</g>
<g id="clust5" class="cluster">
<title>cluster_src/gathering/CollectionLoader</title>
<path fill="#ffffff" stroke="black" stroke-width="2" d="M174,-180C174,-180 263,-180 263,-180 269,-180 275,-186 275,-192 275,-192 275,-220 275,-220 275,-226 269,-232 263,-232 263,-232 174,-232 174,-232 168,-232 162,-226 162,-220 162,-220 162,-192 162,-192 162,-186 168,-180 174,-180"/>
<text text-anchor="middle" x="218.5" y="-220.8" font-family="Helvetica,sans-Serif" font-weight="bold" font-size="9.00">CollectionLoader</text>
</g>
<g id="clust4" class="cluster">
<title>cluster_src/gathering/CollectionEntity</title>
<path fill="#ffffff" stroke="black" stroke-width="2" d="M323.5,-24C323.5,-24 404.5,-24 404.5,-24 410.5,-24 416.5,-30 416.5,-36 416.5,-36 416.5,-64 416.5,-64 416.5,-70 410.5,-76 404.5,-76 404.5,-76 323.5,-76 323.5,-76 317.5,-76 311.5,-70 311.5,-64 311.5,-64 311.5,-36 311.5,-36 311.5,-30 317.5,-24 323.5,-24"/>
<text text-anchor="middle" x="364" y="-64.8" font-family="Helvetica,sans-Serif" font-weight="bold" font-size="9.00">CollectionEntity</text>
</g>
<g id="clust3" class="cluster">
<title>cluster_src/gathering/CollectionEditor</title>
<path fill="#ffffff" stroke="black" stroke-width="2" d="M166.5,-90C166.5,-90 270.5,-90 270.5,-90 276.5,-90 282.5,-96 282.5,-102 282.5,-102 282.5,-160 282.5,-160 282.5,-166 276.5,-172 270.5,-172 270.5,-172 166.5,-172 166.5,-172 160.5,-172 154.5,-166 154.5,-160 154.5,-160 154.5,-102 154.5,-102 154.5,-96 160.5,-90 166.5,-90"/>
<text text-anchor="middle" x="218.5" y="-160.8" font-family="Helvetica,sans-Serif" font-weight="bold" font-size="9.00">CollectionEditor</text>
</g>
<g id="clust7" class="cluster">
<title>cluster_src/gathering/PackRepository</title>
<path fill="#ffffff" stroke="black" stroke-width="2" d="M180,-30C180,-30 257,-30 257,-30 263,-30 269,-36 269,-42 269,-42 269,-70 269,-70 269,-76 263,-82 257,-82 257,-82 180,-82 180,-82 174,-82 168,-76 168,-70 168,-70 168,-42 168,-42 168,-36 174,-30 180,-30"/>
<text text-anchor="middle" x="218.5" y="-70.8" font-family="Helvetica,sans-Serif" font-weight="bold" font-size="9.00">PackRepository</text>
</g>
<g id="clust8" class="cluster">
<title>cluster_src/lib</title>
<path fill="#ffffff" stroke="black" stroke-width="2" d="M148,-326C148,-326 289,-326 289,-326 295,-326 301,-332 301,-338 301,-338 301,-460 301,-460 301,-466 295,-472 289,-472 289,-472 148,-472 148,-472 142,-472 136,-466 136,-460 136,-460 136,-338 136,-338 136,-332 142,-326 148,-326"/>
<text text-anchor="middle" x="218.5" y="-460.8" font-family="Helvetica,sans-Serif" font-weight="bold" font-size="9.00">lib</text>
</g>
<g id="clust10" class="cluster">
<title>cluster_src/lib/userEditsItsCollection</title>
<path fill="#ffffff" stroke="black" stroke-width="2" d="M164,-334C164,-334 273,-334 273,-334 279,-334 285,-340 285,-346 285,-346 285,-374 285,-374 285,-380 279,-386 273,-386 273,-386 164,-386 164,-386 158,-386 152,-380 152,-374 152,-374 152,-346 152,-346 152,-340 158,-334 164,-334"/>
<text text-anchor="middle" x="218.5" y="-374.8" font-family="Helvetica,sans-Serif" font-weight="bold" font-size="9.00">userEditsItsCollection</text>
</g>
<g id="clust9" class="cluster">
<title>cluster_src/lib/userBrowsesItsCollection</title>
<path fill="#ffffff" stroke="black" stroke-width="2" d="M156,-394C156,-394 281,-394 281,-394 287,-394 293,-400 293,-406 293,-406 293,-434 293,-434 293,-440 287,-446 281,-446 281,-446 156,-446 156,-446 150,-446 144,-440 144,-434 144,-434 144,-406 144,-406 144,-400 150,-394 156,-394"/>
<text text-anchor="middle" x="218.5" y="-434.8" font-family="Helvetica,sans-Serif" font-weight="bold" font-size="9.00">userBrowsesItsCollection</text>
</g>
<g id="clust11" class="cluster">
<title>cluster_src/routes</title>
<path fill="#ffffff" stroke="black" stroke-width="2" d="M28,-16C28,-16 116,-16 116,-16 122,-16 128,-22 128,-28 128,-28 128,-210 128,-210 128,-216 122,-222 116,-222 116,-222 28,-222 28,-222 22,-222 16,-216 16,-210 16,-210 16,-28 16,-28 16,-22 22,-16 28,-16"/>
<text text-anchor="middle" x="72" y="-210.8" font-family="Helvetica,sans-Serif" font-weight="bold" font-size="9.00">routes</text>
</g>
<g id="clust12" class="cluster">
<title>cluster_src/routes/cards</title>
<path fill="#ffffff" stroke="black" stroke-width="2" d="M36,-24C36,-24 108,-24 108,-24 114,-24 120,-30 120,-36 120,-36 120,-64 120,-64 120,-70 114,-76 108,-76 108,-76 36,-76 36,-76 30,-76 24,-70 24,-64 24,-64 24,-36 24,-36 24,-30 30,-24 36,-24"/>
<text text-anchor="middle" x="72" y="-64.8" font-family="Helvetica,sans-Serif" font-weight="bold" font-size="9.00">cards</text>
</g>
<g id="clust14" class="cluster">
<title>cluster_src/routes/packs</title>
<path fill="#ffffff" stroke="black" stroke-width="2" d="M36,-84C36,-84 108,-84 108,-84 114,-84 120,-90 120,-96 120,-96 120,-124 120,-124 120,-130 114,-136 108,-136 108,-136 36,-136 36,-136 30,-136 24,-130 24,-124 24,-124 24,-96 24,-96 24,-90 30,-84 36,-84"/>
<text text-anchor="middle" x="72" y="-124.8" font-family="Helvetica,sans-Serif" font-weight="bold" font-size="9.00">packs</text>
</g>
<g id="clust13" class="cluster">
<title>cluster_src/routes/collection</title>
<path fill="#ffffff" stroke="black" stroke-width="2" d="M36.5,-144C36.5,-144 107.5,-144 107.5,-144 113.5,-144 119.5,-150 119.5,-156 119.5,-156 119.5,-184 119.5,-184 119.5,-190 113.5,-196 107.5,-196 107.5,-196 36.5,-196 36.5,-196 30.5,-196 24.5,-190 24.5,-184 24.5,-184 24.5,-156 24.5,-156 24.5,-150 30.5,-144 36.5,-144"/>
<text text-anchor="middle" x="72" y="-184.8" font-family="Helvetica,sans-Serif" font-weight="bold" font-size="9.00">collection</text>
</g>
<!-- src/gathering/Collection.ts -->
<g id="node1" class="node">
<title>src/gathering/Collection.ts</title>
<g id="a_node1"><a xlink:href="src/gathering/Collection.ts" xlink:title="Collection.ts">
<path fill="#ddfeff" stroke="black" d="M506.5,-196C506.5,-196 450.5,-196 450.5,-196 447.5,-196 444.5,-193 444.5,-190 444.5,-190 444.5,-184 444.5,-184 444.5,-181 447.5,-178 450.5,-178 450.5,-178 506.5,-178 506.5,-178 509.5,-178 512.5,-181 512.5,-184 512.5,-184 512.5,-190 512.5,-190 512.5,-193 509.5,-196 506.5,-196"/>
<text text-anchor="start" x="452.5" y="-184.8" font-family="Helvetica,sans-Serif" font-size="9.00">Collection.ts</text>
</a>
</g>
</g>
<!-- src/gathering/Pack.ts -->
<g id="node2" class="node">
<title>src/gathering/Pack.ts</title>
<g id="a_node2"><a xlink:href="src/gathering/Pack.ts" xlink:title="Pack.ts">
<path fill="#ddfeff" stroke="black" d="M586,-130C586,-130 544,-130 544,-130 541,-130 538,-127 538,-124 538,-124 538,-118 538,-118 538,-115 541,-112 544,-112 544,-112 586,-112 586,-112 589,-112 592,-115 592,-118 592,-118 592,-124 592,-124 592,-127 589,-130 586,-130"/>
<text text-anchor="start" x="549.5" y="-118.8" font-family="Helvetica,sans-Serif" font-size="9.00">Pack.ts</text>
</a>
</g>
</g>
<!-- src/gathering/Collection.ts&#45;&gt;src/gathering/Pack.ts -->
<g id="edge1" class="edge">
<title>src/gathering/Collection.ts&#45;&gt;src/gathering/Pack.ts</title>
<path fill="none" stroke="#000000" stroke-opacity="0.200000" d="M491.25,-177.82C505.88,-166.4 530.96,-146.81 547.51,-133.88"/>
<polygon fill="none" stroke="#000000" stroke-opacity="0.200000" points="548.91,-135.45 552.35,-130.1 546.33,-132.14 548.91,-135.45"/>
</g>
<!-- src/gathering/CollectionEditor/CollectionEditor.ts -->
<g id="node3" class="node">
<title>src/gathering/CollectionEditor/CollectionEditor.ts</title>
<g id="a_node3"><a xlink:href="src/gathering/CollectionEditor/CollectionEditor.ts" xlink:title="CollectionEditor.ts">
<path fill="#ddfeff" stroke="black" d="M258.5,-146C258.5,-146 178.5,-146 178.5,-146 175.5,-146 172.5,-143 172.5,-140 172.5,-140 172.5,-134 172.5,-134 172.5,-131 175.5,-128 178.5,-128 178.5,-128 258.5,-128 258.5,-128 261.5,-128 264.5,-131 264.5,-134 264.5,-134 264.5,-140 264.5,-140 264.5,-143 261.5,-146 258.5,-146"/>
<text text-anchor="start" x="180.5" y="-134.8" font-family="Helvetica,sans-Serif" font-size="9.00">CollectionEditor.ts</text>
</a>
</g>
</g>
<!-- src/gathering/CollectionEditor/CollectionEditor.ts&#45;&gt;src/gathering/Pack.ts -->
<g id="edge4" class="edge">
<title>src/gathering/CollectionEditor/CollectionEditor.ts&#45;&gt;src/gathering/Pack.ts</title>
<path fill="none" stroke="#000000" stroke-opacity="0.200000" d="M264.7,-138.03C305.16,-138.66 366.08,-138.86 419,-136 457.93,-133.89 502.51,-128.89 531.85,-125.24"/>
<polygon fill="none" stroke="#000000" stroke-opacity="0.200000" points="532.18,-127.32 537.87,-124.48 531.65,-123.15 532.18,-127.32"/>
</g>
<!-- src/gathering/ICollectionEditor.ts -->
<g id="node4" class="node">
<title>src/gathering/ICollectionEditor.ts</title>
<g id="a_node4"><a xlink:href="src/gathering/ICollectionEditor.ts" xlink:title="ICollectionEditor.ts">
<path fill="#ddfeff" stroke="black" d="M405,-248C405,-248 323,-248 323,-248 320,-248 317,-245 317,-242 317,-242 317,-236 317,-236 317,-233 320,-230 323,-230 323,-230 405,-230 405,-230 408,-230 411,-233 411,-236 411,-236 411,-242 411,-242 411,-245 408,-248 405,-248"/>
<text text-anchor="start" x="325" y="-236.8" font-family="Helvetica,sans-Serif" font-size="9.00">ICollectionEditor.ts</text>
</a>
</g>
</g>
<!-- src/gathering/CollectionEditor/CollectionEditor.ts&#45;&gt;src/gathering/ICollectionEditor.ts -->
<g id="edge2" class="edge">
<title>src/gathering/CollectionEditor/CollectionEditor.ts&#45;&gt;src/gathering/ICollectionEditor.ts</title>
<path fill="none" stroke="#000000" stroke-opacity="0.200000" d="M254.48,-146.04C271.07,-152.11 289.68,-161.85 301,-177 313.68,-193.98 294.8,-208.27 309,-224 309.83,-224.92 310.71,-225.79 311.64,-226.6"/>
<polygon fill="none" stroke="#000000" stroke-opacity="0.200000" points="310.53,-228.39 316.61,-230.26 313.02,-225.01 310.53,-228.39"/>
</g>
<!-- src/gathering/ICollectionOutput.ts -->
<g id="node5" class="node">
<title>src/gathering/ICollectionOutput.ts</title>
<g id="a_node5"><a xlink:href="src/gathering/ICollectionOutput.ts" xlink:title="ICollectionOutput.ts">
<path fill="#ddfeff" stroke="black" d="M406.5,-174C406.5,-174 321.5,-174 321.5,-174 318.5,-174 315.5,-171 315.5,-168 315.5,-168 315.5,-162 315.5,-162 315.5,-159 318.5,-156 321.5,-156 321.5,-156 406.5,-156 406.5,-156 409.5,-156 412.5,-159 412.5,-162 412.5,-162 412.5,-168 412.5,-168 412.5,-171 409.5,-174 406.5,-174"/>
<text text-anchor="start" x="323.5" y="-162.8" font-family="Helvetica,sans-Serif" font-size="9.00">ICollectionOutput.ts</text>
</a>
</g>
</g>
<!-- src/gathering/CollectionEditor/CollectionEditor.ts&#45;&gt;src/gathering/ICollectionOutput.ts -->
<g id="edge3" class="edge">
<title>src/gathering/CollectionEditor/CollectionEditor.ts&#45;&gt;src/gathering/ICollectionOutput.ts</title>
<path fill="none" stroke="#000000" stroke-opacity="0.200000" d="M264.51,-145.78C279.17,-148.64 295.56,-151.84 310.71,-154.8"/>
<polygon fill="none" stroke="#000000" stroke-opacity="0.200000" points="310.37,-156.87 316.67,-155.96 311.18,-152.75 310.37,-156.87"/>
</g>
<!-- src/gathering/ICollectionEditor.ts&#45;&gt;src/gathering/Pack.ts -->
<g id="edge16" class="edge">
<title>src/gathering/ICollectionEditor.ts&#45;&gt;src/gathering/Pack.ts</title>
<path fill="none" stroke="#000000" stroke-opacity="0.200000" d="M411.31,-238.7C446,-236.21 492.83,-227.73 525,-202 545.84,-185.33 556.24,-154.79 560.85,-136.35"/>
<polygon fill="none" stroke="#000000" stroke-opacity="0.200000" points="562.98,-136.47 562.29,-130.15 558.89,-135.51 562.98,-136.47"/>
</g>
<!-- src/gathering/ICollectionOutput.ts&#45;&gt;src/gathering/Collection.ts -->
<g id="edge19" class="edge">
<title>src/gathering/ICollectionOutput.ts&#45;&gt;src/gathering/Collection.ts</title>
<path fill="none" stroke="#000000" stroke-opacity="0.200000" d="M411.08,-174.01C420.15,-175.79 429.59,-177.63 438.41,-179.35"/>
<polygon fill="none" stroke="#000000" stroke-opacity="0.200000" points="438.11,-181.44 444.4,-180.53 438.91,-177.31 438.11,-181.44"/>
</g>
<!-- src/gathering/CollectionEditor/PackRepositoryMock.ts -->
<g id="node6" class="node">
<title>src/gathering/CollectionEditor/PackRepositoryMock.ts</title>
<g id="a_node6"><a xlink:href="src/gathering/CollectionEditor/PackRepositoryMock.ts" xlink:title="PackRepositoryMock.ts">
<path fill="#ddfeff" stroke="black" d="M268.5,-116C268.5,-116 168.5,-116 168.5,-116 165.5,-116 162.5,-113 162.5,-110 162.5,-110 162.5,-104 162.5,-104 162.5,-101 165.5,-98 168.5,-98 168.5,-98 268.5,-98 268.5,-98 271.5,-98 274.5,-101 274.5,-104 274.5,-104 274.5,-110 274.5,-110 274.5,-113 271.5,-116 268.5,-116"/>
<text text-anchor="start" x="170.5" y="-104.8" font-family="Helvetica,sans-Serif" font-size="9.00">PackRepositoryMock.ts</text>
</a>
</g>
</g>
<!-- src/gathering/CollectionEditor/PackRepositoryMock.ts&#45;&gt;src/gathering/Pack.ts -->
<g id="edge6" class="edge">
<title>src/gathering/CollectionEditor/PackRepositoryMock.ts&#45;&gt;src/gathering/Pack.ts</title>
<path fill="none" stroke="#000000" stroke-opacity="0.200000" d="M274.88,-106.28C286.17,-106.17 297.97,-106.06 309,-106 357.89,-105.73 370.18,-103.48 419,-106 457.93,-108.01 502.51,-113.03 531.85,-116.71"/>
<polygon fill="none" stroke="#000000" stroke-opacity="0.200000" points="531.65,-118.8 537.87,-117.48 532.18,-114.64 531.65,-118.8"/>
</g>
<!-- src/gathering/IPackRepository.ts -->
<g id="node7" class="node">
<title>src/gathering/IPackRepository.ts</title>
<g id="a_node7"><a xlink:href="src/gathering/IPackRepository.ts" xlink:title="IPackRepository.ts">
<path fill="#ddfeff" stroke="black" d="M519,-86C519,-86 438,-86 438,-86 435,-86 432,-83 432,-80 432,-80 432,-74 432,-74 432,-71 435,-68 438,-68 438,-68 519,-68 519,-68 522,-68 525,-71 525,-74 525,-74 525,-80 525,-80 525,-83 522,-86 519,-86"/>
<text text-anchor="start" x="440" y="-74.8" font-family="Helvetica,sans-Serif" font-size="9.00">IPackRepository.ts</text>
</a>
</g>
</g>
<!-- src/gathering/CollectionEditor/PackRepositoryMock.ts&#45;&gt;src/gathering/IPackRepository.ts -->
<g id="edge5" class="edge">
<title>src/gathering/CollectionEditor/PackRepositoryMock.ts&#45;&gt;src/gathering/IPackRepository.ts</title>
<path fill="none" stroke="#000000" stroke-opacity="0.200000" d="M274.85,-99.34C286.14,-97.85 297.95,-96.33 309,-95 348.05,-90.3 392.26,-85.6 425.6,-82.18"/>
<polygon fill="none" stroke="#000000" stroke-opacity="0.200000" points="425.94,-84.26 431.69,-81.56 425.51,-80.08 425.94,-84.26"/>
</g>
<!-- src/gathering/IPackRepository.ts&#45;&gt;src/gathering/Pack.ts -->
<g id="edge20" class="edge">
<title>src/gathering/IPackRepository.ts&#45;&gt;src/gathering/Pack.ts</title>
<path fill="none" stroke="#000000" stroke-opacity="0.200000" d="M505.43,-86.16C511.94,-88.76 518.83,-91.77 525,-95 532.32,-98.83 539.97,-103.72 546.54,-108.22"/>
<polygon fill="none" stroke="#000000" stroke-opacity="0.200000" points="545.65,-110.15 551.77,-111.87 548.05,-106.71 545.65,-110.15"/>
</g>
<!-- src/gathering/CollectionEntity/CollectionEntity.ts -->
<g id="node8" class="node">
<title>src/gathering/CollectionEntity/CollectionEntity.ts</title>
<g id="a_node8"><a xlink:href="src/gathering/CollectionEntity/CollectionEntity.ts" xlink:title="CollectionEntity.ts">
<path fill="#ddfeff" stroke="black" d="M402.5,-50C402.5,-50 325.5,-50 325.5,-50 322.5,-50 319.5,-47 319.5,-44 319.5,-44 319.5,-38 319.5,-38 319.5,-35 322.5,-32 325.5,-32 325.5,-32 402.5,-32 402.5,-32 405.5,-32 408.5,-35 408.5,-38 408.5,-38 408.5,-44 408.5,-44 408.5,-47 405.5,-50 402.5,-50"/>
<text text-anchor="start" x="327.5" y="-38.8" font-family="Helvetica,sans-Serif" font-size="9.00">CollectionEntity.ts</text>
</a>
</g>
</g>
<!-- src/gathering/CollectionEntity/CollectionEntity.ts&#45;&gt;src/gathering/Pack.ts -->
<g id="edge8" class="edge">
<title>src/gathering/CollectionEntity/CollectionEntity.ts&#45;&gt;src/gathering/Pack.ts</title>
<path fill="none" stroke="#000000" stroke-opacity="0.200000" d="M408.67,-37.3C442.83,-36.51 490.2,-40.25 525,-62 541.25,-72.16 552.19,-91.86 558.24,-105.7"/>
<polygon fill="none" stroke="#000000" stroke-opacity="0.200000" points="556.45,-106.85 560.68,-111.58 560.33,-105.24 556.45,-106.85"/>
</g>
<!-- src/gathering/CollectionEntity/CollectionEntity.ts&#45;&gt;src/gathering/IPackRepository.ts -->
<g id="edge7" class="edge">
<title>src/gathering/CollectionEntity/CollectionEntity.ts&#45;&gt;src/gathering/IPackRepository.ts</title>
<path fill="none" stroke="#000000" stroke-opacity="0.200000" d="M405.27,-50.04C409.93,-51.28 414.59,-52.61 419,-54 429.61,-57.35 441.06,-61.68 450.98,-65.68"/>
<polygon fill="none" stroke="#000000" stroke-opacity="0.200000" points="450.28,-67.66 456.63,-67.98 451.87,-63.77 450.28,-67.66"/>
</g>
<!-- src/gathering/CollectionLoader/CollectionLoader.ts -->
<g id="node9" class="node">
<title>src/gathering/CollectionLoader/CollectionLoader.ts</title>
<g id="a_node9"><a xlink:href="src/gathering/CollectionLoader/CollectionLoader.ts" xlink:title="CollectionLoader.ts">
<path fill="#ddfeff" stroke="black" d="M261,-206C261,-206 176,-206 176,-206 173,-206 170,-203 170,-200 170,-200 170,-194 170,-194 170,-191 173,-188 176,-188 176,-188 261,-188 261,-188 264,-188 267,-191 267,-194 267,-194 267,-200 267,-200 267,-203 264,-206 261,-206"/>
<text text-anchor="start" x="178" y="-194.8" font-family="Helvetica,sans-Serif" font-size="9.00">CollectionLoader.ts</text>
</a>
</g>
</g>
<!-- src/gathering/CollectionLoader/CollectionLoader.ts&#45;&gt;src/gathering/Collection.ts -->
<g id="edge9" class="edge">
<title>src/gathering/CollectionLoader/CollectionLoader.ts&#45;&gt;src/gathering/Collection.ts</title>
<path fill="none" stroke="#000000" stroke-opacity="0.200000" d="M267.12,-195.15C316.35,-193.25 392.3,-190.3 438.21,-188.52"/>
<polygon fill="none" stroke="#000000" stroke-opacity="0.200000" points="438.57,-190.61 444.49,-188.28 438.41,-186.41 438.57,-190.61"/>
</g>
<!-- src/gathering/CollectionLoader/CollectionLoader.ts&#45;&gt;src/gathering/ICollectionEditor.ts -->
<g id="edge10" class="edge">
<title>src/gathering/CollectionLoader/CollectionLoader.ts&#45;&gt;src/gathering/ICollectionEditor.ts</title>
<path fill="none" stroke="#000000" stroke-opacity="0.200000" d="M248.88,-206.04C266.32,-211.36 288.89,-218.17 309,-224 313.9,-225.42 319.07,-226.89 324.17,-228.33"/>
<polygon fill="none" stroke="#000000" stroke-opacity="0.200000" points="323.78,-230.4 330.13,-229.99 324.92,-226.35 323.78,-230.4"/>
</g>
<!-- src/gathering/CollectionLoader/CollectionLoader.ts&#45;&gt;src/gathering/ICollectionOutput.ts -->
<g id="edge12" class="edge">
<title>src/gathering/CollectionLoader/CollectionLoader.ts&#45;&gt;src/gathering/ICollectionOutput.ts</title>
<path fill="none" stroke="#000000" stroke-opacity="0.200000" d="M260.24,-187.92C277.66,-184.03 298.1,-179.47 316.14,-175.45"/>
<polygon fill="none" stroke="#000000" stroke-opacity="0.200000" points="316.76,-177.46 322.16,-174.11 315.85,-173.36 316.76,-177.46"/>
</g>
<!-- src/gathering/ICollectionLoader.ts -->
<g id="node10" class="node">
<title>src/gathering/ICollectionLoader.ts</title>
<g id="a_node10"><a xlink:href="src/gathering/ICollectionLoader.ts" xlink:title="ICollectionLoader.ts">
<path fill="#ddfeff" stroke="black" d="M407.5,-218C407.5,-218 320.5,-218 320.5,-218 317.5,-218 314.5,-215 314.5,-212 314.5,-212 314.5,-206 314.5,-206 314.5,-203 317.5,-200 320.5,-200 320.5,-200 407.5,-200 407.5,-200 410.5,-200 413.5,-203 413.5,-206 413.5,-206 413.5,-212 413.5,-212 413.5,-215 410.5,-218 407.5,-218"/>
<text text-anchor="start" x="322.5" y="-206.8" font-family="Helvetica,sans-Serif" font-size="9.00">ICollectionLoader.ts</text>
</a>
</g>
</g>
<!-- src/gathering/CollectionLoader/CollectionLoader.ts&#45;&gt;src/gathering/ICollectionLoader.ts -->
<g id="edge11" class="edge">
<title>src/gathering/CollectionLoader/CollectionLoader.ts&#45;&gt;src/gathering/ICollectionLoader.ts</title>
<path fill="none" stroke="#000000" stroke-opacity="0.200000" d="M267.28,-201C280.43,-202.1 294.8,-203.3 308.31,-204.43"/>
<polygon fill="none" stroke="#000000" stroke-opacity="0.200000" points="308.29,-206.53 314.45,-204.94 308.64,-202.35 308.29,-206.53"/>
</g>
<!-- src/gathering/ICollectionLoader.ts&#45;&gt;src/gathering/Collection.ts -->
<g id="edge17" class="edge">
<title>src/gathering/ICollectionLoader.ts&#45;&gt;src/gathering/Collection.ts</title>
<path fill="none" stroke="#000000" stroke-opacity="0.200000" d="M411.08,-199.99C420.15,-198.21 429.59,-196.37 438.41,-194.65"/>
<polygon fill="none" stroke="#000000" stroke-opacity="0.200000" points="438.91,-196.69 444.4,-193.47 438.11,-192.56 438.91,-196.69"/>
</g>
<!-- src/gathering/CollectionOrganizer/CollectionOrganizer.ts -->
<g id="node11" class="node">
<title>src/gathering/CollectionOrganizer/CollectionOrganizer.ts</title>
<g id="a_node11"><a xlink:href="src/gathering/CollectionOrganizer/CollectionOrganizer.ts" xlink:title="CollectionOrganizer.ts">
<path fill="#ddfeff" stroke="black" d="M266,-266C266,-266 171,-266 171,-266 168,-266 165,-263 165,-260 165,-260 165,-254 165,-254 165,-251 168,-248 171,-248 171,-248 266,-248 266,-248 269,-248 272,-251 272,-254 272,-254 272,-260 272,-260 272,-263 269,-266 266,-266"/>
<text text-anchor="start" x="173" y="-254.8" font-family="Helvetica,sans-Serif" font-size="9.00">CollectionOrganizer.ts</text>
</a>
</g>
</g>
<!-- src/gathering/ahdb.cards.json -->
<g id="node12" class="node">
<title>src/gathering/ahdb.cards.json</title>
<g id="a_node12"><a xlink:href="src/gathering/ahdb.cards.json" xlink:title="ahdb.cards.json">
<path fill="#ffee44" stroke="black" d="M399.5,-130C399.5,-130 328.5,-130 328.5,-130 325.5,-130 322.5,-127 322.5,-124 322.5,-124 322.5,-118 322.5,-118 322.5,-115 325.5,-112 328.5,-112 328.5,-112 399.5,-112 399.5,-112 402.5,-112 405.5,-115 405.5,-118 405.5,-118 405.5,-124 405.5,-124 405.5,-127 402.5,-130 399.5,-130"/>
<text text-anchor="start" x="330.5" y="-118.8" font-family="Helvetica,sans-Serif" font-size="9.00">ahdb.cards.json</text>
</a>
</g>
</g>
<!-- src/gathering/CollectionOrganizer/CollectionOrganizer.ts&#45;&gt;src/gathering/ahdb.cards.json -->
<g id="edge13" class="edge">
<title>src/gathering/CollectionOrganizer/CollectionOrganizer.ts&#45;&gt;src/gathering/ahdb.cards.json</title>
<path fill="none" stroke="#000000" stroke-width="2" stroke-opacity="0.200000" d="M272.23,-252.56C283.19,-249.2 293.63,-243.74 301,-235 313.23,-220.5 298.51,-165.81 309,-150 313.88,-142.65 321.25,-137.02 329,-132.77"/>
<polygon fill="#000000" fill-opacity="0.200000" stroke="#000000" stroke-width="2" stroke-opacity="0.200000" points="330,-134.62 334.4,-130.04 328.1,-130.87 330,-134.62"/>
</g>
<!-- src/gathering/IBinderOutput.ts -->
<g id="node13" class="node">
<title>src/gathering/IBinderOutput.ts</title>
<g id="a_node13"><a xlink:href="src/gathering/IBinderOutput.ts" xlink:title="IBinderOutput.ts">
<path fill="#ddfeff" stroke="black" d="M514,-292C514,-292 443,-292 443,-292 440,-292 437,-289 437,-286 437,-286 437,-280 437,-280 437,-277 440,-274 443,-274 443,-274 514,-274 514,-274 517,-274 520,-277 520,-280 520,-280 520,-286 520,-286 520,-289 517,-292 514,-292"/>
<text text-anchor="start" x="445" y="-280.8" font-family="Helvetica,sans-Serif" font-size="9.00">IBinderOutput.ts</text>
</a>
</g>
</g>
<!-- src/gathering/CollectionOrganizer/CollectionOrganizer.ts&#45;&gt;src/gathering/IBinderOutput.ts -->
<g id="edge14" class="edge">
<title>src/gathering/CollectionOrganizer/CollectionOrganizer.ts&#45;&gt;src/gathering/IBinderOutput.ts</title>
<path fill="none" stroke="#000000" stroke-opacity="0.200000" d="M272.3,-257.1C312.68,-257.86 369.63,-260.39 419,-268 426.21,-269.11 433.81,-270.73 441.07,-272.49"/>
<polygon fill="none" stroke="#000000" stroke-opacity="0.200000" points="440.74,-274.57 447.07,-273.99 441.76,-270.5 440.74,-274.57"/>
</g>
<!-- src/gathering/ICollectionOrganizer.ts -->
<g id="node14" class="node">
<title>src/gathering/ICollectionOrganizer.ts</title>
<g id="a_node14"><a xlink:href="src/gathering/ICollectionOrganizer.ts" xlink:title="ICollectionOrganizer.ts">
<path fill="#ddfeff" stroke="black" d="M413,-292C413,-292 315,-292 315,-292 312,-292 309,-289 309,-286 309,-286 309,-280 309,-280 309,-277 312,-274 315,-274 315,-274 413,-274 413,-274 416,-274 419,-277 419,-280 419,-280 419,-286 419,-286 419,-289 416,-292 413,-292"/>
<text text-anchor="start" x="317" y="-280.8" font-family="Helvetica,sans-Serif" font-size="9.00">ICollectionOrganizer.ts</text>
</a>
</g>
</g>
<!-- src/gathering/CollectionOrganizer/CollectionOrganizer.ts&#45;&gt;src/gathering/ICollectionOrganizer.ts -->
<g id="edge15" class="edge">
<title>src/gathering/CollectionOrganizer/CollectionOrganizer.ts&#45;&gt;src/gathering/ICollectionOrganizer.ts</title>
<path fill="none" stroke="#000000" stroke-opacity="0.200000" d="M269.29,-266.02C281.53,-268.24 294.72,-270.63 307.22,-272.89"/>
<polygon fill="none" stroke="#000000" stroke-opacity="0.200000" points="307.02,-274.99 313.3,-274 307.77,-270.86 307.02,-274.99"/>
</g>
<!-- src/gathering/ICollectionOrganizer.ts&#45;&gt;src/gathering/IBinderOutput.ts -->
<g id="edge18" class="edge">
<title>src/gathering/ICollectionOrganizer.ts&#45;&gt;src/gathering/IBinderOutput.ts</title>
<path fill="none" stroke="#000000" stroke-opacity="0.200000" d="M419.27,-283C423.18,-283 427.1,-283 430.96,-283"/>
<polygon fill="none" stroke="#000000" stroke-opacity="0.200000" points="430.96,-285.1 436.96,-283 430.96,-280.9 430.96,-285.1"/>
</g>
<!-- src/gathering/PackRepository/ahdb.packs.json -->
<g id="node15" class="node">
<title>src/gathering/PackRepository/ahdb.packs.json</title>
<g id="a_node15"><a xlink:href="src/gathering/PackRepository/ahdb.packs.json" xlink:title="ahdb.packs.json">
<path fill="#ffee44" stroke="black" d="M255,-56C255,-56 182,-56 182,-56 179,-56 176,-53 176,-50 176,-50 176,-44 176,-44 176,-41 179,-38 182,-38 182,-38 255,-38 255,-38 258,-38 261,-41 261,-44 261,-44 261,-50 261,-50 261,-53 258,-56 255,-56"/>
<text text-anchor="start" x="184" y="-44.8" font-family="Helvetica,sans-Serif" font-size="9.00">ahdb.packs.json</text>
</a>
</g>
</g>
<!-- src/lib/userBrowsesItsCollection/userBrowsesItsCollection.ts -->
<g id="node16" class="node">
<title>src/lib/userBrowsesItsCollection/userBrowsesItsCollection.ts</title>
<g id="a_node16"><a xlink:href="src/lib/userBrowsesItsCollection/userBrowsesItsCollection.ts" xlink:title="userBrowsesItsCollection.ts">
<path fill="#ddfeff" stroke="black" d="M279,-420C279,-420 158,-420 158,-420 155,-420 152,-417 152,-414 152,-414 152,-408 152,-408 152,-405 155,-402 158,-402 158,-402 279,-402 279,-402 282,-402 285,-405 285,-408 285,-408 285,-414 285,-414 285,-417 282,-420 279,-420"/>
<text text-anchor="start" x="160" y="-408.8" font-family="Helvetica,sans-Serif" font-size="9.00">userBrowsesItsCollection.ts</text>
</a>
</g>
</g>
<!-- src/lib/userBrowsesItsCollection/userBrowsesItsCollection.ts&#45;&gt;src/gathering/IBinderOutput.ts -->
<g id="edge21" class="edge">
<title>src/lib/userBrowsesItsCollection/userBrowsesItsCollection.ts&#45;&gt;src/gathering/IBinderOutput.ts</title>
<path fill="none" stroke="#000000" stroke-opacity="0.200000" d="M258.93,-401.94C272.44,-398.42 287.54,-394.02 301,-389 355.57,-368.66 370.08,-363.61 419,-332 435.36,-321.43 452.22,-306.84 463.61,-296.34"/>
<polygon fill="none" stroke="#000000" stroke-opacity="0.200000" points="465.19,-297.74 468.14,-292.11 462.32,-294.67 465.19,-297.74"/>
</g>
<!-- src/lib/userBrowsesItsCollection/userBrowsesItsCollection.ts&#45;&gt;src/gathering/ICollectionOrganizer.ts -->
<g id="edge22" class="edge">
<title>src/lib/userBrowsesItsCollection/userBrowsesItsCollection.ts&#45;&gt;src/gathering/ICollectionOrganizer.ts</title>
<path fill="none" stroke="#000000" stroke-opacity="0.200000" d="M277.81,-401.99C286.2,-398.86 294.26,-394.65 301,-389 307.4,-383.64 305.05,-379.36 309,-372 323.44,-345.1 342.33,-314.95 353.52,-297.55"/>
<polygon fill="none" stroke="#000000" stroke-opacity="0.200000" points="355.5,-298.35 357,-292.17 351.98,-296.07 355.5,-298.35"/>
</g>
<!-- src/lib/userEditsItsCollection/userEditsItsCollection.ts -->
<g id="node17" class="node">
<title>src/lib/userEditsItsCollection/userEditsItsCollection.ts</title>
<g id="a_node17"><a xlink:href="src/lib/userEditsItsCollection/userEditsItsCollection.ts" xlink:title="userEditsItsCollection.ts">
<path fill="#ddfeff" stroke="black" d="M271,-360C271,-360 166,-360 166,-360 163,-360 160,-357 160,-354 160,-354 160,-348 160,-348 160,-345 163,-342 166,-342 166,-342 271,-342 271,-342 274,-342 277,-345 277,-348 277,-348 277,-354 277,-354 277,-357 274,-360 271,-360"/>
<text text-anchor="start" x="168" y="-348.8" font-family="Helvetica,sans-Serif" font-size="9.00">userEditsItsCollection.ts</text>
</a>
</g>
</g>
<!-- src/lib/userEditsItsCollection/userEditsItsCollection.ts&#45;&gt;src/gathering/Collection.ts -->
<g id="edge23" class="edge">
<title>src/lib/userEditsItsCollection/userEditsItsCollection.ts&#45;&gt;src/gathering/Collection.ts</title>
<path fill="none" stroke="#000000" stroke-opacity="0.200000" d="M261.34,-341.93C316.21,-329.72 406.98,-308.35 419,-298 430.01,-288.52 425.54,-281.02 432,-268 443.74,-244.32 459.1,-217.77 468.63,-201.72"/>
<polygon fill="none" stroke="#000000" stroke-opacity="0.200000" points="470.58,-202.54 471.86,-196.31 466.98,-200.38 470.58,-202.54"/>
</g>
<!-- src/lib/userEditsItsCollection/userEditsItsCollection.ts&#45;&gt;src/gathering/ICollectionEditor.ts -->
<g id="edge24" class="edge">
<title>src/lib/userEditsItsCollection/userEditsItsCollection.ts&#45;&gt;src/gathering/ICollectionEditor.ts</title>
<path fill="none" stroke="#000000" stroke-opacity="0.200000" d="M239.89,-341.96C258.44,-332.72 285.26,-316.67 301,-295 308.36,-284.88 301.1,-277.71 309,-268 314.84,-260.82 322.94,-255.18 331.09,-250.85"/>
<polygon fill="none" stroke="#000000" stroke-opacity="0.200000" points="332.28,-252.61 336.72,-248.06 330.41,-248.84 332.28,-252.61"/>
</g>
<!-- src/lib/userEditsItsCollection/userEditsItsCollection.ts&#45;&gt;src/gathering/ICollectionOutput.ts -->
<g id="edge25" class="edge">
<title>src/lib/userEditsItsCollection/userEditsItsCollection.ts&#45;&gt;src/gathering/ICollectionOutput.ts</title>
<path fill="none" stroke="#000000" stroke-opacity="0.200000" d="M242.46,-341.97C261.66,-333.1 287.95,-317.59 301,-295 312.26,-275.51 296.69,-212.85 309,-194 313.68,-186.83 320.76,-181.3 328.26,-177.09"/>
<polygon fill="none" stroke="#000000" stroke-opacity="0.200000" points="329.67,-178.73 334.05,-174.12 327.75,-174.99 329.67,-178.73"/>
</g>
<!-- src/routes/cards/+page.server.ts -->
<g id="node18" class="node">
<title>src/routes/cards/+page.server.ts</title>
<g id="a_node18"><a xlink:href="src/routes/cards/+page.server.ts" xlink:title="+page.server.ts">
<path fill="#ddfeff" stroke="black" d="M106,-50C106,-50 38,-50 38,-50 35,-50 32,-47 32,-44 32,-44 32,-38 32,-38 32,-35 35,-32 38,-32 38,-32 106,-32 106,-32 109,-32 112,-35 112,-38 112,-38 112,-44 112,-44 112,-47 109,-50 106,-50"/>
<text text-anchor="start" x="40" y="-38.8" font-family="Helvetica,sans-Serif" font-size="9.00">+page.server.ts</text>
</a>
</g>
</g>
<!-- src/routes/cards/+page.server.ts&#45;&gt;src/gathering/ahdb.cards.json -->
<g id="edge26" class="edge">
<title>src/routes/cards/+page.server.ts&#45;&gt;src/gathering/ahdb.cards.json</title>
<path fill="none" stroke="#000000" stroke-width="2" stroke-opacity="0.200000" d="M92.32,-31.87C135.5,-12.95 240.8,24.64 301,-27 318.75,-42.23 297.15,-58.84 309,-79 316.29,-91.41 328.78,-101.48 339.91,-108.65"/>
<polygon fill="#000000" fill-opacity="0.200000" stroke="#000000" stroke-width="2" stroke-opacity="0.200000" points="339.03,-110.57 345.23,-111.93 341.23,-106.99 339.03,-110.57"/>
</g>
<!-- src/routes/collection/+page.svelte.ts -->
<g id="node19" class="node">
<title>src/routes/collection/+page.svelte.ts</title>
<g id="a_node19"><a xlink:href="src/routes/collection/+page.svelte.ts" xlink:title="+page.svelte.ts">
<path fill="#ddfeff" stroke="black" d="M105.5,-170C105.5,-170 38.5,-170 38.5,-170 35.5,-170 32.5,-167 32.5,-164 32.5,-164 32.5,-158 32.5,-158 32.5,-155 35.5,-152 38.5,-152 38.5,-152 105.5,-152 105.5,-152 108.5,-152 111.5,-155 111.5,-158 111.5,-158 111.5,-164 111.5,-164 111.5,-167 108.5,-170 105.5,-170"/>
<text text-anchor="start" x="40.5" y="-158.8" font-family="Helvetica,sans-Serif" font-size="9.00">+page.svelte.ts</text>
</a>
</g>
</g>
<!-- src/routes/collection/+page.svelte.ts&#45;&gt;src/lib/userBrowsesItsCollection/userBrowsesItsCollection.ts -->
<g id="edge27" class="edge">
<title>src/routes/collection/+page.svelte.ts&#45;&gt;src/lib/userBrowsesItsCollection/userBrowsesItsCollection.ts</title>
<path fill="none" stroke="#000000" stroke-width="2" stroke-opacity="0.200000" d="M72.56,-170.41C71.47,-204.93 72.51,-325.88 136,-389 140.12,-393.1 144.92,-396.45 150.09,-399.2"/>
<polygon fill="#000000" fill-opacity="0.200000" stroke="#000000" stroke-width="2" stroke-opacity="0.200000" points="149.51,-401.25 155.83,-401.95 151.33,-397.46 149.51,-401.25"/>
</g>
<!-- src/routes/packs/+page.server.ts -->
<g id="node20" class="node">
<title>src/routes/packs/+page.server.ts</title>
<g id="a_node20"><a xlink:href="src/routes/packs/+page.server.ts" xlink:title="+page.server.ts">
<path fill="#ddfeff" stroke="black" d="M106,-110C106,-110 38,-110 38,-110 35,-110 32,-107 32,-104 32,-104 32,-98 32,-98 32,-95 35,-92 38,-92 38,-92 106,-92 106,-92 109,-92 112,-95 112,-98 112,-98 112,-104 112,-104 112,-107 109,-110 106,-110"/>
<text text-anchor="start" x="40" y="-98.8" font-family="Helvetica,sans-Serif" font-size="9.00">+page.server.ts</text>
</a>
</g>
</g>
<!-- src/routes/packs/+page.server.ts&#45;&gt;src/gathering/PackRepository/ahdb.packs.json -->
<g id="edge28" class="edge">
<title>src/routes/packs/+page.server.ts&#45;&gt;src/gathering/PackRepository/ahdb.packs.json</title>
<path fill="none" stroke="#000000" stroke-width="2" stroke-opacity="0.200000" d="M97.19,-91.96C121.98,-82.69 160.61,-68.26 187.38,-58.26"/>
<polygon fill="#000000" fill-opacity="0.200000" stroke="#000000" stroke-width="2" stroke-opacity="0.200000" points="188.35,-60.14 193.24,-56.07 186.88,-56.2 188.35,-60.14"/>
</g>
</g>
</svg>
