<?xml version="1.0" encoding="UTF-8" standalone="no"?>
<!DOCTYPE svg PUBLIC "-//W3C//DTD SVG 1.1//EN"
 "http://www.w3.org/Graphics/SVG/1.1/DTD/svg11.dtd">
<!-- Generated by graphviz version 2.50.0 (20211204.2007)
 -->
<!-- Title: dependency&#45;cruiser output Pages: 1 -->
<svg width="539pt" height="448pt"
 viewBox="0.00 0.00 538.50 448.00" xmlns="http://www.w3.org/2000/svg" xmlns:xlink="http://www.w3.org/1999/xlink">
<g id="graph0" class="graph" transform="scale(1 1) rotate(0) translate(4 444)">
<title>dependency&#45;cruiser output</title>
<polygon fill="white" stroke="transparent" points="-4,4 -4,-444 534.5,-444 534.5,4 -4,4"/>
<g id="clust1" class="cluster">
<title>cluster_src</title>
<path fill="#ffffff" stroke="black" stroke-width="2" d="M20,-8C20,-8 514.5,-8 514.5,-8 520.5,-8 526.5,-14 526.5,-20 526.5,-20 526.5,-420 526.5,-420 526.5,-426 520.5,-432 514.5,-432 514.5,-432 20,-432 20,-432 14,-432 8,-426 8,-420 8,-420 8,-20 8,-20 8,-14 14,-8 20,-8"/>
<text text-anchor="middle" x="267.25" y="-420.8" font-family="Helvetica,sans-Serif" font-weight="bold" font-size="9.00">src</text>
</g>
<g id="clust4" class="cluster">
<title>cluster_src/lib</title>
<path fill="#ffffff" stroke="black" stroke-width="2" d="M173,-16C173,-16 506.5,-16 506.5,-16 512.5,-16 518.5,-22 518.5,-28 518.5,-28 518.5,-300 518.5,-300 518.5,-306 512.5,-312 506.5,-312 506.5,-312 173,-312 173,-312 167,-312 161,-306 161,-300 161,-300 161,-28 161,-28 161,-22 167,-16 173,-16"/>
<text text-anchor="middle" x="339.75" y="-300.8" font-family="Helvetica,sans-Serif" font-weight="bold" font-size="9.00">lib</text>
</g>
<g id="clust5" class="cluster">
<title>cluster_src/lib/BinderStorage</title>
<path fill="#ffffff" stroke="black" stroke-width="2" d="M444.5,-234C444.5,-234 498.5,-234 498.5,-234 504.5,-234 510.5,-240 510.5,-246 510.5,-246 510.5,-274 510.5,-274 510.5,-280 504.5,-286 498.5,-286 498.5,-286 444.5,-286 444.5,-286 438.5,-286 432.5,-280 432.5,-274 432.5,-274 432.5,-246 432.5,-246 432.5,-240 438.5,-234 444.5,-234"/>
<text text-anchor="middle" x="471.5" y="-274.8" font-family="Helvetica,sans-Serif" font-weight="bold" font-size="9.00">BinderStorage</text>
</g>
<g id="clust6" class="cluster">
<title>cluster_src/lib/Components</title>
<path fill="#ffffff" stroke="black" stroke-width="2" d="M183.5,-174C183.5,-174 396.5,-174 396.5,-174 402.5,-174 408.5,-180 408.5,-186 408.5,-186 408.5,-214 408.5,-214 408.5,-220 402.5,-226 396.5,-226 396.5,-226 183.5,-226 183.5,-226 177.5,-226 171.5,-220 171.5,-214 171.5,-214 171.5,-186 171.5,-186 171.5,-180 177.5,-174 183.5,-174"/>
<text text-anchor="middle" x="290" y="-214.8" font-family="Helvetica,sans-Serif" font-weight="bold" font-size="9.00">Components</text>
</g>
<g id="clust8" class="cluster">
<title>cluster_src/lib/ViewModels</title>
<path fill="#ffffff" stroke="black" stroke-width="2" d="M448.5,-174C448.5,-174 494.5,-174 494.5,-174 500.5,-174 506.5,-180 506.5,-186 506.5,-186 506.5,-214 506.5,-214 506.5,-220 500.5,-226 494.5,-226 494.5,-226 448.5,-226 448.5,-226 442.5,-226 436.5,-220 436.5,-214 436.5,-214 436.5,-186 436.5,-186 436.5,-180 442.5,-174 448.5,-174"/>
<text text-anchor="middle" x="471.5" y="-214.8" font-family="Helvetica,sans-Serif" font-weight="bold" font-size="9.00">ViewModels</text>
</g>
<g id="clust9" class="cluster">
<title>cluster_src/lib/server</title>
<path fill="#ffffff" stroke="black" stroke-width="2" d="M181,-24C181,-24 258,-24 258,-24 264,-24 270,-30 270,-36 270,-36 270,-154 270,-154 270,-160 264,-166 258,-166 258,-166 181,-166 181,-166 175,-166 169,-160 169,-154 169,-154 169,-36 169,-36 169,-30 175,-24 181,-24"/>
<text text-anchor="middle" x="219.5" y="-154.8" font-family="Helvetica,sans-Serif" font-weight="bold" font-size="9.00">server</text>
</g>
<g id="clust10" class="cluster">
<title>cluster_src/lib/server/collection</title>
<path fill="#ffffff" stroke="black" stroke-width="2" d="M195.5,-88C195.5,-88 243.5,-88 243.5,-88 249.5,-88 255.5,-94 255.5,-100 255.5,-100 255.5,-128 255.5,-128 255.5,-134 249.5,-140 243.5,-140 243.5,-140 195.5,-140 195.5,-140 189.5,-140 183.5,-134 183.5,-128 183.5,-128 183.5,-100 183.5,-100 183.5,-94 189.5,-88 195.5,-88"/>
<text text-anchor="middle" x="219.5" y="-128.8" font-family="Helvetica,sans-Serif" font-weight="bold" font-size="9.00">collection</text>
</g>
<g id="clust7" class="cluster">
<title>cluster_src/lib/Presenters</title>
<path fill="#ffffff" stroke="black" stroke-width="2" d="M304,-234C304,-234 393,-234 393,-234 399,-234 405,-240 405,-246 405,-246 405,-274 405,-274 405,-280 399,-286 393,-286 393,-286 304,-286 304,-286 298,-286 292,-280 292,-274 292,-274 292,-246 292,-246 292,-240 298,-234 304,-234"/>
<text text-anchor="middle" x="348.5" y="-274.8" font-family="Helvetica,sans-Serif" font-weight="bold" font-size="9.00">Presenters</text>
</g>
<g id="clust2" class="cluster">
<title>cluster_src/app</title>
<path fill="#ffffff" stroke="black" stroke-width="2" d="M28,-320C28,-320 272,-320 272,-320 278,-320 284,-326 284,-332 284,-332 284,-394 284,-394 284,-400 278,-406 272,-406 272,-406 28,-406 28,-406 22,-406 16,-400 16,-394 16,-394 16,-332 16,-332 16,-326 22,-320 28,-320"/>
<text text-anchor="middle" x="150" y="-394.8" font-family="Helvetica,sans-Serif" font-weight="bold" font-size="9.00">app</text>
</g>
<g id="clust3" class="cluster">
<title>cluster_src/app/CollectionEditor</title>
<path fill="#ffffff" stroke="black" stroke-width="2" d="M36,-328C36,-328 264,-328 264,-328 270,-328 276,-334 276,-340 276,-340 276,-368 276,-368 276,-374 270,-380 264,-380 264,-380 36,-380 36,-380 30,-380 24,-374 24,-368 24,-368 24,-340 24,-340 24,-334 30,-328 36,-328"/>
<text text-anchor="middle" x="150" y="-368.8" font-family="Helvetica,sans-Serif" font-weight="bold" font-size="9.00">CollectionEditor</text>
</g>
<g id="clust11" class="cluster">
<title>cluster_src/routes</title>
<path fill="#ffffff" stroke="black" stroke-width="2" d="M37,-100C37,-100 141,-100 141,-100 147,-100 153,-106 153,-112 153,-112 153,-238 153,-238 153,-244 147,-250 141,-250 141,-250 37,-250 37,-250 31,-250 25,-244 25,-238 25,-238 25,-112 25,-112 25,-106 31,-100 37,-100"/>
<text text-anchor="middle" x="89" y="-238.8" font-family="Helvetica,sans-Serif" font-weight="bold" font-size="9.00">routes</text>
</g>
<g id="clust12" class="cluster">
<title>cluster_src/routes/collection</title>
<path fill="#ffffff" stroke="black" stroke-width="2" d="M45,-108C45,-108 133,-108 133,-108 139,-108 145,-114 145,-120 145,-120 145,-212 145,-212 145,-218 139,-224 133,-224 133,-224 45,-224 45,-224 39,-224 33,-218 33,-212 33,-212 33,-120 33,-120 33,-114 39,-108 45,-108"/>
<text text-anchor="middle" x="89" y="-212.8" font-family="Helvetica,sans-Serif" font-weight="bold" font-size="9.00">collection</text>
</g>
<g id="clust13" class="cluster">
<title>cluster_src/routes/collection/couz</title>
<path fill="#ffffff" stroke="black" stroke-width="2" d="M53,-116C53,-116 125,-116 125,-116 131,-116 137,-122 137,-128 137,-128 137,-186 137,-186 137,-192 131,-198 125,-198 125,-198 53,-198 53,-198 47,-198 41,-192 41,-186 41,-186 41,-128 41,-128 41,-122 47,-116 53,-116"/>
<text text-anchor="middle" x="89" y="-186.8" font-family="Helvetica,sans-Serif" font-weight="bold" font-size="9.00">couz</text>
</g>
<!-- src/app.d.ts -->
<g id="node1" class="node">
<title>src/app.d.ts</title>
<g id="a_node1"><a xlink:href="src/app.d.ts" xlink:title="app.d.ts">
<path fill="#ccffcc" stroke="black" d="M110,-77C110,-77 68,-77 68,-77 65,-77 62,-74 62,-71 62,-71 62,-65 62,-65 62,-62 65,-59 68,-59 68,-59 110,-59 110,-59 113,-59 116,-62 116,-65 116,-65 116,-71 116,-71 116,-74 113,-77 110,-77"/>
<text text-anchor="start" x="72" y="-65.8" font-family="Helvetica,sans-Serif" font-size="9.00">app.d.ts</text>
</a>
</g>
</g>
<!-- src/app/CollectionEditor/addRemovePack.test.ts -->
<g id="node2" class="node">
<title>src/app/CollectionEditor/addRemovePack.test.ts</title>
<g id="a_node2"><a xlink:href="src/app/CollectionEditor/addRemovePack.test.ts" xlink:title="addRemovePack.test.ts">
<path fill="#ddfeff" stroke="black" d="M140,-354C140,-354 38,-354 38,-354 35,-354 32,-351 32,-348 32,-348 32,-342 32,-342 32,-339 35,-336 38,-336 38,-336 140,-336 140,-336 143,-336 146,-339 146,-342 146,-342 146,-348 146,-348 146,-351 143,-354 140,-354"/>
<text text-anchor="start" x="40" y="-342.8" font-family="Helvetica,sans-Serif" font-size="9.00">addRemovePack.test.ts</text>
</a>
</g>
</g>
<!-- src/app/CollectionEditor/addRemovePack.ts -->
<g id="node3" class="node">
<title>src/app/CollectionEditor/addRemovePack.ts</title>
<g id="a_node3"><a xlink:href="src/app/CollectionEditor/addRemovePack.ts" xlink:title="addRemovePack.ts">
<path fill="#ddfeff" stroke="black" d="M262,-354C262,-354 177,-354 177,-354 174,-354 171,-351 171,-348 171,-348 171,-342 171,-342 171,-339 174,-336 177,-336 177,-336 262,-336 262,-336 265,-336 268,-339 268,-342 268,-342 268,-348 268,-348 268,-351 265,-354 262,-354"/>
<text text-anchor="start" x="179" y="-342.8" font-family="Helvetica,sans-Serif" font-size="9.00">addRemovePack.ts</text>
</a>
</g>
</g>
<!-- src/app/CollectionEditor/addRemovePack.test.ts&#45;&gt;src/app/CollectionEditor/addRemovePack.ts -->
<g id="edge1" class="edge">
<title>src/app/CollectionEditor/addRemovePack.test.ts&#45;&gt;src/app/CollectionEditor/addRemovePack.ts</title>
<path fill="none" stroke="#000000" stroke-width="2" stroke-opacity="0.200000" d="M146.36,-345C152.3,-345 158.34,-345 164.26,-345"/>
<polygon fill="#000000" fill-opacity="0.200000" stroke="#000000" stroke-width="2" stroke-opacity="0.200000" points="164.62,-347.1 170.62,-345 164.62,-342.9 164.62,-347.1"/>
</g>
<!-- src/lib/BinderStorage/index.ts -->
<g id="node4" class="node">
<title>src/lib/BinderStorage/index.ts</title>
<g id="a_node4"><a xlink:href="src/lib/BinderStorage/index.ts" xlink:title="index.ts">
<path fill="#ddfeff" stroke="black" d="M492.5,-260C492.5,-260 450.5,-260 450.5,-260 447.5,-260 444.5,-257 444.5,-254 444.5,-254 444.5,-248 444.5,-248 444.5,-245 447.5,-242 450.5,-242 450.5,-242 492.5,-242 492.5,-242 495.5,-242 498.5,-245 498.5,-248 498.5,-248 498.5,-254 498.5,-254 498.5,-257 495.5,-260 492.5,-260"/>
<text text-anchor="start" x="455.5" y="-248.8" font-family="Helvetica,sans-Serif" font-size="9.00">index.ts</text>
</a>
</g>
</g>
<!-- src/lib/Components/Binder.svelte.ts -->
<g id="node5" class="node">
<title>src/lib/Components/Binder.svelte.ts</title>
<g id="a_node5"><a xlink:href="src/lib/Components/Binder.svelte.ts" xlink:title="Binder.svelte.ts">
<path fill="#ddfeff" stroke="black" d="M253.5,-200C253.5,-200 185.5,-200 185.5,-200 182.5,-200 179.5,-197 179.5,-194 179.5,-194 179.5,-188 179.5,-188 179.5,-185 182.5,-182 185.5,-182 185.5,-182 253.5,-182 253.5,-182 256.5,-182 259.5,-185 259.5,-188 259.5,-188 259.5,-194 259.5,-194 259.5,-197 256.5,-200 253.5,-200"/>
<text text-anchor="start" x="187.5" y="-188.8" font-family="Helvetica,sans-Serif" font-size="9.00">Binder.svelte.ts</text>
</a>
</g>
</g>
<!-- src/lib/Components/PocketSheet.svelte.ts -->
<g id="node6" class="node">
<title>src/lib/Components/PocketSheet.svelte.ts</title>
<g id="a_node6"><a xlink:href="src/lib/Components/PocketSheet.svelte.ts" xlink:title="PocketSheet.svelte.ts">
<path fill="#ddfeff" stroke="black" d="M394.5,-200C394.5,-200 302.5,-200 302.5,-200 299.5,-200 296.5,-197 296.5,-194 296.5,-194 296.5,-188 296.5,-188 296.5,-185 299.5,-182 302.5,-182 302.5,-182 394.5,-182 394.5,-182 397.5,-182 400.5,-185 400.5,-188 400.5,-188 400.5,-194 400.5,-194 400.5,-197 397.5,-200 394.5,-200"/>
<text text-anchor="start" x="304.5" y="-188.8" font-family="Helvetica,sans-Serif" font-size="9.00">PocketSheet.svelte.ts</text>
</a>
</g>
</g>
<!-- src/lib/Components/Binder.svelte.ts&#45;&gt;src/lib/Components/PocketSheet.svelte.ts -->
<g id="edge2" class="edge">
<title>src/lib/Components/Binder.svelte.ts&#45;&gt;src/lib/Components/PocketSheet.svelte.ts</title>
<path fill="none" stroke="#000000" stroke-width="2" stroke-opacity="0.200000" d="M259.64,-191C269.27,-191 279.77,-191 290.06,-191"/>
<polygon fill="#000000" fill-opacity="0.200000" stroke="#000000" stroke-width="2" stroke-opacity="0.200000" points="290.09,-193.1 296.09,-191 290.09,-188.9 290.09,-193.1"/>
</g>
<!-- src/lib/ViewModels/binder.ts -->
<g id="node7" class="node">
<title>src/lib/ViewModels/binder.ts</title>
<g id="a_node7"><a xlink:href="src/lib/ViewModels/binder.ts" xlink:title="binder.ts">
<path fill="#ddfeff" stroke="black" d="M492.5,-200C492.5,-200 450.5,-200 450.5,-200 447.5,-200 444.5,-197 444.5,-194 444.5,-194 444.5,-188 444.5,-188 444.5,-185 447.5,-182 450.5,-182 450.5,-182 492.5,-182 492.5,-182 495.5,-182 498.5,-185 498.5,-188 498.5,-188 498.5,-194 498.5,-194 498.5,-197 495.5,-200 492.5,-200"/>
<text text-anchor="start" x="453" y="-188.8" font-family="Helvetica,sans-Serif" font-size="9.00">binder.ts</text>
</a>
</g>
</g>
<!-- src/lib/Components/Binder.svelte.ts&#45;&gt;src/lib/ViewModels/binder.ts -->
<g id="edge3" class="edge">
<title>src/lib/Components/Binder.svelte.ts&#45;&gt;src/lib/ViewModels/binder.ts</title>
<path fill="none" stroke="#000000" stroke-opacity="0.200000" d="M256.28,-200.02C267.62,-202.47 280.27,-204.78 292,-206 343.5,-211.34 357.09,-212.13 408.5,-206 418.24,-204.84 428.67,-202.68 438.13,-200.36"/>
<polygon fill="none" stroke="#000000" stroke-opacity="0.200000" points="438.9,-202.34 444.2,-198.82 437.87,-198.26 438.9,-202.34"/>
</g>
<!-- src/lib/Components/PocketSheet.svelte.ts&#45;&gt;src/lib/ViewModels/binder.ts -->
<g id="edge4" class="edge">
<title>src/lib/Components/PocketSheet.svelte.ts&#45;&gt;src/lib/ViewModels/binder.ts</title>
<path fill="none" stroke="#000000" stroke-opacity="0.200000" d="M400.81,-191C413.42,-191 426.58,-191 438.02,-191"/>
<polygon fill="none" stroke="#000000" stroke-opacity="0.200000" points="438.18,-193.1 444.18,-191 438.18,-188.9 438.18,-193.1"/>
</g>
<!-- src/lib/Presenters/BinderOutputPort.ts -->
<g id="node8" class="node">
<title>src/lib/Presenters/BinderOutputPort.ts</title>
<g id="a_node8"><a xlink:href="src/lib/Presenters/BinderOutputPort.ts" xlink:title="BinderOutputPort.ts">
<path fill="#ddfeff" stroke="black" d="M391,-260C391,-260 306,-260 306,-260 303,-260 300,-257 300,-254 300,-254 300,-248 300,-248 300,-245 303,-242 306,-242 306,-242 391,-242 391,-242 394,-242 397,-245 397,-248 397,-248 397,-254 397,-254 397,-257 394,-260 391,-260"/>
<text text-anchor="start" x="308" y="-248.8" font-family="Helvetica,sans-Serif" font-size="9.00">BinderOutputPort.ts</text>
</a>
</g>
</g>
<!-- src/lib/Presenters/BinderOutputPort.ts&#45;&gt;src/lib/BinderStorage/index.ts -->
<g id="edge5" class="edge">
<title>src/lib/Presenters/BinderOutputPort.ts&#45;&gt;src/lib/BinderStorage/index.ts</title>
<path fill="none" stroke="#000000" stroke-opacity="0.200000" d="M397.32,-251C410.94,-251 425.45,-251 437.92,-251"/>
<polygon fill="none" stroke="#000000" stroke-opacity="0.200000" points="438.25,-253.1 444.25,-251 438.25,-248.9 438.25,-253.1"/>
</g>
<!-- src/lib/Presenters/BinderOutputPort.ts&#45;&gt;src/lib/ViewModels/binder.ts -->
<g id="edge6" class="edge">
<title>src/lib/Presenters/BinderOutputPort.ts&#45;&gt;src/lib/ViewModels/binder.ts</title>
<path fill="none" stroke="#000000" stroke-opacity="0.200000" d="M376.98,-242C387.07,-238.37 398.48,-233.88 408.5,-229 423.66,-221.62 439.87,-211.59 451.92,-203.7"/>
<polygon fill="none" stroke="#000000" stroke-opacity="0.200000" points="453.3,-205.3 457.14,-200.23 450.98,-201.8 453.3,-205.3"/>
</g>
<!-- src/lib/server/ahdb.cards.json -->
<g id="node9" class="node">
<title>src/lib/server/ahdb.cards.json</title>
<g id="a_node9"><a xlink:href="src/lib/server/ahdb.cards.json" xlink:title="ahdb.cards.json">
<path fill="#ffee44" stroke="black" d="M255,-80C255,-80 184,-80 184,-80 181,-80 178,-77 178,-74 178,-74 178,-68 178,-68 178,-65 181,-62 184,-62 184,-62 255,-62 255,-62 258,-62 261,-65 261,-68 261,-68 261,-74 261,-74 261,-77 258,-80 255,-80"/>
<text text-anchor="start" x="186" y="-68.8" font-family="Helvetica,sans-Serif" font-size="9.00">ahdb.cards.json</text>
</a>
</g>
</g>
<!-- src/lib/server/ahdb.packs.json -->
<g id="node10" class="node">
<title>src/lib/server/ahdb.packs.json</title>
<g id="a_node10"><a xlink:href="src/lib/server/ahdb.packs.json" xlink:title="ahdb.packs.json">
<path fill="#ffee44" stroke="black" d="M256,-50C256,-50 183,-50 183,-50 180,-50 177,-47 177,-44 177,-44 177,-38 177,-38 177,-35 180,-32 183,-32 183,-32 256,-32 256,-32 259,-32 262,-35 262,-38 262,-38 262,-44 262,-44 262,-47 259,-50 256,-50"/>
<text text-anchor="start" x="185" y="-38.8" font-family="Helvetica,sans-Serif" font-size="9.00">ahdb.packs.json</text>
</a>
</g>
</g>
<!-- src/lib/server/collection/couz.json -->
<g id="node11" class="node">
<title>src/lib/server/collection/couz.json</title>
<g id="a_node11"><a xlink:href="src/lib/server/collection/couz.json" xlink:title="couz.json">
<path fill="#ffee44" stroke="black" d="M241.5,-114C241.5,-114 197.5,-114 197.5,-114 194.5,-114 191.5,-111 191.5,-108 191.5,-108 191.5,-102 191.5,-102 191.5,-99 194.5,-96 197.5,-96 197.5,-96 241.5,-96 241.5,-96 244.5,-96 247.5,-99 247.5,-102 247.5,-102 247.5,-108 247.5,-108 247.5,-111 244.5,-114 241.5,-114"/>
<text text-anchor="start" x="199.5" y="-102.8" font-family="Helvetica,sans-Serif" font-size="9.00">couz.json</text>
</a>
</g>
</g>
<!-- src/routes/collection/couz/+page.server.ts -->
<g id="node12" class="node">
<title>src/routes/collection/couz/+page.server.ts</title>
<g id="a_node12"><a xlink:href="src/routes/collection/couz/+page.server.ts" xlink:title="+page.server.ts">
<path fill="#ddfeff" stroke="black" d="M123,-142C123,-142 55,-142 55,-142 52,-142 49,-139 49,-136 49,-136 49,-130 49,-130 49,-127 52,-124 55,-124 55,-124 123,-124 123,-124 126,-124 129,-127 129,-130 129,-130 129,-136 129,-136 129,-139 126,-142 123,-142"/>
<text text-anchor="start" x="57" y="-130.8" font-family="Helvetica,sans-Serif" font-size="9.00">+page.server.ts</text>
</a>
</g>
</g>
<!-- src/routes/collection/couz/+page.server.ts&#45;&gt;src/lib/BinderStorage/index.ts -->
<g id="edge7" class="edge">
<title>src/routes/collection/couz/+page.server.ts&#45;&gt;src/lib/BinderStorage/index.ts</title>
<path fill="none" stroke="#000000" stroke-opacity="0.200000" d="M129.02,-134.66C138.08,-136.92 146.86,-140.97 153,-148 164.9,-161.63 150.49,-214.28 161,-229 198.2,-281.12 229.43,-275.35 292,-289 342.59,-300.03 358.67,-303.06 408.5,-289 425.94,-284.08 443.31,-272.74 455.21,-263.72"/>
<polygon fill="none" stroke="#000000" stroke-opacity="0.200000" points="456.51,-265.36 459.95,-260.02 453.93,-262.05 456.51,-265.36"/>
</g>
<!-- src/routes/collection/couz/+page.server.ts&#45;&gt;src/lib/server/ahdb.cards.json -->
<g id="edge8" class="edge">
<title>src/routes/collection/couz/+page.server.ts&#45;&gt;src/lib/server/ahdb.cards.json</title>
<path fill="none" stroke="#000000" stroke-width="2" stroke-opacity="0.200000" d="M129.01,-131.95C137.86,-129.95 146.54,-126.33 153,-120 164.4,-108.84 149.8,-96.36 161,-85 164.17,-81.78 167.96,-79.25 172.04,-77.28"/>
<polygon fill="#000000" fill-opacity="0.200000" stroke="#000000" stroke-width="2" stroke-opacity="0.200000" points="173.03,-79.14 177.77,-74.91 171.43,-75.26 173.03,-79.14"/>
</g>
<!-- src/routes/collection/couz/+page.server.ts&#45;&gt;src/lib/server/ahdb.packs.json -->
<g id="edge9" class="edge">
<title>src/routes/collection/couz/+page.server.ts&#45;&gt;src/lib/server/ahdb.packs.json</title>
<path fill="none" stroke="#000000" stroke-width="2" stroke-opacity="0.200000" d="M129.14,-132.47C138.09,-130.48 146.79,-126.73 153,-120 172.45,-98.94 142.1,-77.55 161,-56 163.9,-52.69 167.43,-50.07 171.29,-48"/>
<polygon fill="#000000" fill-opacity="0.200000" stroke="#000000" stroke-width="2" stroke-opacity="0.200000" points="172.17,-49.91 176.75,-45.5 170.42,-46.09 172.17,-49.91"/>
</g>
<!-- src/routes/collection/couz/+page.server.ts&#45;&gt;src/lib/server/collection/couz.json -->
<g id="edge10" class="edge">
<title>src/routes/collection/couz/+page.server.ts&#45;&gt;src/lib/server/collection/couz.json</title>
<path fill="none" stroke="#000000" stroke-width="2" stroke-opacity="0.200000" d="M129.01,-125.09C136.96,-123.44 145.25,-121.69 153,-120 163.58,-117.7 175.09,-115.09 185.47,-112.71"/>
<polygon fill="#000000" fill-opacity="0.200000" stroke="#000000" stroke-width="2" stroke-opacity="0.200000" points="186.07,-114.73 191.44,-111.33 185.12,-110.64 186.07,-114.73"/>
</g>
<!-- src/routes/collection/couz/+page.svelte.ts -->
<g id="node13" class="node">
<title>src/routes/collection/couz/+page.svelte.ts</title>
<g id="a_node13"><a xlink:href="src/routes/collection/couz/+page.svelte.ts" xlink:title="+page.svelte.ts">
<path fill="#ddfeff" stroke="black" d="M122.5,-172C122.5,-172 55.5,-172 55.5,-172 52.5,-172 49.5,-169 49.5,-166 49.5,-166 49.5,-160 49.5,-160 49.5,-157 52.5,-154 55.5,-154 55.5,-154 122.5,-154 122.5,-154 125.5,-154 128.5,-157 128.5,-160 128.5,-160 128.5,-166 128.5,-166 128.5,-169 125.5,-172 122.5,-172"/>
<text text-anchor="start" x="57.5" y="-160.8" font-family="Helvetica,sans-Serif" font-size="9.00">+page.svelte.ts</text>
</a>
</g>
</g>
<!-- src/routes/collection/couz/+page.svelte.ts&#45;&gt;src/lib/Components/Binder.svelte.ts -->
<g id="edge11" class="edge">
<title>src/routes/collection/couz/+page.svelte.ts&#45;&gt;src/lib/Components/Binder.svelte.ts</title>
<path fill="none" stroke="#000000" stroke-width="2" stroke-opacity="0.200000" d="M128.55,-171.4C142.53,-174.45 158.44,-177.91 172.96,-181.08"/>
<polygon fill="#000000" fill-opacity="0.200000" stroke="#000000" stroke-width="2" stroke-opacity="0.200000" points="172.77,-183.19 179.08,-182.41 173.67,-179.08 172.77,-183.19"/>
</g>
<!-- src/routes/collection/couz/+page.svelte.ts&#45;&gt;src/lib/Presenters/BinderOutputPort.ts -->
<g id="edge12" class="edge">
<title>src/routes/collection/couz/+page.svelte.ts&#45;&gt;src/lib/Presenters/BinderOutputPort.ts</title>
<path fill="none" stroke="#000000" stroke-width="2" stroke-opacity="0.200000" d="M96.65,-172.16C107.98,-186.97 132.59,-215.86 161,-229 202.71,-248.29 255.03,-253.01 293.63,-253.35"/>
<polygon fill="#000000" fill-opacity="0.200000" stroke="#000000" stroke-width="2" stroke-opacity="0.200000" points="293.7,-255.45 299.71,-253.37 293.71,-251.25 293.7,-255.45"/>
</g>
</g>
</svg>
