<?xml version="1.0" encoding="UTF-8" standalone="no"?>
<!DOCTYPE svg PUBLIC "-//W3C//DTD SVG 1.1//EN"
 "http://www.w3.org/Graphics/SVG/1.1/DTD/svg11.dtd">
<!-- Generated by graphviz version 2.50.0 (20211204.2007)
 -->
<!-- Title: dependency&#45;cruiser output Pages: 1 -->
<svg width="545pt" height="950pt"
 viewBox="0.00 0.00 544.50 950.00" xmlns="http://www.w3.org/2000/svg" xmlns:xlink="http://www.w3.org/1999/xlink">
<g id="graph0" class="graph" transform="scale(1 1) rotate(0) translate(4 946)">
<title>dependency&#45;cruiser output</title>
<polygon fill="white" stroke="transparent" points="-4,4 -4,-946 540.5,-946 540.5,4 -4,4"/>
<g id="clust1" class="cluster">
<title>cluster_src</title>
<path fill="#ffffff" stroke="black" stroke-width="2" d="M20,-8C20,-8 520.5,-8 520.5,-8 526.5,-8 532.5,-14 532.5,-20 532.5,-20 532.5,-922 532.5,-922 532.5,-928 526.5,-934 520.5,-934 520.5,-934 20,-934 20,-934 14,-934 8,-928 8,-922 8,-922 8,-20 8,-20 8,-14 14,-8 20,-8"/>
<text text-anchor="middle" x="270.25" y="-922.8" font-family="Helvetica,sans-Serif" font-weight="bold" font-size="9.00">src</text>
</g>
<g id="clust2" class="cluster">
<title>cluster_src/lib</title>
<path fill="#ffffff" stroke="black" stroke-width="2" d="M286,-676C286,-676 512.5,-676 512.5,-676 518.5,-676 524.5,-682 524.5,-688 524.5,-688 524.5,-896 524.5,-896 524.5,-902 518.5,-908 512.5,-908 512.5,-908 286,-908 286,-908 280,-908 274,-902 274,-896 274,-896 274,-688 274,-688 274,-682 280,-676 286,-676"/>
<text text-anchor="middle" x="399.25" y="-896.8" font-family="Helvetica,sans-Serif" font-weight="bold" font-size="9.00">lib</text>
</g>
<g id="clust5" class="cluster">
<title>cluster_src/lib/server</title>
<path fill="#ffffff" stroke="black" stroke-width="2" d="M300,-684C300,-684 377,-684 377,-684 383,-684 389,-690 389,-696 389,-696 389,-810 389,-810 389,-816 383,-822 377,-822 377,-822 300,-822 300,-822 294,-822 288,-816 288,-810 288,-810 288,-696 288,-696 288,-690 294,-684 300,-684"/>
<text text-anchor="middle" x="338.5" y="-810.8" font-family="Helvetica,sans-Serif" font-weight="bold" font-size="9.00">server</text>
</g>
<g id="clust6" class="cluster">
<title>cluster_src/lib/server/collection</title>
<path fill="#ffffff" stroke="black" stroke-width="2" d="M314.5,-718C314.5,-718 362.5,-718 362.5,-718 368.5,-718 374.5,-724 374.5,-730 374.5,-730 374.5,-758 374.5,-758 374.5,-764 368.5,-770 362.5,-770 362.5,-770 314.5,-770 314.5,-770 308.5,-770 302.5,-764 302.5,-758 302.5,-758 302.5,-730 302.5,-730 302.5,-724 308.5,-718 314.5,-718"/>
<text text-anchor="middle" x="338.5" y="-758.8" font-family="Helvetica,sans-Serif" font-weight="bold" font-size="9.00">collection</text>
</g>
<g id="clust3" class="cluster">
<title>cluster_src/lib/BinderStorage</title>
<path fill="#ffffff" stroke="black" stroke-width="2" d="M450.5,-727C450.5,-727 504.5,-727 504.5,-727 510.5,-727 516.5,-733 516.5,-739 516.5,-739 516.5,-767 516.5,-767 516.5,-773 510.5,-779 504.5,-779 504.5,-779 450.5,-779 450.5,-779 444.5,-779 438.5,-773 438.5,-767 438.5,-767 438.5,-739 438.5,-739 438.5,-733 444.5,-727 450.5,-727"/>
<text text-anchor="middle" x="477.5" y="-767.8" font-family="Helvetica,sans-Serif" font-weight="bold" font-size="9.00">BinderStorage</text>
</g>
<g id="clust4" class="cluster">
<title>cluster_src/lib/Presenters</title>
<path fill="#ffffff" stroke="black" stroke-width="2" d="M294,-830C294,-830 500.5,-830 500.5,-830 506.5,-830 512.5,-836 512.5,-842 512.5,-842 512.5,-870 512.5,-870 512.5,-876 506.5,-882 500.5,-882 500.5,-882 294,-882 294,-882 288,-882 282,-876 282,-870 282,-870 282,-842 282,-842 282,-836 288,-830 294,-830"/>
<text text-anchor="middle" x="397.25" y="-870.8" font-family="Helvetica,sans-Serif" font-weight="bold" font-size="9.00">Presenters</text>
</g>
<g id="clust7" class="cluster">
<title>cluster_src/routes</title>
<path fill="#ffffff" stroke="black" stroke-width="2" d="M28,-72C28,-72 402.5,-72 402.5,-72 408.5,-72 414.5,-78 414.5,-84 414.5,-84 414.5,-656 414.5,-656 414.5,-662 408.5,-668 402.5,-668 402.5,-668 28,-668 28,-668 22,-668 16,-662 16,-656 16,-656 16,-84 16,-84 16,-78 22,-72 28,-72"/>
<text text-anchor="middle" x="215.25" y="-656.8" font-family="Helvetica,sans-Serif" font-weight="bold" font-size="9.00">routes</text>
</g>
<g id="clust8" class="cluster">
<title>cluster_src/routes/cards</title>
<path fill="#ffffff" stroke="black" stroke-width="2" d="M44,-470C44,-470 116,-470 116,-470 122,-470 128,-476 128,-482 128,-482 128,-540 128,-540 128,-546 122,-552 116,-552 116,-552 44,-552 44,-552 38,-552 32,-546 32,-540 32,-540 32,-482 32,-482 32,-476 38,-470 44,-470"/>
<text text-anchor="middle" x="80" y="-540.8" font-family="Helvetica,sans-Serif" font-weight="bold" font-size="9.00">cards</text>
</g>
<g id="clust9" class="cluster">
<title>cluster_src/routes/collection</title>
<path fill="#ffffff" stroke="black" stroke-width="2" d="M36,-346C36,-346 394.5,-346 394.5,-346 400.5,-346 406.5,-352 406.5,-358 406.5,-358 406.5,-450 406.5,-450 406.5,-456 400.5,-462 394.5,-462 394.5,-462 36,-462 36,-462 30,-462 24,-456 24,-450 24,-450 24,-358 24,-358 24,-352 30,-346 36,-346"/>
<text text-anchor="middle" x="215.25" y="-450.8" font-family="Helvetica,sans-Serif" font-weight="bold" font-size="9.00">collection</text>
</g>
<g id="clust10" class="cluster">
<title>cluster_src/routes/collection/couz</title>
<path fill="#ffffff" stroke="black" stroke-width="2" d="M44,-354C44,-354 386.5,-354 386.5,-354 392.5,-354 398.5,-360 398.5,-366 398.5,-366 398.5,-424 398.5,-424 398.5,-430 392.5,-436 386.5,-436 386.5,-436 44,-436 44,-436 38,-436 32,-430 32,-424 32,-424 32,-366 32,-366 32,-360 38,-354 44,-354"/>
<text text-anchor="middle" x="215.25" y="-424.8" font-family="Helvetica,sans-Serif" font-weight="bold" font-size="9.00">couz</text>
</g>
<g id="clust11" class="cluster">
<title>cluster_src/routes/icons</title>
<path fill="#ffffff" stroke="black" stroke-width="2" d="M44.5,-136C44.5,-136 254,-136 254,-136 260,-136 266,-142 266,-148 266,-148 266,-326 266,-326 266,-332 260,-338 254,-338 254,-338 44.5,-338 44.5,-338 38.5,-338 32.5,-332 32.5,-326 32.5,-326 32.5,-148 32.5,-148 32.5,-142 38.5,-136 44.5,-136"/>
<text text-anchor="middle" x="149.25" y="-326.8" font-family="Helvetica,sans-Serif" font-weight="bold" font-size="9.00">icons</text>
</g>
<g id="clust12" class="cluster">
<title>cluster_src/routes/packs</title>
<path fill="#ffffff" stroke="black" stroke-width="2" d="M44,-560C44,-560 116,-560 116,-560 122,-560 128,-566 128,-572 128,-572 128,-630 128,-630 128,-636 122,-642 116,-642 116,-642 44,-642 44,-642 38,-642 32,-636 32,-630 32,-630 32,-572 32,-572 32,-566 38,-560 44,-560"/>
<text text-anchor="middle" x="80" y="-630.8" font-family="Helvetica,sans-Serif" font-weight="bold" font-size="9.00">packs</text>
</g>
<!-- src/app.d.ts -->
<g id="node1" class="node">
<title>src/app.d.ts</title>
<g id="a_node1"><a xlink:href="src/app.d.ts" xlink:title="app.d.ts">
<path fill="#ccffcc" stroke="black" d="M101,-64C101,-64 59,-64 59,-64 56,-64 53,-61 53,-58 53,-58 53,-52 53,-52 53,-49 56,-46 59,-46 59,-46 101,-46 101,-46 104,-46 107,-49 107,-52 107,-52 107,-58 107,-58 107,-61 104,-64 101,-64"/>
<text text-anchor="start" x="63" y="-52.8" font-family="Helvetica,sans-Serif" font-size="9.00">app.d.ts</text>
</a>
</g>
</g>
<!-- src/index.test.ts -->
<g id="node2" class="node">
<title>src/index.test.ts</title>
<g id="a_node2"><a xlink:href="src/index.test.ts" xlink:title="no&#45;orphans">
<path fill="#ccffcc" stroke="orange" d="M106.5,-34C106.5,-34 53.5,-34 53.5,-34 50.5,-34 47.5,-31 47.5,-28 47.5,-28 47.5,-22 47.5,-22 47.5,-19 50.5,-16 53.5,-16 53.5,-16 106.5,-16 106.5,-16 109.5,-16 112.5,-19 112.5,-22 112.5,-22 112.5,-28 112.5,-28 112.5,-31 109.5,-34 106.5,-34"/>
<text text-anchor="start" x="55.5" y="-22.8" font-family="Helvetica,sans-Serif" font-size="9.00" fill="orange">index.test.ts</text>
</a>
</g>
</g>
<!-- src/lib/BinderStorage/index.ts -->
<g id="node3" class="node">
<title>src/lib/BinderStorage/index.ts</title>
<g id="a_node3"><a xlink:href="src/lib/BinderStorage/index.ts" xlink:title="index.ts">
<path fill="#ddfeff" stroke="black" d="M498.5,-753C498.5,-753 456.5,-753 456.5,-753 453.5,-753 450.5,-750 450.5,-747 450.5,-747 450.5,-741 450.5,-741 450.5,-738 453.5,-735 456.5,-735 456.5,-735 498.5,-735 498.5,-735 501.5,-735 504.5,-738 504.5,-741 504.5,-741 504.5,-747 504.5,-747 504.5,-750 501.5,-753 498.5,-753"/>
<text text-anchor="start" x="461.5" y="-741.8" font-family="Helvetica,sans-Serif" font-size="9.00">index.ts</text>
</a>
</g>
</g>
<!-- src/lib/Presenters/BinderOutputPort.ts -->
<g id="node4" class="node">
<title>src/lib/Presenters/BinderOutputPort.ts</title>
<g id="a_node4"><a xlink:href="src/lib/Presenters/BinderOutputPort.ts" xlink:title="BinderOutputPort.ts">
<path fill="#ddfeff" stroke="black" d="M381,-856C381,-856 296,-856 296,-856 293,-856 290,-853 290,-850 290,-850 290,-844 290,-844 290,-841 293,-838 296,-838 296,-838 381,-838 381,-838 384,-838 387,-841 387,-844 387,-844 387,-850 387,-850 387,-853 384,-856 381,-856"/>
<text text-anchor="start" x="298" y="-844.8" font-family="Helvetica,sans-Serif" font-size="9.00">BinderOutputPort.ts</text>
</a>
</g>
</g>
<!-- src/lib/Presenters/BinderOutputPort.ts&#45;&gt;src/lib/BinderStorage/index.ts -->
<g id="edge2" class="edge">
<title>src/lib/Presenters/BinderOutputPort.ts&#45;&gt;src/lib/BinderStorage/index.ts</title>
<path fill="none" stroke="#000000" stroke-opacity="0.200000" d="M387.16,-837.94C396.72,-834.8 406.33,-830.6 414.5,-825 439.69,-807.72 459.08,-776.95 469.05,-758.71"/>
<polygon fill="none" stroke="#000000" stroke-opacity="0.200000" points="471.1,-759.33 472.07,-753.05 467.4,-757.36 471.1,-759.33"/>
</g>
<!-- src/lib/Presenters/binder.ts -->
<g id="node5" class="node">
<title>src/lib/Presenters/binder.ts</title>
<g id="a_node5"><a xlink:href="src/lib/Presenters/binder.ts" xlink:title="binder.ts">
<path fill="#ddfeff" stroke="black" d="M498.5,-856C498.5,-856 456.5,-856 456.5,-856 453.5,-856 450.5,-853 450.5,-850 450.5,-850 450.5,-844 450.5,-844 450.5,-841 453.5,-838 456.5,-838 456.5,-838 498.5,-838 498.5,-838 501.5,-838 504.5,-841 504.5,-844 504.5,-844 504.5,-850 504.5,-850 504.5,-853 501.5,-856 498.5,-856"/>
<text text-anchor="start" x="459" y="-844.8" font-family="Helvetica,sans-Serif" font-size="9.00">binder.ts</text>
</a>
</g>
</g>
<!-- src/lib/Presenters/BinderOutputPort.ts&#45;&gt;src/lib/Presenters/binder.ts -->
<g id="edge1" class="edge">
<title>src/lib/Presenters/BinderOutputPort.ts&#45;&gt;src/lib/Presenters/binder.ts</title>
<path fill="none" stroke="#000000" stroke-opacity="0.200000" d="M387.03,-847C405.89,-847 427.1,-847 444.13,-847"/>
<polygon fill="none" stroke="#000000" stroke-opacity="0.200000" points="444.2,-849.1 450.2,-847 444.2,-844.9 444.2,-849.1"/>
</g>
<!-- src/lib/server/ahdb.cards.json -->
<g id="node6" class="node">
<title>src/lib/server/ahdb.cards.json</title>
<g id="a_node6"><a xlink:href="src/lib/server/ahdb.cards.json" xlink:title="ahdb.cards.json">
<path fill="#ffee44" stroke="black" d="M374,-710C374,-710 303,-710 303,-710 300,-710 297,-707 297,-704 297,-704 297,-698 297,-698 297,-695 300,-692 303,-692 303,-692 374,-692 374,-692 377,-692 380,-695 380,-698 380,-698 380,-704 380,-704 380,-707 377,-710 374,-710"/>
<text text-anchor="start" x="305" y="-698.8" font-family="Helvetica,sans-Serif" font-size="9.00">ahdb.cards.json</text>
</a>
</g>
</g>
<!-- src/lib/server/ahdb.packs.json -->
<g id="node7" class="node">
<title>src/lib/server/ahdb.packs.json</title>
<g id="a_node7"><a xlink:href="src/lib/server/ahdb.packs.json" xlink:title="ahdb.packs.json">
<path fill="#ffee44" stroke="black" d="M375,-796C375,-796 302,-796 302,-796 299,-796 296,-793 296,-790 296,-790 296,-784 296,-784 296,-781 299,-778 302,-778 302,-778 375,-778 375,-778 378,-778 381,-781 381,-784 381,-784 381,-790 381,-790 381,-793 378,-796 375,-796"/>
<text text-anchor="start" x="304" y="-784.8" font-family="Helvetica,sans-Serif" font-size="9.00">ahdb.packs.json</text>
</a>
</g>
</g>
<!-- src/lib/server/collection/couz.json -->
<g id="node8" class="node">
<title>src/lib/server/collection/couz.json</title>
<g id="a_node8"><a xlink:href="src/lib/server/collection/couz.json" xlink:title="couz.json">
<path fill="#ffee44" stroke="black" d="M360.5,-744C360.5,-744 316.5,-744 316.5,-744 313.5,-744 310.5,-741 310.5,-738 310.5,-738 310.5,-732 310.5,-732 310.5,-729 313.5,-726 316.5,-726 316.5,-726 360.5,-726 360.5,-726 363.5,-726 366.5,-729 366.5,-732 366.5,-732 366.5,-738 366.5,-738 366.5,-741 363.5,-744 360.5,-744"/>
<text text-anchor="start" x="318.5" y="-732.8" font-family="Helvetica,sans-Serif" font-size="9.00">couz.json</text>
</a>
</g>
</g>
<!-- src/routes/+layout.svelte.ts -->
<g id="node9" class="node">
<title>src/routes/+layout.svelte.ts</title>
<g id="a_node9"><a xlink:href="src/routes/+layout.svelte.ts" xlink:title="+layout.svelte.ts">
<path fill="#ddfeff" stroke="black" d="M115,-128C115,-128 45,-128 45,-128 42,-128 39,-125 39,-122 39,-122 39,-116 39,-116 39,-113 42,-110 45,-110 45,-110 115,-110 115,-110 118,-110 121,-113 121,-116 121,-116 121,-122 121,-122 121,-125 118,-128 115,-128"/>
<text text-anchor="start" x="47" y="-116.8" font-family="Helvetica,sans-Serif" font-size="9.00">+layout.svelte.ts</text>
</a>
</g>
</g>
<!-- src/routes/app.css -->
<g id="node10" class="node">
<title>src/routes/app.css</title>
<g id="a_node10"><a xlink:href="src/routes/app.css" xlink:title="app.css">
<path fill="#ffffcc" stroke="black" d="M218,-128C218,-128 176,-128 176,-128 173,-128 170,-125 170,-122 170,-122 170,-116 170,-116 170,-113 173,-110 176,-110 176,-110 218,-110 218,-110 221,-110 224,-113 224,-116 224,-116 224,-122 224,-122 224,-125 221,-128 218,-128"/>
<text text-anchor="start" x="180" y="-116.8" font-family="Helvetica,sans-Serif" font-size="9.00">app.css</text>
</a>
</g>
</g>
<!-- src/routes/+layout.svelte.ts&#45;&gt;src/routes/app.css -->
<g id="edge3" class="edge">
<title>src/routes/+layout.svelte.ts&#45;&gt;src/routes/app.css</title>
<path fill="none" stroke="#000000" stroke-width="2" stroke-opacity="0.200000" d="M121.22,-119C135.03,-119 150.29,-119 163.42,-119"/>
<polygon fill="#000000" fill-opacity="0.200000" stroke="#000000" stroke-width="2" stroke-opacity="0.200000" points="163.67,-121.1 169.67,-119 163.67,-116.9 163.67,-121.1"/>
</g>
<!-- src/routes/+page.svelte.ts -->
<g id="node11" class="node">
<title>src/routes/+page.svelte.ts</title>
<g id="a_node11"><a xlink:href="src/routes/+page.svelte.ts" xlink:title="no&#45;orphans">
<path fill="#ccffcc" stroke="orange" d="M113.5,-98C113.5,-98 46.5,-98 46.5,-98 43.5,-98 40.5,-95 40.5,-92 40.5,-92 40.5,-86 40.5,-86 40.5,-83 43.5,-80 46.5,-80 46.5,-80 113.5,-80 113.5,-80 116.5,-80 119.5,-83 119.5,-86 119.5,-86 119.5,-92 119.5,-92 119.5,-95 116.5,-98 113.5,-98"/>
<text text-anchor="start" x="48.5" y="-86.8" font-family="Helvetica,sans-Serif" font-size="9.00" fill="orange">+page.svelte.ts</text>
</a>
</g>
</g>
<!-- src/routes/cards/+page.server.ts -->
<g id="node12" class="node">
<title>src/routes/cards/+page.server.ts</title>
<g id="a_node12"><a xlink:href="src/routes/cards/+page.server.ts" xlink:title="+page.server.ts">
<path fill="#ddfeff" stroke="black" d="M114,-526C114,-526 46,-526 46,-526 43,-526 40,-523 40,-520 40,-520 40,-514 40,-514 40,-511 43,-508 46,-508 46,-508 114,-508 114,-508 117,-508 120,-511 120,-514 120,-514 120,-520 120,-520 120,-523 117,-526 114,-526"/>
<text text-anchor="start" x="48" y="-514.8" font-family="Helvetica,sans-Serif" font-size="9.00">+page.server.ts</text>
</a>
</g>
</g>
<!-- src/routes/cards/+page.server.ts&#45;&gt;src/lib/server/ahdb.cards.json -->
<g id="edge4" class="edge">
<title>src/routes/cards/+page.server.ts&#45;&gt;src/lib/server/ahdb.cards.json</title>
<path fill="none" stroke="#000000" stroke-width="2" stroke-opacity="0.200000" d="M93.72,-526.12C135.85,-556.35 270.95,-653.26 319.72,-688.25"/>
<polygon fill="#000000" fill-opacity="0.200000" stroke="#000000" stroke-width="2" stroke-opacity="0.200000" points="318.6,-690.03 324.7,-691.82 321.05,-686.62 318.6,-690.03"/>
</g>
<!-- src/routes/cards/+page.svelte.ts -->
<g id="node13" class="node">
<title>src/routes/cards/+page.svelte.ts</title>
<g id="a_node13"><a xlink:href="src/routes/cards/+page.svelte.ts" xlink:title="no&#45;orphans">
<path fill="#ccffcc" stroke="orange" d="M113.5,-496C113.5,-496 46.5,-496 46.5,-496 43.5,-496 40.5,-493 40.5,-490 40.5,-490 40.5,-484 40.5,-484 40.5,-481 43.5,-478 46.5,-478 46.5,-478 113.5,-478 113.5,-478 116.5,-478 119.5,-481 119.5,-484 119.5,-484 119.5,-490 119.5,-490 119.5,-493 116.5,-496 113.5,-496"/>
<text text-anchor="start" x="48.5" y="-484.8" font-family="Helvetica,sans-Serif" font-size="9.00" fill="orange">+page.svelte.ts</text>
</a>
</g>
</g>
<!-- src/routes/collection/couz/+page.server.ts -->
<g id="node14" class="node">
<title>src/routes/collection/couz/+page.server.ts</title>
<g id="a_node14"><a xlink:href="src/routes/collection/couz/+page.server.ts" xlink:title="+page.server.ts">
<path fill="#ddfeff" stroke="black" d="M114,-410C114,-410 46,-410 46,-410 43,-410 40,-407 40,-404 40,-404 40,-398 40,-398 40,-395 43,-392 46,-392 46,-392 114,-392 114,-392 117,-392 120,-395 120,-398 120,-398 120,-404 120,-404 120,-407 117,-410 114,-410"/>
<text text-anchor="start" x="48" y="-398.8" font-family="Helvetica,sans-Serif" font-size="9.00">+page.server.ts</text>
</a>
</g>
</g>
<!-- src/routes/collection/couz/+page.server.ts&#45;&gt;src/lib/BinderStorage/index.ts -->
<g id="edge5" class="edge">
<title>src/routes/collection/couz/+page.server.ts&#45;&gt;src/lib/BinderStorage/index.ts</title>
<path fill="none" stroke="#000000" stroke-opacity="0.200000" d="M112.61,-410.02C120.24,-412.09 128.39,-414.2 136,-416 193.35,-429.54 216.71,-409.72 266,-442 381.11,-517.37 451.49,-679.56 470.96,-729.24"/>
<polygon fill="none" stroke="#000000" stroke-opacity="0.200000" points="469.05,-730.14 473.18,-734.98 472.97,-728.62 469.05,-730.14"/>
</g>
<!-- src/routes/collection/couz/+page.server.ts&#45;&gt;src/lib/server/ahdb.cards.json -->
<g id="edge6" class="edge">
<title>src/routes/collection/couz/+page.server.ts&#45;&gt;src/lib/server/ahdb.cards.json</title>
<path fill="none" stroke="#000000" stroke-width="2" stroke-opacity="0.200000" d="M91.25,-410.14C101.8,-419.13 119.04,-432.67 136,-441 190.03,-467.54 222.86,-437.02 266,-479 325.8,-537.2 335.66,-645.56 337.23,-685.61"/>
<polygon fill="#000000" fill-opacity="0.200000" stroke="#000000" stroke-width="2" stroke-opacity="0.200000" points="335.13,-685.92 337.42,-691.85 339.33,-685.78 335.13,-685.92"/>
</g>
<!-- src/routes/collection/couz/+page.server.ts&#45;&gt;src/lib/server/ahdb.packs.json -->
<g id="edge7" class="edge">
<title>src/routes/collection/couz/+page.server.ts&#45;&gt;src/lib/server/ahdb.packs.json</title>
<path fill="none" stroke="#000000" stroke-width="2" stroke-opacity="0.200000" d="M88.24,-410.05C97.97,-422.45 115.5,-445.63 128,-467 132.22,-474.21 131.8,-476.78 136,-484 186.4,-570.52 232.08,-573.79 266,-668 273.93,-690.02 258.66,-755.33 274,-773 278.31,-777.96 283.94,-781.39 290.06,-783.73"/>
<polygon fill="#000000" fill-opacity="0.200000" stroke="#000000" stroke-width="2" stroke-opacity="0.200000" points="289.45,-785.74 295.81,-785.58 290.74,-781.74 289.45,-785.74"/>
</g>
<!-- src/routes/collection/couz/+page.server.ts&#45;&gt;src/lib/server/collection/couz.json -->
<g id="edge8" class="edge">
<title>src/routes/collection/couz/+page.server.ts&#45;&gt;src/lib/server/collection/couz.json</title>
<path fill="none" stroke="#000000" stroke-width="2" stroke-opacity="0.200000" d="M86.47,-410.3C95.16,-424.21 113.43,-450.25 136,-464 186.81,-494.96 228.47,-449.82 266,-496 281.85,-515.5 257.77,-702.82 274,-722 281.42,-730.77 293.02,-734.61 304.29,-736.06"/>
<polygon fill="#000000" fill-opacity="0.200000" stroke="#000000" stroke-width="2" stroke-opacity="0.200000" points="304.32,-738.18 310.48,-736.64 304.7,-733.99 304.32,-738.18"/>
</g>
<!-- src/routes/collection/couz/+page.svelte.ts -->
<g id="node15" class="node">
<title>src/routes/collection/couz/+page.svelte.ts</title>
<g id="a_node15"><a xlink:href="src/routes/collection/couz/+page.svelte.ts" xlink:title="+page.svelte.ts">
<path fill="#ddfeff" stroke="black" d="M113.5,-380C113.5,-380 46.5,-380 46.5,-380 43.5,-380 40.5,-377 40.5,-374 40.5,-374 40.5,-368 40.5,-368 40.5,-365 43.5,-362 46.5,-362 46.5,-362 113.5,-362 113.5,-362 116.5,-362 119.5,-365 119.5,-368 119.5,-368 119.5,-374 119.5,-374 119.5,-377 116.5,-380 113.5,-380"/>
<text text-anchor="start" x="48.5" y="-368.8" font-family="Helvetica,sans-Serif" font-size="9.00">+page.svelte.ts</text>
</a>
</g>
</g>
<!-- src/routes/collection/couz/+page.svelte.ts&#45;&gt;src/lib/Presenters/BinderOutputPort.ts -->
<g id="edge10" class="edge">
<title>src/routes/collection/couz/+page.svelte.ts&#45;&gt;src/lib/Presenters/BinderOutputPort.ts</title>
<path fill="none" stroke="#000000" stroke-width="2" stroke-opacity="0.200000" d="M119.87,-379.72C122.86,-381.45 125.64,-383.52 128,-386 137.52,-395.99 132.01,-402.79 136,-416 191.41,-599.67 138.89,-688.8 274,-825 278.19,-829.22 283.23,-832.64 288.62,-835.4"/>
<polygon fill="#000000" fill-opacity="0.200000" stroke="#000000" stroke-width="2" stroke-opacity="0.200000" points="287.77,-837.32 294.1,-837.95 289.54,-833.51 287.77,-837.32"/>
</g>
<!-- src/routes/collection/couz/Binder.svelte.ts -->
<g id="node16" class="node">
<title>src/routes/collection/couz/Binder.svelte.ts</title>
<g id="a_node16"><a xlink:href="src/routes/collection/couz/Binder.svelte.ts" xlink:title="Binder.svelte.ts">
<path fill="#ddfeff" stroke="black" d="M231,-410C231,-410 163,-410 163,-410 160,-410 157,-407 157,-404 157,-404 157,-398 157,-398 157,-395 160,-392 163,-392 163,-392 231,-392 231,-392 234,-392 237,-395 237,-398 237,-398 237,-404 237,-404 237,-407 234,-410 231,-410"/>
<text text-anchor="start" x="165" y="-398.8" font-family="Helvetica,sans-Serif" font-size="9.00">Binder.svelte.ts</text>
</a>
</g>
</g>
<!-- src/routes/collection/couz/+page.svelte.ts&#45;&gt;src/routes/collection/couz/Binder.svelte.ts -->
<g id="edge9" class="edge">
<title>src/routes/collection/couz/+page.svelte.ts&#45;&gt;src/routes/collection/couz/Binder.svelte.ts</title>
<path fill="none" stroke="#000000" stroke-width="2" stroke-opacity="0.200000" d="M115.5,-380C128.01,-383.26 142.26,-386.98 155.25,-390.37"/>
<polygon fill="#000000" fill-opacity="0.200000" stroke="#000000" stroke-width="2" stroke-opacity="0.200000" points="154.79,-392.42 161.12,-391.9 155.85,-388.36 154.79,-392.42"/>
</g>
<!-- src/routes/collection/couz/Binder.svelte.ts&#45;&gt;src/lib/Presenters/binder.ts -->
<g id="edge12" class="edge">
<title>src/routes/collection/couz/Binder.svelte.ts&#45;&gt;src/lib/Presenters/binder.ts</title>
<path fill="none" stroke="#000000" stroke-opacity="0.200000" d="M237.13,-405.79C247.28,-408.45 257.68,-412.59 266,-419 371.99,-500.74 365.54,-556.43 414.5,-681 431.38,-723.94 421.34,-739.17 438.5,-782 445.9,-800.47 457.94,-819.96 466.48,-832.73"/>
<polygon fill="none" stroke="#000000" stroke-opacity="0.200000" points="464.8,-833.98 469.91,-837.76 468.27,-831.62 464.8,-833.98"/>
</g>
<!-- src/routes/collection/couz/PocketSheet.svelte.ts -->
<g id="node17" class="node">
<title>src/routes/collection/couz/PocketSheet.svelte.ts</title>
<g id="a_node17"><a xlink:href="src/routes/collection/couz/PocketSheet.svelte.ts" xlink:title="PocketSheet.svelte.ts">
<path fill="#ddfeff" stroke="black" d="M384.5,-410C384.5,-410 292.5,-410 292.5,-410 289.5,-410 286.5,-407 286.5,-404 286.5,-404 286.5,-398 286.5,-398 286.5,-395 289.5,-392 292.5,-392 292.5,-392 384.5,-392 384.5,-392 387.5,-392 390.5,-395 390.5,-398 390.5,-398 390.5,-404 390.5,-404 390.5,-407 387.5,-410 384.5,-410"/>
<text text-anchor="start" x="294.5" y="-398.8" font-family="Helvetica,sans-Serif" font-size="9.00">PocketSheet.svelte.ts</text>
</a>
</g>
</g>
<!-- src/routes/collection/couz/Binder.svelte.ts&#45;&gt;src/routes/collection/couz/PocketSheet.svelte.ts -->
<g id="edge11" class="edge">
<title>src/routes/collection/couz/Binder.svelte.ts&#45;&gt;src/routes/collection/couz/PocketSheet.svelte.ts</title>
<path fill="none" stroke="#000000" stroke-width="2" stroke-opacity="0.200000" d="M237.23,-401C250.56,-401 265.74,-401 280.18,-401"/>
<polygon fill="#000000" fill-opacity="0.200000" stroke="#000000" stroke-width="2" stroke-opacity="0.200000" points="280.32,-403.1 286.32,-401 280.32,-398.9 280.32,-403.1"/>
</g>
<!-- src/routes/collection/couz/PocketSheet.svelte.ts&#45;&gt;src/lib/Presenters/binder.ts -->
<g id="edge13" class="edge">
<title>src/routes/collection/couz/PocketSheet.svelte.ts&#45;&gt;src/lib/Presenters/binder.ts</title>
<path fill="none" stroke="#000000" stroke-opacity="0.200000" d="M390.79,-404.23C399.87,-407.11 408.37,-411.73 414.5,-419 440.56,-449.9 426.65,-743.35 438.5,-782 444.33,-801.03 456.67,-820.41 465.71,-833"/>
<polygon fill="none" stroke="#000000" stroke-opacity="0.200000" points="464.11,-834.37 469.35,-837.96 467.49,-831.88 464.11,-834.37"/>
</g>
<!-- src/routes/icons/+page.svelte.ts -->
<g id="node18" class="node">
<title>src/routes/icons/+page.svelte.ts</title>
<g id="a_node18"><a xlink:href="src/routes/icons/+page.svelte.ts" xlink:title="+page.svelte.ts">
<path fill="#ddfeff" stroke="black" d="M113.5,-237C113.5,-237 46.5,-237 46.5,-237 43.5,-237 40.5,-234 40.5,-231 40.5,-231 40.5,-225 40.5,-225 40.5,-222 43.5,-219 46.5,-219 46.5,-219 113.5,-219 113.5,-219 116.5,-219 119.5,-222 119.5,-225 119.5,-225 119.5,-231 119.5,-231 119.5,-234 116.5,-237 113.5,-237"/>
<text text-anchor="start" x="48.5" y="-225.8" font-family="Helvetica,sans-Serif" font-size="9.00">+page.svelte.ts</text>
</a>
</g>
</g>
<!-- src/routes/icons/guardian.svg.svelte.ts -->
<g id="node19" class="node">
<title>src/routes/icons/guardian.svg.svelte.ts</title>
<g id="a_node19"><a xlink:href="src/routes/icons/guardian.svg.svelte.ts" xlink:title="guardian.svg.svelte.ts">
<path fill="#ddfeff" stroke="black" d="M244,-252C244,-252 150,-252 150,-252 147,-252 144,-249 144,-246 144,-246 144,-240 144,-240 144,-237 147,-234 150,-234 150,-234 244,-234 244,-234 247,-234 250,-237 250,-240 250,-240 250,-246 250,-246 250,-249 247,-252 244,-252"/>
<text text-anchor="start" x="152" y="-240.8" font-family="Helvetica,sans-Serif" font-size="9.00">guardian.svg.svelte.ts</text>
</a>
</g>
</g>
<!-- src/routes/icons/+page.svelte.ts&#45;&gt;src/routes/icons/guardian.svg.svelte.ts -->
<g id="edge14" class="edge">
<title>src/routes/icons/+page.svelte.ts&#45;&gt;src/routes/icons/guardian.svg.svelte.ts</title>
<path fill="none" stroke="#000000" stroke-width="2" stroke-opacity="0.200000" d="M119.61,-233.04C125.39,-233.79 131.45,-234.58 137.52,-235.37"/>
<polygon fill="#000000" fill-opacity="0.200000" stroke="#000000" stroke-width="2" stroke-opacity="0.200000" points="137.37,-237.47 143.59,-236.16 137.92,-233.31 137.37,-237.47"/>
</g>
<!-- src/routes/icons/mystic.svg.svelte.ts -->
<g id="node20" class="node">
<title>src/routes/icons/mystic.svg.svelte.ts</title>
<g id="a_node20"><a xlink:href="src/routes/icons/mystic.svg.svelte.ts" xlink:title="mystic.svg.svelte.ts">
<path fill="#ddfeff" stroke="black" d="M238.5,-282C238.5,-282 155.5,-282 155.5,-282 152.5,-282 149.5,-279 149.5,-276 149.5,-276 149.5,-270 149.5,-270 149.5,-267 152.5,-264 155.5,-264 155.5,-264 238.5,-264 238.5,-264 241.5,-264 244.5,-267 244.5,-270 244.5,-270 244.5,-276 244.5,-276 244.5,-279 241.5,-282 238.5,-282"/>
<text text-anchor="start" x="157.5" y="-270.8" font-family="Helvetica,sans-Serif" font-size="9.00">mystic.svg.svelte.ts</text>
</a>
</g>
</g>
<!-- src/routes/icons/+page.svelte.ts&#45;&gt;src/routes/icons/mystic.svg.svelte.ts -->
<g id="edge15" class="edge">
<title>src/routes/icons/+page.svelte.ts&#45;&gt;src/routes/icons/mystic.svg.svelte.ts</title>
<path fill="none" stroke="#000000" stroke-width="2" stroke-opacity="0.200000" d="M95.45,-237.21C106.26,-243.77 121.61,-252.38 136,-258 139.83,-259.5 143.86,-260.88 147.94,-262.15"/>
<polygon fill="#000000" fill-opacity="0.200000" stroke="#000000" stroke-width="2" stroke-opacity="0.200000" points="147.58,-264.24 153.93,-263.93 148.78,-260.21 147.58,-264.24"/>
</g>
<!-- src/routes/icons/rogue.svg.svelte.ts -->
<g id="node21" class="node">
<title>src/routes/icons/rogue.svg.svelte.ts</title>
<g id="a_node21"><a xlink:href="src/routes/icons/rogue.svg.svelte.ts" xlink:title="rogue.svg.svelte.ts">
<path fill="#ddfeff" stroke="black" d="M237.5,-312C237.5,-312 156.5,-312 156.5,-312 153.5,-312 150.5,-309 150.5,-306 150.5,-306 150.5,-300 150.5,-300 150.5,-297 153.5,-294 156.5,-294 156.5,-294 237.5,-294 237.5,-294 240.5,-294 243.5,-297 243.5,-300 243.5,-300 243.5,-306 243.5,-306 243.5,-309 240.5,-312 237.5,-312"/>
<text text-anchor="start" x="158.5" y="-300.8" font-family="Helvetica,sans-Serif" font-size="9.00">rogue.svg.svelte.ts</text>
</a>
</g>
</g>
<!-- src/routes/icons/+page.svelte.ts&#45;&gt;src/routes/icons/rogue.svg.svelte.ts -->
<g id="edge16" class="edge">
<title>src/routes/icons/+page.svelte.ts&#45;&gt;src/routes/icons/rogue.svg.svelte.ts</title>
<path fill="none" stroke="#000000" stroke-width="2" stroke-opacity="0.200000" d="M86.89,-237.28C95.83,-250.61 114.14,-274.99 136,-288 138.63,-289.57 141.42,-290.97 144.3,-292.22"/>
<polygon fill="#000000" fill-opacity="0.200000" stroke="#000000" stroke-width="2" stroke-opacity="0.200000" points="143.96,-294.35 150.31,-294.61 145.5,-290.44 143.96,-294.35"/>
</g>
<!-- src/routes/icons/seeker.svg.svelte.ts -->
<g id="node22" class="node">
<title>src/routes/icons/seeker.svg.svelte.ts</title>
<g id="a_node22"><a xlink:href="src/routes/icons/seeker.svg.svelte.ts" xlink:title="seeker.svg.svelte.ts">
<path fill="#ddfeff" stroke="black" d="M240,-162C240,-162 154,-162 154,-162 151,-162 148,-159 148,-156 148,-156 148,-150 148,-150 148,-147 151,-144 154,-144 154,-144 240,-144 240,-144 243,-144 246,-147 246,-150 246,-150 246,-156 246,-156 246,-159 243,-162 240,-162"/>
<text text-anchor="start" x="156" y="-150.8" font-family="Helvetica,sans-Serif" font-size="9.00">seeker.svg.svelte.ts</text>
</a>
</g>
</g>
<!-- src/routes/icons/+page.svelte.ts&#45;&gt;src/routes/icons/seeker.svg.svelte.ts -->
<g id="edge17" class="edge">
<title>src/routes/icons/+page.svelte.ts&#45;&gt;src/routes/icons/seeker.svg.svelte.ts</title>
<path fill="none" stroke="#000000" stroke-width="2" stroke-opacity="0.200000" d="M119.62,-221.47C122.75,-219.76 125.62,-217.64 128,-215 142.21,-199.28 121.6,-183.54 136,-168 137.99,-165.85 140.24,-163.99 142.67,-162.37"/>
<polygon fill="#000000" fill-opacity="0.200000" stroke="#000000" stroke-width="2" stroke-opacity="0.200000" points="143.71,-164.2 147.89,-159.41 141.64,-160.55 143.71,-164.2"/>
</g>
<!-- src/routes/icons/SortableSlotsBar.svelte.ts -->
<g id="node23" class="node">
<title>src/routes/icons/SortableSlotsBar.svelte.ts</title>
<g id="a_node23"><a xlink:href="src/routes/icons/SortableSlotsBar.svelte.ts" xlink:title="SortableSlotsBar.svelte.ts">
<path fill="#ddfeff" stroke="black" d="M252,-192C252,-192 142,-192 142,-192 139,-192 136,-189 136,-186 136,-186 136,-180 136,-180 136,-177 139,-174 142,-174 142,-174 252,-174 252,-174 255,-174 258,-177 258,-180 258,-180 258,-186 258,-186 258,-189 255,-192 252,-192"/>
<text text-anchor="start" x="144" y="-180.8" font-family="Helvetica,sans-Serif" font-size="9.00">SortableSlotsBar.svelte.ts</text>
</a>
</g>
</g>
<!-- src/routes/icons/+page.svelte.ts&#45;&gt;src/routes/icons/SortableSlotsBar.svelte.ts -->
<g id="edge18" class="edge">
<title>src/routes/icons/+page.svelte.ts&#45;&gt;src/routes/icons/SortableSlotsBar.svelte.ts</title>
<path fill="none" stroke="#000000" stroke-width="2" stroke-opacity="0.200000" d="M119.85,-220.29C122.78,-218.82 125.54,-217.07 128,-215 134.38,-209.62 129.55,-203.3 136,-198 137.23,-196.99 138.53,-196.04 139.87,-195.15"/>
<polygon fill="#000000" fill-opacity="0.200000" stroke="#000000" stroke-width="2" stroke-opacity="0.200000" points="141.11,-196.86 145.26,-192.05 139.01,-193.23 141.11,-196.86"/>
</g>
<!-- src/routes/icons/survivor.svg.svelte.ts -->
<g id="node24" class="node">
<title>src/routes/icons/survivor.svg.svelte.ts</title>
<g id="a_node24"><a xlink:href="src/routes/icons/survivor.svg.svelte.ts" xlink:title="survivor.svg.svelte.ts">
<path fill="#ddfeff" stroke="black" d="M241.5,-222C241.5,-222 152.5,-222 152.5,-222 149.5,-222 146.5,-219 146.5,-216 146.5,-216 146.5,-210 146.5,-210 146.5,-207 149.5,-204 152.5,-204 152.5,-204 241.5,-204 241.5,-204 244.5,-204 247.5,-207 247.5,-210 247.5,-210 247.5,-216 247.5,-216 247.5,-219 244.5,-222 241.5,-222"/>
<text text-anchor="start" x="154.5" y="-210.8" font-family="Helvetica,sans-Serif" font-size="9.00">survivor.svg.svelte.ts</text>
</a>
</g>
</g>
<!-- src/routes/icons/+page.svelte.ts&#45;&gt;src/routes/icons/survivor.svg.svelte.ts -->
<g id="edge19" class="edge">
<title>src/routes/icons/+page.svelte.ts&#45;&gt;src/routes/icons/survivor.svg.svelte.ts</title>
<path fill="none" stroke="#000000" stroke-width="2" stroke-opacity="0.200000" d="M119.61,-222.96C126.21,-222.1 133.18,-221.19 140.11,-220.29"/>
<polygon fill="#000000" fill-opacity="0.200000" stroke="#000000" stroke-width="2" stroke-opacity="0.200000" points="140.78,-222.32 146.46,-219.46 140.24,-218.16 140.78,-222.32"/>
</g>
<!-- src/routes/packs/+page.server.ts -->
<g id="node25" class="node">
<title>src/routes/packs/+page.server.ts</title>
<g id="a_node25"><a xlink:href="src/routes/packs/+page.server.ts" xlink:title="+page.server.ts">
<path fill="#ddfeff" stroke="black" d="M114,-616C114,-616 46,-616 46,-616 43,-616 40,-613 40,-610 40,-610 40,-604 40,-604 40,-601 43,-598 46,-598 46,-598 114,-598 114,-598 117,-598 120,-601 120,-604 120,-604 120,-610 120,-610 120,-613 117,-616 114,-616"/>
<text text-anchor="start" x="48" y="-604.8" font-family="Helvetica,sans-Serif" font-size="9.00">+page.server.ts</text>
</a>
</g>
</g>
<!-- src/routes/packs/+page.server.ts&#45;&gt;src/lib/server/ahdb.packs.json -->
<g id="edge20" class="edge">
<title>src/routes/packs/+page.server.ts&#45;&gt;src/lib/server/ahdb.packs.json</title>
<path fill="none" stroke="#000000" stroke-width="2" stroke-opacity="0.200000" d="M88.72,-616.31C112.84,-644.75 190.2,-731.1 274,-773 278.97,-775.48 284.37,-777.53 289.86,-779.22"/>
<polygon fill="#000000" fill-opacity="0.200000" stroke="#000000" stroke-width="2" stroke-opacity="0.200000" points="289.49,-781.29 295.83,-780.91 290.63,-777.25 289.49,-781.29"/>
</g>
<!-- src/routes/packs/+page.svelte.ts -->
<g id="node26" class="node">
<title>src/routes/packs/+page.svelte.ts</title>
<g id="a_node26"><a xlink:href="src/routes/packs/+page.svelte.ts" xlink:title="no&#45;orphans">
<path fill="#ccffcc" stroke="orange" d="M113.5,-586C113.5,-586 46.5,-586 46.5,-586 43.5,-586 40.5,-583 40.5,-580 40.5,-580 40.5,-574 40.5,-574 40.5,-571 43.5,-568 46.5,-568 46.5,-568 113.5,-568 113.5,-568 116.5,-568 119.5,-571 119.5,-574 119.5,-574 119.5,-580 119.5,-580 119.5,-583 116.5,-586 113.5,-586"/>
<text text-anchor="start" x="48.5" y="-574.8" font-family="Helvetica,sans-Serif" font-size="9.00" fill="orange">+page.svelte.ts</text>
</a>
</g>
</g>
</g>
</svg>
