<?xml version="1.0" encoding="UTF-8" standalone="no"?>
<!DOCTYPE svg PUBLIC "-//W3C//DTD SVG 1.1//EN"
 "http://www.w3.org/Graphics/SVG/1.1/DTD/svg11.dtd">
<!-- Generated by graphviz version 2.50.0 (20211204.2007)
 -->
<!-- Title: dependency&#45;cruiser output Pages: 1 -->
<svg width="448pt" height="418pt"
 viewBox="0.00 0.00 447.50 418.00" xmlns="http://www.w3.org/2000/svg" xmlns:xlink="http://www.w3.org/1999/xlink">
<g id="graph0" class="graph" transform="scale(1 1) rotate(0) translate(4 414)">
<title>dependency&#45;cruiser output</title>
<polygon fill="white" stroke="transparent" points="-4,4 -4,-414 443.5,-414 443.5,4 -4,4"/>
<g id="clust1" class="cluster">
<title>cluster_src</title>
<path fill="#ffffff" stroke="black" stroke-width="2" d="M20,-8C20,-8 419.5,-8 419.5,-8 425.5,-8 431.5,-14 431.5,-20 431.5,-20 431.5,-390 431.5,-390 431.5,-396 425.5,-402 419.5,-402 419.5,-402 20,-402 20,-402 14,-402 8,-396 8,-390 8,-390 8,-20 8,-20 8,-14 14,-8 20,-8"/>
<text text-anchor="middle" x="219.75" y="-390.8" font-family="Helvetica,sans-Serif" font-weight="bold" font-size="9.00">src</text>
</g>
<g id="clust2" class="cluster">
<title>cluster_src/lib</title>
<path fill="#ffffff" stroke="black" stroke-width="2" d="M225,-140C225,-140 411.5,-140 411.5,-140 417.5,-140 423.5,-146 423.5,-152 423.5,-152 423.5,-364 423.5,-364 423.5,-370 417.5,-376 411.5,-376 411.5,-376 225,-376 225,-376 219,-376 213,-370 213,-364 213,-364 213,-152 213,-152 213,-146 219,-140 225,-140"/>
<text text-anchor="middle" x="318.25" y="-364.8" font-family="Helvetica,sans-Serif" font-weight="bold" font-size="9.00">lib</text>
</g>
<g id="clust5" class="cluster">
<title>cluster_src/lib/userBrowsesItsCollection</title>
<path fill="#ffffff" stroke="black" stroke-width="2" d="M233,-298C233,-298 403.5,-298 403.5,-298 409.5,-298 415.5,-304 415.5,-310 415.5,-310 415.5,-338 415.5,-338 415.5,-344 409.5,-350 403.5,-350 403.5,-350 233,-350 233,-350 227,-350 221,-344 221,-338 221,-338 221,-310 221,-310 221,-304 227,-298 233,-298"/>
<text text-anchor="middle" x="318.25" y="-338.8" font-family="Helvetica,sans-Serif" font-weight="bold" font-size="9.00">userBrowsesItsCollection</text>
</g>
<g id="clust3" class="cluster">
<title>cluster_src/lib/server</title>
<path fill="#ffffff" stroke="black" stroke-width="2" d="M239,-148C239,-148 316,-148 316,-148 322,-148 328,-154 328,-160 328,-160 328,-278 328,-278 328,-284 322,-290 316,-290 316,-290 239,-290 239,-290 233,-290 227,-284 227,-278 227,-278 227,-160 227,-160 227,-154 233,-148 239,-148"/>
<text text-anchor="middle" x="277.5" y="-278.8" font-family="Helvetica,sans-Serif" font-weight="bold" font-size="9.00">server</text>
</g>
<g id="clust4" class="cluster">
<title>cluster_src/lib/server/collection</title>
<path fill="#ffffff" stroke="black" stroke-width="2" d="M253.5,-212C253.5,-212 301.5,-212 301.5,-212 307.5,-212 313.5,-218 313.5,-224 313.5,-224 313.5,-252 313.5,-252 313.5,-258 307.5,-264 301.5,-264 301.5,-264 253.5,-264 253.5,-264 247.5,-264 241.5,-258 241.5,-252 241.5,-252 241.5,-224 241.5,-224 241.5,-218 247.5,-212 253.5,-212"/>
<text text-anchor="middle" x="277.5" y="-252.8" font-family="Helvetica,sans-Serif" font-weight="bold" font-size="9.00">collection</text>
</g>
<g id="clust6" class="cluster">
<title>cluster_src/routes</title>
<path fill="#ffffff" stroke="black" stroke-width="2" d="M28,-16C28,-16 333.5,-16 333.5,-16 339.5,-16 345.5,-22 345.5,-28 345.5,-28 345.5,-120 345.5,-120 345.5,-126 339.5,-132 333.5,-132 333.5,-132 28,-132 28,-132 22,-132 16,-126 16,-120 16,-120 16,-28 16,-28 16,-22 22,-16 28,-16"/>
<text text-anchor="middle" x="180.75" y="-120.8" font-family="Helvetica,sans-Serif" font-weight="bold" font-size="9.00">routes</text>
</g>
<g id="clust7" class="cluster">
<title>cluster_src/routes/collection</title>
<path fill="#ffffff" stroke="black" stroke-width="2" d="M36,-24C36,-24 325.5,-24 325.5,-24 331.5,-24 337.5,-30 337.5,-36 337.5,-36 337.5,-94 337.5,-94 337.5,-100 331.5,-106 325.5,-106 325.5,-106 36,-106 36,-106 30,-106 24,-100 24,-94 24,-94 24,-36 24,-36 24,-30 30,-24 36,-24"/>
<text text-anchor="middle" x="180.75" y="-94.8" font-family="Helvetica,sans-Serif" font-weight="bold" font-size="9.00">collection</text>
</g>
<!-- src/lib/server/ahdb.cards.json -->
<g id="node1" class="node">
<title>src/lib/server/ahdb.cards.json</title>
<g id="a_node1"><a xlink:href="src/lib/server/ahdb.cards.json" xlink:title="ahdb.cards.json">
<path fill="#ffee44" stroke="black" d="M313,-174C313,-174 242,-174 242,-174 239,-174 236,-171 236,-168 236,-168 236,-162 236,-162 236,-159 239,-156 242,-156 242,-156 313,-156 313,-156 316,-156 319,-159 319,-162 319,-162 319,-168 319,-168 319,-171 316,-174 313,-174"/>
<text text-anchor="start" x="244" y="-162.8" font-family="Helvetica,sans-Serif" font-size="9.00">ahdb.cards.json</text>
</a>
</g>
</g>
<!-- src/lib/server/ahdb.packs.json -->
<g id="node2" class="node">
<title>src/lib/server/ahdb.packs.json</title>
<g id="a_node2"><a xlink:href="src/lib/server/ahdb.packs.json" xlink:title="ahdb.packs.json">
<path fill="#ffee44" stroke="black" d="M314,-204C314,-204 241,-204 241,-204 238,-204 235,-201 235,-198 235,-198 235,-192 235,-192 235,-189 238,-186 241,-186 241,-186 314,-186 314,-186 317,-186 320,-189 320,-192 320,-192 320,-198 320,-198 320,-201 317,-204 314,-204"/>
<text text-anchor="start" x="243" y="-192.8" font-family="Helvetica,sans-Serif" font-size="9.00">ahdb.packs.json</text>
</a>
</g>
</g>
<!-- src/lib/server/collection/couz.json -->
<g id="node3" class="node">
<title>src/lib/server/collection/couz.json</title>
<g id="a_node3"><a xlink:href="src/lib/server/collection/couz.json" xlink:title="couz.json">
<path fill="#ffee44" stroke="black" d="M299.5,-238C299.5,-238 255.5,-238 255.5,-238 252.5,-238 249.5,-235 249.5,-232 249.5,-232 249.5,-226 249.5,-226 249.5,-223 252.5,-220 255.5,-220 255.5,-220 299.5,-220 299.5,-220 302.5,-220 305.5,-223 305.5,-226 305.5,-226 305.5,-232 305.5,-232 305.5,-235 302.5,-238 299.5,-238"/>
<text text-anchor="start" x="257.5" y="-226.8" font-family="Helvetica,sans-Serif" font-size="9.00">couz.json</text>
</a>
</g>
</g>
<!-- src/lib/userBrowsesItsCollection/BinderOutputPort.ts -->
<g id="node4" class="node">
<title>src/lib/userBrowsesItsCollection/BinderOutputPort.ts</title>
<g id="a_node4"><a xlink:href="src/lib/userBrowsesItsCollection/BinderOutputPort.ts" xlink:title="BinderOutputPort.ts">
<path fill="#ddfeff" stroke="black" d="M320,-324C320,-324 235,-324 235,-324 232,-324 229,-321 229,-318 229,-318 229,-312 229,-312 229,-309 232,-306 235,-306 235,-306 320,-306 320,-306 323,-306 326,-309 326,-312 326,-312 326,-318 326,-318 326,-321 323,-324 320,-324"/>
<text text-anchor="start" x="237" y="-312.8" font-family="Helvetica,sans-Serif" font-size="9.00">BinderOutputPort.ts</text>
</a>
</g>
</g>
<!-- src/lib/userBrowsesItsCollection/binder.ts -->
<g id="node5" class="node">
<title>src/lib/userBrowsesItsCollection/binder.ts</title>
<g id="a_node5"><a xlink:href="src/lib/userBrowsesItsCollection/binder.ts" xlink:title="binder.ts">
<path fill="#ddfeff" stroke="black" d="M401.5,-324C401.5,-324 359.5,-324 359.5,-324 356.5,-324 353.5,-321 353.5,-318 353.5,-318 353.5,-312 353.5,-312 353.5,-309 356.5,-306 359.5,-306 359.5,-306 401.5,-306 401.5,-306 404.5,-306 407.5,-309 407.5,-312 407.5,-312 407.5,-318 407.5,-318 407.5,-321 404.5,-324 401.5,-324"/>
<text text-anchor="start" x="362" y="-312.8" font-family="Helvetica,sans-Serif" font-size="9.00">binder.ts</text>
</a>
</g>
</g>
<!-- src/lib/userBrowsesItsCollection/BinderOutputPort.ts&#45;&gt;src/lib/userBrowsesItsCollection/binder.ts -->
<g id="edge1" class="edge">
<title>src/lib/userBrowsesItsCollection/BinderOutputPort.ts&#45;&gt;src/lib/userBrowsesItsCollection/binder.ts</title>
<path fill="none" stroke="#000000" stroke-opacity="0.200000" d="M326.04,-315C333.25,-315 340.54,-315 347.32,-315"/>
<polygon fill="none" stroke="#000000" stroke-opacity="0.200000" points="347.38,-317.1 353.38,-315 347.38,-312.9 347.38,-317.1"/>
</g>
<!-- src/routes/collection/+page.server.ts -->
<g id="node6" class="node">
<title>src/routes/collection/+page.server.ts</title>
<g id="a_node6"><a xlink:href="src/routes/collection/+page.server.ts" xlink:title="+page.server.ts">
<path fill="#ddfeff" stroke="black" d="M106,-50C106,-50 38,-50 38,-50 35,-50 32,-47 32,-44 32,-44 32,-38 32,-38 32,-35 35,-32 38,-32 38,-32 106,-32 106,-32 109,-32 112,-35 112,-38 112,-38 112,-44 112,-44 112,-47 109,-50 106,-50"/>
<text text-anchor="start" x="40" y="-38.8" font-family="Helvetica,sans-Serif" font-size="9.00">+page.server.ts</text>
</a>
</g>
</g>
<!-- src/routes/collection/+page.server.ts&#45;&gt;src/lib/server/ahdb.cards.json -->
<g id="edge2" class="edge">
<title>src/routes/collection/+page.server.ts&#45;&gt;src/lib/server/ahdb.cards.json</title>
<path fill="none" stroke="#000000" stroke-width="2" stroke-opacity="0.200000" d="M103.81,-50.06C106.79,-51.73 109.59,-53.69 112,-56 122.49,-66.06 115.1,-75.36 125,-86 156.71,-120.07 206.47,-142.06 240.24,-153.97"/>
<polygon fill="#000000" fill-opacity="0.200000" stroke="#000000" stroke-width="2" stroke-opacity="0.200000" points="239.57,-155.96 245.93,-155.94 240.95,-151.99 239.57,-155.96"/>
</g>
<!-- src/routes/collection/+page.server.ts&#45;&gt;src/lib/server/ahdb.packs.json -->
<g id="edge3" class="edge">
<title>src/routes/collection/+page.server.ts&#45;&gt;src/lib/server/ahdb.packs.json</title>
<path fill="none" stroke="#000000" stroke-width="2" stroke-opacity="0.200000" d="M105.04,-50.07C107.64,-51.73 110.02,-53.69 112,-56 129.75,-76.72 110.1,-93.14 125,-116 151.41,-156.51 169.05,-159.82 213,-180 217.99,-182.29 223.37,-184.25 228.8,-185.93"/>
<polygon fill="#000000" fill-opacity="0.200000" stroke="#000000" stroke-width="2" stroke-opacity="0.200000" points="228.37,-187.99 234.71,-187.63 229.53,-183.95 228.37,-187.99"/>
</g>
<!-- src/routes/collection/+page.server.ts&#45;&gt;src/lib/server/collection/couz.json -->
<g id="edge4" class="edge">
<title>src/routes/collection/+page.server.ts&#45;&gt;src/lib/server/collection/couz.json</title>
<path fill="none" stroke="#000000" stroke-width="2" stroke-opacity="0.200000" d="M105.59,-50.16C108,-51.8 110.2,-53.73 112,-56 137.96,-88.68 103.92,-112.98 125,-149 149.83,-191.43 168.24,-195.67 213,-216 222.42,-220.28 233.26,-223.16 243.29,-225.1"/>
<polygon fill="#000000" fill-opacity="0.200000" stroke="#000000" stroke-width="2" stroke-opacity="0.200000" points="243.13,-227.2 249.41,-226.18 243.87,-223.07 243.13,-227.2"/>
</g>
<!-- src/routes/collection/+page.svelte.ts -->
<g id="node7" class="node">
<title>src/routes/collection/+page.svelte.ts</title>
<g id="a_node7"><a xlink:href="src/routes/collection/+page.svelte.ts" xlink:title="+page.svelte.ts">
<path fill="#ddfeff" stroke="black" d="M105.5,-80C105.5,-80 38.5,-80 38.5,-80 35.5,-80 32.5,-77 32.5,-74 32.5,-74 32.5,-68 32.5,-68 32.5,-65 35.5,-62 38.5,-62 38.5,-62 105.5,-62 105.5,-62 108.5,-62 111.5,-65 111.5,-68 111.5,-68 111.5,-74 111.5,-74 111.5,-77 108.5,-80 105.5,-80"/>
<text text-anchor="start" x="40.5" y="-68.8" font-family="Helvetica,sans-Serif" font-size="9.00">+page.svelte.ts</text>
</a>
</g>
</g>
<!-- src/routes/collection/+page.svelte.ts&#45;&gt;src/lib/userBrowsesItsCollection/BinderOutputPort.ts -->
<g id="edge6" class="edge">
<title>src/routes/collection/+page.svelte.ts&#45;&gt;src/lib/userBrowsesItsCollection/BinderOutputPort.ts</title>
<path fill="none" stroke="#000000" stroke-width="2" stroke-opacity="0.200000" d="M75.86,-80.12C82.41,-100.18 99.93,-149.1 125,-184 162.59,-236.32 225.13,-281.53 256.81,-302.51"/>
<polygon fill="#000000" fill-opacity="0.200000" stroke="#000000" stroke-width="2" stroke-opacity="0.200000" points="255.82,-304.37 261.99,-305.91 258.12,-300.86 255.82,-304.37"/>
</g>
<!-- src/routes/collection/Binder.svelte.ts -->
<g id="node8" class="node">
<title>src/routes/collection/Binder.svelte.ts</title>
<g id="a_node8"><a xlink:href="src/routes/collection/Binder.svelte.ts" xlink:title="Binder.svelte.ts">
<path fill="#ddfeff" stroke="black" d="M199,-80C199,-80 131,-80 131,-80 128,-80 125,-77 125,-74 125,-74 125,-68 125,-68 125,-65 128,-62 131,-62 131,-62 199,-62 199,-62 202,-62 205,-65 205,-68 205,-68 205,-74 205,-74 205,-77 202,-80 199,-80"/>
<text text-anchor="start" x="133" y="-68.8" font-family="Helvetica,sans-Serif" font-size="9.00">Binder.svelte.ts</text>
</a>
</g>
</g>
<!-- src/routes/collection/+page.svelte.ts&#45;&gt;src/routes/collection/Binder.svelte.ts -->
<g id="edge5" class="edge">
<title>src/routes/collection/+page.svelte.ts&#45;&gt;src/routes/collection/Binder.svelte.ts</title>
<path fill="none" stroke="#000000" stroke-width="2" stroke-opacity="0.200000" d="M111.59,-71C113.91,-71 116.25,-71 118.59,-71"/>
<polygon fill="#000000" fill-opacity="0.200000" stroke="#000000" stroke-width="2" stroke-opacity="0.200000" points="118.77,-73.1 124.77,-71 118.77,-68.9 118.77,-73.1"/>
</g>
<!-- src/routes/collection/PocketSheet.svelte.ts -->
<g id="node9" class="node">
<title>src/routes/collection/PocketSheet.svelte.ts</title>
<g id="a_node9"><a xlink:href="src/routes/collection/PocketSheet.svelte.ts" xlink:title="PocketSheet.svelte.ts">
<path fill="#ddfeff" stroke="black" d="M323.5,-80C323.5,-80 231.5,-80 231.5,-80 228.5,-80 225.5,-77 225.5,-74 225.5,-74 225.5,-68 225.5,-68 225.5,-65 228.5,-62 231.5,-62 231.5,-62 323.5,-62 323.5,-62 326.5,-62 329.5,-65 329.5,-68 329.5,-68 329.5,-74 329.5,-74 329.5,-77 326.5,-80 323.5,-80"/>
<text text-anchor="start" x="233.5" y="-68.8" font-family="Helvetica,sans-Serif" font-size="9.00">PocketSheet.svelte.ts</text>
</a>
</g>
</g>
<!-- src/routes/collection/Binder.svelte.ts&#45;&gt;src/routes/collection/PocketSheet.svelte.ts -->
<g id="edge7" class="edge">
<title>src/routes/collection/Binder.svelte.ts&#45;&gt;src/routes/collection/PocketSheet.svelte.ts</title>
<path fill="none" stroke="#000000" stroke-width="2" stroke-opacity="0.200000" d="M205.27,-71C209.7,-71 214.29,-71 218.9,-71"/>
<polygon fill="#000000" fill-opacity="0.200000" stroke="#000000" stroke-width="2" stroke-opacity="0.200000" points="219.18,-73.1 225.18,-71 219.18,-68.9 219.18,-73.1"/>
</g>
<!-- src/routes/collection/PocketSheet.svelte.ts&#45;&gt;src/lib/userBrowsesItsCollection/binder.ts -->
<g id="edge8" class="edge">
<title>src/routes/collection/PocketSheet.svelte.ts&#45;&gt;src/lib/userBrowsesItsCollection/binder.ts</title>
<path fill="none" stroke="#000000" stroke-opacity="0.200000" d="M290.02,-80.18C305.26,-93 331.78,-117.76 345.5,-145 371.93,-197.48 377.82,-268.79 379.13,-299.68"/>
<polygon fill="none" stroke="#000000" stroke-opacity="0.200000" points="377.04,-300.05 379.36,-305.97 381.24,-299.9 377.04,-300.05"/>
</g>
</g>
</svg>
