<?xml version="1.0" encoding="UTF-8" standalone="no"?>
<!DOCTYPE svg PUBLIC "-//W3C//DTD SVG 1.1//EN"
 "http://www.w3.org/Graphics/SVG/1.1/DTD/svg11.dtd">
<!-- Generated by graphviz version 2.50.0 (20211204.2007)
 -->
<!-- Title: dependency&#45;cruiser output Pages: 1 -->
<svg width="980pt" height="472pt"
 viewBox="0.00 0.00 980.00 472.00" xmlns="http://www.w3.org/2000/svg" xmlns:xlink="http://www.w3.org/1999/xlink">
<g id="graph0" class="graph" transform="scale(1 1) rotate(0) translate(4 468)">
<title>dependency&#45;cruiser output</title>
<polygon fill="white" stroke="transparent" points="-4,4 -4,-468 976,-468 976,4 -4,4"/>
<g id="clust1" class="cluster">
<title>cluster_src</title>
<path fill="#ffffff" stroke="black" stroke-width="2" d="M20,-8C20,-8 952,-8 952,-8 958,-8 964,-14 964,-20 964,-20 964,-444 964,-444 964,-450 958,-456 952,-456 952,-456 20,-456 20,-456 14,-456 8,-450 8,-444 8,-444 8,-20 8,-20 8,-14 14,-8 20,-8"/>
<text text-anchor="middle" x="486" y="-444.8" font-family="Helvetica,sans-Serif" font-weight="bold" font-size="9.00">src</text>
</g>
<g id="clust2" class="cluster">
<title>cluster_src/gathering</title>
<path fill="#ffffff" stroke="black" stroke-width="2" d="M468,-170C468,-170 944,-170 944,-170 950,-170 956,-176 956,-182 956,-182 956,-418 956,-418 956,-424 950,-430 944,-430 944,-430 468,-430 468,-430 462,-430 456,-424 456,-418 456,-418 456,-182 456,-182 456,-176 462,-170 468,-170"/>
<text text-anchor="middle" x="706" y="-418.8" font-family="Helvetica,sans-Serif" font-weight="bold" font-size="9.00">gathering</text>
</g>
<g id="clust4" class="cluster">
<title>cluster_src/gathering/CollectionEntity</title>
<path fill="#ffffff" stroke="black" stroke-width="2" d="M632,-352C632,-352 713,-352 713,-352 719,-352 725,-358 725,-364 725,-364 725,-392 725,-392 725,-398 719,-404 713,-404 713,-404 632,-404 632,-404 626,-404 620,-398 620,-392 620,-392 620,-364 620,-364 620,-358 626,-352 632,-352"/>
<text text-anchor="middle" x="672.5" y="-392.8" font-family="Helvetica,sans-Serif" font-weight="bold" font-size="9.00">CollectionEntity</text>
</g>
<g id="clust6" class="cluster">
<title>cluster_src/gathering/CollectionOrganizer</title>
<path fill="#ffffff" stroke="black" stroke-width="2" d="M623,-178C623,-178 722,-178 722,-178 728,-178 734,-184 734,-190 734,-190 734,-218 734,-218 734,-224 728,-230 722,-230 722,-230 623,-230 623,-230 617,-230 611,-224 611,-218 611,-218 611,-190 611,-190 611,-184 617,-178 623,-178"/>
<text text-anchor="middle" x="672.5" y="-218.8" font-family="Helvetica,sans-Serif" font-weight="bold" font-size="9.00">CollectionOrganizer</text>
</g>
<g id="clust5" class="cluster">
<title>cluster_src/gathering/CollectionLoader</title>
<path fill="#ffffff" stroke="black" stroke-width="2" d="M476,-304C476,-304 565,-304 565,-304 571,-304 577,-310 577,-316 577,-316 577,-344 577,-344 577,-350 571,-356 565,-356 565,-356 476,-356 476,-356 470,-356 464,-350 464,-344 464,-344 464,-316 464,-316 464,-310 470,-304 476,-304"/>
<text text-anchor="middle" x="520.5" y="-344.8" font-family="Helvetica,sans-Serif" font-weight="bold" font-size="9.00">CollectionLoader</text>
</g>
<g id="clust3" class="cluster">
<title>cluster_src/gathering/CollectionEditor</title>
<path fill="#ffffff" stroke="black" stroke-width="2" d="M478.5,-244C478.5,-244 562.5,-244 562.5,-244 568.5,-244 574.5,-250 574.5,-256 574.5,-256 574.5,-284 574.5,-284 574.5,-290 568.5,-296 562.5,-296 562.5,-296 478.5,-296 478.5,-296 472.5,-296 466.5,-290 466.5,-284 466.5,-284 466.5,-256 466.5,-256 466.5,-250 472.5,-244 478.5,-244"/>
<text text-anchor="middle" x="520.5" y="-284.8" font-family="Helvetica,sans-Serif" font-weight="bold" font-size="9.00">CollectionEditor</text>
</g>
<g id="clust7" class="cluster">
<title>cluster_src/lib</title>
<path fill="#ffffff" stroke="black" stroke-width="2" d="M450,-16C450,-16 591,-16 591,-16 597,-16 603,-22 603,-28 603,-28 603,-150 603,-150 603,-156 597,-162 591,-162 591,-162 450,-162 450,-162 444,-162 438,-156 438,-150 438,-150 438,-28 438,-28 438,-22 444,-16 450,-16"/>
<text text-anchor="middle" x="520.5" y="-150.8" font-family="Helvetica,sans-Serif" font-weight="bold" font-size="9.00">lib</text>
</g>
<g id="clust9" class="cluster">
<title>cluster_src/lib/userEditsItsCollection</title>
<path fill="#ffffff" stroke="black" stroke-width="2" d="M466,-84C466,-84 575,-84 575,-84 581,-84 587,-90 587,-96 587,-96 587,-124 587,-124 587,-130 581,-136 575,-136 575,-136 466,-136 466,-136 460,-136 454,-130 454,-124 454,-124 454,-96 454,-96 454,-90 460,-84 466,-84"/>
<text text-anchor="middle" x="520.5" y="-124.8" font-family="Helvetica,sans-Serif" font-weight="bold" font-size="9.00">userEditsItsCollection</text>
</g>
<g id="clust8" class="cluster">
<title>cluster_src/lib/userBrowsesItsCollection</title>
<path fill="#ffffff" stroke="black" stroke-width="2" d="M458,-24C458,-24 583,-24 583,-24 589,-24 595,-30 595,-36 595,-36 595,-64 595,-64 595,-70 589,-76 583,-76 583,-76 458,-76 458,-76 452,-76 446,-70 446,-64 446,-64 446,-36 446,-36 446,-30 452,-24 458,-24"/>
<text text-anchor="middle" x="520.5" y="-64.8" font-family="Helvetica,sans-Serif" font-weight="bold" font-size="9.00">userBrowsesItsCollection</text>
</g>
<g id="clust10" class="cluster">
<title>cluster_src/routes</title>
<path fill="#ffffff" stroke="black" stroke-width="2" d="M28,-16C28,-16 418,-16 418,-16 424,-16 430,-22 430,-28 430,-28 430,-90 430,-90 430,-96 424,-102 418,-102 418,-102 28,-102 28,-102 22,-102 16,-96 16,-90 16,-90 16,-28 16,-28 16,-22 22,-16 28,-16"/>
<text text-anchor="middle" x="223" y="-90.8" font-family="Helvetica,sans-Serif" font-weight="bold" font-size="9.00">routes</text>
</g>
<g id="clust11" class="cluster">
<title>cluster_src/routes/collection</title>
<path fill="#ffffff" stroke="black" stroke-width="2" d="M36,-24C36,-24 410,-24 410,-24 416,-24 422,-30 422,-36 422,-36 422,-64 422,-64 422,-70 416,-76 410,-76 410,-76 36,-76 36,-76 30,-76 24,-70 24,-64 24,-64 24,-36 24,-36 24,-30 30,-24 36,-24"/>
<text text-anchor="middle" x="223" y="-64.8" font-family="Helvetica,sans-Serif" font-weight="bold" font-size="9.00">collection</text>
</g>
<!-- src/gathering/Collection.ts -->
<g id="node1" class="node">
<title>src/gathering/Collection.ts</title>
<g id="a_node1"><a xlink:href="src/gathering/Collection.ts" xlink:title="Collection.ts">
<path fill="#ddfeff" stroke="black" d="M825,-300C825,-300 769,-300 769,-300 766,-300 763,-297 763,-294 763,-294 763,-288 763,-288 763,-285 766,-282 769,-282 769,-282 825,-282 825,-282 828,-282 831,-285 831,-288 831,-288 831,-294 831,-294 831,-297 828,-300 825,-300"/>
<text text-anchor="start" x="771" y="-288.8" font-family="Helvetica,sans-Serif" font-size="9.00">Collection.ts</text>
</a>
</g>
</g>
<!-- src/gathering/Pack.ts -->
<g id="node2" class="node">
<title>src/gathering/Pack.ts</title>
<g id="a_node2"><a xlink:href="src/gathering/Pack.ts" xlink:title="Pack.ts">
<path fill="#ddfeff" stroke="black" d="M927.5,-289C927.5,-289 885.5,-289 885.5,-289 882.5,-289 879.5,-286 879.5,-283 879.5,-283 879.5,-277 879.5,-277 879.5,-274 882.5,-271 885.5,-271 885.5,-271 927.5,-271 927.5,-271 930.5,-271 933.5,-274 933.5,-277 933.5,-277 933.5,-283 933.5,-283 933.5,-286 930.5,-289 927.5,-289"/>
<text text-anchor="start" x="891" y="-277.8" font-family="Helvetica,sans-Serif" font-size="9.00">Pack.ts</text>
</a>
</g>
</g>
<!-- src/gathering/Collection.ts&#45;&gt;src/gathering/Pack.ts -->
<g id="edge1" class="edge">
<title>src/gathering/Collection.ts&#45;&gt;src/gathering/Pack.ts</title>
<path fill="none" stroke="#000000" stroke-opacity="0.200000" d="M831.13,-287.61C844.61,-286.23 860.13,-284.64 873.5,-283.27"/>
<polygon fill="none" stroke="#000000" stroke-opacity="0.200000" points="873.72,-285.36 879.47,-282.66 873.29,-281.19 873.72,-285.36"/>
</g>
<!-- src/gathering/CollectionEditor/CollectionEditor.ts -->
<g id="node3" class="node">
<title>src/gathering/CollectionEditor/CollectionEditor.ts</title>
<g id="a_node3"><a xlink:href="src/gathering/CollectionEditor/CollectionEditor.ts" xlink:title="CollectionEditor.ts">
<path fill="#ddfeff" stroke="black" d="M560.5,-270C560.5,-270 480.5,-270 480.5,-270 477.5,-270 474.5,-267 474.5,-264 474.5,-264 474.5,-258 474.5,-258 474.5,-255 477.5,-252 480.5,-252 480.5,-252 560.5,-252 560.5,-252 563.5,-252 566.5,-255 566.5,-258 566.5,-258 566.5,-264 566.5,-264 566.5,-267 563.5,-270 560.5,-270"/>
<text text-anchor="start" x="482.5" y="-258.8" font-family="Helvetica,sans-Serif" font-size="9.00">CollectionEditor.ts</text>
</a>
</g>
</g>
<!-- src/gathering/CollectionEditor/CollectionEditor.ts&#45;&gt;src/gathering/Pack.ts -->
<g id="edge4" class="edge">
<title>src/gathering/CollectionEditor/CollectionEditor.ts&#45;&gt;src/gathering/Pack.ts</title>
<path fill="none" stroke="#000000" stroke-opacity="0.200000" d="M566.69,-262.63C630.36,-265.03 750.09,-269.88 852,-276 858.83,-276.41 866.15,-276.91 873.12,-277.43"/>
<polygon fill="none" stroke="#000000" stroke-opacity="0.200000" points="873.25,-279.54 879.39,-277.89 873.56,-275.35 873.25,-279.54"/>
</g>
<!-- src/gathering/ICollectionEditor.ts -->
<g id="node4" class="node">
<title>src/gathering/ICollectionEditor.ts</title>
<g id="a_node4"><a xlink:href="src/gathering/ICollectionEditor.ts" xlink:title="ICollectionEditor.ts">
<path fill="#ddfeff" stroke="black" d="M713.5,-256C713.5,-256 631.5,-256 631.5,-256 628.5,-256 625.5,-253 625.5,-250 625.5,-250 625.5,-244 625.5,-244 625.5,-241 628.5,-238 631.5,-238 631.5,-238 713.5,-238 713.5,-238 716.5,-238 719.5,-241 719.5,-244 719.5,-244 719.5,-250 719.5,-250 719.5,-253 716.5,-256 713.5,-256"/>
<text text-anchor="start" x="633.5" y="-244.8" font-family="Helvetica,sans-Serif" font-size="9.00">ICollectionEditor.ts</text>
</a>
</g>
</g>
<!-- src/gathering/CollectionEditor/CollectionEditor.ts&#45;&gt;src/gathering/ICollectionEditor.ts -->
<g id="edge2" class="edge">
<title>src/gathering/CollectionEditor/CollectionEditor.ts&#45;&gt;src/gathering/ICollectionEditor.ts</title>
<path fill="none" stroke="#000000" stroke-opacity="0.200000" d="M566.5,-256.8C583.11,-255.25 602.05,-253.48 619.24,-251.88"/>
<polygon fill="none" stroke="#000000" stroke-opacity="0.200000" points="619.71,-253.94 625.49,-251.29 619.32,-249.76 619.71,-253.94"/>
</g>
<!-- src/gathering/ICollectionOutput.ts -->
<g id="node5" class="node">
<title>src/gathering/ICollectionOutput.ts</title>
<g id="a_node5"><a xlink:href="src/gathering/ICollectionOutput.ts" xlink:title="ICollectionOutput.ts">
<path fill="#ddfeff" stroke="black" d="M715,-300C715,-300 630,-300 630,-300 627,-300 624,-297 624,-294 624,-294 624,-288 624,-288 624,-285 627,-282 630,-282 630,-282 715,-282 715,-282 718,-282 721,-285 721,-288 721,-288 721,-294 721,-294 721,-297 718,-300 715,-300"/>
<text text-anchor="start" x="632" y="-288.8" font-family="Helvetica,sans-Serif" font-size="9.00">ICollectionOutput.ts</text>
</a>
</g>
</g>
<!-- src/gathering/CollectionEditor/CollectionEditor.ts&#45;&gt;src/gathering/ICollectionOutput.ts -->
<g id="edge3" class="edge">
<title>src/gathering/CollectionEditor/CollectionEditor.ts&#45;&gt;src/gathering/ICollectionOutput.ts</title>
<path fill="none" stroke="#000000" stroke-opacity="0.200000" d="M566.5,-270C583.34,-273.37 602.58,-277.22 619.96,-280.69"/>
<polygon fill="none" stroke="#000000" stroke-opacity="0.200000" points="619.97,-282.84 626.27,-281.95 620.8,-278.72 619.97,-282.84"/>
</g>
<!-- src/gathering/ICollectionEditor.ts&#45;&gt;src/gathering/Pack.ts -->
<g id="edge16" class="edge">
<title>src/gathering/ICollectionEditor.ts&#45;&gt;src/gathering/Pack.ts</title>
<path fill="none" stroke="#000000" stroke-opacity="0.200000" d="M719.67,-249.46C755.9,-251.91 807.47,-256.58 852,-265 859.03,-266.33 866.49,-268.15 873.52,-270.06"/>
<polygon fill="none" stroke="#000000" stroke-opacity="0.200000" points="872.97,-272.09 879.32,-271.68 874.11,-268.05 872.97,-272.09"/>
</g>
<!-- src/gathering/ICollectionOutput.ts&#45;&gt;src/gathering/Collection.ts -->
<g id="edge19" class="edge">
<title>src/gathering/ICollectionOutput.ts&#45;&gt;src/gathering/Collection.ts</title>
<path fill="none" stroke="#000000" stroke-opacity="0.200000" d="M721.21,-291C733,-291 745.5,-291 756.83,-291"/>
<polygon fill="none" stroke="#000000" stroke-opacity="0.200000" points="756.99,-293.1 762.99,-291 756.99,-288.9 756.99,-293.1"/>
</g>
<!-- src/gathering/CollectionEntity/CollectionEntity.ts -->
<g id="node6" class="node">
<title>src/gathering/CollectionEntity/CollectionEntity.ts</title>
<g id="a_node6"><a xlink:href="src/gathering/CollectionEntity/CollectionEntity.ts" xlink:title="CollectionEntity.ts">
<path fill="#ddfeff" stroke="black" d="M711,-378C711,-378 634,-378 634,-378 631,-378 628,-375 628,-372 628,-372 628,-366 628,-366 628,-363 631,-360 634,-360 634,-360 711,-360 711,-360 714,-360 717,-363 717,-366 717,-366 717,-372 717,-372 717,-375 714,-378 711,-378"/>
<text text-anchor="start" x="636" y="-366.8" font-family="Helvetica,sans-Serif" font-size="9.00">CollectionEntity.ts</text>
</a>
</g>
</g>
<!-- src/gathering/CollectionEntity/CollectionEntity.ts&#45;&gt;src/gathering/Pack.ts -->
<g id="edge6" class="edge">
<title>src/gathering/CollectionEntity/CollectionEntity.ts&#45;&gt;src/gathering/Pack.ts</title>
<path fill="none" stroke="#000000" stroke-opacity="0.200000" d="M717.03,-363.7C723.02,-361.84 728.87,-359.34 734,-356 739.07,-352.7 737.16,-348.62 742,-345 783.56,-313.97 804.15,-326.03 852,-306 862.1,-301.77 873.01,-296.59 882.32,-291.96"/>
<polygon fill="none" stroke="#000000" stroke-opacity="0.200000" points="883.47,-293.74 887.89,-289.17 881.59,-289.98 883.47,-293.74"/>
</g>
<!-- src/gathering/IPackRepository.ts -->
<g id="node7" class="node">
<title>src/gathering/IPackRepository.ts</title>
<g id="a_node7"><a xlink:href="src/gathering/IPackRepository.ts" xlink:title="IPackRepository.ts">
<path fill="#ddfeff" stroke="black" d="M837.5,-369C837.5,-369 756.5,-369 756.5,-369 753.5,-369 750.5,-366 750.5,-363 750.5,-363 750.5,-357 750.5,-357 750.5,-354 753.5,-351 756.5,-351 756.5,-351 837.5,-351 837.5,-351 840.5,-351 843.5,-354 843.5,-357 843.5,-357 843.5,-363 843.5,-363 843.5,-366 840.5,-369 837.5,-369"/>
<text text-anchor="start" x="758.5" y="-357.8" font-family="Helvetica,sans-Serif" font-size="9.00">IPackRepository.ts</text>
</a>
</g>
</g>
<!-- src/gathering/CollectionEntity/CollectionEntity.ts&#45;&gt;src/gathering/IPackRepository.ts -->
<g id="edge5" class="edge">
<title>src/gathering/CollectionEntity/CollectionEntity.ts&#45;&gt;src/gathering/IPackRepository.ts</title>
<path fill="none" stroke="#000000" stroke-opacity="0.200000" d="M717.03,-365.8C725.75,-365.16 734.99,-364.48 743.96,-363.82"/>
<polygon fill="none" stroke="#000000" stroke-opacity="0.200000" points="744.29,-365.9 750.12,-363.37 743.98,-361.72 744.29,-365.9"/>
</g>
<!-- src/gathering/IPackRepository.ts&#45;&gt;src/gathering/Pack.ts -->
<g id="edge20" class="edge">
<title>src/gathering/IPackRepository.ts&#45;&gt;src/gathering/Pack.ts</title>
<path fill="none" stroke="#000000" stroke-opacity="0.200000" d="M821.03,-351C830.99,-346.59 842.51,-340.77 852,-334 868.17,-322.47 883.82,-305.83 893.97,-294.08"/>
<polygon fill="none" stroke="#000000" stroke-opacity="0.200000" points="895.69,-295.3 897.97,-289.37 892.48,-292.58 895.69,-295.3"/>
</g>
<!-- src/gathering/CollectionLoader/CollectionLoader.ts -->
<g id="node8" class="node">
<title>src/gathering/CollectionLoader/CollectionLoader.ts</title>
<g id="a_node8"><a xlink:href="src/gathering/CollectionLoader/CollectionLoader.ts" xlink:title="CollectionLoader.ts">
<path fill="#ddfeff" stroke="black" d="M563,-330C563,-330 478,-330 478,-330 475,-330 472,-327 472,-324 472,-324 472,-318 472,-318 472,-315 475,-312 478,-312 478,-312 563,-312 563,-312 566,-312 569,-315 569,-318 569,-318 569,-324 569,-324 569,-327 566,-330 563,-330"/>
<text text-anchor="start" x="480" y="-318.8" font-family="Helvetica,sans-Serif" font-size="9.00">CollectionLoader.ts</text>
</a>
</g>
</g>
<!-- src/gathering/CollectionLoader/CollectionLoader.ts&#45;&gt;src/gathering/Collection.ts -->
<g id="edge7" class="edge">
<title>src/gathering/CollectionLoader/CollectionLoader.ts&#45;&gt;src/gathering/Collection.ts</title>
<path fill="none" stroke="#000000" stroke-opacity="0.200000" d="M569.16,-329.79C622.74,-338.73 705.92,-349.5 734,-336 739.13,-333.53 737.78,-329.82 742,-326 751.51,-317.4 763.34,-309.48 773.5,-303.35"/>
<polygon fill="none" stroke="#000000" stroke-opacity="0.200000" points="774.85,-305 778.95,-300.14 772.72,-301.38 774.85,-305"/>
</g>
<!-- src/gathering/CollectionLoader/CollectionLoader.ts&#45;&gt;src/gathering/ICollectionEditor.ts -->
<g id="edge8" class="edge">
<title>src/gathering/CollectionLoader/CollectionLoader.ts&#45;&gt;src/gathering/ICollectionEditor.ts</title>
<path fill="none" stroke="#000000" stroke-opacity="0.200000" d="M569.38,-316.14C581.55,-312.89 593.78,-307.59 603,-299 610.92,-291.62 603.79,-284.07 611,-276 617.62,-268.59 626.55,-262.9 635.5,-258.61"/>
<polygon fill="none" stroke="#000000" stroke-opacity="0.200000" points="636.45,-260.48 641.07,-256.11 634.73,-256.65 636.45,-260.48"/>
</g>
<!-- src/gathering/CollectionLoader/CollectionLoader.ts&#45;&gt;src/gathering/ICollectionOutput.ts -->
<g id="edge10" class="edge">
<title>src/gathering/CollectionLoader/CollectionLoader.ts&#45;&gt;src/gathering/ICollectionOutput.ts</title>
<path fill="none" stroke="#000000" stroke-opacity="0.200000" d="M566.5,-312C583.34,-308.63 602.58,-304.78 619.96,-301.31"/>
<polygon fill="none" stroke="#000000" stroke-opacity="0.200000" points="620.8,-303.28 626.27,-300.05 619.97,-299.16 620.8,-303.28"/>
</g>
<!-- src/gathering/ICollectionLoader.ts -->
<g id="node9" class="node">
<title>src/gathering/ICollectionLoader.ts</title>
<g id="a_node9"><a xlink:href="src/gathering/ICollectionLoader.ts" xlink:title="ICollectionLoader.ts">
<path fill="#ddfeff" stroke="black" d="M716,-330C716,-330 629,-330 629,-330 626,-330 623,-327 623,-324 623,-324 623,-318 623,-318 623,-315 626,-312 629,-312 629,-312 716,-312 716,-312 719,-312 722,-315 722,-318 722,-318 722,-324 722,-324 722,-327 719,-330 716,-330"/>
<text text-anchor="start" x="631" y="-318.8" font-family="Helvetica,sans-Serif" font-size="9.00">ICollectionLoader.ts</text>
</a>
</g>
</g>
<!-- src/gathering/CollectionLoader/CollectionLoader.ts&#45;&gt;src/gathering/ICollectionLoader.ts -->
<g id="edge9" class="edge">
<title>src/gathering/CollectionLoader/CollectionLoader.ts&#45;&gt;src/gathering/ICollectionLoader.ts</title>
<path fill="none" stroke="#000000" stroke-opacity="0.200000" d="M569.37,-321C584.44,-321 601.19,-321 616.69,-321"/>
<polygon fill="none" stroke="#000000" stroke-opacity="0.200000" points="616.79,-323.1 622.79,-321 616.79,-318.9 616.79,-323.1"/>
</g>
<!-- src/gathering/ICollectionLoader.ts&#45;&gt;src/gathering/Collection.ts -->
<g id="edge17" class="edge">
<title>src/gathering/ICollectionLoader.ts&#45;&gt;src/gathering/Collection.ts</title>
<path fill="none" stroke="#000000" stroke-opacity="0.200000" d="M710.25,-312C724.81,-308.43 741.57,-304.33 756.39,-300.7"/>
<polygon fill="none" stroke="#000000" stroke-opacity="0.200000" points="757.28,-302.64 762.61,-299.18 756.28,-298.56 757.28,-302.64"/>
</g>
<!-- src/gathering/CollectionOrganizer/CollectionOrganizer.ts -->
<g id="node10" class="node">
<title>src/gathering/CollectionOrganizer/CollectionOrganizer.ts</title>
<g id="a_node10"><a xlink:href="src/gathering/CollectionOrganizer/CollectionOrganizer.ts" xlink:title="CollectionOrganizer.ts">
<path fill="#ddfeff" stroke="black" d="M720,-204C720,-204 625,-204 625,-204 622,-204 619,-201 619,-198 619,-198 619,-192 619,-192 619,-189 622,-186 625,-186 625,-186 720,-186 720,-186 723,-186 726,-189 726,-192 726,-192 726,-198 726,-198 726,-201 723,-204 720,-204"/>
<text text-anchor="start" x="627" y="-192.8" font-family="Helvetica,sans-Serif" font-size="9.00">CollectionOrganizer.ts</text>
</a>
</g>
</g>
<!-- src/gathering/IBinderOutput.ts -->
<g id="node11" class="node">
<title>src/gathering/IBinderOutput.ts</title>
<g id="a_node11"><a xlink:href="src/gathering/IBinderOutput.ts" xlink:title="IBinderOutput.ts">
<path fill="#ddfeff" stroke="black" d="M942,-207C942,-207 871,-207 871,-207 868,-207 865,-204 865,-201 865,-201 865,-195 865,-195 865,-192 868,-189 871,-189 871,-189 942,-189 942,-189 945,-189 948,-192 948,-195 948,-195 948,-201 948,-201 948,-204 945,-207 942,-207"/>
<text text-anchor="start" x="873" y="-195.8" font-family="Helvetica,sans-Serif" font-size="9.00">IBinderOutput.ts</text>
</a>
</g>
</g>
<!-- src/gathering/CollectionOrganizer/CollectionOrganizer.ts&#45;&gt;src/gathering/IBinderOutput.ts -->
<g id="edge11" class="edge">
<title>src/gathering/CollectionOrganizer/CollectionOrganizer.ts&#45;&gt;src/gathering/IBinderOutput.ts</title>
<path fill="none" stroke="#000000" stroke-opacity="0.200000" d="M726.19,-200.93C731.52,-201.37 736.87,-201.74 742,-202 790.83,-204.49 803.15,-203.82 852,-202 854.23,-201.92 856.5,-201.81 858.8,-201.7"/>
<polygon fill="none" stroke="#000000" stroke-opacity="0.200000" points="859.04,-203.79 864.91,-201.35 858.81,-199.59 859.04,-203.79"/>
</g>
<!-- src/gathering/ICardRepository.ts -->
<g id="node12" class="node">
<title>src/gathering/ICardRepository.ts</title>
<g id="a_node12"><a xlink:href="src/gathering/ICardRepository.ts" xlink:title="ICardRepository.ts">
<path fill="#ddfeff" stroke="black" d="M837.5,-240C837.5,-240 756.5,-240 756.5,-240 753.5,-240 750.5,-237 750.5,-234 750.5,-234 750.5,-228 750.5,-228 750.5,-225 753.5,-222 756.5,-222 756.5,-222 837.5,-222 837.5,-222 840.5,-222 843.5,-225 843.5,-228 843.5,-228 843.5,-234 843.5,-234 843.5,-237 840.5,-240 837.5,-240"/>
<text text-anchor="start" x="758.5" y="-228.8" font-family="Helvetica,sans-Serif" font-size="9.00">ICardRepository.ts</text>
</a>
</g>
</g>
<!-- src/gathering/CollectionOrganizer/CollectionOrganizer.ts&#45;&gt;src/gathering/ICardRepository.ts -->
<g id="edge12" class="edge">
<title>src/gathering/CollectionOrganizer/CollectionOrganizer.ts&#45;&gt;src/gathering/ICardRepository.ts</title>
<path fill="none" stroke="#000000" stroke-opacity="0.200000" d="M722.81,-204.08C726.64,-205.25 730.42,-206.55 734,-208 737.89,-209.58 738.21,-211.21 742,-213 747.36,-215.53 753.18,-217.86 758.94,-219.95"/>
<polygon fill="none" stroke="#000000" stroke-opacity="0.200000" points="758.31,-221.95 764.67,-221.95 759.7,-217.99 758.31,-221.95"/>
</g>
<!-- src/gathering/ICollectionOrganizer.ts -->
<g id="node13" class="node">
<title>src/gathering/ICollectionOrganizer.ts</title>
<g id="a_node13"><a xlink:href="src/gathering/ICollectionOrganizer.ts" xlink:title="ICollectionOrganizer.ts">
<path fill="#ddfeff" stroke="black" d="M846,-196C846,-196 748,-196 748,-196 745,-196 742,-193 742,-190 742,-190 742,-184 742,-184 742,-181 745,-178 748,-178 748,-178 846,-178 846,-178 849,-178 852,-181 852,-184 852,-184 852,-190 852,-190 852,-193 849,-196 846,-196"/>
<text text-anchor="start" x="750" y="-184.8" font-family="Helvetica,sans-Serif" font-size="9.00">ICollectionOrganizer.ts</text>
</a>
</g>
</g>
<!-- src/gathering/CollectionOrganizer/CollectionOrganizer.ts&#45;&gt;src/gathering/ICollectionOrganizer.ts -->
<g id="edge13" class="edge">
<title>src/gathering/CollectionOrganizer/CollectionOrganizer.ts&#45;&gt;src/gathering/ICollectionOrganizer.ts</title>
<path fill="none" stroke="#000000" stroke-opacity="0.200000" d="M726.16,-191.56C729.24,-191.36 732.35,-191.16 735.46,-190.95"/>
<polygon fill="none" stroke="#000000" stroke-opacity="0.200000" points="735.97,-193.02 741.82,-190.54 735.7,-188.83 735.97,-193.02"/>
</g>
<!-- src/gathering/ICardRepository.ts&#45;&gt;src/gathering/Pack.ts -->
<g id="edge14" class="edge">
<title>src/gathering/ICardRepository.ts&#45;&gt;src/gathering/Pack.ts</title>
<path fill="none" stroke="#000000" stroke-opacity="0.200000" d="M826.67,-240.05C834.96,-242.95 843.94,-246.36 852,-250 863.46,-255.18 875.74,-261.97 885.63,-267.78"/>
<polygon fill="none" stroke="#000000" stroke-opacity="0.200000" points="884.64,-269.63 890.87,-270.89 886.78,-266.02 884.64,-269.63"/>
</g>
<!-- src/gathering/ICardRepository.ts&#45;&gt;src/gathering/IBinderOutput.ts -->
<g id="edge15" class="edge">
<title>src/gathering/ICardRepository.ts&#45;&gt;src/gathering/IBinderOutput.ts</title>
<path fill="none" stroke="#000000" stroke-opacity="0.200000" d="M827.37,-221.98C840.65,-217.91 856.44,-213.06 870.33,-208.8"/>
<polygon fill="none" stroke="#000000" stroke-opacity="0.200000" points="871.04,-210.77 876.16,-207.01 869.81,-206.76 871.04,-210.77"/>
</g>
<!-- src/gathering/ICollectionOrganizer.ts&#45;&gt;src/gathering/IBinderOutput.ts -->
<g id="edge18" class="edge">
<title>src/gathering/ICollectionOrganizer.ts&#45;&gt;src/gathering/IBinderOutput.ts</title>
<path fill="none" stroke="#000000" stroke-opacity="0.200000" d="M852.06,-192.53C854.21,-192.75 856.35,-192.97 858.48,-193.19"/>
<polygon fill="none" stroke="#000000" stroke-opacity="0.200000" points="858.63,-195.31 864.81,-193.84 859.05,-191.14 858.63,-195.31"/>
</g>
<!-- src/lib/userBrowsesItsCollection/userBrowsesItsCollection.ts -->
<g id="node14" class="node">
<title>src/lib/userBrowsesItsCollection/userBrowsesItsCollection.ts</title>
<g id="a_node14"><a xlink:href="src/lib/userBrowsesItsCollection/userBrowsesItsCollection.ts" xlink:title="userBrowsesItsCollection.ts">
<path fill="#ddfeff" stroke="black" d="M581,-50C581,-50 460,-50 460,-50 457,-50 454,-47 454,-44 454,-44 454,-38 454,-38 454,-35 457,-32 460,-32 460,-32 581,-32 581,-32 584,-32 587,-35 587,-38 587,-38 587,-44 587,-44 587,-47 584,-50 581,-50"/>
<text text-anchor="start" x="462" y="-38.8" font-family="Helvetica,sans-Serif" font-size="9.00">userBrowsesItsCollection.ts</text>
</a>
</g>
</g>
<!-- src/lib/userBrowsesItsCollection/userBrowsesItsCollection.ts&#45;&gt;src/gathering/IBinderOutput.ts -->
<g id="edge21" class="edge">
<title>src/lib/userBrowsesItsCollection/userBrowsesItsCollection.ts&#45;&gt;src/gathering/IBinderOutput.ts</title>
<path fill="none" stroke="#000000" stroke-opacity="0.200000" d="M587.39,-41.53C630.51,-43.89 687.31,-50.89 734,-70 801.29,-97.53 865.91,-157.76 892.63,-184.62"/>
<polygon fill="none" stroke="#000000" stroke-opacity="0.200000" points="891.17,-186.13 896.88,-188.93 894.16,-183.18 891.17,-186.13"/>
</g>
<!-- src/lib/userBrowsesItsCollection/userBrowsesItsCollection.ts&#45;&gt;src/gathering/ICollectionOrganizer.ts -->
<g id="edge22" class="edge">
<title>src/lib/userBrowsesItsCollection/userBrowsesItsCollection.ts&#45;&gt;src/gathering/ICollectionOrganizer.ts</title>
<path fill="none" stroke="#000000" stroke-opacity="0.200000" d="M551.2,-50.06C593.73,-63.8 673.53,-92.44 734,-131 752.79,-142.98 771.35,-160.74 783.2,-173.04"/>
<polygon fill="none" stroke="#000000" stroke-opacity="0.200000" points="781.89,-174.71 787.54,-177.62 784.94,-171.82 781.89,-174.71"/>
</g>
<!-- src/lib/userEditsItsCollection/userEditsItsCollection.ts -->
<g id="node15" class="node">
<title>src/lib/userEditsItsCollection/userEditsItsCollection.ts</title>
<g id="a_node15"><a xlink:href="src/lib/userEditsItsCollection/userEditsItsCollection.ts" xlink:title="userEditsItsCollection.ts">
<path fill="#ddfeff" stroke="black" d="M573,-110C573,-110 468,-110 468,-110 465,-110 462,-107 462,-104 462,-104 462,-98 462,-98 462,-95 465,-92 468,-92 468,-92 573,-92 573,-92 576,-92 579,-95 579,-98 579,-98 579,-104 579,-104 579,-107 576,-110 573,-110"/>
<text text-anchor="start" x="470" y="-98.8" font-family="Helvetica,sans-Serif" font-size="9.00">userEditsItsCollection.ts</text>
</a>
</g>
</g>
<!-- src/lib/userEditsItsCollection/userEditsItsCollection.ts&#45;&gt;src/gathering/Collection.ts -->
<g id="edge23" class="edge">
<title>src/lib/userEditsItsCollection/userEditsItsCollection.ts&#45;&gt;src/gathering/Collection.ts</title>
<path fill="none" stroke="#000000" stroke-opacity="0.200000" d="M579.39,-104.68C628.53,-111.1 696.82,-128.45 734,-175 753.82,-199.81 726.94,-218.04 742,-246 749.33,-259.6 762.62,-270.76 774.18,-278.56"/>
<polygon fill="none" stroke="#000000" stroke-opacity="0.200000" points="773.16,-280.4 779.34,-281.9 775.44,-276.88 773.16,-280.4"/>
</g>
<!-- src/lib/userEditsItsCollection/userEditsItsCollection.ts&#45;&gt;src/gathering/ICollectionEditor.ts -->
<g id="edge24" class="edge">
<title>src/lib/userEditsItsCollection/userEditsItsCollection.ts&#45;&gt;src/gathering/ICollectionEditor.ts</title>
<path fill="none" stroke="#000000" stroke-opacity="0.200000" d="M524.89,-110.09C534.39,-134.29 563.74,-200.58 611,-233 613.72,-234.87 616.66,-236.49 619.72,-237.9"/>
<polygon fill="none" stroke="#000000" stroke-opacity="0.200000" points="619,-239.87 625.35,-240.2 620.59,-235.98 619,-239.87"/>
</g>
<!-- src/lib/userEditsItsCollection/userEditsItsCollection.ts&#45;&gt;src/gathering/ICollectionOutput.ts -->
<g id="edge25" class="edge">
<title>src/lib/userEditsItsCollection/userEditsItsCollection.ts&#45;&gt;src/gathering/ICollectionOutput.ts</title>
<path fill="none" stroke="#000000" stroke-opacity="0.200000" d="M527.58,-110.22C541.93,-132.21 578.52,-189.74 603,-241 607.3,-250.01 604.24,-254.65 611,-262 617.79,-269.38 626.86,-275.08 635.91,-279.39"/>
<polygon fill="none" stroke="#000000" stroke-opacity="0.200000" points="635.18,-281.37 641.52,-281.9 636.9,-277.53 635.18,-281.37"/>
</g>
<!-- src/routes/collection/+page.svelte.ts -->
<g id="node16" class="node">
<title>src/routes/collection/+page.svelte.ts</title>
<g id="a_node16"><a xlink:href="src/routes/collection/+page.svelte.ts" xlink:title="+page.svelte.ts">
<path fill="#ddfeff" stroke="black" d="M105,-50C105,-50 38,-50 38,-50 35,-50 32,-47 32,-44 32,-44 32,-38 32,-38 32,-35 35,-32 38,-32 38,-32 105,-32 105,-32 108,-32 111,-35 111,-38 111,-38 111,-44 111,-44 111,-47 108,-50 105,-50"/>
<text text-anchor="start" x="40" y="-38.8" font-family="Helvetica,sans-Serif" font-size="9.00">+page.svelte.ts</text>
</a>
</g>
</g>
<!-- src/routes/collection/+page.svelte.ts&#45;&gt;src/lib/userBrowsesItsCollection/userBrowsesItsCollection.ts -->
<g id="edge27" class="edge">
<title>src/routes/collection/+page.svelte.ts&#45;&gt;src/lib/userBrowsesItsCollection/userBrowsesItsCollection.ts</title>
<path fill="none" stroke="#000000" stroke-width="2" stroke-opacity="0.200000" d="M98.67,-50.02C106.7,-52.41 115.63,-54.68 124,-56 258.37,-77.13 294.88,-77.64 430,-62 447.5,-59.97 466.54,-55.79 482.54,-51.69"/>
<polygon fill="#000000" fill-opacity="0.200000" stroke="#000000" stroke-width="2" stroke-opacity="0.200000" points="483.47,-53.62 488.75,-50.07 482.41,-49.56 483.47,-53.62"/>
</g>
<!-- src/routes/collection/Binder.svelte.ts -->
<g id="node17" class="node">
<title>src/routes/collection/Binder.svelte.ts</title>
<g id="a_node17"><a xlink:href="src/routes/collection/Binder.svelte.ts" xlink:title="Binder.svelte.ts">
<path fill="#ddfeff" stroke="black" d="M198,-50C198,-50 130,-50 130,-50 127,-50 124,-47 124,-44 124,-44 124,-38 124,-38 124,-35 127,-32 130,-32 130,-32 198,-32 198,-32 201,-32 204,-35 204,-38 204,-38 204,-44 204,-44 204,-47 201,-50 198,-50"/>
<text text-anchor="start" x="132" y="-38.8" font-family="Helvetica,sans-Serif" font-size="9.00">Binder.svelte.ts</text>
</a>
</g>
</g>
<!-- src/routes/collection/+page.svelte.ts&#45;&gt;src/routes/collection/Binder.svelte.ts -->
<g id="edge26" class="edge">
<title>src/routes/collection/+page.svelte.ts&#45;&gt;src/routes/collection/Binder.svelte.ts</title>
<path fill="none" stroke="#000000" stroke-width="2" stroke-opacity="0.200000" d="M111.14,-41C113.26,-41 115.39,-41 117.52,-41"/>
<polygon fill="#000000" fill-opacity="0.200000" stroke="#000000" stroke-width="2" stroke-opacity="0.200000" points="117.91,-43.1 123.91,-41 117.91,-38.9 117.91,-43.1"/>
</g>
<!-- src/routes/collection/Binder.svelte.ts&#45;&gt;src/lib/userBrowsesItsCollection/userBrowsesItsCollection.ts -->
<g id="edge29" class="edge">
<title>src/routes/collection/Binder.svelte.ts&#45;&gt;src/lib/userBrowsesItsCollection/userBrowsesItsCollection.ts</title>
<path fill="none" stroke="#000000" stroke-opacity="0.200000" d="M190.88,-31.99C199.12,-29.54 208.35,-27.22 217,-26 310.73,-12.75 335.66,-18.15 430,-26 442.55,-27.04 455.98,-28.9 468.53,-30.96"/>
<polygon fill="none" stroke="#000000" stroke-opacity="0.200000" points="468.35,-33.05 474.61,-31.98 469.04,-28.91 468.35,-33.05"/>
</g>
<!-- src/routes/collection/PocketSheet.svelte.ts -->
<g id="node18" class="node">
<title>src/routes/collection/PocketSheet.svelte.ts</title>
<g id="a_node18"><a xlink:href="src/routes/collection/PocketSheet.svelte.ts" xlink:title="PocketSheet.svelte.ts">
<path fill="#ddfeff" stroke="black" d="M315,-50C315,-50 223,-50 223,-50 220,-50 217,-47 217,-44 217,-44 217,-38 217,-38 217,-35 220,-32 223,-32 223,-32 315,-32 315,-32 318,-32 321,-35 321,-38 321,-38 321,-44 321,-44 321,-47 318,-50 315,-50"/>
<text text-anchor="start" x="225" y="-38.8" font-family="Helvetica,sans-Serif" font-size="9.00">PocketSheet.svelte.ts</text>
</a>
</g>
</g>
<!-- src/routes/collection/Binder.svelte.ts&#45;&gt;src/routes/collection/PocketSheet.svelte.ts -->
<g id="edge28" class="edge">
<title>src/routes/collection/Binder.svelte.ts&#45;&gt;src/routes/collection/PocketSheet.svelte.ts</title>
<path fill="none" stroke="#000000" stroke-width="2" stroke-opacity="0.200000" d="M204.23,-41C206.28,-41 208.35,-41 210.44,-41"/>
<polygon fill="#000000" fill-opacity="0.200000" stroke="#000000" stroke-width="2" stroke-opacity="0.200000" points="210.73,-43.1 216.73,-41 210.73,-38.9 210.73,-43.1"/>
</g>
<!-- src/routes/collection/PocketSheet.svelte.ts&#45;&gt;src/lib/userBrowsesItsCollection/userBrowsesItsCollection.ts -->
<g id="edge32" class="edge">
<title>src/routes/collection/PocketSheet.svelte.ts&#45;&gt;src/lib/userBrowsesItsCollection/userBrowsesItsCollection.ts</title>
<path fill="none" stroke="#000000" stroke-opacity="0.200000" d="M301.98,-50.02C312.13,-52.47 323.46,-54.78 334,-56 376.38,-60.9 387.48,-59.54 430,-56 442.55,-54.96 455.98,-53.1 468.53,-51.04"/>
<polygon fill="none" stroke="#000000" stroke-opacity="0.200000" points="469.04,-53.09 474.61,-50.02 468.35,-48.95 469.04,-53.09"/>
</g>
<!-- src/routes/collection/Pocket.svelte.ts -->
<g id="node19" class="node">
<title>src/routes/collection/Pocket.svelte.ts</title>
<g id="a_node19"><a xlink:href="src/routes/collection/Pocket.svelte.ts" xlink:title="Pocket.svelte.ts">
<path fill="#ddfeff" stroke="black" d="M408,-50C408,-50 340,-50 340,-50 337,-50 334,-47 334,-44 334,-44 334,-38 334,-38 334,-35 337,-32 340,-32 340,-32 408,-32 408,-32 411,-32 414,-35 414,-38 414,-38 414,-44 414,-44 414,-47 411,-50 408,-50"/>
<text text-anchor="start" x="342" y="-38.8" font-family="Helvetica,sans-Serif" font-size="9.00">Pocket.svelte.ts</text>
</a>
</g>
</g>
<!-- src/routes/collection/PocketSheet.svelte.ts&#45;&gt;src/routes/collection/Pocket.svelte.ts -->
<g id="edge31" class="edge">
<title>src/routes/collection/PocketSheet.svelte.ts&#45;&gt;src/routes/collection/Pocket.svelte.ts</title>
<path fill="none" stroke="#000000" stroke-width="2" stroke-opacity="0.200000" d="M321.2,-41C323.32,-41 325.44,-41 327.55,-41"/>
<polygon fill="#000000" fill-opacity="0.200000" stroke="#000000" stroke-width="2" stroke-opacity="0.200000" points="327.81,-43.1 333.81,-41 327.81,-38.9 327.81,-43.1"/>
</g>
<!-- src/routes/collection/Pocket.svelte.ts&#45;&gt;src/lib/userBrowsesItsCollection/userBrowsesItsCollection.ts -->
<g id="edge30" class="edge">
<title>src/routes/collection/Pocket.svelte.ts&#45;&gt;src/lib/userBrowsesItsCollection/userBrowsesItsCollection.ts</title>
<path fill="none" stroke="#000000" stroke-opacity="0.200000" d="M414.1,-41C424.57,-41 436.21,-41 447.84,-41"/>
<polygon fill="none" stroke="#000000" stroke-opacity="0.200000" points="447.91,-43.1 453.91,-41 447.91,-38.9 447.91,-43.1"/>
</g>
</g>
</svg>
