<?xml version="1.0" encoding="UTF-8" standalone="no"?>
<!DOCTYPE svg PUBLIC "-//W3C//DTD SVG 1.1//EN"
 "http://www.w3.org/Graphics/SVG/1.1/DTD/svg11.dtd">
<!-- Generated by graphviz version 2.50.0 (20211204.2007)
 -->
<!-- Title: dependency&#45;cruiser output Pages: 1 -->
<svg width="875pt" height="701pt"
 viewBox="0.00 0.00 875.00 701.40" xmlns="http://www.w3.org/2000/svg" xmlns:xlink="http://www.w3.org/1999/xlink">
<g id="graph0" class="graph" transform="scale(1 1) rotate(0) translate(4 697.4)">
<title>dependency&#45;cruiser output</title>
<polygon fill="white" stroke="transparent" points="-4,4 -4,-697.4 871,-697.4 871,4 -4,4"/>
<g id="clust1" class="cluster">
<title>cluster_src</title>
<path fill="#ffffff" stroke="black" stroke-width="2" d="M20,-57.4C20,-57.4 847,-57.4 847,-57.4 853,-57.4 859,-63.4 859,-69.4 859,-69.4 859,-673.4 859,-673.4 859,-679.4 853,-685.4 847,-685.4 847,-685.4 20,-685.4 20,-685.4 14,-685.4 8,-679.4 8,-673.4 8,-673.4 8,-69.4 8,-69.4 8,-63.4 14,-57.4 20,-57.4"/>
<text text-anchor="middle" x="433.5" y="-674.2" font-family="Helvetica,sans-Serif" font-weight="bold" font-size="9.00">src</text>
</g>
<g id="clust5" class="cluster">
<title>cluster_src/lib</title>
<path fill="#ffffff" stroke="black" stroke-width="2" d="M140,-303.4C140,-303.4 518,-303.4 518,-303.4 524,-303.4 530,-309.4 530,-315.4 530,-315.4 530,-647.4 530,-647.4 530,-653.4 524,-659.4 518,-659.4 518,-659.4 140,-659.4 140,-659.4 134,-659.4 128,-653.4 128,-647.4 128,-647.4 128,-315.4 128,-315.4 128,-309.4 134,-303.4 140,-303.4"/>
<text text-anchor="middle" x="329" y="-648.2" font-family="Helvetica,sans-Serif" font-weight="bold" font-size="9.00">lib</text>
</g>
<g id="clust6" class="cluster">
<title>cluster_src/lib/BinderStorage</title>
<path fill="#ffffff" stroke="black" stroke-width="2" d="M456,-581.4C456,-581.4 510,-581.4 510,-581.4 516,-581.4 522,-587.4 522,-593.4 522,-593.4 522,-621.4 522,-621.4 522,-627.4 516,-633.4 510,-633.4 510,-633.4 456,-633.4 456,-633.4 450,-633.4 444,-627.4 444,-621.4 444,-621.4 444,-593.4 444,-593.4 444,-587.4 450,-581.4 456,-581.4"/>
<text text-anchor="middle" x="483" y="-622.2" font-family="Helvetica,sans-Serif" font-weight="bold" font-size="9.00">BinderStorage</text>
</g>
<g id="clust7" class="cluster">
<title>cluster_src/lib/Components</title>
<path fill="#ffffff" stroke="black" stroke-width="2" d="M161.5,-521.4C161.5,-521.4 407,-521.4 407,-521.4 413,-521.4 419,-527.4 419,-533.4 419,-533.4 419,-561.4 419,-561.4 419,-567.4 413,-573.4 407,-573.4 407,-573.4 161.5,-573.4 161.5,-573.4 155.5,-573.4 149.5,-567.4 149.5,-561.4 149.5,-561.4 149.5,-533.4 149.5,-533.4 149.5,-527.4 155.5,-521.4 161.5,-521.4"/>
<text text-anchor="middle" x="284.25" y="-562.2" font-family="Helvetica,sans-Serif" font-weight="bold" font-size="9.00">Components</text>
</g>
<g id="clust12" class="cluster">
<title>cluster_src/lib/userEditsCollection</title>
<path fill="#ffffff" stroke="black" stroke-width="2" d="M148,-461.4C148,-461.4 247,-461.4 247,-461.4 253,-461.4 259,-467.4 259,-473.4 259,-473.4 259,-501.4 259,-501.4 259,-507.4 253,-513.4 247,-513.4 247,-513.4 148,-513.4 148,-513.4 142,-513.4 136,-507.4 136,-501.4 136,-501.4 136,-473.4 136,-473.4 136,-467.4 142,-461.4 148,-461.4"/>
<text text-anchor="middle" x="197.5" y="-502.2" font-family="Helvetica,sans-Serif" font-weight="bold" font-size="9.00">userEditsCollection</text>
</g>
<g id="clust8" class="cluster">
<title>cluster_src/lib/Presenters</title>
<path fill="#ffffff" stroke="black" stroke-width="2" d="M314.5,-581.4C314.5,-581.4 403.5,-581.4 403.5,-581.4 409.5,-581.4 415.5,-587.4 415.5,-593.4 415.5,-593.4 415.5,-621.4 415.5,-621.4 415.5,-627.4 409.5,-633.4 403.5,-633.4 403.5,-633.4 314.5,-633.4 314.5,-633.4 308.5,-633.4 302.5,-627.4 302.5,-621.4 302.5,-621.4 302.5,-593.4 302.5,-593.4 302.5,-587.4 308.5,-581.4 314.5,-581.4"/>
<text text-anchor="middle" x="359" y="-622.2" font-family="Helvetica,sans-Serif" font-weight="bold" font-size="9.00">Presenters</text>
</g>
<g id="clust9" class="cluster">
<title>cluster_src/lib/ViewModels</title>
<path fill="#ffffff" stroke="black" stroke-width="2" d="M460,-521.4C460,-521.4 506,-521.4 506,-521.4 512,-521.4 518,-527.4 518,-533.4 518,-533.4 518,-561.4 518,-561.4 518,-567.4 512,-573.4 506,-573.4 506,-573.4 460,-573.4 460,-573.4 454,-573.4 448,-567.4 448,-561.4 448,-561.4 448,-533.4 448,-533.4 448,-527.4 454,-521.4 460,-521.4"/>
<text text-anchor="middle" x="483" y="-562.2" font-family="Helvetica,sans-Serif" font-weight="bold" font-size="9.00">ViewModels</text>
</g>
<g id="clust10" class="cluster">
<title>cluster_src/lib/server</title>
<path fill="#ffffff" stroke="black" stroke-width="2" d="M159,-311.4C159,-311.4 236,-311.4 236,-311.4 242,-311.4 248,-317.4 248,-323.4 248,-323.4 248,-441.4 248,-441.4 248,-447.4 242,-453.4 236,-453.4 236,-453.4 159,-453.4 159,-453.4 153,-453.4 147,-447.4 147,-441.4 147,-441.4 147,-323.4 147,-323.4 147,-317.4 153,-311.4 159,-311.4"/>
<text text-anchor="middle" x="197.5" y="-442.2" font-family="Helvetica,sans-Serif" font-weight="bold" font-size="9.00">server</text>
</g>
<g id="clust11" class="cluster">
<title>cluster_src/lib/server/collection</title>
<path fill="#ffffff" stroke="black" stroke-width="2" d="M173.5,-375.4C173.5,-375.4 221.5,-375.4 221.5,-375.4 227.5,-375.4 233.5,-381.4 233.5,-387.4 233.5,-387.4 233.5,-415.4 233.5,-415.4 233.5,-421.4 227.5,-427.4 221.5,-427.4 221.5,-427.4 173.5,-427.4 173.5,-427.4 167.5,-427.4 161.5,-421.4 161.5,-415.4 161.5,-415.4 161.5,-387.4 161.5,-387.4 161.5,-381.4 167.5,-375.4 173.5,-375.4"/>
<text text-anchor="middle" x="197.5" y="-416.2" font-family="Helvetica,sans-Serif" font-weight="bold" font-size="9.00">collection</text>
</g>
<g id="clust2" class="cluster">
<title>cluster_src/gathering</title>
<path fill="#ffffff" stroke="black" stroke-width="2" d="M300.5,-71.4C300.5,-71.4 839,-71.4 839,-71.4 845,-71.4 851,-77.4 851,-83.4 851,-83.4 851,-283.4 851,-283.4 851,-289.4 845,-295.4 839,-295.4 839,-295.4 300.5,-295.4 300.5,-295.4 294.5,-295.4 288.5,-289.4 288.5,-283.4 288.5,-283.4 288.5,-83.4 288.5,-83.4 288.5,-77.4 294.5,-71.4 300.5,-71.4"/>
<text text-anchor="middle" x="569.75" y="-284.2" font-family="Helvetica,sans-Serif" font-weight="bold" font-size="9.00">gathering</text>
</g>
<g id="clust3" class="cluster">
<title>cluster_src/gathering/CollectionEditor</title>
<path fill="#ffffff" stroke="black" stroke-width="2" d="M308.5,-163.4C308.5,-163.4 535,-163.4 535,-163.4 541,-163.4 547,-169.4 547,-175.4 547,-175.4 547,-233.4 547,-233.4 547,-239.4 541,-245.4 535,-245.4 535,-245.4 308.5,-245.4 308.5,-245.4 302.5,-245.4 296.5,-239.4 296.5,-233.4 296.5,-233.4 296.5,-175.4 296.5,-175.4 296.5,-169.4 302.5,-163.4 308.5,-163.4"/>
<text text-anchor="middle" x="421.75" y="-234.2" font-family="Helvetica,sans-Serif" font-weight="bold" font-size="9.00">CollectionEditor</text>
</g>
<g id="clust4" class="cluster">
<title>cluster_src/gathering/PackRepository</title>
<path fill="#ffffff" stroke="black" stroke-width="2" d="M582.5,-105.4C582.5,-105.4 642.5,-105.4 642.5,-105.4 648.5,-105.4 654.5,-111.4 654.5,-117.4 654.5,-117.4 654.5,-145.4 654.5,-145.4 654.5,-151.4 648.5,-157.4 642.5,-157.4 642.5,-157.4 582.5,-157.4 582.5,-157.4 576.5,-157.4 570.5,-151.4 570.5,-145.4 570.5,-145.4 570.5,-117.4 570.5,-117.4 570.5,-111.4 576.5,-105.4 582.5,-105.4"/>
<text text-anchor="middle" x="612.5" y="-146.2" font-family="Helvetica,sans-Serif" font-weight="bold" font-size="9.00">PackRepository</text>
</g>
<g id="clust13" class="cluster">
<title>cluster_src/routes</title>
<path fill="#ffffff" stroke="black" stroke-width="2" d="M28,-145.4C28,-145.4 268.5,-145.4 268.5,-145.4 274.5,-145.4 280.5,-151.4 280.5,-157.4 280.5,-157.4 280.5,-283.4 280.5,-283.4 280.5,-289.4 274.5,-295.4 268.5,-295.4 268.5,-295.4 28,-295.4 28,-295.4 22,-295.4 16,-289.4 16,-283.4 16,-283.4 16,-157.4 16,-157.4 16,-151.4 22,-145.4 28,-145.4"/>
<text text-anchor="middle" x="148.25" y="-284.2" font-family="Helvetica,sans-Serif" font-weight="bold" font-size="9.00">routes</text>
</g>
<g id="clust14" class="cluster">
<title>cluster_src/routes/collection</title>
<path fill="#ffffff" stroke="black" stroke-width="2" d="M36,-153.4C36,-153.4 260.5,-153.4 260.5,-153.4 266.5,-153.4 272.5,-159.4 272.5,-165.4 272.5,-165.4 272.5,-257.4 272.5,-257.4 272.5,-263.4 266.5,-269.4 260.5,-269.4 260.5,-269.4 36,-269.4 36,-269.4 30,-269.4 24,-263.4 24,-257.4 24,-257.4 24,-165.4 24,-165.4 24,-159.4 30,-153.4 36,-153.4"/>
<text text-anchor="middle" x="148.25" y="-258.2" font-family="Helvetica,sans-Serif" font-weight="bold" font-size="9.00">collection</text>
</g>
<g id="clust15" class="cluster">
<title>cluster_src/routes/collection/couz</title>
<path fill="#ffffff" stroke="black" stroke-width="2" d="M44,-161.4C44,-161.4 252.5,-161.4 252.5,-161.4 258.5,-161.4 264.5,-167.4 264.5,-173.4 264.5,-173.4 264.5,-231.4 264.5,-231.4 264.5,-237.4 258.5,-243.4 252.5,-243.4 252.5,-243.4 44,-243.4 44,-243.4 38,-243.4 32,-237.4 32,-231.4 32,-231.4 32,-173.4 32,-173.4 32,-167.4 38,-161.4 44,-161.4"/>
<text text-anchor="middle" x="148.25" y="-232.2" font-family="Helvetica,sans-Serif" font-weight="bold" font-size="9.00">couz</text>
</g>
<!-- src/gathering/Collection.ts -->
<g id="node1" class="node">
<title>src/gathering/Collection.ts</title>
<g id="a_node1"><a xlink:href="src/gathering/Collection.ts" xlink:title="Collection.ts">
<path fill="#ddfeff" stroke="black" d="M757.5,-262.4C757.5,-262.4 701.5,-262.4 701.5,-262.4 698.5,-262.4 695.5,-259.4 695.5,-256.4 695.5,-256.4 695.5,-250.4 695.5,-250.4 695.5,-247.4 698.5,-244.4 701.5,-244.4 701.5,-244.4 757.5,-244.4 757.5,-244.4 760.5,-244.4 763.5,-247.4 763.5,-250.4 763.5,-250.4 763.5,-256.4 763.5,-256.4 763.5,-259.4 760.5,-262.4 757.5,-262.4"/>
<text text-anchor="start" x="703.5" y="-251.2" font-family="Helvetica,sans-Serif" font-size="9.00">Collection.ts</text>
</a>
</g>
</g>
<!-- src/gathering/Pack.ts -->
<g id="node2" class="node">
<title>src/gathering/Pack.ts</title>
<g id="a_node2"><a xlink:href="src/gathering/Pack.ts" xlink:title="Pack.ts">
<path fill="#ddfeff" stroke="black" d="M837,-197.4C837,-197.4 795,-197.4 795,-197.4 792,-197.4 789,-194.4 789,-191.4 789,-191.4 789,-185.4 789,-185.4 789,-182.4 792,-179.4 795,-179.4 795,-179.4 837,-179.4 837,-179.4 840,-179.4 843,-182.4 843,-185.4 843,-185.4 843,-191.4 843,-191.4 843,-194.4 840,-197.4 837,-197.4"/>
<text text-anchor="start" x="800.5" y="-186.2" font-family="Helvetica,sans-Serif" font-size="9.00">Pack.ts</text>
</a>
</g>
</g>
<!-- src/gathering/Collection.ts&#45;&gt;src/gathering/Pack.ts -->
<g id="edge1" class="edge">
<title>src/gathering/Collection.ts&#45;&gt;src/gathering/Pack.ts</title>
<path fill="none" stroke="#000000" stroke-opacity="0.200000" d="M749.87,-244.37C758.25,-240.06 767.97,-234.51 776,-228.4 786.1,-220.71 796.06,-210.44 803.39,-202.22"/>
<polygon fill="none" stroke="#000000" stroke-opacity="0.200000" points="805.23,-203.31 807.59,-197.42 802.06,-200.55 805.23,-203.31"/>
</g>
<!-- src/gathering/CollectionEditor/CollectionEditor.test.ts -->
<g id="node3" class="node">
<title>src/gathering/CollectionEditor/CollectionEditor.test.ts</title>
<g id="a_node3"><a xlink:href="src/gathering/CollectionEditor/CollectionEditor.test.ts" xlink:title="CollectionEditor.test.ts">
<path fill="#ddfeff" stroke="black" d="M407.5,-219.4C407.5,-219.4 310.5,-219.4 310.5,-219.4 307.5,-219.4 304.5,-216.4 304.5,-213.4 304.5,-213.4 304.5,-207.4 304.5,-207.4 304.5,-204.4 307.5,-201.4 310.5,-201.4 310.5,-201.4 407.5,-201.4 407.5,-201.4 410.5,-201.4 413.5,-204.4 413.5,-207.4 413.5,-207.4 413.5,-213.4 413.5,-213.4 413.5,-216.4 410.5,-219.4 407.5,-219.4"/>
<text text-anchor="start" x="312.5" y="-208.2" font-family="Helvetica,sans-Serif" font-size="9.00">CollectionEditor.test.ts</text>
</a>
</g>
</g>
<!-- src/gathering/CollectionEditor/CollectionEditor.test.ts&#45;&gt;src/gathering/Collection.ts -->
<g id="edge4" class="edge">
<title>src/gathering/CollectionEditor/CollectionEditor.test.ts&#45;&gt;src/gathering/Collection.ts</title>
<path fill="none" stroke="#000000" stroke-opacity="0.200000" d="M374.85,-219.48C388.05,-227.12 408.14,-237.68 427,-243.4 526.83,-273.64 556.87,-267.55 661,-261.4 670.18,-260.85 680.03,-259.9 689.28,-258.84"/>
<polygon fill="none" stroke="#000000" stroke-opacity="0.200000" points="689.56,-260.92 695.27,-258.12 689.06,-256.75 689.56,-260.92"/>
</g>
<!-- src/gathering/CollectionEditor/CollectionEditor.ts -->
<g id="node4" class="node">
<title>src/gathering/CollectionEditor/CollectionEditor.ts</title>
<g id="a_node4"><a xlink:href="src/gathering/CollectionEditor/CollectionEditor.ts" xlink:title="CollectionEditor.ts">
<path fill="#ddfeff" stroke="black" d="M523,-189.4C523,-189.4 443,-189.4 443,-189.4 440,-189.4 437,-186.4 437,-183.4 437,-183.4 437,-177.4 437,-177.4 437,-174.4 440,-171.4 443,-171.4 443,-171.4 523,-171.4 523,-171.4 526,-171.4 529,-174.4 529,-177.4 529,-177.4 529,-183.4 529,-183.4 529,-186.4 526,-189.4 523,-189.4"/>
<text text-anchor="start" x="445" y="-178.2" font-family="Helvetica,sans-Serif" font-size="9.00">CollectionEditor.ts</text>
</a>
</g>
</g>
<!-- src/gathering/CollectionEditor/CollectionEditor.test.ts&#45;&gt;src/gathering/CollectionEditor/CollectionEditor.ts -->
<g id="edge2" class="edge">
<title>src/gathering/CollectionEditor/CollectionEditor.test.ts&#45;&gt;src/gathering/CollectionEditor/CollectionEditor.ts</title>
<path fill="none" stroke="#000000" stroke-width="2" stroke-opacity="0.200000" d="M402.28,-201.33C407.91,-200.05 413.6,-198.72 419,-197.4 426.98,-195.44 435.49,-193.23 443.6,-191.06"/>
<polygon fill="#000000" fill-opacity="0.200000" stroke="#000000" stroke-width="2" stroke-opacity="0.200000" points="444.45,-193.01 449.7,-189.42 443.36,-188.95 444.45,-193.01"/>
</g>
<!-- src/gathering/CollectionEditor/PackRepositoryMock.ts -->
<g id="node5" class="node">
<title>src/gathering/CollectionEditor/PackRepositoryMock.ts</title>
<g id="a_node5"><a xlink:href="src/gathering/CollectionEditor/PackRepositoryMock.ts" xlink:title="PackRepositoryMock.ts">
<path fill="#ddfeff" stroke="black" d="M533,-219.4C533,-219.4 433,-219.4 433,-219.4 430,-219.4 427,-216.4 427,-213.4 427,-213.4 427,-207.4 427,-207.4 427,-204.4 430,-201.4 433,-201.4 433,-201.4 533,-201.4 533,-201.4 536,-201.4 539,-204.4 539,-207.4 539,-207.4 539,-213.4 539,-213.4 539,-216.4 536,-219.4 533,-219.4"/>
<text text-anchor="start" x="435" y="-208.2" font-family="Helvetica,sans-Serif" font-size="9.00">PackRepositoryMock.ts</text>
</a>
</g>
</g>
<!-- src/gathering/CollectionEditor/CollectionEditor.test.ts&#45;&gt;src/gathering/CollectionEditor/PackRepositoryMock.ts -->
<g id="edge3" class="edge">
<title>src/gathering/CollectionEditor/CollectionEditor.test.ts&#45;&gt;src/gathering/CollectionEditor/PackRepositoryMock.ts</title>
<path fill="none" stroke="#000000" stroke-width="2" stroke-opacity="0.200000" d="M413.51,-210.4C415.82,-210.4 418.15,-210.4 420.48,-210.4"/>
<polygon fill="#000000" fill-opacity="0.200000" stroke="#000000" stroke-width="2" stroke-opacity="0.200000" points="420.64,-212.5 426.64,-210.4 420.64,-208.3 420.64,-212.5"/>
</g>
<!-- src/gathering/CollectionEntity.ts -->
<g id="node6" class="node">
<title>src/gathering/CollectionEntity.ts</title>
<g id="a_node6"><a xlink:href="src/gathering/CollectionEntity.ts" xlink:title="CollectionEntity.ts">
<path fill="#ddfeff" stroke="black" d="M651,-211.4C651,-211.4 574,-211.4 574,-211.4 571,-211.4 568,-208.4 568,-205.4 568,-205.4 568,-199.4 568,-199.4 568,-196.4 571,-193.4 574,-193.4 574,-193.4 651,-193.4 651,-193.4 654,-193.4 657,-196.4 657,-199.4 657,-199.4 657,-205.4 657,-205.4 657,-208.4 654,-211.4 651,-211.4"/>
<text text-anchor="start" x="576" y="-200.2" font-family="Helvetica,sans-Serif" font-size="9.00">CollectionEntity.ts</text>
</a>
</g>
</g>
<!-- src/gathering/CollectionEditor/CollectionEditor.test.ts&#45;&gt;src/gathering/CollectionEntity.ts -->
<g id="edge5" class="edge">
<title>src/gathering/CollectionEditor/CollectionEditor.test.ts&#45;&gt;src/gathering/CollectionEntity.ts</title>
<path fill="none" stroke="#000000" stroke-width="2" stroke-opacity="0.200000" d="M393.5,-219.41C404.13,-221.87 415.98,-224.18 427,-225.4 480.01,-231.26 494.45,-234.49 547,-225.4 560.17,-223.12 574.21,-218.41 585.81,-213.84"/>
<polygon fill="#000000" fill-opacity="0.200000" stroke="#000000" stroke-width="2" stroke-opacity="0.200000" points="586.87,-215.67 591.65,-211.47 585.3,-211.78 586.87,-215.67"/>
</g>
<!-- src/gathering/ICollectionEditor.ts -->
<g id="node7" class="node">
<title>src/gathering/ICollectionEditor.ts</title>
<g id="a_node7"><a xlink:href="src/gathering/ICollectionEditor.ts" xlink:title="ICollectionEditor.ts">
<path fill="#ddfeff" stroke="black" d="M653.5,-97.4C653.5,-97.4 571.5,-97.4 571.5,-97.4 568.5,-97.4 565.5,-94.4 565.5,-91.4 565.5,-91.4 565.5,-85.4 565.5,-85.4 565.5,-82.4 568.5,-79.4 571.5,-79.4 571.5,-79.4 653.5,-79.4 653.5,-79.4 656.5,-79.4 659.5,-82.4 659.5,-85.4 659.5,-85.4 659.5,-91.4 659.5,-91.4 659.5,-94.4 656.5,-97.4 653.5,-97.4"/>
<text text-anchor="start" x="573.5" y="-86.2" font-family="Helvetica,sans-Serif" font-size="9.00">ICollectionEditor.ts</text>
</a>
</g>
</g>
<!-- src/gathering/CollectionEditor/CollectionEditor.test.ts&#45;&gt;src/gathering/ICollectionEditor.ts -->
<g id="edge6" class="edge">
<title>src/gathering/CollectionEditor/CollectionEditor.test.ts&#45;&gt;src/gathering/ICollectionEditor.ts</title>
<path fill="none" stroke="#000000" stroke-opacity="0.200000" d="M413.62,-201.7C415.54,-200.43 417.35,-199 419,-197.4 429.51,-187.18 417.64,-176.68 427,-165.4 469.78,-113.81 501.25,-125.93 564,-102.4 566.77,-101.36 569.66,-100.34 572.58,-99.37"/>
<polygon fill="none" stroke="#000000" stroke-opacity="0.200000" points="573.53,-101.27 578.59,-97.42 572.23,-97.27 573.53,-101.27"/>
</g>
<!-- src/gathering/ICollectionOutput.ts -->
<g id="node8" class="node">
<title>src/gathering/ICollectionOutput.ts</title>
<g id="a_node8"><a xlink:href="src/gathering/ICollectionOutput.ts" xlink:title="ICollectionOutput.ts">
<path fill="#ddfeff" stroke="black" d="M655,-255.4C655,-255.4 570,-255.4 570,-255.4 567,-255.4 564,-252.4 564,-249.4 564,-249.4 564,-243.4 564,-243.4 564,-240.4 567,-237.4 570,-237.4 570,-237.4 655,-237.4 655,-237.4 658,-237.4 661,-240.4 661,-243.4 661,-243.4 661,-249.4 661,-249.4 661,-252.4 658,-255.4 655,-255.4"/>
<text text-anchor="start" x="572" y="-244.2" font-family="Helvetica,sans-Serif" font-size="9.00">ICollectionOutput.ts</text>
</a>
</g>
</g>
<!-- src/gathering/CollectionEditor/CollectionEditor.test.ts&#45;&gt;src/gathering/ICollectionOutput.ts -->
<g id="edge7" class="edge">
<title>src/gathering/CollectionEditor/CollectionEditor.test.ts&#45;&gt;src/gathering/ICollectionOutput.ts</title>
<path fill="none" stroke="#000000" stroke-opacity="0.200000" d="M382.89,-219.44C395.66,-224.09 411.99,-229.41 427,-232.4 470.33,-241.02 520.36,-244.42 557.38,-245.72"/>
<polygon fill="none" stroke="#000000" stroke-opacity="0.200000" points="557.61,-247.83 563.67,-245.92 557.74,-243.63 557.61,-247.83"/>
</g>
<!-- src/gathering/CollectionEditor/CollectionEditor.ts&#45;&gt;src/gathering/Pack.ts -->
<g id="edge12" class="edge">
<title>src/gathering/CollectionEditor/CollectionEditor.ts&#45;&gt;src/gathering/Pack.ts</title>
<path fill="none" stroke="#000000" stroke-opacity="0.200000" d="M529.23,-173.58C587.02,-166.18 689.87,-157.4 776,-173.4 780.61,-174.25 785.39,-175.63 789.94,-177.22"/>
<polygon fill="none" stroke="#000000" stroke-opacity="0.200000" points="789.21,-179.19 795.57,-179.32 790.68,-175.25 789.21,-179.19"/>
</g>
<!-- src/gathering/CollectionEditor/CollectionEditor.ts&#45;&gt;src/gathering/CollectionEntity.ts -->
<g id="edge9" class="edge">
<title>src/gathering/CollectionEditor/CollectionEditor.ts&#45;&gt;src/gathering/CollectionEntity.ts</title>
<path fill="none" stroke="#000000" stroke-width="2" stroke-opacity="0.200000" d="M529.31,-188.21C539.72,-190.01 550.85,-191.93 561.45,-193.76"/>
<polygon fill="#000000" fill-opacity="0.200000" stroke="#000000" stroke-width="2" stroke-opacity="0.200000" points="561.35,-195.87 567.62,-194.82 562.06,-191.73 561.35,-195.87"/>
</g>
<!-- src/gathering/CollectionEditor/CollectionEditor.ts&#45;&gt;src/gathering/ICollectionEditor.ts -->
<g id="edge10" class="edge">
<title>src/gathering/CollectionEditor/CollectionEditor.ts&#45;&gt;src/gathering/ICollectionEditor.ts</title>
<path fill="none" stroke="#000000" stroke-opacity="0.200000" d="M529.05,-177.53C535.69,-175.38 541.98,-172.16 547,-167.4 568.66,-146.84 543.21,-123.83 564,-102.4 564.34,-102.05 564.68,-101.71 565.03,-101.38"/>
<polygon fill="none" stroke="#000000" stroke-opacity="0.200000" points="566.54,-102.87 570,-97.54 563.97,-99.55 566.54,-102.87"/>
</g>
<!-- src/gathering/CollectionEditor/CollectionEditor.ts&#45;&gt;src/gathering/ICollectionOutput.ts -->
<g id="edge11" class="edge">
<title>src/gathering/CollectionEditor/CollectionEditor.ts&#45;&gt;src/gathering/ICollectionOutput.ts</title>
<path fill="none" stroke="#000000" stroke-opacity="0.200000" d="M529.26,-187.19C535.51,-189.25 541.62,-191.92 547,-195.4 557.38,-202.1 554.8,-209.15 564,-217.4 571.13,-223.79 579.86,-229.58 587.89,-234.27"/>
<polygon fill="none" stroke="#000000" stroke-opacity="0.200000" points="587.04,-236.21 593.3,-237.34 589.12,-232.56 587.04,-236.21"/>
</g>
<!-- src/gathering/PackRepository/index.ts -->
<g id="node9" class="node">
<title>src/gathering/PackRepository/index.ts</title>
<g id="a_node9"><a xlink:href="src/gathering/PackRepository/index.ts" xlink:title="index.ts">
<path fill="#ddfeff" stroke="black" d="M633.5,-131.4C633.5,-131.4 591.5,-131.4 591.5,-131.4 588.5,-131.4 585.5,-128.4 585.5,-125.4 585.5,-125.4 585.5,-119.4 585.5,-119.4 585.5,-116.4 588.5,-113.4 591.5,-113.4 591.5,-113.4 633.5,-113.4 633.5,-113.4 636.5,-113.4 639.5,-116.4 639.5,-119.4 639.5,-119.4 639.5,-125.4 639.5,-125.4 639.5,-128.4 636.5,-131.4 633.5,-131.4"/>
<text text-anchor="start" x="596.5" y="-120.2" font-family="Helvetica,sans-Serif" font-size="9.00">index.ts</text>
</a>
</g>
</g>
<!-- src/gathering/CollectionEditor/CollectionEditor.ts&#45;&gt;src/gathering/PackRepository/index.ts -->
<g id="edge8" class="edge">
<title>src/gathering/CollectionEditor/CollectionEditor.ts&#45;&gt;src/gathering/PackRepository/index.ts</title>
<path fill="none" stroke="#000000" stroke-width="2" stroke-opacity="0.200000" d="M529.14,-176.17C535.54,-174.17 541.73,-171.35 547,-167.4 559.89,-157.74 551.43,-145.46 564,-135.4 568.41,-131.87 573.71,-129.29 579.15,-127.42"/>
<polygon fill="#000000" fill-opacity="0.200000" stroke="#000000" stroke-width="2" stroke-opacity="0.200000" points="579.92,-129.38 585.06,-125.64 578.71,-125.35 579.92,-129.38"/>
</g>
<!-- src/gathering/CollectionEditor/PackRepositoryMock.ts&#45;&gt;src/gathering/Pack.ts -->
<g id="edge14" class="edge">
<title>src/gathering/CollectionEditor/PackRepositoryMock.ts&#45;&gt;src/gathering/Pack.ts</title>
<path fill="none" stroke="#000000" stroke-opacity="0.200000" d="M539.04,-215.85C547.4,-216.49 555.92,-217.04 564,-217.4 658.18,-221.51 685.59,-237.1 776,-210.4 783.34,-208.23 790.8,-204.47 797.2,-200.68"/>
<polygon fill="none" stroke="#000000" stroke-opacity="0.200000" points="798.32,-202.46 802.31,-197.51 796.1,-198.89 798.32,-202.46"/>
</g>
<!-- src/gathering/IPackRepository.ts -->
<g id="node10" class="node">
<title>src/gathering/IPackRepository.ts</title>
<g id="a_node10"><a xlink:href="src/gathering/IPackRepository.ts" xlink:title="IPackRepository.ts">
<path fill="#ddfeff" stroke="black" d="M770,-197.4C770,-197.4 689,-197.4 689,-197.4 686,-197.4 683,-194.4 683,-191.4 683,-191.4 683,-185.4 683,-185.4 683,-182.4 686,-179.4 689,-179.4 689,-179.4 770,-179.4 770,-179.4 773,-179.4 776,-182.4 776,-185.4 776,-185.4 776,-191.4 776,-191.4 776,-194.4 773,-197.4 770,-197.4"/>
<text text-anchor="start" x="691" y="-186.2" font-family="Helvetica,sans-Serif" font-size="9.00">IPackRepository.ts</text>
</a>
</g>
</g>
<!-- src/gathering/CollectionEditor/PackRepositoryMock.ts&#45;&gt;src/gathering/IPackRepository.ts -->
<g id="edge13" class="edge">
<title>src/gathering/CollectionEditor/PackRepositoryMock.ts&#45;&gt;src/gathering/IPackRepository.ts</title>
<path fill="none" stroke="#000000" stroke-opacity="0.200000" d="M527.38,-201.31C534.02,-199.57 540.74,-197.59 547,-195.4 554.88,-192.64 555.85,-189.22 564,-187.4 606.07,-177.99 617.89,-187.08 661,-187.4 666.05,-187.43 671.32,-187.49 676.59,-187.55"/>
<polygon fill="none" stroke="#000000" stroke-opacity="0.200000" points="676.73,-189.65 682.75,-187.63 676.78,-185.45 676.73,-189.65"/>
</g>
<!-- src/gathering/CollectionEntity.ts&#45;&gt;src/gathering/Pack.ts -->
<g id="edge16" class="edge">
<title>src/gathering/CollectionEntity.ts&#45;&gt;src/gathering/Pack.ts</title>
<path fill="none" stroke="#000000" stroke-opacity="0.200000" d="M657,-207.09C689.96,-209.58 736.2,-210.79 776,-203.4 780.61,-202.54 785.39,-201.16 789.94,-199.57"/>
<polygon fill="none" stroke="#000000" stroke-opacity="0.200000" points="790.68,-201.54 795.57,-197.48 789.21,-197.6 790.68,-201.54"/>
</g>
<!-- src/gathering/CollectionEntity.ts&#45;&gt;src/gathering/IPackRepository.ts -->
<g id="edge15" class="edge">
<title>src/gathering/CollectionEntity.ts&#45;&gt;src/gathering/IPackRepository.ts</title>
<path fill="none" stroke="#000000" stroke-opacity="0.200000" d="M657.3,-197.06C663.72,-196.28 670.38,-195.47 676.93,-194.67"/>
<polygon fill="none" stroke="#000000" stroke-opacity="0.200000" points="677.2,-196.76 682.91,-193.95 676.7,-192.59 677.2,-196.76"/>
</g>
<!-- src/gathering/ICollectionEditor.ts&#45;&gt;src/gathering/Pack.ts -->
<g id="edge17" class="edge">
<title>src/gathering/ICollectionEditor.ts&#45;&gt;src/gathering/Pack.ts</title>
<path fill="none" stroke="#000000" stroke-opacity="0.200000" d="M659.83,-92.38C694.47,-97.27 741.59,-108.17 776,-132.4 790.95,-142.92 802.05,-161.12 808.51,-173.9"/>
<polygon fill="none" stroke="#000000" stroke-opacity="0.200000" points="806.64,-174.86 811.15,-179.35 810.42,-173.03 806.64,-174.86"/>
</g>
<!-- src/gathering/ICollectionOutput.ts&#45;&gt;src/gathering/Collection.ts -->
<g id="edge18" class="edge">
<title>src/gathering/ICollectionOutput.ts&#45;&gt;src/gathering/Collection.ts</title>
<path fill="none" stroke="#000000" stroke-opacity="0.200000" d="M661.27,-249.3C670.6,-249.87 680.28,-250.46 689.28,-251.01"/>
<polygon fill="none" stroke="#000000" stroke-opacity="0.200000" points="689.29,-253.11 695.4,-251.38 689.54,-248.92 689.29,-253.11"/>
</g>
<!-- src/gathering/PackRepository/index.ts&#45;&gt;src/gathering/Pack.ts -->
<g id="edge21" class="edge">
<title>src/gathering/PackRepository/index.ts&#45;&gt;src/gathering/Pack.ts</title>
<path fill="none" stroke="#000000" stroke-opacity="0.200000" d="M639.73,-125.99C672.63,-131.13 730.26,-142.26 776,-162.4 783.95,-165.9 792.06,-171 798.8,-175.76"/>
<polygon fill="none" stroke="#000000" stroke-opacity="0.200000" points="797.58,-177.47 803.67,-179.3 800.05,-174.07 797.58,-177.47"/>
</g>
<!-- src/gathering/PackRepository/index.ts&#45;&gt;src/gathering/IPackRepository.ts -->
<g id="edge20" class="edge">
<title>src/gathering/PackRepository/index.ts&#45;&gt;src/gathering/IPackRepository.ts</title>
<path fill="none" stroke="#000000" stroke-opacity="0.200000" d="M639.83,-127.61C646.92,-129.54 654.43,-132.09 661,-135.4 681.62,-145.78 702.01,-163.01 714.89,-175"/>
<polygon fill="none" stroke="#000000" stroke-opacity="0.200000" points="713.49,-176.56 719.29,-179.15 716.37,-173.51 713.49,-176.56"/>
</g>
<!-- src/gathering/IPackRepository.ts&#45;&gt;src/gathering/Pack.ts -->
<g id="edge19" class="edge">
<title>src/gathering/IPackRepository.ts&#45;&gt;src/gathering/Pack.ts</title>
<path fill="none" stroke="#000000" stroke-opacity="0.200000" d="M776.21,-188.4C778.39,-188.4 780.56,-188.4 782.68,-188.4"/>
<polygon fill="none" stroke="#000000" stroke-opacity="0.200000" points="782.94,-190.5 788.94,-188.4 782.94,-186.3 782.94,-190.5"/>
</g>
<!-- src/gathering/index.ts -->
<g id="node11" class="node">
<title>src/gathering/index.ts</title>
<g id="a_node11"><a xlink:href="src/gathering/index.ts" xlink:title="index.ts">
<path fill="#ddfeff" stroke="black" d="M380,-155.4C380,-155.4 338,-155.4 338,-155.4 335,-155.4 332,-152.4 332,-149.4 332,-149.4 332,-143.4 332,-143.4 332,-140.4 335,-137.4 338,-137.4 338,-137.4 380,-137.4 380,-137.4 383,-137.4 386,-140.4 386,-143.4 386,-143.4 386,-149.4 386,-149.4 386,-152.4 383,-155.4 380,-155.4"/>
<text text-anchor="start" x="343" y="-144.2" font-family="Helvetica,sans-Serif" font-size="9.00">index.ts</text>
</a>
</g>
</g>
<!-- src/gathering/index.ts&#45;&gt;src/gathering/CollectionEditor/CollectionEditor.ts -->
<g id="edge22" class="edge">
<title>src/gathering/index.ts&#45;&gt;src/gathering/CollectionEditor/CollectionEditor.ts</title>
<path fill="none" stroke="#000000" stroke-width="2" stroke-opacity="0.200000" d="M386.22,-149.8C396.81,-151.88 408.89,-155.19 419,-160.4 423.2,-162.56 422.8,-165.23 427,-167.4 428.37,-168.1 429.79,-168.77 431.23,-169.41"/>
<polygon fill="#000000" fill-opacity="0.200000" stroke="#000000" stroke-width="2" stroke-opacity="0.200000" points="430.56,-171.4 436.91,-171.68 432.12,-167.5 430.56,-171.4"/>
</g>
<!-- src/gathering/index.ts&#45;&gt;src/gathering/PackRepository/index.ts -->
<g id="edge23" class="edge">
<title>src/gathering/index.ts&#45;&gt;src/gathering/PackRepository/index.ts</title>
<path fill="none" stroke="#000000" stroke-width="2" stroke-opacity="0.200000" d="M386.44,-143.87C432.88,-139.44 528.94,-130.27 579.22,-125.48"/>
<polygon fill="#000000" fill-opacity="0.200000" stroke="#000000" stroke-width="2" stroke-opacity="0.200000" points="579.64,-127.55 585.41,-124.89 579.24,-123.36 579.64,-127.55"/>
</g>
<!-- src/lib/BinderStorage/index.ts -->
<g id="node12" class="node">
<title>src/lib/BinderStorage/index.ts</title>
<g id="a_node12"><a xlink:href="src/lib/BinderStorage/index.ts" xlink:title="index.ts">
<path fill="#ddfeff" stroke="black" d="M504,-607.4C504,-607.4 462,-607.4 462,-607.4 459,-607.4 456,-604.4 456,-601.4 456,-601.4 456,-595.4 456,-595.4 456,-592.4 459,-589.4 462,-589.4 462,-589.4 504,-589.4 504,-589.4 507,-589.4 510,-592.4 510,-595.4 510,-595.4 510,-601.4 510,-601.4 510,-604.4 507,-607.4 504,-607.4"/>
<text text-anchor="start" x="467" y="-596.2" font-family="Helvetica,sans-Serif" font-size="9.00">index.ts</text>
</a>
</g>
</g>
<!-- src/lib/Components/Binder.svelte.ts -->
<g id="node13" class="node">
<title>src/lib/Components/Binder.svelte.ts</title>
<g id="a_node13"><a xlink:href="src/lib/Components/Binder.svelte.ts" xlink:title="Binder.svelte.ts">
<path fill="#ddfeff" stroke="black" d="M231.5,-547.4C231.5,-547.4 163.5,-547.4 163.5,-547.4 160.5,-547.4 157.5,-544.4 157.5,-541.4 157.5,-541.4 157.5,-535.4 157.5,-535.4 157.5,-532.4 160.5,-529.4 163.5,-529.4 163.5,-529.4 231.5,-529.4 231.5,-529.4 234.5,-529.4 237.5,-532.4 237.5,-535.4 237.5,-535.4 237.5,-541.4 237.5,-541.4 237.5,-544.4 234.5,-547.4 231.5,-547.4"/>
<text text-anchor="start" x="165.5" y="-536.2" font-family="Helvetica,sans-Serif" font-size="9.00">Binder.svelte.ts</text>
</a>
</g>
</g>
<!-- src/lib/Components/PocketSheet.svelte.ts -->
<g id="node14" class="node">
<title>src/lib/Components/PocketSheet.svelte.ts</title>
<g id="a_node14"><a xlink:href="src/lib/Components/PocketSheet.svelte.ts" xlink:title="PocketSheet.svelte.ts">
<path fill="#ddfeff" stroke="black" d="M405,-547.4C405,-547.4 313,-547.4 313,-547.4 310,-547.4 307,-544.4 307,-541.4 307,-541.4 307,-535.4 307,-535.4 307,-532.4 310,-529.4 313,-529.4 313,-529.4 405,-529.4 405,-529.4 408,-529.4 411,-532.4 411,-535.4 411,-535.4 411,-541.4 411,-541.4 411,-544.4 408,-547.4 405,-547.4"/>
<text text-anchor="start" x="315" y="-536.2" font-family="Helvetica,sans-Serif" font-size="9.00">PocketSheet.svelte.ts</text>
</a>
</g>
</g>
<!-- src/lib/Components/Binder.svelte.ts&#45;&gt;src/lib/Components/PocketSheet.svelte.ts -->
<g id="edge24" class="edge">
<title>src/lib/Components/Binder.svelte.ts&#45;&gt;src/lib/Components/PocketSheet.svelte.ts</title>
<path fill="none" stroke="#000000" stroke-width="2" stroke-opacity="0.200000" d="M237.52,-538.4C256.49,-538.4 279.66,-538.4 300.6,-538.4"/>
<polygon fill="#000000" fill-opacity="0.200000" stroke="#000000" stroke-width="2" stroke-opacity="0.200000" points="300.73,-540.5 306.73,-538.4 300.73,-536.3 300.73,-540.5"/>
</g>
<!-- src/lib/ViewModels/binder.ts -->
<g id="node15" class="node">
<title>src/lib/ViewModels/binder.ts</title>
<g id="a_node15"><a xlink:href="src/lib/ViewModels/binder.ts" xlink:title="binder.ts">
<path fill="#ddfeff" stroke="black" d="M504,-547.4C504,-547.4 462,-547.4 462,-547.4 459,-547.4 456,-544.4 456,-541.4 456,-541.4 456,-535.4 456,-535.4 456,-532.4 459,-529.4 462,-529.4 462,-529.4 504,-529.4 504,-529.4 507,-529.4 510,-532.4 510,-535.4 510,-535.4 510,-541.4 510,-541.4 510,-544.4 507,-547.4 504,-547.4"/>
<text text-anchor="start" x="464.5" y="-536.2" font-family="Helvetica,sans-Serif" font-size="9.00">binder.ts</text>
</a>
</g>
</g>
<!-- src/lib/Components/Binder.svelte.ts&#45;&gt;src/lib/ViewModels/binder.ts -->
<g id="edge25" class="edge">
<title>src/lib/Components/Binder.svelte.ts&#45;&gt;src/lib/ViewModels/binder.ts</title>
<path fill="none" stroke="#000000" stroke-opacity="0.200000" d="M237.75,-546.38C253.46,-549.2 271.77,-552.01 288.5,-553.4 346.3,-558.18 361.4,-560.16 419,-553.4 429.17,-552.2 440.08,-549.96 449.92,-547.56"/>
<polygon fill="none" stroke="#000000" stroke-opacity="0.200000" points="450.58,-549.56 455.88,-546.06 449.55,-545.49 450.58,-549.56"/>
</g>
<!-- src/lib/Components/PocketSheet.svelte.ts&#45;&gt;src/lib/ViewModels/binder.ts -->
<g id="edge26" class="edge">
<title>src/lib/Components/PocketSheet.svelte.ts&#45;&gt;src/lib/ViewModels/binder.ts</title>
<path fill="none" stroke="#000000" stroke-opacity="0.200000" d="M411.03,-538.4C424.15,-538.4 437.91,-538.4 449.78,-538.4"/>
<polygon fill="none" stroke="#000000" stroke-opacity="0.200000" points="449.8,-540.5 455.8,-538.4 449.8,-536.3 449.8,-540.5"/>
</g>
<!-- src/lib/Presenters/BinderOutputPort.ts -->
<g id="node16" class="node">
<title>src/lib/Presenters/BinderOutputPort.ts</title>
<g id="a_node16"><a xlink:href="src/lib/Presenters/BinderOutputPort.ts" xlink:title="BinderOutputPort.ts">
<path fill="#ddfeff" stroke="black" d="M401.5,-607.4C401.5,-607.4 316.5,-607.4 316.5,-607.4 313.5,-607.4 310.5,-604.4 310.5,-601.4 310.5,-601.4 310.5,-595.4 310.5,-595.4 310.5,-592.4 313.5,-589.4 316.5,-589.4 316.5,-589.4 401.5,-589.4 401.5,-589.4 404.5,-589.4 407.5,-592.4 407.5,-595.4 407.5,-595.4 407.5,-601.4 407.5,-601.4 407.5,-604.4 404.5,-607.4 401.5,-607.4"/>
<text text-anchor="start" x="318.5" y="-596.2" font-family="Helvetica,sans-Serif" font-size="9.00">BinderOutputPort.ts</text>
</a>
</g>
</g>
<!-- src/lib/Presenters/BinderOutputPort.ts&#45;&gt;src/lib/BinderStorage/index.ts -->
<g id="edge27" class="edge">
<title>src/lib/Presenters/BinderOutputPort.ts&#45;&gt;src/lib/BinderStorage/index.ts</title>
<path fill="none" stroke="#000000" stroke-opacity="0.200000" d="M407.52,-598.4C421.66,-598.4 436.82,-598.4 449.75,-598.4"/>
<polygon fill="none" stroke="#000000" stroke-opacity="0.200000" points="449.91,-600.5 455.91,-598.4 449.91,-596.3 449.91,-600.5"/>
</g>
<!-- src/lib/Presenters/BinderOutputPort.ts&#45;&gt;src/lib/ViewModels/binder.ts -->
<g id="edge28" class="edge">
<title>src/lib/Presenters/BinderOutputPort.ts&#45;&gt;src/lib/ViewModels/binder.ts</title>
<path fill="none" stroke="#000000" stroke-opacity="0.200000" d="M387.46,-589.35C397.55,-585.72 408.96,-581.24 419,-576.4 434.36,-568.98 450.84,-558.96 463.09,-551.07"/>
<polygon fill="none" stroke="#000000" stroke-opacity="0.200000" points="464.52,-552.65 468.4,-547.61 462.23,-549.13 464.52,-552.65"/>
</g>
<!-- src/lib/server/ahdb.cards.json -->
<g id="node17" class="node">
<title>src/lib/server/ahdb.cards.json</title>
<g id="a_node17"><a xlink:href="src/lib/server/ahdb.cards.json" xlink:title="ahdb.cards.json">
<path fill="#ffee44" stroke="black" d="M233,-337.4C233,-337.4 162,-337.4 162,-337.4 159,-337.4 156,-334.4 156,-331.4 156,-331.4 156,-325.4 156,-325.4 156,-322.4 159,-319.4 162,-319.4 162,-319.4 233,-319.4 233,-319.4 236,-319.4 239,-322.4 239,-325.4 239,-325.4 239,-331.4 239,-331.4 239,-334.4 236,-337.4 233,-337.4"/>
<text text-anchor="start" x="164" y="-326.2" font-family="Helvetica,sans-Serif" font-size="9.00">ahdb.cards.json</text>
</a>
</g>
</g>
<!-- src/lib/server/ahdb.packs.json -->
<g id="node18" class="node">
<title>src/lib/server/ahdb.packs.json</title>
<g id="a_node18"><a xlink:href="src/lib/server/ahdb.packs.json" xlink:title="ahdb.packs.json">
<path fill="#ffee44" stroke="black" d="M234,-367.4C234,-367.4 161,-367.4 161,-367.4 158,-367.4 155,-364.4 155,-361.4 155,-361.4 155,-355.4 155,-355.4 155,-352.4 158,-349.4 161,-349.4 161,-349.4 234,-349.4 234,-349.4 237,-349.4 240,-352.4 240,-355.4 240,-355.4 240,-361.4 240,-361.4 240,-364.4 237,-367.4 234,-367.4"/>
<text text-anchor="start" x="163" y="-356.2" font-family="Helvetica,sans-Serif" font-size="9.00">ahdb.packs.json</text>
</a>
</g>
</g>
<!-- src/lib/server/collection/couz.json -->
<g id="node19" class="node">
<title>src/lib/server/collection/couz.json</title>
<g id="a_node19"><a xlink:href="src/lib/server/collection/couz.json" xlink:title="couz.json">
<path fill="#ffee44" stroke="black" d="M219.5,-401.4C219.5,-401.4 175.5,-401.4 175.5,-401.4 172.5,-401.4 169.5,-398.4 169.5,-395.4 169.5,-395.4 169.5,-389.4 169.5,-389.4 169.5,-386.4 172.5,-383.4 175.5,-383.4 175.5,-383.4 219.5,-383.4 219.5,-383.4 222.5,-383.4 225.5,-386.4 225.5,-389.4 225.5,-389.4 225.5,-395.4 225.5,-395.4 225.5,-398.4 222.5,-401.4 219.5,-401.4"/>
<text text-anchor="start" x="177.5" y="-390.2" font-family="Helvetica,sans-Serif" font-size="9.00">couz.json</text>
</a>
</g>
</g>
<!-- src/lib/userEditsCollection/userEditsCollection.ts -->
<g id="node20" class="node">
<title>src/lib/userEditsCollection/userEditsCollection.ts</title>
<g id="a_node20"><a xlink:href="src/lib/userEditsCollection/userEditsCollection.ts" xlink:title="userEditsCollection.ts">
<path fill="#ddfeff" stroke="black" d="M245,-487.4C245,-487.4 150,-487.4 150,-487.4 147,-487.4 144,-484.4 144,-481.4 144,-481.4 144,-475.4 144,-475.4 144,-472.4 147,-469.4 150,-469.4 150,-469.4 245,-469.4 245,-469.4 248,-469.4 251,-472.4 251,-475.4 251,-475.4 251,-481.4 251,-481.4 251,-484.4 248,-487.4 245,-487.4"/>
<text text-anchor="start" x="152" y="-476.2" font-family="Helvetica,sans-Serif" font-size="9.00">userEditsCollection.ts</text>
</a>
</g>
</g>
<!-- src/lib/userEditsCollection/userEditsCollection.ts&#45;&gt;src/gathering/Collection.ts -->
<g id="edge30" class="edge">
<title>src/lib/userEditsCollection/userEditsCollection.ts&#45;&gt;src/gathering/Collection.ts</title>
<path fill="none" stroke="#000000" stroke-opacity="0.200000" d="M219.93,-469.3C303.68,-433.74 608.76,-304.23 701.55,-264.84"/>
<polygon fill="none" stroke="#000000" stroke-opacity="0.200000" points="702.39,-266.76 707.09,-262.48 700.75,-262.9 702.39,-266.76"/>
</g>
<!-- src/lib/userEditsCollection/userEditsCollection.ts&#45;&gt;src/gathering/ICollectionEditor.ts -->
<g id="edge31" class="edge">
<title>src/lib/userEditsCollection/userEditsCollection.ts&#45;&gt;src/gathering/ICollectionEditor.ts</title>
<path fill="none" stroke="#000000" stroke-opacity="0.200000" d="M228.15,-469.38C246.67,-462.06 269.1,-449.72 280.5,-430.4 289.57,-415.03 276.14,-122.26 288.5,-109.4 324.5,-71.93 477.04,-77.63 558.97,-83.69"/>
<polygon fill="none" stroke="#000000" stroke-opacity="0.200000" points="559.08,-85.8 565.22,-84.16 559.4,-81.62 559.08,-85.8"/>
</g>
<!-- src/lib/userEditsCollection/userEditsCollection.ts&#45;&gt;src/gathering/ICollectionOutput.ts -->
<g id="edge32" class="edge">
<title>src/lib/userEditsCollection/userEditsCollection.ts&#45;&gt;src/gathering/ICollectionOutput.ts</title>
<path fill="none" stroke="#000000" stroke-opacity="0.200000" d="M228.13,-469.37C246.65,-462.05 269.08,-449.71 280.5,-430.4 288.96,-416.09 276.59,-142.99 288.5,-131.4 329.92,-91.07 504.78,-120.91 547,-160.4 566.31,-178.45 547.87,-196.45 564,-217.4 569.26,-224.23 576.63,-229.82 583.99,-234.21"/>
<polygon fill="none" stroke="#000000" stroke-opacity="0.200000" points="583.32,-236.24 589.59,-237.33 585.37,-232.57 583.32,-236.24"/>
</g>
<!-- src/lib/userEditsCollection/userEditsCollection.ts&#45;&gt;src/gathering/IPackRepository.ts -->
<g id="edge33" class="edge">
<title>src/lib/userEditsCollection/userEditsCollection.ts&#45;&gt;src/gathering/IPackRepository.ts</title>
<path fill="none" stroke="#000000" stroke-opacity="0.200000" d="M228.16,-469.39C246.69,-462.07 269.12,-449.73 280.5,-430.4 290.45,-413.49 274.57,-91.21 288.5,-77.4 406.05,39.2 517.32,8.87 661,-73.4 698.97,-95.14 717.66,-147.45 724.85,-173.35"/>
<polygon fill="none" stroke="#000000" stroke-opacity="0.200000" points="722.87,-174.07 726.43,-179.33 726.93,-172.99 722.87,-174.07"/>
</g>
<!-- src/lib/userEditsCollection/userEditsCollection.ts&#45;&gt;src/gathering/index.ts -->
<g id="edge29" class="edge">
<title>src/lib/userEditsCollection/userEditsCollection.ts&#45;&gt;src/gathering/index.ts</title>
<path fill="none" stroke="#000000" stroke-width="2" stroke-opacity="0.200000" d="M228.12,-469.36C246.63,-462.03 269.05,-449.69 280.5,-430.4 295.81,-404.58 269.15,-183.34 288.5,-160.4 297.52,-149.71 312.22,-145.75 325.78,-144.65"/>
<polygon fill="#000000" fill-opacity="0.200000" stroke="#000000" stroke-width="2" stroke-opacity="0.200000" points="326.02,-146.74 331.91,-144.34 325.81,-142.55 326.02,-146.74"/>
</g>
<!-- src/routes/collection/couz/+page.server.ts -->
<g id="node21" class="node">
<title>src/routes/collection/couz/+page.server.ts</title>
<g id="a_node21"><a xlink:href="src/routes/collection/couz/+page.server.ts" xlink:title="+page.server.ts">
<path fill="#ddfeff" stroke="black" d="M114,-217.4C114,-217.4 46,-217.4 46,-217.4 43,-217.4 40,-214.4 40,-211.4 40,-211.4 40,-205.4 40,-205.4 40,-202.4 43,-199.4 46,-199.4 46,-199.4 114,-199.4 114,-199.4 117,-199.4 120,-202.4 120,-205.4 120,-205.4 120,-211.4 120,-211.4 120,-214.4 117,-217.4 114,-217.4"/>
<text text-anchor="start" x="48" y="-206.2" font-family="Helvetica,sans-Serif" font-size="9.00">+page.server.ts</text>
</a>
</g>
</g>
<!-- src/routes/collection/couz/+page.server.ts&#45;&gt;src/lib/BinderStorage/index.ts -->
<g id="edge34" class="edge">
<title>src/routes/collection/couz/+page.server.ts&#45;&gt;src/lib/BinderStorage/index.ts</title>
<path fill="none" stroke="#000000" stroke-opacity="0.200000" d="M80.73,-217.54C79.35,-270.92 75.04,-541.78 128,-600.4 215.37,-697.09 293.45,-671.33 419,-636.4 436.66,-631.48 454.32,-620.14 466.42,-611.12"/>
<polygon fill="none" stroke="#000000" stroke-opacity="0.200000" points="467.77,-612.73 471.26,-607.42 465.22,-609.39 467.77,-612.73"/>
</g>
<!-- src/routes/collection/couz/+page.server.ts&#45;&gt;src/lib/server/ahdb.cards.json -->
<g id="edge35" class="edge">
<title>src/routes/collection/couz/+page.server.ts&#45;&gt;src/lib/server/ahdb.cards.json</title>
<path fill="none" stroke="#000000" stroke-width="2" stroke-opacity="0.200000" d="M89.68,-217.42C109.75,-238.26 159.45,-289.9 183.31,-314.69"/>
<polygon fill="#000000" fill-opacity="0.200000" stroke="#000000" stroke-width="2" stroke-opacity="0.200000" points="182.04,-316.41 187.72,-319.27 185.07,-313.49 182.04,-316.41"/>
</g>
<!-- src/routes/collection/couz/+page.server.ts&#45;&gt;src/lib/server/ahdb.packs.json -->
<g id="edge36" class="edge">
<title>src/routes/collection/couz/+page.server.ts&#45;&gt;src/lib/server/ahdb.packs.json</title>
<path fill="none" stroke="#000000" stroke-width="2" stroke-opacity="0.200000" d="M81.28,-217.59C82.56,-242.08 89.57,-309.3 128,-343.4 133.95,-348.68 141.33,-352.24 149.01,-354.61"/>
<polygon fill="#000000" fill-opacity="0.200000" stroke="#000000" stroke-width="2" stroke-opacity="0.200000" points="148.59,-356.68 154.93,-356.21 149.68,-352.62 148.59,-356.68"/>
</g>
<!-- src/routes/collection/couz/+page.server.ts&#45;&gt;src/lib/server/collection/couz.json -->
<g id="edge37" class="edge">
<title>src/routes/collection/couz/+page.server.ts&#45;&gt;src/lib/server/collection/couz.json</title>
<path fill="none" stroke="#000000" stroke-width="2" stroke-opacity="0.200000" d="M80.45,-217.49C79.27,-246.08 79.8,-334.93 128,-379.4 137.48,-388.14 150.94,-391.86 163.42,-393.22"/>
<polygon fill="#000000" fill-opacity="0.200000" stroke="#000000" stroke-width="2" stroke-opacity="0.200000" points="163.29,-395.32 169.44,-393.71 163.63,-391.13 163.29,-395.32"/>
</g>
<!-- src/routes/collection/couz/+page.svelte.ts -->
<g id="node22" class="node">
<title>src/routes/collection/couz/+page.svelte.ts</title>
<g id="a_node22"><a xlink:href="src/routes/collection/couz/+page.svelte.ts" xlink:title="+page.svelte.ts">
<path fill="#ddfeff" stroke="black" d="M113.5,-187.4C113.5,-187.4 46.5,-187.4 46.5,-187.4 43.5,-187.4 40.5,-184.4 40.5,-181.4 40.5,-181.4 40.5,-175.4 40.5,-175.4 40.5,-172.4 43.5,-169.4 46.5,-169.4 46.5,-169.4 113.5,-169.4 113.5,-169.4 116.5,-169.4 119.5,-172.4 119.5,-175.4 119.5,-175.4 119.5,-181.4 119.5,-181.4 119.5,-184.4 116.5,-187.4 113.5,-187.4"/>
<text text-anchor="start" x="48.5" y="-176.2" font-family="Helvetica,sans-Serif" font-size="9.00">+page.svelte.ts</text>
</a>
</g>
</g>
<!-- src/routes/collection/couz/+page.svelte.ts&#45;&gt;src/lib/Components/Binder.svelte.ts -->
<g id="edge40" class="edge">
<title>src/routes/collection/couz/+page.svelte.ts&#45;&gt;src/lib/Components/Binder.svelte.ts</title>
<path fill="none" stroke="#000000" stroke-width="2" stroke-opacity="0.200000" d="M114.22,-187.6C116.43,-189.23 118.41,-191.14 120,-193.4 140.69,-222.73 106.49,-487.65 128,-516.4 133.83,-524.18 142.44,-529.27 151.61,-532.57"/>
<polygon fill="#000000" fill-opacity="0.200000" stroke="#000000" stroke-width="2" stroke-opacity="0.200000" points="151.02,-534.59 157.38,-534.41 152.3,-530.59 151.02,-534.59"/>
</g>
<!-- src/routes/collection/couz/+page.svelte.ts&#45;&gt;src/lib/Presenters/BinderOutputPort.ts -->
<g id="edge41" class="edge">
<title>src/routes/collection/couz/+page.svelte.ts&#45;&gt;src/lib/Presenters/BinderOutputPort.ts</title>
<path fill="none" stroke="#000000" stroke-width="2" stroke-opacity="0.200000" d="M114.23,-187.59C116.44,-189.22 118.42,-191.14 120,-193.4 132.23,-210.81 113.52,-560.8 128,-576.4 175.59,-627.67 265.09,-619.29 317.31,-608.74"/>
<polygon fill="#000000" fill-opacity="0.200000" stroke="#000000" stroke-width="2" stroke-opacity="0.200000" points="318.04,-610.73 323.48,-607.45 317.18,-606.62 318.04,-610.73"/>
</g>
<!-- src/routes/collection/couz/+page.svelte.ts&#45;&gt;src/lib/userEditsCollection/userEditsCollection.ts -->
<g id="edge42" class="edge">
<title>src/routes/collection/couz/+page.svelte.ts&#45;&gt;src/lib/userEditsCollection/userEditsCollection.ts</title>
<path fill="none" stroke="#000000" stroke-width="2" stroke-opacity="0.200000" d="M114.2,-187.62C116.42,-189.24 118.4,-191.15 120,-193.4 135.28,-214.86 115.45,-407.23 128,-430.4 136.81,-446.66 153.81,-458.62 168.67,-466.53"/>
<polygon fill="#000000" fill-opacity="0.200000" stroke="#000000" stroke-width="2" stroke-opacity="0.200000" points="167.73,-468.41 174.03,-469.27 169.64,-464.67 167.73,-468.41"/>
</g>
<!-- src/routes/collection/couz/arrow&#45;down.svg.svelte.ts -->
<g id="node23" class="node">
<title>src/routes/collection/couz/arrow&#45;down.svg.svelte.ts</title>
<g id="a_node23"><a xlink:href="src/routes/collection/couz/arrow-down.svg.svelte.ts" xlink:title="arrow&#45;down.svg.svelte.ts">
<path fill="#ddfeff" stroke="black" d="M250.5,-217.4C250.5,-217.4 144.5,-217.4 144.5,-217.4 141.5,-217.4 138.5,-214.4 138.5,-211.4 138.5,-211.4 138.5,-205.4 138.5,-205.4 138.5,-202.4 141.5,-199.4 144.5,-199.4 144.5,-199.4 250.5,-199.4 250.5,-199.4 253.5,-199.4 256.5,-202.4 256.5,-205.4 256.5,-205.4 256.5,-211.4 256.5,-211.4 256.5,-214.4 253.5,-217.4 250.5,-217.4"/>
<text text-anchor="start" x="146.5" y="-206.2" font-family="Helvetica,sans-Serif" font-size="9.00">arrow&#45;down.svg.svelte.ts</text>
</a>
</g>
</g>
<!-- src/routes/collection/couz/+page.svelte.ts&#45;&gt;src/routes/collection/couz/arrow&#45;down.svg.svelte.ts -->
<g id="edge38" class="edge">
<title>src/routes/collection/couz/+page.svelte.ts&#45;&gt;src/routes/collection/couz/arrow&#45;down.svg.svelte.ts</title>
<path fill="none" stroke="#000000" stroke-width="2" stroke-opacity="0.200000" d="M107.72,-187.4C114.31,-189.49 121.38,-191.62 128,-193.4 133.82,-194.96 139.95,-196.48 146.05,-197.91"/>
<polygon fill="#000000" fill-opacity="0.200000" stroke="#000000" stroke-width="2" stroke-opacity="0.200000" points="145.82,-200.01 152.14,-199.32 146.76,-195.92 145.82,-200.01"/>
</g>
<!-- src/routes/collection/couz/arrow&#45;up.svg.svelte.ts -->
<g id="node24" class="node">
<title>src/routes/collection/couz/arrow&#45;up.svg.svelte.ts</title>
<g id="a_node24"><a xlink:href="src/routes/collection/couz/arrow-up.svg.svelte.ts" xlink:title="arrow&#45;up.svg.svelte.ts">
<path fill="#ddfeff" stroke="black" d="M244.5,-187.4C244.5,-187.4 150.5,-187.4 150.5,-187.4 147.5,-187.4 144.5,-184.4 144.5,-181.4 144.5,-181.4 144.5,-175.4 144.5,-175.4 144.5,-172.4 147.5,-169.4 150.5,-169.4 150.5,-169.4 244.5,-169.4 244.5,-169.4 247.5,-169.4 250.5,-172.4 250.5,-175.4 250.5,-175.4 250.5,-181.4 250.5,-181.4 250.5,-184.4 247.5,-187.4 244.5,-187.4"/>
<text text-anchor="start" x="152.5" y="-176.2" font-family="Helvetica,sans-Serif" font-size="9.00">arrow&#45;up.svg.svelte.ts</text>
</a>
</g>
</g>
<!-- src/routes/collection/couz/+page.svelte.ts&#45;&gt;src/routes/collection/couz/arrow&#45;up.svg.svelte.ts -->
<g id="edge39" class="edge">
<title>src/routes/collection/couz/+page.svelte.ts&#45;&gt;src/routes/collection/couz/arrow&#45;up.svg.svelte.ts</title>
<path fill="none" stroke="#000000" stroke-width="2" stroke-opacity="0.200000" d="M119.78,-178.4C125.68,-178.4 131.87,-178.4 138.08,-178.4"/>
<polygon fill="#000000" fill-opacity="0.200000" stroke="#000000" stroke-width="2" stroke-opacity="0.200000" points="138.28,-180.5 144.28,-178.4 138.28,-176.3 138.28,-180.5"/>
</g>
</g>
</svg>
