<?xml version="1.0" encoding="UTF-8" standalone="no"?>
<!DOCTYPE svg PUBLIC "-//W3C//DTD SVG 1.1//EN"
 "http://www.w3.org/Graphics/SVG/1.1/DTD/svg11.dtd">
<!-- Generated by graphviz version 2.50.0 (20211204.2007)
 -->
<!-- Title: dependency&#45;cruiser output Pages: 1 -->
<svg width="602pt" height="734pt"
 viewBox="0.00 0.00 601.50 734.00" xmlns="http://www.w3.org/2000/svg" xmlns:xlink="http://www.w3.org/1999/xlink">
<g id="graph0" class="graph" transform="scale(1 1) rotate(0) translate(4 730)">
<title>dependency&#45;cruiser output</title>
<polygon fill="white" stroke="transparent" points="-4,4 -4,-730 597.5,-730 597.5,4 -4,4"/>
<g id="clust1" class="cluster">
<title>cluster_src</title>
<path fill="#ffffff" stroke="black" stroke-width="2" d="M20,-8C20,-8 573.5,-8 573.5,-8 579.5,-8 585.5,-14 585.5,-20 585.5,-20 585.5,-706 585.5,-706 585.5,-712 579.5,-718 573.5,-718 573.5,-718 20,-718 20,-718 14,-718 8,-712 8,-706 8,-706 8,-20 8,-20 8,-14 14,-8 20,-8"/>
<text text-anchor="middle" x="296.75" y="-706.8" font-family="Helvetica,sans-Serif" font-weight="bold" font-size="9.00">src</text>
</g>
<g id="clust4" class="cluster">
<title>cluster_src/lib</title>
<path fill="#ffffff" stroke="black" stroke-width="2" d="M161,-174C161,-174 495.5,-174 495.5,-174 501.5,-174 507.5,-180 507.5,-186 507.5,-186 507.5,-518 507.5,-518 507.5,-524 501.5,-530 495.5,-530 495.5,-530 161,-530 161,-530 155,-530 149,-524 149,-518 149,-518 149,-186 149,-186 149,-180 155,-174 161,-174"/>
<text text-anchor="middle" x="328.25" y="-518.8" font-family="Helvetica,sans-Serif" font-weight="bold" font-size="9.00">lib</text>
</g>
<g id="clust6" class="cluster">
<title>cluster_src/lib/Components</title>
<path fill="#ffffff" stroke="black" stroke-width="2" d="M182.5,-452C182.5,-452 409.5,-452 409.5,-452 415.5,-452 421.5,-458 421.5,-464 421.5,-464 421.5,-492 421.5,-492 421.5,-498 415.5,-504 409.5,-504 409.5,-504 182.5,-504 182.5,-504 176.5,-504 170.5,-498 170.5,-492 170.5,-492 170.5,-464 170.5,-464 170.5,-458 176.5,-452 182.5,-452"/>
<text text-anchor="middle" x="296" y="-492.8" font-family="Helvetica,sans-Serif" font-weight="bold" font-size="9.00">Components</text>
</g>
<g id="clust5" class="cluster">
<title>cluster_src/lib/BinderStorage</title>
<path fill="#ffffff" stroke="black" stroke-width="2" d="M191.5,-392C191.5,-392 245.5,-392 245.5,-392 251.5,-392 257.5,-398 257.5,-404 257.5,-404 257.5,-432 257.5,-432 257.5,-438 251.5,-444 245.5,-444 245.5,-444 191.5,-444 191.5,-444 185.5,-444 179.5,-438 179.5,-432 179.5,-432 179.5,-404 179.5,-404 179.5,-398 185.5,-392 191.5,-392"/>
<text text-anchor="middle" x="218.5" y="-432.8" font-family="Helvetica,sans-Serif" font-weight="bold" font-size="9.00">BinderStorage</text>
</g>
<g id="clust7" class="cluster">
<title>cluster_src/lib/ViewModels</title>
<path fill="#ffffff" stroke="black" stroke-width="2" d="M441.5,-452C441.5,-452 487.5,-452 487.5,-452 493.5,-452 499.5,-458 499.5,-464 499.5,-464 499.5,-492 499.5,-492 499.5,-498 493.5,-504 487.5,-504 487.5,-504 441.5,-504 441.5,-504 435.5,-504 429.5,-498 429.5,-492 429.5,-492 429.5,-464 429.5,-464 429.5,-458 435.5,-452 441.5,-452"/>
<text text-anchor="middle" x="464.5" y="-492.8" font-family="Helvetica,sans-Serif" font-weight="bold" font-size="9.00">ViewModels</text>
</g>
<g id="clust10" class="cluster">
<title>cluster_src/lib/userEditsCollection</title>
<path fill="#ffffff" stroke="black" stroke-width="2" d="M169,-332C169,-332 268,-332 268,-332 274,-332 280,-338 280,-344 280,-344 280,-372 280,-372 280,-378 274,-384 268,-384 268,-384 169,-384 169,-384 163,-384 157,-378 157,-372 157,-372 157,-344 157,-344 157,-338 163,-332 169,-332"/>
<text text-anchor="middle" x="218.5" y="-372.8" font-family="Helvetica,sans-Serif" font-weight="bold" font-size="9.00">userEditsCollection</text>
</g>
<g id="clust8" class="cluster">
<title>cluster_src/lib/server</title>
<path fill="#ffffff" stroke="black" stroke-width="2" d="M180,-182C180,-182 257,-182 257,-182 263,-182 269,-188 269,-194 269,-194 269,-312 269,-312 269,-318 263,-324 257,-324 257,-324 180,-324 180,-324 174,-324 168,-318 168,-312 168,-312 168,-194 168,-194 168,-188 174,-182 180,-182"/>
<text text-anchor="middle" x="218.5" y="-312.8" font-family="Helvetica,sans-Serif" font-weight="bold" font-size="9.00">server</text>
</g>
<g id="clust9" class="cluster">
<title>cluster_src/lib/server/collection</title>
<path fill="#ffffff" stroke="black" stroke-width="2" d="M194.5,-246C194.5,-246 242.5,-246 242.5,-246 248.5,-246 254.5,-252 254.5,-258 254.5,-258 254.5,-286 254.5,-286 254.5,-292 248.5,-298 242.5,-298 242.5,-298 194.5,-298 194.5,-298 188.5,-298 182.5,-292 182.5,-286 182.5,-286 182.5,-258 182.5,-258 182.5,-252 188.5,-246 194.5,-246"/>
<text text-anchor="middle" x="218.5" y="-286.8" font-family="Helvetica,sans-Serif" font-weight="bold" font-size="9.00">collection</text>
</g>
<g id="clust2" class="cluster">
<title>cluster_src/gathering</title>
<path fill="#ffffff" stroke="black" stroke-width="2" d="M28,-538C28,-538 565.5,-538 565.5,-538 571.5,-538 577.5,-544 577.5,-550 577.5,-550 577.5,-680 577.5,-680 577.5,-686 571.5,-692 565.5,-692 565.5,-692 28,-692 28,-692 22,-692 16,-686 16,-680 16,-680 16,-550 16,-550 16,-544 22,-538 28,-538"/>
<text text-anchor="middle" x="296.75" y="-680.8" font-family="Helvetica,sans-Serif" font-weight="bold" font-size="9.00">gathering</text>
</g>
<g id="clust3" class="cluster">
<title>cluster_src/gathering/CollectionEditor</title>
<path fill="#ffffff" stroke="black" stroke-width="2" d="M36,-552C36,-552 270.5,-552 270.5,-552 276.5,-552 282.5,-558 282.5,-564 282.5,-564 282.5,-622 282.5,-622 282.5,-628 276.5,-634 270.5,-634 270.5,-634 36,-634 36,-634 30,-634 24,-628 24,-622 24,-622 24,-564 24,-564 24,-558 30,-552 36,-552"/>
<text text-anchor="middle" x="153.25" y="-622.8" font-family="Helvetica,sans-Serif" font-weight="bold" font-size="9.00">CollectionEditor</text>
</g>
<g id="clust11" class="cluster">
<title>cluster_src/routes</title>
<path fill="#ffffff" stroke="black" stroke-width="2" d="M34.5,-16C34.5,-16 289.5,-16 289.5,-16 295.5,-16 301.5,-22 301.5,-28 301.5,-28 301.5,-154 301.5,-154 301.5,-160 295.5,-166 289.5,-166 289.5,-166 34.5,-166 34.5,-166 28.5,-166 22.5,-160 22.5,-154 22.5,-154 22.5,-28 22.5,-28 22.5,-22 28.5,-16 34.5,-16"/>
<text text-anchor="middle" x="162" y="-154.8" font-family="Helvetica,sans-Serif" font-weight="bold" font-size="9.00">routes</text>
</g>
<g id="clust12" class="cluster">
<title>cluster_src/routes/collection</title>
<path fill="#ffffff" stroke="black" stroke-width="2" d="M42.5,-24C42.5,-24 281.5,-24 281.5,-24 287.5,-24 293.5,-30 293.5,-36 293.5,-36 293.5,-128 293.5,-128 293.5,-134 287.5,-140 281.5,-140 281.5,-140 42.5,-140 42.5,-140 36.5,-140 30.5,-134 30.5,-128 30.5,-128 30.5,-36 30.5,-36 30.5,-30 36.5,-24 42.5,-24"/>
<text text-anchor="middle" x="162" y="-128.8" font-family="Helvetica,sans-Serif" font-weight="bold" font-size="9.00">collection</text>
</g>
<g id="clust13" class="cluster">
<title>cluster_src/routes/collection/couz</title>
<path fill="#ffffff" stroke="black" stroke-width="2" d="M50.5,-32C50.5,-32 273.5,-32 273.5,-32 279.5,-32 285.5,-38 285.5,-44 285.5,-44 285.5,-102 285.5,-102 285.5,-108 279.5,-114 273.5,-114 273.5,-114 50.5,-114 50.5,-114 44.5,-114 38.5,-108 38.5,-102 38.5,-102 38.5,-44 38.5,-44 38.5,-38 44.5,-32 50.5,-32"/>
<text text-anchor="middle" x="162" y="-102.8" font-family="Helvetica,sans-Serif" font-weight="bold" font-size="9.00">couz</text>
</g>
<!-- src/gathering/Collection.ts -->
<g id="node1" class="node">
<title>src/gathering/Collection.ts</title>
<g id="a_node1"><a xlink:href="src/gathering/Collection.ts" xlink:title="Collection.ts">
<path fill="#ddfeff" stroke="black" d="M492.5,-646C492.5,-646 436.5,-646 436.5,-646 433.5,-646 430.5,-643 430.5,-640 430.5,-640 430.5,-634 430.5,-634 430.5,-631 433.5,-628 436.5,-628 436.5,-628 492.5,-628 492.5,-628 495.5,-628 498.5,-631 498.5,-634 498.5,-634 498.5,-640 498.5,-640 498.5,-643 495.5,-646 492.5,-646"/>
<text text-anchor="start" x="438.5" y="-634.8" font-family="Helvetica,sans-Serif" font-size="9.00">Collection.ts</text>
</a>
</g>
</g>
<!-- src/gathering/Pack.ts -->
<g id="node2" class="node">
<title>src/gathering/Pack.ts</title>
<g id="a_node2"><a xlink:href="src/gathering/Pack.ts" xlink:title="Pack.ts">
<path fill="#ddfeff" stroke="black" d="M563.5,-600C563.5,-600 521.5,-600 521.5,-600 518.5,-600 515.5,-597 515.5,-594 515.5,-594 515.5,-588 515.5,-588 515.5,-585 518.5,-582 521.5,-582 521.5,-582 563.5,-582 563.5,-582 566.5,-582 569.5,-585 569.5,-588 569.5,-588 569.5,-594 569.5,-594 569.5,-597 566.5,-600 563.5,-600"/>
<text text-anchor="start" x="527" y="-588.8" font-family="Helvetica,sans-Serif" font-size="9.00">Pack.ts</text>
</a>
</g>
</g>
<!-- src/gathering/Collection.ts&#45;&gt;src/gathering/Pack.ts -->
<g id="edge1" class="edge">
<title>src/gathering/Collection.ts&#45;&gt;src/gathering/Pack.ts</title>
<path fill="none" stroke="#000000" stroke-opacity="0.200000" d="M481.98,-627.86C489.77,-623.47 499.18,-618.06 507.5,-613 512.44,-609.99 517.72,-606.65 522.6,-603.49"/>
<polygon fill="none" stroke="#000000" stroke-opacity="0.200000" points="523.83,-605.2 527.71,-600.17 521.54,-601.68 523.83,-605.2"/>
</g>
<!-- src/gathering/CollectionEditor/CollectionEditor.test.ts -->
<g id="node3" class="node">
<title>src/gathering/CollectionEditor/CollectionEditor.test.ts</title>
<g id="a_node3"><a xlink:href="src/gathering/CollectionEditor/CollectionEditor.test.ts" xlink:title="CollectionEditor.test.ts">
<path fill="#ddfeff" stroke="black" d="M135,-608C135,-608 38,-608 38,-608 35,-608 32,-605 32,-602 32,-602 32,-596 32,-596 32,-593 35,-590 38,-590 38,-590 135,-590 135,-590 138,-590 141,-593 141,-596 141,-596 141,-602 141,-602 141,-605 138,-608 135,-608"/>
<text text-anchor="start" x="40" y="-596.8" font-family="Helvetica,sans-Serif" font-size="9.00">CollectionEditor.test.ts</text>
</a>
</g>
</g>
<!-- src/gathering/CollectionEditor/CollectionEditor.test.ts&#45;&gt;src/gathering/Collection.ts -->
<g id="edge4" class="edge">
<title>src/gathering/CollectionEditor/CollectionEditor.test.ts&#45;&gt;src/gathering/Collection.ts</title>
<path fill="none" stroke="#000000" stroke-opacity="0.200000" d="M101.02,-608.3C113.06,-616.13 131.46,-626.99 149,-633 264.07,-672.38 303.13,-685.94 421.5,-658 429.19,-656.19 437.07,-652.74 443.9,-649.15"/>
<polygon fill="none" stroke="#000000" stroke-opacity="0.200000" points="445.12,-650.88 449.36,-646.14 443.09,-647.2 445.12,-650.88"/>
</g>
<!-- src/gathering/CollectionEditor/CollectionEditor.ts -->
<g id="node4" class="node">
<title>src/gathering/CollectionEditor/CollectionEditor.ts</title>
<g id="a_node4"><a xlink:href="src/gathering/CollectionEditor/CollectionEditor.ts" xlink:title="CollectionEditor.ts">
<path fill="#ddfeff" stroke="black" d="M258.5,-608C258.5,-608 178.5,-608 178.5,-608 175.5,-608 172.5,-605 172.5,-602 172.5,-602 172.5,-596 172.5,-596 172.5,-593 175.5,-590 178.5,-590 178.5,-590 258.5,-590 258.5,-590 261.5,-590 264.5,-593 264.5,-596 264.5,-596 264.5,-602 264.5,-602 264.5,-605 261.5,-608 258.5,-608"/>
<text text-anchor="start" x="180.5" y="-596.8" font-family="Helvetica,sans-Serif" font-size="9.00">CollectionEditor.ts</text>
</a>
</g>
</g>
<!-- src/gathering/CollectionEditor/CollectionEditor.test.ts&#45;&gt;src/gathering/CollectionEditor/CollectionEditor.ts -->
<g id="edge2" class="edge">
<title>src/gathering/CollectionEditor/CollectionEditor.test.ts&#45;&gt;src/gathering/CollectionEditor/CollectionEditor.ts</title>
<path fill="none" stroke="#000000" stroke-width="2" stroke-opacity="0.200000" d="M141.13,-599C149.38,-599 157.88,-599 166.08,-599"/>
<polygon fill="#000000" fill-opacity="0.200000" stroke="#000000" stroke-width="2" stroke-opacity="0.200000" points="166.28,-601.1 172.28,-599 166.28,-596.9 166.28,-601.1"/>
</g>
<!-- src/gathering/CollectionEditor/PackRepositoryMock.ts -->
<g id="node5" class="node">
<title>src/gathering/CollectionEditor/PackRepositoryMock.ts</title>
<g id="a_node5"><a xlink:href="src/gathering/CollectionEditor/PackRepositoryMock.ts" xlink:title="PackRepositoryMock.ts">
<path fill="#ddfeff" stroke="black" d="M268.5,-578C268.5,-578 168.5,-578 168.5,-578 165.5,-578 162.5,-575 162.5,-572 162.5,-572 162.5,-566 162.5,-566 162.5,-563 165.5,-560 168.5,-560 168.5,-560 268.5,-560 268.5,-560 271.5,-560 274.5,-563 274.5,-566 274.5,-566 274.5,-572 274.5,-572 274.5,-575 271.5,-578 268.5,-578"/>
<text text-anchor="start" x="170.5" y="-566.8" font-family="Helvetica,sans-Serif" font-size="9.00">PackRepositoryMock.ts</text>
</a>
</g>
</g>
<!-- src/gathering/CollectionEditor/CollectionEditor.test.ts&#45;&gt;src/gathering/CollectionEditor/PackRepositoryMock.ts -->
<g id="edge3" class="edge">
<title>src/gathering/CollectionEditor/CollectionEditor.test.ts&#45;&gt;src/gathering/CollectionEditor/PackRepositoryMock.ts</title>
<path fill="none" stroke="#000000" stroke-width="2" stroke-opacity="0.200000" d="M123.89,-589.97C132.14,-587.97 140.86,-585.88 149,-584 155.54,-582.49 162.44,-580.93 169.24,-579.42"/>
<polygon fill="#000000" fill-opacity="0.200000" stroke="#000000" stroke-width="2" stroke-opacity="0.200000" points="170.04,-581.39 175.44,-578.05 169.13,-577.29 170.04,-581.39"/>
</g>
<!-- src/gathering/ICollectionEditor.ts -->
<g id="node6" class="node">
<title>src/gathering/ICollectionEditor.ts</title>
<g id="a_node6"><a xlink:href="src/gathering/ICollectionEditor.ts" xlink:title="ICollectionEditor.ts">
<path fill="#ddfeff" stroke="black" d="M402.5,-622C402.5,-622 320.5,-622 320.5,-622 317.5,-622 314.5,-619 314.5,-616 314.5,-616 314.5,-610 314.5,-610 314.5,-607 317.5,-604 320.5,-604 320.5,-604 402.5,-604 402.5,-604 405.5,-604 408.5,-607 408.5,-610 408.5,-610 408.5,-616 408.5,-616 408.5,-619 405.5,-622 402.5,-622"/>
<text text-anchor="start" x="322.5" y="-610.8" font-family="Helvetica,sans-Serif" font-size="9.00">ICollectionEditor.ts</text>
</a>
</g>
</g>
<!-- src/gathering/CollectionEditor/CollectionEditor.test.ts&#45;&gt;src/gathering/ICollectionEditor.ts -->
<g id="edge5" class="edge">
<title>src/gathering/CollectionEditor/CollectionEditor.test.ts&#45;&gt;src/gathering/ICollectionEditor.ts</title>
<path fill="none" stroke="#000000" stroke-opacity="0.200000" d="M118.21,-608.02C127.96,-610.47 138.85,-612.78 149,-614 202.86,-620.47 264.99,-619.14 307.91,-616.86"/>
<polygon fill="none" stroke="#000000" stroke-opacity="0.200000" points="308.23,-618.94 314.1,-616.52 307.99,-614.75 308.23,-618.94"/>
</g>
<!-- src/gathering/ICollectionOutput.ts -->
<g id="node7" class="node">
<title>src/gathering/ICollectionOutput.ts</title>
<g id="a_node7"><a xlink:href="src/gathering/ICollectionOutput.ts" xlink:title="ICollectionOutput.ts">
<path fill="#ddfeff" stroke="black" d="M404,-652C404,-652 319,-652 319,-652 316,-652 313,-649 313,-646 313,-646 313,-640 313,-640 313,-637 316,-634 319,-634 319,-634 404,-634 404,-634 407,-634 410,-637 410,-640 410,-640 410,-646 410,-646 410,-649 407,-652 404,-652"/>
<text text-anchor="start" x="321" y="-640.8" font-family="Helvetica,sans-Serif" font-size="9.00">ICollectionOutput.ts</text>
</a>
</g>
</g>
<!-- src/gathering/CollectionEditor/CollectionEditor.test.ts&#45;&gt;src/gathering/ICollectionOutput.ts -->
<g id="edge6" class="edge">
<title>src/gathering/CollectionEditor/CollectionEditor.test.ts&#45;&gt;src/gathering/ICollectionOutput.ts</title>
<path fill="none" stroke="#000000" stroke-opacity="0.200000" d="M110.23,-608.1C121.68,-612.34 135.89,-617.09 149,-620 201.92,-631.76 263.69,-637.6 306.76,-640.44"/>
<polygon fill="none" stroke="#000000" stroke-opacity="0.200000" points="306.85,-642.55 312.97,-640.83 307.12,-638.35 306.85,-642.55"/>
</g>
<!-- src/gathering/CollectionEditor/CollectionEditor.ts&#45;&gt;src/gathering/Pack.ts -->
<g id="edge10" class="edge">
<title>src/gathering/CollectionEditor/CollectionEditor.ts&#45;&gt;src/gathering/Pack.ts</title>
<path fill="none" stroke="#000000" stroke-opacity="0.200000" d="M264.61,-597.88C330.58,-596.24 451.75,-593.23 509.4,-591.8"/>
<polygon fill="none" stroke="#000000" stroke-opacity="0.200000" points="509.5,-593.9 515.44,-591.65 509.39,-589.7 509.5,-593.9"/>
</g>
<!-- src/gathering/CollectionEditor/CollectionEditor.ts&#45;&gt;src/gathering/ICollectionEditor.ts -->
<g id="edge7" class="edge">
<title>src/gathering/CollectionEditor/CollectionEditor.ts&#45;&gt;src/gathering/ICollectionEditor.ts</title>
<path fill="none" stroke="#000000" stroke-opacity="0.200000" d="M264.5,-603.47C278.46,-604.85 293.97,-606.39 308.37,-607.82"/>
<polygon fill="none" stroke="#000000" stroke-opacity="0.200000" points="308.29,-609.93 314.47,-608.43 308.71,-605.75 308.29,-609.93"/>
</g>
<!-- src/gathering/CollectionEditor/CollectionEditor.ts&#45;&gt;src/gathering/ICollectionOutput.ts -->
<g id="edge8" class="edge">
<title>src/gathering/CollectionEditor/CollectionEditor.ts&#45;&gt;src/gathering/ICollectionOutput.ts</title>
<path fill="none" stroke="#000000" stroke-opacity="0.200000" d="M264.59,-598.58C277.5,-600.37 290.92,-604.25 301.5,-612 307.91,-616.7 303.4,-622.9 309.5,-628 310.71,-629.01 311.98,-629.95 313.31,-630.83"/>
<polygon fill="none" stroke="#000000" stroke-opacity="0.200000" points="312.4,-632.73 318.64,-633.92 314.5,-629.1 312.4,-632.73"/>
</g>
<!-- src/gathering/IPackRepository.ts -->
<g id="node8" class="node">
<title>src/gathering/IPackRepository.ts</title>
<g id="a_node8"><a xlink:href="src/gathering/IPackRepository.ts" xlink:title="IPackRepository.ts">
<path fill="#ddfeff" stroke="black" d="M402,-578C402,-578 321,-578 321,-578 318,-578 315,-575 315,-572 315,-572 315,-566 315,-566 315,-563 318,-560 321,-560 321,-560 402,-560 402,-560 405,-560 408,-563 408,-566 408,-566 408,-572 408,-572 408,-575 405,-578 402,-578"/>
<text text-anchor="start" x="323" y="-566.8" font-family="Helvetica,sans-Serif" font-size="9.00">IPackRepository.ts</text>
</a>
</g>
</g>
<!-- src/gathering/CollectionEditor/CollectionEditor.ts&#45;&gt;src/gathering/IPackRepository.ts -->
<g id="edge9" class="edge">
<title>src/gathering/CollectionEditor/CollectionEditor.ts&#45;&gt;src/gathering/IPackRepository.ts</title>
<path fill="none" stroke="#000000" stroke-opacity="0.200000" d="M264.72,-591.3C276.71,-589.1 289.62,-586.59 301.5,-584 307.75,-582.64 314.33,-581.08 320.75,-579.5"/>
<polygon fill="none" stroke="#000000" stroke-opacity="0.200000" points="321.27,-581.53 326.59,-578.04 320.26,-577.46 321.27,-581.53"/>
</g>
<!-- src/gathering/CollectionEditor/PackRepositoryMock.ts&#45;&gt;src/gathering/Pack.ts -->
<g id="edge12" class="edge">
<title>src/gathering/CollectionEditor/PackRepositoryMock.ts&#45;&gt;src/gathering/Pack.ts</title>
<path fill="none" stroke="#000000" stroke-opacity="0.200000" d="M264.64,-559.98C278.93,-557.53 294.82,-555.22 309.5,-554 397.65,-546.7 424.3,-544 507.5,-574 511.5,-575.44 515.65,-577.24 519.61,-579.12"/>
<polygon fill="none" stroke="#000000" stroke-opacity="0.200000" points="518.93,-581.13 525.24,-581.9 520.79,-577.36 518.93,-581.13"/>
</g>
<!-- src/gathering/CollectionEditor/PackRepositoryMock.ts&#45;&gt;src/gathering/IPackRepository.ts -->
<g id="edge11" class="edge">
<title>src/gathering/CollectionEditor/PackRepositoryMock.ts&#45;&gt;src/gathering/IPackRepository.ts</title>
<path fill="none" stroke="#000000" stroke-opacity="0.200000" d="M274.82,-569C286.02,-569 297.75,-569 308.82,-569"/>
<polygon fill="none" stroke="#000000" stroke-opacity="0.200000" points="308.89,-571.1 314.89,-569 308.89,-566.9 308.89,-571.1"/>
</g>
<!-- src/gathering/ICollectionEditor.ts&#45;&gt;src/gathering/Collection.ts -->
<g id="edge13" class="edge">
<title>src/gathering/ICollectionEditor.ts&#45;&gt;src/gathering/Collection.ts</title>
<path fill="none" stroke="#000000" stroke-opacity="0.200000" d="M400.4,-622C408.25,-623.87 416.53,-625.84 424.42,-627.71"/>
<polygon fill="none" stroke="#000000" stroke-opacity="0.200000" points="424.04,-629.78 430.37,-629.13 425.02,-625.7 424.04,-629.78"/>
</g>
<!-- src/gathering/ICollectionEditor.ts&#45;&gt;src/gathering/Pack.ts -->
<g id="edge14" class="edge">
<title>src/gathering/ICollectionEditor.ts&#45;&gt;src/gathering/Pack.ts</title>
<path fill="none" stroke="#000000" stroke-opacity="0.200000" d="M408.6,-607.33C440.09,-603.46 481.04,-598.43 509.11,-594.98"/>
<polygon fill="none" stroke="#000000" stroke-opacity="0.200000" points="509.55,-597.04 515.25,-594.23 509.04,-592.87 509.55,-597.04"/>
</g>
<!-- src/gathering/ICollectionOutput.ts&#45;&gt;src/gathering/Collection.ts -->
<g id="edge15" class="edge">
<title>src/gathering/ICollectionOutput.ts&#45;&gt;src/gathering/Collection.ts</title>
<path fill="none" stroke="#000000" stroke-opacity="0.200000" d="M410.04,-640.18C414.76,-639.9 419.5,-639.61 424.12,-639.34"/>
<polygon fill="none" stroke="#000000" stroke-opacity="0.200000" points="424.46,-641.42 430.32,-638.97 424.21,-637.23 424.46,-641.42"/>
</g>
<!-- src/gathering/IPackRepository.ts&#45;&gt;src/gathering/Pack.ts -->
<g id="edge16" class="edge">
<title>src/gathering/IPackRepository.ts&#45;&gt;src/gathering/Pack.ts</title>
<path fill="none" stroke="#000000" stroke-opacity="0.200000" d="M408.13,-574.61C439.72,-578.49 480.99,-583.56 509.2,-587.03"/>
<polygon fill="none" stroke="#000000" stroke-opacity="0.200000" points="509.16,-589.14 515.37,-587.79 509.67,-584.97 509.16,-589.14"/>
</g>
<!-- src/lib/BinderStorage/index.ts -->
<g id="node9" class="node">
<title>src/lib/BinderStorage/index.ts</title>
<g id="a_node9"><a xlink:href="src/lib/BinderStorage/index.ts" xlink:title="index.ts">
<path fill="#ddfeff" stroke="black" d="M239.5,-418C239.5,-418 197.5,-418 197.5,-418 194.5,-418 191.5,-415 191.5,-412 191.5,-412 191.5,-406 191.5,-406 191.5,-403 194.5,-400 197.5,-400 197.5,-400 239.5,-400 239.5,-400 242.5,-400 245.5,-403 245.5,-406 245.5,-406 245.5,-412 245.5,-412 245.5,-415 242.5,-418 239.5,-418"/>
<text text-anchor="start" x="202.5" y="-406.8" font-family="Helvetica,sans-Serif" font-size="9.00">index.ts</text>
</a>
</g>
</g>
<!-- src/lib/Components/Binder.svelte.ts -->
<g id="node10" class="node">
<title>src/lib/Components/Binder.svelte.ts</title>
<g id="a_node10"><a xlink:href="src/lib/Components/Binder.svelte.ts" xlink:title="Binder.svelte.ts">
<path fill="#ddfeff" stroke="black" d="M252.5,-478C252.5,-478 184.5,-478 184.5,-478 181.5,-478 178.5,-475 178.5,-472 178.5,-472 178.5,-466 178.5,-466 178.5,-463 181.5,-460 184.5,-460 184.5,-460 252.5,-460 252.5,-460 255.5,-460 258.5,-463 258.5,-466 258.5,-466 258.5,-472 258.5,-472 258.5,-475 255.5,-478 252.5,-478"/>
<text text-anchor="start" x="186.5" y="-466.8" font-family="Helvetica,sans-Serif" font-size="9.00">Binder.svelte.ts</text>
</a>
</g>
</g>
<!-- src/lib/Components/PocketSheet.svelte.ts -->
<g id="node11" class="node">
<title>src/lib/Components/PocketSheet.svelte.ts</title>
<g id="a_node11"><a xlink:href="src/lib/Components/PocketSheet.svelte.ts" xlink:title="PocketSheet.svelte.ts">
<path fill="#ddfeff" stroke="black" d="M407.5,-478C407.5,-478 315.5,-478 315.5,-478 312.5,-478 309.5,-475 309.5,-472 309.5,-472 309.5,-466 309.5,-466 309.5,-463 312.5,-460 315.5,-460 315.5,-460 407.5,-460 407.5,-460 410.5,-460 413.5,-463 413.5,-466 413.5,-466 413.5,-472 413.5,-472 413.5,-475 410.5,-478 407.5,-478"/>
<text text-anchor="start" x="317.5" y="-466.8" font-family="Helvetica,sans-Serif" font-size="9.00">PocketSheet.svelte.ts</text>
</a>
</g>
</g>
<!-- src/lib/Components/Binder.svelte.ts&#45;&gt;src/lib/Components/PocketSheet.svelte.ts -->
<g id="edge17" class="edge">
<title>src/lib/Components/Binder.svelte.ts&#45;&gt;src/lib/Components/PocketSheet.svelte.ts</title>
<path fill="none" stroke="#000000" stroke-width="2" stroke-opacity="0.200000" d="M258.78,-469C272.47,-469 288.12,-469 302.98,-469"/>
<polygon fill="#000000" fill-opacity="0.200000" stroke="#000000" stroke-width="2" stroke-opacity="0.200000" points="303.3,-471.1 309.3,-469 303.3,-466.9 303.3,-471.1"/>
</g>
<!-- src/lib/ViewModels/binder.ts -->
<g id="node12" class="node">
<title>src/lib/ViewModels/binder.ts</title>
<g id="a_node12"><a xlink:href="src/lib/ViewModels/binder.ts" xlink:title="binder.ts">
<path fill="#ddfeff" stroke="black" d="M485.5,-478C485.5,-478 443.5,-478 443.5,-478 440.5,-478 437.5,-475 437.5,-472 437.5,-472 437.5,-466 437.5,-466 437.5,-463 440.5,-460 443.5,-460 443.5,-460 485.5,-460 485.5,-460 488.5,-460 491.5,-463 491.5,-466 491.5,-466 491.5,-472 491.5,-472 491.5,-475 488.5,-478 485.5,-478"/>
<text text-anchor="start" x="446" y="-466.8" font-family="Helvetica,sans-Serif" font-size="9.00">binder.ts</text>
</a>
</g>
</g>
<!-- src/lib/Components/Binder.svelte.ts&#45;&gt;src/lib/ViewModels/binder.ts -->
<g id="edge18" class="edge">
<title>src/lib/Components/Binder.svelte.ts&#45;&gt;src/lib/ViewModels/binder.ts</title>
<path fill="none" stroke="#000000" stroke-opacity="0.200000" d="M258.88,-477.59C299.79,-485.19 365.54,-493.69 421.5,-484 426.54,-483.13 431.79,-481.7 436.78,-480.07"/>
<polygon fill="none" stroke="#000000" stroke-opacity="0.200000" points="437.54,-482.03 442.52,-478.08 436.16,-478.07 437.54,-482.03"/>
</g>
<!-- src/lib/Components/PocketSheet.svelte.ts&#45;&gt;src/lib/ViewModels/binder.ts -->
<g id="edge19" class="edge">
<title>src/lib/Components/PocketSheet.svelte.ts&#45;&gt;src/lib/ViewModels/binder.ts</title>
<path fill="none" stroke="#000000" stroke-opacity="0.200000" d="M413.59,-469C419.5,-469 425.4,-469 430.96,-469"/>
<polygon fill="none" stroke="#000000" stroke-opacity="0.200000" points="431.32,-471.1 437.32,-469 431.32,-466.9 431.32,-471.1"/>
</g>
<!-- src/lib/server/ahdb.cards.json -->
<g id="node13" class="node">
<title>src/lib/server/ahdb.cards.json</title>
<g id="a_node13"><a xlink:href="src/lib/server/ahdb.cards.json" xlink:title="ahdb.cards.json">
<path fill="#ffee44" stroke="black" d="M254,-208C254,-208 183,-208 183,-208 180,-208 177,-205 177,-202 177,-202 177,-196 177,-196 177,-193 180,-190 183,-190 183,-190 254,-190 254,-190 257,-190 260,-193 260,-196 260,-196 260,-202 260,-202 260,-205 257,-208 254,-208"/>
<text text-anchor="start" x="185" y="-196.8" font-family="Helvetica,sans-Serif" font-size="9.00">ahdb.cards.json</text>
</a>
</g>
</g>
<!-- src/lib/server/ahdb.packs.json -->
<g id="node14" class="node">
<title>src/lib/server/ahdb.packs.json</title>
<g id="a_node14"><a xlink:href="src/lib/server/ahdb.packs.json" xlink:title="ahdb.packs.json">
<path fill="#ffee44" stroke="black" d="M255,-238C255,-238 182,-238 182,-238 179,-238 176,-235 176,-232 176,-232 176,-226 176,-226 176,-223 179,-220 182,-220 182,-220 255,-220 255,-220 258,-220 261,-223 261,-226 261,-226 261,-232 261,-232 261,-235 258,-238 255,-238"/>
<text text-anchor="start" x="184" y="-226.8" font-family="Helvetica,sans-Serif" font-size="9.00">ahdb.packs.json</text>
</a>
</g>
</g>
<!-- src/lib/server/collection/couz.json -->
<g id="node15" class="node">
<title>src/lib/server/collection/couz.json</title>
<g id="a_node15"><a xlink:href="src/lib/server/collection/couz.json" xlink:title="couz.json">
<path fill="#ffee44" stroke="black" d="M240.5,-272C240.5,-272 196.5,-272 196.5,-272 193.5,-272 190.5,-269 190.5,-266 190.5,-266 190.5,-260 190.5,-260 190.5,-257 193.5,-254 196.5,-254 196.5,-254 240.5,-254 240.5,-254 243.5,-254 246.5,-257 246.5,-260 246.5,-260 246.5,-266 246.5,-266 246.5,-269 243.5,-272 240.5,-272"/>
<text text-anchor="start" x="198.5" y="-260.8" font-family="Helvetica,sans-Serif" font-size="9.00">couz.json</text>
</a>
</g>
</g>
<!-- src/lib/userEditsCollection/userEditsCollection.ts -->
<g id="node16" class="node">
<title>src/lib/userEditsCollection/userEditsCollection.ts</title>
<g id="a_node16"><a xlink:href="src/lib/userEditsCollection/userEditsCollection.ts" xlink:title="userEditsCollection.ts">
<path fill="#ddfeff" stroke="black" d="M266,-358C266,-358 171,-358 171,-358 168,-358 165,-355 165,-352 165,-352 165,-346 165,-346 165,-343 168,-340 171,-340 171,-340 266,-340 266,-340 269,-340 272,-343 272,-346 272,-346 272,-352 272,-352 272,-355 269,-358 266,-358"/>
<text text-anchor="start" x="173" y="-346.8" font-family="Helvetica,sans-Serif" font-size="9.00">userEditsCollection.ts</text>
</a>
</g>
</g>
<!-- src/routes/collection/couz/+page.server.ts -->
<g id="node17" class="node">
<title>src/routes/collection/couz/+page.server.ts</title>
<g id="a_node17"><a xlink:href="src/routes/collection/couz/+page.server.ts" xlink:title="+page.server.ts">
<path fill="#ddfeff" stroke="black" d="M120.5,-88C120.5,-88 52.5,-88 52.5,-88 49.5,-88 46.5,-85 46.5,-82 46.5,-82 46.5,-76 46.5,-76 46.5,-73 49.5,-70 52.5,-70 52.5,-70 120.5,-70 120.5,-70 123.5,-70 126.5,-73 126.5,-76 126.5,-76 126.5,-82 126.5,-82 126.5,-85 123.5,-88 120.5,-88"/>
<text text-anchor="start" x="54.5" y="-76.8" font-family="Helvetica,sans-Serif" font-size="9.00">+page.server.ts</text>
</a>
</g>
</g>
<!-- src/routes/collection/couz/+page.server.ts&#45;&gt;src/lib/BinderStorage/index.ts -->
<g id="edge20" class="edge">
<title>src/routes/collection/couz/+page.server.ts&#45;&gt;src/lib/BinderStorage/index.ts</title>
<path fill="none" stroke="#000000" stroke-opacity="0.200000" d="M88.1,-88.18C91.31,-134.37 107.79,-340.82 149,-387 158.15,-397.25 172.08,-402.76 185,-405.7"/>
<polygon fill="none" stroke="#000000" stroke-opacity="0.200000" points="184.94,-407.83 191.23,-406.95 185.76,-403.71 184.94,-407.83"/>
</g>
<!-- src/routes/collection/couz/+page.server.ts&#45;&gt;src/lib/server/ahdb.cards.json -->
<g id="edge21" class="edge">
<title>src/routes/collection/couz/+page.server.ts&#45;&gt;src/lib/server/ahdb.cards.json</title>
<path fill="none" stroke="#000000" stroke-width="2" stroke-opacity="0.200000" d="M97.27,-88.02C119.95,-108.96 176.26,-160.94 202.99,-185.6"/>
<polygon fill="#000000" fill-opacity="0.200000" stroke="#000000" stroke-width="2" stroke-opacity="0.200000" points="201.78,-187.35 207.62,-189.88 204.63,-184.26 201.78,-187.35"/>
</g>
<!-- src/routes/collection/couz/+page.server.ts&#45;&gt;src/lib/server/ahdb.packs.json -->
<g id="edge22" class="edge">
<title>src/routes/collection/couz/+page.server.ts&#45;&gt;src/lib/server/ahdb.packs.json</title>
<path fill="none" stroke="#000000" stroke-width="2" stroke-opacity="0.200000" d="M88.84,-88.26C92.91,-112.91 107.53,-180.5 149,-214 155.11,-218.94 162.5,-222.34 170.13,-224.66"/>
<polygon fill="#000000" fill-opacity="0.200000" stroke="#000000" stroke-width="2" stroke-opacity="0.200000" points="169.65,-226.71 175.99,-226.24 170.74,-222.66 169.65,-226.71"/>
</g>
<!-- src/routes/collection/couz/+page.server.ts&#45;&gt;src/lib/server/collection/couz.json -->
<g id="edge23" class="edge">
<title>src/routes/collection/couz/+page.server.ts&#45;&gt;src/lib/server/collection/couz.json</title>
<path fill="none" stroke="#000000" stroke-width="2" stroke-opacity="0.200000" d="M87.8,-88.16C89.25,-116.96 97.89,-206.37 149,-250 158.64,-258.23 171.86,-261.9 184.12,-263.37"/>
<polygon fill="#000000" fill-opacity="0.200000" stroke="#000000" stroke-width="2" stroke-opacity="0.200000" points="184.25,-265.49 190.41,-263.95 184.63,-261.31 184.25,-265.49"/>
</g>
<!-- src/routes/collection/couz/+page.svelte.ts -->
<g id="node18" class="node">
<title>src/routes/collection/couz/+page.svelte.ts</title>
<g id="a_node18"><a xlink:href="src/routes/collection/couz/+page.svelte.ts" xlink:title="+page.svelte.ts">
<path fill="#ddfeff" stroke="black" d="M120,-58C120,-58 53,-58 53,-58 50,-58 47,-55 47,-52 47,-52 47,-46 47,-46 47,-43 50,-40 53,-40 53,-40 120,-40 120,-40 123,-40 126,-43 126,-46 126,-46 126,-52 126,-52 126,-55 123,-58 120,-58"/>
<text text-anchor="start" x="55" y="-46.8" font-family="Helvetica,sans-Serif" font-size="9.00">+page.svelte.ts</text>
</a>
</g>
</g>
<!-- src/routes/collection/couz/+page.svelte.ts&#45;&gt;src/lib/userEditsCollection/userEditsCollection.ts -->
<g id="edge26" class="edge">
<title>src/routes/collection/couz/+page.svelte.ts&#45;&gt;src/lib/userEditsCollection/userEditsCollection.ts</title>
<path fill="none" stroke="#000000" stroke-width="2" stroke-opacity="0.200000" d="M126.21,-53.46C131.94,-55.78 137.19,-59.14 141,-64 157.27,-84.72 136.45,-277.84 149,-301 157.81,-317.26 174.81,-329.22 189.67,-337.14"/>
<polygon fill="#000000" fill-opacity="0.200000" stroke="#000000" stroke-width="2" stroke-opacity="0.200000" points="188.73,-339.01 195.03,-339.87 190.64,-335.27 188.73,-339.01"/>
</g>
<!-- src/routes/collection/couz/arrow&#45;down.svg.svelte.ts -->
<g id="node19" class="node">
<title>src/routes/collection/couz/arrow&#45;down.svg.svelte.ts</title>
<g id="a_node19"><a xlink:href="src/routes/collection/couz/arrow-down.svg.svelte.ts" xlink:title="arrow&#45;down.svg.svelte.ts">
<path fill="#ddfeff" stroke="black" d="M271.5,-88C271.5,-88 165.5,-88 165.5,-88 162.5,-88 159.5,-85 159.5,-82 159.5,-82 159.5,-76 159.5,-76 159.5,-73 162.5,-70 165.5,-70 165.5,-70 271.5,-70 271.5,-70 274.5,-70 277.5,-73 277.5,-76 277.5,-76 277.5,-82 277.5,-82 277.5,-85 274.5,-88 271.5,-88"/>
<text text-anchor="start" x="167.5" y="-76.8" font-family="Helvetica,sans-Serif" font-size="9.00">arrow&#45;down.svg.svelte.ts</text>
</a>
</g>
</g>
<!-- src/routes/collection/couz/+page.svelte.ts&#45;&gt;src/routes/collection/couz/arrow&#45;down.svg.svelte.ts -->
<g id="edge24" class="edge">
<title>src/routes/collection/couz/+page.svelte.ts&#45;&gt;src/routes/collection/couz/arrow&#45;down.svg.svelte.ts</title>
<path fill="none" stroke="#000000" stroke-width="2" stroke-opacity="0.200000" d="M123.89,-58.03C132.14,-60.03 140.86,-62.12 149,-64 155.54,-65.51 162.44,-67.07 169.24,-68.58"/>
<polygon fill="#000000" fill-opacity="0.200000" stroke="#000000" stroke-width="2" stroke-opacity="0.200000" points="169.13,-70.71 175.44,-69.95 170.04,-66.61 169.13,-70.71"/>
</g>
<!-- src/routes/collection/couz/arrow&#45;up.svg.svelte.ts -->
<g id="node20" class="node">
<title>src/routes/collection/couz/arrow&#45;up.svg.svelte.ts</title>
<g id="a_node20"><a xlink:href="src/routes/collection/couz/arrow-up.svg.svelte.ts" xlink:title="arrow&#45;up.svg.svelte.ts">
<path fill="#ddfeff" stroke="black" d="M265.5,-58C265.5,-58 171.5,-58 171.5,-58 168.5,-58 165.5,-55 165.5,-52 165.5,-52 165.5,-46 165.5,-46 165.5,-43 168.5,-40 171.5,-40 171.5,-40 265.5,-40 265.5,-40 268.5,-40 271.5,-43 271.5,-46 271.5,-46 271.5,-52 271.5,-52 271.5,-55 268.5,-58 265.5,-58"/>
<text text-anchor="start" x="173.5" y="-46.8" font-family="Helvetica,sans-Serif" font-size="9.00">arrow&#45;up.svg.svelte.ts</text>
</a>
</g>
</g>
<!-- src/routes/collection/couz/+page.svelte.ts&#45;&gt;src/routes/collection/couz/arrow&#45;up.svg.svelte.ts -->
<g id="edge25" class="edge">
<title>src/routes/collection/couz/+page.svelte.ts&#45;&gt;src/routes/collection/couz/arrow&#45;up.svg.svelte.ts</title>
<path fill="none" stroke="#000000" stroke-width="2" stroke-opacity="0.200000" d="M126.15,-49C136.51,-49 147.94,-49 159.11,-49"/>
<polygon fill="#000000" fill-opacity="0.200000" stroke="#000000" stroke-width="2" stroke-opacity="0.200000" points="159.28,-51.1 165.28,-49 159.28,-46.9 159.28,-51.1"/>
</g>
</g>
</svg>
