<?xml version="1.0" encoding="UTF-8" standalone="no"?>
<!DOCTYPE svg PUBLIC "-//W3C//DTD SVG 1.1//EN"
 "http://www.w3.org/Graphics/SVG/1.1/DTD/svg11.dtd">
<!-- Generated by graphviz version 2.50.0 (20211204.2007)
 -->
<!-- Title: dependency&#45;cruiser output Pages: 1 -->
<svg width="624pt" height="515pt"
 viewBox="0.00 0.00 624.00 514.70" xmlns="http://www.w3.org/2000/svg" xmlns:xlink="http://www.w3.org/1999/xlink">
<g id="graph0" class="graph" transform="scale(1 1) rotate(0) translate(4 510.7)">
<title>dependency&#45;cruiser output</title>
<polygon fill="white" stroke="transparent" points="-4,4 -4,-510.7 620,-510.7 620,4 -4,4"/>
<g id="clust1" class="cluster">
<title>cluster_src</title>
<path fill="#ffffff" stroke="black" stroke-width="2" d="M20,-12.7C20,-12.7 596,-12.7 596,-12.7 602,-12.7 608,-18.7 608,-24.7 608,-24.7 608,-486.7 608,-486.7 608,-492.7 602,-498.7 596,-498.7 596,-498.7 20,-498.7 20,-498.7 14,-498.7 8,-492.7 8,-486.7 8,-486.7 8,-24.7 8,-24.7 8,-18.7 14,-12.7 20,-12.7"/>
<text text-anchor="middle" x="308" y="-487.5" font-family="Helvetica,sans-Serif" font-weight="bold" font-size="9.00">src</text>
</g>
<g id="clust2" class="cluster">
<title>cluster_src/gathering</title>
<path fill="#ffffff" stroke="black" stroke-width="2" d="M158.5,-20.7C158.5,-20.7 588,-20.7 588,-20.7 594,-20.7 600,-26.7 600,-32.7 600,-32.7 600,-306.7 600,-306.7 600,-312.7 594,-318.7 588,-318.7 588,-318.7 158.5,-318.7 158.5,-318.7 152.5,-318.7 146.5,-312.7 146.5,-306.7 146.5,-306.7 146.5,-32.7 146.5,-32.7 146.5,-26.7 152.5,-20.7 158.5,-20.7"/>
<text text-anchor="middle" x="373.25" y="-307.5" font-family="Helvetica,sans-Serif" font-weight="bold" font-size="9.00">gathering</text>
</g>
<g id="clust6" class="cluster">
<title>cluster_src/gathering/CollectionOrganizer</title>
<path fill="#ffffff" stroke="black" stroke-width="2" d="M169,-240.7C169,-240.7 268,-240.7 268,-240.7 274,-240.7 280,-246.7 280,-252.7 280,-252.7 280,-280.7 280,-280.7 280,-286.7 274,-292.7 268,-292.7 268,-292.7 169,-292.7 169,-292.7 163,-292.7 157,-286.7 157,-280.7 157,-280.7 157,-252.7 157,-252.7 157,-246.7 163,-240.7 169,-240.7"/>
<text text-anchor="middle" x="218.5" y="-281.5" font-family="Helvetica,sans-Serif" font-weight="bold" font-size="9.00">CollectionOrganizer</text>
</g>
<g id="clust3" class="cluster">
<title>cluster_src/gathering/CollectionEditor</title>
<path fill="#ffffff" stroke="black" stroke-width="2" d="M166.5,-90.7C166.5,-90.7 270.5,-90.7 270.5,-90.7 276.5,-90.7 282.5,-96.7 282.5,-102.7 282.5,-102.7 282.5,-160.7 282.5,-160.7 282.5,-166.7 276.5,-172.7 270.5,-172.7 270.5,-172.7 166.5,-172.7 166.5,-172.7 160.5,-172.7 154.5,-166.7 154.5,-160.7 154.5,-160.7 154.5,-102.7 154.5,-102.7 154.5,-96.7 160.5,-90.7 166.5,-90.7"/>
<text text-anchor="middle" x="218.5" y="-161.5" font-family="Helvetica,sans-Serif" font-weight="bold" font-size="9.00">CollectionEditor</text>
</g>
<g id="clust5" class="cluster">
<title>cluster_src/gathering/CollectionLoader</title>
<path fill="#ffffff" stroke="black" stroke-width="2" d="M174,-180.7C174,-180.7 263,-180.7 263,-180.7 269,-180.7 275,-186.7 275,-192.7 275,-192.7 275,-220.7 275,-220.7 275,-226.7 269,-232.7 263,-232.7 263,-232.7 174,-232.7 174,-232.7 168,-232.7 162,-226.7 162,-220.7 162,-220.7 162,-192.7 162,-192.7 162,-186.7 168,-180.7 174,-180.7"/>
<text text-anchor="middle" x="218.5" y="-221.5" font-family="Helvetica,sans-Serif" font-weight="bold" font-size="9.00">CollectionLoader</text>
</g>
<g id="clust7" class="cluster">
<title>cluster_src/gathering/PackRepository</title>
<path fill="#ffffff" stroke="black" stroke-width="2" d="M180,-30.7C180,-30.7 257,-30.7 257,-30.7 263,-30.7 269,-36.7 269,-42.7 269,-42.7 269,-70.7 269,-70.7 269,-76.7 263,-82.7 257,-82.7 257,-82.7 180,-82.7 180,-82.7 174,-82.7 168,-76.7 168,-70.7 168,-70.7 168,-42.7 168,-42.7 168,-36.7 174,-30.7 180,-30.7"/>
<text text-anchor="middle" x="218.5" y="-71.5" font-family="Helvetica,sans-Serif" font-weight="bold" font-size="9.00">PackRepository</text>
</g>
<g id="clust4" class="cluster">
<title>cluster_src/gathering/CollectionEntity</title>
<path fill="#ffffff" stroke="black" stroke-width="2" d="M323.5,-38.7C323.5,-38.7 404.5,-38.7 404.5,-38.7 410.5,-38.7 416.5,-44.7 416.5,-50.7 416.5,-50.7 416.5,-78.7 416.5,-78.7 416.5,-84.7 410.5,-90.7 404.5,-90.7 404.5,-90.7 323.5,-90.7 323.5,-90.7 317.5,-90.7 311.5,-84.7 311.5,-78.7 311.5,-78.7 311.5,-50.7 311.5,-50.7 311.5,-44.7 317.5,-38.7 323.5,-38.7"/>
<text text-anchor="middle" x="364" y="-79.5" font-family="Helvetica,sans-Serif" font-weight="bold" font-size="9.00">CollectionEntity</text>
</g>
<g id="clust8" class="cluster">
<title>cluster_src/lib</title>
<path fill="#ffffff" stroke="black" stroke-width="2" d="M148,-326.7C148,-326.7 289,-326.7 289,-326.7 295,-326.7 301,-332.7 301,-338.7 301,-338.7 301,-460.7 301,-460.7 301,-466.7 295,-472.7 289,-472.7 289,-472.7 148,-472.7 148,-472.7 142,-472.7 136,-466.7 136,-460.7 136,-460.7 136,-338.7 136,-338.7 136,-332.7 142,-326.7 148,-326.7"/>
<text text-anchor="middle" x="218.5" y="-461.5" font-family="Helvetica,sans-Serif" font-weight="bold" font-size="9.00">lib</text>
</g>
<g id="clust9" class="cluster">
<title>cluster_src/lib/userBrowsesItsCollection</title>
<path fill="#ffffff" stroke="black" stroke-width="2" d="M156,-394.7C156,-394.7 281,-394.7 281,-394.7 287,-394.7 293,-400.7 293,-406.7 293,-406.7 293,-434.7 293,-434.7 293,-440.7 287,-446.7 281,-446.7 281,-446.7 156,-446.7 156,-446.7 150,-446.7 144,-440.7 144,-434.7 144,-434.7 144,-406.7 144,-406.7 144,-400.7 150,-394.7 156,-394.7"/>
<text text-anchor="middle" x="218.5" y="-435.5" font-family="Helvetica,sans-Serif" font-weight="bold" font-size="9.00">userBrowsesItsCollection</text>
</g>
<g id="clust10" class="cluster">
<title>cluster_src/lib/userEditsItsCollection</title>
<path fill="#ffffff" stroke="black" stroke-width="2" d="M164,-334.7C164,-334.7 273,-334.7 273,-334.7 279,-334.7 285,-340.7 285,-346.7 285,-346.7 285,-374.7 285,-374.7 285,-380.7 279,-386.7 273,-386.7 273,-386.7 164,-386.7 164,-386.7 158,-386.7 152,-380.7 152,-374.7 152,-374.7 152,-346.7 152,-346.7 152,-340.7 158,-334.7 164,-334.7"/>
<text text-anchor="middle" x="218.5" y="-375.5" font-family="Helvetica,sans-Serif" font-weight="bold" font-size="9.00">userEditsItsCollection</text>
</g>
<g id="clust11" class="cluster">
<title>cluster_src/routes</title>
<path fill="#ffffff" stroke="black" stroke-width="2" d="M28,-20.7C28,-20.7 116,-20.7 116,-20.7 122,-20.7 128,-26.7 128,-32.7 128,-32.7 128,-214.7 128,-214.7 128,-220.7 122,-226.7 116,-226.7 116,-226.7 28,-226.7 28,-226.7 22,-226.7 16,-220.7 16,-214.7 16,-214.7 16,-32.7 16,-32.7 16,-26.7 22,-20.7 28,-20.7"/>
<text text-anchor="middle" x="72" y="-215.5" font-family="Helvetica,sans-Serif" font-weight="bold" font-size="9.00">routes</text>
</g>
<g id="clust12" class="cluster">
<title>cluster_src/routes/cards</title>
<path fill="#ffffff" stroke="black" stroke-width="2" d="M36,-28.7C36,-28.7 108,-28.7 108,-28.7 114,-28.7 120,-34.7 120,-40.7 120,-40.7 120,-68.7 120,-68.7 120,-74.7 114,-80.7 108,-80.7 108,-80.7 36,-80.7 36,-80.7 30,-80.7 24,-74.7 24,-68.7 24,-68.7 24,-40.7 24,-40.7 24,-34.7 30,-28.7 36,-28.7"/>
<text text-anchor="middle" x="72" y="-69.5" font-family="Helvetica,sans-Serif" font-weight="bold" font-size="9.00">cards</text>
</g>
<g id="clust13" class="cluster">
<title>cluster_src/routes/collection</title>
<path fill="#ffffff" stroke="black" stroke-width="2" d="M36.5,-148.7C36.5,-148.7 107.5,-148.7 107.5,-148.7 113.5,-148.7 119.5,-154.7 119.5,-160.7 119.5,-160.7 119.5,-188.7 119.5,-188.7 119.5,-194.7 113.5,-200.7 107.5,-200.7 107.5,-200.7 36.5,-200.7 36.5,-200.7 30.5,-200.7 24.5,-194.7 24.5,-188.7 24.5,-188.7 24.5,-160.7 24.5,-160.7 24.5,-154.7 30.5,-148.7 36.5,-148.7"/>
<text text-anchor="middle" x="72" y="-189.5" font-family="Helvetica,sans-Serif" font-weight="bold" font-size="9.00">collection</text>
</g>
<g id="clust14" class="cluster">
<title>cluster_src/routes/packs</title>
<path fill="#ffffff" stroke="black" stroke-width="2" d="M36,-88.7C36,-88.7 108,-88.7 108,-88.7 114,-88.7 120,-94.7 120,-100.7 120,-100.7 120,-128.7 120,-128.7 120,-134.7 114,-140.7 108,-140.7 108,-140.7 36,-140.7 36,-140.7 30,-140.7 24,-134.7 24,-128.7 24,-128.7 24,-100.7 24,-100.7 24,-94.7 30,-88.7 36,-88.7"/>
<text text-anchor="middle" x="72" y="-129.5" font-family="Helvetica,sans-Serif" font-weight="bold" font-size="9.00">packs</text>
</g>
<!-- src/gathering/Collection.ts -->
<g id="node1" class="node">
<title>src/gathering/Collection.ts</title>
<g id="a_node1"><a xlink:href="src/gathering/Collection.ts" xlink:title="Collection.ts">
<path fill="#ddfeff" stroke="black" d="M506.5,-204.7C506.5,-204.7 450.5,-204.7 450.5,-204.7 447.5,-204.7 444.5,-201.7 444.5,-198.7 444.5,-198.7 444.5,-192.7 444.5,-192.7 444.5,-189.7 447.5,-186.7 450.5,-186.7 450.5,-186.7 506.5,-186.7 506.5,-186.7 509.5,-186.7 512.5,-189.7 512.5,-192.7 512.5,-192.7 512.5,-198.7 512.5,-198.7 512.5,-201.7 509.5,-204.7 506.5,-204.7"/>
<text text-anchor="start" x="452.5" y="-193.5" font-family="Helvetica,sans-Serif" font-size="9.00">Collection.ts</text>
</a>
</g>
</g>
<!-- src/gathering/Pack.ts -->
<g id="node2" class="node">
<title>src/gathering/Pack.ts</title>
<g id="a_node2"><a xlink:href="src/gathering/Pack.ts" xlink:title="Pack.ts">
<path fill="#ddfeff" stroke="black" d="M586,-111.7C586,-111.7 544,-111.7 544,-111.7 541,-111.7 538,-108.7 538,-105.7 538,-105.7 538,-99.7 538,-99.7 538,-96.7 541,-93.7 544,-93.7 544,-93.7 586,-93.7 586,-93.7 589,-93.7 592,-96.7 592,-99.7 592,-99.7 592,-105.7 592,-105.7 592,-108.7 589,-111.7 586,-111.7"/>
<text text-anchor="start" x="549.5" y="-100.5" font-family="Helvetica,sans-Serif" font-size="9.00">Pack.ts</text>
</a>
</g>
</g>
<!-- src/gathering/Collection.ts&#45;&gt;src/gathering/Pack.ts -->
<g id="edge1" class="edge">
<title>src/gathering/Collection.ts&#45;&gt;src/gathering/Pack.ts</title>
<path fill="none" stroke="#000000" stroke-opacity="0.200000" d="M487.91,-186.44C502.84,-170.01 534.05,-135.67 551.5,-116.46"/>
<polygon fill="none" stroke="#000000" stroke-opacity="0.200000" points="553.14,-117.77 555.62,-111.92 550.03,-114.95 553.14,-117.77"/>
</g>
<!-- src/gathering/CollectionEditor/CollectionEditor.ts -->
<g id="node3" class="node">
<title>src/gathering/CollectionEditor/CollectionEditor.ts</title>
<g id="a_node3"><a xlink:href="src/gathering/CollectionEditor/CollectionEditor.ts" xlink:title="CollectionEditor.ts">
<path fill="#ddfeff" stroke="black" d="M258.5,-146.7C258.5,-146.7 178.5,-146.7 178.5,-146.7 175.5,-146.7 172.5,-143.7 172.5,-140.7 172.5,-140.7 172.5,-134.7 172.5,-134.7 172.5,-131.7 175.5,-128.7 178.5,-128.7 178.5,-128.7 258.5,-128.7 258.5,-128.7 261.5,-128.7 264.5,-131.7 264.5,-134.7 264.5,-134.7 264.5,-140.7 264.5,-140.7 264.5,-143.7 261.5,-146.7 258.5,-146.7"/>
<text text-anchor="start" x="180.5" y="-135.5" font-family="Helvetica,sans-Serif" font-size="9.00">CollectionEditor.ts</text>
</a>
</g>
</g>
<!-- src/gathering/CollectionEditor/CollectionEditor.ts&#45;&gt;src/gathering/Pack.ts -->
<g id="edge4" class="edge">
<title>src/gathering/CollectionEditor/CollectionEditor.ts&#45;&gt;src/gathering/Pack.ts</title>
<path fill="none" stroke="#000000" stroke-opacity="0.200000" d="M264.72,-139.34C278.18,-137.46 291.78,-132.79 301,-122.7 314.09,-108.37 294.66,-48.79 309,-35.7 380.2,29.25 441.99,-5.74 525,-54.7 538.55,-62.69 549.36,-77.25 556.13,-88.25"/>
<polygon fill="none" stroke="#000000" stroke-opacity="0.200000" points="554.44,-89.52 559.3,-93.62 558.06,-87.38 554.44,-89.52"/>
</g>
<!-- src/gathering/ICollectionEditor.ts -->
<g id="node4" class="node">
<title>src/gathering/ICollectionEditor.ts</title>
<g id="a_node4"><a xlink:href="src/gathering/ICollectionEditor.ts" xlink:title="ICollectionEditor.ts">
<path fill="#ddfeff" stroke="black" d="M405,-248.7C405,-248.7 323,-248.7 323,-248.7 320,-248.7 317,-245.7 317,-242.7 317,-242.7 317,-236.7 317,-236.7 317,-233.7 320,-230.7 323,-230.7 323,-230.7 405,-230.7 405,-230.7 408,-230.7 411,-233.7 411,-236.7 411,-236.7 411,-242.7 411,-242.7 411,-245.7 408,-248.7 405,-248.7"/>
<text text-anchor="start" x="325" y="-237.5" font-family="Helvetica,sans-Serif" font-size="9.00">ICollectionEditor.ts</text>
</a>
</g>
</g>
<!-- src/gathering/CollectionEditor/CollectionEditor.ts&#45;&gt;src/gathering/ICollectionEditor.ts -->
<g id="edge2" class="edge">
<title>src/gathering/CollectionEditor/CollectionEditor.ts&#45;&gt;src/gathering/ICollectionEditor.ts</title>
<path fill="none" stroke="#000000" stroke-opacity="0.200000" d="M253.22,-146.78C269.89,-152.92 288.97,-162.7 301,-177.7 310.44,-189.47 299.77,-198.76 309,-210.7 314.6,-217.95 322.55,-223.61 330.63,-227.92"/>
<polygon fill="none" stroke="#000000" stroke-opacity="0.200000" points="329.9,-229.9 336.21,-230.69 331.77,-226.14 329.9,-229.9"/>
</g>
<!-- src/gathering/ICollectionOutput.ts -->
<g id="node5" class="node">
<title>src/gathering/ICollectionOutput.ts</title>
<g id="a_node5"><a xlink:href="src/gathering/ICollectionOutput.ts" xlink:title="ICollectionOutput.ts">
<path fill="#ddfeff" stroke="black" d="M406.5,-174.7C406.5,-174.7 321.5,-174.7 321.5,-174.7 318.5,-174.7 315.5,-171.7 315.5,-168.7 315.5,-168.7 315.5,-162.7 315.5,-162.7 315.5,-159.7 318.5,-156.7 321.5,-156.7 321.5,-156.7 406.5,-156.7 406.5,-156.7 409.5,-156.7 412.5,-159.7 412.5,-162.7 412.5,-162.7 412.5,-168.7 412.5,-168.7 412.5,-171.7 409.5,-174.7 406.5,-174.7"/>
<text text-anchor="start" x="323.5" y="-163.5" font-family="Helvetica,sans-Serif" font-size="9.00">ICollectionOutput.ts</text>
</a>
</g>
</g>
<!-- src/gathering/CollectionEditor/CollectionEditor.ts&#45;&gt;src/gathering/ICollectionOutput.ts -->
<g id="edge3" class="edge">
<title>src/gathering/CollectionEditor/CollectionEditor.ts&#45;&gt;src/gathering/ICollectionOutput.ts</title>
<path fill="none" stroke="#000000" stroke-opacity="0.200000" d="M264.51,-146.48C279.17,-149.34 295.56,-152.54 310.71,-155.5"/>
<polygon fill="none" stroke="#000000" stroke-opacity="0.200000" points="310.37,-157.57 316.67,-156.66 311.18,-153.45 310.37,-157.57"/>
</g>
<!-- src/gathering/ICollectionEditor.ts&#45;&gt;src/gathering/Pack.ts -->
<g id="edge16" class="edge">
<title>src/gathering/ICollectionEditor.ts&#45;&gt;src/gathering/Pack.ts</title>
<path fill="none" stroke="#000000" stroke-opacity="0.200000" d="M411.16,-242.98C446.23,-242.96 493.63,-237.22 525,-210.7 552.97,-187.06 560.88,-141.72 563.12,-118.01"/>
<polygon fill="none" stroke="#000000" stroke-opacity="0.200000" points="565.22,-118.08 563.61,-111.93 561.03,-117.74 565.22,-118.08"/>
</g>
<!-- src/gathering/ICollectionOutput.ts&#45;&gt;src/gathering/Collection.ts -->
<g id="edge19" class="edge">
<title>src/gathering/ICollectionOutput.ts&#45;&gt;src/gathering/Collection.ts</title>
<path fill="none" stroke="#000000" stroke-opacity="0.200000" d="M398.75,-174.7C411.21,-178.02 425.44,-181.82 438.34,-185.26"/>
<polygon fill="none" stroke="#000000" stroke-opacity="0.200000" points="437.82,-187.29 444.16,-186.81 438.9,-183.23 437.82,-187.29"/>
</g>
<!-- src/gathering/CollectionEditor/PackRepositoryMock.ts -->
<g id="node6" class="node">
<title>src/gathering/CollectionEditor/PackRepositoryMock.ts</title>
<g id="a_node6"><a xlink:href="src/gathering/CollectionEditor/PackRepositoryMock.ts" xlink:title="PackRepositoryMock.ts">
<path fill="#ddfeff" stroke="black" d="M268.5,-116.7C268.5,-116.7 168.5,-116.7 168.5,-116.7 165.5,-116.7 162.5,-113.7 162.5,-110.7 162.5,-110.7 162.5,-104.7 162.5,-104.7 162.5,-101.7 165.5,-98.7 168.5,-98.7 168.5,-98.7 268.5,-98.7 268.5,-98.7 271.5,-98.7 274.5,-101.7 274.5,-104.7 274.5,-104.7 274.5,-110.7 274.5,-110.7 274.5,-113.7 271.5,-116.7 268.5,-116.7"/>
<text text-anchor="start" x="170.5" y="-105.5" font-family="Helvetica,sans-Serif" font-size="9.00">PackRepositoryMock.ts</text>
</a>
</g>
</g>
<!-- src/gathering/CollectionEditor/PackRepositoryMock.ts&#45;&gt;src/gathering/Pack.ts -->
<g id="edge6" class="edge">
<title>src/gathering/CollectionEditor/PackRepositoryMock.ts&#45;&gt;src/gathering/Pack.ts</title>
<path fill="none" stroke="#000000" stroke-opacity="0.200000" d="M274.74,-109.16C335.96,-110.4 437.61,-111.31 525,-106.7 527.04,-106.59 529.14,-106.46 531.25,-106.3"/>
<polygon fill="none" stroke="#000000" stroke-opacity="0.200000" points="531.79,-108.36 537.59,-105.77 531.44,-104.17 531.79,-108.36"/>
</g>
<!-- src/gathering/IPackRepository.ts -->
<g id="node7" class="node">
<title>src/gathering/IPackRepository.ts</title>
<g id="a_node7"><a xlink:href="src/gathering/IPackRepository.ts" xlink:title="IPackRepository.ts">
<path fill="#ddfeff" stroke="black" d="M519,-100.7C519,-100.7 438,-100.7 438,-100.7 435,-100.7 432,-97.7 432,-94.7 432,-94.7 432,-88.7 432,-88.7 432,-85.7 435,-82.7 438,-82.7 438,-82.7 519,-82.7 519,-82.7 522,-82.7 525,-85.7 525,-88.7 525,-88.7 525,-94.7 525,-94.7 525,-97.7 522,-100.7 519,-100.7"/>
<text text-anchor="start" x="440" y="-89.5" font-family="Helvetica,sans-Serif" font-size="9.00">IPackRepository.ts</text>
</a>
</g>
</g>
<!-- src/gathering/CollectionEditor/PackRepositoryMock.ts&#45;&gt;src/gathering/IPackRepository.ts -->
<g id="edge5" class="edge">
<title>src/gathering/CollectionEditor/PackRepositoryMock.ts&#45;&gt;src/gathering/IPackRepository.ts</title>
<path fill="none" stroke="#000000" stroke-opacity="0.200000" d="M274.53,-104.29C319.2,-101.52 381.73,-97.64 425.55,-94.92"/>
<polygon fill="none" stroke="#000000" stroke-opacity="0.200000" points="425.74,-97.01 431.6,-94.55 425.48,-92.82 425.74,-97.01"/>
</g>
<!-- src/gathering/IPackRepository.ts&#45;&gt;src/gathering/Pack.ts -->
<g id="edge20" class="edge">
<title>src/gathering/IPackRepository.ts&#45;&gt;src/gathering/Pack.ts</title>
<path fill="none" stroke="#000000" stroke-opacity="0.200000" d="M525.21,-97.65C527.39,-97.94 529.56,-98.22 531.68,-98.49"/>
<polygon fill="none" stroke="#000000" stroke-opacity="0.200000" points="531.72,-100.62 537.94,-99.31 532.26,-96.45 531.72,-100.62"/>
</g>
<!-- src/gathering/CollectionEntity/CollectionEntity.ts -->
<g id="node8" class="node">
<title>src/gathering/CollectionEntity/CollectionEntity.ts</title>
<g id="a_node8"><a xlink:href="src/gathering/CollectionEntity/CollectionEntity.ts" xlink:title="CollectionEntity.ts">
<path fill="#ddfeff" stroke="black" d="M402.5,-64.7C402.5,-64.7 325.5,-64.7 325.5,-64.7 322.5,-64.7 319.5,-61.7 319.5,-58.7 319.5,-58.7 319.5,-52.7 319.5,-52.7 319.5,-49.7 322.5,-46.7 325.5,-46.7 325.5,-46.7 402.5,-46.7 402.5,-46.7 405.5,-46.7 408.5,-49.7 408.5,-52.7 408.5,-52.7 408.5,-58.7 408.5,-58.7 408.5,-61.7 405.5,-64.7 402.5,-64.7"/>
<text text-anchor="start" x="327.5" y="-53.5" font-family="Helvetica,sans-Serif" font-size="9.00">CollectionEntity.ts</text>
</a>
</g>
</g>
<!-- src/gathering/CollectionEntity/CollectionEntity.ts&#45;&gt;src/gathering/Pack.ts -->
<g id="edge8" class="edge">
<title>src/gathering/CollectionEntity/CollectionEntity.ts&#45;&gt;src/gathering/Pack.ts</title>
<path fill="none" stroke="#000000" stroke-opacity="0.200000" d="M408.73,-56.11C441.65,-57.68 487.36,-62.57 525,-76.7 533.26,-79.8 541.51,-84.94 548.29,-89.83"/>
<polygon fill="none" stroke="#000000" stroke-opacity="0.200000" points="547.1,-91.56 553.16,-93.48 549.62,-88.2 547.1,-91.56"/>
</g>
<!-- src/gathering/CollectionEntity/CollectionEntity.ts&#45;&gt;src/gathering/IPackRepository.ts -->
<g id="edge7" class="edge">
<title>src/gathering/CollectionEntity/CollectionEntity.ts&#45;&gt;src/gathering/IPackRepository.ts</title>
<path fill="none" stroke="#000000" stroke-opacity="0.200000" d="M405.27,-64.74C409.93,-65.98 414.59,-67.31 419,-68.7 429.61,-72.05 441.06,-76.38 450.98,-80.38"/>
<polygon fill="none" stroke="#000000" stroke-opacity="0.200000" points="450.28,-82.36 456.63,-82.68 451.87,-78.47 450.28,-82.36"/>
</g>
<!-- src/gathering/CollectionLoader/CollectionLoader.ts -->
<g id="node9" class="node">
<title>src/gathering/CollectionLoader/CollectionLoader.ts</title>
<g id="a_node9"><a xlink:href="src/gathering/CollectionLoader/CollectionLoader.ts" xlink:title="CollectionLoader.ts">
<path fill="#ddfeff" stroke="black" d="M261,-206.7C261,-206.7 176,-206.7 176,-206.7 173,-206.7 170,-203.7 170,-200.7 170,-200.7 170,-194.7 170,-194.7 170,-191.7 173,-188.7 176,-188.7 176,-188.7 261,-188.7 261,-188.7 264,-188.7 267,-191.7 267,-194.7 267,-194.7 267,-200.7 267,-200.7 267,-203.7 264,-206.7 261,-206.7"/>
<text text-anchor="start" x="178" y="-195.5" font-family="Helvetica,sans-Serif" font-size="9.00">CollectionLoader.ts</text>
</a>
</g>
</g>
<!-- src/gathering/CollectionLoader/CollectionLoader.ts&#45;&gt;src/gathering/Collection.ts -->
<g id="edge9" class="edge">
<title>src/gathering/CollectionLoader/CollectionLoader.ts&#45;&gt;src/gathering/Collection.ts</title>
<path fill="none" stroke="#000000" stroke-opacity="0.200000" d="M267.22,-205.89C307.73,-211.63 367.35,-217.22 419,-210.7 426.56,-209.75 434.54,-208.13 442.09,-206.29"/>
<polygon fill="none" stroke="#000000" stroke-opacity="0.200000" points="443.02,-208.23 448.32,-204.72 441.99,-204.16 443.02,-208.23"/>
</g>
<!-- src/gathering/CollectionLoader/CollectionLoader.ts&#45;&gt;src/gathering/ICollectionEditor.ts -->
<g id="edge10" class="edge">
<title>src/gathering/CollectionLoader/CollectionLoader.ts&#45;&gt;src/gathering/ICollectionEditor.ts</title>
<path fill="none" stroke="#000000" stroke-opacity="0.200000" d="M250.28,-206.71C272.45,-213.2 302.47,-221.98 325.95,-228.86"/>
<polygon fill="none" stroke="#000000" stroke-opacity="0.200000" points="325.42,-230.89 331.77,-230.56 326.6,-226.86 325.42,-230.89"/>
</g>
<!-- src/gathering/CollectionLoader/CollectionLoader.ts&#45;&gt;src/gathering/ICollectionOutput.ts -->
<g id="edge12" class="edge">
<title>src/gathering/CollectionLoader/CollectionLoader.ts&#45;&gt;src/gathering/ICollectionOutput.ts</title>
<path fill="none" stroke="#000000" stroke-opacity="0.200000" d="M260.24,-188.62C277.66,-184.73 298.1,-180.17 316.14,-176.15"/>
<polygon fill="none" stroke="#000000" stroke-opacity="0.200000" points="316.76,-178.16 322.16,-174.81 315.85,-174.06 316.76,-178.16"/>
</g>
<!-- src/gathering/ICollectionLoader.ts -->
<g id="node10" class="node">
<title>src/gathering/ICollectionLoader.ts</title>
<g id="a_node10"><a xlink:href="src/gathering/ICollectionLoader.ts" xlink:title="ICollectionLoader.ts">
<path fill="#ddfeff" stroke="black" d="M407.5,-204.7C407.5,-204.7 320.5,-204.7 320.5,-204.7 317.5,-204.7 314.5,-201.7 314.5,-198.7 314.5,-198.7 314.5,-192.7 314.5,-192.7 314.5,-189.7 317.5,-186.7 320.5,-186.7 320.5,-186.7 407.5,-186.7 407.5,-186.7 410.5,-186.7 413.5,-189.7 413.5,-192.7 413.5,-192.7 413.5,-198.7 413.5,-198.7 413.5,-201.7 410.5,-204.7 407.5,-204.7"/>
<text text-anchor="start" x="322.5" y="-193.5" font-family="Helvetica,sans-Serif" font-size="9.00">ICollectionLoader.ts</text>
</a>
</g>
</g>
<!-- src/gathering/CollectionLoader/CollectionLoader.ts&#45;&gt;src/gathering/ICollectionLoader.ts -->
<g id="edge11" class="edge">
<title>src/gathering/CollectionLoader/CollectionLoader.ts&#45;&gt;src/gathering/ICollectionLoader.ts</title>
<path fill="none" stroke="#000000" stroke-opacity="0.200000" d="M267.28,-197.03C280.43,-196.85 294.8,-196.65 308.31,-196.46"/>
<polygon fill="none" stroke="#000000" stroke-opacity="0.200000" points="308.48,-198.56 314.45,-196.38 308.42,-194.36 308.48,-198.56"/>
</g>
<!-- src/gathering/ICollectionLoader.ts&#45;&gt;src/gathering/Collection.ts -->
<g id="edge17" class="edge">
<title>src/gathering/ICollectionLoader.ts&#45;&gt;src/gathering/Collection.ts</title>
<path fill="none" stroke="#000000" stroke-opacity="0.200000" d="M413.69,-195.7C421.76,-195.7 430.05,-195.7 437.86,-195.7"/>
<polygon fill="none" stroke="#000000" stroke-opacity="0.200000" points="438.3,-197.8 444.3,-195.7 438.3,-193.6 438.3,-197.8"/>
</g>
<!-- src/gathering/CollectionOrganizer/CollectionOrganizer.ts -->
<g id="node11" class="node">
<title>src/gathering/CollectionOrganizer/CollectionOrganizer.ts</title>
<g id="a_node11"><a xlink:href="src/gathering/CollectionOrganizer/CollectionOrganizer.ts" xlink:title="CollectionOrganizer.ts">
<path fill="#ddfeff" stroke="black" d="M266,-266.7C266,-266.7 171,-266.7 171,-266.7 168,-266.7 165,-263.7 165,-260.7 165,-260.7 165,-254.7 165,-254.7 165,-251.7 168,-248.7 171,-248.7 171,-248.7 266,-248.7 266,-248.7 269,-248.7 272,-251.7 272,-254.7 272,-254.7 272,-260.7 272,-260.7 272,-263.7 269,-266.7 266,-266.7"/>
<text text-anchor="start" x="173" y="-255.5" font-family="Helvetica,sans-Serif" font-size="9.00">CollectionOrganizer.ts</text>
</a>
</g>
</g>
<!-- src/gathering/ahdb.cards.json -->
<g id="node12" class="node">
<title>src/gathering/ahdb.cards.json</title>
<g id="a_node12"><a xlink:href="src/gathering/ahdb.cards.json" xlink:title="ahdb.cards.json">
<path fill="#ffee44" stroke="black" d="M399.5,-144.7C399.5,-144.7 328.5,-144.7 328.5,-144.7 325.5,-144.7 322.5,-141.7 322.5,-138.7 322.5,-138.7 322.5,-132.7 322.5,-132.7 322.5,-129.7 325.5,-126.7 328.5,-126.7 328.5,-126.7 399.5,-126.7 399.5,-126.7 402.5,-126.7 405.5,-129.7 405.5,-132.7 405.5,-132.7 405.5,-138.7 405.5,-138.7 405.5,-141.7 402.5,-144.7 399.5,-144.7"/>
<text text-anchor="start" x="330.5" y="-133.5" font-family="Helvetica,sans-Serif" font-size="9.00">ahdb.cards.json</text>
</a>
</g>
</g>
<!-- src/gathering/CollectionOrganizer/CollectionOrganizer.ts&#45;&gt;src/gathering/ahdb.cards.json -->
<g id="edge13" class="edge">
<title>src/gathering/CollectionOrganizer/CollectionOrganizer.ts&#45;&gt;src/gathering/ahdb.cards.json</title>
<path fill="none" stroke="#000000" stroke-width="2" stroke-opacity="0.200000" d="M272.23,-253.26C283.19,-249.9 293.63,-244.44 301,-235.7 313.23,-221.2 296.82,-165.25 309,-150.7 311.22,-148.04 313.88,-145.83 316.79,-144"/>
<polygon fill="#000000" fill-opacity="0.200000" stroke="#000000" stroke-width="2" stroke-opacity="0.200000" points="317.97,-145.75 322.29,-141.09 316.01,-142.04 317.97,-145.75"/>
</g>
<!-- src/gathering/IBinderOutput.ts -->
<g id="node13" class="node">
<title>src/gathering/IBinderOutput.ts</title>
<g id="a_node13"><a xlink:href="src/gathering/IBinderOutput.ts" xlink:title="IBinderOutput.ts">
<path fill="#ddfeff" stroke="black" d="M514,-292.7C514,-292.7 443,-292.7 443,-292.7 440,-292.7 437,-289.7 437,-286.7 437,-286.7 437,-280.7 437,-280.7 437,-277.7 440,-274.7 443,-274.7 443,-274.7 514,-274.7 514,-274.7 517,-274.7 520,-277.7 520,-280.7 520,-280.7 520,-286.7 520,-286.7 520,-289.7 517,-292.7 514,-292.7"/>
<text text-anchor="start" x="445" y="-281.5" font-family="Helvetica,sans-Serif" font-size="9.00">IBinderOutput.ts</text>
</a>
</g>
</g>
<!-- src/gathering/CollectionOrganizer/CollectionOrganizer.ts&#45;&gt;src/gathering/IBinderOutput.ts -->
<g id="edge14" class="edge">
<title>src/gathering/CollectionOrganizer/CollectionOrganizer.ts&#45;&gt;src/gathering/IBinderOutput.ts</title>
<path fill="none" stroke="#000000" stroke-opacity="0.200000" d="M272.3,-257.8C312.68,-258.56 369.63,-261.09 419,-268.7 426.21,-269.81 433.81,-271.43 441.07,-273.19"/>
<polygon fill="none" stroke="#000000" stroke-opacity="0.200000" points="440.74,-275.27 447.07,-274.7 441.76,-271.2 440.74,-275.27"/>
</g>
<!-- src/gathering/ICollectionOrganizer.ts -->
<g id="node14" class="node">
<title>src/gathering/ICollectionOrganizer.ts</title>
<g id="a_node14"><a xlink:href="src/gathering/ICollectionOrganizer.ts" xlink:title="ICollectionOrganizer.ts">
<path fill="#ddfeff" stroke="black" d="M413,-292.7C413,-292.7 315,-292.7 315,-292.7 312,-292.7 309,-289.7 309,-286.7 309,-286.7 309,-280.7 309,-280.7 309,-277.7 312,-274.7 315,-274.7 315,-274.7 413,-274.7 413,-274.7 416,-274.7 419,-277.7 419,-280.7 419,-280.7 419,-286.7 419,-286.7 419,-289.7 416,-292.7 413,-292.7"/>
<text text-anchor="start" x="317" y="-281.5" font-family="Helvetica,sans-Serif" font-size="9.00">ICollectionOrganizer.ts</text>
</a>
</g>
</g>
<!-- src/gathering/CollectionOrganizer/CollectionOrganizer.ts&#45;&gt;src/gathering/ICollectionOrganizer.ts -->
<g id="edge15" class="edge">
<title>src/gathering/CollectionOrganizer/CollectionOrganizer.ts&#45;&gt;src/gathering/ICollectionOrganizer.ts</title>
<path fill="none" stroke="#000000" stroke-opacity="0.200000" d="M269.29,-266.72C281.53,-268.94 294.72,-271.33 307.22,-273.6"/>
<polygon fill="none" stroke="#000000" stroke-opacity="0.200000" points="307.02,-275.69 313.3,-274.7 307.77,-271.56 307.02,-275.69"/>
</g>
<!-- src/gathering/ICollectionOrganizer.ts&#45;&gt;src/gathering/IBinderOutput.ts -->
<g id="edge18" class="edge">
<title>src/gathering/ICollectionOrganizer.ts&#45;&gt;src/gathering/IBinderOutput.ts</title>
<path fill="none" stroke="#000000" stroke-opacity="0.200000" d="M419.27,-283.7C423.18,-283.7 427.1,-283.7 430.96,-283.7"/>
<polygon fill="none" stroke="#000000" stroke-opacity="0.200000" points="430.96,-285.8 436.96,-283.7 430.96,-281.6 430.96,-285.8"/>
</g>
<!-- src/gathering/PackRepository/ahdb.packs.json -->
<g id="node15" class="node">
<title>src/gathering/PackRepository/ahdb.packs.json</title>
<g id="a_node15"><a xlink:href="src/gathering/PackRepository/ahdb.packs.json" xlink:title="ahdb.packs.json">
<path fill="#ffee44" stroke="black" d="M255,-56.7C255,-56.7 182,-56.7 182,-56.7 179,-56.7 176,-53.7 176,-50.7 176,-50.7 176,-44.7 176,-44.7 176,-41.7 179,-38.7 182,-38.7 182,-38.7 255,-38.7 255,-38.7 258,-38.7 261,-41.7 261,-44.7 261,-44.7 261,-50.7 261,-50.7 261,-53.7 258,-56.7 255,-56.7"/>
<text text-anchor="start" x="184" y="-45.5" font-family="Helvetica,sans-Serif" font-size="9.00">ahdb.packs.json</text>
</a>
</g>
</g>
<!-- src/lib/userBrowsesItsCollection/userBrowsesItsCollection.ts -->
<g id="node16" class="node">
<title>src/lib/userBrowsesItsCollection/userBrowsesItsCollection.ts</title>
<g id="a_node16"><a xlink:href="src/lib/userBrowsesItsCollection/userBrowsesItsCollection.ts" xlink:title="userBrowsesItsCollection.ts">
<path fill="#ddfeff" stroke="black" d="M279,-420.7C279,-420.7 158,-420.7 158,-420.7 155,-420.7 152,-417.7 152,-414.7 152,-414.7 152,-408.7 152,-408.7 152,-405.7 155,-402.7 158,-402.7 158,-402.7 279,-402.7 279,-402.7 282,-402.7 285,-405.7 285,-408.7 285,-408.7 285,-414.7 285,-414.7 285,-417.7 282,-420.7 279,-420.7"/>
<text text-anchor="start" x="160" y="-409.5" font-family="Helvetica,sans-Serif" font-size="9.00">userBrowsesItsCollection.ts</text>
</a>
</g>
</g>
<!-- src/lib/userBrowsesItsCollection/userBrowsesItsCollection.ts&#45;&gt;src/gathering/IBinderOutput.ts -->
<g id="edge21" class="edge">
<title>src/lib/userBrowsesItsCollection/userBrowsesItsCollection.ts&#45;&gt;src/gathering/IBinderOutput.ts</title>
<path fill="none" stroke="#000000" stroke-opacity="0.200000" d="M258.93,-402.64C272.44,-399.12 287.54,-394.72 301,-389.7 355.57,-369.36 370.08,-364.31 419,-332.7 435.36,-322.13 452.22,-307.54 463.61,-297.04"/>
<polygon fill="none" stroke="#000000" stroke-opacity="0.200000" points="465.19,-298.44 468.14,-292.81 462.32,-295.37 465.19,-298.44"/>
</g>
<!-- src/lib/userBrowsesItsCollection/userBrowsesItsCollection.ts&#45;&gt;src/gathering/ICollectionOrganizer.ts -->
<g id="edge22" class="edge">
<title>src/lib/userBrowsesItsCollection/userBrowsesItsCollection.ts&#45;&gt;src/gathering/ICollectionOrganizer.ts</title>
<path fill="none" stroke="#000000" stroke-opacity="0.200000" d="M277.81,-402.69C286.2,-399.56 294.26,-395.35 301,-389.7 307.4,-384.34 305.05,-380.06 309,-372.7 323.44,-345.8 342.33,-315.66 353.52,-298.26"/>
<polygon fill="none" stroke="#000000" stroke-opacity="0.200000" points="355.5,-299.05 357,-292.87 351.98,-296.77 355.5,-299.05"/>
</g>
<!-- src/lib/userEditsItsCollection/userEditsItsCollection.ts -->
<g id="node17" class="node">
<title>src/lib/userEditsItsCollection/userEditsItsCollection.ts</title>
<g id="a_node17"><a xlink:href="src/lib/userEditsItsCollection/userEditsItsCollection.ts" xlink:title="userEditsItsCollection.ts">
<path fill="#ddfeff" stroke="black" d="M271,-360.7C271,-360.7 166,-360.7 166,-360.7 163,-360.7 160,-357.7 160,-354.7 160,-354.7 160,-348.7 160,-348.7 160,-345.7 163,-342.7 166,-342.7 166,-342.7 271,-342.7 271,-342.7 274,-342.7 277,-345.7 277,-348.7 277,-348.7 277,-354.7 277,-354.7 277,-357.7 274,-360.7 271,-360.7"/>
<text text-anchor="start" x="168" y="-349.5" font-family="Helvetica,sans-Serif" font-size="9.00">userEditsItsCollection.ts</text>
</a>
</g>
</g>
<!-- src/lib/userEditsItsCollection/userEditsItsCollection.ts&#45;&gt;src/gathering/Collection.ts -->
<g id="edge23" class="edge">
<title>src/lib/userEditsItsCollection/userEditsItsCollection.ts&#45;&gt;src/gathering/Collection.ts</title>
<path fill="none" stroke="#000000" stroke-opacity="0.200000" d="M261.34,-342.63C316.21,-330.42 406.98,-309.05 419,-298.7 430.01,-289.22 425.25,-281.57 432,-268.7 443.02,-247.69 457.89,-224.63 467.59,-210.17"/>
<polygon fill="none" stroke="#000000" stroke-opacity="0.200000" points="469.54,-211.04 471.15,-204.89 466.05,-208.69 469.54,-211.04"/>
</g>
<!-- src/lib/userEditsItsCollection/userEditsItsCollection.ts&#45;&gt;src/gathering/ICollectionEditor.ts -->
<g id="edge24" class="edge">
<title>src/lib/userEditsItsCollection/userEditsItsCollection.ts&#45;&gt;src/gathering/ICollectionEditor.ts</title>
<path fill="none" stroke="#000000" stroke-opacity="0.200000" d="M239.89,-342.66C258.44,-333.42 285.26,-317.37 301,-295.7 308.36,-285.58 301.1,-278.41 309,-268.7 314.84,-261.52 322.94,-255.88 331.09,-251.55"/>
<polygon fill="none" stroke="#000000" stroke-opacity="0.200000" points="332.28,-253.31 336.72,-248.76 330.41,-249.54 332.28,-253.31"/>
</g>
<!-- src/lib/userEditsItsCollection/userEditsItsCollection.ts&#45;&gt;src/gathering/ICollectionOutput.ts -->
<g id="edge25" class="edge">
<title>src/lib/userEditsItsCollection/userEditsItsCollection.ts&#45;&gt;src/gathering/ICollectionOutput.ts</title>
<path fill="none" stroke="#000000" stroke-opacity="0.200000" d="M242.89,-342.53C262.1,-333.65 288.14,-318.21 301,-295.7 313.71,-273.46 292.8,-200.55 309,-180.7 309.46,-180.14 309.94,-179.59 310.44,-179.07"/>
<polygon fill="none" stroke="#000000" stroke-opacity="0.200000" points="312.18,-180.34 315.37,-174.84 309.44,-177.15 312.18,-180.34"/>
</g>
<!-- src/routes/cards/+page.server.ts -->
<g id="node18" class="node">
<title>src/routes/cards/+page.server.ts</title>
<g id="a_node18"><a xlink:href="src/routes/cards/+page.server.ts" xlink:title="+page.server.ts">
<path fill="#ddfeff" stroke="black" d="M106,-54.7C106,-54.7 38,-54.7 38,-54.7 35,-54.7 32,-51.7 32,-48.7 32,-48.7 32,-42.7 32,-42.7 32,-39.7 35,-36.7 38,-36.7 38,-36.7 106,-36.7 106,-36.7 109,-36.7 112,-39.7 112,-42.7 112,-42.7 112,-48.7 112,-48.7 112,-51.7 109,-54.7 106,-54.7"/>
<text text-anchor="start" x="40" y="-43.5" font-family="Helvetica,sans-Serif" font-size="9.00">+page.server.ts</text>
</a>
</g>
</g>
<!-- src/routes/cards/+page.server.ts&#45;&gt;src/gathering/ahdb.cards.json -->
<g id="edge26" class="edge">
<title>src/routes/cards/+page.server.ts&#45;&gt;src/gathering/ahdb.cards.json</title>
<path fill="none" stroke="#000000" stroke-width="2" stroke-opacity="0.200000" d="M90.83,-36.68C133.19,-16.68 240.82,25.62 301,-27.7 312.06,-37.5 301.72,-80.84 309,-93.7 316.04,-106.14 328.39,-116.16 339.5,-123.29"/>
<polygon fill="#000000" fill-opacity="0.200000" stroke="#000000" stroke-width="2" stroke-opacity="0.200000" points="338.62,-125.21 344.83,-126.56 340.81,-121.63 338.62,-125.21"/>
</g>
<!-- src/routes/collection/+page.svelte.ts -->
<g id="node19" class="node">
<title>src/routes/collection/+page.svelte.ts</title>
<g id="a_node19"><a xlink:href="src/routes/collection/+page.svelte.ts" xlink:title="+page.svelte.ts">
<path fill="#ddfeff" stroke="black" d="M105.5,-174.7C105.5,-174.7 38.5,-174.7 38.5,-174.7 35.5,-174.7 32.5,-171.7 32.5,-168.7 32.5,-168.7 32.5,-162.7 32.5,-162.7 32.5,-159.7 35.5,-156.7 38.5,-156.7 38.5,-156.7 105.5,-156.7 105.5,-156.7 108.5,-156.7 111.5,-159.7 111.5,-162.7 111.5,-162.7 111.5,-168.7 111.5,-168.7 111.5,-171.7 108.5,-174.7 105.5,-174.7"/>
<text text-anchor="start" x="40.5" y="-163.5" font-family="Helvetica,sans-Serif" font-size="9.00">+page.svelte.ts</text>
</a>
</g>
</g>
<!-- src/routes/collection/+page.svelte.ts&#45;&gt;src/lib/userBrowsesItsCollection/userBrowsesItsCollection.ts -->
<g id="edge27" class="edge">
<title>src/routes/collection/+page.svelte.ts&#45;&gt;src/lib/userBrowsesItsCollection/userBrowsesItsCollection.ts</title>
<path fill="none" stroke="#000000" stroke-width="2" stroke-opacity="0.200000" d="M72.61,-174.95C71.73,-208.88 73.4,-327.76 136,-389.7 140.13,-393.79 144.94,-397.14 150.11,-399.88"/>
<polygon fill="#000000" fill-opacity="0.200000" stroke="#000000" stroke-width="2" stroke-opacity="0.200000" points="149.54,-401.93 155.86,-402.62 151.35,-398.14 149.54,-401.93"/>
</g>
<!-- src/routes/packs/+page.server.ts -->
<g id="node20" class="node">
<title>src/routes/packs/+page.server.ts</title>
<g id="a_node20"><a xlink:href="src/routes/packs/+page.server.ts" xlink:title="+page.server.ts">
<path fill="#ddfeff" stroke="black" d="M106,-114.7C106,-114.7 38,-114.7 38,-114.7 35,-114.7 32,-111.7 32,-108.7 32,-108.7 32,-102.7 32,-102.7 32,-99.7 35,-96.7 38,-96.7 38,-96.7 106,-96.7 106,-96.7 109,-96.7 112,-99.7 112,-102.7 112,-102.7 112,-108.7 112,-108.7 112,-111.7 109,-114.7 106,-114.7"/>
<text text-anchor="start" x="40" y="-103.5" font-family="Helvetica,sans-Serif" font-size="9.00">+page.server.ts</text>
</a>
</g>
</g>
<!-- src/routes/packs/+page.server.ts&#45;&gt;src/gathering/PackRepository/ahdb.packs.json -->
<g id="edge28" class="edge">
<title>src/routes/packs/+page.server.ts&#45;&gt;src/gathering/PackRepository/ahdb.packs.json</title>
<path fill="none" stroke="#000000" stroke-width="2" stroke-opacity="0.200000" d="M95.75,-96.61C105.66,-92.65 117.41,-87.95 128,-83.7 148.53,-75.47 171.7,-66.15 189.32,-59.05"/>
<polygon fill="#000000" fill-opacity="0.200000" stroke="#000000" stroke-width="2" stroke-opacity="0.200000" points="190.29,-60.93 195.07,-56.74 188.72,-57.03 190.29,-60.93"/>
</g>
</g>
</svg>
