<?xml version="1.0" encoding="UTF-8" standalone="no"?>
<!DOCTYPE svg PUBLIC "-//W3C//DTD SVG 1.1//EN"
 "http://www.w3.org/Graphics/SVG/1.1/DTD/svg11.dtd">
<!-- Generated by graphviz version 2.50.0 (20211204.2007)
 -->
<!-- Title: dependency&#45;cruiser output Pages: 1 -->
<svg width="566pt" height="456pt"
 viewBox="0.00 0.00 566.00 456.00" xmlns="http://www.w3.org/2000/svg" xmlns:xlink="http://www.w3.org/1999/xlink">
<g id="graph0" class="graph" transform="scale(1 1) rotate(0) translate(4 452)">
<title>dependency&#45;cruiser output</title>
<polygon fill="white" stroke="transparent" points="-4,4 -4,-452 562,-452 562,4 -4,4"/>
<g id="clust1" class="cluster">
<title>cluster_src</title>
<path fill="#ffffff" stroke="black" stroke-width="2" d="M20,-8C20,-8 538,-8 538,-8 544,-8 550,-14 550,-20 550,-20 550,-428 550,-428 550,-434 544,-440 538,-440 538,-440 20,-440 20,-440 14,-440 8,-434 8,-428 8,-428 8,-20 8,-20 8,-14 14,-8 20,-8"/>
<text text-anchor="middle" x="279" y="-428.8" font-family="Helvetica,sans-Serif" font-weight="bold" font-size="9.00">src</text>
</g>
<g id="clust4" class="cluster">
<title>cluster_src/lib</title>
<path fill="#ffffff" stroke="black" stroke-width="2" d="M170.5,-16C170.5,-16 263.5,-16 263.5,-16 269.5,-16 275.5,-22 275.5,-28 275.5,-28 275.5,-240 275.5,-240 275.5,-246 269.5,-252 263.5,-252 263.5,-252 170.5,-252 170.5,-252 164.5,-252 158.5,-246 158.5,-240 158.5,-240 158.5,-28 158.5,-28 158.5,-22 164.5,-16 170.5,-16"/>
<text text-anchor="middle" x="217" y="-240.8" font-family="Helvetica,sans-Serif" font-weight="bold" font-size="9.00">lib</text>
</g>
<g id="clust6" class="cluster">
<title>cluster_src/lib/server</title>
<path fill="#ffffff" stroke="black" stroke-width="2" d="M178.5,-84C178.5,-84 255.5,-84 255.5,-84 261.5,-84 267.5,-90 267.5,-96 267.5,-96 267.5,-214 267.5,-214 267.5,-220 261.5,-226 255.5,-226 255.5,-226 178.5,-226 178.5,-226 172.5,-226 166.5,-220 166.5,-214 166.5,-214 166.5,-96 166.5,-96 166.5,-90 172.5,-84 178.5,-84"/>
<text text-anchor="middle" x="217" y="-214.8" font-family="Helvetica,sans-Serif" font-weight="bold" font-size="9.00">server</text>
</g>
<g id="clust7" class="cluster">
<title>cluster_src/lib/server/collection</title>
<path fill="#ffffff" stroke="black" stroke-width="2" d="M193,-148C193,-148 241,-148 241,-148 247,-148 253,-154 253,-160 253,-160 253,-188 253,-188 253,-194 247,-200 241,-200 241,-200 193,-200 193,-200 187,-200 181,-194 181,-188 181,-188 181,-160 181,-160 181,-154 187,-148 193,-148"/>
<text text-anchor="middle" x="217" y="-188.8" font-family="Helvetica,sans-Serif" font-weight="bold" font-size="9.00">collection</text>
</g>
<g id="clust5" class="cluster">
<title>cluster_src/lib/BinderStorage</title>
<path fill="#ffffff" stroke="black" stroke-width="2" d="M190,-24C190,-24 244,-24 244,-24 250,-24 256,-30 256,-36 256,-36 256,-64 256,-64 256,-70 250,-76 244,-76 244,-76 190,-76 190,-76 184,-76 178,-70 178,-64 178,-64 178,-36 178,-36 178,-30 184,-24 190,-24"/>
<text text-anchor="middle" x="217" y="-64.8" font-family="Helvetica,sans-Serif" font-weight="bold" font-size="9.00">BinderStorage</text>
</g>
<g id="clust2" class="cluster">
<title>cluster_src/gathering</title>
<path fill="#ffffff" stroke="black" stroke-width="2" d="M28,-260C28,-260 530,-260 530,-260 536,-260 542,-266 542,-272 542,-272 542,-402 542,-402 542,-408 536,-414 530,-414 530,-414 28,-414 28,-414 22,-414 16,-408 16,-402 16,-402 16,-272 16,-272 16,-266 22,-260 28,-260"/>
<text text-anchor="middle" x="279" y="-402.8" font-family="Helvetica,sans-Serif" font-weight="bold" font-size="9.00">gathering</text>
</g>
<g id="clust3" class="cluster">
<title>cluster_src/gathering/CollectionEditor</title>
<path fill="#ffffff" stroke="black" stroke-width="2" d="M36,-274C36,-274 269,-274 269,-274 275,-274 281,-280 281,-286 281,-286 281,-344 281,-344 281,-350 275,-356 269,-356 269,-356 36,-356 36,-356 30,-356 24,-350 24,-344 24,-344 24,-286 24,-286 24,-280 30,-274 36,-274"/>
<text text-anchor="middle" x="152.5" y="-344.8" font-family="Helvetica,sans-Serif" font-weight="bold" font-size="9.00">CollectionEditor</text>
</g>
<g id="clust8" class="cluster">
<title>cluster_src/routes</title>
<path fill="#ffffff" stroke="black" stroke-width="2" d="M34.5,-83C34.5,-83 138.5,-83 138.5,-83 144.5,-83 150.5,-89 150.5,-95 150.5,-95 150.5,-191 150.5,-191 150.5,-197 144.5,-203 138.5,-203 138.5,-203 34.5,-203 34.5,-203 28.5,-203 22.5,-197 22.5,-191 22.5,-191 22.5,-95 22.5,-95 22.5,-89 28.5,-83 34.5,-83"/>
<text text-anchor="middle" x="86.5" y="-191.8" font-family="Helvetica,sans-Serif" font-weight="bold" font-size="9.00">routes</text>
</g>
<g id="clust9" class="cluster">
<title>cluster_src/routes/collection</title>
<path fill="#ffffff" stroke="black" stroke-width="2" d="M42.5,-91C42.5,-91 130.5,-91 130.5,-91 136.5,-91 142.5,-97 142.5,-103 142.5,-103 142.5,-165 142.5,-165 142.5,-171 136.5,-177 130.5,-177 130.5,-177 42.5,-177 42.5,-177 36.5,-177 30.5,-171 30.5,-165 30.5,-165 30.5,-103 30.5,-103 30.5,-97 36.5,-91 42.5,-91"/>
<text text-anchor="middle" x="86.5" y="-165.8" font-family="Helvetica,sans-Serif" font-weight="bold" font-size="9.00">collection</text>
</g>
<g id="clust10" class="cluster">
<title>cluster_src/routes/collection/couz</title>
<path fill="#ffffff" stroke="black" stroke-width="2" d="M50.5,-99C50.5,-99 122.5,-99 122.5,-99 128.5,-99 134.5,-105 134.5,-111 134.5,-111 134.5,-139 134.5,-139 134.5,-145 128.5,-151 122.5,-151 122.5,-151 50.5,-151 50.5,-151 44.5,-151 38.5,-145 38.5,-139 38.5,-139 38.5,-111 38.5,-111 38.5,-105 44.5,-99 50.5,-99"/>
<text text-anchor="middle" x="86.5" y="-139.8" font-family="Helvetica,sans-Serif" font-weight="bold" font-size="9.00">couz</text>
</g>
<!-- src/gathering/Collection.ts -->
<g id="node1" class="node">
<title>src/gathering/Collection.ts</title>
<g id="a_node1"><a xlink:href="src/gathering/Collection.ts" xlink:title="Collection.ts">
<path fill="#ddfeff" stroke="black" d="M461,-368C461,-368 405,-368 405,-368 402,-368 399,-365 399,-362 399,-362 399,-356 399,-356 399,-353 402,-350 405,-350 405,-350 461,-350 461,-350 464,-350 467,-353 467,-356 467,-356 467,-362 467,-362 467,-365 464,-368 461,-368"/>
<text text-anchor="start" x="407" y="-356.8" font-family="Helvetica,sans-Serif" font-size="9.00">Collection.ts</text>
</a>
</g>
</g>
<!-- src/gathering/Pack.ts -->
<g id="node2" class="node">
<title>src/gathering/Pack.ts</title>
<g id="a_node2"><a xlink:href="src/gathering/Pack.ts" xlink:title="Pack.ts">
<path fill="#ddfeff" stroke="black" d="M528,-322C528,-322 486,-322 486,-322 483,-322 480,-319 480,-316 480,-316 480,-310 480,-310 480,-307 483,-304 486,-304 486,-304 528,-304 528,-304 531,-304 534,-307 534,-310 534,-310 534,-316 534,-316 534,-319 531,-322 528,-322"/>
<text text-anchor="start" x="491.5" y="-310.8" font-family="Helvetica,sans-Serif" font-size="9.00">Pack.ts</text>
</a>
</g>
</g>
<!-- src/gathering/Collection.ts&#45;&gt;src/gathering/Pack.ts -->
<g id="edge1" class="edge">
<title>src/gathering/Collection.ts&#45;&gt;src/gathering/Pack.ts</title>
<path fill="none" stroke="#000000" stroke-opacity="0.200000" d="M448.22,-349.91C459.17,-342.92 474.42,-333.18 486.5,-325.46"/>
<polygon fill="none" stroke="#000000" stroke-opacity="0.200000" points="487.88,-327.07 491.8,-322.07 485.62,-323.53 487.88,-327.07"/>
</g>
<!-- src/gathering/CollectionEditor/CollectionEditor.test.ts -->
<g id="node3" class="node">
<title>src/gathering/CollectionEditor/CollectionEditor.test.ts</title>
<g id="a_node3"><a xlink:href="src/gathering/CollectionEditor/CollectionEditor.test.ts" xlink:title="CollectionEditor.test.ts">
<path fill="#ddfeff" stroke="black" d="M135,-330C135,-330 38,-330 38,-330 35,-330 32,-327 32,-324 32,-324 32,-318 32,-318 32,-315 35,-312 38,-312 38,-312 135,-312 135,-312 138,-312 141,-315 141,-318 141,-318 141,-324 141,-324 141,-327 138,-330 135,-330"/>
<text text-anchor="start" x="40" y="-318.8" font-family="Helvetica,sans-Serif" font-size="9.00">CollectionEditor.test.ts</text>
</a>
</g>
</g>
<!-- src/gathering/CollectionEditor/CollectionEditor.test.ts&#45;&gt;src/gathering/Collection.ts -->
<g id="edge4" class="edge">
<title>src/gathering/CollectionEditor/CollectionEditor.test.ts&#45;&gt;src/gathering/Collection.ts</title>
<path fill="none" stroke="#000000" stroke-opacity="0.200000" d="M102.76,-330.07C116.8,-338.03 138.41,-349.34 158.5,-356 255.01,-387.98 286.65,-401.61 386,-380 394.48,-378.16 403.26,-374.61 410.86,-370.94"/>
<polygon fill="none" stroke="#000000" stroke-opacity="0.200000" points="411.99,-372.72 416.41,-368.15 410.1,-368.97 411.99,-372.72"/>
</g>
<!-- src/gathering/CollectionEditor/CollectionEditor.ts -->
<g id="node4" class="node">
<title>src/gathering/CollectionEditor/CollectionEditor.ts</title>
<g id="a_node4"><a xlink:href="src/gathering/CollectionEditor/CollectionEditor.ts" xlink:title="CollectionEditor.ts">
<path fill="#ddfeff" stroke="black" d="M257,-330C257,-330 177,-330 177,-330 174,-330 171,-327 171,-324 171,-324 171,-318 171,-318 171,-315 174,-312 177,-312 177,-312 257,-312 257,-312 260,-312 263,-315 263,-318 263,-318 263,-324 263,-324 263,-327 260,-330 257,-330"/>
<text text-anchor="start" x="179" y="-318.8" font-family="Helvetica,sans-Serif" font-size="9.00">CollectionEditor.ts</text>
</a>
</g>
</g>
<!-- src/gathering/CollectionEditor/CollectionEditor.test.ts&#45;&gt;src/gathering/CollectionEditor/CollectionEditor.ts -->
<g id="edge2" class="edge">
<title>src/gathering/CollectionEditor/CollectionEditor.test.ts&#45;&gt;src/gathering/CollectionEditor/CollectionEditor.ts</title>
<path fill="none" stroke="#000000" stroke-width="2" stroke-opacity="0.200000" d="M141.25,-321C148.88,-321 156.71,-321 164.3,-321"/>
<polygon fill="#000000" fill-opacity="0.200000" stroke="#000000" stroke-width="2" stroke-opacity="0.200000" points="164.61,-323.1 170.61,-321 164.61,-318.9 164.61,-323.1"/>
</g>
<!-- src/gathering/CollectionEditor/PackRepositoryMock.ts -->
<g id="node5" class="node">
<title>src/gathering/CollectionEditor/PackRepositoryMock.ts</title>
<g id="a_node5"><a xlink:href="src/gathering/CollectionEditor/PackRepositoryMock.ts" xlink:title="PackRepositoryMock.ts">
<path fill="#ddfeff" stroke="black" d="M267,-300C267,-300 167,-300 167,-300 164,-300 161,-297 161,-294 161,-294 161,-288 161,-288 161,-285 164,-282 167,-282 167,-282 267,-282 267,-282 270,-282 273,-285 273,-288 273,-288 273,-294 273,-294 273,-297 270,-300 267,-300"/>
<text text-anchor="start" x="169" y="-288.8" font-family="Helvetica,sans-Serif" font-size="9.00">PackRepositoryMock.ts</text>
</a>
</g>
</g>
<!-- src/gathering/CollectionEditor/CollectionEditor.test.ts&#45;&gt;src/gathering/CollectionEditor/PackRepositoryMock.ts -->
<g id="edge3" class="edge">
<title>src/gathering/CollectionEditor/CollectionEditor.test.ts&#45;&gt;src/gathering/CollectionEditor/PackRepositoryMock.ts</title>
<path fill="none" stroke="#000000" stroke-width="2" stroke-opacity="0.200000" d="M126.05,-312C140.16,-308.71 156.23,-304.95 170.86,-301.54"/>
<polygon fill="#000000" fill-opacity="0.200000" stroke="#000000" stroke-width="2" stroke-opacity="0.200000" points="171.66,-303.51 177.03,-300.1 170.71,-299.42 171.66,-303.51"/>
</g>
<!-- src/gathering/ICollectionEditor.ts -->
<g id="node6" class="node">
<title>src/gathering/ICollectionEditor.ts</title>
<g id="a_node6"><a xlink:href="src/gathering/ICollectionEditor.ts" xlink:title="ICollectionEditor.ts">
<path fill="#ddfeff" stroke="black" d="M378.5,-344C378.5,-344 296.5,-344 296.5,-344 293.5,-344 290.5,-341 290.5,-338 290.5,-338 290.5,-332 290.5,-332 290.5,-329 293.5,-326 296.5,-326 296.5,-326 378.5,-326 378.5,-326 381.5,-326 384.5,-329 384.5,-332 384.5,-332 384.5,-338 384.5,-338 384.5,-341 381.5,-344 378.5,-344"/>
<text text-anchor="start" x="298.5" y="-332.8" font-family="Helvetica,sans-Serif" font-size="9.00">ICollectionEditor.ts</text>
</a>
</g>
</g>
<!-- src/gathering/CollectionEditor/CollectionEditor.test.ts&#45;&gt;src/gathering/ICollectionEditor.ts -->
<g id="edge5" class="edge">
<title>src/gathering/CollectionEditor/CollectionEditor.test.ts&#45;&gt;src/gathering/ICollectionEditor.ts</title>
<path fill="none" stroke="#000000" stroke-opacity="0.200000" d="M123.02,-330.02C134.29,-332.47 146.85,-334.78 158.5,-336 212.65,-341.66 226.56,-336.49 281,-336 282.06,-335.99 283.13,-335.98 284.21,-335.97"/>
<polygon fill="none" stroke="#000000" stroke-opacity="0.200000" points="284.49,-338.07 290.47,-335.89 284.44,-333.87 284.49,-338.07"/>
</g>
<!-- src/gathering/ICollectionOutput.ts -->
<g id="node7" class="node">
<title>src/gathering/ICollectionOutput.ts</title>
<g id="a_node7"><a xlink:href="src/gathering/ICollectionOutput.ts" xlink:title="ICollectionOutput.ts">
<path fill="#ddfeff" stroke="black" d="M380,-374C380,-374 295,-374 295,-374 292,-374 289,-371 289,-368 289,-368 289,-362 289,-362 289,-359 292,-356 295,-356 295,-356 380,-356 380,-356 383,-356 386,-359 386,-362 386,-362 386,-368 386,-368 386,-371 383,-374 380,-374"/>
<text text-anchor="start" x="297" y="-362.8" font-family="Helvetica,sans-Serif" font-size="9.00">ICollectionOutput.ts</text>
</a>
</g>
</g>
<!-- src/gathering/CollectionEditor/CollectionEditor.test.ts&#45;&gt;src/gathering/ICollectionOutput.ts -->
<g id="edge6" class="edge">
<title>src/gathering/CollectionEditor/CollectionEditor.test.ts&#45;&gt;src/gathering/ICollectionOutput.ts</title>
<path fill="none" stroke="#000000" stroke-opacity="0.200000" d="M114.55,-330.1C127.69,-334.24 143.78,-338.89 158.5,-342 199.86,-350.73 247.36,-356.67 282.89,-360.32"/>
<polygon fill="none" stroke="#000000" stroke-opacity="0.200000" points="282.75,-362.41 288.93,-360.93 283.18,-358.24 282.75,-362.41"/>
</g>
<!-- src/gathering/CollectionEditor/CollectionEditor.ts&#45;&gt;src/gathering/Pack.ts -->
<g id="edge10" class="edge">
<title>src/gathering/CollectionEditor/CollectionEditor.ts&#45;&gt;src/gathering/Pack.ts</title>
<path fill="none" stroke="#000000" stroke-opacity="0.200000" d="M263.32,-319.74C321.92,-318.11 422.54,-315.32 473.86,-313.89"/>
<polygon fill="none" stroke="#000000" stroke-opacity="0.200000" points="473.93,-315.99 479.87,-313.73 473.81,-311.79 473.93,-315.99"/>
</g>
<!-- src/gathering/CollectionEditor/CollectionEditor.ts&#45;&gt;src/gathering/ICollectionEditor.ts -->
<g id="edge7" class="edge">
<title>src/gathering/CollectionEditor/CollectionEditor.ts&#45;&gt;src/gathering/ICollectionEditor.ts</title>
<path fill="none" stroke="#000000" stroke-opacity="0.200000" d="M263.14,-326.33C269.95,-327.14 277.02,-327.97 283.97,-328.79"/>
<polygon fill="none" stroke="#000000" stroke-opacity="0.200000" points="284.1,-330.92 290.31,-329.54 284.6,-326.75 284.1,-330.92"/>
</g>
<!-- src/gathering/CollectionEditor/CollectionEditor.ts&#45;&gt;src/gathering/ICollectionOutput.ts -->
<g id="edge8" class="edge">
<title>src/gathering/CollectionEditor/CollectionEditor.ts&#45;&gt;src/gathering/ICollectionOutput.ts</title>
<path fill="none" stroke="#000000" stroke-opacity="0.200000" d="M263.22,-325.11C269.61,-327.13 275.78,-329.98 281,-334 287.3,-338.85 282.95,-344.84 289,-350 290.07,-350.91 291.19,-351.77 292.36,-352.57"/>
<polygon fill="none" stroke="#000000" stroke-opacity="0.200000" points="291.51,-354.51 297.74,-355.78 293.66,-350.9 291.51,-354.51"/>
</g>
<!-- src/gathering/IPackRepository.ts -->
<g id="node8" class="node">
<title>src/gathering/IPackRepository.ts</title>
<g id="a_node8"><a xlink:href="src/gathering/IPackRepository.ts" xlink:title="IPackRepository.ts">
<path fill="#ddfeff" stroke="black" d="M378,-300C378,-300 297,-300 297,-300 294,-300 291,-297 291,-294 291,-294 291,-288 291,-288 291,-285 294,-282 297,-282 297,-282 378,-282 378,-282 381,-282 384,-285 384,-288 384,-288 384,-294 384,-294 384,-297 381,-300 378,-300"/>
<text text-anchor="start" x="299" y="-288.8" font-family="Helvetica,sans-Serif" font-size="9.00">IPackRepository.ts</text>
</a>
</g>
</g>
<!-- src/gathering/CollectionEditor/CollectionEditor.ts&#45;&gt;src/gathering/IPackRepository.ts -->
<g id="edge9" class="edge">
<title>src/gathering/CollectionEditor/CollectionEditor.ts&#45;&gt;src/gathering/IPackRepository.ts</title>
<path fill="none" stroke="#000000" stroke-opacity="0.200000" d="M256.69,-311.98C264.74,-310.05 273.15,-307.99 281,-306 286.4,-304.63 292.08,-303.14 297.67,-301.65"/>
<polygon fill="none" stroke="#000000" stroke-opacity="0.200000" points="298.42,-303.63 303.67,-300.05 297.34,-299.57 298.42,-303.63"/>
</g>
<!-- src/gathering/CollectionEditor/PackRepositoryMock.ts&#45;&gt;src/gathering/Pack.ts -->
<g id="edge12" class="edge">
<title>src/gathering/CollectionEditor/PackRepositoryMock.ts&#45;&gt;src/gathering/Pack.ts</title>
<path fill="none" stroke="#000000" stroke-opacity="0.200000" d="M253.52,-281.98C264.79,-279.53 277.35,-277.22 289,-276 368.23,-267.72 391.42,-271.83 467,-297 471.11,-298.37 475.39,-299.96 479.56,-301.59"/>
<polygon fill="none" stroke="#000000" stroke-opacity="0.200000" points="478.8,-303.55 485.15,-303.83 480.36,-299.65 478.8,-303.55"/>
</g>
<!-- src/gathering/CollectionEditor/PackRepositoryMock.ts&#45;&gt;src/gathering/IPackRepository.ts -->
<g id="edge11" class="edge">
<title>src/gathering/CollectionEditor/PackRepositoryMock.ts&#45;&gt;src/gathering/IPackRepository.ts</title>
<path fill="none" stroke="#000000" stroke-opacity="0.200000" d="M273.09,-291C276.97,-291 280.89,-291 284.75,-291"/>
<polygon fill="none" stroke="#000000" stroke-opacity="0.200000" points="284.79,-293.1 290.79,-291 284.79,-288.9 284.79,-293.1"/>
</g>
<!-- src/gathering/ICollectionEditor.ts&#45;&gt;src/gathering/Collection.ts -->
<g id="edge13" class="edge">
<title>src/gathering/ICollectionEditor.ts&#45;&gt;src/gathering/Collection.ts</title>
<path fill="none" stroke="#000000" stroke-opacity="0.200000" d="M373.58,-344C379.93,-345.63 386.58,-347.34 393.03,-349"/>
<polygon fill="none" stroke="#000000" stroke-opacity="0.200000" points="392.55,-351.04 398.89,-350.5 393.6,-346.97 392.55,-351.04"/>
</g>
<!-- src/gathering/ICollectionEditor.ts&#45;&gt;src/gathering/Pack.ts -->
<g id="edge14" class="edge">
<title>src/gathering/ICollectionEditor.ts&#45;&gt;src/gathering/Pack.ts</title>
<path fill="none" stroke="#000000" stroke-opacity="0.200000" d="M384.71,-328.93C412.92,-325.23 448.29,-320.58 473.55,-317.26"/>
<polygon fill="none" stroke="#000000" stroke-opacity="0.200000" points="474.06,-319.31 479.74,-316.45 473.52,-315.15 474.06,-319.31"/>
</g>
<!-- src/gathering/ICollectionOutput.ts&#45;&gt;src/gathering/Collection.ts -->
<g id="edge15" class="edge">
<title>src/gathering/ICollectionOutput.ts&#45;&gt;src/gathering/Collection.ts</title>
<path fill="none" stroke="#000000" stroke-opacity="0.200000" d="M386.07,-361.95C388.24,-361.81 390.4,-361.67 392.54,-361.53"/>
<polygon fill="none" stroke="#000000" stroke-opacity="0.200000" points="393.03,-363.6 398.89,-361.12 392.77,-359.41 393.03,-363.6"/>
</g>
<!-- src/gathering/IPackRepository.ts&#45;&gt;src/gathering/Pack.ts -->
<g id="edge16" class="edge">
<title>src/gathering/IPackRepository.ts&#45;&gt;src/gathering/Pack.ts</title>
<path fill="none" stroke="#000000" stroke-opacity="0.200000" d="M384.27,-297.01C412.49,-300.72 448,-305.38 473.38,-308.72"/>
<polygon fill="none" stroke="#000000" stroke-opacity="0.200000" points="473.38,-310.83 479.6,-309.53 473.92,-306.67 473.38,-310.83"/>
</g>
<!-- src/lib/BinderStorage/index.ts -->
<g id="node9" class="node">
<title>src/lib/BinderStorage/index.ts</title>
<g id="a_node9"><a xlink:href="src/lib/BinderStorage/index.ts" xlink:title="index.ts">
<path fill="#ddfeff" stroke="black" d="M238,-50C238,-50 196,-50 196,-50 193,-50 190,-47 190,-44 190,-44 190,-38 190,-38 190,-35 193,-32 196,-32 196,-32 238,-32 238,-32 241,-32 244,-35 244,-38 244,-38 244,-44 244,-44 244,-47 241,-50 238,-50"/>
<text text-anchor="start" x="201" y="-38.8" font-family="Helvetica,sans-Serif" font-size="9.00">index.ts</text>
</a>
</g>
</g>
<!-- src/lib/server/ahdb.cards.json -->
<g id="node10" class="node">
<title>src/lib/server/ahdb.cards.json</title>
<g id="a_node10"><a xlink:href="src/lib/server/ahdb.cards.json" xlink:title="ahdb.cards.json">
<path fill="#ffee44" stroke="black" d="M252.5,-110C252.5,-110 181.5,-110 181.5,-110 178.5,-110 175.5,-107 175.5,-104 175.5,-104 175.5,-98 175.5,-98 175.5,-95 178.5,-92 181.5,-92 181.5,-92 252.5,-92 252.5,-92 255.5,-92 258.5,-95 258.5,-98 258.5,-98 258.5,-104 258.5,-104 258.5,-107 255.5,-110 252.5,-110"/>
<text text-anchor="start" x="183.5" y="-98.8" font-family="Helvetica,sans-Serif" font-size="9.00">ahdb.cards.json</text>
</a>
</g>
</g>
<!-- src/lib/server/ahdb.packs.json -->
<g id="node11" class="node">
<title>src/lib/server/ahdb.packs.json</title>
<g id="a_node11"><a xlink:href="src/lib/server/ahdb.packs.json" xlink:title="ahdb.packs.json">
<path fill="#ffee44" stroke="black" d="M253.5,-140C253.5,-140 180.5,-140 180.5,-140 177.5,-140 174.5,-137 174.5,-134 174.5,-134 174.5,-128 174.5,-128 174.5,-125 177.5,-122 180.5,-122 180.5,-122 253.5,-122 253.5,-122 256.5,-122 259.5,-125 259.5,-128 259.5,-128 259.5,-134 259.5,-134 259.5,-137 256.5,-140 253.5,-140"/>
<text text-anchor="start" x="182.5" y="-128.8" font-family="Helvetica,sans-Serif" font-size="9.00">ahdb.packs.json</text>
</a>
</g>
</g>
<!-- src/lib/server/collection/couz.json -->
<g id="node12" class="node">
<title>src/lib/server/collection/couz.json</title>
<g id="a_node12"><a xlink:href="src/lib/server/collection/couz.json" xlink:title="couz.json">
<path fill="#ffee44" stroke="black" d="M239,-174C239,-174 195,-174 195,-174 192,-174 189,-171 189,-168 189,-168 189,-162 189,-162 189,-159 192,-156 195,-156 195,-156 239,-156 239,-156 242,-156 245,-159 245,-162 245,-162 245,-168 245,-168 245,-171 242,-174 239,-174"/>
<text text-anchor="start" x="197" y="-162.8" font-family="Helvetica,sans-Serif" font-size="9.00">couz.json</text>
</a>
</g>
</g>
<!-- src/routes/collection/couz/+page.server.ts -->
<g id="node13" class="node">
<title>src/routes/collection/couz/+page.server.ts</title>
<g id="a_node13"><a xlink:href="src/routes/collection/couz/+page.server.ts" xlink:title="+page.server.ts">
<path fill="#ddfeff" stroke="black" d="M120.5,-125C120.5,-125 52.5,-125 52.5,-125 49.5,-125 46.5,-122 46.5,-119 46.5,-119 46.5,-113 46.5,-113 46.5,-110 49.5,-107 52.5,-107 52.5,-107 120.5,-107 120.5,-107 123.5,-107 126.5,-110 126.5,-113 126.5,-113 126.5,-119 126.5,-119 126.5,-122 123.5,-125 120.5,-125"/>
<text text-anchor="start" x="54.5" y="-113.8" font-family="Helvetica,sans-Serif" font-size="9.00">+page.server.ts</text>
</a>
</g>
</g>
<!-- src/routes/collection/couz/+page.server.ts&#45;&gt;src/lib/BinderStorage/index.ts -->
<g id="edge17" class="edge">
<title>src/routes/collection/couz/+page.server.ts&#45;&gt;src/lib/BinderStorage/index.ts</title>
<path fill="none" stroke="#000000" stroke-opacity="0.200000" d="M103,-106.95C126.06,-93.5 169.44,-68.18 195.22,-53.13"/>
<polygon fill="none" stroke="#000000" stroke-opacity="0.200000" points="196.32,-54.92 200.44,-50.08 194.2,-51.29 196.32,-54.92"/>
</g>
<!-- src/routes/collection/couz/+page.server.ts&#45;&gt;src/lib/server/ahdb.cards.json -->
<g id="edge18" class="edge">
<title>src/routes/collection/couz/+page.server.ts&#45;&gt;src/lib/server/ahdb.cards.json</title>
<path fill="none" stroke="#000000" stroke-width="2" stroke-opacity="0.200000" d="M126.75,-111.42C140.07,-109.86 155.07,-108.11 168.93,-106.49"/>
<polygon fill="#000000" fill-opacity="0.200000" stroke="#000000" stroke-width="2" stroke-opacity="0.200000" points="169.49,-108.54 175.21,-105.76 169.01,-104.37 169.49,-108.54"/>
</g>
<!-- src/routes/collection/couz/+page.server.ts&#45;&gt;src/lib/server/ahdb.packs.json -->
<g id="edge19" class="edge">
<title>src/routes/collection/couz/+page.server.ts&#45;&gt;src/lib/server/ahdb.packs.json</title>
<path fill="none" stroke="#000000" stroke-width="2" stroke-opacity="0.200000" d="M126.75,-120.58C139.81,-122.11 154.5,-123.82 168.13,-125.41"/>
<polygon fill="#000000" fill-opacity="0.200000" stroke="#000000" stroke-width="2" stroke-opacity="0.200000" points="168.11,-127.52 174.31,-126.13 168.6,-123.35 168.11,-127.52"/>
</g>
<!-- src/routes/collection/couz/+page.server.ts&#45;&gt;src/lib/server/collection/couz.json -->
<g id="edge20" class="edge">
<title>src/routes/collection/couz/+page.server.ts&#45;&gt;src/lib/server/collection/couz.json</title>
<path fill="none" stroke="#000000" stroke-width="2" stroke-opacity="0.200000" d="M102.8,-125.16C116.85,-133.22 138.48,-144.79 158.5,-152 166.25,-154.79 174.81,-157.11 182.9,-158.98"/>
<polygon fill="#000000" fill-opacity="0.200000" stroke="#000000" stroke-width="2" stroke-opacity="0.200000" points="182.67,-161.08 188.98,-160.33 183.58,-156.98 182.67,-161.08"/>
</g>
</g>
</svg>
