<?xml version="1.0" encoding="UTF-8" standalone="no"?>
<!DOCTYPE svg PUBLIC "-//W3C//DTD SVG 1.1//EN"
 "http://www.w3.org/Graphics/SVG/1.1/DTD/svg11.dtd">
<!-- Generated by graphviz version 2.50.0 (20211204.2007)
 -->
<!-- Title: dependency&#45;cruiser output Pages: 1 -->
<svg width="892pt" height="526pt"
 viewBox="0.00 0.00 892.00 526.00" xmlns="http://www.w3.org/2000/svg" xmlns:xlink="http://www.w3.org/1999/xlink">
<g id="graph0" class="graph" transform="scale(1 1) rotate(0) translate(4 522)">
<title>dependency&#45;cruiser output</title>
<polygon fill="white" stroke="transparent" points="-4,4 -4,-522 888,-522 888,4 -4,4"/>
<g id="clust1" class="cluster">
<title>cluster_src</title>
<path fill="#ffffff" stroke="black" stroke-width="2" d="M20,-8C20,-8 864,-8 864,-8 870,-8 876,-14 876,-20 876,-20 876,-498 876,-498 876,-504 870,-510 864,-510 864,-510 20,-510 20,-510 14,-510 8,-504 8,-498 8,-498 8,-20 8,-20 8,-14 14,-8 20,-8"/>
<text text-anchor="middle" x="442" y="-498.8" font-family="Helvetica,sans-Serif" font-weight="bold" font-size="9.00">src</text>
</g>
<g id="clust2" class="cluster">
<title>cluster_src/gathering</title>
<path fill="#ffffff" stroke="black" stroke-width="2" d="M367.5,-170C367.5,-170 856,-170 856,-170 862,-170 868,-176 868,-182 868,-182 868,-472 868,-472 868,-478 862,-484 856,-484 856,-484 367.5,-484 367.5,-484 361.5,-484 355.5,-478 355.5,-472 355.5,-472 355.5,-182 355.5,-182 355.5,-176 361.5,-170 367.5,-170"/>
<text text-anchor="middle" x="611.75" y="-472.8" font-family="Helvetica,sans-Serif" font-weight="bold" font-size="9.00">gathering</text>
</g>
<g id="clust6" class="cluster">
<title>cluster_src/gathering/CollectionOrganizer</title>
<path fill="#ffffff" stroke="black" stroke-width="2" d="M530,-376C530,-376 634,-376 634,-376 640,-376 646,-382 646,-388 646,-388 646,-446 646,-446 646,-452 640,-458 634,-458 634,-458 530,-458 530,-458 524,-458 518,-452 518,-446 518,-446 518,-388 518,-388 518,-382 524,-376 530,-376"/>
<text text-anchor="middle" x="582" y="-446.8" font-family="Helvetica,sans-Serif" font-weight="bold" font-size="9.00">CollectionOrganizer</text>
</g>
<g id="clust4" class="cluster">
<title>cluster_src/gathering/CollectionEntity</title>
<path fill="#ffffff" stroke="black" stroke-width="2" d="M541.5,-306C541.5,-306 622.5,-306 622.5,-306 628.5,-306 634.5,-312 634.5,-318 634.5,-318 634.5,-346 634.5,-346 634.5,-352 628.5,-358 622.5,-358 622.5,-358 541.5,-358 541.5,-358 535.5,-358 529.5,-352 529.5,-346 529.5,-346 529.5,-318 529.5,-318 529.5,-312 535.5,-306 541.5,-306"/>
<text text-anchor="middle" x="582" y="-346.8" font-family="Helvetica,sans-Serif" font-weight="bold" font-size="9.00">CollectionEntity</text>
</g>
<g id="clust3" class="cluster">
<title>cluster_src/gathering/CollectionEditor</title>
<path fill="#ffffff" stroke="black" stroke-width="2" d="M375.5,-250C375.5,-250 479.5,-250 479.5,-250 485.5,-250 491.5,-256 491.5,-262 491.5,-262 491.5,-320 491.5,-320 491.5,-326 485.5,-332 479.5,-332 479.5,-332 375.5,-332 375.5,-332 369.5,-332 363.5,-326 363.5,-320 363.5,-320 363.5,-262 363.5,-262 363.5,-256 369.5,-250 375.5,-250"/>
<text text-anchor="middle" x="427.5" y="-320.8" font-family="Helvetica,sans-Serif" font-weight="bold" font-size="9.00">CollectionEditor</text>
</g>
<g id="clust5" class="cluster">
<title>cluster_src/gathering/CollectionLoader</title>
<path fill="#ffffff" stroke="black" stroke-width="2" d="M383,-187C383,-187 472,-187 472,-187 478,-187 484,-193 484,-199 484,-199 484,-227 484,-227 484,-233 478,-239 472,-239 472,-239 383,-239 383,-239 377,-239 371,-233 371,-227 371,-227 371,-199 371,-199 371,-193 377,-187 383,-187"/>
<text text-anchor="middle" x="427.5" y="-227.8" font-family="Helvetica,sans-Serif" font-weight="bold" font-size="9.00">CollectionLoader</text>
</g>
<g id="clust7" class="cluster">
<title>cluster_src/lib</title>
<path fill="#ffffff" stroke="black" stroke-width="2" d="M357,-16C357,-16 498,-16 498,-16 504,-16 510,-22 510,-28 510,-28 510,-150 510,-150 510,-156 504,-162 498,-162 498,-162 357,-162 357,-162 351,-162 345,-156 345,-150 345,-150 345,-28 345,-28 345,-22 351,-16 357,-16"/>
<text text-anchor="middle" x="427.5" y="-150.8" font-family="Helvetica,sans-Serif" font-weight="bold" font-size="9.00">lib</text>
</g>
<g id="clust8" class="cluster">
<title>cluster_src/lib/userBrowsesItsCollection</title>
<path fill="#ffffff" stroke="black" stroke-width="2" d="M365,-24C365,-24 490,-24 490,-24 496,-24 502,-30 502,-36 502,-36 502,-64 502,-64 502,-70 496,-76 490,-76 490,-76 365,-76 365,-76 359,-76 353,-70 353,-64 353,-64 353,-36 353,-36 353,-30 359,-24 365,-24"/>
<text text-anchor="middle" x="427.5" y="-64.8" font-family="Helvetica,sans-Serif" font-weight="bold" font-size="9.00">userBrowsesItsCollection</text>
</g>
<g id="clust9" class="cluster">
<title>cluster_src/lib/userEditsItsCollection</title>
<path fill="#ffffff" stroke="black" stroke-width="2" d="M373,-84C373,-84 482,-84 482,-84 488,-84 494,-90 494,-96 494,-96 494,-124 494,-124 494,-130 488,-136 482,-136 482,-136 373,-136 373,-136 367,-136 361,-130 361,-124 361,-124 361,-96 361,-96 361,-90 367,-84 373,-84"/>
<text text-anchor="middle" x="427.5" y="-124.8" font-family="Helvetica,sans-Serif" font-weight="bold" font-size="9.00">userEditsItsCollection</text>
</g>
<g id="clust10" class="cluster">
<title>cluster_src/routes</title>
<path fill="#ffffff" stroke="black" stroke-width="2" d="M28,-16C28,-16 325,-16 325,-16 331,-16 337,-22 337,-28 337,-28 337,-90 337,-90 337,-96 331,-102 325,-102 325,-102 28,-102 28,-102 22,-102 16,-96 16,-90 16,-90 16,-28 16,-28 16,-22 22,-16 28,-16"/>
<text text-anchor="middle" x="176.5" y="-90.8" font-family="Helvetica,sans-Serif" font-weight="bold" font-size="9.00">routes</text>
</g>
<g id="clust11" class="cluster">
<title>cluster_src/routes/collection</title>
<path fill="#ffffff" stroke="black" stroke-width="2" d="M36,-24C36,-24 317,-24 317,-24 323,-24 329,-30 329,-36 329,-36 329,-64 329,-64 329,-70 323,-76 317,-76 317,-76 36,-76 36,-76 30,-76 24,-70 24,-64 24,-64 24,-36 24,-36 24,-30 30,-24 36,-24"/>
<text text-anchor="middle" x="176.5" y="-64.8" font-family="Helvetica,sans-Serif" font-weight="bold" font-size="9.00">collection</text>
</g>
<!-- src/gathering/Collection.ts -->
<g id="node1" class="node">
<title>src/gathering/Collection.ts</title>
<g id="a_node1"><a xlink:href="src/gathering/Collection.ts" xlink:title="Collection.ts">
<path fill="#ddfeff" stroke="black" d="M737,-210C737,-210 681,-210 681,-210 678,-210 675,-207 675,-204 675,-204 675,-198 675,-198 675,-195 678,-192 681,-192 681,-192 737,-192 737,-192 740,-192 743,-195 743,-198 743,-198 743,-204 743,-204 743,-207 740,-210 737,-210"/>
<text text-anchor="start" x="683" y="-198.8" font-family="Helvetica,sans-Serif" font-size="9.00">Collection.ts</text>
</a>
</g>
</g>
<!-- src/gathering/Pack.ts -->
<g id="node2" class="node">
<title>src/gathering/Pack.ts</title>
<g id="a_node2"><a xlink:href="src/gathering/Pack.ts" xlink:title="Pack.ts">
<path fill="#ddfeff" stroke="black" d="M839.5,-313C839.5,-313 797.5,-313 797.5,-313 794.5,-313 791.5,-310 791.5,-307 791.5,-307 791.5,-301 791.5,-301 791.5,-298 794.5,-295 797.5,-295 797.5,-295 839.5,-295 839.5,-295 842.5,-295 845.5,-298 845.5,-301 845.5,-301 845.5,-307 845.5,-307 845.5,-310 842.5,-313 839.5,-313"/>
<text text-anchor="start" x="803" y="-301.8" font-family="Helvetica,sans-Serif" font-size="9.00">Pack.ts</text>
</a>
</g>
</g>
<!-- src/gathering/Collection.ts&#45;&gt;src/gathering/Pack.ts -->
<g id="edge1" class="edge">
<title>src/gathering/Collection.ts&#45;&gt;src/gathering/Pack.ts</title>
<path fill="none" stroke="#000000" stroke-opacity="0.200000" d="M719.54,-210.14C738.54,-228.34 781.18,-269.2 803.41,-290.5"/>
<polygon fill="none" stroke="#000000" stroke-opacity="0.200000" points="802.04,-292.1 807.83,-294.73 804.95,-289.06 802.04,-292.1"/>
</g>
<!-- src/gathering/CollectionEditor/CollectionEditor.ts -->
<g id="node3" class="node">
<title>src/gathering/CollectionEditor/CollectionEditor.ts</title>
<g id="a_node3"><a xlink:href="src/gathering/CollectionEditor/CollectionEditor.ts" xlink:title="CollectionEditor.ts">
<path fill="#ddfeff" stroke="black" d="M467.5,-276C467.5,-276 387.5,-276 387.5,-276 384.5,-276 381.5,-273 381.5,-270 381.5,-270 381.5,-264 381.5,-264 381.5,-261 384.5,-258 387.5,-258 387.5,-258 467.5,-258 467.5,-258 470.5,-258 473.5,-261 473.5,-264 473.5,-264 473.5,-270 473.5,-270 473.5,-273 470.5,-276 467.5,-276"/>
<text text-anchor="start" x="389.5" y="-264.8" font-family="Helvetica,sans-Serif" font-size="9.00">CollectionEditor.ts</text>
</a>
</g>
</g>
<!-- src/gathering/CollectionEditor/CollectionEditor.ts&#45;&gt;src/gathering/Pack.ts -->
<g id="edge4" class="edge">
<title>src/gathering/CollectionEditor/CollectionEditor.ts&#45;&gt;src/gathering/Pack.ts</title>
<path fill="none" stroke="#000000" stroke-opacity="0.200000" d="M473.56,-271.63C487.78,-273.06 503.54,-274.63 518,-276 627.28,-286.38 654.78,-286.99 764,-298 770.84,-298.69 778.16,-299.48 785.12,-300.25"/>
<polygon fill="none" stroke="#000000" stroke-opacity="0.200000" points="785.19,-302.37 791.39,-300.95 785.66,-298.2 785.19,-302.37"/>
</g>
<!-- src/gathering/ICollectionEditor.ts -->
<g id="node4" class="node">
<title>src/gathering/ICollectionEditor.ts</title>
<g id="a_node4"><a xlink:href="src/gathering/ICollectionEditor.ts" xlink:title="ICollectionEditor.ts">
<path fill="#ddfeff" stroke="black" d="M623,-270C623,-270 541,-270 541,-270 538,-270 535,-267 535,-264 535,-264 535,-258 535,-258 535,-255 538,-252 541,-252 541,-252 623,-252 623,-252 626,-252 629,-255 629,-258 629,-258 629,-264 629,-264 629,-267 626,-270 623,-270"/>
<text text-anchor="start" x="543" y="-258.8" font-family="Helvetica,sans-Serif" font-size="9.00">ICollectionEditor.ts</text>
</a>
</g>
</g>
<!-- src/gathering/CollectionEditor/CollectionEditor.ts&#45;&gt;src/gathering/ICollectionEditor.ts -->
<g id="edge2" class="edge">
<title>src/gathering/CollectionEditor/CollectionEditor.ts&#45;&gt;src/gathering/ICollectionEditor.ts</title>
<path fill="none" stroke="#000000" stroke-opacity="0.200000" d="M473.84,-265.22C490.97,-264.54 510.6,-263.77 528.33,-263.07"/>
<polygon fill="none" stroke="#000000" stroke-opacity="0.200000" points="528.86,-265.15 534.78,-262.82 528.7,-260.96 528.86,-265.15"/>
</g>
<!-- src/gathering/ICollectionOutput.ts -->
<g id="node5" class="node">
<title>src/gathering/ICollectionOutput.ts</title>
<g id="a_node5"><a xlink:href="src/gathering/ICollectionOutput.ts" xlink:title="ICollectionOutput.ts">
<path fill="#ddfeff" stroke="black" d="M624.5,-240C624.5,-240 539.5,-240 539.5,-240 536.5,-240 533.5,-237 533.5,-234 533.5,-234 533.5,-228 533.5,-228 533.5,-225 536.5,-222 539.5,-222 539.5,-222 624.5,-222 624.5,-222 627.5,-222 630.5,-225 630.5,-228 630.5,-228 630.5,-234 630.5,-234 630.5,-237 627.5,-240 624.5,-240"/>
<text text-anchor="start" x="541.5" y="-228.8" font-family="Helvetica,sans-Serif" font-size="9.00">ICollectionOutput.ts</text>
</a>
</g>
</g>
<!-- src/gathering/CollectionEditor/CollectionEditor.ts&#45;&gt;src/gathering/ICollectionOutput.ts -->
<g id="edge3" class="edge">
<title>src/gathering/CollectionEditor/CollectionEditor.ts&#45;&gt;src/gathering/ICollectionOutput.ts</title>
<path fill="none" stroke="#000000" stroke-opacity="0.200000" d="M466.98,-257.92C488.19,-252.91 514.62,-246.67 536.69,-241.46"/>
<polygon fill="none" stroke="#000000" stroke-opacity="0.200000" points="537.44,-243.44 542.79,-240.02 536.47,-239.35 537.44,-243.44"/>
</g>
<!-- src/gathering/ICollectionEditor.ts&#45;&gt;src/gathering/Pack.ts -->
<g id="edge20" class="edge">
<title>src/gathering/ICollectionEditor.ts&#45;&gt;src/gathering/Pack.ts</title>
<path fill="none" stroke="#000000" stroke-opacity="0.200000" d="M629.15,-261.32C666.2,-262.59 719.24,-266.7 764,-279 775.07,-282.04 786.7,-287.21 796.27,-292.06"/>
<polygon fill="none" stroke="#000000" stroke-opacity="0.200000" points="795.36,-293.95 801.66,-294.86 797.3,-290.23 795.36,-293.95"/>
</g>
<!-- src/gathering/ICollectionOutput.ts&#45;&gt;src/gathering/Collection.ts -->
<g id="edge23" class="edge">
<title>src/gathering/ICollectionOutput.ts&#45;&gt;src/gathering/Collection.ts</title>
<path fill="none" stroke="#000000" stroke-opacity="0.200000" d="M620.98,-221.98C629.23,-220.01 637.91,-217.94 646,-216 653.32,-214.24 661.12,-212.36 668.64,-210.55"/>
<polygon fill="none" stroke="#000000" stroke-opacity="0.200000" points="669.53,-212.49 674.86,-209.04 668.54,-208.41 669.53,-212.49"/>
</g>
<!-- src/gathering/CollectionEditor/PackRepositoryMock.ts -->
<g id="node6" class="node">
<title>src/gathering/CollectionEditor/PackRepositoryMock.ts</title>
<g id="a_node6"><a xlink:href="src/gathering/CollectionEditor/PackRepositoryMock.ts" xlink:title="PackRepositoryMock.ts">
<path fill="#ddfeff" stroke="black" d="M477.5,-306C477.5,-306 377.5,-306 377.5,-306 374.5,-306 371.5,-303 371.5,-300 371.5,-300 371.5,-294 371.5,-294 371.5,-291 374.5,-288 377.5,-288 377.5,-288 477.5,-288 477.5,-288 480.5,-288 483.5,-291 483.5,-294 483.5,-294 483.5,-300 483.5,-300 483.5,-303 480.5,-306 477.5,-306"/>
<text text-anchor="start" x="379.5" y="-294.8" font-family="Helvetica,sans-Serif" font-size="9.00">PackRepositoryMock.ts</text>
</a>
</g>
</g>
<!-- src/gathering/CollectionEditor/PackRepositoryMock.ts&#45;&gt;src/gathering/Pack.ts -->
<g id="edge6" class="edge">
<title>src/gathering/CollectionEditor/PackRepositoryMock.ts&#45;&gt;src/gathering/Pack.ts</title>
<path fill="none" stroke="#000000" stroke-opacity="0.200000" d="M483.82,-298C566.32,-299.48 718.98,-302.23 785.32,-303.42"/>
<polygon fill="none" stroke="#000000" stroke-opacity="0.200000" points="785.43,-305.52 791.47,-303.53 785.5,-301.32 785.43,-305.52"/>
</g>
<!-- src/gathering/IPackRepository.ts -->
<g id="node7" class="node">
<title>src/gathering/IPackRepository.ts</title>
<g id="a_node7"><a xlink:href="src/gathering/IPackRepository.ts" xlink:title="IPackRepository.ts">
<path fill="#ddfeff" stroke="black" d="M749.5,-342C749.5,-342 668.5,-342 668.5,-342 665.5,-342 662.5,-339 662.5,-336 662.5,-336 662.5,-330 662.5,-330 662.5,-327 665.5,-324 668.5,-324 668.5,-324 749.5,-324 749.5,-324 752.5,-324 755.5,-327 755.5,-330 755.5,-330 755.5,-336 755.5,-336 755.5,-339 752.5,-342 749.5,-342"/>
<text text-anchor="start" x="670.5" y="-330.8" font-family="Helvetica,sans-Serif" font-size="9.00">IPackRepository.ts</text>
</a>
</g>
</g>
<!-- src/gathering/CollectionEditor/PackRepositoryMock.ts&#45;&gt;src/gathering/IPackRepository.ts -->
<g id="edge5" class="edge">
<title>src/gathering/CollectionEditor/PackRepositoryMock.ts&#45;&gt;src/gathering/IPackRepository.ts</title>
<path fill="none" stroke="#000000" stroke-opacity="0.200000" d="M437.33,-306.3C452.25,-321.28 484.17,-350.15 518,-361 545.09,-369.69 620.36,-373.32 646,-361 651.13,-358.53 649.33,-354.26 654,-351 657.57,-348.51 661.5,-346.35 665.58,-344.47"/>
<polygon fill="none" stroke="#000000" stroke-opacity="0.200000" points="666.49,-346.36 671.19,-342.08 664.85,-342.5 666.49,-346.36"/>
</g>
<!-- src/gathering/IPackRepository.ts&#45;&gt;src/gathering/Pack.ts -->
<g id="edge24" class="edge">
<title>src/gathering/IPackRepository.ts&#45;&gt;src/gathering/Pack.ts</title>
<path fill="none" stroke="#000000" stroke-opacity="0.200000" d="M743.42,-323.98C756.79,-320.38 772.11,-316.24 785.35,-312.67"/>
<polygon fill="none" stroke="#000000" stroke-opacity="0.200000" points="786.02,-314.67 791.26,-311.08 784.92,-310.61 786.02,-314.67"/>
</g>
<!-- src/gathering/CollectionEntity/CollectionEntity.ts -->
<g id="node8" class="node">
<title>src/gathering/CollectionEntity/CollectionEntity.ts</title>
<g id="a_node8"><a xlink:href="src/gathering/CollectionEntity/CollectionEntity.ts" xlink:title="CollectionEntity.ts">
<path fill="#ddfeff" stroke="black" d="M620.5,-332C620.5,-332 543.5,-332 543.5,-332 540.5,-332 537.5,-329 537.5,-326 537.5,-326 537.5,-320 537.5,-320 537.5,-317 540.5,-314 543.5,-314 543.5,-314 620.5,-314 620.5,-314 623.5,-314 626.5,-317 626.5,-320 626.5,-320 626.5,-326 626.5,-326 626.5,-329 623.5,-332 620.5,-332"/>
<text text-anchor="start" x="545.5" y="-320.8" font-family="Helvetica,sans-Serif" font-size="9.00">CollectionEntity.ts</text>
</a>
</g>
</g>
<!-- src/gathering/CollectionEntity/CollectionEntity.ts&#45;&gt;src/gathering/Pack.ts -->
<g id="edge8" class="edge">
<title>src/gathering/CollectionEntity/CollectionEntity.ts&#45;&gt;src/gathering/Pack.ts</title>
<path fill="none" stroke="#000000" stroke-opacity="0.200000" d="M626.56,-319.47C672.54,-315.74 743.96,-309.96 785.17,-306.62"/>
<polygon fill="none" stroke="#000000" stroke-opacity="0.200000" points="785.46,-308.7 791.27,-306.12 785.12,-304.52 785.46,-308.7"/>
</g>
<!-- src/gathering/CollectionEntity/CollectionEntity.ts&#45;&gt;src/gathering/IPackRepository.ts -->
<g id="edge7" class="edge">
<title>src/gathering/CollectionEntity/CollectionEntity.ts&#45;&gt;src/gathering/IPackRepository.ts</title>
<path fill="none" stroke="#000000" stroke-opacity="0.200000" d="M626.72,-326.5C636.28,-327.26 646.49,-328.08 656.33,-328.87"/>
<polygon fill="none" stroke="#000000" stroke-opacity="0.200000" points="656.25,-330.97 662.4,-329.35 656.58,-326.78 656.25,-330.97"/>
</g>
<!-- src/gathering/CollectionLoader/CollectionLoader.ts -->
<g id="node9" class="node">
<title>src/gathering/CollectionLoader/CollectionLoader.ts</title>
<g id="a_node9"><a xlink:href="src/gathering/CollectionLoader/CollectionLoader.ts" xlink:title="CollectionLoader.ts">
<path fill="#ddfeff" stroke="black" d="M470,-213C470,-213 385,-213 385,-213 382,-213 379,-210 379,-207 379,-207 379,-201 379,-201 379,-198 382,-195 385,-195 385,-195 470,-195 470,-195 473,-195 476,-198 476,-201 476,-201 476,-207 476,-207 476,-210 473,-213 470,-213"/>
<text text-anchor="start" x="387" y="-201.8" font-family="Helvetica,sans-Serif" font-size="9.00">CollectionLoader.ts</text>
</a>
</g>
</g>
<!-- src/gathering/CollectionLoader/CollectionLoader.ts&#45;&gt;src/gathering/Collection.ts -->
<g id="edge9" class="edge">
<title>src/gathering/CollectionLoader/CollectionLoader.ts&#45;&gt;src/gathering/Collection.ts</title>
<path fill="none" stroke="#000000" stroke-opacity="0.200000" d="M464.83,-194.99C481,-191.42 500.34,-187.76 518,-186 574.61,-180.36 589.51,-179.26 646,-186 654.15,-186.97 662.78,-188.64 670.92,-190.52"/>
<polygon fill="none" stroke="#000000" stroke-opacity="0.200000" points="670.72,-192.63 677.04,-191.98 671.7,-188.54 670.72,-192.63"/>
</g>
<!-- src/gathering/CollectionLoader/CollectionLoader.ts&#45;&gt;src/gathering/ICollectionEditor.ts -->
<g id="edge10" class="edge">
<title>src/gathering/CollectionLoader/CollectionLoader.ts&#45;&gt;src/gathering/ICollectionEditor.ts</title>
<path fill="none" stroke="#000000" stroke-opacity="0.200000" d="M445.22,-213.12C462.88,-222.44 491.75,-236.83 518,-246 522.48,-247.57 527.19,-249.02 531.94,-250.36"/>
<polygon fill="none" stroke="#000000" stroke-opacity="0.200000" points="531.62,-252.45 537.96,-252 532.72,-248.4 531.62,-252.45"/>
</g>
<!-- src/gathering/CollectionLoader/CollectionLoader.ts&#45;&gt;src/gathering/ICollectionOutput.ts -->
<g id="edge12" class="edge">
<title>src/gathering/CollectionLoader/CollectionLoader.ts&#45;&gt;src/gathering/ICollectionOutput.ts</title>
<path fill="none" stroke="#000000" stroke-opacity="0.200000" d="M476.33,-212.47C492.52,-215.33 510.69,-218.55 527.3,-221.49"/>
<polygon fill="none" stroke="#000000" stroke-opacity="0.200000" points="527.06,-223.58 533.34,-222.56 527.79,-219.45 527.06,-223.58"/>
</g>
<!-- src/gathering/ICollectionLoader.ts -->
<g id="node10" class="node">
<title>src/gathering/ICollectionLoader.ts</title>
<g id="a_node10"><a xlink:href="src/gathering/ICollectionLoader.ts" xlink:title="ICollectionLoader.ts">
<path fill="#ddfeff" stroke="black" d="M625.5,-210C625.5,-210 538.5,-210 538.5,-210 535.5,-210 532.5,-207 532.5,-204 532.5,-204 532.5,-198 532.5,-198 532.5,-195 535.5,-192 538.5,-192 538.5,-192 625.5,-192 625.5,-192 628.5,-192 631.5,-195 631.5,-198 631.5,-198 631.5,-204 631.5,-204 631.5,-207 628.5,-210 625.5,-210"/>
<text text-anchor="start" x="540.5" y="-198.8" font-family="Helvetica,sans-Serif" font-size="9.00">ICollectionLoader.ts</text>
</a>
</g>
</g>
<!-- src/gathering/CollectionLoader/CollectionLoader.ts&#45;&gt;src/gathering/ICollectionLoader.ts -->
<g id="edge11" class="edge">
<title>src/gathering/CollectionLoader/CollectionLoader.ts&#45;&gt;src/gathering/ICollectionLoader.ts</title>
<path fill="none" stroke="#000000" stroke-opacity="0.200000" d="M476.33,-203.06C492.06,-202.75 509.68,-202.4 525.91,-202.08"/>
<polygon fill="none" stroke="#000000" stroke-opacity="0.200000" points="526.33,-204.18 532.29,-201.96 526.25,-199.98 526.33,-204.18"/>
</g>
<!-- src/gathering/ICollectionLoader.ts&#45;&gt;src/gathering/Collection.ts -->
<g id="edge21" class="edge">
<title>src/gathering/ICollectionLoader.ts&#45;&gt;src/gathering/Collection.ts</title>
<path fill="none" stroke="#000000" stroke-opacity="0.200000" d="M631.69,-201C643.94,-201 656.95,-201 668.68,-201"/>
<polygon fill="none" stroke="#000000" stroke-opacity="0.200000" points="668.69,-203.1 674.69,-201 668.69,-198.9 668.69,-203.1"/>
</g>
<!-- src/gathering/CollectionOrganizer/CollectionOrganizer.ts -->
<g id="node11" class="node">
<title>src/gathering/CollectionOrganizer/CollectionOrganizer.ts</title>
<g id="a_node11"><a xlink:href="src/gathering/CollectionOrganizer/CollectionOrganizer.ts" xlink:title="CollectionOrganizer.ts">
<path fill="#ddfeff" stroke="black" d="M629.5,-432C629.5,-432 534.5,-432 534.5,-432 531.5,-432 528.5,-429 528.5,-426 528.5,-426 528.5,-420 528.5,-420 528.5,-417 531.5,-414 534.5,-414 534.5,-414 629.5,-414 629.5,-414 632.5,-414 635.5,-417 635.5,-420 635.5,-420 635.5,-426 635.5,-426 635.5,-429 632.5,-432 629.5,-432"/>
<text text-anchor="start" x="536.5" y="-420.8" font-family="Helvetica,sans-Serif" font-size="9.00">CollectionOrganizer.ts</text>
</a>
</g>
</g>
<!-- src/gathering/IBinderOutput.ts -->
<g id="node12" class="node">
<title>src/gathering/IBinderOutput.ts</title>
<g id="a_node12"><a xlink:href="src/gathering/IBinderOutput.ts" xlink:title="IBinderOutput.ts">
<path fill="#ddfeff" stroke="black" d="M854,-401C854,-401 783,-401 783,-401 780,-401 777,-398 777,-395 777,-395 777,-389 777,-389 777,-386 780,-383 783,-383 783,-383 854,-383 854,-383 857,-383 860,-386 860,-389 860,-389 860,-395 860,-395 860,-398 857,-401 854,-401"/>
<text text-anchor="start" x="785" y="-389.8" font-family="Helvetica,sans-Serif" font-size="9.00">IBinderOutput.ts</text>
</a>
</g>
</g>
<!-- src/gathering/CollectionOrganizer/CollectionOrganizer.ts&#45;&gt;src/gathering/IBinderOutput.ts -->
<g id="edge13" class="edge">
<title>src/gathering/CollectionOrganizer/CollectionOrganizer.ts&#45;&gt;src/gathering/IBinderOutput.ts</title>
<path fill="none" stroke="#000000" stroke-opacity="0.200000" d="M635.8,-429.59C672.39,-432.5 721.92,-433.12 764,-422 777.03,-418.56 790.25,-411.19 800.29,-404.61"/>
<polygon fill="none" stroke="#000000" stroke-opacity="0.200000" points="801.73,-406.18 805.52,-401.07 799.38,-402.7 801.73,-406.18"/>
</g>
<!-- src/gathering/ICardRepository.ts -->
<g id="node13" class="node">
<title>src/gathering/ICardRepository.ts</title>
<g id="a_node13"><a xlink:href="src/gathering/ICardRepository.ts" xlink:title="ICardRepository.ts">
<path fill="#ddfeff" stroke="black" d="M749.5,-416C749.5,-416 668.5,-416 668.5,-416 665.5,-416 662.5,-413 662.5,-410 662.5,-410 662.5,-404 662.5,-404 662.5,-401 665.5,-398 668.5,-398 668.5,-398 749.5,-398 749.5,-398 752.5,-398 755.5,-401 755.5,-404 755.5,-404 755.5,-410 755.5,-410 755.5,-413 752.5,-416 749.5,-416"/>
<text text-anchor="start" x="670.5" y="-404.8" font-family="Helvetica,sans-Serif" font-size="9.00">ICardRepository.ts</text>
</a>
</g>
</g>
<!-- src/gathering/CollectionOrganizer/CollectionOrganizer.ts&#45;&gt;src/gathering/ICardRepository.ts -->
<g id="edge14" class="edge">
<title>src/gathering/CollectionOrganizer/CollectionOrganizer.ts&#45;&gt;src/gathering/ICardRepository.ts</title>
<path fill="none" stroke="#000000" stroke-opacity="0.200000" d="M635.65,-416.26C642.39,-415.4 649.29,-414.51 656.02,-413.65"/>
<polygon fill="none" stroke="#000000" stroke-opacity="0.200000" points="656.47,-415.71 662.15,-412.87 655.93,-411.55 656.47,-415.71"/>
</g>
<!-- src/gathering/ICollectionOrganizer.ts -->
<g id="node14" class="node">
<title>src/gathering/ICollectionOrganizer.ts</title>
<g id="a_node14"><a xlink:href="src/gathering/ICollectionOrganizer.ts" xlink:title="ICollectionOrganizer.ts">
<path fill="#ddfeff" stroke="black" d="M758,-386C758,-386 660,-386 660,-386 657,-386 654,-383 654,-380 654,-380 654,-374 654,-374 654,-371 657,-368 660,-368 660,-368 758,-368 758,-368 761,-368 764,-371 764,-374 764,-374 764,-380 764,-380 764,-383 761,-386 758,-386"/>
<text text-anchor="start" x="662" y="-374.8" font-family="Helvetica,sans-Serif" font-size="9.00">ICollectionOrganizer.ts</text>
</a>
</g>
</g>
<!-- src/gathering/CollectionOrganizer/CollectionOrganizer.ts&#45;&gt;src/gathering/ICollectionOrganizer.ts -->
<g id="edge15" class="edge">
<title>src/gathering/CollectionOrganizer/CollectionOrganizer.ts&#45;&gt;src/gathering/ICollectionOrganizer.ts</title>
<path fill="none" stroke="#000000" stroke-opacity="0.200000" d="M635.59,-414.38C639.3,-412.62 642.83,-410.51 646,-408 652.23,-403.06 647.86,-397.05 654,-392 655.22,-391 656.49,-390.06 657.82,-389.19"/>
<polygon fill="none" stroke="#000000" stroke-opacity="0.200000" points="659,-390.93 663.16,-386.13 656.91,-387.29 659,-390.93"/>
</g>
<!-- src/gathering/ICardRepository.ts&#45;&gt;src/gathering/Pack.ts -->
<g id="edge18" class="edge">
<title>src/gathering/ICardRepository.ts&#45;&gt;src/gathering/Pack.ts</title>
<path fill="none" stroke="#000000" stroke-opacity="0.200000" d="M753.83,-398C757.44,-396.33 760.9,-394.35 764,-392 777.09,-382.1 798.92,-341.14 810.22,-318.76"/>
<polygon fill="none" stroke="#000000" stroke-opacity="0.200000" points="812.18,-319.55 812.99,-313.24 808.42,-317.67 812.18,-319.55"/>
</g>
<!-- src/gathering/ICardRepository.ts&#45;&gt;src/gathering/IBinderOutput.ts -->
<g id="edge19" class="edge">
<title>src/gathering/ICardRepository.ts&#45;&gt;src/gathering/IBinderOutput.ts</title>
<path fill="none" stroke="#000000" stroke-opacity="0.200000" d="M755.59,-400.64C760.69,-399.93 765.89,-399.2 771,-398.49"/>
<polygon fill="none" stroke="#000000" stroke-opacity="0.200000" points="771.3,-400.57 776.95,-397.66 770.72,-396.41 771.3,-400.57"/>
</g>
<!-- src/gathering/ICollectionOrganizer.ts&#45;&gt;src/gathering/IBinderOutput.ts -->
<g id="edge22" class="edge">
<title>src/gathering/ICollectionOrganizer.ts&#45;&gt;src/gathering/IBinderOutput.ts</title>
<path fill="none" stroke="#000000" stroke-opacity="0.200000" d="M764.06,-384.54C766.21,-384.84 768.35,-385.14 770.48,-385.44"/>
<polygon fill="none" stroke="#000000" stroke-opacity="0.200000" points="770.58,-387.57 776.81,-386.32 771.16,-383.41 770.58,-387.57"/>
</g>
<!-- src/gathering/CollectionOrganizer/PackRepositoryMock.ts -->
<g id="node15" class="node">
<title>src/gathering/CollectionOrganizer/PackRepositoryMock.ts</title>
<g id="a_node15"><a xlink:href="src/gathering/CollectionOrganizer/PackRepositoryMock.ts" xlink:title="PackRepositoryMock.ts">
<path fill="#ddfeff" stroke="black" d="M632,-402C632,-402 532,-402 532,-402 529,-402 526,-399 526,-396 526,-396 526,-390 526,-390 526,-387 529,-384 532,-384 532,-384 632,-384 632,-384 635,-384 638,-387 638,-390 638,-390 638,-396 638,-396 638,-399 635,-402 632,-402"/>
<text text-anchor="start" x="534" y="-390.8" font-family="Helvetica,sans-Serif" font-size="9.00">PackRepositoryMock.ts</text>
</a>
</g>
</g>
<!-- src/gathering/CollectionOrganizer/PackRepositoryMock.ts&#45;&gt;src/gathering/Pack.ts -->
<g id="edge17" class="edge">
<title>src/gathering/CollectionOrganizer/PackRepositoryMock.ts&#45;&gt;src/gathering/Pack.ts</title>
<path fill="none" stroke="#000000" stroke-opacity="0.200000" d="M638.11,-385.1C640.91,-383.65 643.56,-381.96 646,-380 652.82,-374.51 646.98,-367.23 654,-362 693.54,-332.58 718.75,-367.53 764,-348 780.09,-341.06 795.19,-327.77 805.22,-317.6"/>
<polygon fill="none" stroke="#000000" stroke-opacity="0.200000" points="806.82,-318.97 809.46,-313.19 803.79,-316.06 806.82,-318.97"/>
</g>
<!-- src/gathering/CollectionOrganizer/PackRepositoryMock.ts&#45;&gt;src/gathering/IPackRepository.ts -->
<g id="edge16" class="edge">
<title>src/gathering/CollectionOrganizer/PackRepositoryMock.ts&#45;&gt;src/gathering/IPackRepository.ts</title>
<path fill="none" stroke="#000000" stroke-opacity="0.200000" d="M638.18,-385.68C641,-384.09 643.64,-382.21 646,-380 655.76,-370.86 644.8,-360.7 654,-351 656.06,-348.83 658.39,-346.92 660.89,-345.24"/>
<polygon fill="none" stroke="#000000" stroke-opacity="0.200000" points="662.13,-346.95 666.25,-342.11 660.01,-343.32 662.13,-346.95"/>
</g>
<!-- src/lib/userBrowsesItsCollection/userBrowsesItsCollection.ts -->
<g id="node16" class="node">
<title>src/lib/userBrowsesItsCollection/userBrowsesItsCollection.ts</title>
<g id="a_node16"><a xlink:href="src/lib/userBrowsesItsCollection/userBrowsesItsCollection.ts" xlink:title="userBrowsesItsCollection.ts">
<path fill="#ddfeff" stroke="black" d="M488,-50C488,-50 367,-50 367,-50 364,-50 361,-47 361,-44 361,-44 361,-38 361,-38 361,-35 364,-32 367,-32 367,-32 488,-32 488,-32 491,-32 494,-35 494,-38 494,-38 494,-44 494,-44 494,-47 491,-50 488,-50"/>
<text text-anchor="start" x="369" y="-38.8" font-family="Helvetica,sans-Serif" font-size="9.00">userBrowsesItsCollection.ts</text>
</a>
</g>
</g>
<!-- src/lib/userBrowsesItsCollection/userBrowsesItsCollection.ts&#45;&gt;src/gathering/IBinderOutput.ts -->
<g id="edge25" class="edge">
<title>src/lib/userBrowsesItsCollection/userBrowsesItsCollection.ts&#45;&gt;src/gathering/IBinderOutput.ts</title>
<path fill="none" stroke="#000000" stroke-opacity="0.200000" d="M494.35,-40.81C539.15,-43.06 598.66,-50.84 646,-74 710.95,-105.77 732.26,-121.03 764,-186 790.07,-239.36 759.34,-262.29 777,-319 783.77,-340.74 797.49,-363.3 807.08,-377.48"/>
<polygon fill="none" stroke="#000000" stroke-opacity="0.200000" points="805.51,-378.91 810.65,-382.66 808.97,-376.53 805.51,-378.91"/>
</g>
<!-- src/lib/userBrowsesItsCollection/userBrowsesItsCollection.ts&#45;&gt;src/gathering/ICollectionOrganizer.ts -->
<g id="edge26" class="edge">
<title>src/lib/userBrowsesItsCollection/userBrowsesItsCollection.ts&#45;&gt;src/gathering/ICollectionOrganizer.ts</title>
<path fill="none" stroke="#000000" stroke-opacity="0.200000" d="M457.63,-50.11C507.19,-67.4 606.4,-110.17 646,-186 662.69,-217.95 634.74,-317.53 654,-348 658.58,-355.24 665.61,-360.79 673.11,-365.01"/>
<polygon fill="none" stroke="#000000" stroke-opacity="0.200000" points="672.6,-367.11 678.9,-367.97 674.52,-363.37 672.6,-367.11"/>
</g>
<!-- src/lib/userEditsItsCollection/userEditsItsCollection.ts -->
<g id="node17" class="node">
<title>src/lib/userEditsItsCollection/userEditsItsCollection.ts</title>
<g id="a_node17"><a xlink:href="src/lib/userEditsItsCollection/userEditsItsCollection.ts" xlink:title="userEditsItsCollection.ts">
<path fill="#ddfeff" stroke="black" d="M480,-110C480,-110 375,-110 375,-110 372,-110 369,-107 369,-104 369,-104 369,-98 369,-98 369,-95 372,-92 375,-92 375,-92 480,-92 480,-92 483,-92 486,-95 486,-98 486,-98 486,-104 486,-104 486,-107 483,-110 480,-110"/>
<text text-anchor="start" x="377" y="-98.8" font-family="Helvetica,sans-Serif" font-size="9.00">userEditsItsCollection.ts</text>
</a>
</g>
</g>
<!-- src/lib/userEditsItsCollection/userEditsItsCollection.ts&#45;&gt;src/gathering/Collection.ts -->
<g id="edge27" class="edge">
<title>src/lib/userEditsItsCollection/userEditsItsCollection.ts&#45;&gt;src/gathering/Collection.ts</title>
<path fill="none" stroke="#000000" stroke-opacity="0.200000" d="M454.33,-110C495.11,-124.25 576.9,-152.95 646,-178 656.47,-181.79 667.9,-186.01 678.06,-189.79"/>
<polygon fill="none" stroke="#000000" stroke-opacity="0.200000" points="677.53,-191.83 683.89,-191.96 679,-187.9 677.53,-191.83"/>
</g>
<!-- src/lib/userEditsItsCollection/userEditsItsCollection.ts&#45;&gt;src/gathering/ICollectionEditor.ts -->
<g id="edge28" class="edge">
<title>src/lib/userEditsItsCollection/userEditsItsCollection.ts&#45;&gt;src/gathering/ICollectionEditor.ts</title>
<path fill="none" stroke="#000000" stroke-opacity="0.200000" d="M441.9,-110.19C460.65,-123.86 494.2,-151.49 510,-184 522.14,-208.99 499.42,-225.35 518,-246 521.17,-249.53 525.01,-252.3 529.21,-254.47"/>
<polygon fill="none" stroke="#000000" stroke-opacity="0.200000" points="528.36,-256.39 534.69,-256.9 530.06,-252.55 528.36,-256.39"/>
</g>
<!-- src/lib/userEditsItsCollection/userEditsItsCollection.ts&#45;&gt;src/gathering/ICollectionOutput.ts -->
<g id="edge29" class="edge">
<title>src/lib/userEditsItsCollection/userEditsItsCollection.ts&#45;&gt;src/gathering/ICollectionOutput.ts</title>
<path fill="none" stroke="#000000" stroke-opacity="0.200000" d="M441.09,-110.22C459.16,-124.14 492.23,-152.29 510,-184 517.16,-196.79 507.58,-205.69 518,-216 520.9,-218.87 524.24,-221.22 527.85,-223.16"/>
<polygon fill="none" stroke="#000000" stroke-opacity="0.200000" points="526.97,-225.06 533.29,-225.69 528.74,-221.26 526.97,-225.06"/>
</g>
<!-- src/routes/collection/+page.svelte.ts -->
<g id="node18" class="node">
<title>src/routes/collection/+page.svelte.ts</title>
<g id="a_node18"><a xlink:href="src/routes/collection/+page.svelte.ts" xlink:title="+page.svelte.ts">
<path fill="#ddfeff" stroke="black" d="M105,-50C105,-50 38,-50 38,-50 35,-50 32,-47 32,-44 32,-44 32,-38 32,-38 32,-35 35,-32 38,-32 38,-32 105,-32 105,-32 108,-32 111,-35 111,-38 111,-38 111,-44 111,-44 111,-47 108,-50 105,-50"/>
<text text-anchor="start" x="40" y="-38.8" font-family="Helvetica,sans-Serif" font-size="9.00">+page.svelte.ts</text>
</a>
</g>
</g>
<!-- src/routes/collection/+page.svelte.ts&#45;&gt;src/lib/userBrowsesItsCollection/userBrowsesItsCollection.ts -->
<g id="edge31" class="edge">
<title>src/routes/collection/+page.svelte.ts&#45;&gt;src/lib/userBrowsesItsCollection/userBrowsesItsCollection.ts</title>
<path fill="none" stroke="#000000" stroke-width="2" stroke-opacity="0.200000" d="M98.12,-50.01C106.29,-52.46 115.43,-54.78 124,-56 217.72,-69.37 242.66,-63.85 337,-56 349.55,-54.96 362.98,-53.1 375.53,-51.04"/>
<polygon fill="#000000" fill-opacity="0.200000" stroke="#000000" stroke-width="2" stroke-opacity="0.200000" points="376.04,-53.09 381.61,-50.02 375.35,-48.95 376.04,-53.09"/>
</g>
<!-- src/routes/collection/Binder.svelte.ts -->
<g id="node19" class="node">
<title>src/routes/collection/Binder.svelte.ts</title>
<g id="a_node19"><a xlink:href="src/routes/collection/Binder.svelte.ts" xlink:title="Binder.svelte.ts">
<path fill="#ddfeff" stroke="black" d="M198,-50C198,-50 130,-50 130,-50 127,-50 124,-47 124,-44 124,-44 124,-38 124,-38 124,-35 127,-32 130,-32 130,-32 198,-32 198,-32 201,-32 204,-35 204,-38 204,-38 204,-44 204,-44 204,-47 201,-50 198,-50"/>
<text text-anchor="start" x="132" y="-38.8" font-family="Helvetica,sans-Serif" font-size="9.00">Binder.svelte.ts</text>
</a>
</g>
</g>
<!-- src/routes/collection/+page.svelte.ts&#45;&gt;src/routes/collection/Binder.svelte.ts -->
<g id="edge30" class="edge">
<title>src/routes/collection/+page.svelte.ts&#45;&gt;src/routes/collection/Binder.svelte.ts</title>
<path fill="none" stroke="#000000" stroke-width="2" stroke-opacity="0.200000" d="M111.14,-41C113.26,-41 115.39,-41 117.52,-41"/>
<polygon fill="#000000" fill-opacity="0.200000" stroke="#000000" stroke-width="2" stroke-opacity="0.200000" points="117.91,-43.1 123.91,-41 117.91,-38.9 117.91,-43.1"/>
</g>
<!-- src/routes/collection/Binder.svelte.ts&#45;&gt;src/lib/userBrowsesItsCollection/userBrowsesItsCollection.ts -->
<g id="edge33" class="edge">
<title>src/routes/collection/Binder.svelte.ts&#45;&gt;src/lib/userBrowsesItsCollection/userBrowsesItsCollection.ts</title>
<path fill="none" stroke="#000000" stroke-opacity="0.200000" d="M190.88,-31.99C199.12,-29.54 208.35,-27.22 217,-26 269.81,-18.54 283.85,-21.58 337,-26 349.55,-27.04 362.98,-28.9 375.53,-30.96"/>
<polygon fill="none" stroke="#000000" stroke-opacity="0.200000" points="375.35,-33.05 381.61,-31.98 376.04,-28.91 375.35,-33.05"/>
</g>
<!-- src/routes/collection/PocketSheet.svelte.ts -->
<g id="node20" class="node">
<title>src/routes/collection/PocketSheet.svelte.ts</title>
<g id="a_node20"><a xlink:href="src/routes/collection/PocketSheet.svelte.ts" xlink:title="PocketSheet.svelte.ts">
<path fill="#ddfeff" stroke="black" d="M315,-50C315,-50 223,-50 223,-50 220,-50 217,-47 217,-44 217,-44 217,-38 217,-38 217,-35 220,-32 223,-32 223,-32 315,-32 315,-32 318,-32 321,-35 321,-38 321,-38 321,-44 321,-44 321,-47 318,-50 315,-50"/>
<text text-anchor="start" x="225" y="-38.8" font-family="Helvetica,sans-Serif" font-size="9.00">PocketSheet.svelte.ts</text>
</a>
</g>
</g>
<!-- src/routes/collection/Binder.svelte.ts&#45;&gt;src/routes/collection/PocketSheet.svelte.ts -->
<g id="edge32" class="edge">
<title>src/routes/collection/Binder.svelte.ts&#45;&gt;src/routes/collection/PocketSheet.svelte.ts</title>
<path fill="none" stroke="#000000" stroke-width="2" stroke-opacity="0.200000" d="M204.23,-41C206.28,-41 208.35,-41 210.44,-41"/>
<polygon fill="#000000" fill-opacity="0.200000" stroke="#000000" stroke-width="2" stroke-opacity="0.200000" points="210.73,-43.1 216.73,-41 210.73,-38.9 210.73,-43.1"/>
</g>
<!-- src/routes/collection/PocketSheet.svelte.ts&#45;&gt;src/lib/userBrowsesItsCollection/userBrowsesItsCollection.ts -->
<g id="edge34" class="edge">
<title>src/routes/collection/PocketSheet.svelte.ts&#45;&gt;src/lib/userBrowsesItsCollection/userBrowsesItsCollection.ts</title>
<path fill="none" stroke="#000000" stroke-opacity="0.200000" d="M321.24,-41C331.92,-41 343.37,-41 354.64,-41"/>
<polygon fill="none" stroke="#000000" stroke-opacity="0.200000" points="354.87,-43.1 360.87,-41 354.87,-38.9 354.87,-43.1"/>
</g>
</g>
</svg>
