<?xml version="1.0" encoding="UTF-8" standalone="no"?>
<!DOCTYPE svg PUBLIC "-//W3C//DTD SVG 1.1//EN"
 "http://www.w3.org/Graphics/SVG/1.1/DTD/svg11.dtd">
<!-- Generated by graphviz version 2.50.0 (20211204.2007)
 -->
<!-- Title: dependency&#45;cruiser output Pages: 1 -->
<svg width="592pt" height="576pt"
 viewBox="0.00 0.00 592.00 576.00" xmlns="http://www.w3.org/2000/svg" xmlns:xlink="http://www.w3.org/1999/xlink">
<g id="graph0" class="graph" transform="scale(1 1) rotate(0) translate(4 572)">
<title>dependency&#45;cruiser output</title>
<polygon fill="white" stroke="transparent" points="-4,4 -4,-572 588,-572 588,4 -4,4"/>
<g id="clust1" class="cluster">
<title>cluster_src</title>
<path fill="#ffffff" stroke="black" stroke-width="2" d="M20,-8C20,-8 564,-8 564,-8 570,-8 576,-14 576,-20 576,-20 576,-548 576,-548 576,-554 570,-560 564,-560 564,-560 20,-560 20,-560 14,-560 8,-554 8,-548 8,-548 8,-20 8,-20 8,-14 14,-8 20,-8"/>
<text text-anchor="middle" x="292" y="-548.8" font-family="Helvetica,sans-Serif" font-weight="bold" font-size="9.00">src</text>
</g>
<g id="clust2" class="cluster">
<title>cluster_src/gathering</title>
<path fill="#ffffff" stroke="black" stroke-width="2" d="M28,-380C28,-380 556,-380 556,-380 562,-380 568,-386 568,-392 568,-392 568,-522 568,-522 568,-528 562,-534 556,-534 556,-534 28,-534 28,-534 22,-534 16,-528 16,-522 16,-522 16,-392 16,-392 16,-386 22,-380 28,-380"/>
<text text-anchor="middle" x="292" y="-522.8" font-family="Helvetica,sans-Serif" font-weight="bold" font-size="9.00">gathering</text>
</g>
<g id="clust3" class="cluster">
<title>cluster_src/gathering/CollectionEditor</title>
<path fill="#ffffff" stroke="black" stroke-width="2" d="M36,-394C36,-394 280,-394 280,-394 286,-394 292,-400 292,-406 292,-406 292,-464 292,-464 292,-470 286,-476 280,-476 280,-476 36,-476 36,-476 30,-476 24,-470 24,-464 24,-464 24,-406 24,-406 24,-400 30,-394 36,-394"/>
<text text-anchor="middle" x="158" y="-464.8" font-family="Helvetica,sans-Serif" font-weight="bold" font-size="9.00">CollectionEditor</text>
</g>
<g id="clust4" class="cluster">
<title>cluster_src/lib</title>
<path fill="#ffffff" stroke="black" stroke-width="2" d="M170.5,-16C170.5,-16 486,-16 486,-16 492,-16 498,-22 498,-28 498,-28 498,-360 498,-360 498,-366 492,-372 486,-372 486,-372 170.5,-372 170.5,-372 164.5,-372 158.5,-366 158.5,-360 158.5,-360 158.5,-28 158.5,-28 158.5,-22 164.5,-16 170.5,-16"/>
<text text-anchor="middle" x="328.25" y="-360.8" font-family="Helvetica,sans-Serif" font-weight="bold" font-size="9.00">lib</text>
</g>
<g id="clust5" class="cluster">
<title>cluster_src/lib/BinderStorage</title>
<path fill="#ffffff" stroke="black" stroke-width="2" d="M201,-294C201,-294 255,-294 255,-294 261,-294 267,-300 267,-306 267,-306 267,-334 267,-334 267,-340 261,-346 255,-346 255,-346 201,-346 201,-346 195,-346 189,-340 189,-334 189,-334 189,-306 189,-306 189,-300 195,-294 201,-294"/>
<text text-anchor="middle" x="228" y="-334.8" font-family="Helvetica,sans-Serif" font-weight="bold" font-size="9.00">BinderStorage</text>
</g>
<g id="clust6" class="cluster">
<title>cluster_src/lib/Components</title>
<path fill="#ffffff" stroke="black" stroke-width="2" d="M192,-234C192,-234 400,-234 400,-234 406,-234 412,-240 412,-246 412,-246 412,-274 412,-274 412,-280 406,-286 400,-286 400,-286 192,-286 192,-286 186,-286 180,-280 180,-274 180,-274 180,-246 180,-246 180,-240 186,-234 192,-234"/>
<text text-anchor="middle" x="296" y="-274.8" font-family="Helvetica,sans-Serif" font-weight="bold" font-size="9.00">Components</text>
</g>
<g id="clust7" class="cluster">
<title>cluster_src/lib/ViewModels</title>
<path fill="#ffffff" stroke="black" stroke-width="2" d="M432,-245C432,-245 478,-245 478,-245 484,-245 490,-251 490,-257 490,-257 490,-285 490,-285 490,-291 484,-297 478,-297 478,-297 432,-297 432,-297 426,-297 420,-291 420,-285 420,-285 420,-257 420,-257 420,-251 426,-245 432,-245"/>
<text text-anchor="middle" x="455" y="-285.8" font-family="Helvetica,sans-Serif" font-weight="bold" font-size="9.00">ViewModels</text>
</g>
<g id="clust8" class="cluster">
<title>cluster_src/lib/server</title>
<path fill="#ffffff" stroke="black" stroke-width="2" d="M189.5,-84C189.5,-84 266.5,-84 266.5,-84 272.5,-84 278.5,-90 278.5,-96 278.5,-96 278.5,-214 278.5,-214 278.5,-220 272.5,-226 266.5,-226 266.5,-226 189.5,-226 189.5,-226 183.5,-226 177.5,-220 177.5,-214 177.5,-214 177.5,-96 177.5,-96 177.5,-90 183.5,-84 189.5,-84"/>
<text text-anchor="middle" x="228" y="-214.8" font-family="Helvetica,sans-Serif" font-weight="bold" font-size="9.00">server</text>
</g>
<g id="clust9" class="cluster">
<title>cluster_src/lib/server/collection</title>
<path fill="#ffffff" stroke="black" stroke-width="2" d="M204,-148C204,-148 252,-148 252,-148 258,-148 264,-154 264,-160 264,-160 264,-188 264,-188 264,-194 258,-200 252,-200 252,-200 204,-200 204,-200 198,-200 192,-194 192,-188 192,-188 192,-160 192,-160 192,-154 198,-148 204,-148"/>
<text text-anchor="middle" x="228" y="-188.8" font-family="Helvetica,sans-Serif" font-weight="bold" font-size="9.00">collection</text>
</g>
<g id="clust10" class="cluster">
<title>cluster_src/lib/userEditsCollection</title>
<path fill="#ffffff" stroke="black" stroke-width="2" d="M178.5,-24C178.5,-24 277.5,-24 277.5,-24 283.5,-24 289.5,-30 289.5,-36 289.5,-36 289.5,-64 289.5,-64 289.5,-70 283.5,-76 277.5,-76 277.5,-76 178.5,-76 178.5,-76 172.5,-76 166.5,-70 166.5,-64 166.5,-64 166.5,-36 166.5,-36 166.5,-30 172.5,-24 178.5,-24"/>
<text text-anchor="middle" x="228" y="-64.8" font-family="Helvetica,sans-Serif" font-weight="bold" font-size="9.00">userEditsCollection</text>
</g>
<g id="clust11" class="cluster">
<title>cluster_src/routes</title>
<path fill="#ffffff" stroke="black" stroke-width="2" d="M34.5,-68C34.5,-68 138.5,-68 138.5,-68 144.5,-68 150.5,-74 150.5,-80 150.5,-80 150.5,-206 150.5,-206 150.5,-212 144.5,-218 138.5,-218 138.5,-218 34.5,-218 34.5,-218 28.5,-218 22.5,-212 22.5,-206 22.5,-206 22.5,-80 22.5,-80 22.5,-74 28.5,-68 34.5,-68"/>
<text text-anchor="middle" x="86.5" y="-206.8" font-family="Helvetica,sans-Serif" font-weight="bold" font-size="9.00">routes</text>
</g>
<g id="clust12" class="cluster">
<title>cluster_src/routes/collection</title>
<path fill="#ffffff" stroke="black" stroke-width="2" d="M42.5,-76C42.5,-76 130.5,-76 130.5,-76 136.5,-76 142.5,-82 142.5,-88 142.5,-88 142.5,-180 142.5,-180 142.5,-186 136.5,-192 130.5,-192 130.5,-192 42.5,-192 42.5,-192 36.5,-192 30.5,-186 30.5,-180 30.5,-180 30.5,-88 30.5,-88 30.5,-82 36.5,-76 42.5,-76"/>
<text text-anchor="middle" x="86.5" y="-180.8" font-family="Helvetica,sans-Serif" font-weight="bold" font-size="9.00">collection</text>
</g>
<g id="clust13" class="cluster">
<title>cluster_src/routes/collection/couz</title>
<path fill="#ffffff" stroke="black" stroke-width="2" d="M50.5,-84C50.5,-84 122.5,-84 122.5,-84 128.5,-84 134.5,-90 134.5,-96 134.5,-96 134.5,-154 134.5,-154 134.5,-160 128.5,-166 122.5,-166 122.5,-166 50.5,-166 50.5,-166 44.5,-166 38.5,-160 38.5,-154 38.5,-154 38.5,-96 38.5,-96 38.5,-90 44.5,-84 50.5,-84"/>
<text text-anchor="middle" x="86.5" y="-154.8" font-family="Helvetica,sans-Serif" font-weight="bold" font-size="9.00">couz</text>
</g>
<!-- src/gathering/Collection.ts -->
<g id="node1" class="node">
<title>src/gathering/Collection.ts</title>
<g id="a_node1"><a xlink:href="src/gathering/Collection.ts" xlink:title="Collection.ts">
<path fill="#ddfeff" stroke="black" d="M483,-488C483,-488 427,-488 427,-488 424,-488 421,-485 421,-482 421,-482 421,-476 421,-476 421,-473 424,-470 427,-470 427,-470 483,-470 483,-470 486,-470 489,-473 489,-476 489,-476 489,-482 489,-482 489,-485 486,-488 483,-488"/>
<text text-anchor="start" x="429" y="-476.8" font-family="Helvetica,sans-Serif" font-size="9.00">Collection.ts</text>
</a>
</g>
</g>
<!-- src/gathering/Pack.ts -->
<g id="node2" class="node">
<title>src/gathering/Pack.ts</title>
<g id="a_node2"><a xlink:href="src/gathering/Pack.ts" xlink:title="Pack.ts">
<path fill="#ddfeff" stroke="black" d="M554,-442C554,-442 512,-442 512,-442 509,-442 506,-439 506,-436 506,-436 506,-430 506,-430 506,-427 509,-424 512,-424 512,-424 554,-424 554,-424 557,-424 560,-427 560,-430 560,-430 560,-436 560,-436 560,-439 557,-442 554,-442"/>
<text text-anchor="start" x="517.5" y="-430.8" font-family="Helvetica,sans-Serif" font-size="9.00">Pack.ts</text>
</a>
</g>
</g>
<!-- src/gathering/Collection.ts&#45;&gt;src/gathering/Pack.ts -->
<g id="edge1" class="edge">
<title>src/gathering/Collection.ts&#45;&gt;src/gathering/Pack.ts</title>
<path fill="none" stroke="#000000" stroke-opacity="0.200000" d="M472.48,-469.86C480.27,-465.47 489.68,-460.06 498,-455 502.94,-451.99 508.22,-448.65 513.1,-445.49"/>
<polygon fill="none" stroke="#000000" stroke-opacity="0.200000" points="514.33,-447.2 518.21,-442.17 512.04,-443.68 514.33,-447.2"/>
</g>
<!-- src/gathering/CollectionEditor/CollectionEditor.test.ts -->
<g id="node3" class="node">
<title>src/gathering/CollectionEditor/CollectionEditor.test.ts</title>
<g id="a_node3"><a xlink:href="src/gathering/CollectionEditor/CollectionEditor.test.ts" xlink:title="CollectionEditor.test.ts">
<path fill="#ddfeff" stroke="black" d="M135,-450C135,-450 38,-450 38,-450 35,-450 32,-447 32,-444 32,-444 32,-438 32,-438 32,-435 35,-432 38,-432 38,-432 135,-432 135,-432 138,-432 141,-435 141,-438 141,-438 141,-444 141,-444 141,-447 138,-450 135,-450"/>
<text text-anchor="start" x="40" y="-438.8" font-family="Helvetica,sans-Serif" font-size="9.00">CollectionEditor.test.ts</text>
</a>
</g>
</g>
<!-- src/gathering/CollectionEditor/CollectionEditor.test.ts&#45;&gt;src/gathering/Collection.ts -->
<g id="edge4" class="edge">
<title>src/gathering/CollectionEditor/CollectionEditor.test.ts&#45;&gt;src/gathering/Collection.ts</title>
<path fill="none" stroke="#000000" stroke-opacity="0.200000" d="M102.74,-450.14C116.76,-458.14 138.36,-469.48 158.5,-476 266.17,-510.85 301.86,-526 412,-500 419.69,-498.19 427.57,-494.74 434.4,-491.15"/>
<polygon fill="none" stroke="#000000" stroke-opacity="0.200000" points="435.62,-492.88 439.86,-488.14 433.59,-489.2 435.62,-492.88"/>
</g>
<!-- src/gathering/CollectionEditor/CollectionEditor.ts -->
<g id="node4" class="node">
<title>src/gathering/CollectionEditor/CollectionEditor.ts</title>
<g id="a_node4"><a xlink:href="src/gathering/CollectionEditor/CollectionEditor.ts" xlink:title="CollectionEditor.ts">
<path fill="#ddfeff" stroke="black" d="M268,-450C268,-450 188,-450 188,-450 185,-450 182,-447 182,-444 182,-444 182,-438 182,-438 182,-435 185,-432 188,-432 188,-432 268,-432 268,-432 271,-432 274,-435 274,-438 274,-438 274,-444 274,-444 274,-447 271,-450 268,-450"/>
<text text-anchor="start" x="190" y="-438.8" font-family="Helvetica,sans-Serif" font-size="9.00">CollectionEditor.ts</text>
</a>
</g>
</g>
<!-- src/gathering/CollectionEditor/CollectionEditor.test.ts&#45;&gt;src/gathering/CollectionEditor/CollectionEditor.ts -->
<g id="edge2" class="edge">
<title>src/gathering/CollectionEditor/CollectionEditor.test.ts&#45;&gt;src/gathering/CollectionEditor/CollectionEditor.ts</title>
<path fill="none" stroke="#000000" stroke-width="2" stroke-opacity="0.200000" d="M141.04,-441C152.45,-441 164.47,-441 175.79,-441"/>
<polygon fill="#000000" fill-opacity="0.200000" stroke="#000000" stroke-width="2" stroke-opacity="0.200000" points="176,-443.1 182,-441 176,-438.9 176,-443.1"/>
</g>
<!-- src/gathering/CollectionEditor/PackRepositoryMock.ts -->
<g id="node5" class="node">
<title>src/gathering/CollectionEditor/PackRepositoryMock.ts</title>
<g id="a_node5"><a xlink:href="src/gathering/CollectionEditor/PackRepositoryMock.ts" xlink:title="PackRepositoryMock.ts">
<path fill="#ddfeff" stroke="black" d="M278,-420C278,-420 178,-420 178,-420 175,-420 172,-417 172,-414 172,-414 172,-408 172,-408 172,-405 175,-402 178,-402 178,-402 278,-402 278,-402 281,-402 284,-405 284,-408 284,-408 284,-414 284,-414 284,-417 281,-420 278,-420"/>
<text text-anchor="start" x="180" y="-408.8" font-family="Helvetica,sans-Serif" font-size="9.00">PackRepositoryMock.ts</text>
</a>
</g>
</g>
<!-- src/gathering/CollectionEditor/CollectionEditor.test.ts&#45;&gt;src/gathering/CollectionEditor/PackRepositoryMock.ts -->
<g id="edge3" class="edge">
<title>src/gathering/CollectionEditor/CollectionEditor.test.ts&#45;&gt;src/gathering/CollectionEditor/PackRepositoryMock.ts</title>
<path fill="none" stroke="#000000" stroke-width="2" stroke-opacity="0.200000" d="M129.35,-432C144.8,-428.68 162.43,-424.89 178.42,-421.45"/>
<polygon fill="#000000" fill-opacity="0.200000" stroke="#000000" stroke-width="2" stroke-opacity="0.200000" points="179.27,-423.41 184.69,-420.1 178.39,-419.31 179.27,-423.41"/>
</g>
<!-- src/gathering/ICollectionEditor.ts -->
<g id="node6" class="node">
<title>src/gathering/ICollectionEditor.ts</title>
<g id="a_node6"><a xlink:href="src/gathering/ICollectionEditor.ts" xlink:title="ICollectionEditor.ts">
<path fill="#ddfeff" stroke="black" d="M393,-464C393,-464 311,-464 311,-464 308,-464 305,-461 305,-458 305,-458 305,-452 305,-452 305,-449 308,-446 311,-446 311,-446 393,-446 393,-446 396,-446 399,-449 399,-452 399,-452 399,-458 399,-458 399,-461 396,-464 393,-464"/>
<text text-anchor="start" x="313" y="-452.8" font-family="Helvetica,sans-Serif" font-size="9.00">ICollectionEditor.ts</text>
</a>
</g>
</g>
<!-- src/gathering/CollectionEditor/CollectionEditor.test.ts&#45;&gt;src/gathering/ICollectionEditor.ts -->
<g id="edge5" class="edge">
<title>src/gathering/CollectionEditor/CollectionEditor.test.ts&#45;&gt;src/gathering/ICollectionEditor.ts</title>
<path fill="none" stroke="#000000" stroke-opacity="0.200000" d="M123.02,-450.02C134.29,-452.47 146.85,-454.78 158.5,-456 217.51,-462.17 232.67,-456.5 292,-456 294.23,-455.98 296.51,-455.96 298.81,-455.93"/>
<polygon fill="none" stroke="#000000" stroke-opacity="0.200000" points="298.97,-458.03 304.94,-455.86 298.92,-453.83 298.97,-458.03"/>
</g>
<!-- src/gathering/ICollectionOutput.ts -->
<g id="node7" class="node">
<title>src/gathering/ICollectionOutput.ts</title>
<g id="a_node7"><a xlink:href="src/gathering/ICollectionOutput.ts" xlink:title="ICollectionOutput.ts">
<path fill="#ddfeff" stroke="black" d="M394.5,-494C394.5,-494 309.5,-494 309.5,-494 306.5,-494 303.5,-491 303.5,-488 303.5,-488 303.5,-482 303.5,-482 303.5,-479 306.5,-476 309.5,-476 309.5,-476 394.5,-476 394.5,-476 397.5,-476 400.5,-479 400.5,-482 400.5,-482 400.5,-488 400.5,-488 400.5,-491 397.5,-494 394.5,-494"/>
<text text-anchor="start" x="311.5" y="-482.8" font-family="Helvetica,sans-Serif" font-size="9.00">ICollectionOutput.ts</text>
</a>
</g>
</g>
<!-- src/gathering/CollectionEditor/CollectionEditor.test.ts&#45;&gt;src/gathering/ICollectionOutput.ts -->
<g id="edge6" class="edge">
<title>src/gathering/CollectionEditor/CollectionEditor.test.ts&#45;&gt;src/gathering/ICollectionOutput.ts</title>
<path fill="none" stroke="#000000" stroke-opacity="0.200000" d="M114.2,-450.06C127.4,-454.24 143.64,-458.94 158.5,-462 204.81,-471.54 258.26,-477.54 297.07,-481.01"/>
<polygon fill="none" stroke="#000000" stroke-opacity="0.200000" points="297.01,-483.11 303.17,-481.54 297.38,-478.93 297.01,-483.11"/>
</g>
<!-- src/gathering/CollectionEditor/CollectionEditor.ts&#45;&gt;src/gathering/Pack.ts -->
<g id="edge10" class="edge">
<title>src/gathering/CollectionEditor/CollectionEditor.ts&#45;&gt;src/gathering/Pack.ts</title>
<path fill="none" stroke="#000000" stroke-opacity="0.200000" d="M274.03,-439.81C335.94,-438.18 445.81,-435.28 499.98,-433.85"/>
<polygon fill="none" stroke="#000000" stroke-opacity="0.200000" points="500.05,-435.94 505.99,-433.69 499.94,-431.75 500.05,-435.94"/>
</g>
<!-- src/gathering/CollectionEditor/CollectionEditor.ts&#45;&gt;src/gathering/ICollectionEditor.ts -->
<g id="edge7" class="edge">
<title>src/gathering/CollectionEditor/CollectionEditor.ts&#45;&gt;src/gathering/ICollectionEditor.ts</title>
<path fill="none" stroke="#000000" stroke-opacity="0.200000" d="M274.08,-446.17C282.09,-447.09 290.49,-448.06 298.67,-449"/>
<polygon fill="none" stroke="#000000" stroke-opacity="0.200000" points="298.68,-451.11 304.88,-449.71 299.16,-446.94 298.68,-451.11"/>
</g>
<!-- src/gathering/CollectionEditor/CollectionEditor.ts&#45;&gt;src/gathering/ICollectionOutput.ts -->
<g id="edge8" class="edge">
<title>src/gathering/CollectionEditor/CollectionEditor.ts&#45;&gt;src/gathering/ICollectionOutput.ts</title>
<path fill="none" stroke="#000000" stroke-opacity="0.200000" d="M274.22,-445.11C280.61,-447.13 286.78,-449.98 292,-454 298.3,-458.85 293.9,-464.9 300,-470 301.21,-471.01 302.48,-471.95 303.81,-472.83"/>
<polygon fill="none" stroke="#000000" stroke-opacity="0.200000" points="302.9,-474.73 309.14,-475.92 305,-471.1 302.9,-474.73"/>
</g>
<!-- src/gathering/IPackRepository.ts -->
<g id="node8" class="node">
<title>src/gathering/IPackRepository.ts</title>
<g id="a_node8"><a xlink:href="src/gathering/IPackRepository.ts" xlink:title="IPackRepository.ts">
<path fill="#ddfeff" stroke="black" d="M392.5,-420C392.5,-420 311.5,-420 311.5,-420 308.5,-420 305.5,-417 305.5,-414 305.5,-414 305.5,-408 305.5,-408 305.5,-405 308.5,-402 311.5,-402 311.5,-402 392.5,-402 392.5,-402 395.5,-402 398.5,-405 398.5,-408 398.5,-408 398.5,-414 398.5,-414 398.5,-417 395.5,-420 392.5,-420"/>
<text text-anchor="start" x="313.5" y="-408.8" font-family="Helvetica,sans-Serif" font-size="9.00">IPackRepository.ts</text>
</a>
</g>
</g>
<!-- src/gathering/CollectionEditor/CollectionEditor.ts&#45;&gt;src/gathering/IPackRepository.ts -->
<g id="edge9" class="edge">
<title>src/gathering/CollectionEditor/CollectionEditor.ts&#45;&gt;src/gathering/IPackRepository.ts</title>
<path fill="none" stroke="#000000" stroke-opacity="0.200000" d="M267.34,-431.97C275.48,-430.02 284.03,-427.96 292,-426 297.77,-424.58 303.86,-423.06 309.84,-421.55"/>
<polygon fill="none" stroke="#000000" stroke-opacity="0.200000" points="310.47,-423.56 315.77,-420.05 309.44,-419.49 310.47,-423.56"/>
</g>
<!-- src/gathering/CollectionEditor/PackRepositoryMock.ts&#45;&gt;src/gathering/Pack.ts -->
<g id="edge12" class="edge">
<title>src/gathering/CollectionEditor/PackRepositoryMock.ts&#45;&gt;src/gathering/Pack.ts</title>
<path fill="none" stroke="#000000" stroke-opacity="0.200000" d="M264.52,-401.98C275.79,-399.53 288.35,-397.22 300,-396 388.01,-386.8 414.56,-387.52 498,-417 501.55,-418.26 505.23,-419.76 508.8,-421.33"/>
<polygon fill="none" stroke="#000000" stroke-opacity="0.200000" points="507.95,-423.26 514.28,-423.84 509.7,-419.44 507.95,-423.26"/>
</g>
<!-- src/gathering/CollectionEditor/PackRepositoryMock.ts&#45;&gt;src/gathering/IPackRepository.ts -->
<g id="edge11" class="edge">
<title>src/gathering/CollectionEditor/PackRepositoryMock.ts&#45;&gt;src/gathering/IPackRepository.ts</title>
<path fill="none" stroke="#000000" stroke-opacity="0.200000" d="M284.29,-411C289.25,-411 294.27,-411 299.2,-411"/>
<polygon fill="none" stroke="#000000" stroke-opacity="0.200000" points="299.4,-413.1 305.4,-411 299.4,-408.9 299.4,-413.1"/>
</g>
<!-- src/gathering/ICollectionEditor.ts&#45;&gt;src/gathering/Collection.ts -->
<g id="edge13" class="edge">
<title>src/gathering/ICollectionEditor.ts&#45;&gt;src/gathering/Collection.ts</title>
<path fill="none" stroke="#000000" stroke-opacity="0.200000" d="M390.9,-464C398.75,-465.87 407.03,-467.84 414.92,-469.71"/>
<polygon fill="none" stroke="#000000" stroke-opacity="0.200000" points="414.54,-471.78 420.87,-471.13 415.52,-467.7 414.54,-471.78"/>
</g>
<!-- src/gathering/ICollectionEditor.ts&#45;&gt;src/gathering/Pack.ts -->
<g id="edge14" class="edge">
<title>src/gathering/ICollectionEditor.ts&#45;&gt;src/gathering/Pack.ts</title>
<path fill="none" stroke="#000000" stroke-opacity="0.200000" d="M399.1,-449.33C430.59,-445.46 471.54,-440.43 499.61,-436.98"/>
<polygon fill="none" stroke="#000000" stroke-opacity="0.200000" points="500.05,-439.04 505.75,-436.23 499.54,-434.87 500.05,-439.04"/>
</g>
<!-- src/gathering/ICollectionOutput.ts&#45;&gt;src/gathering/Collection.ts -->
<g id="edge15" class="edge">
<title>src/gathering/ICollectionOutput.ts&#45;&gt;src/gathering/Collection.ts</title>
<path fill="none" stroke="#000000" stroke-opacity="0.200000" d="M400.54,-482.18C405.26,-481.9 410,-481.61 414.62,-481.34"/>
<polygon fill="none" stroke="#000000" stroke-opacity="0.200000" points="414.96,-483.42 420.82,-480.97 414.71,-479.23 414.96,-483.42"/>
</g>
<!-- src/gathering/IPackRepository.ts&#45;&gt;src/gathering/Pack.ts -->
<g id="edge16" class="edge">
<title>src/gathering/IPackRepository.ts&#45;&gt;src/gathering/Pack.ts</title>
<path fill="none" stroke="#000000" stroke-opacity="0.200000" d="M398.63,-416.61C430.22,-420.49 471.49,-425.56 499.7,-429.03"/>
<polygon fill="none" stroke="#000000" stroke-opacity="0.200000" points="499.66,-431.14 505.87,-429.79 500.17,-426.97 499.66,-431.14"/>
</g>
<!-- src/lib/BinderStorage/index.ts -->
<g id="node9" class="node">
<title>src/lib/BinderStorage/index.ts</title>
<g id="a_node9"><a xlink:href="src/lib/BinderStorage/index.ts" xlink:title="index.ts">
<path fill="#ddfeff" stroke="black" d="M249,-320C249,-320 207,-320 207,-320 204,-320 201,-317 201,-314 201,-314 201,-308 201,-308 201,-305 204,-302 207,-302 207,-302 249,-302 249,-302 252,-302 255,-305 255,-308 255,-308 255,-314 255,-314 255,-317 252,-320 249,-320"/>
<text text-anchor="start" x="212" y="-308.8" font-family="Helvetica,sans-Serif" font-size="9.00">index.ts</text>
</a>
</g>
</g>
<!-- src/lib/Components/Binder.svelte.ts -->
<g id="node10" class="node">
<title>src/lib/Components/Binder.svelte.ts</title>
<g id="a_node10"><a xlink:href="src/lib/Components/Binder.svelte.ts" xlink:title="Binder.svelte.ts">
<path fill="#ddfeff" stroke="black" d="M262,-260C262,-260 194,-260 194,-260 191,-260 188,-257 188,-254 188,-254 188,-248 188,-248 188,-245 191,-242 194,-242 194,-242 262,-242 262,-242 265,-242 268,-245 268,-248 268,-248 268,-254 268,-254 268,-257 265,-260 262,-260"/>
<text text-anchor="start" x="196" y="-248.8" font-family="Helvetica,sans-Serif" font-size="9.00">Binder.svelte.ts</text>
</a>
</g>
</g>
<!-- src/lib/Components/PocketSheet.svelte.ts -->
<g id="node11" class="node">
<title>src/lib/Components/PocketSheet.svelte.ts</title>
<g id="a_node11"><a xlink:href="src/lib/Components/PocketSheet.svelte.ts" xlink:title="PocketSheet.svelte.ts">
<path fill="#ddfeff" stroke="black" d="M398,-260C398,-260 306,-260 306,-260 303,-260 300,-257 300,-254 300,-254 300,-248 300,-248 300,-245 303,-242 306,-242 306,-242 398,-242 398,-242 401,-242 404,-245 404,-248 404,-248 404,-254 404,-254 404,-257 401,-260 398,-260"/>
<text text-anchor="start" x="308" y="-248.8" font-family="Helvetica,sans-Serif" font-size="9.00">PocketSheet.svelte.ts</text>
</a>
</g>
</g>
<!-- src/lib/Components/Binder.svelte.ts&#45;&gt;src/lib/Components/PocketSheet.svelte.ts -->
<g id="edge17" class="edge">
<title>src/lib/Components/Binder.svelte.ts&#45;&gt;src/lib/Components/PocketSheet.svelte.ts</title>
<path fill="none" stroke="#000000" stroke-width="2" stroke-opacity="0.200000" d="M268.27,-251C276.27,-251 284.83,-251 293.31,-251"/>
<polygon fill="#000000" fill-opacity="0.200000" stroke="#000000" stroke-width="2" stroke-opacity="0.200000" points="293.77,-253.1 299.77,-251 293.77,-248.9 293.77,-253.1"/>
</g>
<!-- src/lib/ViewModels/binder.ts -->
<g id="node12" class="node">
<title>src/lib/ViewModels/binder.ts</title>
<g id="a_node12"><a xlink:href="src/lib/ViewModels/binder.ts" xlink:title="binder.ts">
<path fill="#ddfeff" stroke="black" d="M476,-271C476,-271 434,-271 434,-271 431,-271 428,-268 428,-265 428,-265 428,-259 428,-259 428,-256 431,-253 434,-253 434,-253 476,-253 476,-253 479,-253 482,-256 482,-259 482,-259 482,-265 482,-265 482,-268 479,-271 476,-271"/>
<text text-anchor="start" x="436.5" y="-259.8" font-family="Helvetica,sans-Serif" font-size="9.00">binder.ts</text>
</a>
</g>
</g>
<!-- src/lib/Components/Binder.svelte.ts&#45;&gt;src/lib/ViewModels/binder.ts -->
<g id="edge18" class="edge">
<title>src/lib/Components/Binder.svelte.ts&#45;&gt;src/lib/ViewModels/binder.ts</title>
<path fill="none" stroke="#000000" stroke-opacity="0.200000" d="M264.52,-260.02C275.79,-262.47 288.35,-264.78 300,-266 349.51,-271.17 362.28,-268.36 412,-266 415.04,-265.86 418.2,-265.65 421.36,-265.41"/>
<polygon fill="none" stroke="#000000" stroke-opacity="0.200000" points="422.01,-267.47 427.81,-264.88 421.66,-263.28 422.01,-267.47"/>
</g>
<!-- src/lib/Components/PocketSheet.svelte.ts&#45;&gt;src/lib/ViewModels/binder.ts -->
<g id="edge19" class="edge">
<title>src/lib/Components/PocketSheet.svelte.ts&#45;&gt;src/lib/ViewModels/binder.ts</title>
<path fill="none" stroke="#000000" stroke-opacity="0.200000" d="M404.09,-256.56C410.13,-257.22 416.15,-257.88 421.82,-258.5"/>
<polygon fill="none" stroke="#000000" stroke-opacity="0.200000" points="421.63,-260.59 427.82,-259.15 422.08,-256.41 421.63,-260.59"/>
</g>
<!-- src/lib/server/ahdb.cards.json -->
<g id="node13" class="node">
<title>src/lib/server/ahdb.cards.json</title>
<g id="a_node13"><a xlink:href="src/lib/server/ahdb.cards.json" xlink:title="ahdb.cards.json">
<path fill="#ffee44" stroke="black" d="M263.5,-110C263.5,-110 192.5,-110 192.5,-110 189.5,-110 186.5,-107 186.5,-104 186.5,-104 186.5,-98 186.5,-98 186.5,-95 189.5,-92 192.5,-92 192.5,-92 263.5,-92 263.5,-92 266.5,-92 269.5,-95 269.5,-98 269.5,-98 269.5,-104 269.5,-104 269.5,-107 266.5,-110 263.5,-110"/>
<text text-anchor="start" x="194.5" y="-98.8" font-family="Helvetica,sans-Serif" font-size="9.00">ahdb.cards.json</text>
</a>
</g>
</g>
<!-- src/lib/server/ahdb.packs.json -->
<g id="node14" class="node">
<title>src/lib/server/ahdb.packs.json</title>
<g id="a_node14"><a xlink:href="src/lib/server/ahdb.packs.json" xlink:title="ahdb.packs.json">
<path fill="#ffee44" stroke="black" d="M264.5,-140C264.5,-140 191.5,-140 191.5,-140 188.5,-140 185.5,-137 185.5,-134 185.5,-134 185.5,-128 185.5,-128 185.5,-125 188.5,-122 191.5,-122 191.5,-122 264.5,-122 264.5,-122 267.5,-122 270.5,-125 270.5,-128 270.5,-128 270.5,-134 270.5,-134 270.5,-137 267.5,-140 264.5,-140"/>
<text text-anchor="start" x="193.5" y="-128.8" font-family="Helvetica,sans-Serif" font-size="9.00">ahdb.packs.json</text>
</a>
</g>
</g>
<!-- src/lib/server/collection/couz.json -->
<g id="node15" class="node">
<title>src/lib/server/collection/couz.json</title>
<g id="a_node15"><a xlink:href="src/lib/server/collection/couz.json" xlink:title="couz.json">
<path fill="#ffee44" stroke="black" d="M250,-174C250,-174 206,-174 206,-174 203,-174 200,-171 200,-168 200,-168 200,-162 200,-162 200,-159 203,-156 206,-156 206,-156 250,-156 250,-156 253,-156 256,-159 256,-162 256,-162 256,-168 256,-168 256,-171 253,-174 250,-174"/>
<text text-anchor="start" x="208" y="-162.8" font-family="Helvetica,sans-Serif" font-size="9.00">couz.json</text>
</a>
</g>
</g>
<!-- src/lib/userEditsCollection/userEditsCollection.ts -->
<g id="node16" class="node">
<title>src/lib/userEditsCollection/userEditsCollection.ts</title>
<g id="a_node16"><a xlink:href="src/lib/userEditsCollection/userEditsCollection.ts" xlink:title="userEditsCollection.ts">
<path fill="#ddfeff" stroke="black" d="M275.5,-50C275.5,-50 180.5,-50 180.5,-50 177.5,-50 174.5,-47 174.5,-44 174.5,-44 174.5,-38 174.5,-38 174.5,-35 177.5,-32 180.5,-32 180.5,-32 275.5,-32 275.5,-32 278.5,-32 281.5,-35 281.5,-38 281.5,-38 281.5,-44 281.5,-44 281.5,-47 278.5,-50 275.5,-50"/>
<text text-anchor="start" x="182.5" y="-38.8" font-family="Helvetica,sans-Serif" font-size="9.00">userEditsCollection.ts</text>
</a>
</g>
</g>
<!-- src/routes/collection/couz/+page.server.ts -->
<g id="node17" class="node">
<title>src/routes/collection/couz/+page.server.ts</title>
<g id="a_node17"><a xlink:href="src/routes/collection/couz/+page.server.ts" xlink:title="+page.server.ts">
<path fill="#ddfeff" stroke="black" d="M120.5,-140C120.5,-140 52.5,-140 52.5,-140 49.5,-140 46.5,-137 46.5,-134 46.5,-134 46.5,-128 46.5,-128 46.5,-125 49.5,-122 52.5,-122 52.5,-122 120.5,-122 120.5,-122 123.5,-122 126.5,-125 126.5,-128 126.5,-128 126.5,-134 126.5,-134 126.5,-137 123.5,-140 120.5,-140"/>
<text text-anchor="start" x="54.5" y="-128.8" font-family="Helvetica,sans-Serif" font-size="9.00">+page.server.ts</text>
</a>
</g>
</g>
<!-- src/routes/collection/couz/+page.server.ts&#45;&gt;src/lib/BinderStorage/index.ts -->
<g id="edge20" class="edge">
<title>src/routes/collection/couz/+page.server.ts&#45;&gt;src/lib/BinderStorage/index.ts</title>
<path fill="none" stroke="#000000" stroke-opacity="0.200000" d="M88.93,-140.01C93.64,-166.79 111.2,-246.7 158.5,-289 168.5,-297.94 182.17,-303.26 194.67,-306.41"/>
<polygon fill="none" stroke="#000000" stroke-opacity="0.200000" points="194.37,-308.49 200.69,-307.79 195.31,-304.4 194.37,-308.49"/>
</g>
<!-- src/routes/collection/couz/+page.server.ts&#45;&gt;src/lib/server/ahdb.cards.json -->
<g id="edge21" class="edge">
<title>src/routes/collection/couz/+page.server.ts&#45;&gt;src/lib/server/ahdb.cards.json</title>
<path fill="none" stroke="#000000" stroke-width="2" stroke-opacity="0.200000" d="M126.73,-122.56C143.24,-119.01 162.59,-114.85 179.86,-111.14"/>
<polygon fill="#000000" fill-opacity="0.200000" stroke="#000000" stroke-width="2" stroke-opacity="0.200000" points="180.7,-113.11 186.12,-109.79 179.81,-109 180.7,-113.11"/>
</g>
<!-- src/routes/collection/couz/+page.server.ts&#45;&gt;src/lib/server/ahdb.packs.json -->
<g id="edge22" class="edge">
<title>src/routes/collection/couz/+page.server.ts&#45;&gt;src/lib/server/ahdb.packs.json</title>
<path fill="none" stroke="#000000" stroke-width="2" stroke-opacity="0.200000" d="M126.73,-131C142.95,-131 161.91,-131 178.96,-131"/>
<polygon fill="#000000" fill-opacity="0.200000" stroke="#000000" stroke-width="2" stroke-opacity="0.200000" points="179.14,-133.1 185.14,-131 179.14,-128.9 179.14,-133.1"/>
</g>
<!-- src/routes/collection/couz/+page.server.ts&#45;&gt;src/lib/server/collection/couz.json -->
<g id="edge23" class="edge">
<title>src/routes/collection/couz/+page.server.ts&#45;&gt;src/lib/server/collection/couz.json</title>
<path fill="none" stroke="#000000" stroke-width="2" stroke-opacity="0.200000" d="M115.65,-140.03C128.62,-144.01 144.26,-148.55 158.5,-152 169.92,-154.76 182.52,-157.3 193.77,-159.38"/>
<polygon fill="#000000" fill-opacity="0.200000" stroke="#000000" stroke-width="2" stroke-opacity="0.200000" points="193.58,-161.49 199.86,-160.49 194.34,-157.35 193.58,-161.49"/>
</g>
<!-- src/routes/collection/couz/+page.svelte.ts -->
<g id="node18" class="node">
<title>src/routes/collection/couz/+page.svelte.ts</title>
<g id="a_node18"><a xlink:href="src/routes/collection/couz/+page.svelte.ts" xlink:title="+page.svelte.ts">
<path fill="#ddfeff" stroke="black" d="M120,-110C120,-110 53,-110 53,-110 50,-110 47,-107 47,-104 47,-104 47,-98 47,-98 47,-95 50,-92 53,-92 53,-92 120,-92 120,-92 123,-92 126,-95 126,-98 126,-98 126,-104 126,-104 126,-107 123,-110 120,-110"/>
<text text-anchor="start" x="55" y="-98.8" font-family="Helvetica,sans-Serif" font-size="9.00">+page.svelte.ts</text>
</a>
</g>
</g>
<!-- src/routes/collection/couz/+page.svelte.ts&#45;&gt;src/lib/userEditsCollection/userEditsCollection.ts -->
<g id="edge24" class="edge">
<title>src/routes/collection/couz/+page.svelte.ts&#45;&gt;src/lib/userEditsCollection/userEditsCollection.ts</title>
<path fill="none" stroke="#000000" stroke-width="2" stroke-opacity="0.200000" d="M108.69,-91.89C133.2,-81.34 173.62,-63.96 200.27,-52.5"/>
<polygon fill="#000000" fill-opacity="0.200000" stroke="#000000" stroke-width="2" stroke-opacity="0.200000" points="201.39,-54.3 206.07,-50 199.73,-50.44 201.39,-54.3"/>
</g>
</g>
</svg>
