<?xml version="1.0" encoding="UTF-8" standalone="no"?>
<!DOCTYPE svg PUBLIC "-//W3C//DTD SVG 1.1//EN"
 "http://www.w3.org/Graphics/SVG/1.1/DTD/svg11.dtd">
<!-- Generated by graphviz version 2.50.0 (20211204.2007)
 -->
<!-- Title: dependency&#45;cruiser output Pages: 1 -->
<svg width="875pt" height="804pt"
 viewBox="0.00 0.00 875.00 804.00" xmlns="http://www.w3.org/2000/svg" xmlns:xlink="http://www.w3.org/1999/xlink">
<g id="graph0" class="graph" transform="scale(1 1) rotate(0) translate(4 800)">
<title>dependency&#45;cruiser output</title>
<polygon fill="white" stroke="transparent" points="-4,4 -4,-800 871,-800 871,4 -4,4"/>
<g id="clust1" class="cluster">
<title>cluster_src</title>
<path fill="#ffffff" stroke="black" stroke-width="2" d="M20,-8C20,-8 847,-8 847,-8 853,-8 859,-14 859,-20 859,-20 859,-776 859,-776 859,-782 853,-788 847,-788 847,-788 20,-788 20,-788 14,-788 8,-782 8,-776 8,-776 8,-20 8,-20 8,-14 14,-8 20,-8"/>
<text text-anchor="middle" x="433.5" y="-776.8" font-family="Helvetica,sans-Serif" font-weight="bold" font-size="9.00">src</text>
</g>
<g id="clust5" class="cluster">
<title>cluster_src/lib</title>
<path fill="#ffffff" stroke="black" stroke-width="2" d="M140,-174C140,-174 514,-174 514,-174 520,-174 526,-180 526,-186 526,-186 526,-518 526,-518 526,-524 520,-530 514,-530 514,-530 140,-530 140,-530 134,-530 128,-524 128,-518 128,-518 128,-186 128,-186 128,-180 134,-174 140,-174"/>
<text text-anchor="middle" x="327" y="-518.8" font-family="Helvetica,sans-Serif" font-weight="bold" font-size="9.00">lib</text>
</g>
<g id="clust7" class="cluster">
<title>cluster_src/lib/Components</title>
<path fill="#ffffff" stroke="black" stroke-width="2" d="M161.5,-392C161.5,-392 407,-392 407,-392 413,-392 419,-398 419,-404 419,-404 419,-432 419,-432 419,-438 413,-444 407,-444 407,-444 161.5,-444 161.5,-444 155.5,-444 149.5,-438 149.5,-432 149.5,-432 149.5,-404 149.5,-404 149.5,-398 155.5,-392 161.5,-392"/>
<text text-anchor="middle" x="284.25" y="-432.8" font-family="Helvetica,sans-Serif" font-weight="bold" font-size="9.00">Components</text>
</g>
<g id="clust6" class="cluster">
<title>cluster_src/lib/BinderStorage</title>
<path fill="#ffffff" stroke="black" stroke-width="2" d="M170.5,-182C170.5,-182 224.5,-182 224.5,-182 230.5,-182 236.5,-188 236.5,-194 236.5,-194 236.5,-222 236.5,-222 236.5,-228 230.5,-234 224.5,-234 224.5,-234 170.5,-234 170.5,-234 164.5,-234 158.5,-228 158.5,-222 158.5,-222 158.5,-194 158.5,-194 158.5,-188 164.5,-182 170.5,-182"/>
<text text-anchor="middle" x="197.5" y="-222.8" font-family="Helvetica,sans-Serif" font-weight="bold" font-size="9.00">BinderStorage</text>
</g>
<g id="clust11" class="cluster">
<title>cluster_src/lib/userEditsCollection</title>
<path fill="#ffffff" stroke="black" stroke-width="2" d="M148,-452C148,-452 247,-452 247,-452 253,-452 259,-458 259,-464 259,-464 259,-492 259,-492 259,-498 253,-504 247,-504 247,-504 148,-504 148,-504 142,-504 136,-498 136,-492 136,-492 136,-464 136,-464 136,-458 142,-452 148,-452"/>
<text text-anchor="middle" x="197.5" y="-492.8" font-family="Helvetica,sans-Serif" font-weight="bold" font-size="9.00">userEditsCollection</text>
</g>
<g id="clust8" class="cluster">
<title>cluster_src/lib/ViewModels</title>
<path fill="#ffffff" stroke="black" stroke-width="2" d="M460,-400C460,-400 506,-400 506,-400 512,-400 518,-406 518,-412 518,-412 518,-440 518,-440 518,-446 512,-452 506,-452 506,-452 460,-452 460,-452 454,-452 448,-446 448,-440 448,-440 448,-412 448,-412 448,-406 454,-400 460,-400"/>
<text text-anchor="middle" x="483" y="-440.8" font-family="Helvetica,sans-Serif" font-weight="bold" font-size="9.00">ViewModels</text>
</g>
<g id="clust9" class="cluster">
<title>cluster_src/lib/server</title>
<path fill="#ffffff" stroke="black" stroke-width="2" d="M159,-242C159,-242 236,-242 236,-242 242,-242 248,-248 248,-254 248,-254 248,-372 248,-372 248,-378 242,-384 236,-384 236,-384 159,-384 159,-384 153,-384 147,-378 147,-372 147,-372 147,-254 147,-254 147,-248 153,-242 159,-242"/>
<text text-anchor="middle" x="197.5" y="-372.8" font-family="Helvetica,sans-Serif" font-weight="bold" font-size="9.00">server</text>
</g>
<g id="clust10" class="cluster">
<title>cluster_src/lib/server/collection</title>
<path fill="#ffffff" stroke="black" stroke-width="2" d="M173.5,-306C173.5,-306 221.5,-306 221.5,-306 227.5,-306 233.5,-312 233.5,-318 233.5,-318 233.5,-346 233.5,-346 233.5,-352 227.5,-358 221.5,-358 221.5,-358 173.5,-358 173.5,-358 167.5,-358 161.5,-352 161.5,-346 161.5,-346 161.5,-318 161.5,-318 161.5,-312 167.5,-306 173.5,-306"/>
<text text-anchor="middle" x="197.5" y="-346.8" font-family="Helvetica,sans-Serif" font-weight="bold" font-size="9.00">collection</text>
</g>
<g id="clust2" class="cluster">
<title>cluster_src/gathering</title>
<path fill="#ffffff" stroke="black" stroke-width="2" d="M300.5,-538C300.5,-538 839,-538 839,-538 845,-538 851,-544 851,-550 851,-550 851,-750 851,-750 851,-756 845,-762 839,-762 839,-762 300.5,-762 300.5,-762 294.5,-762 288.5,-756 288.5,-750 288.5,-750 288.5,-550 288.5,-550 288.5,-544 294.5,-538 300.5,-538"/>
<text text-anchor="middle" x="569.75" y="-750.8" font-family="Helvetica,sans-Serif" font-weight="bold" font-size="9.00">gathering</text>
</g>
<g id="clust4" class="cluster">
<title>cluster_src/gathering/PackRepository</title>
<path fill="#ffffff" stroke="black" stroke-width="2" d="M582.5,-586C582.5,-586 642.5,-586 642.5,-586 648.5,-586 654.5,-592 654.5,-598 654.5,-598 654.5,-626 654.5,-626 654.5,-632 648.5,-638 642.5,-638 642.5,-638 582.5,-638 582.5,-638 576.5,-638 570.5,-632 570.5,-626 570.5,-626 570.5,-598 570.5,-598 570.5,-592 576.5,-586 582.5,-586"/>
<text text-anchor="middle" x="612.5" y="-626.8" font-family="Helvetica,sans-Serif" font-weight="bold" font-size="9.00">PackRepository</text>
</g>
<g id="clust3" class="cluster">
<title>cluster_src/gathering/CollectionEditor</title>
<path fill="#ffffff" stroke="black" stroke-width="2" d="M308.5,-597C308.5,-597 535,-597 535,-597 541,-597 547,-603 547,-609 547,-609 547,-667 547,-667 547,-673 541,-679 535,-679 535,-679 308.5,-679 308.5,-679 302.5,-679 296.5,-673 296.5,-667 296.5,-667 296.5,-609 296.5,-609 296.5,-603 302.5,-597 308.5,-597"/>
<text text-anchor="middle" x="421.75" y="-667.8" font-family="Helvetica,sans-Serif" font-weight="bold" font-size="9.00">CollectionEditor</text>
</g>
<g id="clust12" class="cluster">
<title>cluster_src/routes</title>
<path fill="#ffffff" stroke="black" stroke-width="2" d="M28,-16C28,-16 268.5,-16 268.5,-16 274.5,-16 280.5,-22 280.5,-28 280.5,-28 280.5,-154 280.5,-154 280.5,-160 274.5,-166 268.5,-166 268.5,-166 28,-166 28,-166 22,-166 16,-160 16,-154 16,-154 16,-28 16,-28 16,-22 22,-16 28,-16"/>
<text text-anchor="middle" x="148.25" y="-154.8" font-family="Helvetica,sans-Serif" font-weight="bold" font-size="9.00">routes</text>
</g>
<g id="clust13" class="cluster">
<title>cluster_src/routes/collection</title>
<path fill="#ffffff" stroke="black" stroke-width="2" d="M36,-24C36,-24 260.5,-24 260.5,-24 266.5,-24 272.5,-30 272.5,-36 272.5,-36 272.5,-128 272.5,-128 272.5,-134 266.5,-140 260.5,-140 260.5,-140 36,-140 36,-140 30,-140 24,-134 24,-128 24,-128 24,-36 24,-36 24,-30 30,-24 36,-24"/>
<text text-anchor="middle" x="148.25" y="-128.8" font-family="Helvetica,sans-Serif" font-weight="bold" font-size="9.00">collection</text>
</g>
<g id="clust14" class="cluster">
<title>cluster_src/routes/collection/couz</title>
<path fill="#ffffff" stroke="black" stroke-width="2" d="M44,-32C44,-32 252.5,-32 252.5,-32 258.5,-32 264.5,-38 264.5,-44 264.5,-44 264.5,-102 264.5,-102 264.5,-108 258.5,-114 252.5,-114 252.5,-114 44,-114 44,-114 38,-114 32,-108 32,-102 32,-102 32,-44 32,-44 32,-38 38,-32 44,-32"/>
<text text-anchor="middle" x="148.25" y="-102.8" font-family="Helvetica,sans-Serif" font-weight="bold" font-size="9.00">couz</text>
</g>
<!-- src/gathering/Collection.ts -->
<g id="node1" class="node">
<title>src/gathering/Collection.ts</title>
<g id="a_node1"><a xlink:href="src/gathering/Collection.ts" xlink:title="Collection.ts">
<path fill="#ddfeff" stroke="black" d="M757.5,-575C757.5,-575 701.5,-575 701.5,-575 698.5,-575 695.5,-572 695.5,-569 695.5,-569 695.5,-563 695.5,-563 695.5,-560 698.5,-557 701.5,-557 701.5,-557 757.5,-557 757.5,-557 760.5,-557 763.5,-560 763.5,-563 763.5,-563 763.5,-569 763.5,-569 763.5,-572 760.5,-575 757.5,-575"/>
<text text-anchor="start" x="703.5" y="-563.8" font-family="Helvetica,sans-Serif" font-size="9.00">Collection.ts</text>
</a>
</g>
</g>
<!-- src/gathering/Pack.ts -->
<g id="node2" class="node">
<title>src/gathering/Pack.ts</title>
<g id="a_node2"><a xlink:href="src/gathering/Pack.ts" xlink:title="Pack.ts">
<path fill="#ddfeff" stroke="black" d="M837,-668C837,-668 795,-668 795,-668 792,-668 789,-665 789,-662 789,-662 789,-656 789,-656 789,-653 792,-650 795,-650 795,-650 837,-650 837,-650 840,-650 843,-653 843,-656 843,-656 843,-662 843,-662 843,-665 840,-668 837,-668"/>
<text text-anchor="start" x="800.5" y="-656.8" font-family="Helvetica,sans-Serif" font-size="9.00">Pack.ts</text>
</a>
</g>
</g>
<!-- src/gathering/Collection.ts&#45;&gt;src/gathering/Pack.ts -->
<g id="edge1" class="edge">
<title>src/gathering/Collection.ts&#45;&gt;src/gathering/Pack.ts</title>
<path fill="none" stroke="#000000" stroke-opacity="0.200000" d="M743.68,-575.17C753.24,-582.18 766.16,-592.4 776,-603 787.91,-615.84 799.07,-632.52 806.37,-644.33"/>
<polygon fill="none" stroke="#000000" stroke-opacity="0.200000" points="804.73,-645.66 809.64,-649.69 808.31,-643.47 804.73,-645.66"/>
</g>
<!-- src/gathering/CollectionEditor/CollectionEditor.test.ts -->
<g id="node3" class="node">
<title>src/gathering/CollectionEditor/CollectionEditor.test.ts</title>
<g id="a_node3"><a xlink:href="src/gathering/CollectionEditor/CollectionEditor.test.ts" xlink:title="CollectionEditor.test.ts">
<path fill="#ddfeff" stroke="black" d="M407.5,-638C407.5,-638 310.5,-638 310.5,-638 307.5,-638 304.5,-635 304.5,-632 304.5,-632 304.5,-626 304.5,-626 304.5,-623 307.5,-620 310.5,-620 310.5,-620 407.5,-620 407.5,-620 410.5,-620 413.5,-623 413.5,-626 413.5,-626 413.5,-632 413.5,-632 413.5,-635 410.5,-638 407.5,-638"/>
<text text-anchor="start" x="312.5" y="-626.8" font-family="Helvetica,sans-Serif" font-size="9.00">CollectionEditor.test.ts</text>
</a>
</g>
</g>
<!-- src/gathering/CollectionEditor/CollectionEditor.test.ts&#45;&gt;src/gathering/Collection.ts -->
<g id="edge4" class="edge">
<title>src/gathering/CollectionEditor/CollectionEditor.test.ts&#45;&gt;src/gathering/Collection.ts</title>
<path fill="none" stroke="#000000" stroke-opacity="0.200000" d="M413.25,-619.88C415.27,-618.73 417.2,-617.44 419,-616 425.52,-610.79 420.22,-603.88 427,-599 476.76,-563.2 503.07,-589.71 564,-583 606.85,-578.28 656.03,-573.25 689.37,-569.9"/>
<polygon fill="none" stroke="#000000" stroke-opacity="0.200000" points="689.64,-571.98 695.4,-569.29 689.22,-567.8 689.64,-571.98"/>
</g>
<!-- src/gathering/CollectionEditor/CollectionEditor.ts -->
<g id="node4" class="node">
<title>src/gathering/CollectionEditor/CollectionEditor.ts</title>
<g id="a_node4"><a xlink:href="src/gathering/CollectionEditor/CollectionEditor.ts" xlink:title="CollectionEditor.ts">
<path fill="#ddfeff" stroke="black" d="M523,-623C523,-623 443,-623 443,-623 440,-623 437,-620 437,-617 437,-617 437,-611 437,-611 437,-608 440,-605 443,-605 443,-605 523,-605 523,-605 526,-605 529,-608 529,-611 529,-611 529,-617 529,-617 529,-620 526,-623 523,-623"/>
<text text-anchor="start" x="445" y="-611.8" font-family="Helvetica,sans-Serif" font-size="9.00">CollectionEditor.ts</text>
</a>
</g>
</g>
<!-- src/gathering/CollectionEditor/CollectionEditor.test.ts&#45;&gt;src/gathering/CollectionEditor/CollectionEditor.ts -->
<g id="edge2" class="edge">
<title>src/gathering/CollectionEditor/CollectionEditor.test.ts&#45;&gt;src/gathering/CollectionEditor/CollectionEditor.ts</title>
<path fill="none" stroke="#000000" stroke-width="2" stroke-opacity="0.200000" d="M413.51,-622.42C419.25,-621.72 425.07,-621 430.78,-620.3"/>
<polygon fill="#000000" fill-opacity="0.200000" stroke="#000000" stroke-width="2" stroke-opacity="0.200000" points="431.22,-622.36 436.92,-619.54 430.71,-618.19 431.22,-622.36"/>
</g>
<!-- src/gathering/CollectionEditor/PackRepositoryMock.ts -->
<g id="node5" class="node">
<title>src/gathering/CollectionEditor/PackRepositoryMock.ts</title>
<g id="a_node5"><a xlink:href="src/gathering/CollectionEditor/PackRepositoryMock.ts" xlink:title="PackRepositoryMock.ts">
<path fill="#ddfeff" stroke="black" d="M533,-653C533,-653 433,-653 433,-653 430,-653 427,-650 427,-647 427,-647 427,-641 427,-641 427,-638 430,-635 433,-635 433,-635 533,-635 533,-635 536,-635 539,-638 539,-641 539,-641 539,-647 539,-647 539,-650 536,-653 533,-653"/>
<text text-anchor="start" x="435" y="-641.8" font-family="Helvetica,sans-Serif" font-size="9.00">PackRepositoryMock.ts</text>
</a>
</g>
</g>
<!-- src/gathering/CollectionEditor/CollectionEditor.test.ts&#45;&gt;src/gathering/CollectionEditor/PackRepositoryMock.ts -->
<g id="edge3" class="edge">
<title>src/gathering/CollectionEditor/CollectionEditor.test.ts&#45;&gt;src/gathering/CollectionEditor/PackRepositoryMock.ts</title>
<path fill="none" stroke="#000000" stroke-width="2" stroke-opacity="0.200000" d="M413.51,-635.58C415.82,-635.86 418.15,-636.15 420.48,-636.44"/>
<polygon fill="#000000" fill-opacity="0.200000" stroke="#000000" stroke-width="2" stroke-opacity="0.200000" points="420.42,-638.55 426.64,-637.19 420.94,-634.38 420.42,-638.55"/>
</g>
<!-- src/gathering/CollectionEntity.ts -->
<g id="node6" class="node">
<title>src/gathering/CollectionEntity.ts</title>
<g id="a_node6"><a xlink:href="src/gathering/CollectionEntity.ts" xlink:title="CollectionEntity.ts">
<path fill="#ddfeff" stroke="black" d="M651,-722C651,-722 574,-722 574,-722 571,-722 568,-719 568,-716 568,-716 568,-710 568,-710 568,-707 571,-704 574,-704 574,-704 651,-704 651,-704 654,-704 657,-707 657,-710 657,-710 657,-716 657,-716 657,-719 654,-722 651,-722"/>
<text text-anchor="start" x="576" y="-710.8" font-family="Helvetica,sans-Serif" font-size="9.00">CollectionEntity.ts</text>
</a>
</g>
</g>
<!-- src/gathering/CollectionEditor/CollectionEditor.test.ts&#45;&gt;src/gathering/CollectionEntity.ts -->
<g id="edge5" class="edge">
<title>src/gathering/CollectionEditor/CollectionEditor.test.ts&#45;&gt;src/gathering/CollectionEntity.ts</title>
<path fill="none" stroke="#000000" stroke-width="2" stroke-opacity="0.200000" d="M373.86,-638.03C387.06,-646.3 407.73,-658.37 427,-666 471.2,-683.5 523.96,-696.17 561.72,-703.91"/>
<polygon fill="#000000" fill-opacity="0.200000" stroke="#000000" stroke-width="2" stroke-opacity="0.200000" points="561.35,-705.98 567.64,-705.11 562.18,-701.86 561.35,-705.98"/>
</g>
<!-- src/gathering/ICollectionEditor.ts -->
<g id="node7" class="node">
<title>src/gathering/ICollectionEditor.ts</title>
<g id="a_node7"><a xlink:href="src/gathering/ICollectionEditor.ts" xlink:title="ICollectionEditor.ts">
<path fill="#ddfeff" stroke="black" d="M653.5,-664C653.5,-664 571.5,-664 571.5,-664 568.5,-664 565.5,-661 565.5,-658 565.5,-658 565.5,-652 565.5,-652 565.5,-649 568.5,-646 571.5,-646 571.5,-646 653.5,-646 653.5,-646 656.5,-646 659.5,-649 659.5,-652 659.5,-652 659.5,-658 659.5,-658 659.5,-661 656.5,-664 653.5,-664"/>
<text text-anchor="start" x="573.5" y="-652.8" font-family="Helvetica,sans-Serif" font-size="9.00">ICollectionEditor.ts</text>
</a>
</g>
</g>
<!-- src/gathering/CollectionEditor/CollectionEditor.test.ts&#45;&gt;src/gathering/ICollectionEditor.ts -->
<g id="edge6" class="edge">
<title>src/gathering/CollectionEditor/CollectionEditor.test.ts&#45;&gt;src/gathering/ICollectionEditor.ts</title>
<path fill="none" stroke="#000000" stroke-opacity="0.200000" d="M375.33,-638.12C388.52,-645.39 408.3,-655.01 427,-659 470.83,-668.37 521.86,-666.3 559.13,-662.5"/>
<polygon fill="none" stroke="#000000" stroke-opacity="0.200000" points="559.71,-664.55 565.45,-661.83 559.27,-660.37 559.71,-664.55"/>
</g>
<!-- src/gathering/ICollectionOutput.ts -->
<g id="node8" class="node">
<title>src/gathering/ICollectionOutput.ts</title>
<g id="a_node8"><a xlink:href="src/gathering/ICollectionOutput.ts" xlink:title="ICollectionOutput.ts">
<path fill="#ddfeff" stroke="black" d="M655,-564C655,-564 570,-564 570,-564 567,-564 564,-561 564,-558 564,-558 564,-552 564,-552 564,-549 567,-546 570,-546 570,-546 655,-546 655,-546 658,-546 661,-549 661,-552 661,-552 661,-558 661,-558 661,-561 658,-564 655,-564"/>
<text text-anchor="start" x="572" y="-552.8" font-family="Helvetica,sans-Serif" font-size="9.00">ICollectionOutput.ts</text>
</a>
</g>
</g>
<!-- src/gathering/CollectionEditor/CollectionEditor.test.ts&#45;&gt;src/gathering/ICollectionOutput.ts -->
<g id="edge7" class="edge">
<title>src/gathering/CollectionEditor/CollectionEditor.test.ts&#45;&gt;src/gathering/ICollectionOutput.ts</title>
<path fill="none" stroke="#000000" stroke-opacity="0.200000" d="M413.75,-620.43C415.63,-619.13 417.4,-617.66 419,-616 432.52,-602.03 412.67,-586.14 427,-573 463.06,-539.94 521.36,-539.79 562.76,-545.13"/>
<polygon fill="none" stroke="#000000" stroke-opacity="0.200000" points="562.51,-547.22 568.74,-545.96 563.09,-543.06 562.51,-547.22"/>
</g>
<!-- src/gathering/CollectionEditor/CollectionEditor.ts&#45;&gt;src/gathering/Pack.ts -->
<g id="edge12" class="edge">
<title>src/gathering/CollectionEditor/CollectionEditor.ts&#45;&gt;src/gathering/Pack.ts</title>
<path fill="none" stroke="#000000" stroke-opacity="0.200000" d="M529.21,-619.22C535.68,-621.48 541.87,-624.62 547,-629 562.01,-641.79 547.6,-659.04 564,-670 598.82,-693.26 722.6,-675.44 782.31,-665.08"/>
<polygon fill="none" stroke="#000000" stroke-opacity="0.200000" points="783.03,-667.08 788.58,-663.98 782.31,-662.95 783.03,-667.08"/>
</g>
<!-- src/gathering/CollectionEditor/CollectionEditor.ts&#45;&gt;src/gathering/CollectionEntity.ts -->
<g id="edge9" class="edge">
<title>src/gathering/CollectionEditor/CollectionEditor.ts&#45;&gt;src/gathering/CollectionEntity.ts</title>
<path fill="none" stroke="#000000" stroke-width="2" stroke-opacity="0.200000" d="M529.19,-618.76C535.74,-621.07 541.96,-624.35 547,-629 564.89,-645.47 549.34,-661.6 564,-681 569.94,-688.86 578.4,-695.44 586.54,-700.54"/>
<polygon fill="#000000" fill-opacity="0.200000" stroke="#000000" stroke-width="2" stroke-opacity="0.200000" points="585.86,-702.57 592.09,-703.83 588,-698.96 585.86,-702.57"/>
</g>
<!-- src/gathering/CollectionEditor/CollectionEditor.ts&#45;&gt;src/gathering/ICollectionEditor.ts -->
<g id="edge10" class="edge">
<title>src/gathering/CollectionEditor/CollectionEditor.ts&#45;&gt;src/gathering/ICollectionEditor.ts</title>
<path fill="none" stroke="#000000" stroke-opacity="0.200000" d="M529.1,-622.51C535.24,-624.31 541.36,-626.45 547,-629 555.43,-632.81 555.67,-636.97 564,-641 566.01,-641.97 568.11,-642.9 570.25,-643.76"/>
<polygon fill="none" stroke="#000000" stroke-opacity="0.200000" points="569.64,-645.78 575.99,-645.94 571.13,-641.85 569.64,-645.78"/>
</g>
<!-- src/gathering/CollectionEditor/CollectionEditor.ts&#45;&gt;src/gathering/ICollectionOutput.ts -->
<g id="edge11" class="edge">
<title>src/gathering/CollectionEditor/CollectionEditor.ts&#45;&gt;src/gathering/ICollectionOutput.ts</title>
<path fill="none" stroke="#000000" stroke-opacity="0.200000" d="M529.27,-608.17C535.45,-606.38 541.54,-604.05 547,-601 556.61,-595.64 555.4,-589.86 564,-583 571.3,-577.18 579.93,-571.73 587.81,-567.22"/>
<polygon fill="none" stroke="#000000" stroke-opacity="0.200000" points="588.92,-569.01 593.13,-564.25 586.87,-565.34 588.92,-569.01"/>
</g>
<!-- src/gathering/PackRepository/index.ts -->
<g id="node9" class="node">
<title>src/gathering/PackRepository/index.ts</title>
<g id="a_node9"><a xlink:href="src/gathering/PackRepository/index.ts" xlink:title="index.ts">
<path fill="#ddfeff" stroke="black" d="M633.5,-612C633.5,-612 591.5,-612 591.5,-612 588.5,-612 585.5,-609 585.5,-606 585.5,-606 585.5,-600 585.5,-600 585.5,-597 588.5,-594 591.5,-594 591.5,-594 633.5,-594 633.5,-594 636.5,-594 639.5,-597 639.5,-600 639.5,-600 639.5,-606 639.5,-606 639.5,-609 636.5,-612 633.5,-612"/>
<text text-anchor="start" x="596.5" y="-600.8" font-family="Helvetica,sans-Serif" font-size="9.00">index.ts</text>
</a>
</g>
</g>
<!-- src/gathering/CollectionEditor/CollectionEditor.ts&#45;&gt;src/gathering/PackRepository/index.ts -->
<g id="edge8" class="edge">
<title>src/gathering/CollectionEditor/CollectionEditor.ts&#45;&gt;src/gathering/PackRepository/index.ts</title>
<path fill="none" stroke="#000000" stroke-width="2" stroke-opacity="0.200000" d="M529.31,-610.09C545.72,-608.68 563.91,-607.11 579,-605.8"/>
<polygon fill="#000000" fill-opacity="0.200000" stroke="#000000" stroke-width="2" stroke-opacity="0.200000" points="579.47,-607.87 585.26,-605.26 579.1,-603.69 579.47,-607.87"/>
</g>
<!-- src/gathering/CollectionEditor/PackRepositoryMock.ts&#45;&gt;src/gathering/Pack.ts -->
<g id="edge14" class="edge">
<title>src/gathering/CollectionEditor/PackRepositoryMock.ts&#45;&gt;src/gathering/Pack.ts</title>
<path fill="none" stroke="#000000" stroke-opacity="0.200000" d="M489.14,-653.12C500.1,-671.47 527.72,-712.45 564,-728 651.58,-765.54 693.08,-742.95 776,-696 786.49,-690.06 796.33,-680.69 803.49,-672.87"/>
<polygon fill="none" stroke="#000000" stroke-opacity="0.200000" points="805.19,-674.13 807.6,-668.24 802.04,-671.34 805.19,-674.13"/>
</g>
<!-- src/gathering/IPackRepository.ts -->
<g id="node10" class="node">
<title>src/gathering/IPackRepository.ts</title>
<g id="a_node10"><a xlink:href="src/gathering/IPackRepository.ts" xlink:title="IPackRepository.ts">
<path fill="#ddfeff" stroke="black" d="M770,-646C770,-646 689,-646 689,-646 686,-646 683,-643 683,-640 683,-640 683,-634 683,-634 683,-631 686,-628 689,-628 689,-628 770,-628 770,-628 773,-628 776,-631 776,-634 776,-634 776,-640 776,-640 776,-643 773,-646 770,-646"/>
<text text-anchor="start" x="691" y="-634.8" font-family="Helvetica,sans-Serif" font-size="9.00">IPackRepository.ts</text>
</a>
</g>
</g>
<!-- src/gathering/CollectionEditor/PackRepositoryMock.ts&#45;&gt;src/gathering/IPackRepository.ts -->
<g id="edge13" class="edge">
<title>src/gathering/CollectionEditor/PackRepositoryMock.ts&#45;&gt;src/gathering/IPackRepository.ts</title>
<path fill="none" stroke="#000000" stroke-opacity="0.200000" d="M536.83,-653.03C540.33,-654.2 543.75,-655.52 547,-657 555.65,-660.95 554.99,-666.95 564,-670 604.83,-683.82 619,-679.72 661,-670 678.35,-665.99 696.39,-656.87 709.45,-649.24"/>
<polygon fill="none" stroke="#000000" stroke-opacity="0.200000" points="710.66,-650.96 714.72,-646.07 708.5,-647.36 710.66,-650.96"/>
</g>
<!-- src/gathering/CollectionEntity.ts&#45;&gt;src/gathering/Pack.ts -->
<g id="edge16" class="edge">
<title>src/gathering/CollectionEntity.ts&#45;&gt;src/gathering/Pack.ts</title>
<path fill="none" stroke="#000000" stroke-opacity="0.200000" d="M657.29,-708.23C690.6,-703.68 737.16,-695.35 776,-681 782.81,-678.48 789.84,-674.87 796.03,-671.3"/>
<polygon fill="none" stroke="#000000" stroke-opacity="0.200000" points="797.37,-672.95 801.44,-668.07 795.21,-669.35 797.37,-672.95"/>
</g>
<!-- src/gathering/CollectionEntity.ts&#45;&gt;src/gathering/IPackRepository.ts -->
<g id="edge15" class="edge">
<title>src/gathering/CollectionEntity.ts&#45;&gt;src/gathering/IPackRepository.ts</title>
<path fill="none" stroke="#000000" stroke-opacity="0.200000" d="M642.38,-703.89C648.71,-701.4 655.24,-698.42 661,-695 681.82,-682.63 702.45,-663.66 715.32,-650.82"/>
<polygon fill="none" stroke="#000000" stroke-opacity="0.200000" points="716.97,-652.13 719.69,-646.38 713.98,-649.18 716.97,-652.13"/>
</g>
<!-- src/gathering/ICollectionEditor.ts&#45;&gt;src/gathering/Pack.ts -->
<g id="edge17" class="edge">
<title>src/gathering/ICollectionEditor.ts&#45;&gt;src/gathering/Pack.ts</title>
<path fill="none" stroke="#000000" stroke-opacity="0.200000" d="M659.73,-655.92C697.2,-656.66 749.07,-657.69 782.33,-658.35"/>
<polygon fill="none" stroke="#000000" stroke-opacity="0.200000" points="782.69,-660.46 788.73,-658.48 782.77,-656.26 782.69,-660.46"/>
</g>
<!-- src/gathering/ICollectionOutput.ts&#45;&gt;src/gathering/Collection.ts -->
<g id="edge18" class="edge">
<title>src/gathering/ICollectionOutput.ts&#45;&gt;src/gathering/Collection.ts</title>
<path fill="none" stroke="#000000" stroke-opacity="0.200000" d="M661.27,-559.57C670.6,-560.46 680.28,-561.39 689.28,-562.25"/>
<polygon fill="none" stroke="#000000" stroke-opacity="0.200000" points="689.23,-564.35 695.4,-562.83 689.63,-560.17 689.23,-564.35"/>
</g>
<!-- src/gathering/PackRepository/index.ts&#45;&gt;src/gathering/Pack.ts -->
<g id="edge21" class="edge">
<title>src/gathering/PackRepository/index.ts&#45;&gt;src/gathering/Pack.ts</title>
<path fill="none" stroke="#000000" stroke-opacity="0.200000" d="M639.63,-601.13C672.93,-599.82 731.49,-601.17 776,-622 787.2,-627.24 797.25,-636.97 804.35,-645.14"/>
<polygon fill="none" stroke="#000000" stroke-opacity="0.200000" points="802.91,-646.69 808.37,-649.96 806.14,-644.01 802.91,-646.69"/>
</g>
<!-- src/gathering/PackRepository/index.ts&#45;&gt;src/gathering/IPackRepository.ts -->
<g id="edge20" class="edge">
<title>src/gathering/PackRepository/index.ts&#45;&gt;src/gathering/IPackRepository.ts</title>
<path fill="none" stroke="#000000" stroke-opacity="0.200000" d="M639.68,-609.99C646.62,-611.89 654.11,-613.99 661,-616 671.93,-619.2 683.81,-622.83 694.51,-626.18"/>
<polygon fill="none" stroke="#000000" stroke-opacity="0.200000" points="693.97,-628.21 700.32,-628 695.22,-624.2 693.97,-628.21"/>
</g>
<!-- src/gathering/IPackRepository.ts&#45;&gt;src/gathering/Pack.ts -->
<g id="edge19" class="edge">
<title>src/gathering/IPackRepository.ts&#45;&gt;src/gathering/Pack.ts</title>
<path fill="none" stroke="#000000" stroke-opacity="0.200000" d="M765.36,-646.08C771.1,-647.57 777.03,-649.11 782.71,-650.59"/>
<polygon fill="none" stroke="#000000" stroke-opacity="0.200000" points="782.41,-652.68 788.74,-652.16 783.47,-648.62 782.41,-652.68"/>
</g>
<!-- src/gathering/index.ts -->
<g id="node11" class="node">
<title>src/gathering/index.ts</title>
<g id="a_node11"><a xlink:href="src/gathering/index.ts" xlink:title="index.ts">
<path fill="#ddfeff" stroke="black" d="M380,-564C380,-564 338,-564 338,-564 335,-564 332,-561 332,-558 332,-558 332,-552 332,-552 332,-549 335,-546 338,-546 338,-546 380,-546 380,-546 383,-546 386,-549 386,-552 386,-552 386,-558 386,-558 386,-561 383,-564 380,-564"/>
<text text-anchor="start" x="343" y="-552.8" font-family="Helvetica,sans-Serif" font-size="9.00">index.ts</text>
</a>
</g>
</g>
<!-- src/gathering/index.ts&#45;&gt;src/gathering/CollectionEditor/CollectionEditor.ts -->
<g id="edge22" class="edge">
<title>src/gathering/index.ts&#45;&gt;src/gathering/CollectionEditor/CollectionEditor.ts</title>
<path fill="none" stroke="#000000" stroke-width="2" stroke-opacity="0.200000" d="M374.93,-564.08C387.09,-571.67 404.55,-582.98 419,-594 422.76,-596.86 422.8,-598.84 427,-601 428.37,-601.71 429.79,-602.38 431.23,-603.01"/>
<polygon fill="#000000" fill-opacity="0.200000" stroke="#000000" stroke-width="2" stroke-opacity="0.200000" points="430.56,-605.01 436.91,-605.28 432.12,-601.11 430.56,-605.01"/>
</g>
<!-- src/gathering/index.ts&#45;&gt;src/gathering/PackRepository/index.ts -->
<g id="edge23" class="edge">
<title>src/gathering/index.ts&#45;&gt;src/gathering/PackRepository/index.ts</title>
<path fill="none" stroke="#000000" stroke-width="2" stroke-opacity="0.200000" d="M386.44,-560.05C432.88,-568.91 528.94,-587.24 579.22,-596.84"/>
<polygon fill="#000000" fill-opacity="0.200000" stroke="#000000" stroke-width="2" stroke-opacity="0.200000" points="579.13,-598.96 585.41,-598.02 579.91,-594.83 579.13,-598.96"/>
</g>
<!-- src/lib/BinderStorage/index.ts -->
<g id="node12" class="node">
<title>src/lib/BinderStorage/index.ts</title>
<g id="a_node12"><a xlink:href="src/lib/BinderStorage/index.ts" xlink:title="index.ts">
<path fill="#ddfeff" stroke="black" d="M218.5,-208C218.5,-208 176.5,-208 176.5,-208 173.5,-208 170.5,-205 170.5,-202 170.5,-202 170.5,-196 170.5,-196 170.5,-193 173.5,-190 176.5,-190 176.5,-190 218.5,-190 218.5,-190 221.5,-190 224.5,-193 224.5,-196 224.5,-196 224.5,-202 224.5,-202 224.5,-205 221.5,-208 218.5,-208"/>
<text text-anchor="start" x="181.5" y="-196.8" font-family="Helvetica,sans-Serif" font-size="9.00">index.ts</text>
</a>
</g>
</g>
<!-- src/lib/Components/Binder.svelte.ts -->
<g id="node13" class="node">
<title>src/lib/Components/Binder.svelte.ts</title>
<g id="a_node13"><a xlink:href="src/lib/Components/Binder.svelte.ts" xlink:title="Binder.svelte.ts">
<path fill="#ddfeff" stroke="black" d="M231.5,-418C231.5,-418 163.5,-418 163.5,-418 160.5,-418 157.5,-415 157.5,-412 157.5,-412 157.5,-406 157.5,-406 157.5,-403 160.5,-400 163.5,-400 163.5,-400 231.5,-400 231.5,-400 234.5,-400 237.5,-403 237.5,-406 237.5,-406 237.5,-412 237.5,-412 237.5,-415 234.5,-418 231.5,-418"/>
<text text-anchor="start" x="165.5" y="-406.8" font-family="Helvetica,sans-Serif" font-size="9.00">Binder.svelte.ts</text>
</a>
</g>
</g>
<!-- src/lib/Components/PocketSheet.svelte.ts -->
<g id="node14" class="node">
<title>src/lib/Components/PocketSheet.svelte.ts</title>
<g id="a_node14"><a xlink:href="src/lib/Components/PocketSheet.svelte.ts" xlink:title="PocketSheet.svelte.ts">
<path fill="#ddfeff" stroke="black" d="M405,-418C405,-418 313,-418 313,-418 310,-418 307,-415 307,-412 307,-412 307,-406 307,-406 307,-403 310,-400 313,-400 313,-400 405,-400 405,-400 408,-400 411,-403 411,-406 411,-406 411,-412 411,-412 411,-415 408,-418 405,-418"/>
<text text-anchor="start" x="315" y="-406.8" font-family="Helvetica,sans-Serif" font-size="9.00">PocketSheet.svelte.ts</text>
</a>
</g>
</g>
<!-- src/lib/Components/Binder.svelte.ts&#45;&gt;src/lib/Components/PocketSheet.svelte.ts -->
<g id="edge24" class="edge">
<title>src/lib/Components/Binder.svelte.ts&#45;&gt;src/lib/Components/PocketSheet.svelte.ts</title>
<path fill="none" stroke="#000000" stroke-width="2" stroke-opacity="0.200000" d="M237.52,-409C256.49,-409 279.66,-409 300.6,-409"/>
<polygon fill="#000000" fill-opacity="0.200000" stroke="#000000" stroke-width="2" stroke-opacity="0.200000" points="300.73,-411.1 306.73,-409 300.73,-406.9 300.73,-411.1"/>
</g>
<!-- src/lib/ViewModels/binder.ts -->
<g id="node15" class="node">
<title>src/lib/ViewModels/binder.ts</title>
<g id="a_node15"><a xlink:href="src/lib/ViewModels/binder.ts" xlink:title="binder.ts">
<path fill="#ddfeff" stroke="black" d="M504,-426C504,-426 462,-426 462,-426 459,-426 456,-423 456,-420 456,-420 456,-414 456,-414 456,-411 459,-408 462,-408 462,-408 504,-408 504,-408 507,-408 510,-411 510,-414 510,-414 510,-420 510,-420 510,-423 507,-426 504,-426"/>
<text text-anchor="start" x="464.5" y="-414.8" font-family="Helvetica,sans-Serif" font-size="9.00">binder.ts</text>
</a>
</g>
</g>
<!-- src/lib/Components/Binder.svelte.ts&#45;&gt;src/lib/ViewModels/binder.ts -->
<g id="edge25" class="edge">
<title>src/lib/Components/Binder.svelte.ts&#45;&gt;src/lib/ViewModels/binder.ts</title>
<path fill="none" stroke="#000000" stroke-opacity="0.200000" d="M237.75,-416.99C253.46,-419.81 271.77,-422.62 288.5,-424 346.3,-428.78 361.09,-427.21 419,-424 429.01,-423.45 439.87,-422.4 449.71,-421.28"/>
<polygon fill="none" stroke="#000000" stroke-opacity="0.200000" points="449.98,-423.37 455.69,-420.58 449.49,-419.19 449.98,-423.37"/>
</g>
<!-- src/lib/Components/PocketSheet.svelte.ts&#45;&gt;src/lib/ViewModels/binder.ts -->
<g id="edge26" class="edge">
<title>src/lib/Components/PocketSheet.svelte.ts&#45;&gt;src/lib/ViewModels/binder.ts</title>
<path fill="none" stroke="#000000" stroke-opacity="0.200000" d="M411.03,-412.35C424.15,-413.21 437.91,-414.11 449.78,-414.89"/>
<polygon fill="none" stroke="#000000" stroke-opacity="0.200000" points="449.68,-416.98 455.8,-415.28 449.95,-412.79 449.68,-416.98"/>
</g>
<!-- src/lib/server/ahdb.cards.json -->
<g id="node16" class="node">
<title>src/lib/server/ahdb.cards.json</title>
<g id="a_node16"><a xlink:href="src/lib/server/ahdb.cards.json" xlink:title="ahdb.cards.json">
<path fill="#ffee44" stroke="black" d="M233,-298C233,-298 162,-298 162,-298 159,-298 156,-295 156,-292 156,-292 156,-286 156,-286 156,-283 159,-280 162,-280 162,-280 233,-280 233,-280 236,-280 239,-283 239,-286 239,-286 239,-292 239,-292 239,-295 236,-298 233,-298"/>
<text text-anchor="start" x="164" y="-286.8" font-family="Helvetica,sans-Serif" font-size="9.00">ahdb.cards.json</text>
</a>
</g>
</g>
<!-- src/lib/server/ahdb.packs.json -->
<g id="node17" class="node">
<title>src/lib/server/ahdb.packs.json</title>
<g id="a_node17"><a xlink:href="src/lib/server/ahdb.packs.json" xlink:title="ahdb.packs.json">
<path fill="#ffee44" stroke="black" d="M234,-268C234,-268 161,-268 161,-268 158,-268 155,-265 155,-262 155,-262 155,-256 155,-256 155,-253 158,-250 161,-250 161,-250 234,-250 234,-250 237,-250 240,-253 240,-256 240,-256 240,-262 240,-262 240,-265 237,-268 234,-268"/>
<text text-anchor="start" x="163" y="-256.8" font-family="Helvetica,sans-Serif" font-size="9.00">ahdb.packs.json</text>
</a>
</g>
</g>
<!-- src/lib/server/collection/couz.json -->
<g id="node18" class="node">
<title>src/lib/server/collection/couz.json</title>
<g id="a_node18"><a xlink:href="src/lib/server/collection/couz.json" xlink:title="couz.json">
<path fill="#ffee44" stroke="black" d="M219.5,-332C219.5,-332 175.5,-332 175.5,-332 172.5,-332 169.5,-329 169.5,-326 169.5,-326 169.5,-320 169.5,-320 169.5,-317 172.5,-314 175.5,-314 175.5,-314 219.5,-314 219.5,-314 222.5,-314 225.5,-317 225.5,-320 225.5,-320 225.5,-326 225.5,-326 225.5,-329 222.5,-332 219.5,-332"/>
<text text-anchor="start" x="177.5" y="-320.8" font-family="Helvetica,sans-Serif" font-size="9.00">couz.json</text>
</a>
</g>
</g>
<!-- src/lib/userEditsCollection/userEditsCollection.ts -->
<g id="node19" class="node">
<title>src/lib/userEditsCollection/userEditsCollection.ts</title>
<g id="a_node19"><a xlink:href="src/lib/userEditsCollection/userEditsCollection.ts" xlink:title="userEditsCollection.ts">
<path fill="#ddfeff" stroke="black" d="M245,-478C245,-478 150,-478 150,-478 147,-478 144,-475 144,-472 144,-472 144,-466 144,-466 144,-463 147,-460 150,-460 150,-460 245,-460 245,-460 248,-460 251,-463 251,-466 251,-466 251,-472 251,-472 251,-475 248,-478 245,-478"/>
<text text-anchor="start" x="152" y="-466.8" font-family="Helvetica,sans-Serif" font-size="9.00">userEditsCollection.ts</text>
</a>
</g>
</g>
<!-- src/lib/userEditsCollection/userEditsCollection.ts&#45;&gt;src/gathering/Collection.ts -->
<g id="edge28" class="edge">
<title>src/lib/userEditsCollection/userEditsCollection.ts&#45;&gt;src/gathering/Collection.ts</title>
<path fill="none" stroke="#000000" stroke-opacity="0.200000" d="M251.08,-466.5C356.52,-462.28 589.82,-457.25 661,-491 688.3,-503.95 709.46,-533.5 720.36,-551.4"/>
<polygon fill="none" stroke="#000000" stroke-opacity="0.200000" points="718.79,-552.88 723.65,-556.98 722.41,-550.75 718.79,-552.88"/>
</g>
<!-- src/lib/userEditsCollection/userEditsCollection.ts&#45;&gt;src/gathering/ICollectionEditor.ts -->
<g id="edge29" class="edge">
<title>src/lib/userEditsCollection/userEditsCollection.ts&#45;&gt;src/gathering/ICollectionEditor.ts</title>
<path fill="none" stroke="#000000" stroke-opacity="0.200000" d="M216.38,-478.13C234.26,-486.98 262.74,-500.3 288.5,-509 403.08,-547.7 463.74,-506.28 547,-594 562.29,-610.11 547.83,-625.77 564,-641 564.5,-641.47 565.02,-641.93 565.55,-642.37"/>
<polygon fill="none" stroke="#000000" stroke-opacity="0.200000" points="564.52,-644.21 570.64,-645.93 566.93,-640.77 564.52,-644.21"/>
</g>
<!-- src/lib/userEditsCollection/userEditsCollection.ts&#45;&gt;src/gathering/ICollectionOutput.ts -->
<g id="edge30" class="edge">
<title>src/lib/userEditsCollection/userEditsCollection.ts&#45;&gt;src/gathering/ICollectionOutput.ts</title>
<path fill="none" stroke="#000000" stroke-opacity="0.200000" d="M221.06,-478.02C239.04,-484.84 265.01,-493.87 288.5,-499 401.4,-523.63 435.29,-497.43 547,-527 561.4,-530.81 576.73,-537.35 588.83,-543.15"/>
<polygon fill="none" stroke="#000000" stroke-opacity="0.200000" points="588.18,-545.17 594.49,-545.93 590.02,-541.4 588.18,-545.17"/>
</g>
<!-- src/lib/userEditsCollection/userEditsCollection.ts&#45;&gt;src/gathering/IPackRepository.ts -->
<g id="edge31" class="edge">
<title>src/lib/userEditsCollection/userEditsCollection.ts&#45;&gt;src/gathering/IPackRepository.ts</title>
<path fill="none" stroke="#000000" stroke-opacity="0.200000" d="M251.34,-470.61C358.95,-474.92 598.66,-490 661,-540 677.13,-552.94 671.54,-563.79 683,-581 693.11,-596.19 706.45,-612.23 716.07,-623.23"/>
<polygon fill="none" stroke="#000000" stroke-opacity="0.200000" points="714.66,-624.8 720.2,-627.91 717.8,-622.02 714.66,-624.8"/>
</g>
<!-- src/lib/userEditsCollection/userEditsCollection.ts&#45;&gt;src/gathering/index.ts -->
<g id="edge27" class="edge">
<title>src/lib/userEditsCollection/userEditsCollection.ts&#45;&gt;src/gathering/index.ts</title>
<path fill="none" stroke="#000000" stroke-width="2" stroke-opacity="0.200000" d="M208.52,-478.23C224.36,-492.36 256.67,-519.37 288.5,-535 300.11,-540.7 313.64,-545.05 325.65,-548.22"/>
<polygon fill="#000000" fill-opacity="0.200000" stroke="#000000" stroke-width="2" stroke-opacity="0.200000" points="325.45,-550.33 331.78,-549.77 326.48,-546.26 325.45,-550.33"/>
</g>
<!-- src/routes/collection/couz/+page.server.ts -->
<g id="node20" class="node">
<title>src/routes/collection/couz/+page.server.ts</title>
<g id="a_node20"><a xlink:href="src/routes/collection/couz/+page.server.ts" xlink:title="+page.server.ts">
<path fill="#ddfeff" stroke="black" d="M114,-88C114,-88 46,-88 46,-88 43,-88 40,-85 40,-82 40,-82 40,-76 40,-76 40,-73 43,-70 46,-70 46,-70 114,-70 114,-70 117,-70 120,-73 120,-76 120,-76 120,-82 120,-82 120,-85 117,-88 114,-88"/>
<text text-anchor="start" x="48" y="-76.8" font-family="Helvetica,sans-Serif" font-size="9.00">+page.server.ts</text>
</a>
</g>
</g>
<!-- src/routes/collection/couz/+page.server.ts&#45;&gt;src/lib/BinderStorage/index.ts -->
<g id="edge32" class="edge">
<title>src/routes/collection/couz/+page.server.ts&#45;&gt;src/lib/BinderStorage/index.ts</title>
<path fill="none" stroke="#000000" stroke-opacity="0.200000" d="M89.68,-88.02C109.75,-108.87 159.45,-160.51 183.31,-185.29"/>
<polygon fill="none" stroke="#000000" stroke-opacity="0.200000" points="182.04,-187.01 187.72,-189.88 185.07,-184.1 182.04,-187.01"/>
</g>
<!-- src/routes/collection/couz/+page.server.ts&#45;&gt;src/lib/server/ahdb.cards.json -->
<g id="edge33" class="edge">
<title>src/routes/collection/couz/+page.server.ts&#45;&gt;src/lib/server/ahdb.cards.json</title>
<path fill="none" stroke="#000000" stroke-width="2" stroke-opacity="0.200000" d="M81.95,-88.37C85.73,-123.58 100.76,-247.32 128,-274 133.96,-279.84 141.64,-283.62 149.69,-286.04"/>
<polygon fill="#000000" fill-opacity="0.200000" stroke="#000000" stroke-width="2" stroke-opacity="0.200000" points="149.56,-288.18 155.89,-287.63 150.6,-284.11 149.56,-288.18"/>
</g>
<!-- src/routes/collection/couz/+page.server.ts&#45;&gt;src/lib/server/ahdb.packs.json -->
<g id="edge34" class="edge">
<title>src/routes/collection/couz/+page.server.ts&#45;&gt;src/lib/server/ahdb.packs.json</title>
<path fill="none" stroke="#000000" stroke-width="2" stroke-opacity="0.200000" d="M80.94,-88.31C81.27,-115.24 85.97,-194.05 128,-237 133.78,-242.9 141.14,-247.23 148.89,-250.39"/>
<polygon fill="#000000" fill-opacity="0.200000" stroke="#000000" stroke-width="2" stroke-opacity="0.200000" points="148.51,-252.49 154.87,-252.59 149.96,-248.55 148.51,-252.49"/>
</g>
<!-- src/routes/collection/couz/+page.server.ts&#45;&gt;src/lib/server/collection/couz.json -->
<g id="edge35" class="edge">
<title>src/routes/collection/couz/+page.server.ts&#45;&gt;src/lib/server/collection/couz.json</title>
<path fill="none" stroke="#000000" stroke-width="2" stroke-opacity="0.200000" d="M81.54,-88.19C84.01,-127.13 95.59,-278.02 128,-310 137.18,-319.06 150.59,-322.83 163.11,-324.14"/>
<polygon fill="#000000" fill-opacity="0.200000" stroke="#000000" stroke-width="2" stroke-opacity="0.200000" points="163.02,-326.24 169.17,-324.6 163.34,-322.06 163.02,-326.24"/>
</g>
<!-- src/routes/collection/couz/+page.svelte.ts -->
<g id="node21" class="node">
<title>src/routes/collection/couz/+page.svelte.ts</title>
<g id="a_node21"><a xlink:href="src/routes/collection/couz/+page.svelte.ts" xlink:title="+page.svelte.ts">
<path fill="#ddfeff" stroke="black" d="M113.5,-58C113.5,-58 46.5,-58 46.5,-58 43.5,-58 40.5,-55 40.5,-52 40.5,-52 40.5,-46 40.5,-46 40.5,-43 43.5,-40 46.5,-40 46.5,-40 113.5,-40 113.5,-40 116.5,-40 119.5,-43 119.5,-46 119.5,-46 119.5,-52 119.5,-52 119.5,-55 116.5,-58 113.5,-58"/>
<text text-anchor="start" x="48.5" y="-46.8" font-family="Helvetica,sans-Serif" font-size="9.00">+page.svelte.ts</text>
</a>
</g>
</g>
<!-- src/routes/collection/couz/+page.svelte.ts&#45;&gt;src/lib/userEditsCollection/userEditsCollection.ts -->
<g id="edge38" class="edge">
<title>src/routes/collection/couz/+page.svelte.ts&#45;&gt;src/lib/userEditsCollection/userEditsCollection.ts</title>
<path fill="none" stroke="#000000" stroke-width="2" stroke-opacity="0.200000" d="M114.23,-58.2C116.44,-59.83 118.42,-61.74 120,-64 132.23,-81.42 115.28,-429.94 128,-447 130.94,-450.94 134.59,-454.19 138.68,-456.87"/>
<polygon fill="#000000" fill-opacity="0.200000" stroke="#000000" stroke-width="2" stroke-opacity="0.200000" points="137.81,-458.79 144.05,-459.97 139.9,-455.15 137.81,-458.79"/>
</g>
<!-- src/routes/collection/couz/arrow&#45;down.svg.svelte.ts -->
<g id="node22" class="node">
<title>src/routes/collection/couz/arrow&#45;down.svg.svelte.ts</title>
<g id="a_node22"><a xlink:href="src/routes/collection/couz/arrow-down.svg.svelte.ts" xlink:title="arrow&#45;down.svg.svelte.ts">
<path fill="#ddfeff" stroke="black" d="M250.5,-58C250.5,-58 144.5,-58 144.5,-58 141.5,-58 138.5,-55 138.5,-52 138.5,-52 138.5,-46 138.5,-46 138.5,-43 141.5,-40 144.5,-40 144.5,-40 250.5,-40 250.5,-40 253.5,-40 256.5,-43 256.5,-46 256.5,-46 256.5,-52 256.5,-52 256.5,-55 253.5,-58 250.5,-58"/>
<text text-anchor="start" x="146.5" y="-46.8" font-family="Helvetica,sans-Serif" font-size="9.00">arrow&#45;down.svg.svelte.ts</text>
</a>
</g>
</g>
<!-- src/routes/collection/couz/+page.svelte.ts&#45;&gt;src/routes/collection/couz/arrow&#45;down.svg.svelte.ts -->
<g id="edge36" class="edge">
<title>src/routes/collection/couz/+page.svelte.ts&#45;&gt;src/routes/collection/couz/arrow&#45;down.svg.svelte.ts</title>
<path fill="none" stroke="#000000" stroke-width="2" stroke-opacity="0.200000" d="M119.78,-49C123.83,-49 128.02,-49 132.26,-49"/>
<polygon fill="#000000" fill-opacity="0.200000" stroke="#000000" stroke-width="2" stroke-opacity="0.200000" points="132.49,-51.1 138.49,-49 132.49,-46.9 132.49,-51.1"/>
</g>
<!-- src/routes/collection/couz/arrow&#45;up.svg.svelte.ts -->
<g id="node23" class="node">
<title>src/routes/collection/couz/arrow&#45;up.svg.svelte.ts</title>
<g id="a_node23"><a xlink:href="src/routes/collection/couz/arrow-up.svg.svelte.ts" xlink:title="arrow&#45;up.svg.svelte.ts">
<path fill="#ddfeff" stroke="black" d="M244.5,-88C244.5,-88 150.5,-88 150.5,-88 147.5,-88 144.5,-85 144.5,-82 144.5,-82 144.5,-76 144.5,-76 144.5,-73 147.5,-70 150.5,-70 150.5,-70 244.5,-70 244.5,-70 247.5,-70 250.5,-73 250.5,-76 250.5,-76 250.5,-82 250.5,-82 250.5,-85 247.5,-88 244.5,-88"/>
<text text-anchor="start" x="152.5" y="-76.8" font-family="Helvetica,sans-Serif" font-size="9.00">arrow&#45;up.svg.svelte.ts</text>
</a>
</g>
</g>
<!-- src/routes/collection/couz/+page.svelte.ts&#45;&gt;src/routes/collection/couz/arrow&#45;up.svg.svelte.ts -->
<g id="edge37" class="edge">
<title>src/routes/collection/couz/+page.svelte.ts&#45;&gt;src/routes/collection/couz/arrow&#45;up.svg.svelte.ts</title>
<path fill="none" stroke="#000000" stroke-width="2" stroke-opacity="0.200000" d="M107.72,-58C114.31,-60.09 121.38,-62.22 128,-64 133.82,-65.56 139.95,-67.08 146.05,-68.52"/>
<polygon fill="#000000" fill-opacity="0.200000" stroke="#000000" stroke-width="2" stroke-opacity="0.200000" points="145.82,-70.62 152.14,-69.92 146.76,-66.52 145.82,-70.62"/>
</g>
</g>
</svg>
