<?xml version="1.0" encoding="UTF-8" standalone="no"?>
<!DOCTYPE svg PUBLIC "-//W3C//DTD SVG 1.1//EN"
 "http://www.w3.org/Graphics/SVG/1.1/DTD/svg11.dtd">
<!-- Generated by graphviz version 2.50.0 (20211204.2007)
 -->
<!-- Title: dependency&#45;cruiser output Pages: 1 -->
<svg width="525pt" height="418pt"
 viewBox="0.00 0.00 525.00 418.00" xmlns="http://www.w3.org/2000/svg" xmlns:xlink="http://www.w3.org/1999/xlink">
<g id="graph0" class="graph" transform="scale(1 1) rotate(0) translate(4 414)">
<title>dependency&#45;cruiser output</title>
<polygon fill="white" stroke="transparent" points="-4,4 -4,-414 521,-414 521,4 -4,4"/>
<g id="clust1" class="cluster">
<title>cluster_src</title>
<path fill="#ffffff" stroke="black" stroke-width="2" d="M20,-8C20,-8 497,-8 497,-8 503,-8 509,-14 509,-20 509,-20 509,-390 509,-390 509,-396 503,-402 497,-402 497,-402 20,-402 20,-402 14,-402 8,-396 8,-390 8,-390 8,-20 8,-20 8,-14 14,-8 20,-8"/>
<text text-anchor="middle" x="258.5" y="-390.8" font-family="Helvetica,sans-Serif" font-weight="bold" font-size="9.00">src</text>
</g>
<g id="clust2" class="cluster">
<title>cluster_src/lib</title>
<path fill="#ffffff" stroke="black" stroke-width="2" d="M140,-230C140,-230 489,-230 489,-230 495,-230 501,-236 501,-242 501,-242 501,-364 501,-364 501,-370 495,-376 489,-376 489,-376 140,-376 140,-376 134,-376 128,-370 128,-364 128,-364 128,-242 128,-242 128,-236 134,-230 140,-230"/>
<text text-anchor="middle" x="314.5" y="-364.8" font-family="Helvetica,sans-Serif" font-weight="bold" font-size="9.00">lib</text>
</g>
<g id="clust3" class="cluster">
<title>cluster_src/lib/userBrowsesItsCollection</title>
<path fill="#ffffff" stroke="black" stroke-width="2" d="M148,-238C148,-238 481,-238 481,-238 487,-238 493,-244 493,-250 493,-250 493,-338 493,-338 493,-344 487,-350 481,-350 481,-350 148,-350 148,-350 142,-350 136,-344 136,-338 136,-338 136,-250 136,-250 136,-244 142,-238 148,-238"/>
<text text-anchor="middle" x="314.5" y="-338.8" font-family="Helvetica,sans-Serif" font-weight="bold" font-size="9.00">userBrowsesItsCollection</text>
</g>
<g id="clust4" class="cluster">
<title>cluster_src/routes</title>
<path fill="#ffffff" stroke="black" stroke-width="2" d="M28,-16C28,-16 382,-16 382,-16 388,-16 394,-22 394,-28 394,-28 394,-210 394,-210 394,-216 388,-222 382,-222 382,-222 28,-222 28,-222 22,-222 16,-216 16,-210 16,-210 16,-28 16,-28 16,-22 22,-16 28,-16"/>
<text text-anchor="middle" x="205" y="-210.8" font-family="Helvetica,sans-Serif" font-weight="bold" font-size="9.00">routes</text>
</g>
<g id="clust5" class="cluster">
<title>cluster_src/routes/cards</title>
<path fill="#ffffff" stroke="black" stroke-width="2" d="M36,-84C36,-84 108,-84 108,-84 114,-84 120,-90 120,-96 120,-96 120,-124 120,-124 120,-130 114,-136 108,-136 108,-136 36,-136 36,-136 30,-136 24,-130 24,-124 24,-124 24,-96 24,-96 24,-90 30,-84 36,-84"/>
<text text-anchor="middle" x="72" y="-124.8" font-family="Helvetica,sans-Serif" font-weight="bold" font-size="9.00">cards</text>
</g>
<g id="clust6" class="cluster">
<title>cluster_src/routes/collection</title>
<path fill="#ffffff" stroke="black" stroke-width="2" d="M36.5,-24C36.5,-24 374,-24 374,-24 380,-24 386,-30 386,-36 386,-36 386,-64 386,-64 386,-70 380,-76 374,-76 374,-76 36.5,-76 36.5,-76 30.5,-76 24.5,-70 24.5,-64 24.5,-64 24.5,-36 24.5,-36 24.5,-30 30.5,-24 36.5,-24"/>
<text text-anchor="middle" x="205.25" y="-64.8" font-family="Helvetica,sans-Serif" font-weight="bold" font-size="9.00">collection</text>
</g>
<g id="clust7" class="cluster">
<title>cluster_src/routes/packs</title>
<path fill="#ffffff" stroke="black" stroke-width="2" d="M36,-144C36,-144 108,-144 108,-144 114,-144 120,-150 120,-156 120,-156 120,-184 120,-184 120,-190 114,-196 108,-196 108,-196 36,-196 36,-196 30,-196 24,-190 24,-184 24,-184 24,-156 24,-156 24,-150 30,-144 36,-144"/>
<text text-anchor="middle" x="72" y="-184.8" font-family="Helvetica,sans-Serif" font-weight="bold" font-size="9.00">packs</text>
</g>
<!-- src/lib/userBrowsesItsCollection/ahdb.cards.json -->
<g id="node1" class="node">
<title>src/lib/userBrowsesItsCollection/ahdb.cards.json</title>
<g id="a_node1"><a xlink:href="src/lib/userBrowsesItsCollection/ahdb.cards.json" xlink:title="ahdb.cards.json">
<path fill="#ffee44" stroke="black" d="M479,-279C479,-279 408,-279 408,-279 405,-279 402,-276 402,-273 402,-273 402,-267 402,-267 402,-264 405,-261 408,-261 408,-261 479,-261 479,-261 482,-261 485,-264 485,-267 485,-267 485,-273 485,-273 485,-276 482,-279 479,-279"/>
<text text-anchor="start" x="410" y="-267.8" font-family="Helvetica,sans-Serif" font-size="9.00">ahdb.cards.json</text>
</a>
</g>
</g>
<!-- src/lib/userBrowsesItsCollection/ahdb.packs.json -->
<g id="node2" class="node">
<title>src/lib/userBrowsesItsCollection/ahdb.packs.json</title>
<g id="a_node2"><a xlink:href="src/lib/userBrowsesItsCollection/ahdb.packs.json" xlink:title="ahdb.packs.json">
<path fill="#ffee44" stroke="black" d="M362.5,-324C362.5,-324 289.5,-324 289.5,-324 286.5,-324 283.5,-321 283.5,-318 283.5,-318 283.5,-312 283.5,-312 283.5,-309 286.5,-306 289.5,-306 289.5,-306 362.5,-306 362.5,-306 365.5,-306 368.5,-309 368.5,-312 368.5,-312 368.5,-318 368.5,-318 368.5,-321 365.5,-324 362.5,-324"/>
<text text-anchor="start" x="291.5" y="-312.8" font-family="Helvetica,sans-Serif" font-size="9.00">ahdb.packs.json</text>
</a>
</g>
</g>
<!-- src/lib/userBrowsesItsCollection/couz.json -->
<g id="node3" class="node">
<title>src/lib/userBrowsesItsCollection/couz.json</title>
<g id="a_node3"><a xlink:href="src/lib/userBrowsesItsCollection/couz.json" xlink:title="couz.json">
<path fill="#ffee44" stroke="black" d="M348,-264C348,-264 304,-264 304,-264 301,-264 298,-261 298,-258 298,-258 298,-252 298,-252 298,-249 301,-246 304,-246 304,-246 348,-246 348,-246 351,-246 354,-249 354,-252 354,-252 354,-258 354,-258 354,-261 351,-264 348,-264"/>
<text text-anchor="start" x="306" y="-252.8" font-family="Helvetica,sans-Serif" font-size="9.00">couz.json</text>
</a>
</g>
</g>
<!-- src/lib/userBrowsesItsCollection/regroupByPockets.ts -->
<g id="node4" class="node">
<title>src/lib/userBrowsesItsCollection/regroupByPockets.ts</title>
<g id="a_node4"><a xlink:href="src/lib/userBrowsesItsCollection/regroupByPockets.ts" xlink:title="regroupByPockets.ts">
<path fill="#ddfeff" stroke="black" d="M370.5,-294C370.5,-294 281.5,-294 281.5,-294 278.5,-294 275.5,-291 275.5,-288 275.5,-288 275.5,-282 275.5,-282 275.5,-279 278.5,-276 281.5,-276 281.5,-276 370.5,-276 370.5,-276 373.5,-276 376.5,-279 376.5,-282 376.5,-282 376.5,-288 376.5,-288 376.5,-291 373.5,-294 370.5,-294"/>
<text text-anchor="start" x="283.5" y="-282.8" font-family="Helvetica,sans-Serif" font-size="9.00">regroupByPockets.ts</text>
</a>
</g>
</g>
<!-- src/lib/userBrowsesItsCollection/regroupByPockets.ts&#45;&gt;src/lib/userBrowsesItsCollection/ahdb.cards.json -->
<g id="edge1" class="edge">
<title>src/lib/userBrowsesItsCollection/regroupByPockets.ts&#45;&gt;src/lib/userBrowsesItsCollection/ahdb.cards.json</title>
<path fill="none" stroke="#000000" stroke-width="2" stroke-opacity="0.200000" d="M376.65,-278.55C382.98,-277.73 389.44,-276.89 395.72,-276.08"/>
<polygon fill="#000000" fill-opacity="0.200000" stroke="#000000" stroke-width="2" stroke-opacity="0.200000" points="396.25,-278.12 401.93,-275.27 395.71,-273.96 396.25,-278.12"/>
</g>
<!-- src/lib/userBrowsesItsCollection/userEditsItsCollection.ts -->
<g id="node5" class="node">
<title>src/lib/userBrowsesItsCollection/userEditsItsCollection.ts</title>
<g id="a_node5"><a xlink:href="src/lib/userBrowsesItsCollection/userEditsItsCollection.ts" xlink:title="userEditsItsCollection.ts">
<path fill="#ddfeff" stroke="black" d="M255,-273C255,-273 150,-273 150,-273 147,-273 144,-270 144,-267 144,-267 144,-261 144,-261 144,-258 147,-255 150,-255 150,-255 255,-255 255,-255 258,-255 261,-258 261,-261 261,-261 261,-267 261,-267 261,-270 258,-273 255,-273"/>
<text text-anchor="start" x="152" y="-261.8" font-family="Helvetica,sans-Serif" font-size="9.00">userEditsItsCollection.ts</text>
</a>
</g>
</g>
<!-- src/lib/userBrowsesItsCollection/userEditsItsCollection.ts&#45;&gt;src/lib/userBrowsesItsCollection/ahdb.packs.json -->
<g id="edge2" class="edge">
<title>src/lib/userBrowsesItsCollection/userEditsItsCollection.ts&#45;&gt;src/lib/userBrowsesItsCollection/ahdb.packs.json</title>
<path fill="none" stroke="#000000" stroke-width="2" stroke-opacity="0.200000" d="M219.07,-273.01C233.1,-280.88 254.47,-292.22 274,-300 277.54,-301.41 281.27,-302.76 285.04,-304.03"/>
<polygon fill="#000000" fill-opacity="0.200000" stroke="#000000" stroke-width="2" stroke-opacity="0.200000" points="284.6,-306.09 290.96,-305.95 285.9,-302.1 284.6,-306.09"/>
</g>
<!-- src/lib/userBrowsesItsCollection/userEditsItsCollection.ts&#45;&gt;src/lib/userBrowsesItsCollection/couz.json -->
<g id="edge3" class="edge">
<title>src/lib/userBrowsesItsCollection/userEditsItsCollection.ts&#45;&gt;src/lib/userBrowsesItsCollection/couz.json</title>
<path fill="none" stroke="#000000" stroke-width="2" stroke-opacity="0.200000" d="M261.05,-259.74C271.61,-258.95 282.31,-258.16 291.85,-257.46"/>
<polygon fill="#000000" fill-opacity="0.200000" stroke="#000000" stroke-width="2" stroke-opacity="0.200000" points="292.11,-259.54 297.94,-257 291.8,-255.35 292.11,-259.54"/>
</g>
<!-- src/lib/userBrowsesItsCollection/userEditsItsCollection.ts&#45;&gt;src/lib/userBrowsesItsCollection/regroupByPockets.ts -->
<g id="edge4" class="edge">
<title>src/lib/userBrowsesItsCollection/userEditsItsCollection.ts&#45;&gt;src/lib/userBrowsesItsCollection/regroupByPockets.ts</title>
<path fill="none" stroke="#000000" stroke-width="2" stroke-opacity="0.200000" d="M255.73,-273.03C260.15,-273.79 264.64,-274.57 269.09,-275.34"/>
<polygon fill="#000000" fill-opacity="0.200000" stroke="#000000" stroke-width="2" stroke-opacity="0.200000" points="268.85,-277.43 275.12,-276.38 269.57,-273.29 268.85,-277.43"/>
</g>
<!-- src/routes/cards/+page.server.ts -->
<g id="node6" class="node">
<title>src/routes/cards/+page.server.ts</title>
<g id="a_node6"><a xlink:href="src/routes/cards/+page.server.ts" xlink:title="+page.server.ts">
<path fill="#ddfeff" stroke="black" d="M106,-110C106,-110 38,-110 38,-110 35,-110 32,-107 32,-104 32,-104 32,-98 32,-98 32,-95 35,-92 38,-92 38,-92 106,-92 106,-92 109,-92 112,-95 112,-98 112,-98 112,-104 112,-104 112,-107 109,-110 106,-110"/>
<text text-anchor="start" x="40" y="-98.8" font-family="Helvetica,sans-Serif" font-size="9.00">+page.server.ts</text>
</a>
</g>
</g>
<!-- src/routes/cards/+page.server.ts&#45;&gt;src/lib/userBrowsesItsCollection/ahdb.cards.json -->
<g id="edge5" class="edge">
<title>src/routes/cards/+page.server.ts&#45;&gt;src/lib/userBrowsesItsCollection/ahdb.cards.json</title>
<path fill="none" stroke="#000000" stroke-width="2" stroke-opacity="0.200000" d="M97.31,-110.13C151.65,-130.83 286.61,-183.91 394,-240 404.03,-245.24 414.77,-251.78 423.59,-257.41"/>
<polygon fill="#000000" fill-opacity="0.200000" stroke="#000000" stroke-width="2" stroke-opacity="0.200000" points="422.63,-259.29 428.81,-260.79 424.91,-255.77 422.63,-259.29"/>
</g>
<!-- src/routes/collection/+page.svelte.ts -->
<g id="node7" class="node">
<title>src/routes/collection/+page.svelte.ts</title>
<g id="a_node7"><a xlink:href="src/routes/collection/+page.svelte.ts" xlink:title="+page.svelte.ts">
<path fill="#ddfeff" stroke="black" d="M105.5,-50C105.5,-50 38.5,-50 38.5,-50 35.5,-50 32.5,-47 32.5,-44 32.5,-44 32.5,-38 32.5,-38 32.5,-35 35.5,-32 38.5,-32 38.5,-32 105.5,-32 105.5,-32 108.5,-32 111.5,-35 111.5,-38 111.5,-38 111.5,-44 111.5,-44 111.5,-47 108.5,-50 105.5,-50"/>
<text text-anchor="start" x="40.5" y="-38.8" font-family="Helvetica,sans-Serif" font-size="9.00">+page.svelte.ts</text>
</a>
</g>
</g>
<!-- src/routes/collection/+page.svelte.ts&#45;&gt;src/lib/userBrowsesItsCollection/userEditsItsCollection.ts -->
<g id="edge7" class="edge">
<title>src/routes/collection/+page.svelte.ts&#45;&gt;src/lib/userBrowsesItsCollection/userEditsItsCollection.ts</title>
<path fill="none" stroke="#000000" stroke-width="2" stroke-opacity="0.200000" d="M86.81,-50.18C97.04,-57.53 110.76,-68.65 120,-81 161.41,-136.35 187.64,-216.06 197.31,-248.94"/>
<polygon fill="#000000" fill-opacity="0.200000" stroke="#000000" stroke-width="2" stroke-opacity="0.200000" points="195.34,-249.69 199.02,-254.87 199.37,-248.53 195.34,-249.69"/>
</g>
<!-- src/routes/collection/Binder.svelte.ts -->
<g id="node8" class="node">
<title>src/routes/collection/Binder.svelte.ts</title>
<g id="a_node8"><a xlink:href="src/routes/collection/Binder.svelte.ts" xlink:title="Binder.svelte.ts">
<path fill="#ddfeff" stroke="black" d="M236.5,-50C236.5,-50 168.5,-50 168.5,-50 165.5,-50 162.5,-47 162.5,-44 162.5,-44 162.5,-38 162.5,-38 162.5,-35 165.5,-32 168.5,-32 168.5,-32 236.5,-32 236.5,-32 239.5,-32 242.5,-35 242.5,-38 242.5,-38 242.5,-44 242.5,-44 242.5,-47 239.5,-50 236.5,-50"/>
<text text-anchor="start" x="170.5" y="-38.8" font-family="Helvetica,sans-Serif" font-size="9.00">Binder.svelte.ts</text>
</a>
</g>
</g>
<!-- src/routes/collection/+page.svelte.ts&#45;&gt;src/routes/collection/Binder.svelte.ts -->
<g id="edge6" class="edge">
<title>src/routes/collection/+page.svelte.ts&#45;&gt;src/routes/collection/Binder.svelte.ts</title>
<path fill="none" stroke="#000000" stroke-width="2" stroke-opacity="0.200000" d="M111.55,-41C125.53,-41 141.44,-41 155.96,-41"/>
<polygon fill="#000000" fill-opacity="0.200000" stroke="#000000" stroke-width="2" stroke-opacity="0.200000" points="156.08,-43.1 162.08,-41 156.08,-38.9 156.08,-43.1"/>
</g>
<!-- src/routes/collection/PocketSheet.svelte.ts -->
<g id="node9" class="node">
<title>src/routes/collection/PocketSheet.svelte.ts</title>
<g id="a_node9"><a xlink:href="src/routes/collection/PocketSheet.svelte.ts" xlink:title="PocketSheet.svelte.ts">
<path fill="#ddfeff" stroke="black" d="M372,-50C372,-50 280,-50 280,-50 277,-50 274,-47 274,-44 274,-44 274,-38 274,-38 274,-35 277,-32 280,-32 280,-32 372,-32 372,-32 375,-32 378,-35 378,-38 378,-38 378,-44 378,-44 378,-47 375,-50 372,-50"/>
<text text-anchor="start" x="282" y="-38.8" font-family="Helvetica,sans-Serif" font-size="9.00">PocketSheet.svelte.ts</text>
</a>
</g>
</g>
<!-- src/routes/collection/Binder.svelte.ts&#45;&gt;src/routes/collection/PocketSheet.svelte.ts -->
<g id="edge8" class="edge">
<title>src/routes/collection/Binder.svelte.ts&#45;&gt;src/routes/collection/PocketSheet.svelte.ts</title>
<path fill="none" stroke="#000000" stroke-width="2" stroke-opacity="0.200000" d="M242.61,-41C250.57,-41 259.1,-41 267.55,-41"/>
<polygon fill="#000000" fill-opacity="0.200000" stroke="#000000" stroke-width="2" stroke-opacity="0.200000" points="267.98,-43.1 273.98,-41 267.98,-38.9 267.98,-43.1"/>
</g>
<!-- src/routes/packs/+page.server.ts -->
<g id="node10" class="node">
<title>src/routes/packs/+page.server.ts</title>
<g id="a_node10"><a xlink:href="src/routes/packs/+page.server.ts" xlink:title="+page.server.ts">
<path fill="#ddfeff" stroke="black" d="M106,-170C106,-170 38,-170 38,-170 35,-170 32,-167 32,-164 32,-164 32,-158 32,-158 32,-155 35,-152 38,-152 38,-152 106,-152 106,-152 109,-152 112,-155 112,-158 112,-158 112,-164 112,-164 112,-167 109,-170 106,-170"/>
<text text-anchor="start" x="40" y="-158.8" font-family="Helvetica,sans-Serif" font-size="9.00">+page.server.ts</text>
</a>
</g>
</g>
<!-- src/routes/packs/+page.server.ts&#45;&gt;src/lib/userBrowsesItsCollection/ahdb.packs.json -->
<g id="edge9" class="edge">
<title>src/routes/packs/+page.server.ts&#45;&gt;src/lib/userBrowsesItsCollection/ahdb.packs.json</title>
<path fill="none" stroke="#000000" stroke-width="2" stroke-opacity="0.200000" d="M74.37,-170.14C78.25,-192.62 91.51,-250.81 128,-279 170.62,-311.92 233.78,-318.18 277.02,-317.99"/>
<polygon fill="#000000" fill-opacity="0.200000" stroke="#000000" stroke-width="2" stroke-opacity="0.200000" points="277.28,-320.09 283.25,-317.92 277.23,-315.89 277.28,-320.09"/>
</g>
</g>
</svg>
