<?xml version="1.0" encoding="UTF-8" standalone="no"?>
<!DOCTYPE svg PUBLIC "-//W3C//DTD SVG 1.1//EN"
 "http://www.w3.org/Graphics/SVG/1.1/DTD/svg11.dtd">
<!-- Generated by graphviz version 2.50.0 (20211204.2007)
 -->
<!-- Title: dependency&#45;cruiser output Pages: 1 -->
<svg width="764pt" height="632pt"
 viewBox="0.00 0.00 764.00 632.00" xmlns="http://www.w3.org/2000/svg" xmlns:xlink="http://www.w3.org/1999/xlink">
<g id="graph0" class="graph" transform="scale(1 1) rotate(0) translate(4 628)">
<title>dependency&#45;cruiser output</title>
<polygon fill="white" stroke="transparent" points="-4,4 -4,-628 760,-628 760,4 -4,4"/>
<g id="clust1" class="cluster">
<title>cluster_src</title>
<path fill="#ffffff" stroke="black" stroke-width="2" d="M20,-8C20,-8 736,-8 736,-8 742,-8 748,-14 748,-20 748,-20 748,-604 748,-604 748,-610 742,-616 736,-616 736,-616 20,-616 20,-616 14,-616 8,-610 8,-604 8,-604 8,-20 8,-20 8,-14 14,-8 20,-8"/>
<text text-anchor="middle" x="378" y="-604.8" font-family="Helvetica,sans-Serif" font-weight="bold" font-size="9.00">src</text>
</g>
<g id="clust2" class="cluster">
<title>cluster_src/gathering</title>
<path fill="#ffffff" stroke="black" stroke-width="2" d="M313,-230C313,-230 728,-230 728,-230 734,-230 740,-236 740,-242 740,-242 740,-576 740,-576 740,-582 734,-588 728,-588 728,-588 313,-588 313,-588 307,-588 301,-582 301,-576 301,-576 301,-242 301,-242 301,-236 307,-230 313,-230"/>
<text text-anchor="middle" x="520.5" y="-576.8" font-family="Helvetica,sans-Serif" font-weight="bold" font-size="9.00">gathering</text>
</g>
<g id="clust3" class="cluster">
<title>cluster_src/gathering/CollectionEditor</title>
<path fill="#ffffff" stroke="black" stroke-width="2" d="M321,-396C321,-396 425,-396 425,-396 431,-396 437,-402 437,-408 437,-408 437,-466 437,-466 437,-472 431,-478 425,-478 425,-478 321,-478 321,-478 315,-478 309,-472 309,-466 309,-466 309,-408 309,-408 309,-402 315,-396 321,-396"/>
<text text-anchor="middle" x="373" y="-466.8" font-family="Helvetica,sans-Serif" font-weight="bold" font-size="9.00">CollectionEditor</text>
</g>
<g id="clust4" class="cluster">
<title>cluster_src/gathering/CollectionEntity</title>
<path fill="#ffffff" stroke="black" stroke-width="2" d="M463.5,-396C463.5,-396 544.5,-396 544.5,-396 550.5,-396 556.5,-402 556.5,-408 556.5,-408 556.5,-436 556.5,-436 556.5,-442 550.5,-448 544.5,-448 544.5,-448 463.5,-448 463.5,-448 457.5,-448 451.5,-442 451.5,-436 451.5,-436 451.5,-408 451.5,-408 451.5,-402 457.5,-396 463.5,-396"/>
<text text-anchor="middle" x="504" y="-436.8" font-family="Helvetica,sans-Serif" font-weight="bold" font-size="9.00">CollectionEntity</text>
</g>
<g id="clust5" class="cluster">
<title>cluster_src/gathering/CollectionLoader</title>
<path fill="#ffffff" stroke="black" stroke-width="2" d="M328.5,-486C328.5,-486 417.5,-486 417.5,-486 423.5,-486 429.5,-492 429.5,-498 429.5,-498 429.5,-526 429.5,-526 429.5,-532 423.5,-538 417.5,-538 417.5,-538 328.5,-538 328.5,-538 322.5,-538 316.5,-532 316.5,-526 316.5,-526 316.5,-498 316.5,-498 316.5,-492 322.5,-486 328.5,-486"/>
<text text-anchor="middle" x="373" y="-526.8" font-family="Helvetica,sans-Serif" font-weight="bold" font-size="9.00">CollectionLoader</text>
</g>
<g id="clust6" class="cluster">
<title>cluster_src/gathering/CollectionOrganizer</title>
<path fill="#ffffff" stroke="black" stroke-width="2" d="M323.5,-305C323.5,-305 422.5,-305 422.5,-305 428.5,-305 434.5,-311 434.5,-317 434.5,-317 434.5,-345 434.5,-345 434.5,-351 428.5,-357 422.5,-357 422.5,-357 323.5,-357 323.5,-357 317.5,-357 311.5,-351 311.5,-345 311.5,-345 311.5,-317 311.5,-317 311.5,-311 317.5,-305 323.5,-305"/>
<text text-anchor="middle" x="373" y="-345.8" font-family="Helvetica,sans-Serif" font-weight="bold" font-size="9.00">CollectionOrganizer</text>
</g>
<g id="clust7" class="cluster">
<title>cluster_src/lib</title>
<path fill="#ffffff" stroke="black" stroke-width="2" d="M140,-444C140,-444 281,-444 281,-444 287,-444 293,-450 293,-456 293,-456 293,-578 293,-578 293,-584 287,-590 281,-590 281,-590 140,-590 140,-590 134,-590 128,-584 128,-578 128,-578 128,-456 128,-456 128,-450 134,-444 140,-444"/>
<text text-anchor="middle" x="210.5" y="-578.8" font-family="Helvetica,sans-Serif" font-weight="bold" font-size="9.00">lib</text>
</g>
<g id="clust8" class="cluster">
<title>cluster_src/lib/userBrowsesItsCollection</title>
<path fill="#ffffff" stroke="black" stroke-width="2" d="M148,-452C148,-452 273,-452 273,-452 279,-452 285,-458 285,-464 285,-464 285,-492 285,-492 285,-498 279,-504 273,-504 273,-504 148,-504 148,-504 142,-504 136,-498 136,-492 136,-492 136,-464 136,-464 136,-458 142,-452 148,-452"/>
<text text-anchor="middle" x="210.5" y="-492.8" font-family="Helvetica,sans-Serif" font-weight="bold" font-size="9.00">userBrowsesItsCollection</text>
</g>
<g id="clust9" class="cluster">
<title>cluster_src/lib/userEditsItsCollection</title>
<path fill="#ffffff" stroke="black" stroke-width="2" d="M156,-512C156,-512 265,-512 265,-512 271,-512 277,-518 277,-524 277,-524 277,-552 277,-552 277,-558 271,-564 265,-564 265,-564 156,-564 156,-564 150,-564 144,-558 144,-552 144,-552 144,-524 144,-524 144,-518 150,-512 156,-512"/>
<text text-anchor="middle" x="210.5" y="-552.8" font-family="Helvetica,sans-Serif" font-weight="bold" font-size="9.00">userEditsItsCollection</text>
</g>
<g id="clust10" class="cluster">
<title>cluster_src/routes</title>
<path fill="#ffffff" stroke="black" stroke-width="2" d="M28,-16C28,-16 429,-16 429,-16 435,-16 441,-22 441,-28 441,-28 441,-210 441,-210 441,-216 435,-222 429,-222 429,-222 28,-222 28,-222 22,-222 16,-216 16,-210 16,-210 16,-28 16,-28 16,-22 22,-16 28,-16"/>
<text text-anchor="middle" x="228.5" y="-210.8" font-family="Helvetica,sans-Serif" font-weight="bold" font-size="9.00">routes</text>
</g>
<g id="clust11" class="cluster">
<title>cluster_src/routes/cards</title>
<path fill="#ffffff" stroke="black" stroke-width="2" d="M36,-84C36,-84 108,-84 108,-84 114,-84 120,-90 120,-96 120,-96 120,-124 120,-124 120,-130 114,-136 108,-136 108,-136 36,-136 36,-136 30,-136 24,-130 24,-124 24,-124 24,-96 24,-96 24,-90 30,-84 36,-84"/>
<text text-anchor="middle" x="72" y="-124.8" font-family="Helvetica,sans-Serif" font-weight="bold" font-size="9.00">cards</text>
</g>
<g id="clust12" class="cluster">
<title>cluster_src/routes/collection</title>
<path fill="#ffffff" stroke="black" stroke-width="2" d="M36.5,-24C36.5,-24 421,-24 421,-24 427,-24 433,-30 433,-36 433,-36 433,-64 433,-64 433,-70 427,-76 421,-76 421,-76 36.5,-76 36.5,-76 30.5,-76 24.5,-70 24.5,-64 24.5,-64 24.5,-36 24.5,-36 24.5,-30 30.5,-24 36.5,-24"/>
<text text-anchor="middle" x="228.75" y="-64.8" font-family="Helvetica,sans-Serif" font-weight="bold" font-size="9.00">collection</text>
</g>
<g id="clust13" class="cluster">
<title>cluster_src/routes/packs</title>
<path fill="#ffffff" stroke="black" stroke-width="2" d="M36,-144C36,-144 108,-144 108,-144 114,-144 120,-150 120,-156 120,-156 120,-184 120,-184 120,-190 114,-196 108,-196 108,-196 36,-196 36,-196 30,-196 24,-190 24,-184 24,-184 24,-156 24,-156 24,-150 30,-144 36,-144"/>
<text text-anchor="middle" x="72" y="-184.8" font-family="Helvetica,sans-Serif" font-weight="bold" font-size="9.00">packs</text>
</g>
<!-- src/gathering/Collection.ts -->
<g id="node1" class="node">
<title>src/gathering/Collection.ts</title>
<g id="a_node1"><a xlink:href="src/gathering/Collection.ts" xlink:title="Collection.ts">
<path fill="#ddfeff" stroke="black" d="M646.5,-548C646.5,-548 590.5,-548 590.5,-548 587.5,-548 584.5,-545 584.5,-542 584.5,-542 584.5,-536 584.5,-536 584.5,-533 587.5,-530 590.5,-530 590.5,-530 646.5,-530 646.5,-530 649.5,-530 652.5,-533 652.5,-536 652.5,-536 652.5,-542 652.5,-542 652.5,-545 649.5,-548 646.5,-548"/>
<text text-anchor="start" x="592.5" y="-536.8" font-family="Helvetica,sans-Serif" font-size="9.00">Collection.ts</text>
</a>
</g>
</g>
<!-- src/gathering/Pack.ts -->
<g id="node2" class="node">
<title>src/gathering/Pack.ts</title>
<g id="a_node2"><a xlink:href="src/gathering/Pack.ts" xlink:title="Pack.ts">
<path fill="#ddfeff" stroke="black" d="M726,-433C726,-433 684,-433 684,-433 681,-433 678,-430 678,-427 678,-427 678,-421 678,-421 678,-418 681,-415 684,-415 684,-415 726,-415 726,-415 729,-415 732,-418 732,-421 732,-421 732,-427 732,-427 732,-430 729,-433 726,-433"/>
<text text-anchor="start" x="689.5" y="-421.8" font-family="Helvetica,sans-Serif" font-size="9.00">Pack.ts</text>
</a>
</g>
</g>
<!-- src/gathering/Collection.ts&#45;&gt;src/gathering/Pack.ts -->
<g id="edge1" class="edge">
<title>src/gathering/Collection.ts&#45;&gt;src/gathering/Pack.ts</title>
<path fill="none" stroke="#000000" stroke-opacity="0.200000" d="M626.13,-529.98C640.74,-510.09 675.82,-462.35 693.48,-438.32"/>
<polygon fill="none" stroke="#000000" stroke-opacity="0.200000" points="695.31,-439.38 697.17,-433.3 691.92,-436.89 695.31,-439.38"/>
</g>
<!-- src/gathering/CollectionEditor/CollectionEditor.ts -->
<g id="node3" class="node">
<title>src/gathering/CollectionEditor/CollectionEditor.ts</title>
<g id="a_node3"><a xlink:href="src/gathering/CollectionEditor/CollectionEditor.ts" xlink:title="CollectionEditor.ts">
<path fill="#ddfeff" stroke="black" d="M413,-452C413,-452 333,-452 333,-452 330,-452 327,-449 327,-446 327,-446 327,-440 327,-440 327,-437 330,-434 333,-434 333,-434 413,-434 413,-434 416,-434 419,-437 419,-440 419,-440 419,-446 419,-446 419,-449 416,-452 413,-452"/>
<text text-anchor="start" x="335" y="-440.8" font-family="Helvetica,sans-Serif" font-size="9.00">CollectionEditor.ts</text>
</a>
</g>
</g>
<!-- src/gathering/CollectionEditor/CollectionEditor.ts&#45;&gt;src/gathering/Pack.ts -->
<g id="edge4" class="edge">
<title>src/gathering/CollectionEditor/CollectionEditor.ts&#45;&gt;src/gathering/Pack.ts</title>
<path fill="none" stroke="#000000" stroke-opacity="0.200000" d="M419,-440.18C427.18,-437.78 435,-433.97 441,-428 452.31,-416.74 436.52,-402.95 449,-393 486.68,-362.96 618.17,-400.64 665,-412 667.19,-412.53 669.45,-413.12 671.71,-413.74"/>
<polygon fill="none" stroke="#000000" stroke-opacity="0.200000" points="671.34,-415.81 677.69,-415.43 672.49,-411.77 671.34,-415.81"/>
</g>
<!-- src/gathering/ICollectionEditor.ts -->
<g id="node4" class="node">
<title>src/gathering/ICollectionEditor.ts</title>
<g id="a_node4"><a xlink:href="src/gathering/ICollectionEditor.ts" xlink:title="ICollectionEditor.ts">
<path fill="#ddfeff" stroke="black" d="M545,-488C545,-488 463,-488 463,-488 460,-488 457,-485 457,-482 457,-482 457,-476 457,-476 457,-473 460,-470 463,-470 463,-470 545,-470 545,-470 548,-470 551,-473 551,-476 551,-476 551,-482 551,-482 551,-485 548,-488 545,-488"/>
<text text-anchor="start" x="465" y="-476.8" font-family="Helvetica,sans-Serif" font-size="9.00">ICollectionEditor.ts</text>
</a>
</g>
</g>
<!-- src/gathering/CollectionEditor/CollectionEditor.ts&#45;&gt;src/gathering/ICollectionEditor.ts -->
<g id="edge2" class="edge">
<title>src/gathering/CollectionEditor/CollectionEditor.ts&#45;&gt;src/gathering/ICollectionEditor.ts</title>
<path fill="none" stroke="#000000" stroke-opacity="0.200000" d="M406.55,-452.08C424.12,-456.99 445.92,-463.07 464.35,-468.21"/>
<polygon fill="none" stroke="#000000" stroke-opacity="0.200000" points="464.11,-470.33 470.46,-469.92 465.24,-466.28 464.11,-470.33"/>
</g>
<!-- src/gathering/ICollectionOutput.ts -->
<g id="node5" class="node">
<title>src/gathering/ICollectionOutput.ts</title>
<g id="a_node5"><a xlink:href="src/gathering/ICollectionOutput.ts" xlink:title="ICollectionOutput.ts">
<path fill="#ddfeff" stroke="black" d="M546.5,-548C546.5,-548 461.5,-548 461.5,-548 458.5,-548 455.5,-545 455.5,-542 455.5,-542 455.5,-536 455.5,-536 455.5,-533 458.5,-530 461.5,-530 461.5,-530 546.5,-530 546.5,-530 549.5,-530 552.5,-533 552.5,-536 552.5,-536 552.5,-542 552.5,-542 552.5,-545 549.5,-548 546.5,-548"/>
<text text-anchor="start" x="463.5" y="-536.8" font-family="Helvetica,sans-Serif" font-size="9.00">ICollectionOutput.ts</text>
</a>
</g>
</g>
<!-- src/gathering/CollectionEditor/CollectionEditor.ts&#45;&gt;src/gathering/ICollectionOutput.ts -->
<g id="edge3" class="edge">
<title>src/gathering/CollectionEditor/CollectionEditor.ts&#45;&gt;src/gathering/ICollectionOutput.ts</title>
<path fill="none" stroke="#000000" stroke-opacity="0.200000" d="M399.36,-452.06C413.75,-458.5 430.87,-468.59 441,-483 451.68,-498.19 436.4,-510.37 449,-524 449.66,-524.71 450.35,-525.4 451.07,-526.05"/>
<polygon fill="none" stroke="#000000" stroke-opacity="0.200000" points="450.12,-527.96 456.18,-529.9 452.65,-524.61 450.12,-527.96"/>
</g>
<!-- src/gathering/ICollectionEditor.ts&#45;&gt;src/gathering/Pack.ts -->
<g id="edge18" class="edge">
<title>src/gathering/ICollectionEditor.ts&#45;&gt;src/gathering/Pack.ts</title>
<path fill="none" stroke="#000000" stroke-opacity="0.200000" d="M551.21,-475.65C583.93,-472.08 628.35,-464.79 665,-450 673.18,-446.7 681.42,-441.53 688.21,-436.67"/>
<polygon fill="none" stroke="#000000" stroke-opacity="0.200000" points="689.52,-438.31 693.09,-433.05 687.02,-434.94 689.52,-438.31"/>
</g>
<!-- src/gathering/ICollectionOutput.ts&#45;&gt;src/gathering/Collection.ts -->
<g id="edge21" class="edge">
<title>src/gathering/ICollectionOutput.ts&#45;&gt;src/gathering/Collection.ts</title>
<path fill="none" stroke="#000000" stroke-opacity="0.200000" d="M552.71,-539C561.2,-539 569.97,-539 578.19,-539"/>
<polygon fill="none" stroke="#000000" stroke-opacity="0.200000" points="578.37,-541.1 584.37,-539 578.37,-536.9 578.37,-541.1"/>
</g>
<!-- src/gathering/CollectionEditor/PackRepositoryMock.ts -->
<g id="node6" class="node">
<title>src/gathering/CollectionEditor/PackRepositoryMock.ts</title>
<g id="a_node6"><a xlink:href="src/gathering/CollectionEditor/PackRepositoryMock.ts" xlink:title="PackRepositoryMock.ts">
<path fill="#ddfeff" stroke="black" d="M423,-422C423,-422 323,-422 323,-422 320,-422 317,-419 317,-416 317,-416 317,-410 317,-410 317,-407 320,-404 323,-404 323,-404 423,-404 423,-404 426,-404 429,-407 429,-410 429,-410 429,-416 429,-416 429,-419 426,-422 423,-422"/>
<text text-anchor="start" x="325" y="-410.8" font-family="Helvetica,sans-Serif" font-size="9.00">PackRepositoryMock.ts</text>
</a>
</g>
</g>
<!-- src/gathering/CollectionEditor/PackRepositoryMock.ts&#45;&gt;src/gathering/Pack.ts -->
<g id="edge6" class="edge">
<title>src/gathering/CollectionEditor/PackRepositoryMock.ts&#45;&gt;src/gathering/Pack.ts</title>
<path fill="none" stroke="#000000" stroke-opacity="0.200000" d="M391.3,-403.88C406.14,-396.59 428.34,-386.98 449,-383 496.13,-373.92 620.89,-364.08 665,-383 677.65,-388.42 688.13,-400.19 695.03,-409.73"/>
<polygon fill="none" stroke="#000000" stroke-opacity="0.200000" points="693.35,-410.99 698.49,-414.74 696.81,-408.61 693.35,-410.99"/>
</g>
<!-- src/gathering/IPackRepository.ts -->
<g id="node7" class="node">
<title>src/gathering/IPackRepository.ts</title>
<g id="a_node7"><a xlink:href="src/gathering/IPackRepository.ts" xlink:title="IPackRepository.ts">
<path fill="#ddfeff" stroke="black" d="M659,-444C659,-444 578,-444 578,-444 575,-444 572,-441 572,-438 572,-438 572,-432 572,-432 572,-429 575,-426 578,-426 578,-426 659,-426 659,-426 662,-426 665,-429 665,-432 665,-432 665,-438 665,-438 665,-441 662,-444 659,-444"/>
<text text-anchor="start" x="580" y="-432.8" font-family="Helvetica,sans-Serif" font-size="9.00">IPackRepository.ts</text>
</a>
</g>
</g>
<!-- src/gathering/CollectionEditor/PackRepositoryMock.ts&#45;&gt;src/gathering/IPackRepository.ts -->
<g id="edge5" class="edge">
<title>src/gathering/CollectionEditor/PackRepositoryMock.ts&#45;&gt;src/gathering/IPackRepository.ts</title>
<path fill="none" stroke="#000000" stroke-opacity="0.200000" d="M429,-420.24C433.36,-422.28 437.44,-424.83 441,-428 449.08,-435.2 440.18,-444.73 449,-451 468.92,-465.16 534.77,-454.25 559,-451 567.32,-449.88 576.12,-447.91 584.31,-445.73"/>
<polygon fill="none" stroke="#000000" stroke-opacity="0.200000" points="585.21,-447.65 590.43,-444.02 584.09,-443.61 585.21,-447.65"/>
</g>
<!-- src/gathering/IPackRepository.ts&#45;&gt;src/gathering/Pack.ts -->
<g id="edge22" class="edge">
<title>src/gathering/IPackRepository.ts&#45;&gt;src/gathering/Pack.ts</title>
<path fill="none" stroke="#000000" stroke-opacity="0.200000" d="M665.21,-429.05C667.39,-428.77 669.56,-428.48 671.68,-428.21"/>
<polygon fill="none" stroke="#000000" stroke-opacity="0.200000" points="672.26,-430.25 677.94,-427.39 671.72,-426.08 672.26,-430.25"/>
</g>
<!-- src/gathering/CollectionEntity/CollectionEntity.ts -->
<g id="node8" class="node">
<title>src/gathering/CollectionEntity/CollectionEntity.ts</title>
<g id="a_node8"><a xlink:href="src/gathering/CollectionEntity/CollectionEntity.ts" xlink:title="CollectionEntity.ts">
<path fill="#ddfeff" stroke="black" d="M542.5,-422C542.5,-422 465.5,-422 465.5,-422 462.5,-422 459.5,-419 459.5,-416 459.5,-416 459.5,-410 459.5,-410 459.5,-407 462.5,-404 465.5,-404 465.5,-404 542.5,-404 542.5,-404 545.5,-404 548.5,-407 548.5,-410 548.5,-410 548.5,-416 548.5,-416 548.5,-419 545.5,-422 542.5,-422"/>
<text text-anchor="start" x="467.5" y="-410.8" font-family="Helvetica,sans-Serif" font-size="9.00">CollectionEntity.ts</text>
</a>
</g>
</g>
<!-- src/gathering/CollectionEntity/CollectionEntity.ts&#45;&gt;src/gathering/Pack.ts -->
<g id="edge8" class="edge">
<title>src/gathering/CollectionEntity/CollectionEntity.ts&#45;&gt;src/gathering/Pack.ts</title>
<path fill="none" stroke="#000000" stroke-opacity="0.200000" d="M548.5,-414.22C580.7,-415.28 625.62,-417.12 665,-420 667.04,-420.15 669.13,-420.32 671.24,-420.5"/>
<polygon fill="none" stroke="#000000" stroke-opacity="0.200000" points="671.42,-422.62 677.59,-421.08 671.8,-418.44 671.42,-422.62"/>
</g>
<!-- src/gathering/CollectionEntity/CollectionEntity.ts&#45;&gt;src/gathering/IPackRepository.ts -->
<g id="edge7" class="edge">
<title>src/gathering/CollectionEntity/CollectionEntity.ts&#45;&gt;src/gathering/IPackRepository.ts</title>
<path fill="none" stroke="#000000" stroke-opacity="0.200000" d="M548.82,-421.57C554.35,-422.65 560.04,-423.76 565.68,-424.87"/>
<polygon fill="none" stroke="#000000" stroke-opacity="0.200000" points="565.47,-426.96 571.76,-426.06 566.27,-422.84 565.47,-426.96"/>
</g>
<!-- src/gathering/CollectionLoader/CollectionLoader.ts -->
<g id="node9" class="node">
<title>src/gathering/CollectionLoader/CollectionLoader.ts</title>
<g id="a_node9"><a xlink:href="src/gathering/CollectionLoader/CollectionLoader.ts" xlink:title="CollectionLoader.ts">
<path fill="#ddfeff" stroke="black" d="M415.5,-512C415.5,-512 330.5,-512 330.5,-512 327.5,-512 324.5,-509 324.5,-506 324.5,-506 324.5,-500 324.5,-500 324.5,-497 327.5,-494 330.5,-494 330.5,-494 415.5,-494 415.5,-494 418.5,-494 421.5,-497 421.5,-500 421.5,-500 421.5,-506 421.5,-506 421.5,-509 418.5,-512 415.5,-512"/>
<text text-anchor="start" x="332.5" y="-500.8" font-family="Helvetica,sans-Serif" font-size="9.00">CollectionLoader.ts</text>
</a>
</g>
</g>
<!-- src/gathering/CollectionLoader/CollectionLoader.ts&#45;&gt;src/gathering/Collection.ts -->
<g id="edge9" class="edge">
<title>src/gathering/CollectionLoader/CollectionLoader.ts&#45;&gt;src/gathering/Collection.ts</title>
<path fill="none" stroke="#000000" stroke-opacity="0.200000" d="M383.18,-512.02C396.42,-524.32 422.21,-545.75 449,-554 493.84,-567.8 548.34,-558.54 582.98,-549.62"/>
<polygon fill="none" stroke="#000000" stroke-opacity="0.200000" points="583.52,-551.65 588.78,-548.08 582.44,-547.59 583.52,-551.65"/>
</g>
<!-- src/gathering/CollectionLoader/CollectionLoader.ts&#45;&gt;src/gathering/ICollectionEditor.ts -->
<g id="edge10" class="edge">
<title>src/gathering/CollectionLoader/CollectionLoader.ts&#45;&gt;src/gathering/ICollectionEditor.ts</title>
<path fill="none" stroke="#000000" stroke-opacity="0.200000" d="M421.67,-494.13C431.18,-492.36 441.21,-490.5 450.86,-488.7"/>
<polygon fill="none" stroke="#000000" stroke-opacity="0.200000" points="451.3,-490.75 456.82,-487.59 450.53,-486.63 451.3,-490.75"/>
</g>
<!-- src/gathering/CollectionLoader/CollectionLoader.ts&#45;&gt;src/gathering/ICollectionOutput.ts -->
<g id="edge12" class="edge">
<title>src/gathering/CollectionLoader/CollectionLoader.ts&#45;&gt;src/gathering/ICollectionOutput.ts</title>
<path fill="none" stroke="#000000" stroke-opacity="0.200000" d="M421.7,-508.61C428.41,-510.43 435.04,-512.83 441,-516 445.44,-518.36 444.66,-521.47 449,-524 451.22,-525.3 453.56,-526.48 455.97,-527.57"/>
<polygon fill="none" stroke="#000000" stroke-opacity="0.200000" points="455.34,-529.59 461.69,-529.94 456.95,-525.71 455.34,-529.59"/>
</g>
<!-- src/gathering/ICollectionLoader.ts -->
<g id="node10" class="node">
<title>src/gathering/ICollectionLoader.ts</title>
<g id="a_node10"><a xlink:href="src/gathering/ICollectionLoader.ts" xlink:title="ICollectionLoader.ts">
<path fill="#ddfeff" stroke="black" d="M547.5,-518C547.5,-518 460.5,-518 460.5,-518 457.5,-518 454.5,-515 454.5,-512 454.5,-512 454.5,-506 454.5,-506 454.5,-503 457.5,-500 460.5,-500 460.5,-500 547.5,-500 547.5,-500 550.5,-500 553.5,-503 553.5,-506 553.5,-506 553.5,-512 553.5,-512 553.5,-515 550.5,-518 547.5,-518"/>
<text text-anchor="start" x="462.5" y="-506.8" font-family="Helvetica,sans-Serif" font-size="9.00">ICollectionLoader.ts</text>
</a>
</g>
</g>
<!-- src/gathering/CollectionLoader/CollectionLoader.ts&#45;&gt;src/gathering/ICollectionLoader.ts -->
<g id="edge11" class="edge">
<title>src/gathering/CollectionLoader/CollectionLoader.ts&#45;&gt;src/gathering/ICollectionLoader.ts</title>
<path fill="none" stroke="#000000" stroke-opacity="0.200000" d="M421.67,-505.22C430.3,-505.62 439.36,-506.04 448.18,-506.45"/>
<polygon fill="none" stroke="#000000" stroke-opacity="0.200000" points="448.14,-508.55 454.23,-506.73 448.34,-504.36 448.14,-508.55"/>
</g>
<!-- src/gathering/ICollectionLoader.ts&#45;&gt;src/gathering/Collection.ts -->
<g id="edge19" class="edge">
<title>src/gathering/ICollectionLoader.ts&#45;&gt;src/gathering/Collection.ts</title>
<path fill="none" stroke="#000000" stroke-opacity="0.200000" d="M538.75,-518C551.21,-521.32 565.44,-525.12 578.34,-528.56"/>
<polygon fill="none" stroke="#000000" stroke-opacity="0.200000" points="577.82,-530.59 584.16,-530.11 578.9,-526.53 577.82,-530.59"/>
</g>
<!-- src/gathering/CollectionOrganizer/CollectionOrganizer.ts -->
<g id="node11" class="node">
<title>src/gathering/CollectionOrganizer/CollectionOrganizer.ts</title>
<g id="a_node11"><a xlink:href="src/gathering/CollectionOrganizer/CollectionOrganizer.ts" xlink:title="CollectionOrganizer.ts">
<path fill="#ddfeff" stroke="black" d="M420.5,-331C420.5,-331 325.5,-331 325.5,-331 322.5,-331 319.5,-328 319.5,-325 319.5,-325 319.5,-319 319.5,-319 319.5,-316 322.5,-313 325.5,-313 325.5,-313 420.5,-313 420.5,-313 423.5,-313 426.5,-316 426.5,-319 426.5,-319 426.5,-325 426.5,-325 426.5,-328 423.5,-331 420.5,-331"/>
<text text-anchor="start" x="327.5" y="-319.8" font-family="Helvetica,sans-Serif" font-size="9.00">CollectionOrganizer.ts</text>
</a>
</g>
</g>
<!-- src/gathering/ahdb.cards.json -->
<g id="node12" class="node">
<title>src/gathering/ahdb.cards.json</title>
<g id="a_node12"><a xlink:href="src/gathering/ahdb.cards.json" xlink:title="ahdb.cards.json">
<path fill="#ffee44" stroke="black" d="M539.5,-256C539.5,-256 468.5,-256 468.5,-256 465.5,-256 462.5,-253 462.5,-250 462.5,-250 462.5,-244 462.5,-244 462.5,-241 465.5,-238 468.5,-238 468.5,-238 539.5,-238 539.5,-238 542.5,-238 545.5,-241 545.5,-244 545.5,-244 545.5,-250 545.5,-250 545.5,-253 542.5,-256 539.5,-256"/>
<text text-anchor="start" x="470.5" y="-244.8" font-family="Helvetica,sans-Serif" font-size="9.00">ahdb.cards.json</text>
</a>
</g>
</g>
<!-- src/gathering/CollectionOrganizer/CollectionOrganizer.ts&#45;&gt;src/gathering/ahdb.cards.json -->
<g id="edge13" class="edge">
<title>src/gathering/CollectionOrganizer/CollectionOrganizer.ts&#45;&gt;src/gathering/ahdb.cards.json</title>
<path fill="none" stroke="#000000" stroke-width="2" stroke-opacity="0.200000" d="M382.84,-312.89C396.06,-299.78 422.28,-275.67 449,-262 451.67,-260.63 454.49,-259.38 457.37,-258.22"/>
<polygon fill="#000000" fill-opacity="0.200000" stroke="#000000" stroke-width="2" stroke-opacity="0.200000" points="458.46,-260.06 463.36,-256.01 457,-256.12 458.46,-260.06"/>
</g>
<!-- src/gathering/ahdb.packs.json -->
<g id="node13" class="node">
<title>src/gathering/ahdb.packs.json</title>
<g id="a_node13"><a xlink:href="src/gathering/ahdb.packs.json" xlink:title="ahdb.packs.json">
<path fill="#ffee44" stroke="black" d="M540.5,-286C540.5,-286 467.5,-286 467.5,-286 464.5,-286 461.5,-283 461.5,-280 461.5,-280 461.5,-274 461.5,-274 461.5,-271 464.5,-268 467.5,-268 467.5,-268 540.5,-268 540.5,-268 543.5,-268 546.5,-271 546.5,-274 546.5,-274 546.5,-280 546.5,-280 546.5,-283 543.5,-286 540.5,-286"/>
<text text-anchor="start" x="469.5" y="-274.8" font-family="Helvetica,sans-Serif" font-size="9.00">ahdb.packs.json</text>
</a>
</g>
</g>
<!-- src/gathering/CollectionOrganizer/CollectionOrganizer.ts&#45;&gt;src/gathering/ahdb.packs.json -->
<g id="edge14" class="edge">
<title>src/gathering/CollectionOrganizer/CollectionOrganizer.ts&#45;&gt;src/gathering/ahdb.packs.json</title>
<path fill="none" stroke="#000000" stroke-width="2" stroke-opacity="0.200000" d="M394.78,-312.97C409.71,-306.67 430.4,-298.28 449,-292 453.34,-290.53 457.92,-289.1 462.49,-287.73"/>
<polygon fill="#000000" fill-opacity="0.200000" stroke="#000000" stroke-width="2" stroke-opacity="0.200000" points="463.09,-289.74 468.26,-286.04 461.91,-285.71 463.09,-289.74"/>
</g>
<!-- src/gathering/couz.json -->
<g id="node14" class="node">
<title>src/gathering/couz.json</title>
<g id="a_node14"><a xlink:href="src/gathering/couz.json" xlink:title="couz.json">
<path fill="#ffee44" stroke="black" d="M526,-346C526,-346 482,-346 482,-346 479,-346 476,-343 476,-340 476,-340 476,-334 476,-334 476,-331 479,-328 482,-328 482,-328 526,-328 526,-328 529,-328 532,-331 532,-334 532,-334 532,-340 532,-340 532,-343 529,-346 526,-346"/>
<text text-anchor="start" x="484" y="-334.8" font-family="Helvetica,sans-Serif" font-size="9.00">couz.json</text>
</a>
</g>
</g>
<!-- src/gathering/CollectionOrganizer/CollectionOrganizer.ts&#45;&gt;src/gathering/couz.json -->
<g id="edge15" class="edge">
<title>src/gathering/CollectionOrganizer/CollectionOrganizer.ts&#45;&gt;src/gathering/couz.json</title>
<path fill="none" stroke="#000000" stroke-width="2" stroke-opacity="0.200000" d="M426.84,-328.14C441.31,-329.83 456.59,-331.6 469.64,-333.12"/>
<polygon fill="#000000" fill-opacity="0.200000" stroke="#000000" stroke-width="2" stroke-opacity="0.200000" points="469.65,-335.24 475.85,-333.84 470.13,-331.06 469.65,-335.24"/>
</g>
<!-- src/gathering/IBinderOutput.ts -->
<g id="node15" class="node">
<title>src/gathering/IBinderOutput.ts</title>
<g id="a_node15"><a xlink:href="src/gathering/IBinderOutput.ts" xlink:title="IBinderOutput.ts">
<path fill="#ddfeff" stroke="black" d="M654,-360C654,-360 583,-360 583,-360 580,-360 577,-357 577,-354 577,-354 577,-348 577,-348 577,-345 580,-342 583,-342 583,-342 654,-342 654,-342 657,-342 660,-345 660,-348 660,-348 660,-354 660,-354 660,-357 657,-360 654,-360"/>
<text text-anchor="start" x="585" y="-348.8" font-family="Helvetica,sans-Serif" font-size="9.00">IBinderOutput.ts</text>
</a>
</g>
</g>
<!-- src/gathering/CollectionOrganizer/CollectionOrganizer.ts&#45;&gt;src/gathering/IBinderOutput.ts -->
<g id="edge16" class="edge">
<title>src/gathering/CollectionOrganizer/CollectionOrganizer.ts&#45;&gt;src/gathering/IBinderOutput.ts</title>
<path fill="none" stroke="#000000" stroke-opacity="0.200000" d="M391.3,-331.12C406.14,-338.41 428.34,-348.02 449,-352 489.56,-359.81 536.65,-358.7 570.71,-356.13"/>
<polygon fill="none" stroke="#000000" stroke-opacity="0.200000" points="571.11,-358.21 576.92,-355.64 570.77,-354.02 571.11,-358.21"/>
</g>
<!-- src/gathering/ICollectionOrganizer.ts -->
<g id="node16" class="node">
<title>src/gathering/ICollectionOrganizer.ts</title>
<g id="a_node16"><a xlink:href="src/gathering/ICollectionOrganizer.ts" xlink:title="ICollectionOrganizer.ts">
<path fill="#ddfeff" stroke="black" d="M553,-316C553,-316 455,-316 455,-316 452,-316 449,-313 449,-310 449,-310 449,-304 449,-304 449,-301 452,-298 455,-298 455,-298 553,-298 553,-298 556,-298 559,-301 559,-304 559,-304 559,-310 559,-310 559,-313 556,-316 553,-316"/>
<text text-anchor="start" x="457" y="-304.8" font-family="Helvetica,sans-Serif" font-size="9.00">ICollectionOrganizer.ts</text>
</a>
</g>
</g>
<!-- src/gathering/CollectionOrganizer/CollectionOrganizer.ts&#45;&gt;src/gathering/ICollectionOrganizer.ts -->
<g id="edge17" class="edge">
<title>src/gathering/CollectionOrganizer/CollectionOrganizer.ts&#45;&gt;src/gathering/ICollectionOrganizer.ts</title>
<path fill="none" stroke="#000000" stroke-opacity="0.200000" d="M426.84,-315.86C432.04,-315.25 437.35,-314.63 442.62,-314.02"/>
<polygon fill="none" stroke="#000000" stroke-opacity="0.200000" points="443.06,-316.08 448.78,-313.3 442.57,-311.91 443.06,-316.08"/>
</g>
<!-- src/gathering/ICollectionOrganizer.ts&#45;&gt;src/gathering/IBinderOutput.ts -->
<g id="edge20" class="edge">
<title>src/gathering/ICollectionOrganizer.ts&#45;&gt;src/gathering/IBinderOutput.ts</title>
<path fill="none" stroke="#000000" stroke-opacity="0.200000" d="M541.33,-316.07C547.29,-317.85 553.37,-319.84 559,-322 571.44,-326.76 584.79,-333.26 595.59,-338.9"/>
<polygon fill="none" stroke="#000000" stroke-opacity="0.200000" points="594.7,-340.81 600.98,-341.76 596.66,-337.1 594.7,-340.81"/>
</g>
<!-- src/lib/userBrowsesItsCollection/userBrowsesItsCollection.ts -->
<g id="node17" class="node">
<title>src/lib/userBrowsesItsCollection/userBrowsesItsCollection.ts</title>
<g id="a_node17"><a xlink:href="src/lib/userBrowsesItsCollection/userBrowsesItsCollection.ts" xlink:title="userBrowsesItsCollection.ts">
<path fill="#ddfeff" stroke="black" d="M271,-478C271,-478 150,-478 150,-478 147,-478 144,-475 144,-472 144,-472 144,-466 144,-466 144,-463 147,-460 150,-460 150,-460 271,-460 271,-460 274,-460 277,-463 277,-466 277,-466 277,-472 277,-472 277,-475 274,-478 271,-478"/>
<text text-anchor="start" x="152" y="-466.8" font-family="Helvetica,sans-Serif" font-size="9.00">userBrowsesItsCollection.ts</text>
</a>
</g>
</g>
<!-- src/lib/userBrowsesItsCollection/userBrowsesItsCollection.ts&#45;&gt;src/gathering/CollectionOrganizer/CollectionOrganizer.ts -->
<g id="edge23" class="edge">
<title>src/lib/userBrowsesItsCollection/userBrowsesItsCollection.ts&#45;&gt;src/gathering/CollectionOrganizer/CollectionOrganizer.ts</title>
<path fill="none" stroke="#000000" stroke-width="2" stroke-opacity="0.200000" d="M221.54,-459.8C248.9,-434.75 324.88,-365.16 357.17,-335.58"/>
<polygon fill="#000000" fill-opacity="0.200000" stroke="#000000" stroke-width="2" stroke-opacity="0.200000" points="358.96,-336.79 361.96,-331.19 356.12,-333.7 358.96,-336.79"/>
</g>
<!-- src/lib/userBrowsesItsCollection/userBrowsesItsCollection.ts&#45;&gt;src/gathering/IBinderOutput.ts -->
<g id="edge24" class="edge">
<title>src/lib/userBrowsesItsCollection/userBrowsesItsCollection.ts&#45;&gt;src/gathering/IBinderOutput.ts</title>
<path fill="none" stroke="#000000" stroke-opacity="0.200000" d="M245.18,-478.11C261.84,-484.26 280.91,-494.05 293,-509 302.22,-520.4 289.85,-531.48 301,-541 322.83,-559.64 537.75,-573.29 559,-554 581.15,-533.89 562.03,-448.21 572,-420 579.43,-398.98 594.6,-378.06 605.38,-364.86"/>
<polygon fill="none" stroke="#000000" stroke-opacity="0.200000" points="607.18,-365.98 609.41,-360.03 603.96,-363.29 607.18,-365.98"/>
</g>
<!-- src/lib/userEditsItsCollection/userEditsItsCollection.ts -->
<g id="node18" class="node">
<title>src/lib/userEditsItsCollection/userEditsItsCollection.ts</title>
<g id="a_node18"><a xlink:href="src/lib/userEditsItsCollection/userEditsItsCollection.ts" xlink:title="userEditsItsCollection.ts">
<path fill="#ddfeff" stroke="black" d="M263,-538C263,-538 158,-538 158,-538 155,-538 152,-535 152,-532 152,-532 152,-526 152,-526 152,-523 155,-520 158,-520 158,-520 263,-520 263,-520 266,-520 269,-523 269,-526 269,-526 269,-532 269,-532 269,-535 266,-538 263,-538"/>
<text text-anchor="start" x="160" y="-526.8" font-family="Helvetica,sans-Serif" font-size="9.00">userEditsItsCollection.ts</text>
</a>
</g>
</g>
<!-- src/lib/userEditsItsCollection/userEditsItsCollection.ts&#45;&gt;src/gathering/Collection.ts -->
<g id="edge25" class="edge">
<title>src/lib/userEditsItsCollection/userEditsItsCollection.ts&#45;&gt;src/gathering/Collection.ts</title>
<path fill="none" stroke="#000000" stroke-opacity="0.200000" d="M225.36,-538.11C242.36,-548.73 272.47,-565.75 301,-573 412.17,-601.23 449.42,-612.88 559,-579 575.92,-573.77 592.31,-561.77 603.41,-552.27"/>
<polygon fill="none" stroke="#000000" stroke-opacity="0.200000" points="605.02,-553.66 608.13,-548.12 602.24,-550.51 605.02,-553.66"/>
</g>
<!-- src/lib/userEditsItsCollection/userEditsItsCollection.ts&#45;&gt;src/gathering/ICollectionEditor.ts -->
<g id="edge26" class="edge">
<title>src/lib/userEditsItsCollection/userEditsItsCollection.ts&#45;&gt;src/gathering/ICollectionEditor.ts</title>
<path fill="none" stroke="#000000" stroke-opacity="0.200000" d="M254.88,-538.04C313.51,-549.16 413.87,-563.91 441,-541 457.19,-527.33 434.8,-509.73 449,-494 449.83,-493.08 450.71,-492.21 451.64,-491.4"/>
<polygon fill="none" stroke="#000000" stroke-opacity="0.200000" points="453.02,-492.99 456.61,-487.74 450.53,-489.61 453.02,-492.99"/>
</g>
<!-- src/lib/userEditsItsCollection/userEditsItsCollection.ts&#45;&gt;src/gathering/ICollectionOutput.ts -->
<g id="edge27" class="edge">
<title>src/lib/userEditsItsCollection/userEditsItsCollection.ts&#45;&gt;src/gathering/ICollectionOutput.ts</title>
<path fill="none" stroke="#000000" stroke-opacity="0.200000" d="M228.39,-538.08C245.95,-546.96 274.53,-559.88 301,-565 362.09,-576.83 380,-577.27 441,-565 454.87,-562.21 469.5,-556.24 481.06,-550.72"/>
<polygon fill="none" stroke="#000000" stroke-opacity="0.200000" points="482.01,-552.59 486.47,-548.06 480.16,-548.82 482.01,-552.59"/>
</g>
<!-- src/routes/cards/+page.server.ts -->
<g id="node19" class="node">
<title>src/routes/cards/+page.server.ts</title>
<g id="a_node19"><a xlink:href="src/routes/cards/+page.server.ts" xlink:title="+page.server.ts">
<path fill="#ddfeff" stroke="black" d="M106,-110C106,-110 38,-110 38,-110 35,-110 32,-107 32,-104 32,-104 32,-98 32,-98 32,-95 35,-92 38,-92 38,-92 106,-92 106,-92 109,-92 112,-95 112,-98 112,-98 112,-104 112,-104 112,-107 109,-110 106,-110"/>
<text text-anchor="start" x="40" y="-98.8" font-family="Helvetica,sans-Serif" font-size="9.00">+page.server.ts</text>
</a>
</g>
</g>
<!-- src/routes/cards/+page.server.ts&#45;&gt;src/gathering/ahdb.cards.json -->
<g id="edge28" class="edge">
<title>src/routes/cards/+page.server.ts&#45;&gt;src/gathering/ahdb.cards.json</title>
<path fill="none" stroke="#000000" stroke-width="2" stroke-opacity="0.200000" d="M104.37,-110.01C168.35,-128.64 318.22,-173.54 441,-220 453.34,-224.67 466.8,-230.44 478.01,-235.45"/>
<polygon fill="#000000" fill-opacity="0.200000" stroke="#000000" stroke-width="2" stroke-opacity="0.200000" points="477.32,-237.44 483.65,-237.99 479.05,-233.62 477.32,-237.44"/>
</g>
<!-- src/routes/collection/+page.svelte.ts -->
<g id="node20" class="node">
<title>src/routes/collection/+page.svelte.ts</title>
<g id="a_node20"><a xlink:href="src/routes/collection/+page.svelte.ts" xlink:title="+page.svelte.ts">
<path fill="#ddfeff" stroke="black" d="M105.5,-50C105.5,-50 38.5,-50 38.5,-50 35.5,-50 32.5,-47 32.5,-44 32.5,-44 32.5,-38 32.5,-38 32.5,-35 35.5,-32 38.5,-32 38.5,-32 105.5,-32 105.5,-32 108.5,-32 111.5,-35 111.5,-38 111.5,-38 111.5,-44 111.5,-44 111.5,-47 108.5,-50 105.5,-50"/>
<text text-anchor="start" x="40.5" y="-38.8" font-family="Helvetica,sans-Serif" font-size="9.00">+page.svelte.ts</text>
</a>
</g>
</g>
<!-- src/routes/collection/+page.svelte.ts&#45;&gt;src/lib/userBrowsesItsCollection/userBrowsesItsCollection.ts -->
<g id="edge30" class="edge">
<title>src/routes/collection/+page.svelte.ts&#45;&gt;src/lib/userBrowsesItsCollection/userBrowsesItsCollection.ts</title>
<path fill="none" stroke="#000000" stroke-width="2" stroke-opacity="0.200000" d="M88.41,-50.3C98.88,-57.42 112.21,-68.18 120,-81 197.83,-209.03 208.02,-398.37 209.32,-453.45"/>
<polygon fill="#000000" fill-opacity="0.200000" stroke="#000000" stroke-width="2" stroke-opacity="0.200000" points="207.23,-453.81 209.44,-459.76 211.43,-453.72 207.23,-453.81"/>
</g>
<!-- src/routes/collection/Binder.svelte.ts -->
<g id="node21" class="node">
<title>src/routes/collection/Binder.svelte.ts</title>
<g id="a_node21"><a xlink:href="src/routes/collection/Binder.svelte.ts" xlink:title="Binder.svelte.ts">
<path fill="#ddfeff" stroke="black" d="M244.5,-50C244.5,-50 176.5,-50 176.5,-50 173.5,-50 170.5,-47 170.5,-44 170.5,-44 170.5,-38 170.5,-38 170.5,-35 173.5,-32 176.5,-32 176.5,-32 244.5,-32 244.5,-32 247.5,-32 250.5,-35 250.5,-38 250.5,-38 250.5,-44 250.5,-44 250.5,-47 247.5,-50 244.5,-50"/>
<text text-anchor="start" x="178.5" y="-38.8" font-family="Helvetica,sans-Serif" font-size="9.00">Binder.svelte.ts</text>
</a>
</g>
</g>
<!-- src/routes/collection/+page.svelte.ts&#45;&gt;src/routes/collection/Binder.svelte.ts -->
<g id="edge29" class="edge">
<title>src/routes/collection/+page.svelte.ts&#45;&gt;src/routes/collection/Binder.svelte.ts</title>
<path fill="none" stroke="#000000" stroke-width="2" stroke-opacity="0.200000" d="M111.75,-41C128.04,-41 147.1,-41 164.04,-41"/>
<polygon fill="#000000" fill-opacity="0.200000" stroke="#000000" stroke-width="2" stroke-opacity="0.200000" points="164.18,-43.1 170.18,-41 164.18,-38.9 164.18,-43.1"/>
</g>
<!-- src/routes/collection/PocketSheet.svelte.ts -->
<g id="node22" class="node">
<title>src/routes/collection/PocketSheet.svelte.ts</title>
<g id="a_node22"><a xlink:href="src/routes/collection/PocketSheet.svelte.ts" xlink:title="PocketSheet.svelte.ts">
<path fill="#ddfeff" stroke="black" d="M419,-50C419,-50 327,-50 327,-50 324,-50 321,-47 321,-44 321,-44 321,-38 321,-38 321,-35 324,-32 327,-32 327,-32 419,-32 419,-32 422,-32 425,-35 425,-38 425,-38 425,-44 425,-44 425,-47 422,-50 419,-50"/>
<text text-anchor="start" x="329" y="-38.8" font-family="Helvetica,sans-Serif" font-size="9.00">PocketSheet.svelte.ts</text>
</a>
</g>
</g>
<!-- src/routes/collection/Binder.svelte.ts&#45;&gt;src/routes/collection/PocketSheet.svelte.ts -->
<g id="edge31" class="edge">
<title>src/routes/collection/Binder.svelte.ts&#45;&gt;src/routes/collection/PocketSheet.svelte.ts</title>
<path fill="none" stroke="#000000" stroke-width="2" stroke-opacity="0.200000" d="M250.76,-41C269.94,-41 293.38,-41 314.52,-41"/>
<polygon fill="#000000" fill-opacity="0.200000" stroke="#000000" stroke-width="2" stroke-opacity="0.200000" points="314.71,-43.1 320.71,-41 314.71,-38.9 314.71,-43.1"/>
</g>
<!-- src/routes/packs/+page.server.ts -->
<g id="node23" class="node">
<title>src/routes/packs/+page.server.ts</title>
<g id="a_node23"><a xlink:href="src/routes/packs/+page.server.ts" xlink:title="+page.server.ts">
<path fill="#ddfeff" stroke="black" d="M106,-170C106,-170 38,-170 38,-170 35,-170 32,-167 32,-164 32,-164 32,-158 32,-158 32,-155 35,-152 38,-152 38,-152 106,-152 106,-152 109,-152 112,-155 112,-158 112,-158 112,-164 112,-164 112,-167 109,-170 106,-170"/>
<text text-anchor="start" x="40" y="-158.8" font-family="Helvetica,sans-Serif" font-size="9.00">+page.server.ts</text>
</a>
</g>
</g>
<!-- src/routes/packs/+page.server.ts&#45;&gt;src/gathering/ahdb.packs.json -->
<g id="edge32" class="edge">
<title>src/routes/packs/+page.server.ts&#45;&gt;src/gathering/ahdb.packs.json</title>
<path fill="none" stroke="#000000" stroke-width="2" stroke-opacity="0.200000" d="M106.38,-170.01C184.72,-191.14 380.01,-243.82 463.8,-266.43"/>
<polygon fill="#000000" fill-opacity="0.200000" stroke="#000000" stroke-width="2" stroke-opacity="0.200000" points="463.3,-268.46 469.64,-268 464.39,-264.41 463.3,-268.46"/>
</g>
</g>
</svg>
