<?xml version="1.0" encoding="UTF-8" standalone="no"?>
<!DOCTYPE svg PUBLIC "-//W3C//DTD SVG 1.1//EN"
 "http://www.w3.org/Graphics/SVG/1.1/DTD/svg11.dtd">
<!-- Generated by graphviz version 2.50.0 (20211204.2007)
 -->
<!-- Title: dependency&#45;cruiser output Pages: 1 -->
<svg width="1003pt" height="620pt"
 viewBox="0.00 0.00 1003.00 620.00" xmlns="http://www.w3.org/2000/svg" xmlns:xlink="http://www.w3.org/1999/xlink">
<g id="graph0" class="graph" transform="scale(1 1) rotate(0) translate(4 616)">
<title>dependency&#45;cruiser output</title>
<polygon fill="white" stroke="transparent" points="-4,4 -4,-616 999,-616 999,4 -4,4"/>
<g id="clust1" class="cluster">
<title>cluster_src</title>
<path fill="#ffffff" stroke="black" stroke-width="2" d="M20,-8C20,-8 975,-8 975,-8 981,-8 987,-14 987,-20 987,-20 987,-592 987,-592 987,-598 981,-604 975,-604 975,-604 20,-604 20,-604 14,-604 8,-598 8,-592 8,-592 8,-20 8,-20 8,-14 14,-8 20,-8"/>
<text text-anchor="middle" x="497.5" y="-592.8" font-family="Helvetica,sans-Serif" font-weight="bold" font-size="9.00">src</text>
</g>
<g id="clust5" class="cluster">
<title>cluster_src/lib</title>
<path fill="#ffffff" stroke="black" stroke-width="2" d="M268,-200C268,-200 642,-200 642,-200 648,-200 654,-206 654,-212 654,-212 654,-334 654,-334 654,-340 648,-346 642,-346 642,-346 268,-346 268,-346 262,-346 256,-340 256,-334 256,-334 256,-212 256,-212 256,-206 262,-200 268,-200"/>
<text text-anchor="middle" x="455" y="-334.8" font-family="Helvetica,sans-Serif" font-weight="bold" font-size="9.00">lib</text>
</g>
<g id="clust6" class="cluster">
<title>cluster_src/lib/Components</title>
<path fill="#ffffff" stroke="black" stroke-width="2" d="M289.5,-208C289.5,-208 535,-208 535,-208 541,-208 547,-214 547,-220 547,-220 547,-248 547,-248 547,-254 541,-260 535,-260 535,-260 289.5,-260 289.5,-260 283.5,-260 277.5,-254 277.5,-248 277.5,-248 277.5,-220 277.5,-220 277.5,-214 283.5,-208 289.5,-208"/>
<text text-anchor="middle" x="412.25" y="-248.8" font-family="Helvetica,sans-Serif" font-weight="bold" font-size="9.00">Components</text>
</g>
<g id="clust7" class="cluster">
<title>cluster_src/lib/ViewModels</title>
<path fill="#ffffff" stroke="black" stroke-width="2" d="M588,-217C588,-217 634,-217 634,-217 640,-217 646,-223 646,-229 646,-229 646,-257 646,-257 646,-263 640,-269 634,-269 634,-269 588,-269 588,-269 582,-269 576,-263 576,-257 576,-257 576,-229 576,-229 576,-223 582,-217 588,-217"/>
<text text-anchor="middle" x="611" y="-257.8" font-family="Helvetica,sans-Serif" font-weight="bold" font-size="9.00">ViewModels</text>
</g>
<g id="clust8" class="cluster">
<title>cluster_src/lib/userEditsCollection</title>
<path fill="#ffffff" stroke="black" stroke-width="2" d="M276,-268C276,-268 375,-268 375,-268 381,-268 387,-274 387,-280 387,-280 387,-308 387,-308 387,-314 381,-320 375,-320 375,-320 276,-320 276,-320 270,-320 264,-314 264,-308 264,-308 264,-280 264,-280 264,-274 270,-268 276,-268"/>
<text text-anchor="middle" x="325.5" y="-308.8" font-family="Helvetica,sans-Serif" font-weight="bold" font-size="9.00">userEditsCollection</text>
</g>
<g id="clust2" class="cluster">
<title>cluster_src/gathering</title>
<path fill="#ffffff" stroke="black" stroke-width="2" d="M428.5,-354C428.5,-354 967,-354 967,-354 973,-354 979,-360 979,-366 979,-366 979,-566 979,-566 979,-572 973,-578 967,-578 967,-578 428.5,-578 428.5,-578 422.5,-578 416.5,-572 416.5,-566 416.5,-566 416.5,-366 416.5,-366 416.5,-360 422.5,-354 428.5,-354"/>
<text text-anchor="middle" x="697.75" y="-566.8" font-family="Helvetica,sans-Serif" font-weight="bold" font-size="9.00">gathering</text>
</g>
<g id="clust3" class="cluster">
<title>cluster_src/gathering/CollectionEditor</title>
<path fill="#ffffff" stroke="black" stroke-width="2" d="M436.5,-413C436.5,-413 663,-413 663,-413 669,-413 675,-419 675,-425 675,-425 675,-483 675,-483 675,-489 669,-495 663,-495 663,-495 436.5,-495 436.5,-495 430.5,-495 424.5,-489 424.5,-483 424.5,-483 424.5,-425 424.5,-425 424.5,-419 430.5,-413 436.5,-413"/>
<text text-anchor="middle" x="549.75" y="-483.8" font-family="Helvetica,sans-Serif" font-weight="bold" font-size="9.00">CollectionEditor</text>
</g>
<g id="clust4" class="cluster">
<title>cluster_src/gathering/PackRepository</title>
<path fill="#ffffff" stroke="black" stroke-width="2" d="M710.5,-402C710.5,-402 770.5,-402 770.5,-402 776.5,-402 782.5,-408 782.5,-414 782.5,-414 782.5,-442 782.5,-442 782.5,-448 776.5,-454 770.5,-454 770.5,-454 710.5,-454 710.5,-454 704.5,-454 698.5,-448 698.5,-442 698.5,-442 698.5,-414 698.5,-414 698.5,-408 704.5,-402 710.5,-402"/>
<text text-anchor="middle" x="740.5" y="-442.8" font-family="Helvetica,sans-Serif" font-weight="bold" font-size="9.00">PackRepository</text>
</g>
<g id="clust9" class="cluster">
<title>cluster_src/routes</title>
<path fill="#ffffff" stroke="black" stroke-width="2" d="M28,-16C28,-16 396.5,-16 396.5,-16 402.5,-16 408.5,-22 408.5,-28 408.5,-28 408.5,-180 408.5,-180 408.5,-186 402.5,-192 396.5,-192 396.5,-192 28,-192 28,-192 22,-192 16,-186 16,-180 16,-180 16,-28 16,-28 16,-22 22,-16 28,-16"/>
<text text-anchor="middle" x="212.25" y="-180.8" font-family="Helvetica,sans-Serif" font-weight="bold" font-size="9.00">routes</text>
</g>
<g id="clust10" class="cluster">
<title>cluster_src/routes/collection</title>
<path fill="#ffffff" stroke="black" stroke-width="2" d="M36,-24C36,-24 388.5,-24 388.5,-24 394.5,-24 400.5,-30 400.5,-36 400.5,-36 400.5,-154 400.5,-154 400.5,-160 394.5,-166 388.5,-166 388.5,-166 36,-166 36,-166 30,-166 24,-160 24,-154 24,-154 24,-36 24,-36 24,-30 30,-24 36,-24"/>
<text text-anchor="middle" x="212.25" y="-154.8" font-family="Helvetica,sans-Serif" font-weight="bold" font-size="9.00">collection</text>
</g>
<g id="clust11" class="cluster">
<title>cluster_src/routes/collection/edit</title>
<path fill="#ffffff" stroke="black" stroke-width="2" d="M44,-32C44,-32 380.5,-32 380.5,-32 386.5,-32 392.5,-38 392.5,-44 392.5,-44 392.5,-102 392.5,-102 392.5,-108 386.5,-114 380.5,-114 380.5,-114 44,-114 44,-114 38,-114 32,-108 32,-102 32,-102 32,-44 32,-44 32,-38 38,-32 44,-32"/>
<text text-anchor="middle" x="212.25" y="-102.8" font-family="Helvetica,sans-Serif" font-weight="bold" font-size="9.00">edit</text>
</g>
<!-- src/gathering/Collection.ts -->
<g id="node1" class="node">
<title>src/gathering/Collection.ts</title>
<g id="a_node1"><a xlink:href="src/gathering/Collection.ts" xlink:title="Collection.ts">
<path fill="#ddfeff" stroke="black" d="M885.5,-391C885.5,-391 829.5,-391 829.5,-391 826.5,-391 823.5,-388 823.5,-385 823.5,-385 823.5,-379 823.5,-379 823.5,-376 826.5,-373 829.5,-373 829.5,-373 885.5,-373 885.5,-373 888.5,-373 891.5,-376 891.5,-379 891.5,-379 891.5,-385 891.5,-385 891.5,-388 888.5,-391 885.5,-391"/>
<text text-anchor="start" x="831.5" y="-379.8" font-family="Helvetica,sans-Serif" font-size="9.00">Collection.ts</text>
</a>
</g>
</g>
<!-- src/gathering/Pack.ts -->
<g id="node2" class="node">
<title>src/gathering/Pack.ts</title>
<g id="a_node2"><a xlink:href="src/gathering/Pack.ts" xlink:title="Pack.ts">
<path fill="#ddfeff" stroke="black" d="M965,-484C965,-484 923,-484 923,-484 920,-484 917,-481 917,-478 917,-478 917,-472 917,-472 917,-469 920,-466 923,-466 923,-466 965,-466 965,-466 968,-466 971,-469 971,-472 971,-472 971,-478 971,-478 971,-481 968,-484 965,-484"/>
<text text-anchor="start" x="928.5" y="-472.8" font-family="Helvetica,sans-Serif" font-size="9.00">Pack.ts</text>
</a>
</g>
</g>
<!-- src/gathering/Collection.ts&#45;&gt;src/gathering/Pack.ts -->
<g id="edge1" class="edge">
<title>src/gathering/Collection.ts&#45;&gt;src/gathering/Pack.ts</title>
<path fill="none" stroke="#000000" stroke-opacity="0.200000" d="M871.68,-391.17C881.24,-398.18 894.16,-408.4 904,-419 915.91,-431.84 927.07,-448.52 934.37,-460.33"/>
<polygon fill="none" stroke="#000000" stroke-opacity="0.200000" points="932.73,-461.66 937.64,-465.69 936.31,-459.47 932.73,-461.66"/>
</g>
<!-- src/gathering/CollectionEditor/CollectionEditor.test.ts -->
<g id="node3" class="node">
<title>src/gathering/CollectionEditor/CollectionEditor.test.ts</title>
<g id="a_node3"><a xlink:href="src/gathering/CollectionEditor/CollectionEditor.test.ts" xlink:title="CollectionEditor.test.ts">
<path fill="#ddfeff" stroke="black" d="M535.5,-454C535.5,-454 438.5,-454 438.5,-454 435.5,-454 432.5,-451 432.5,-448 432.5,-448 432.5,-442 432.5,-442 432.5,-439 435.5,-436 438.5,-436 438.5,-436 535.5,-436 535.5,-436 538.5,-436 541.5,-439 541.5,-442 541.5,-442 541.5,-448 541.5,-448 541.5,-451 538.5,-454 535.5,-454"/>
<text text-anchor="start" x="440.5" y="-442.8" font-family="Helvetica,sans-Serif" font-size="9.00">CollectionEditor.test.ts</text>
</a>
</g>
</g>
<!-- src/gathering/CollectionEditor/CollectionEditor.test.ts&#45;&gt;src/gathering/Collection.ts -->
<g id="edge4" class="edge">
<title>src/gathering/CollectionEditor/CollectionEditor.test.ts&#45;&gt;src/gathering/Collection.ts</title>
<path fill="none" stroke="#000000" stroke-opacity="0.200000" d="M541.25,-435.88C543.27,-434.73 545.2,-433.44 547,-432 553.52,-426.79 548.22,-419.88 555,-415 604.76,-379.2 631.07,-405.71 692,-399 734.85,-394.28 784.03,-389.25 817.37,-385.9"/>
<polygon fill="none" stroke="#000000" stroke-opacity="0.200000" points="817.64,-387.98 823.4,-385.29 817.22,-383.8 817.64,-387.98"/>
</g>
<!-- src/gathering/CollectionEditor/CollectionEditor.ts -->
<g id="node4" class="node">
<title>src/gathering/CollectionEditor/CollectionEditor.ts</title>
<g id="a_node4"><a xlink:href="src/gathering/CollectionEditor/CollectionEditor.ts" xlink:title="CollectionEditor.ts">
<path fill="#ddfeff" stroke="black" d="M651,-439C651,-439 571,-439 571,-439 568,-439 565,-436 565,-433 565,-433 565,-427 565,-427 565,-424 568,-421 571,-421 571,-421 651,-421 651,-421 654,-421 657,-424 657,-427 657,-427 657,-433 657,-433 657,-436 654,-439 651,-439"/>
<text text-anchor="start" x="573" y="-427.8" font-family="Helvetica,sans-Serif" font-size="9.00">CollectionEditor.ts</text>
</a>
</g>
</g>
<!-- src/gathering/CollectionEditor/CollectionEditor.test.ts&#45;&gt;src/gathering/CollectionEditor/CollectionEditor.ts -->
<g id="edge2" class="edge">
<title>src/gathering/CollectionEditor/CollectionEditor.test.ts&#45;&gt;src/gathering/CollectionEditor/CollectionEditor.ts</title>
<path fill="none" stroke="#000000" stroke-width="2" stroke-opacity="0.200000" d="M541.51,-438.42C547.25,-437.72 553.07,-437 558.78,-436.3"/>
<polygon fill="#000000" fill-opacity="0.200000" stroke="#000000" stroke-width="2" stroke-opacity="0.200000" points="559.22,-438.36 564.92,-435.54 558.71,-434.19 559.22,-438.36"/>
</g>
<!-- src/gathering/CollectionEditor/PackRepositoryMock.ts -->
<g id="node5" class="node">
<title>src/gathering/CollectionEditor/PackRepositoryMock.ts</title>
<g id="a_node5"><a xlink:href="src/gathering/CollectionEditor/PackRepositoryMock.ts" xlink:title="PackRepositoryMock.ts">
<path fill="#ddfeff" stroke="black" d="M661,-469C661,-469 561,-469 561,-469 558,-469 555,-466 555,-463 555,-463 555,-457 555,-457 555,-454 558,-451 561,-451 561,-451 661,-451 661,-451 664,-451 667,-454 667,-457 667,-457 667,-463 667,-463 667,-466 664,-469 661,-469"/>
<text text-anchor="start" x="563" y="-457.8" font-family="Helvetica,sans-Serif" font-size="9.00">PackRepositoryMock.ts</text>
</a>
</g>
</g>
<!-- src/gathering/CollectionEditor/CollectionEditor.test.ts&#45;&gt;src/gathering/CollectionEditor/PackRepositoryMock.ts -->
<g id="edge3" class="edge">
<title>src/gathering/CollectionEditor/CollectionEditor.test.ts&#45;&gt;src/gathering/CollectionEditor/PackRepositoryMock.ts</title>
<path fill="none" stroke="#000000" stroke-width="2" stroke-opacity="0.200000" d="M541.51,-451.58C543.82,-451.86 546.15,-452.15 548.48,-452.44"/>
<polygon fill="#000000" fill-opacity="0.200000" stroke="#000000" stroke-width="2" stroke-opacity="0.200000" points="548.42,-454.55 554.64,-453.19 548.94,-450.38 548.42,-454.55"/>
</g>
<!-- src/gathering/CollectionEntity.ts -->
<g id="node6" class="node">
<title>src/gathering/CollectionEntity.ts</title>
<g id="a_node6"><a xlink:href="src/gathering/CollectionEntity.ts" xlink:title="CollectionEntity.ts">
<path fill="#ddfeff" stroke="black" d="M779,-538C779,-538 702,-538 702,-538 699,-538 696,-535 696,-532 696,-532 696,-526 696,-526 696,-523 699,-520 702,-520 702,-520 779,-520 779,-520 782,-520 785,-523 785,-526 785,-526 785,-532 785,-532 785,-535 782,-538 779,-538"/>
<text text-anchor="start" x="704" y="-526.8" font-family="Helvetica,sans-Serif" font-size="9.00">CollectionEntity.ts</text>
</a>
</g>
</g>
<!-- src/gathering/CollectionEditor/CollectionEditor.test.ts&#45;&gt;src/gathering/CollectionEntity.ts -->
<g id="edge5" class="edge">
<title>src/gathering/CollectionEditor/CollectionEditor.test.ts&#45;&gt;src/gathering/CollectionEntity.ts</title>
<path fill="none" stroke="#000000" stroke-width="2" stroke-opacity="0.200000" d="M501.86,-454.03C515.06,-462.3 535.73,-474.37 555,-482 599.2,-499.5 651.96,-512.17 689.72,-519.91"/>
<polygon fill="#000000" fill-opacity="0.200000" stroke="#000000" stroke-width="2" stroke-opacity="0.200000" points="689.35,-521.98 695.64,-521.11 690.18,-517.86 689.35,-521.98"/>
</g>
<!-- src/gathering/ICollectionEditor.ts -->
<g id="node7" class="node">
<title>src/gathering/ICollectionEditor.ts</title>
<g id="a_node7"><a xlink:href="src/gathering/ICollectionEditor.ts" xlink:title="ICollectionEditor.ts">
<path fill="#ddfeff" stroke="black" d="M781.5,-480C781.5,-480 699.5,-480 699.5,-480 696.5,-480 693.5,-477 693.5,-474 693.5,-474 693.5,-468 693.5,-468 693.5,-465 696.5,-462 699.5,-462 699.5,-462 781.5,-462 781.5,-462 784.5,-462 787.5,-465 787.5,-468 787.5,-468 787.5,-474 787.5,-474 787.5,-477 784.5,-480 781.5,-480"/>
<text text-anchor="start" x="701.5" y="-468.8" font-family="Helvetica,sans-Serif" font-size="9.00">ICollectionEditor.ts</text>
</a>
</g>
</g>
<!-- src/gathering/CollectionEditor/CollectionEditor.test.ts&#45;&gt;src/gathering/ICollectionEditor.ts -->
<g id="edge6" class="edge">
<title>src/gathering/CollectionEditor/CollectionEditor.test.ts&#45;&gt;src/gathering/ICollectionEditor.ts</title>
<path fill="none" stroke="#000000" stroke-opacity="0.200000" d="M503.33,-454.12C516.52,-461.39 536.3,-471.01 555,-475 598.83,-484.37 649.86,-482.3 687.13,-478.5"/>
<polygon fill="none" stroke="#000000" stroke-opacity="0.200000" points="687.71,-480.55 693.45,-477.83 687.27,-476.37 687.71,-480.55"/>
</g>
<!-- src/gathering/ICollectionOutput.ts -->
<g id="node8" class="node">
<title>src/gathering/ICollectionOutput.ts</title>
<g id="a_node8"><a xlink:href="src/gathering/ICollectionOutput.ts" xlink:title="ICollectionOutput.ts">
<path fill="#ddfeff" stroke="black" d="M783,-380C783,-380 698,-380 698,-380 695,-380 692,-377 692,-374 692,-374 692,-368 692,-368 692,-365 695,-362 698,-362 698,-362 783,-362 783,-362 786,-362 789,-365 789,-368 789,-368 789,-374 789,-374 789,-377 786,-380 783,-380"/>
<text text-anchor="start" x="700" y="-368.8" font-family="Helvetica,sans-Serif" font-size="9.00">ICollectionOutput.ts</text>
</a>
</g>
</g>
<!-- src/gathering/CollectionEditor/CollectionEditor.test.ts&#45;&gt;src/gathering/ICollectionOutput.ts -->
<g id="edge7" class="edge">
<title>src/gathering/CollectionEditor/CollectionEditor.test.ts&#45;&gt;src/gathering/ICollectionOutput.ts</title>
<path fill="none" stroke="#000000" stroke-opacity="0.200000" d="M541.75,-436.43C543.63,-435.13 545.4,-433.66 547,-432 560.52,-418.03 540.67,-402.14 555,-389 591.06,-355.94 649.36,-355.79 690.76,-361.13"/>
<polygon fill="none" stroke="#000000" stroke-opacity="0.200000" points="690.51,-363.22 696.74,-361.96 691.09,-359.06 690.51,-363.22"/>
</g>
<!-- src/gathering/CollectionEditor/CollectionEditor.ts&#45;&gt;src/gathering/Pack.ts -->
<g id="edge12" class="edge">
<title>src/gathering/CollectionEditor/CollectionEditor.ts&#45;&gt;src/gathering/Pack.ts</title>
<path fill="none" stroke="#000000" stroke-opacity="0.200000" d="M657.21,-435.22C663.68,-437.48 669.87,-440.62 675,-445 690.01,-457.79 675.6,-475.04 692,-486 726.82,-509.26 850.6,-491.44 910.31,-481.08"/>
<polygon fill="none" stroke="#000000" stroke-opacity="0.200000" points="911.03,-483.08 916.58,-479.98 910.31,-478.95 911.03,-483.08"/>
</g>
<!-- src/gathering/CollectionEditor/CollectionEditor.ts&#45;&gt;src/gathering/CollectionEntity.ts -->
<g id="edge9" class="edge">
<title>src/gathering/CollectionEditor/CollectionEditor.ts&#45;&gt;src/gathering/CollectionEntity.ts</title>
<path fill="none" stroke="#000000" stroke-width="2" stroke-opacity="0.200000" d="M657.19,-434.76C663.74,-437.07 669.96,-440.35 675,-445 692.89,-461.47 677.34,-477.6 692,-497 697.94,-504.86 706.4,-511.44 714.54,-516.54"/>
<polygon fill="#000000" fill-opacity="0.200000" stroke="#000000" stroke-width="2" stroke-opacity="0.200000" points="713.86,-518.57 720.09,-519.83 716,-514.96 713.86,-518.57"/>
</g>
<!-- src/gathering/CollectionEditor/CollectionEditor.ts&#45;&gt;src/gathering/ICollectionEditor.ts -->
<g id="edge10" class="edge">
<title>src/gathering/CollectionEditor/CollectionEditor.ts&#45;&gt;src/gathering/ICollectionEditor.ts</title>
<path fill="none" stroke="#000000" stroke-opacity="0.200000" d="M657.1,-438.51C663.24,-440.31 669.36,-442.45 675,-445 683.43,-448.81 683.67,-452.97 692,-457 694.01,-457.97 696.11,-458.9 698.25,-459.76"/>
<polygon fill="none" stroke="#000000" stroke-opacity="0.200000" points="697.64,-461.78 703.99,-461.94 699.13,-457.85 697.64,-461.78"/>
</g>
<!-- src/gathering/CollectionEditor/CollectionEditor.ts&#45;&gt;src/gathering/ICollectionOutput.ts -->
<g id="edge11" class="edge">
<title>src/gathering/CollectionEditor/CollectionEditor.ts&#45;&gt;src/gathering/ICollectionOutput.ts</title>
<path fill="none" stroke="#000000" stroke-opacity="0.200000" d="M657.27,-424.17C663.45,-422.38 669.54,-420.05 675,-417 684.61,-411.64 683.4,-405.86 692,-399 699.3,-393.18 707.93,-387.73 715.81,-383.22"/>
<polygon fill="none" stroke="#000000" stroke-opacity="0.200000" points="716.92,-385.01 721.13,-380.25 714.87,-381.34 716.92,-385.01"/>
</g>
<!-- src/gathering/PackRepository/index.ts -->
<g id="node9" class="node">
<title>src/gathering/PackRepository/index.ts</title>
<g id="a_node9"><a xlink:href="src/gathering/PackRepository/index.ts" xlink:title="index.ts">
<path fill="#ddfeff" stroke="black" d="M761.5,-428C761.5,-428 719.5,-428 719.5,-428 716.5,-428 713.5,-425 713.5,-422 713.5,-422 713.5,-416 713.5,-416 713.5,-413 716.5,-410 719.5,-410 719.5,-410 761.5,-410 761.5,-410 764.5,-410 767.5,-413 767.5,-416 767.5,-416 767.5,-422 767.5,-422 767.5,-425 764.5,-428 761.5,-428"/>
<text text-anchor="start" x="724.5" y="-416.8" font-family="Helvetica,sans-Serif" font-size="9.00">index.ts</text>
</a>
</g>
</g>
<!-- src/gathering/CollectionEditor/CollectionEditor.ts&#45;&gt;src/gathering/PackRepository/index.ts -->
<g id="edge8" class="edge">
<title>src/gathering/CollectionEditor/CollectionEditor.ts&#45;&gt;src/gathering/PackRepository/index.ts</title>
<path fill="none" stroke="#000000" stroke-width="2" stroke-opacity="0.200000" d="M657.31,-426.09C673.72,-424.68 691.91,-423.11 707,-421.8"/>
<polygon fill="#000000" fill-opacity="0.200000" stroke="#000000" stroke-width="2" stroke-opacity="0.200000" points="707.47,-423.87 713.26,-421.26 707.1,-419.69 707.47,-423.87"/>
</g>
<!-- src/gathering/CollectionEditor/PackRepositoryMock.ts&#45;&gt;src/gathering/Pack.ts -->
<g id="edge14" class="edge">
<title>src/gathering/CollectionEditor/PackRepositoryMock.ts&#45;&gt;src/gathering/Pack.ts</title>
<path fill="none" stroke="#000000" stroke-opacity="0.200000" d="M617.14,-469.12C628.1,-487.47 655.72,-528.45 692,-544 779.58,-581.54 821.08,-558.95 904,-512 914.49,-506.06 924.33,-496.69 931.49,-488.87"/>
<polygon fill="none" stroke="#000000" stroke-opacity="0.200000" points="933.19,-490.13 935.6,-484.24 930.04,-487.34 933.19,-490.13"/>
</g>
<!-- src/gathering/IPackRepository.ts -->
<g id="node10" class="node">
<title>src/gathering/IPackRepository.ts</title>
<g id="a_node10"><a xlink:href="src/gathering/IPackRepository.ts" xlink:title="IPackRepository.ts">
<path fill="#ddfeff" stroke="black" d="M898,-462C898,-462 817,-462 817,-462 814,-462 811,-459 811,-456 811,-456 811,-450 811,-450 811,-447 814,-444 817,-444 817,-444 898,-444 898,-444 901,-444 904,-447 904,-450 904,-450 904,-456 904,-456 904,-459 901,-462 898,-462"/>
<text text-anchor="start" x="819" y="-450.8" font-family="Helvetica,sans-Serif" font-size="9.00">IPackRepository.ts</text>
</a>
</g>
</g>
<!-- src/gathering/CollectionEditor/PackRepositoryMock.ts&#45;&gt;src/gathering/IPackRepository.ts -->
<g id="edge13" class="edge">
<title>src/gathering/CollectionEditor/PackRepositoryMock.ts&#45;&gt;src/gathering/IPackRepository.ts</title>
<path fill="none" stroke="#000000" stroke-opacity="0.200000" d="M664.83,-469.03C668.33,-470.2 671.75,-471.52 675,-473 683.65,-476.95 682.99,-482.95 692,-486 732.83,-499.82 747,-495.72 789,-486 806.35,-481.99 824.39,-472.87 837.45,-465.24"/>
<polygon fill="none" stroke="#000000" stroke-opacity="0.200000" points="838.66,-466.96 842.72,-462.07 836.5,-463.36 838.66,-466.96"/>
</g>
<!-- src/gathering/CollectionEntity.ts&#45;&gt;src/gathering/Pack.ts -->
<g id="edge16" class="edge">
<title>src/gathering/CollectionEntity.ts&#45;&gt;src/gathering/Pack.ts</title>
<path fill="none" stroke="#000000" stroke-opacity="0.200000" d="M785.29,-524.23C818.6,-519.68 865.16,-511.35 904,-497 910.81,-494.48 917.84,-490.87 924.03,-487.3"/>
<polygon fill="none" stroke="#000000" stroke-opacity="0.200000" points="925.37,-488.95 929.44,-484.07 923.21,-485.35 925.37,-488.95"/>
</g>
<!-- src/gathering/CollectionEntity.ts&#45;&gt;src/gathering/IPackRepository.ts -->
<g id="edge15" class="edge">
<title>src/gathering/CollectionEntity.ts&#45;&gt;src/gathering/IPackRepository.ts</title>
<path fill="none" stroke="#000000" stroke-opacity="0.200000" d="M770.38,-519.89C776.71,-517.4 783.24,-514.42 789,-511 809.82,-498.63 830.45,-479.66 843.32,-466.82"/>
<polygon fill="none" stroke="#000000" stroke-opacity="0.200000" points="844.97,-468.13 847.69,-462.38 841.98,-465.18 844.97,-468.13"/>
</g>
<!-- src/gathering/ICollectionEditor.ts&#45;&gt;src/gathering/Pack.ts -->
<g id="edge17" class="edge">
<title>src/gathering/ICollectionEditor.ts&#45;&gt;src/gathering/Pack.ts</title>
<path fill="none" stroke="#000000" stroke-opacity="0.200000" d="M787.73,-471.92C825.2,-472.66 877.07,-473.69 910.33,-474.35"/>
<polygon fill="none" stroke="#000000" stroke-opacity="0.200000" points="910.69,-476.46 916.73,-474.48 910.77,-472.26 910.69,-476.46"/>
</g>
<!-- src/gathering/ICollectionOutput.ts&#45;&gt;src/gathering/Collection.ts -->
<g id="edge18" class="edge">
<title>src/gathering/ICollectionOutput.ts&#45;&gt;src/gathering/Collection.ts</title>
<path fill="none" stroke="#000000" stroke-opacity="0.200000" d="M789.27,-375.57C798.6,-376.46 808.28,-377.39 817.28,-378.25"/>
<polygon fill="none" stroke="#000000" stroke-opacity="0.200000" points="817.23,-380.35 823.4,-378.83 817.63,-376.17 817.23,-380.35"/>
</g>
<!-- src/gathering/PackRepository/index.ts&#45;&gt;src/gathering/Pack.ts -->
<g id="edge21" class="edge">
<title>src/gathering/PackRepository/index.ts&#45;&gt;src/gathering/Pack.ts</title>
<path fill="none" stroke="#000000" stroke-opacity="0.200000" d="M767.63,-417.13C800.93,-415.82 859.49,-417.17 904,-438 915.2,-443.24 925.25,-452.97 932.35,-461.14"/>
<polygon fill="none" stroke="#000000" stroke-opacity="0.200000" points="930.91,-462.69 936.37,-465.96 934.14,-460.01 930.91,-462.69"/>
</g>
<!-- src/gathering/PackRepository/index.ts&#45;&gt;src/gathering/IPackRepository.ts -->
<g id="edge20" class="edge">
<title>src/gathering/PackRepository/index.ts&#45;&gt;src/gathering/IPackRepository.ts</title>
<path fill="none" stroke="#000000" stroke-opacity="0.200000" d="M767.68,-425.99C774.62,-427.89 782.11,-429.99 789,-432 799.93,-435.2 811.81,-438.83 822.51,-442.18"/>
<polygon fill="none" stroke="#000000" stroke-opacity="0.200000" points="821.97,-444.21 828.32,-444 823.22,-440.2 821.97,-444.21"/>
</g>
<!-- src/gathering/IPackRepository.ts&#45;&gt;src/gathering/Pack.ts -->
<g id="edge19" class="edge">
<title>src/gathering/IPackRepository.ts&#45;&gt;src/gathering/Pack.ts</title>
<path fill="none" stroke="#000000" stroke-opacity="0.200000" d="M893.36,-462.08C899.1,-463.57 905.03,-465.11 910.71,-466.59"/>
<polygon fill="none" stroke="#000000" stroke-opacity="0.200000" points="910.41,-468.68 916.74,-468.16 911.47,-464.62 910.41,-468.68"/>
</g>
<!-- src/gathering/index.ts -->
<g id="node11" class="node">
<title>src/gathering/index.ts</title>
<g id="a_node11"><a xlink:href="src/gathering/index.ts" xlink:title="index.ts">
<path fill="#ddfeff" stroke="black" d="M508,-380C508,-380 466,-380 466,-380 463,-380 460,-377 460,-374 460,-374 460,-368 460,-368 460,-365 463,-362 466,-362 466,-362 508,-362 508,-362 511,-362 514,-365 514,-368 514,-368 514,-374 514,-374 514,-377 511,-380 508,-380"/>
<text text-anchor="start" x="471" y="-368.8" font-family="Helvetica,sans-Serif" font-size="9.00">index.ts</text>
</a>
</g>
</g>
<!-- src/gathering/index.ts&#45;&gt;src/gathering/CollectionEditor/CollectionEditor.ts -->
<g id="edge22" class="edge">
<title>src/gathering/index.ts&#45;&gt;src/gathering/CollectionEditor/CollectionEditor.ts</title>
<path fill="none" stroke="#000000" stroke-width="2" stroke-opacity="0.200000" d="M502.93,-380.08C515.09,-387.67 532.55,-398.98 547,-410 550.76,-412.86 550.8,-414.84 555,-417 556.37,-417.71 557.79,-418.38 559.23,-419.01"/>
<polygon fill="#000000" fill-opacity="0.200000" stroke="#000000" stroke-width="2" stroke-opacity="0.200000" points="558.56,-421.01 564.91,-421.28 560.12,-417.11 558.56,-421.01"/>
</g>
<!-- src/gathering/index.ts&#45;&gt;src/gathering/PackRepository/index.ts -->
<g id="edge23" class="edge">
<title>src/gathering/index.ts&#45;&gt;src/gathering/PackRepository/index.ts</title>
<path fill="none" stroke="#000000" stroke-width="2" stroke-opacity="0.200000" d="M514.44,-376.05C560.88,-384.91 656.94,-403.24 707.22,-412.84"/>
<polygon fill="#000000" fill-opacity="0.200000" stroke="#000000" stroke-width="2" stroke-opacity="0.200000" points="707.13,-414.96 713.41,-414.02 707.91,-410.83 707.13,-414.96"/>
</g>
<!-- src/lib/Components/Binder.svelte.ts -->
<g id="node12" class="node">
<title>src/lib/Components/Binder.svelte.ts</title>
<g id="a_node12"><a xlink:href="src/lib/Components/Binder.svelte.ts" xlink:title="Binder.svelte.ts">
<path fill="#ddfeff" stroke="black" d="M359.5,-234C359.5,-234 291.5,-234 291.5,-234 288.5,-234 285.5,-231 285.5,-228 285.5,-228 285.5,-222 285.5,-222 285.5,-219 288.5,-216 291.5,-216 291.5,-216 359.5,-216 359.5,-216 362.5,-216 365.5,-219 365.5,-222 365.5,-222 365.5,-228 365.5,-228 365.5,-231 362.5,-234 359.5,-234"/>
<text text-anchor="start" x="293.5" y="-222.8" font-family="Helvetica,sans-Serif" font-size="9.00">Binder.svelte.ts</text>
</a>
</g>
</g>
<!-- src/lib/Components/PocketSheet.svelte.ts -->
<g id="node13" class="node">
<title>src/lib/Components/PocketSheet.svelte.ts</title>
<g id="a_node13"><a xlink:href="src/lib/Components/PocketSheet.svelte.ts" xlink:title="PocketSheet.svelte.ts">
<path fill="#ddfeff" stroke="black" d="M533,-234C533,-234 441,-234 441,-234 438,-234 435,-231 435,-228 435,-228 435,-222 435,-222 435,-219 438,-216 441,-216 441,-216 533,-216 533,-216 536,-216 539,-219 539,-222 539,-222 539,-228 539,-228 539,-231 536,-234 533,-234"/>
<text text-anchor="start" x="443" y="-222.8" font-family="Helvetica,sans-Serif" font-size="9.00">PocketSheet.svelte.ts</text>
</a>
</g>
</g>
<!-- src/lib/Components/Binder.svelte.ts&#45;&gt;src/lib/Components/PocketSheet.svelte.ts -->
<g id="edge24" class="edge">
<title>src/lib/Components/Binder.svelte.ts&#45;&gt;src/lib/Components/PocketSheet.svelte.ts</title>
<path fill="none" stroke="#000000" stroke-width="2" stroke-opacity="0.200000" d="M365.52,-225C384.49,-225 407.66,-225 428.6,-225"/>
<polygon fill="#000000" fill-opacity="0.200000" stroke="#000000" stroke-width="2" stroke-opacity="0.200000" points="428.73,-227.1 434.73,-225 428.73,-222.9 428.73,-227.1"/>
</g>
<!-- src/lib/ViewModels/binder.ts -->
<g id="node14" class="node">
<title>src/lib/ViewModels/binder.ts</title>
<g id="a_node14"><a xlink:href="src/lib/ViewModels/binder.ts" xlink:title="binder.ts">
<path fill="#ddfeff" stroke="black" d="M632,-243C632,-243 590,-243 590,-243 587,-243 584,-240 584,-237 584,-237 584,-231 584,-231 584,-228 587,-225 590,-225 590,-225 632,-225 632,-225 635,-225 638,-228 638,-231 638,-231 638,-237 638,-237 638,-240 635,-243 632,-243"/>
<text text-anchor="start" x="592.5" y="-231.8" font-family="Helvetica,sans-Serif" font-size="9.00">binder.ts</text>
</a>
</g>
</g>
<!-- src/lib/Components/Binder.svelte.ts&#45;&gt;src/lib/ViewModels/binder.ts -->
<g id="edge25" class="edge">
<title>src/lib/Components/Binder.svelte.ts&#45;&gt;src/lib/ViewModels/binder.ts</title>
<path fill="none" stroke="#000000" stroke-opacity="0.200000" d="M365.75,-232.99C381.46,-235.81 399.77,-238.62 416.5,-240 474.3,-244.78 489.07,-242.75 547,-240 557.09,-239.52 568.05,-238.61 577.97,-237.64"/>
<polygon fill="none" stroke="#000000" stroke-opacity="0.200000" points="578.23,-239.73 583.99,-237.04 577.81,-235.55 578.23,-239.73"/>
</g>
<!-- src/lib/Components/PocketSheet.svelte.ts&#45;&gt;src/lib/ViewModels/binder.ts -->
<g id="edge26" class="edge">
<title>src/lib/Components/PocketSheet.svelte.ts&#45;&gt;src/lib/ViewModels/binder.ts</title>
<path fill="none" stroke="#000000" stroke-opacity="0.200000" d="M539.03,-228.76C552.15,-229.73 565.91,-230.75 577.78,-231.62"/>
<polygon fill="none" stroke="#000000" stroke-opacity="0.200000" points="577.66,-233.72 583.8,-232.07 577.97,-229.53 577.66,-233.72"/>
</g>
<!-- src/lib/userEditsCollection/userEditsCollection.ts -->
<g id="node15" class="node">
<title>src/lib/userEditsCollection/userEditsCollection.ts</title>
<g id="a_node15"><a xlink:href="src/lib/userEditsCollection/userEditsCollection.ts" xlink:title="userEditsCollection.ts">
<path fill="#ddfeff" stroke="black" d="M373,-294C373,-294 278,-294 278,-294 275,-294 272,-291 272,-288 272,-288 272,-282 272,-282 272,-279 275,-276 278,-276 278,-276 373,-276 373,-276 376,-276 379,-279 379,-282 379,-282 379,-288 379,-288 379,-291 376,-294 373,-294"/>
<text text-anchor="start" x="280" y="-282.8" font-family="Helvetica,sans-Serif" font-size="9.00">userEditsCollection.ts</text>
</a>
</g>
</g>
<!-- src/lib/userEditsCollection/userEditsCollection.ts&#45;&gt;src/gathering/Collection.ts -->
<g id="edge28" class="edge">
<title>src/lib/userEditsCollection/userEditsCollection.ts&#45;&gt;src/gathering/Collection.ts</title>
<path fill="none" stroke="#000000" stroke-opacity="0.200000" d="M379.08,-282.5C484.52,-278.28 717.82,-273.25 789,-307 816.3,-319.95 837.46,-349.5 848.36,-367.4"/>
<polygon fill="none" stroke="#000000" stroke-opacity="0.200000" points="846.79,-368.88 851.65,-372.98 850.41,-366.75 846.79,-368.88"/>
</g>
<!-- src/lib/userEditsCollection/userEditsCollection.ts&#45;&gt;src/gathering/ICollectionEditor.ts -->
<g id="edge29" class="edge">
<title>src/lib/userEditsCollection/userEditsCollection.ts&#45;&gt;src/gathering/ICollectionEditor.ts</title>
<path fill="none" stroke="#000000" stroke-opacity="0.200000" d="M344.38,-294.13C362.26,-302.98 390.74,-316.3 416.5,-325 531.08,-363.7 591.74,-322.28 675,-410 690.29,-426.11 675.83,-441.77 692,-457 692.5,-457.47 693.02,-457.93 693.55,-458.37"/>
<polygon fill="none" stroke="#000000" stroke-opacity="0.200000" points="692.52,-460.21 698.64,-461.93 694.93,-456.77 692.52,-460.21"/>
</g>
<!-- src/lib/userEditsCollection/userEditsCollection.ts&#45;&gt;src/gathering/ICollectionOutput.ts -->
<g id="edge30" class="edge">
<title>src/lib/userEditsCollection/userEditsCollection.ts&#45;&gt;src/gathering/ICollectionOutput.ts</title>
<path fill="none" stroke="#000000" stroke-opacity="0.200000" d="M349.06,-294.02C367.04,-300.84 393.01,-309.87 416.5,-315 529.4,-339.63 563.29,-313.43 675,-343 689.4,-346.81 704.73,-353.35 716.83,-359.15"/>
<polygon fill="none" stroke="#000000" stroke-opacity="0.200000" points="716.18,-361.17 722.49,-361.93 718.02,-357.4 716.18,-361.17"/>
</g>
<!-- src/lib/userEditsCollection/userEditsCollection.ts&#45;&gt;src/gathering/IPackRepository.ts -->
<g id="edge31" class="edge">
<title>src/lib/userEditsCollection/userEditsCollection.ts&#45;&gt;src/gathering/IPackRepository.ts</title>
<path fill="none" stroke="#000000" stroke-opacity="0.200000" d="M379.34,-286.61C486.95,-290.92 726.66,-306 789,-356 805.13,-368.94 799.54,-379.79 811,-397 821.11,-412.19 834.45,-428.23 844.07,-439.23"/>
<polygon fill="none" stroke="#000000" stroke-opacity="0.200000" points="842.66,-440.8 848.2,-443.91 845.8,-438.02 842.66,-440.8"/>
</g>
<!-- src/lib/userEditsCollection/userEditsCollection.ts&#45;&gt;src/gathering/index.ts -->
<g id="edge27" class="edge">
<title>src/lib/userEditsCollection/userEditsCollection.ts&#45;&gt;src/gathering/index.ts</title>
<path fill="none" stroke="#000000" stroke-width="2" stroke-opacity="0.200000" d="M336.52,-294.23C352.36,-308.36 384.67,-335.37 416.5,-351 428.11,-356.7 441.64,-361.05 453.65,-364.22"/>
<polygon fill="#000000" fill-opacity="0.200000" stroke="#000000" stroke-width="2" stroke-opacity="0.200000" points="453.45,-366.33 459.78,-365.77 454.48,-362.26 453.45,-366.33"/>
</g>
<!-- src/routes/collection/+page.svelte.ts -->
<g id="node16" class="node">
<title>src/routes/collection/+page.svelte.ts</title>
<g id="a_node16"><a xlink:href="src/routes/collection/+page.svelte.ts" xlink:title="+page.svelte.ts">
<path fill="#ddfeff" stroke="black" d="M113,-140C113,-140 46,-140 46,-140 43,-140 40,-137 40,-134 40,-134 40,-128 40,-128 40,-125 43,-122 46,-122 46,-122 113,-122 113,-122 116,-122 119,-125 119,-128 119,-128 119,-134 119,-134 119,-137 116,-140 113,-140"/>
<text text-anchor="start" x="48" y="-128.8" font-family="Helvetica,sans-Serif" font-size="9.00">+page.svelte.ts</text>
</a>
</g>
</g>
<!-- src/routes/collection/+page.svelte.ts&#45;&gt;src/lib/Components/Binder.svelte.ts -->
<g id="edge32" class="edge">
<title>src/routes/collection/+page.svelte.ts&#45;&gt;src/lib/Components/Binder.svelte.ts</title>
<path fill="none" stroke="#000000" stroke-width="2" stroke-opacity="0.200000" d="M103.9,-140.01C148.6,-157.23 246.05,-194.78 295.08,-213.67"/>
<polygon fill="#000000" fill-opacity="0.200000" stroke="#000000" stroke-width="2" stroke-opacity="0.200000" points="294.46,-215.68 300.82,-215.88 295.97,-211.76 294.46,-215.68"/>
</g>
<!-- src/routes/collection/edit/+page.svelte.ts -->
<g id="node17" class="node">
<title>src/routes/collection/edit/+page.svelte.ts</title>
<g id="a_node17"><a xlink:href="src/routes/collection/edit/+page.svelte.ts" xlink:title="+page.svelte.ts">
<path fill="#ddfeff" stroke="black" d="M113,-88C113,-88 46,-88 46,-88 43,-88 40,-85 40,-82 40,-82 40,-76 40,-76 40,-73 43,-70 46,-70 46,-70 113,-70 113,-70 116,-70 119,-73 119,-76 119,-76 119,-82 119,-82 119,-85 116,-88 113,-88"/>
<text text-anchor="start" x="48" y="-76.8" font-family="Helvetica,sans-Serif" font-size="9.00">+page.svelte.ts</text>
</a>
</g>
</g>
<!-- src/routes/collection/edit/+page.svelte.ts&#45;&gt;src/lib/userEditsCollection/userEditsCollection.ts -->
<g id="edge34" class="edge">
<title>src/routes/collection/edit/+page.svelte.ts&#45;&gt;src/lib/userEditsCollection/userEditsCollection.ts</title>
<path fill="none" stroke="#000000" stroke-width="2" stroke-opacity="0.200000" d="M112.32,-88.08C114.66,-89.24 116.92,-90.54 119,-92 198.79,-147.83 175.79,-207.77 256,-263 262.39,-267.4 269.72,-270.97 277.15,-273.83"/>
<polygon fill="#000000" fill-opacity="0.200000" stroke="#000000" stroke-width="2" stroke-opacity="0.200000" points="276.48,-275.83 282.84,-275.9 277.92,-271.88 276.48,-275.83"/>
</g>
<!-- src/routes/collection/edit/CollectiblePack.svelte.ts -->
<g id="node18" class="node">
<title>src/routes/collection/edit/CollectiblePack.svelte.ts</title>
<g id="a_node18"><a xlink:href="src/routes/collection/edit/CollectiblePack.svelte.ts" xlink:title="CollectiblePack.svelte.ts">
<path fill="#ddfeff" stroke="black" d="M242,-88C242,-88 138,-88 138,-88 135,-88 132,-85 132,-82 132,-82 132,-76 132,-76 132,-73 135,-70 138,-70 138,-70 242,-70 242,-70 245,-70 248,-73 248,-76 248,-76 248,-82 248,-82 248,-85 245,-88 242,-88"/>
<text text-anchor="start" x="140" y="-76.8" font-family="Helvetica,sans-Serif" font-size="9.00">CollectiblePack.svelte.ts</text>
</a>
</g>
</g>
<!-- src/routes/collection/edit/+page.svelte.ts&#45;&gt;src/routes/collection/edit/CollectiblePack.svelte.ts -->
<g id="edge33" class="edge">
<title>src/routes/collection/edit/+page.svelte.ts&#45;&gt;src/routes/collection/edit/CollectiblePack.svelte.ts</title>
<path fill="none" stroke="#000000" stroke-width="2" stroke-opacity="0.200000" d="M119.06,-79C121.26,-79 123.5,-79 125.76,-79"/>
<polygon fill="#000000" fill-opacity="0.200000" stroke="#000000" stroke-width="2" stroke-opacity="0.200000" points="125.78,-81.1 131.78,-79 125.78,-76.9 125.78,-81.1"/>
</g>
<!-- src/routes/collection/edit/CollectiblePack.svelte.ts&#45;&gt;src/lib/userEditsCollection/userEditsCollection.ts -->
<g id="edge37" class="edge">
<title>src/routes/collection/edit/CollectiblePack.svelte.ts&#45;&gt;src/lib/userEditsCollection/userEditsCollection.ts</title>
<path fill="none" stroke="#000000" stroke-opacity="0.200000" d="M193.94,-88.01C205.72,-124.09 249.29,-256.48 256,-263 260.37,-267.24 265.56,-270.67 271.09,-273.43"/>
<polygon fill="none" stroke="#000000" stroke-opacity="0.200000" points="270.4,-275.42 276.73,-275.98 272.13,-271.6 270.4,-275.42"/>
</g>
<!-- src/routes/collection/edit/arrow&#45;down.svg.svelte.ts -->
<g id="node19" class="node">
<title>src/routes/collection/edit/arrow&#45;down.svg.svelte.ts</title>
<g id="a_node19"><a xlink:href="src/routes/collection/edit/arrow-down.svg.svelte.ts" xlink:title="arrow&#45;down.svg.svelte.ts">
<path fill="#ddfeff" stroke="black" d="M378.5,-58C378.5,-58 272.5,-58 272.5,-58 269.5,-58 266.5,-55 266.5,-52 266.5,-52 266.5,-46 266.5,-46 266.5,-43 269.5,-40 272.5,-40 272.5,-40 378.5,-40 378.5,-40 381.5,-40 384.5,-43 384.5,-46 384.5,-46 384.5,-52 384.5,-52 384.5,-55 381.5,-58 378.5,-58"/>
<text text-anchor="start" x="274.5" y="-46.8" font-family="Helvetica,sans-Serif" font-size="9.00">arrow&#45;down.svg.svelte.ts</text>
</a>
</g>
</g>
<!-- src/routes/collection/edit/CollectiblePack.svelte.ts&#45;&gt;src/routes/collection/edit/arrow&#45;down.svg.svelte.ts -->
<g id="edge35" class="edge">
<title>src/routes/collection/edit/CollectiblePack.svelte.ts&#45;&gt;src/routes/collection/edit/arrow&#45;down.svg.svelte.ts</title>
<path fill="none" stroke="#000000" stroke-width="2" stroke-opacity="0.200000" d="M229.82,-69.97C238.44,-67.98 247.53,-65.91 256,-64 262.77,-62.48 269.93,-60.89 276.96,-59.34"/>
<polygon fill="#000000" fill-opacity="0.200000" stroke="#000000" stroke-width="2" stroke-opacity="0.200000" points="277.42,-61.39 282.83,-58.05 276.51,-57.29 277.42,-61.39"/>
</g>
<!-- src/routes/collection/edit/arrow&#45;up.svg.svelte.ts -->
<g id="node20" class="node">
<title>src/routes/collection/edit/arrow&#45;up.svg.svelte.ts</title>
<g id="a_node20"><a xlink:href="src/routes/collection/edit/arrow-up.svg.svelte.ts" xlink:title="arrow&#45;up.svg.svelte.ts">
<path fill="#ddfeff" stroke="black" d="M372.5,-88C372.5,-88 278.5,-88 278.5,-88 275.5,-88 272.5,-85 272.5,-82 272.5,-82 272.5,-76 272.5,-76 272.5,-73 275.5,-70 278.5,-70 278.5,-70 372.5,-70 372.5,-70 375.5,-70 378.5,-73 378.5,-76 378.5,-76 378.5,-82 378.5,-82 378.5,-85 375.5,-88 372.5,-88"/>
<text text-anchor="start" x="280.5" y="-76.8" font-family="Helvetica,sans-Serif" font-size="9.00">arrow&#45;up.svg.svelte.ts</text>
</a>
</g>
</g>
<!-- src/routes/collection/edit/CollectiblePack.svelte.ts&#45;&gt;src/routes/collection/edit/arrow&#45;up.svg.svelte.ts -->
<g id="edge36" class="edge">
<title>src/routes/collection/edit/CollectiblePack.svelte.ts&#45;&gt;src/routes/collection/edit/arrow&#45;up.svg.svelte.ts</title>
<path fill="none" stroke="#000000" stroke-width="2" stroke-opacity="0.200000" d="M248,-79C254.06,-79 260.23,-79 266.3,-79"/>
<polygon fill="#000000" fill-opacity="0.200000" stroke="#000000" stroke-width="2" stroke-opacity="0.200000" points="266.34,-81.1 272.34,-79 266.34,-76.9 266.34,-81.1"/>
</g>
</g>
</svg>
