<?xml version="1.0" encoding="UTF-8" standalone="no"?>
<!DOCTYPE svg PUBLIC "-//W3C//DTD SVG 1.1//EN"
 "http://www.w3.org/Graphics/SVG/1.1/DTD/svg11.dtd">
<!-- Generated by graphviz version 2.50.0 (20211204.2007)
 -->
<!-- Title: dependency&#45;cruiser output Pages: 1 -->
<svg width="624pt" height="510pt"
 viewBox="0.00 0.00 624.00 510.00" xmlns="http://www.w3.org/2000/svg" xmlns:xlink="http://www.w3.org/1999/xlink">
<g id="graph0" class="graph" transform="scale(1 1) rotate(0) translate(4 506)">
<title>dependency&#45;cruiser output</title>
<polygon fill="white" stroke="transparent" points="-4,4 -4,-506 620,-506 620,4 -4,4"/>
<g id="clust1" class="cluster">
<title>cluster_src</title>
<path fill="#ffffff" stroke="black" stroke-width="2" d="M20,-8C20,-8 596,-8 596,-8 602,-8 608,-14 608,-20 608,-20 608,-482 608,-482 608,-488 602,-494 596,-494 596,-494 20,-494 20,-494 14,-494 8,-488 8,-482 8,-482 8,-20 8,-20 8,-14 14,-8 20,-8"/>
<text text-anchor="middle" x="308" y="-482.8" font-family="Helvetica,sans-Serif" font-weight="bold" font-size="9.00">src</text>
</g>
<g id="clust7" class="cluster">
<title>cluster_src/lib</title>
<path fill="#ffffff" stroke="black" stroke-width="2" d="M148,-322C148,-322 289,-322 289,-322 295,-322 301,-328 301,-334 301,-334 301,-456 301,-456 301,-462 295,-468 289,-468 289,-468 148,-468 148,-468 142,-468 136,-462 136,-456 136,-456 136,-334 136,-334 136,-328 142,-322 148,-322"/>
<text text-anchor="middle" x="218.5" y="-456.8" font-family="Helvetica,sans-Serif" font-weight="bold" font-size="9.00">lib</text>
</g>
<g id="clust9" class="cluster">
<title>cluster_src/lib/userEditsItsCollection</title>
<path fill="#ffffff" stroke="black" stroke-width="2" d="M164,-390C164,-390 273,-390 273,-390 279,-390 285,-396 285,-402 285,-402 285,-430 285,-430 285,-436 279,-442 273,-442 273,-442 164,-442 164,-442 158,-442 152,-436 152,-430 152,-430 152,-402 152,-402 152,-396 158,-390 164,-390"/>
<text text-anchor="middle" x="218.5" y="-430.8" font-family="Helvetica,sans-Serif" font-weight="bold" font-size="9.00">userEditsItsCollection</text>
</g>
<g id="clust8" class="cluster">
<title>cluster_src/lib/userBrowsesItsCollection</title>
<path fill="#ffffff" stroke="black" stroke-width="2" d="M156,-330C156,-330 281,-330 281,-330 287,-330 293,-336 293,-342 293,-342 293,-370 293,-370 293,-376 287,-382 281,-382 281,-382 156,-382 156,-382 150,-382 144,-376 144,-370 144,-370 144,-342 144,-342 144,-336 150,-330 156,-330"/>
<text text-anchor="middle" x="218.5" y="-370.8" font-family="Helvetica,sans-Serif" font-weight="bold" font-size="9.00">userBrowsesItsCollection</text>
</g>
<g id="clust2" class="cluster">
<title>cluster_src/gathering</title>
<path fill="#ffffff" stroke="black" stroke-width="2" d="M158.5,-16C158.5,-16 588,-16 588,-16 594,-16 600,-22 600,-28 600,-28 600,-302 600,-302 600,-308 594,-314 588,-314 588,-314 158.5,-314 158.5,-314 152.5,-314 146.5,-308 146.5,-302 146.5,-302 146.5,-28 146.5,-28 146.5,-22 152.5,-16 158.5,-16"/>
<text text-anchor="middle" x="373.25" y="-302.8" font-family="Helvetica,sans-Serif" font-weight="bold" font-size="9.00">gathering</text>
</g>
<g id="clust3" class="cluster">
<title>cluster_src/gathering/CollectionEditor</title>
<path fill="#ffffff" stroke="black" stroke-width="2" d="M166.5,-146C166.5,-146 270.5,-146 270.5,-146 276.5,-146 282.5,-152 282.5,-158 282.5,-158 282.5,-216 282.5,-216 282.5,-222 276.5,-228 270.5,-228 270.5,-228 166.5,-228 166.5,-228 160.5,-228 154.5,-222 154.5,-216 154.5,-216 154.5,-158 154.5,-158 154.5,-152 160.5,-146 166.5,-146"/>
<text text-anchor="middle" x="218.5" y="-216.8" font-family="Helvetica,sans-Serif" font-weight="bold" font-size="9.00">CollectionEditor</text>
</g>
<g id="clust4" class="cluster">
<title>cluster_src/gathering/CollectionEntity</title>
<path fill="#ffffff" stroke="black" stroke-width="2" d="M323.5,-50C323.5,-50 404.5,-50 404.5,-50 410.5,-50 416.5,-56 416.5,-62 416.5,-62 416.5,-90 416.5,-90 416.5,-96 410.5,-102 404.5,-102 404.5,-102 323.5,-102 323.5,-102 317.5,-102 311.5,-96 311.5,-90 311.5,-90 311.5,-62 311.5,-62 311.5,-56 317.5,-50 323.5,-50"/>
<text text-anchor="middle" x="364" y="-90.8" font-family="Helvetica,sans-Serif" font-weight="bold" font-size="9.00">CollectionEntity</text>
</g>
<g id="clust5" class="cluster">
<title>cluster_src/gathering/CollectionLoader</title>
<path fill="#ffffff" stroke="black" stroke-width="2" d="M174,-236C174,-236 263,-236 263,-236 269,-236 275,-242 275,-248 275,-248 275,-276 275,-276 275,-282 269,-288 263,-288 263,-288 174,-288 174,-288 168,-288 162,-282 162,-276 162,-276 162,-248 162,-248 162,-242 168,-236 174,-236"/>
<text text-anchor="middle" x="218.5" y="-276.8" font-family="Helvetica,sans-Serif" font-weight="bold" font-size="9.00">CollectionLoader</text>
</g>
<g id="clust6" class="cluster">
<title>cluster_src/gathering/CollectionOrganizer</title>
<path fill="#ffffff" stroke="black" stroke-width="2" d="M169,-86C169,-86 268,-86 268,-86 274,-86 280,-92 280,-98 280,-98 280,-126 280,-126 280,-132 274,-138 268,-138 268,-138 169,-138 169,-138 163,-138 157,-132 157,-126 157,-126 157,-98 157,-98 157,-92 163,-86 169,-86"/>
<text text-anchor="middle" x="218.5" y="-126.8" font-family="Helvetica,sans-Serif" font-weight="bold" font-size="9.00">CollectionOrganizer</text>
</g>
<g id="clust10" class="cluster">
<title>cluster_src/routes</title>
<path fill="#ffffff" stroke="black" stroke-width="2" d="M28,-16C28,-16 116,-16 116,-16 122,-16 128,-22 128,-28 128,-28 128,-210 128,-210 128,-216 122,-222 116,-222 116,-222 28,-222 28,-222 22,-222 16,-216 16,-210 16,-210 16,-28 16,-28 16,-22 22,-16 28,-16"/>
<text text-anchor="middle" x="72" y="-210.8" font-family="Helvetica,sans-Serif" font-weight="bold" font-size="9.00">routes</text>
</g>
<g id="clust11" class="cluster">
<title>cluster_src/routes/cards</title>
<path fill="#ffffff" stroke="black" stroke-width="2" d="M36,-24C36,-24 108,-24 108,-24 114,-24 120,-30 120,-36 120,-36 120,-64 120,-64 120,-70 114,-76 108,-76 108,-76 36,-76 36,-76 30,-76 24,-70 24,-64 24,-64 24,-36 24,-36 24,-30 30,-24 36,-24"/>
<text text-anchor="middle" x="72" y="-64.8" font-family="Helvetica,sans-Serif" font-weight="bold" font-size="9.00">cards</text>
</g>
<g id="clust12" class="cluster">
<title>cluster_src/routes/collection</title>
<path fill="#ffffff" stroke="black" stroke-width="2" d="M36.5,-144C36.5,-144 107.5,-144 107.5,-144 113.5,-144 119.5,-150 119.5,-156 119.5,-156 119.5,-184 119.5,-184 119.5,-190 113.5,-196 107.5,-196 107.5,-196 36.5,-196 36.5,-196 30.5,-196 24.5,-190 24.5,-184 24.5,-184 24.5,-156 24.5,-156 24.5,-150 30.5,-144 36.5,-144"/>
<text text-anchor="middle" x="72" y="-184.8" font-family="Helvetica,sans-Serif" font-weight="bold" font-size="9.00">collection</text>
</g>
<g id="clust13" class="cluster">
<title>cluster_src/routes/packs</title>
<path fill="#ffffff" stroke="black" stroke-width="2" d="M36,-84C36,-84 108,-84 108,-84 114,-84 120,-90 120,-96 120,-96 120,-124 120,-124 120,-130 114,-136 108,-136 108,-136 36,-136 36,-136 30,-136 24,-130 24,-124 24,-124 24,-96 24,-96 24,-90 30,-84 36,-84"/>
<text text-anchor="middle" x="72" y="-124.8" font-family="Helvetica,sans-Serif" font-weight="bold" font-size="9.00">packs</text>
</g>
<!-- src/gathering/Collection.ts -->
<g id="node1" class="node">
<title>src/gathering/Collection.ts</title>
<g id="a_node1"><a xlink:href="src/gathering/Collection.ts" xlink:title="Collection.ts">
<path fill="#ddfeff" stroke="black" d="M506.5,-266C506.5,-266 450.5,-266 450.5,-266 447.5,-266 444.5,-263 444.5,-260 444.5,-260 444.5,-254 444.5,-254 444.5,-251 447.5,-248 450.5,-248 450.5,-248 506.5,-248 506.5,-248 509.5,-248 512.5,-251 512.5,-254 512.5,-254 512.5,-260 512.5,-260 512.5,-263 509.5,-266 506.5,-266"/>
<text text-anchor="start" x="452.5" y="-254.8" font-family="Helvetica,sans-Serif" font-size="9.00">Collection.ts</text>
</a>
</g>
</g>
<!-- src/gathering/Pack.ts -->
<g id="node2" class="node">
<title>src/gathering/Pack.ts</title>
<g id="a_node2"><a xlink:href="src/gathering/Pack.ts" xlink:title="Pack.ts">
<path fill="#ddfeff" stroke="black" d="M586,-155C586,-155 544,-155 544,-155 541,-155 538,-152 538,-149 538,-149 538,-143 538,-143 538,-140 541,-137 544,-137 544,-137 586,-137 586,-137 589,-137 592,-140 592,-143 592,-143 592,-149 592,-149 592,-152 589,-155 586,-155"/>
<text text-anchor="start" x="549.5" y="-143.8" font-family="Helvetica,sans-Serif" font-size="9.00">Pack.ts</text>
</a>
</g>
</g>
<!-- src/gathering/Collection.ts&#45;&gt;src/gathering/Pack.ts -->
<g id="edge1" class="edge">
<title>src/gathering/Collection.ts&#45;&gt;src/gathering/Pack.ts</title>
<path fill="none" stroke="#000000" stroke-opacity="0.200000" d="M488.28,-247.74C497.75,-237.59 513.07,-220.64 525,-205 536.23,-190.27 547.77,-172.4 555.36,-160.22"/>
<polygon fill="none" stroke="#000000" stroke-opacity="0.200000" points="557.18,-161.26 558.55,-155.05 553.61,-159.06 557.18,-161.26"/>
</g>
<!-- src/gathering/CollectionEditor/CollectionEditor.ts -->
<g id="node3" class="node">
<title>src/gathering/CollectionEditor/CollectionEditor.ts</title>
<g id="a_node3"><a xlink:href="src/gathering/CollectionEditor/CollectionEditor.ts" xlink:title="CollectionEditor.ts">
<path fill="#ddfeff" stroke="black" d="M258.5,-202C258.5,-202 178.5,-202 178.5,-202 175.5,-202 172.5,-199 172.5,-196 172.5,-196 172.5,-190 172.5,-190 172.5,-187 175.5,-184 178.5,-184 178.5,-184 258.5,-184 258.5,-184 261.5,-184 264.5,-187 264.5,-190 264.5,-190 264.5,-196 264.5,-196 264.5,-199 261.5,-202 258.5,-202"/>
<text text-anchor="start" x="180.5" y="-190.8" font-family="Helvetica,sans-Serif" font-size="9.00">CollectionEditor.ts</text>
</a>
</g>
</g>
<!-- src/gathering/CollectionEditor/CollectionEditor.ts&#45;&gt;src/gathering/Pack.ts -->
<g id="edge4" class="edge">
<title>src/gathering/CollectionEditor/CollectionEditor.ts&#45;&gt;src/gathering/Pack.ts</title>
<path fill="none" stroke="#000000" stroke-opacity="0.200000" d="M264.61,-192.44C277.45,-190.34 290.72,-186.1 301,-178 307.88,-172.58 301.79,-164.97 309,-160 310.13,-159.22 462.97,-151.22 531.45,-147.68"/>
<polygon fill="none" stroke="#000000" stroke-opacity="0.200000" points="531.93,-149.76 537.81,-147.35 531.71,-145.56 531.93,-149.76"/>
</g>
<!-- src/gathering/ICollectionEditor.ts -->
<g id="node4" class="node">
<title>src/gathering/ICollectionEditor.ts</title>
<g id="a_node4"><a xlink:href="src/gathering/ICollectionEditor.ts" xlink:title="ICollectionEditor.ts">
<path fill="#ddfeff" stroke="black" d="M405,-214C405,-214 323,-214 323,-214 320,-214 317,-211 317,-208 317,-208 317,-202 317,-202 317,-199 320,-196 323,-196 323,-196 405,-196 405,-196 408,-196 411,-199 411,-202 411,-202 411,-208 411,-208 411,-211 408,-214 405,-214"/>
<text text-anchor="start" x="325" y="-202.8" font-family="Helvetica,sans-Serif" font-size="9.00">ICollectionEditor.ts</text>
</a>
</g>
</g>
<!-- src/gathering/CollectionEditor/CollectionEditor.ts&#45;&gt;src/gathering/ICollectionEditor.ts -->
<g id="edge2" class="edge">
<title>src/gathering/CollectionEditor/CollectionEditor.ts&#45;&gt;src/gathering/ICollectionEditor.ts</title>
<path fill="none" stroke="#000000" stroke-opacity="0.200000" d="M264.51,-196.76C279.04,-197.98 295.27,-199.34 310.31,-200.59"/>
<polygon fill="none" stroke="#000000" stroke-opacity="0.200000" points="310.51,-202.72 316.67,-201.13 310.86,-198.53 310.51,-202.72"/>
</g>
<!-- src/gathering/ICollectionOutput.ts -->
<g id="node5" class="node">
<title>src/gathering/ICollectionOutput.ts</title>
<g id="a_node5"><a xlink:href="src/gathering/ICollectionOutput.ts" xlink:title="ICollectionOutput.ts">
<path fill="#ddfeff" stroke="black" d="M406.5,-244C406.5,-244 321.5,-244 321.5,-244 318.5,-244 315.5,-241 315.5,-238 315.5,-238 315.5,-232 315.5,-232 315.5,-229 318.5,-226 321.5,-226 321.5,-226 406.5,-226 406.5,-226 409.5,-226 412.5,-229 412.5,-232 412.5,-232 412.5,-238 412.5,-238 412.5,-241 409.5,-244 406.5,-244"/>
<text text-anchor="start" x="323.5" y="-232.8" font-family="Helvetica,sans-Serif" font-size="9.00">ICollectionOutput.ts</text>
</a>
</g>
</g>
<!-- src/gathering/CollectionEditor/CollectionEditor.ts&#45;&gt;src/gathering/ICollectionOutput.ts -->
<g id="edge3" class="edge">
<title>src/gathering/CollectionEditor/CollectionEditor.ts&#45;&gt;src/gathering/ICollectionOutput.ts</title>
<path fill="none" stroke="#000000" stroke-opacity="0.200000" d="M248.88,-202.04C266.32,-207.36 288.89,-214.17 309,-220 313.9,-221.42 319.07,-222.89 324.17,-224.33"/>
<polygon fill="none" stroke="#000000" stroke-opacity="0.200000" points="323.78,-226.4 330.13,-225.99 324.92,-222.35 323.78,-226.4"/>
</g>
<!-- src/gathering/ICollectionEditor.ts&#45;&gt;src/gathering/Pack.ts -->
<g id="edge16" class="edge">
<title>src/gathering/ICollectionEditor.ts&#45;&gt;src/gathering/Pack.ts</title>
<path fill="none" stroke="#000000" stroke-opacity="0.200000" d="M411.26,-209.4C444.62,-210.56 489.79,-207.86 525,-190 537.9,-183.45 548.47,-170.67 555.34,-160.56"/>
<polygon fill="none" stroke="#000000" stroke-opacity="0.200000" points="557.26,-161.45 558.76,-155.27 553.74,-159.17 557.26,-161.45"/>
</g>
<!-- src/gathering/ICollectionOutput.ts&#45;&gt;src/gathering/Collection.ts -->
<g id="edge19" class="edge">
<title>src/gathering/ICollectionOutput.ts&#45;&gt;src/gathering/Collection.ts</title>
<path fill="none" stroke="#000000" stroke-opacity="0.200000" d="M411.08,-244.01C420.15,-245.79 429.59,-247.63 438.41,-249.35"/>
<polygon fill="none" stroke="#000000" stroke-opacity="0.200000" points="438.11,-251.44 444.4,-250.53 438.91,-247.31 438.11,-251.44"/>
</g>
<!-- src/gathering/CollectionEditor/PackRepositoryMock.ts -->
<g id="node6" class="node">
<title>src/gathering/CollectionEditor/PackRepositoryMock.ts</title>
<g id="a_node6"><a xlink:href="src/gathering/CollectionEditor/PackRepositoryMock.ts" xlink:title="PackRepositoryMock.ts">
<path fill="#ddfeff" stroke="black" d="M268.5,-172C268.5,-172 168.5,-172 168.5,-172 165.5,-172 162.5,-169 162.5,-166 162.5,-166 162.5,-160 162.5,-160 162.5,-157 165.5,-154 168.5,-154 168.5,-154 268.5,-154 268.5,-154 271.5,-154 274.5,-157 274.5,-160 274.5,-160 274.5,-166 274.5,-166 274.5,-169 271.5,-172 268.5,-172"/>
<text text-anchor="start" x="170.5" y="-160.8" font-family="Helvetica,sans-Serif" font-size="9.00">PackRepositoryMock.ts</text>
</a>
</g>
</g>
<!-- src/gathering/CollectionEditor/PackRepositoryMock.ts&#45;&gt;src/gathering/Pack.ts -->
<g id="edge6" class="edge">
<title>src/gathering/CollectionEditor/PackRepositoryMock.ts&#45;&gt;src/gathering/Pack.ts</title>
<path fill="none" stroke="#000000" stroke-opacity="0.200000" d="M269.05,-153.95C282.01,-151.94 295.99,-150.09 309,-149 388.8,-142.32 483.14,-143.58 531.63,-144.9"/>
<polygon fill="none" stroke="#000000" stroke-opacity="0.200000" points="531.82,-147 537.88,-145.08 531.94,-142.81 531.82,-147"/>
</g>
<!-- src/gathering/IPackRepository.ts -->
<g id="node7" class="node">
<title>src/gathering/IPackRepository.ts</title>
<g id="a_node7"><a xlink:href="src/gathering/IPackRepository.ts" xlink:title="IPackRepository.ts">
<path fill="#ddfeff" stroke="black" d="M519,-126C519,-126 438,-126 438,-126 435,-126 432,-123 432,-120 432,-120 432,-114 432,-114 432,-111 435,-108 438,-108 438,-108 519,-108 519,-108 522,-108 525,-111 525,-114 525,-114 525,-120 525,-120 525,-123 522,-126 519,-126"/>
<text text-anchor="start" x="440" y="-114.8" font-family="Helvetica,sans-Serif" font-size="9.00">IPackRepository.ts</text>
</a>
</g>
</g>
<!-- src/gathering/CollectionEditor/PackRepositoryMock.ts&#45;&gt;src/gathering/IPackRepository.ts -->
<g id="edge5" class="edge">
<title>src/gathering/CollectionEditor/PackRepositoryMock.ts&#45;&gt;src/gathering/IPackRepository.ts</title>
<path fill="none" stroke="#000000" stroke-opacity="0.200000" d="M265.02,-153.97C277.06,-150.72 289.8,-146.46 301,-141 305,-139.05 304.86,-136.63 309,-135 346.24,-120.34 391.48,-116.18 425.71,-115.5"/>
<polygon fill="none" stroke="#000000" stroke-opacity="0.200000" points="425.99,-117.59 431.96,-115.41 425.93,-113.39 425.99,-117.59"/>
</g>
<!-- src/gathering/IPackRepository.ts&#45;&gt;src/gathering/Pack.ts -->
<g id="edge20" class="edge">
<title>src/gathering/IPackRepository.ts&#45;&gt;src/gathering/Pack.ts</title>
<path fill="none" stroke="#000000" stroke-opacity="0.200000" d="M505.77,-126.02C514.04,-128.85 523.26,-132.02 531.89,-134.98"/>
<polygon fill="none" stroke="#000000" stroke-opacity="0.200000" points="531.39,-137.03 537.74,-136.99 532.75,-133.05 531.39,-137.03"/>
</g>
<!-- src/gathering/CollectionEntity/CollectionEntity.ts -->
<g id="node8" class="node">
<title>src/gathering/CollectionEntity/CollectionEntity.ts</title>
<g id="a_node8"><a xlink:href="src/gathering/CollectionEntity/CollectionEntity.ts" xlink:title="CollectionEntity.ts">
<path fill="#ddfeff" stroke="black" d="M402.5,-76C402.5,-76 325.5,-76 325.5,-76 322.5,-76 319.5,-73 319.5,-70 319.5,-70 319.5,-64 319.5,-64 319.5,-61 322.5,-58 325.5,-58 325.5,-58 402.5,-58 402.5,-58 405.5,-58 408.5,-61 408.5,-64 408.5,-64 408.5,-70 408.5,-70 408.5,-73 405.5,-76 402.5,-76"/>
<text text-anchor="start" x="327.5" y="-64.8" font-family="Helvetica,sans-Serif" font-size="9.00">CollectionEntity.ts</text>
</a>
</g>
</g>
<!-- src/gathering/CollectionEntity/CollectionEntity.ts&#45;&gt;src/gathering/Pack.ts -->
<g id="edge8" class="edge">
<title>src/gathering/CollectionEntity/CollectionEntity.ts&#45;&gt;src/gathering/Pack.ts</title>
<path fill="none" stroke="#000000" stroke-opacity="0.200000" d="M408.75,-69.23C442.51,-72.62 489.31,-81.07 525,-102 537.33,-109.23 547.84,-121.72 554.84,-131.55"/>
<polygon fill="none" stroke="#000000" stroke-opacity="0.200000" points="553.23,-132.92 558.35,-136.69 556.7,-130.55 553.23,-132.92"/>
</g>
<!-- src/gathering/CollectionEntity/CollectionEntity.ts&#45;&gt;src/gathering/IPackRepository.ts -->
<g id="edge7" class="edge">
<title>src/gathering/CollectionEntity/CollectionEntity.ts&#45;&gt;src/gathering/IPackRepository.ts</title>
<path fill="none" stroke="#000000" stroke-opacity="0.200000" d="M408.16,-76.03C411.87,-77.21 415.54,-78.54 419,-80 433.97,-86.33 449.46,-96.3 460.73,-104.3"/>
<polygon fill="none" stroke="#000000" stroke-opacity="0.200000" points="459.5,-106.01 465.6,-107.82 461.96,-102.6 459.5,-106.01"/>
</g>
<!-- src/gathering/CollectionLoader/CollectionLoader.ts -->
<g id="node9" class="node">
<title>src/gathering/CollectionLoader/CollectionLoader.ts</title>
<g id="a_node9"><a xlink:href="src/gathering/CollectionLoader/CollectionLoader.ts" xlink:title="CollectionLoader.ts">
<path fill="#ddfeff" stroke="black" d="M261,-262C261,-262 176,-262 176,-262 173,-262 170,-259 170,-256 170,-256 170,-250 170,-250 170,-247 173,-244 176,-244 176,-244 261,-244 261,-244 264,-244 267,-247 267,-250 267,-250 267,-256 267,-256 267,-259 264,-262 261,-262"/>
<text text-anchor="start" x="178" y="-250.8" font-family="Helvetica,sans-Serif" font-size="9.00">CollectionLoader.ts</text>
</a>
</g>
</g>
<!-- src/gathering/CollectionLoader/CollectionLoader.ts&#45;&gt;src/gathering/Collection.ts -->
<g id="edge9" class="edge">
<title>src/gathering/CollectionLoader/CollectionLoader.ts&#45;&gt;src/gathering/Collection.ts</title>
<path fill="none" stroke="#000000" stroke-opacity="0.200000" d="M267.12,-253.74C316.35,-254.5 392.3,-255.68 438.21,-256.39"/>
<polygon fill="none" stroke="#000000" stroke-opacity="0.200000" points="438.46,-258.49 444.49,-256.49 438.52,-254.3 438.46,-258.49"/>
</g>
<!-- src/gathering/CollectionLoader/CollectionLoader.ts&#45;&gt;src/gathering/ICollectionEditor.ts -->
<g id="edge10" class="edge">
<title>src/gathering/CollectionLoader/CollectionLoader.ts&#45;&gt;src/gathering/ICollectionEditor.ts</title>
<path fill="none" stroke="#000000" stroke-opacity="0.200000" d="M267.13,-245.89C278.89,-242.63 290.98,-237.9 301,-231 305.98,-227.57 304.03,-223.45 309,-220 310.68,-218.84 312.45,-217.76 314.27,-216.77"/>
<polygon fill="none" stroke="#000000" stroke-opacity="0.200000" points="315.44,-218.54 319.92,-214.04 313.61,-214.76 315.44,-218.54"/>
</g>
<!-- src/gathering/CollectionLoader/CollectionLoader.ts&#45;&gt;src/gathering/ICollectionOutput.ts -->
<g id="edge12" class="edge">
<title>src/gathering/CollectionLoader/CollectionLoader.ts&#45;&gt;src/gathering/ICollectionOutput.ts</title>
<path fill="none" stroke="#000000" stroke-opacity="0.200000" d="M267.28,-247.01C280.72,-245.32 295.42,-243.48 309.18,-241.75"/>
<polygon fill="none" stroke="#000000" stroke-opacity="0.200000" points="309.73,-243.8 315.43,-240.97 309.21,-239.63 309.73,-243.8"/>
</g>
<!-- src/gathering/ICollectionLoader.ts -->
<g id="node10" class="node">
<title>src/gathering/ICollectionLoader.ts</title>
<g id="a_node10"><a xlink:href="src/gathering/ICollectionLoader.ts" xlink:title="ICollectionLoader.ts">
<path fill="#ddfeff" stroke="black" d="M407.5,-288C407.5,-288 320.5,-288 320.5,-288 317.5,-288 314.5,-285 314.5,-282 314.5,-282 314.5,-276 314.5,-276 314.5,-273 317.5,-270 320.5,-270 320.5,-270 407.5,-270 407.5,-270 410.5,-270 413.5,-273 413.5,-276 413.5,-276 413.5,-282 413.5,-282 413.5,-285 410.5,-288 407.5,-288"/>
<text text-anchor="start" x="322.5" y="-276.8" font-family="Helvetica,sans-Serif" font-size="9.00">ICollectionLoader.ts</text>
</a>
</g>
</g>
<!-- src/gathering/CollectionLoader/CollectionLoader.ts&#45;&gt;src/gathering/ICollectionLoader.ts -->
<g id="edge11" class="edge">
<title>src/gathering/CollectionLoader/CollectionLoader.ts&#45;&gt;src/gathering/ICollectionLoader.ts</title>
<path fill="none" stroke="#000000" stroke-opacity="0.200000" d="M267.28,-261.66C280.43,-264.04 294.8,-266.64 308.31,-269.09"/>
<polygon fill="none" stroke="#000000" stroke-opacity="0.200000" points="308.17,-271.2 314.45,-270.2 308.92,-267.07 308.17,-271.2"/>
</g>
<!-- src/gathering/ICollectionLoader.ts&#45;&gt;src/gathering/Collection.ts -->
<g id="edge17" class="edge">
<title>src/gathering/ICollectionLoader.ts&#45;&gt;src/gathering/Collection.ts</title>
<path fill="none" stroke="#000000" stroke-opacity="0.200000" d="M411.08,-269.99C420.15,-268.21 429.59,-266.37 438.41,-264.65"/>
<polygon fill="none" stroke="#000000" stroke-opacity="0.200000" points="438.91,-266.69 444.4,-263.47 438.11,-262.56 438.91,-266.69"/>
</g>
<!-- src/gathering/CollectionOrganizer/CollectionOrganizer.ts -->
<g id="node11" class="node">
<title>src/gathering/CollectionOrganizer/CollectionOrganizer.ts</title>
<g id="a_node11"><a xlink:href="src/gathering/CollectionOrganizer/CollectionOrganizer.ts" xlink:title="CollectionOrganizer.ts">
<path fill="#ddfeff" stroke="black" d="M266,-112C266,-112 171,-112 171,-112 168,-112 165,-109 165,-106 165,-106 165,-100 165,-100 165,-97 168,-94 171,-94 171,-94 266,-94 266,-94 269,-94 272,-97 272,-100 272,-100 272,-106 272,-106 272,-109 269,-112 266,-112"/>
<text text-anchor="start" x="173" y="-100.8" font-family="Helvetica,sans-Serif" font-size="9.00">CollectionOrganizer.ts</text>
</a>
</g>
</g>
<!-- src/gathering/ahdb.cards.json -->
<g id="node12" class="node">
<title>src/gathering/ahdb.cards.json</title>
<g id="a_node12"><a xlink:href="src/gathering/ahdb.cards.json" xlink:title="ahdb.cards.json">
<path fill="#ffee44" stroke="black" d="M399.5,-42C399.5,-42 328.5,-42 328.5,-42 325.5,-42 322.5,-39 322.5,-36 322.5,-36 322.5,-30 322.5,-30 322.5,-27 325.5,-24 328.5,-24 328.5,-24 399.5,-24 399.5,-24 402.5,-24 405.5,-27 405.5,-30 405.5,-30 405.5,-36 405.5,-36 405.5,-39 402.5,-42 399.5,-42"/>
<text text-anchor="start" x="330.5" y="-30.8" font-family="Helvetica,sans-Serif" font-size="9.00">ahdb.cards.json</text>
</a>
</g>
</g>
<!-- src/gathering/CollectionOrganizer/CollectionOrganizer.ts&#45;&gt;src/gathering/ahdb.cards.json -->
<g id="edge13" class="edge">
<title>src/gathering/CollectionOrganizer/CollectionOrganizer.ts&#45;&gt;src/gathering/ahdb.cards.json</title>
<path fill="none" stroke="#000000" stroke-width="2" stroke-opacity="0.200000" d="M272.15,-104.03C282.85,-101.83 293.2,-97.6 301,-90 314.92,-76.43 295.74,-61.22 309,-47 311.31,-44.52 314,-42.46 316.92,-40.74"/>
<polygon fill="#000000" fill-opacity="0.200000" stroke="#000000" stroke-width="2" stroke-opacity="0.200000" points="317.96,-42.57 322.39,-38.02 316.09,-38.81 317.96,-42.57"/>
</g>
<!-- src/gathering/IBinderOutput.ts -->
<g id="node13" class="node">
<title>src/gathering/IBinderOutput.ts</title>
<g id="a_node13"><a xlink:href="src/gathering/IBinderOutput.ts" xlink:title="IBinderOutput.ts">
<path fill="#ddfeff" stroke="black" d="M514,-184C514,-184 443,-184 443,-184 440,-184 437,-181 437,-178 437,-178 437,-172 437,-172 437,-169 440,-166 443,-166 443,-166 514,-166 514,-166 517,-166 520,-169 520,-172 520,-172 520,-178 520,-178 520,-181 517,-184 514,-184"/>
<text text-anchor="start" x="445" y="-172.8" font-family="Helvetica,sans-Serif" font-size="9.00">IBinderOutput.ts</text>
</a>
</g>
</g>
<!-- src/gathering/CollectionOrganizer/CollectionOrganizer.ts&#45;&gt;src/gathering/IBinderOutput.ts -->
<g id="edge14" class="edge">
<title>src/gathering/CollectionOrganizer/CollectionOrganizer.ts&#45;&gt;src/gathering/IBinderOutput.ts</title>
<path fill="none" stroke="#000000" stroke-opacity="0.200000" d="M251.91,-112.05C299.51,-125.33 388.16,-150.07 439.01,-164.26"/>
<polygon fill="none" stroke="#000000" stroke-opacity="0.200000" points="438.67,-166.34 445.02,-165.93 439.8,-162.3 438.67,-166.34"/>
</g>
<!-- src/gathering/ICollectionOrganizer.ts -->
<g id="node14" class="node">
<title>src/gathering/ICollectionOrganizer.ts</title>
<g id="a_node14"><a xlink:href="src/gathering/ICollectionOrganizer.ts" xlink:title="ICollectionOrganizer.ts">
<path fill="#ddfeff" stroke="black" d="M413,-184C413,-184 315,-184 315,-184 312,-184 309,-181 309,-178 309,-178 309,-172 309,-172 309,-169 312,-166 315,-166 315,-166 413,-166 413,-166 416,-166 419,-169 419,-172 419,-172 419,-178 419,-178 419,-181 416,-184 413,-184"/>
<text text-anchor="start" x="317" y="-172.8" font-family="Helvetica,sans-Serif" font-size="9.00">ICollectionOrganizer.ts</text>
</a>
</g>
</g>
<!-- src/gathering/CollectionOrganizer/CollectionOrganizer.ts&#45;&gt;src/gathering/ICollectionOrganizer.ts -->
<g id="edge15" class="edge">
<title>src/gathering/CollectionOrganizer/CollectionOrganizer.ts&#45;&gt;src/gathering/ICollectionOrganizer.ts</title>
<path fill="none" stroke="#000000" stroke-opacity="0.200000" d="M238.33,-112.11C254.88,-120.15 279.6,-132.23 301,-143 314.02,-149.55 328.49,-157.01 340.18,-163.08"/>
<polygon fill="none" stroke="#000000" stroke-opacity="0.200000" points="339.38,-165.04 345.68,-165.94 341.32,-161.31 339.38,-165.04"/>
</g>
<!-- src/gathering/ICollectionOrganizer.ts&#45;&gt;src/gathering/IBinderOutput.ts -->
<g id="edge18" class="edge">
<title>src/gathering/ICollectionOrganizer.ts&#45;&gt;src/gathering/IBinderOutput.ts</title>
<path fill="none" stroke="#000000" stroke-opacity="0.200000" d="M419.27,-175C423.18,-175 427.1,-175 430.96,-175"/>
<polygon fill="none" stroke="#000000" stroke-opacity="0.200000" points="430.96,-177.1 436.96,-175 430.96,-172.9 430.96,-177.1"/>
</g>
<!-- src/gathering/ahdb.packs.json -->
<g id="node15" class="node">
<title>src/gathering/ahdb.packs.json</title>
<g id="a_node15"><a xlink:href="src/gathering/ahdb.packs.json" xlink:title="ahdb.packs.json">
<path fill="#ffee44" stroke="black" d="M255,-78C255,-78 182,-78 182,-78 179,-78 176,-75 176,-72 176,-72 176,-66 176,-66 176,-63 179,-60 182,-60 182,-60 255,-60 255,-60 258,-60 261,-63 261,-66 261,-66 261,-72 261,-72 261,-75 258,-78 255,-78"/>
<text text-anchor="start" x="184" y="-66.8" font-family="Helvetica,sans-Serif" font-size="9.00">ahdb.packs.json</text>
</a>
</g>
</g>
<!-- src/lib/userBrowsesItsCollection/userBrowsesItsCollection.ts -->
<g id="node16" class="node">
<title>src/lib/userBrowsesItsCollection/userBrowsesItsCollection.ts</title>
<g id="a_node16"><a xlink:href="src/lib/userBrowsesItsCollection/userBrowsesItsCollection.ts" xlink:title="userBrowsesItsCollection.ts">
<path fill="#ddfeff" stroke="black" d="M279,-356C279,-356 158,-356 158,-356 155,-356 152,-353 152,-350 152,-350 152,-344 152,-344 152,-341 155,-338 158,-338 158,-338 279,-338 279,-338 282,-338 285,-341 285,-344 285,-344 285,-350 285,-350 285,-353 282,-356 279,-356"/>
<text text-anchor="start" x="160" y="-344.8" font-family="Helvetica,sans-Serif" font-size="9.00">userBrowsesItsCollection.ts</text>
</a>
</g>
</g>
<!-- src/lib/userBrowsesItsCollection/userBrowsesItsCollection.ts&#45;&gt;src/gathering/IBinderOutput.ts -->
<g id="edge21" class="edge">
<title>src/lib/userBrowsesItsCollection/userBrowsesItsCollection.ts&#45;&gt;src/gathering/IBinderOutput.ts</title>
<path fill="none" stroke="#000000" stroke-opacity="0.200000" d="M262.53,-338C317.79,-326.07 407.93,-305.23 419,-294 435.72,-277.03 422.27,-263.74 432,-242 440.82,-222.29 455.44,-202.11 465.72,-189.12"/>
<polygon fill="none" stroke="#000000" stroke-opacity="0.200000" points="467.44,-190.34 469.56,-184.35 464.16,-187.7 467.44,-190.34"/>
</g>
<!-- src/lib/userBrowsesItsCollection/userBrowsesItsCollection.ts&#45;&gt;src/gathering/ICollectionOrganizer.ts -->
<g id="edge22" class="edge">
<title>src/lib/userBrowsesItsCollection/userBrowsesItsCollection.ts&#45;&gt;src/gathering/ICollectionOrganizer.ts</title>
<path fill="none" stroke="#000000" stroke-opacity="0.200000" d="M242.46,-337.97C261.66,-329.1 287.95,-313.59 301,-291 312.26,-271.51 294.68,-207.37 309,-190 309.46,-189.44 309.95,-188.89 310.45,-188.37"/>
<polygon fill="none" stroke="#000000" stroke-opacity="0.200000" points="312.18,-189.65 315.39,-184.16 309.46,-186.45 312.18,-189.65"/>
</g>
<!-- src/lib/userEditsItsCollection/userEditsItsCollection.ts -->
<g id="node17" class="node">
<title>src/lib/userEditsItsCollection/userEditsItsCollection.ts</title>
<g id="a_node17"><a xlink:href="src/lib/userEditsItsCollection/userEditsItsCollection.ts" xlink:title="userEditsItsCollection.ts">
<path fill="#ddfeff" stroke="black" d="M271,-416C271,-416 166,-416 166,-416 163,-416 160,-413 160,-410 160,-410 160,-404 160,-404 160,-401 163,-398 166,-398 166,-398 271,-398 271,-398 274,-398 277,-401 277,-404 277,-404 277,-410 277,-410 277,-413 274,-416 271,-416"/>
<text text-anchor="start" x="168" y="-404.8" font-family="Helvetica,sans-Serif" font-size="9.00">userEditsItsCollection.ts</text>
</a>
</g>
</g>
<!-- src/lib/userEditsItsCollection/userEditsItsCollection.ts&#45;&gt;src/gathering/Collection.ts -->
<g id="edge23" class="edge">
<title>src/lib/userEditsItsCollection/userEditsItsCollection.ts&#45;&gt;src/gathering/Collection.ts</title>
<path fill="none" stroke="#000000" stroke-opacity="0.200000" d="M261.24,-397.95C304.26,-387.01 371.54,-365.28 419,-328 439.58,-311.83 457.79,-287.27 468.22,-271.69"/>
<polygon fill="none" stroke="#000000" stroke-opacity="0.200000" points="470.17,-272.55 471.7,-266.38 466.66,-270.24 470.17,-272.55"/>
</g>
<!-- src/lib/userEditsItsCollection/userEditsItsCollection.ts&#45;&gt;src/gathering/ICollectionEditor.ts -->
<g id="edge24" class="edge">
<title>src/lib/userEditsItsCollection/userEditsItsCollection.ts&#45;&gt;src/gathering/ICollectionEditor.ts</title>
<path fill="none" stroke="#000000" stroke-opacity="0.200000" d="M277.11,-401.24C286.33,-397.8 294.84,-392.65 301,-385 324.02,-356.4 286.08,-248.68 309,-220 309.82,-218.97 310.7,-218.01 311.64,-217.12"/>
<polygon fill="none" stroke="#000000" stroke-opacity="0.200000" points="313.31,-218.48 316.75,-213.13 310.73,-215.17 313.31,-218.48"/>
</g>
<!-- src/lib/userEditsItsCollection/userEditsItsCollection.ts&#45;&gt;src/gathering/ICollectionOutput.ts -->
<g id="edge25" class="edge">
<title>src/lib/userEditsItsCollection/userEditsItsCollection.ts&#45;&gt;src/gathering/ICollectionOutput.ts</title>
<path fill="none" stroke="#000000" stroke-opacity="0.200000" d="M277.41,-401C286.48,-397.57 294.87,-392.48 301,-385 318.08,-364.16 294.41,-286.66 309,-264 313.64,-256.8 320.69,-251.26 328.19,-247.05"/>
<polygon fill="none" stroke="#000000" stroke-opacity="0.200000" points="329.6,-248.69 333.98,-244.08 327.68,-244.95 329.6,-248.69"/>
</g>
<!-- src/routes/cards/+page.server.ts -->
<g id="node18" class="node">
<title>src/routes/cards/+page.server.ts</title>
<g id="a_node18"><a xlink:href="src/routes/cards/+page.server.ts" xlink:title="+page.server.ts">
<path fill="#ddfeff" stroke="black" d="M106,-50C106,-50 38,-50 38,-50 35,-50 32,-47 32,-44 32,-44 32,-38 32,-38 32,-35 35,-32 38,-32 38,-32 106,-32 106,-32 109,-32 112,-35 112,-38 112,-38 112,-44 112,-44 112,-47 109,-50 106,-50"/>
<text text-anchor="start" x="40" y="-38.8" font-family="Helvetica,sans-Serif" font-size="9.00">+page.server.ts</text>
</a>
</g>
</g>
<!-- src/routes/cards/+page.server.ts&#45;&gt;src/gathering/ahdb.cards.json -->
<g id="edge26" class="edge">
<title>src/routes/cards/+page.server.ts&#45;&gt;src/gathering/ahdb.cards.json</title>
<path fill="none" stroke="#000000" stroke-width="2" stroke-opacity="0.200000" d="M112.11,-39.92C165.07,-38.46 259.45,-35.86 316.14,-34.29"/>
<polygon fill="#000000" fill-opacity="0.200000" stroke="#000000" stroke-width="2" stroke-opacity="0.200000" points="316.24,-36.39 322.18,-34.13 316.12,-32.19 316.24,-36.39"/>
</g>
<!-- src/routes/collection/+page.svelte.ts -->
<g id="node19" class="node">
<title>src/routes/collection/+page.svelte.ts</title>
<g id="a_node19"><a xlink:href="src/routes/collection/+page.svelte.ts" xlink:title="+page.svelte.ts">
<path fill="#ddfeff" stroke="black" d="M105.5,-170C105.5,-170 38.5,-170 38.5,-170 35.5,-170 32.5,-167 32.5,-164 32.5,-164 32.5,-158 32.5,-158 32.5,-155 35.5,-152 38.5,-152 38.5,-152 105.5,-152 105.5,-152 108.5,-152 111.5,-155 111.5,-158 111.5,-158 111.5,-164 111.5,-164 111.5,-167 108.5,-170 105.5,-170"/>
<text text-anchor="start" x="40.5" y="-158.8" font-family="Helvetica,sans-Serif" font-size="9.00">+page.svelte.ts</text>
</a>
</g>
</g>
<!-- src/routes/collection/+page.svelte.ts&#45;&gt;src/lib/userBrowsesItsCollection/userBrowsesItsCollection.ts -->
<g id="edge27" class="edge">
<title>src/routes/collection/+page.svelte.ts&#45;&gt;src/lib/userBrowsesItsCollection/userBrowsesItsCollection.ts</title>
<path fill="none" stroke="#000000" stroke-width="2" stroke-opacity="0.200000" d="M75.61,-170.11C82.45,-192.69 102.65,-252.2 136,-291 152.12,-309.76 175.92,-325.14 193.64,-335.01"/>
<polygon fill="#000000" fill-opacity="0.200000" stroke="#000000" stroke-width="2" stroke-opacity="0.200000" points="192.65,-336.86 198.93,-337.89 194.66,-333.17 192.65,-336.86"/>
</g>
<!-- src/routes/packs/+page.server.ts -->
<g id="node20" class="node">
<title>src/routes/packs/+page.server.ts</title>
<g id="a_node20"><a xlink:href="src/routes/packs/+page.server.ts" xlink:title="+page.server.ts">
<path fill="#ddfeff" stroke="black" d="M106,-110C106,-110 38,-110 38,-110 35,-110 32,-107 32,-104 32,-104 32,-98 32,-98 32,-95 35,-92 38,-92 38,-92 106,-92 106,-92 109,-92 112,-95 112,-98 112,-98 112,-104 112,-104 112,-107 109,-110 106,-110"/>
<text text-anchor="start" x="40" y="-98.8" font-family="Helvetica,sans-Serif" font-size="9.00">+page.server.ts</text>
</a>
</g>
</g>
<!-- src/routes/packs/+page.server.ts&#45;&gt;src/gathering/ahdb.packs.json -->
<g id="edge28" class="edge">
<title>src/routes/packs/+page.server.ts&#45;&gt;src/gathering/ahdb.packs.json</title>
<path fill="none" stroke="#000000" stroke-width="2" stroke-opacity="0.200000" d="M102.32,-91.91C112.87,-88.83 124.91,-85.53 136,-83 146.87,-80.52 158.63,-78.26 169.76,-76.31"/>
<polygon fill="#000000" fill-opacity="0.200000" stroke="#000000" stroke-width="2" stroke-opacity="0.200000" points="170.31,-78.35 175.87,-75.26 169.6,-74.21 170.31,-78.35"/>
</g>
</g>
</svg>
