<?xml version="1.0" encoding="UTF-8" standalone="no"?>
<!DOCTYPE svg PUBLIC "-//W3C//DTD SVG 1.1//EN"
 "http://www.w3.org/Graphics/SVG/1.1/DTD/svg11.dtd">
<!-- Generated by graphviz version 2.50.0 (20211204.2007)
 -->
<!-- Title: dependency&#45;cruiser output Pages: 1 -->
<svg width="1134pt" height="336pt"
 viewBox="0.00 0.00 1133.50 336.00" xmlns="http://www.w3.org/2000/svg" xmlns:xlink="http://www.w3.org/1999/xlink">
<g id="graph0" class="graph" transform="scale(1 1) rotate(0) translate(4 332)">
<title>dependency&#45;cruiser output</title>
<polygon fill="white" stroke="transparent" points="-4,4 -4,-332 1129.5,-332 1129.5,4 -4,4"/>
<g id="clust1" class="cluster">
<title>cluster_src</title>
<path fill="#ffffff" stroke="black" stroke-width="2" d="M20,-8C20,-8 1105.5,-8 1105.5,-8 1111.5,-8 1117.5,-14 1117.5,-20 1117.5,-20 1117.5,-308 1117.5,-308 1117.5,-314 1111.5,-320 1105.5,-320 1105.5,-320 20,-320 20,-320 14,-320 8,-314 8,-308 8,-308 8,-20 8,-20 8,-14 14,-8 20,-8"/>
<text text-anchor="middle" x="562.75" y="-308.8" font-family="Helvetica,sans-Serif" font-weight="bold" font-size="9.00">src</text>
</g>
<g id="clust5" class="cluster">
<title>cluster_src/lib</title>
<path fill="#ffffff" stroke="black" stroke-width="2" d="M391,-208C391,-208 506,-208 506,-208 512,-208 518,-214 518,-220 518,-220 518,-282 518,-282 518,-288 512,-294 506,-294 506,-294 391,-294 391,-294 385,-294 379,-288 379,-282 379,-282 379,-220 379,-220 379,-214 385,-208 391,-208"/>
<text text-anchor="middle" x="448.5" y="-282.8" font-family="Helvetica,sans-Serif" font-weight="bold" font-size="9.00">lib</text>
</g>
<g id="clust6" class="cluster">
<title>cluster_src/lib/userEditsCollection</title>
<path fill="#ffffff" stroke="black" stroke-width="2" d="M399,-216C399,-216 498,-216 498,-216 504,-216 510,-222 510,-228 510,-228 510,-256 510,-256 510,-262 504,-268 498,-268 498,-268 399,-268 399,-268 393,-268 387,-262 387,-256 387,-256 387,-228 387,-228 387,-222 393,-216 399,-216"/>
<text text-anchor="middle" x="448.5" y="-256.8" font-family="Helvetica,sans-Serif" font-weight="bold" font-size="9.00">userEditsCollection</text>
</g>
<g id="clust2" class="cluster">
<title>cluster_src/gathering</title>
<path fill="#ffffff" stroke="black" stroke-width="2" d="M559.5,-66C559.5,-66 1097.5,-66 1097.5,-66 1103.5,-66 1109.5,-72 1109.5,-78 1109.5,-78 1109.5,-282 1109.5,-282 1109.5,-288 1103.5,-294 1097.5,-294 1097.5,-294 559.5,-294 559.5,-294 553.5,-294 547.5,-288 547.5,-282 547.5,-282 547.5,-78 547.5,-78 547.5,-72 553.5,-66 559.5,-66"/>
<text text-anchor="middle" x="828.5" y="-282.8" font-family="Helvetica,sans-Serif" font-weight="bold" font-size="9.00">gathering</text>
</g>
<g id="clust3" class="cluster">
<title>cluster_src/gathering/CollectionEditor</title>
<path fill="#ffffff" stroke="black" stroke-width="2" d="M567.5,-132C567.5,-132 793.5,-132 793.5,-132 799.5,-132 805.5,-138 805.5,-144 805.5,-144 805.5,-202 805.5,-202 805.5,-208 799.5,-214 793.5,-214 793.5,-214 567.5,-214 567.5,-214 561.5,-214 555.5,-208 555.5,-202 555.5,-202 555.5,-144 555.5,-144 555.5,-138 561.5,-132 567.5,-132"/>
<text text-anchor="middle" x="680.5" y="-202.8" font-family="Helvetica,sans-Serif" font-weight="bold" font-size="9.00">CollectionEditor</text>
</g>
<g id="clust4" class="cluster">
<title>cluster_src/gathering/PackRepository</title>
<path fill="#ffffff" stroke="black" stroke-width="2" d="M841,-216C841,-216 901,-216 901,-216 907,-216 913,-222 913,-228 913,-228 913,-256 913,-256 913,-262 907,-268 901,-268 901,-268 841,-268 841,-268 835,-268 829,-262 829,-256 829,-256 829,-228 829,-228 829,-222 835,-216 841,-216"/>
<text text-anchor="middle" x="871" y="-256.8" font-family="Helvetica,sans-Serif" font-weight="bold" font-size="9.00">PackRepository</text>
</g>
<g id="clust7" class="cluster">
<title>cluster_src/routes</title>
<path fill="#ffffff" stroke="black" stroke-width="2" d="M28,-16C28,-16 527.5,-16 527.5,-16 533.5,-16 539.5,-22 539.5,-28 539.5,-28 539.5,-188 539.5,-188 539.5,-194 533.5,-200 527.5,-200 527.5,-200 28,-200 28,-200 22,-200 16,-194 16,-188 16,-188 16,-28 16,-28 16,-22 22,-16 28,-16"/>
<text text-anchor="middle" x="277.75" y="-188.8" font-family="Helvetica,sans-Serif" font-weight="bold" font-size="9.00">routes</text>
</g>
<g id="clust8" class="cluster">
<title>cluster_src/routes/collection</title>
<path fill="#ffffff" stroke="black" stroke-width="2" d="M36,-24C36,-24 519.5,-24 519.5,-24 525.5,-24 531.5,-30 531.5,-36 531.5,-36 531.5,-162 531.5,-162 531.5,-168 525.5,-174 519.5,-174 519.5,-174 36,-174 36,-174 30,-174 24,-168 24,-162 24,-162 24,-36 24,-36 24,-30 30,-24 36,-24"/>
<text text-anchor="middle" x="277.75" y="-162.8" font-family="Helvetica,sans-Serif" font-weight="bold" font-size="9.00">collection</text>
</g>
<g id="clust9" class="cluster">
<title>cluster_src/routes/collection/edit</title>
<path fill="#ffffff" stroke="black" stroke-width="2" d="M44,-32C44,-32 511.5,-32 511.5,-32 517.5,-32 523.5,-38 523.5,-44 523.5,-44 523.5,-136 523.5,-136 523.5,-142 517.5,-148 511.5,-148 511.5,-148 44,-148 44,-148 38,-148 32,-142 32,-136 32,-136 32,-44 32,-44 32,-38 38,-32 44,-32"/>
<text text-anchor="middle" x="277.75" y="-136.8" font-family="Helvetica,sans-Serif" font-weight="bold" font-size="9.00">edit</text>
</g>
<g id="clust10" class="cluster">
<title>cluster_src/routes/collection/edit/PacksBundle</title>
<path fill="#ffffff" stroke="black" stroke-width="2" d="M139,-40C139,-40 503.5,-40 503.5,-40 509.5,-40 515.5,-46 515.5,-52 515.5,-52 515.5,-110 515.5,-110 515.5,-116 509.5,-122 503.5,-122 503.5,-122 139,-122 139,-122 133,-122 127,-116 127,-110 127,-110 127,-52 127,-52 127,-46 133,-40 139,-40"/>
<text text-anchor="middle" x="321.25" y="-110.8" font-family="Helvetica,sans-Serif" font-weight="bold" font-size="9.00">PacksBundle</text>
</g>
<!-- src/gathering/Collection.ts -->
<g id="node1" class="node">
<title>src/gathering/Collection.ts</title>
<g id="a_node1"><a xlink:href="src/gathering/Collection.ts" xlink:title="Collection.ts">
<path fill="#ddfeff" stroke="black" d="M1016,-99C1016,-99 960,-99 960,-99 957,-99 954,-96 954,-93 954,-93 954,-87 954,-87 954,-84 957,-81 960,-81 960,-81 1016,-81 1016,-81 1019,-81 1022,-84 1022,-87 1022,-87 1022,-93 1022,-93 1022,-96 1019,-99 1016,-99"/>
<text text-anchor="start" x="962" y="-87.8" font-family="Helvetica,sans-Serif" font-size="9.00">Collection.ts</text>
</a>
</g>
</g>
<!-- src/gathering/Pack.ts -->
<g id="node2" class="node">
<title>src/gathering/Pack.ts</title>
<g id="a_node2"><a xlink:href="src/gathering/Pack.ts" xlink:title="Pack.ts">
<path fill="#ddfeff" stroke="black" d="M1095.5,-172C1095.5,-172 1053.5,-172 1053.5,-172 1050.5,-172 1047.5,-169 1047.5,-166 1047.5,-166 1047.5,-160 1047.5,-160 1047.5,-157 1050.5,-154 1053.5,-154 1053.5,-154 1095.5,-154 1095.5,-154 1098.5,-154 1101.5,-157 1101.5,-160 1101.5,-160 1101.5,-166 1101.5,-166 1101.5,-169 1098.5,-172 1095.5,-172"/>
<text text-anchor="start" x="1059" y="-160.8" font-family="Helvetica,sans-Serif" font-size="9.00">Pack.ts</text>
</a>
</g>
</g>
<!-- src/gathering/Collection.ts&#45;&gt;src/gathering/Pack.ts -->
<g id="edge1" class="edge">
<title>src/gathering/Collection.ts&#45;&gt;src/gathering/Pack.ts</title>
<path fill="none" stroke="#000000" stroke-opacity="0.200000" d="M1000.76,-99.23C1010.05,-106.6 1023.27,-117.26 1034.5,-127 1042.87,-134.26 1051.99,-142.64 1059.29,-149.49"/>
<polygon fill="none" stroke="#000000" stroke-opacity="0.200000" points="1058.23,-151.37 1064.04,-153.95 1061.11,-148.31 1058.23,-151.37"/>
</g>
<!-- src/gathering/CollectionEditor/CollectionEditor.test.ts -->
<g id="node3" class="node">
<title>src/gathering/CollectionEditor/CollectionEditor.test.ts</title>
<g id="a_node3"><a xlink:href="src/gathering/CollectionEditor/CollectionEditor.test.ts" xlink:title="CollectionEditor.test.ts">
<path fill="#ddfeff" stroke="black" d="M666.5,-169C666.5,-169 569.5,-169 569.5,-169 566.5,-169 563.5,-166 563.5,-163 563.5,-163 563.5,-157 563.5,-157 563.5,-154 566.5,-151 569.5,-151 569.5,-151 666.5,-151 666.5,-151 669.5,-151 672.5,-154 672.5,-157 672.5,-157 672.5,-163 672.5,-163 672.5,-166 669.5,-169 666.5,-169"/>
<text text-anchor="start" x="571.5" y="-157.8" font-family="Helvetica,sans-Serif" font-size="9.00">CollectionEditor.test.ts</text>
</a>
</g>
</g>
<!-- src/gathering/CollectionEditor/CollectionEditor.test.ts&#45;&gt;src/gathering/Collection.ts -->
<g id="edge4" class="edge">
<title>src/gathering/CollectionEditor/CollectionEditor.test.ts&#45;&gt;src/gathering/Collection.ts</title>
<path fill="none" stroke="#000000" stroke-opacity="0.200000" d="M625.04,-150.75C635.39,-135.81 658.06,-106.74 685.5,-94 772.04,-53.84 888.16,-68.83 947.89,-80.8"/>
<polygon fill="none" stroke="#000000" stroke-opacity="0.200000" points="947.54,-82.88 953.84,-82.02 948.38,-78.76 947.54,-82.88"/>
</g>
<!-- src/gathering/CollectionEditor/CollectionEditor.ts -->
<g id="node4" class="node">
<title>src/gathering/CollectionEditor/CollectionEditor.ts</title>
<g id="a_node4"><a xlink:href="src/gathering/CollectionEditor/CollectionEditor.ts" xlink:title="CollectionEditor.ts">
<path fill="#ddfeff" stroke="black" d="M781.5,-158C781.5,-158 701.5,-158 701.5,-158 698.5,-158 695.5,-155 695.5,-152 695.5,-152 695.5,-146 695.5,-146 695.5,-143 698.5,-140 701.5,-140 701.5,-140 781.5,-140 781.5,-140 784.5,-140 787.5,-143 787.5,-146 787.5,-146 787.5,-152 787.5,-152 787.5,-155 784.5,-158 781.5,-158"/>
<text text-anchor="start" x="703.5" y="-146.8" font-family="Helvetica,sans-Serif" font-size="9.00">CollectionEditor.ts</text>
</a>
</g>
</g>
<!-- src/gathering/CollectionEditor/CollectionEditor.test.ts&#45;&gt;src/gathering/CollectionEditor/CollectionEditor.ts -->
<g id="edge2" class="edge">
<title>src/gathering/CollectionEditor/CollectionEditor.test.ts&#45;&gt;src/gathering/CollectionEditor/CollectionEditor.ts</title>
<path fill="none" stroke="#000000" stroke-width="2" stroke-opacity="0.200000" d="M672.65,-155.14C678.25,-154.64 683.93,-154.12 689.5,-153.62"/>
<polygon fill="#000000" fill-opacity="0.200000" stroke="#000000" stroke-width="2" stroke-opacity="0.200000" points="689.71,-155.71 695.5,-153.07 689.33,-151.52 689.71,-155.71"/>
</g>
<!-- src/gathering/CollectionEditor/PackRepositoryMock.ts -->
<g id="node5" class="node">
<title>src/gathering/CollectionEditor/PackRepositoryMock.ts</title>
<g id="a_node5"><a xlink:href="src/gathering/CollectionEditor/PackRepositoryMock.ts" xlink:title="PackRepositoryMock.ts">
<path fill="#ddfeff" stroke="black" d="M791.5,-188C791.5,-188 691.5,-188 691.5,-188 688.5,-188 685.5,-185 685.5,-182 685.5,-182 685.5,-176 685.5,-176 685.5,-173 688.5,-170 691.5,-170 691.5,-170 791.5,-170 791.5,-170 794.5,-170 797.5,-173 797.5,-176 797.5,-176 797.5,-182 797.5,-182 797.5,-185 794.5,-188 791.5,-188"/>
<text text-anchor="start" x="693.5" y="-176.8" font-family="Helvetica,sans-Serif" font-size="9.00">PackRepositoryMock.ts</text>
</a>
</g>
</g>
<!-- src/gathering/CollectionEditor/CollectionEditor.test.ts&#45;&gt;src/gathering/CollectionEditor/PackRepositoryMock.ts -->
<g id="edge3" class="edge">
<title>src/gathering/CollectionEditor/CollectionEditor.test.ts&#45;&gt;src/gathering/CollectionEditor/PackRepositoryMock.ts</title>
<path fill="none" stroke="#000000" stroke-width="2" stroke-opacity="0.200000" d="M672.65,-168.39C674.87,-168.74 677.12,-169.09 679.36,-169.44"/>
<polygon fill="#000000" fill-opacity="0.200000" stroke="#000000" stroke-width="2" stroke-opacity="0.200000" points="679.04,-171.51 685.29,-170.37 679.68,-167.36 679.04,-171.51"/>
</g>
<!-- src/gathering/CollectionEntity.ts -->
<g id="node6" class="node">
<title>src/gathering/CollectionEntity.ts</title>
<g id="a_node6"><a xlink:href="src/gathering/CollectionEntity.ts" xlink:title="CollectionEntity.ts">
<path fill="#ddfeff" stroke="black" d="M909.5,-194C909.5,-194 832.5,-194 832.5,-194 829.5,-194 826.5,-191 826.5,-188 826.5,-188 826.5,-182 826.5,-182 826.5,-179 829.5,-176 832.5,-176 832.5,-176 909.5,-176 909.5,-176 912.5,-176 915.5,-179 915.5,-182 915.5,-182 915.5,-188 915.5,-188 915.5,-191 912.5,-194 909.5,-194"/>
<text text-anchor="start" x="834.5" y="-182.8" font-family="Helvetica,sans-Serif" font-size="9.00">CollectionEntity.ts</text>
</a>
</g>
</g>
<!-- src/gathering/CollectionEditor/CollectionEditor.test.ts&#45;&gt;src/gathering/CollectionEntity.ts -->
<g id="edge5" class="edge">
<title>src/gathering/CollectionEditor/CollectionEditor.test.ts&#45;&gt;src/gathering/CollectionEntity.ts</title>
<path fill="none" stroke="#000000" stroke-width="2" stroke-opacity="0.200000" d="M666.08,-169.09C668.33,-170.24 670.49,-171.54 672.5,-173 681.39,-179.44 675.91,-188.66 685.5,-194 733.77,-220.89 800.63,-207.51 839.2,-195.88"/>
<polygon fill="#000000" fill-opacity="0.200000" stroke="#000000" stroke-width="2" stroke-opacity="0.200000" points="840.03,-197.82 845.14,-194.04 838.78,-193.81 840.03,-197.82"/>
</g>
<!-- src/gathering/ICollectionEditor.ts -->
<g id="node7" class="node">
<title>src/gathering/ICollectionEditor.ts</title>
<g id="a_node7"><a xlink:href="src/gathering/ICollectionEditor.ts" xlink:title="ICollectionEditor.ts">
<path fill="#ddfeff" stroke="black" d="M912,-136C912,-136 830,-136 830,-136 827,-136 824,-133 824,-130 824,-130 824,-124 824,-124 824,-121 827,-118 830,-118 830,-118 912,-118 912,-118 915,-118 918,-121 918,-124 918,-124 918,-130 918,-130 918,-133 915,-136 912,-136"/>
<text text-anchor="start" x="832" y="-124.8" font-family="Helvetica,sans-Serif" font-size="9.00">ICollectionEditor.ts</text>
</a>
</g>
</g>
<!-- src/gathering/CollectionEditor/CollectionEditor.test.ts&#45;&gt;src/gathering/ICollectionEditor.ts -->
<g id="edge6" class="edge">
<title>src/gathering/CollectionEditor/CollectionEditor.test.ts&#45;&gt;src/gathering/ICollectionEditor.ts</title>
<path fill="none" stroke="#000000" stroke-opacity="0.200000" d="M664.08,-151C667,-149.83 669.83,-148.5 672.5,-147 679.62,-143 678.01,-137.27 685.5,-134 727.33,-115.74 779.7,-115.62 817.95,-119.12"/>
<polygon fill="none" stroke="#000000" stroke-opacity="0.200000" points="817.79,-121.22 823.96,-119.71 818.2,-117.04 817.79,-121.22"/>
</g>
<!-- src/gathering/ICollectionOutput.ts -->
<g id="node8" class="node">
<title>src/gathering/ICollectionOutput.ts</title>
<g id="a_node8"><a xlink:href="src/gathering/ICollectionOutput.ts" xlink:title="ICollectionOutput.ts">
<path fill="#ddfeff" stroke="black" d="M913.5,-106C913.5,-106 828.5,-106 828.5,-106 825.5,-106 822.5,-103 822.5,-100 822.5,-100 822.5,-94 822.5,-94 822.5,-91 825.5,-88 828.5,-88 828.5,-88 913.5,-88 913.5,-88 916.5,-88 919.5,-91 919.5,-94 919.5,-94 919.5,-100 919.5,-100 919.5,-103 916.5,-106 913.5,-106"/>
<text text-anchor="start" x="830.5" y="-94.8" font-family="Helvetica,sans-Serif" font-size="9.00">ICollectionOutput.ts</text>
</a>
</g>
</g>
<!-- src/gathering/CollectionEditor/CollectionEditor.test.ts&#45;&gt;src/gathering/ICollectionOutput.ts -->
<g id="edge7" class="edge">
<title>src/gathering/CollectionEditor/CollectionEditor.test.ts&#45;&gt;src/gathering/ICollectionOutput.ts</title>
<path fill="none" stroke="#000000" stroke-opacity="0.200000" d="M667.39,-150.71C669.19,-149.61 670.91,-148.37 672.5,-147 684.13,-136.97 673.2,-124.18 685.5,-115 705.49,-100.08 768.94,-96.63 815.88,-96.23"/>
<polygon fill="none" stroke="#000000" stroke-opacity="0.200000" points="816.1,-98.33 822.09,-96.19 816.08,-94.13 816.1,-98.33"/>
</g>
<!-- src/gathering/CollectionEditor/CollectionEditor.ts&#45;&gt;src/gathering/Pack.ts -->
<g id="edge12" class="edge">
<title>src/gathering/CollectionEditor/CollectionEditor.ts&#45;&gt;src/gathering/Pack.ts</title>
<path fill="none" stroke="#000000" stroke-opacity="0.200000" d="M787.57,-149.59C844.97,-150.57 947.2,-153.04 1034.5,-159 1036.54,-159.14 1038.63,-159.3 1040.74,-159.48"/>
<polygon fill="none" stroke="#000000" stroke-opacity="0.200000" points="1040.92,-161.6 1047.09,-160.05 1041.3,-157.42 1040.92,-161.6"/>
</g>
<!-- src/gathering/CollectionEditor/CollectionEditor.ts&#45;&gt;src/gathering/CollectionEntity.ts -->
<g id="edge9" class="edge">
<title>src/gathering/CollectionEditor/CollectionEditor.ts&#45;&gt;src/gathering/CollectionEntity.ts</title>
<path fill="none" stroke="#000000" stroke-width="2" stroke-opacity="0.200000" d="M782.62,-158.04C790.25,-159.9 798.14,-161.93 805.5,-164 816.11,-166.99 827.59,-170.6 837.88,-173.98"/>
<polygon fill="#000000" fill-opacity="0.200000" stroke="#000000" stroke-width="2" stroke-opacity="0.200000" points="837.43,-176.04 843.79,-175.93 838.75,-172.05 837.43,-176.04"/>
</g>
<!-- src/gathering/CollectionEditor/CollectionEditor.ts&#45;&gt;src/gathering/ICollectionEditor.ts -->
<g id="edge10" class="edge">
<title>src/gathering/CollectionEditor/CollectionEditor.ts&#45;&gt;src/gathering/ICollectionEditor.ts</title>
<path fill="none" stroke="#000000" stroke-opacity="0.200000" d="M787.81,-141.18C797.53,-139.5 807.88,-137.72 817.84,-136"/>
<polygon fill="none" stroke="#000000" stroke-opacity="0.200000" points="818.42,-138.03 823.98,-134.94 817.71,-133.89 818.42,-138.03"/>
</g>
<!-- src/gathering/CollectionEditor/CollectionEditor.ts&#45;&gt;src/gathering/ICollectionOutput.ts -->
<g id="edge11" class="edge">
<title>src/gathering/CollectionEditor/CollectionEditor.ts&#45;&gt;src/gathering/ICollectionOutput.ts</title>
<path fill="none" stroke="#000000" stroke-opacity="0.200000" d="M787.53,-144.06C793.88,-142.15 800.08,-139.54 805.5,-136 816.44,-128.85 811.94,-119.7 822.5,-112 823.94,-110.95 825.46,-109.97 827.03,-109.06"/>
<polygon fill="none" stroke="#000000" stroke-opacity="0.200000" points="828.18,-110.83 832.55,-106.21 826.26,-107.09 828.18,-110.83"/>
</g>
<!-- src/gathering/PackRepository/index.ts -->
<g id="node9" class="node">
<title>src/gathering/PackRepository/index.ts</title>
<g id="a_node9"><a xlink:href="src/gathering/PackRepository/index.ts" xlink:title="index.ts">
<path fill="#ddfeff" stroke="black" d="M892,-242C892,-242 850,-242 850,-242 847,-242 844,-239 844,-236 844,-236 844,-230 844,-230 844,-227 847,-224 850,-224 850,-224 892,-224 892,-224 895,-224 898,-227 898,-230 898,-230 898,-236 898,-236 898,-239 895,-242 892,-242"/>
<text text-anchor="start" x="855" y="-230.8" font-family="Helvetica,sans-Serif" font-size="9.00">index.ts</text>
</a>
</g>
</g>
<!-- src/gathering/CollectionEditor/CollectionEditor.ts&#45;&gt;src/gathering/PackRepository/index.ts -->
<g id="edge8" class="edge">
<title>src/gathering/CollectionEditor/CollectionEditor.ts&#45;&gt;src/gathering/PackRepository/index.ts</title>
<path fill="none" stroke="#000000" stroke-width="2" stroke-opacity="0.200000" d="M787.78,-153.67C794.31,-155.99 800.5,-159.3 805.5,-164 824.44,-181.82 803.86,-201.86 822.5,-220 826.82,-224.2 832.36,-227.08 838.13,-229.04"/>
<polygon fill="#000000" fill-opacity="0.200000" stroke="#000000" stroke-width="2" stroke-opacity="0.200000" points="837.58,-231.06 843.93,-230.7 838.74,-227.03 837.58,-231.06"/>
</g>
<!-- src/gathering/CollectionEditor/PackRepositoryMock.ts&#45;&gt;src/gathering/Pack.ts -->
<g id="edge14" class="edge">
<title>src/gathering/CollectionEditor/PackRepositoryMock.ts&#45;&gt;src/gathering/Pack.ts</title>
<path fill="none" stroke="#000000" stroke-opacity="0.200000" d="M797.53,-172.19C805.88,-171.34 814.41,-170.57 822.5,-170 900.95,-164.5 993.48,-163.28 1041.28,-163.03"/>
<polygon fill="none" stroke="#000000" stroke-opacity="0.200000" points="1041.46,-165.13 1047.45,-163.01 1041.44,-160.93 1041.46,-165.13"/>
</g>
<!-- src/gathering/IPackRepository.ts -->
<g id="node10" class="node">
<title>src/gathering/IPackRepository.ts</title>
<g id="a_node10"><a xlink:href="src/gathering/IPackRepository.ts" xlink:title="IPackRepository.ts">
<path fill="#ddfeff" stroke="black" d="M1028.5,-214C1028.5,-214 947.5,-214 947.5,-214 944.5,-214 941.5,-211 941.5,-208 941.5,-208 941.5,-202 941.5,-202 941.5,-199 944.5,-196 947.5,-196 947.5,-196 1028.5,-196 1028.5,-196 1031.5,-196 1034.5,-199 1034.5,-202 1034.5,-202 1034.5,-208 1034.5,-208 1034.5,-211 1031.5,-214 1028.5,-214"/>
<text text-anchor="start" x="949.5" y="-202.8" font-family="Helvetica,sans-Serif" font-size="9.00">IPackRepository.ts</text>
</a>
</g>
</g>
<!-- src/gathering/CollectionEditor/PackRepositoryMock.ts&#45;&gt;src/gathering/IPackRepository.ts -->
<g id="edge13" class="edge">
<title>src/gathering/CollectionEditor/PackRepositoryMock.ts&#45;&gt;src/gathering/IPackRepository.ts</title>
<path fill="none" stroke="#000000" stroke-opacity="0.200000" d="M791.98,-188.04C796.59,-189.24 801.16,-190.55 805.5,-192 813.42,-194.64 814.38,-198.05 822.5,-200 859.36,-208.83 902.19,-209.85 934.91,-208.79"/>
<polygon fill="none" stroke="#000000" stroke-opacity="0.200000" points="935.39,-210.87 941.31,-208.55 935.24,-206.67 935.39,-210.87"/>
</g>
<!-- src/gathering/CollectionEntity.ts&#45;&gt;src/gathering/Pack.ts -->
<g id="edge16" class="edge">
<title>src/gathering/CollectionEntity.ts&#45;&gt;src/gathering/Pack.ts</title>
<path fill="none" stroke="#000000" stroke-opacity="0.200000" d="M915.72,-180.23C953.53,-176.1 1007.32,-170.23 1041.31,-166.51"/>
<polygon fill="none" stroke="#000000" stroke-opacity="0.200000" points="1041.68,-168.59 1047.42,-165.85 1041.22,-164.41 1041.68,-168.59"/>
</g>
<!-- src/gathering/CollectionEntity.ts&#45;&gt;src/gathering/IPackRepository.ts -->
<g id="edge15" class="edge">
<title>src/gathering/CollectionEntity.ts&#45;&gt;src/gathering/IPackRepository.ts</title>
<path fill="none" stroke="#000000" stroke-opacity="0.200000" d="M915.8,-192.62C922.22,-193.73 928.88,-194.89 935.43,-196.03"/>
<polygon fill="none" stroke="#000000" stroke-opacity="0.200000" points="935.14,-198.11 941.41,-197.07 935.86,-193.97 935.14,-198.11"/>
</g>
<!-- src/gathering/ICollectionEditor.ts&#45;&gt;src/gathering/Pack.ts -->
<g id="edge17" class="edge">
<title>src/gathering/ICollectionEditor.ts&#45;&gt;src/gathering/Pack.ts</title>
<path fill="none" stroke="#000000" stroke-opacity="0.200000" d="M918.28,-128.18C951.21,-129.96 996.22,-134.35 1034.5,-145 1040.09,-146.56 1045.89,-148.83 1051.25,-151.24"/>
<polygon fill="none" stroke="#000000" stroke-opacity="0.200000" points="1050.54,-153.23 1056.87,-153.88 1052.33,-149.43 1050.54,-153.23"/>
</g>
<!-- src/gathering/ICollectionOutput.ts&#45;&gt;src/gathering/Collection.ts -->
<g id="edge18" class="edge">
<title>src/gathering/ICollectionOutput.ts&#45;&gt;src/gathering/Collection.ts</title>
<path fill="none" stroke="#000000" stroke-opacity="0.200000" d="M919.77,-94.09C929.1,-93.52 938.78,-92.94 947.78,-92.39"/>
<polygon fill="none" stroke="#000000" stroke-opacity="0.200000" points="948.04,-94.48 953.9,-92.01 947.79,-90.28 948.04,-94.48"/>
</g>
<!-- src/gathering/PackRepository/index.ts&#45;&gt;src/gathering/Pack.ts -->
<g id="edge21" class="edge">
<title>src/gathering/PackRepository/index.ts&#45;&gt;src/gathering/Pack.ts</title>
<path fill="none" stroke="#000000" stroke-opacity="0.200000" d="M898.22,-237.45C932.13,-241.83 991.89,-244.69 1034.5,-220 1050.69,-210.61 1061.64,-191.48 1067.72,-177.98"/>
<polygon fill="none" stroke="#000000" stroke-opacity="0.200000" points="1069.75,-178.57 1070.17,-172.23 1065.88,-176.92 1069.75,-178.57"/>
</g>
<!-- src/gathering/PackRepository/index.ts&#45;&gt;src/gathering/IPackRepository.ts -->
<g id="edge20" class="edge">
<title>src/gathering/PackRepository/index.ts&#45;&gt;src/gathering/IPackRepository.ts</title>
<path fill="none" stroke="#000000" stroke-opacity="0.200000" d="M898.1,-226.65C911.55,-223.37 928.32,-219.29 943.65,-215.55"/>
<polygon fill="none" stroke="#000000" stroke-opacity="0.200000" points="944.34,-217.55 949.67,-214.09 943.34,-213.47 944.34,-217.55"/>
</g>
<!-- src/gathering/IPackRepository.ts&#45;&gt;src/gathering/Pack.ts -->
<g id="edge19" class="edge">
<title>src/gathering/IPackRepository.ts&#45;&gt;src/gathering/Pack.ts</title>
<path fill="none" stroke="#000000" stroke-opacity="0.200000" d="M1010.96,-195.87C1018.5,-192.6 1026.94,-188.78 1034.5,-185 1040.57,-181.96 1047.03,-178.44 1052.92,-175.12"/>
<polygon fill="none" stroke="#000000" stroke-opacity="0.200000" points="1053.96,-176.94 1058.13,-172.14 1051.88,-173.29 1053.96,-176.94"/>
</g>
<!-- src/gathering/index.ts -->
<g id="node11" class="node">
<title>src/gathering/index.ts</title>
<g id="a_node11"><a xlink:href="src/gathering/index.ts" xlink:title="index.ts">
<path fill="#ddfeff" stroke="black" d="M639,-242C639,-242 597,-242 597,-242 594,-242 591,-239 591,-236 591,-236 591,-230 591,-230 591,-227 594,-224 597,-224 597,-224 639,-224 639,-224 642,-224 645,-227 645,-230 645,-230 645,-236 645,-236 645,-239 642,-242 639,-242"/>
<text text-anchor="start" x="602" y="-230.8" font-family="Helvetica,sans-Serif" font-size="9.00">index.ts</text>
</a>
</g>
</g>
<!-- src/gathering/index.ts&#45;&gt;src/gathering/CollectionEditor/CollectionEditor.ts -->
<g id="edge22" class="edge">
<title>src/gathering/index.ts&#45;&gt;src/gathering/CollectionEditor/CollectionEditor.ts</title>
<path fill="none" stroke="#000000" stroke-width="2" stroke-opacity="0.200000" d="M645.01,-230.69C654.83,-228.54 665.35,-224.52 672.5,-217 689.22,-199.43 668.57,-181.37 685.5,-164 686.92,-162.55 688.46,-161.23 690.1,-160.04"/>
<polygon fill="#000000" fill-opacity="0.200000" stroke="#000000" stroke-width="2" stroke-opacity="0.200000" points="691.29,-161.77 695.27,-156.82 689.07,-158.2 691.29,-161.77"/>
</g>
<!-- src/gathering/index.ts&#45;&gt;src/gathering/PackRepository/index.ts -->
<g id="edge23" class="edge">
<title>src/gathering/index.ts&#45;&gt;src/gathering/PackRepository/index.ts</title>
<path fill="none" stroke="#000000" stroke-width="2" stroke-opacity="0.200000" d="M645.39,-233C691.74,-233 787.61,-233 837.79,-233"/>
<polygon fill="#000000" fill-opacity="0.200000" stroke="#000000" stroke-width="2" stroke-opacity="0.200000" points="837.97,-235.1 843.97,-233 837.97,-230.9 837.97,-235.1"/>
</g>
<!-- src/lib/userEditsCollection/userEditsCollection.ts -->
<g id="node12" class="node">
<title>src/lib/userEditsCollection/userEditsCollection.ts</title>
<g id="a_node12"><a xlink:href="src/lib/userEditsCollection/userEditsCollection.ts" xlink:title="userEditsCollection.ts">
<path fill="#ddfeff" stroke="black" d="M496,-242C496,-242 401,-242 401,-242 398,-242 395,-239 395,-236 395,-236 395,-230 395,-230 395,-227 398,-224 401,-224 401,-224 496,-224 496,-224 499,-224 502,-227 502,-230 502,-230 502,-236 502,-236 502,-239 499,-242 496,-242"/>
<text text-anchor="start" x="403" y="-230.8" font-family="Helvetica,sans-Serif" font-size="9.00">userEditsCollection.ts</text>
</a>
</g>
</g>
<!-- src/lib/userEditsCollection/userEditsCollection.ts&#45;&gt;src/gathering/Collection.ts -->
<g id="edge25" class="edge">
<title>src/lib/userEditsCollection/userEditsCollection.ts&#45;&gt;src/gathering/Collection.ts</title>
<path fill="none" stroke="#000000" stroke-opacity="0.200000" d="M460.03,-223.76C479.08,-206.42 519.18,-166.95 539.5,-125 547.02,-109.47 534.52,-98.38 547.5,-87 667.03,17.79 883.06,-49.96 959.38,-78.82"/>
<polygon fill="none" stroke="#000000" stroke-opacity="0.200000" points="958.71,-80.81 965.06,-81 960.21,-76.89 958.71,-80.81"/>
</g>
<!-- src/lib/userEditsCollection/userEditsCollection.ts&#45;&gt;src/gathering/CollectionEditor/CollectionEditor.ts -->
<g id="edge26" class="edge">
<title>src/lib/userEditsCollection/userEditsCollection.ts&#45;&gt;src/gathering/CollectionEditor/CollectionEditor.ts</title>
<path fill="none" stroke="#000000" stroke-opacity="0.200000" d="M455.8,-223.99C469.72,-204.98 505.22,-161.2 547.5,-145 572.41,-135.46 640.97,-139.33 689.26,-143.62"/>
<polygon fill="none" stroke="#000000" stroke-opacity="0.200000" points="689.18,-145.72 695.34,-144.17 689.56,-141.54 689.18,-145.72"/>
</g>
<!-- src/lib/userEditsCollection/userEditsCollection.ts&#45;&gt;src/gathering/ICollectionOutput.ts -->
<g id="edge27" class="edge">
<title>src/lib/userEditsCollection/userEditsCollection.ts&#45;&gt;src/gathering/ICollectionOutput.ts</title>
<path fill="none" stroke="#000000" stroke-opacity="0.200000" d="M455.38,-223.86C468.98,-203.48 504.73,-154.16 547.5,-129 631.29,-79.71 748.89,-82.38 816.49,-89.32"/>
<polygon fill="none" stroke="#000000" stroke-opacity="0.200000" points="816.28,-91.41 822.47,-89.96 816.73,-87.23 816.28,-91.41"/>
</g>
<!-- src/lib/userEditsCollection/userEditsCollection.ts&#45;&gt;src/gathering/index.ts -->
<g id="edge24" class="edge">
<title>src/lib/userEditsCollection/userEditsCollection.ts&#45;&gt;src/gathering/index.ts</title>
<path fill="none" stroke="#000000" stroke-width="2" stroke-opacity="0.200000" d="M502.04,-233C529.16,-233 561.39,-233 584.81,-233"/>
<polygon fill="#000000" fill-opacity="0.200000" stroke="#000000" stroke-width="2" stroke-opacity="0.200000" points="584.87,-235.1 590.87,-233 584.87,-230.9 584.87,-235.1"/>
</g>
<!-- src/routes/collection/edit/+page.svelte.ts -->
<g id="node13" class="node">
<title>src/routes/collection/edit/+page.svelte.ts</title>
<g id="a_node13"><a xlink:href="src/routes/collection/edit/+page.svelte.ts" xlink:title="+page.svelte.ts">
<path fill="#ddfeff" stroke="black" d="M113,-109C113,-109 46,-109 46,-109 43,-109 40,-106 40,-103 40,-103 40,-97 40,-97 40,-94 43,-91 46,-91 46,-91 113,-91 113,-91 116,-91 119,-94 119,-97 119,-97 119,-103 119,-103 119,-106 116,-109 113,-109"/>
<text text-anchor="start" x="48" y="-97.8" font-family="Helvetica,sans-Serif" font-size="9.00">+page.svelte.ts</text>
</a>
</g>
</g>
<!-- src/routes/collection/edit/+page.svelte.ts&#45;&gt;src/lib/userEditsCollection/userEditsCollection.ts -->
<g id="edge29" class="edge">
<title>src/routes/collection/edit/+page.svelte.ts&#45;&gt;src/lib/userEditsCollection/userEditsCollection.ts</title>
<path fill="none" stroke="#000000" stroke-width="2" stroke-opacity="0.200000" d="M96.1,-109.24C104.97,-114.28 116.4,-120.41 127,-125 225.69,-167.8 347.27,-204.65 408.44,-222.15"/>
<polygon fill="#000000" fill-opacity="0.200000" stroke="#000000" stroke-width="2" stroke-opacity="0.200000" points="408.17,-224.26 414.52,-223.88 409.33,-220.22 408.17,-224.26"/>
</g>
<!-- src/routes/collection/edit/PacksBundle/PacksBundle.svelte.ts -->
<g id="node14" class="node">
<title>src/routes/collection/edit/PacksBundle/PacksBundle.svelte.ts</title>
<g id="a_node14"><a xlink:href="src/routes/collection/edit/PacksBundle/PacksBundle.svelte.ts" xlink:title="PacksBundle.svelte.ts">
<path fill="#ddfeff" stroke="black" d="M236,-96C236,-96 141,-96 141,-96 138,-96 135,-93 135,-90 135,-90 135,-84 135,-84 135,-81 138,-78 141,-78 141,-78 236,-78 236,-78 239,-78 242,-81 242,-84 242,-84 242,-90 242,-90 242,-93 239,-96 236,-96"/>
<text text-anchor="start" x="143" y="-84.8" font-family="Helvetica,sans-Serif" font-size="9.00">PacksBundle.svelte.ts</text>
</a>
</g>
</g>
<!-- src/routes/collection/edit/+page.svelte.ts&#45;&gt;src/routes/collection/edit/PacksBundle/PacksBundle.svelte.ts -->
<g id="edge28" class="edge">
<title>src/routes/collection/edit/+page.svelte.ts&#45;&gt;src/routes/collection/edit/PacksBundle/PacksBundle.svelte.ts</title>
<path fill="none" stroke="#000000" stroke-width="2" stroke-opacity="0.200000" d="M119.13,-95.31C122.35,-94.92 125.64,-94.52 128.96,-94.11"/>
<polygon fill="#000000" fill-opacity="0.200000" stroke="#000000" stroke-width="2" stroke-opacity="0.200000" points="129.26,-96.19 134.96,-93.38 128.75,-92.02 129.26,-96.19"/>
</g>
<!-- src/routes/collection/edit/PacksBundle/PacksBundle.svelte.ts&#45;&gt;src/lib/userEditsCollection/userEditsCollection.ts -->
<g id="edge34" class="edge">
<title>src/routes/collection/edit/PacksBundle/PacksBundle.svelte.ts&#45;&gt;src/lib/userEditsCollection/userEditsCollection.ts</title>
<path fill="none" stroke="#000000" stroke-opacity="0.200000" d="M210.21,-96.08C244.51,-111.4 314.9,-144.06 371,-178 392.63,-191.08 416.02,-208.41 431.17,-220.09"/>
<polygon fill="none" stroke="#000000" stroke-opacity="0.200000" points="429.94,-221.8 435.97,-223.82 432.52,-218.49 429.94,-221.8"/>
</g>
<!-- src/routes/collection/edit/PacksBundle/CollectiblePack.svelte.ts -->
<g id="node15" class="node">
<title>src/routes/collection/edit/PacksBundle/CollectiblePack.svelte.ts</title>
<g id="a_node15"><a xlink:href="src/routes/collection/edit/PacksBundle/CollectiblePack.svelte.ts" xlink:title="CollectiblePack.svelte.ts">
<path fill="#ddfeff" stroke="black" d="M365,-96C365,-96 261,-96 261,-96 258,-96 255,-93 255,-90 255,-90 255,-84 255,-84 255,-81 258,-78 261,-78 261,-78 365,-78 365,-78 368,-78 371,-81 371,-84 371,-84 371,-90 371,-90 371,-93 368,-96 365,-96"/>
<text text-anchor="start" x="263" y="-84.8" font-family="Helvetica,sans-Serif" font-size="9.00">CollectiblePack.svelte.ts</text>
</a>
</g>
</g>
<!-- src/routes/collection/edit/PacksBundle/PacksBundle.svelte.ts&#45;&gt;src/routes/collection/edit/PacksBundle/CollectiblePack.svelte.ts -->
<g id="edge33" class="edge">
<title>src/routes/collection/edit/PacksBundle/PacksBundle.svelte.ts&#45;&gt;src/routes/collection/edit/PacksBundle/CollectiblePack.svelte.ts</title>
<path fill="none" stroke="#000000" stroke-width="2" stroke-opacity="0.200000" d="M242.16,-87C244.24,-87 246.33,-87 248.42,-87"/>
<polygon fill="#000000" fill-opacity="0.200000" stroke="#000000" stroke-width="2" stroke-opacity="0.200000" points="248.7,-89.1 254.7,-87 248.7,-84.9 248.7,-89.1"/>
</g>
<!-- src/routes/collection/edit/PacksBundle/CollectiblePack.svelte.ts&#45;&gt;src/lib/userEditsCollection/userEditsCollection.ts -->
<g id="edge32" class="edge">
<title>src/routes/collection/edit/PacksBundle/CollectiblePack.svelte.ts&#45;&gt;src/lib/userEditsCollection/userEditsCollection.ts</title>
<path fill="none" stroke="#000000" stroke-opacity="0.200000" d="M349.47,-96.05C357.19,-99.22 364.88,-103.43 371,-109 376.88,-114.35 375.09,-118.08 379,-125 398.56,-159.6 424.26,-198.62 437.95,-218.96"/>
<polygon fill="none" stroke="#000000" stroke-opacity="0.200000" points="436.22,-220.15 441.31,-223.95 439.7,-217.8 436.22,-220.15"/>
</g>
<!-- src/routes/collection/edit/PacksBundle/arrow&#45;down.svg.svelte.ts -->
<g id="node16" class="node">
<title>src/routes/collection/edit/PacksBundle/arrow&#45;down.svg.svelte.ts</title>
<g id="a_node16"><a xlink:href="src/routes/collection/edit/PacksBundle/arrow-down.svg.svelte.ts" xlink:title="arrow&#45;down.svg.svelte.ts">
<path fill="#ddfeff" stroke="black" d="M501.5,-66C501.5,-66 395.5,-66 395.5,-66 392.5,-66 389.5,-63 389.5,-60 389.5,-60 389.5,-54 389.5,-54 389.5,-51 392.5,-48 395.5,-48 395.5,-48 501.5,-48 501.5,-48 504.5,-48 507.5,-51 507.5,-54 507.5,-54 507.5,-60 507.5,-60 507.5,-63 504.5,-66 501.5,-66"/>
<text text-anchor="start" x="397.5" y="-54.8" font-family="Helvetica,sans-Serif" font-size="9.00">arrow&#45;down.svg.svelte.ts</text>
</a>
</g>
</g>
<!-- src/routes/collection/edit/PacksBundle/CollectiblePack.svelte.ts&#45;&gt;src/routes/collection/edit/PacksBundle/arrow&#45;down.svg.svelte.ts -->
<g id="edge30" class="edge">
<title>src/routes/collection/edit/PacksBundle/CollectiblePack.svelte.ts&#45;&gt;src/routes/collection/edit/PacksBundle/arrow&#45;down.svg.svelte.ts</title>
<path fill="none" stroke="#000000" stroke-width="2" stroke-opacity="0.200000" d="M352.82,-77.97C361.44,-75.98 370.53,-73.91 379,-72 385.77,-70.48 392.93,-68.89 399.96,-67.34"/>
<polygon fill="#000000" fill-opacity="0.200000" stroke="#000000" stroke-width="2" stroke-opacity="0.200000" points="400.42,-69.39 405.83,-66.05 399.51,-65.29 400.42,-69.39"/>
</g>
<!-- src/routes/collection/edit/PacksBundle/arrow&#45;up.svg.svelte.ts -->
<g id="node17" class="node">
<title>src/routes/collection/edit/PacksBundle/arrow&#45;up.svg.svelte.ts</title>
<g id="a_node17"><a xlink:href="src/routes/collection/edit/PacksBundle/arrow-up.svg.svelte.ts" xlink:title="arrow&#45;up.svg.svelte.ts">
<path fill="#ddfeff" stroke="black" d="M495.5,-96C495.5,-96 401.5,-96 401.5,-96 398.5,-96 395.5,-93 395.5,-90 395.5,-90 395.5,-84 395.5,-84 395.5,-81 398.5,-78 401.5,-78 401.5,-78 495.5,-78 495.5,-78 498.5,-78 501.5,-81 501.5,-84 501.5,-84 501.5,-90 501.5,-90 501.5,-93 498.5,-96 495.5,-96"/>
<text text-anchor="start" x="403.5" y="-84.8" font-family="Helvetica,sans-Serif" font-size="9.00">arrow&#45;up.svg.svelte.ts</text>
</a>
</g>
</g>
<!-- src/routes/collection/edit/PacksBundle/CollectiblePack.svelte.ts&#45;&gt;src/routes/collection/edit/PacksBundle/arrow&#45;up.svg.svelte.ts -->
<g id="edge31" class="edge">
<title>src/routes/collection/edit/PacksBundle/CollectiblePack.svelte.ts&#45;&gt;src/routes/collection/edit/PacksBundle/arrow&#45;up.svg.svelte.ts</title>
<path fill="none" stroke="#000000" stroke-width="2" stroke-opacity="0.200000" d="M371,-87C377.06,-87 383.23,-87 389.3,-87"/>
<polygon fill="#000000" fill-opacity="0.200000" stroke="#000000" stroke-width="2" stroke-opacity="0.200000" points="389.34,-89.1 395.34,-87 389.34,-84.9 389.34,-89.1"/>
</g>
</g>
</svg>
