<?xml version="1.0" encoding="UTF-8" standalone="no"?>
<!DOCTYPE svg PUBLIC "-//W3C//DTD SVG 1.1//EN"
 "http://www.w3.org/Graphics/SVG/1.1/DTD/svg11.dtd">
<!-- Generated by graphviz version 2.50.0 (20211204.2007)
 -->
<!-- Title: dependency&#45;cruiser output Pages: 1 -->
<svg width="563pt" height="440pt"
 viewBox="0.00 0.00 563.00 440.00" xmlns="http://www.w3.org/2000/svg" xmlns:xlink="http://www.w3.org/1999/xlink">
<g id="graph0" class="graph" transform="scale(1 1) rotate(0) translate(4 436)">
<title>dependency&#45;cruiser output</title>
<polygon fill="white" stroke="transparent" points="-4,4 -4,-436 559,-436 559,4 -4,4"/>
<g id="clust1" class="cluster">
<title>cluster_src</title>
<path fill="#ffffff" stroke="black" stroke-width="2" d="M20,-8C20,-8 535,-8 535,-8 541,-8 547,-14 547,-20 547,-20 547,-412 547,-412 547,-418 541,-424 535,-424 535,-424 20,-424 20,-424 14,-424 8,-418 8,-412 8,-412 8,-20 8,-20 8,-14 14,-8 20,-8"/>
<text text-anchor="middle" x="277.5" y="-412.8" font-family="Helvetica,sans-Serif" font-weight="bold" font-size="9.00">src</text>
</g>
<g id="clust2" class="cluster">
<title>cluster_src/gathering</title>
<path fill="#ffffff" stroke="black" stroke-width="2" d="M28,-260C28,-260 527,-260 527,-260 533,-260 539,-266 539,-272 539,-272 539,-386 539,-386 539,-392 533,-398 527,-398 527,-398 28,-398 28,-398 22,-398 16,-392 16,-386 16,-386 16,-272 16,-272 16,-266 22,-260 28,-260"/>
<text text-anchor="middle" x="277.5" y="-386.8" font-family="Helvetica,sans-Serif" font-weight="bold" font-size="9.00">gathering</text>
</g>
<g id="clust3" class="cluster">
<title>cluster_src/gathering/CollectionEditor</title>
<path fill="#ffffff" stroke="black" stroke-width="2" d="M36,-274C36,-274 269,-274 269,-274 275,-274 281,-280 281,-286 281,-286 281,-344 281,-344 281,-350 275,-356 269,-356 269,-356 36,-356 36,-356 30,-356 24,-350 24,-344 24,-344 24,-286 24,-286 24,-280 30,-274 36,-274"/>
<text text-anchor="middle" x="152.5" y="-344.8" font-family="Helvetica,sans-Serif" font-weight="bold" font-size="9.00">CollectionEditor</text>
</g>
<g id="clust4" class="cluster">
<title>cluster_src/lib</title>
<path fill="#ffffff" stroke="black" stroke-width="2" d="M170.5,-16C170.5,-16 263.5,-16 263.5,-16 269.5,-16 275.5,-22 275.5,-28 275.5,-28 275.5,-240 275.5,-240 275.5,-246 269.5,-252 263.5,-252 263.5,-252 170.5,-252 170.5,-252 164.5,-252 158.5,-246 158.5,-240 158.5,-240 158.5,-28 158.5,-28 158.5,-22 164.5,-16 170.5,-16"/>
<text text-anchor="middle" x="217" y="-240.8" font-family="Helvetica,sans-Serif" font-weight="bold" font-size="9.00">lib</text>
</g>
<g id="clust5" class="cluster">
<title>cluster_src/lib/BinderStorage</title>
<path fill="#ffffff" stroke="black" stroke-width="2" d="M190,-174C190,-174 244,-174 244,-174 250,-174 256,-180 256,-186 256,-186 256,-214 256,-214 256,-220 250,-226 244,-226 244,-226 190,-226 190,-226 184,-226 178,-220 178,-214 178,-214 178,-186 178,-186 178,-180 184,-174 190,-174"/>
<text text-anchor="middle" x="217" y="-214.8" font-family="Helvetica,sans-Serif" font-weight="bold" font-size="9.00">BinderStorage</text>
</g>
<g id="clust6" class="cluster">
<title>cluster_src/lib/server</title>
<path fill="#ffffff" stroke="black" stroke-width="2" d="M178.5,-24C178.5,-24 255.5,-24 255.5,-24 261.5,-24 267.5,-30 267.5,-36 267.5,-36 267.5,-154 267.5,-154 267.5,-160 261.5,-166 255.5,-166 255.5,-166 178.5,-166 178.5,-166 172.5,-166 166.5,-160 166.5,-154 166.5,-154 166.5,-36 166.5,-36 166.5,-30 172.5,-24 178.5,-24"/>
<text text-anchor="middle" x="217" y="-154.8" font-family="Helvetica,sans-Serif" font-weight="bold" font-size="9.00">server</text>
</g>
<g id="clust7" class="cluster">
<title>cluster_src/lib/server/collection</title>
<path fill="#ffffff" stroke="black" stroke-width="2" d="M193,-88C193,-88 241,-88 241,-88 247,-88 253,-94 253,-100 253,-100 253,-128 253,-128 253,-134 247,-140 241,-140 241,-140 193,-140 193,-140 187,-140 181,-134 181,-128 181,-128 181,-100 181,-100 181,-94 187,-88 193,-88"/>
<text text-anchor="middle" x="217" y="-128.8" font-family="Helvetica,sans-Serif" font-weight="bold" font-size="9.00">collection</text>
</g>
<g id="clust8" class="cluster">
<title>cluster_src/routes</title>
<path fill="#ffffff" stroke="black" stroke-width="2" d="M34.5,-55C34.5,-55 138.5,-55 138.5,-55 144.5,-55 150.5,-61 150.5,-67 150.5,-67 150.5,-163 150.5,-163 150.5,-169 144.5,-175 138.5,-175 138.5,-175 34.5,-175 34.5,-175 28.5,-175 22.5,-169 22.5,-163 22.5,-163 22.5,-67 22.5,-67 22.5,-61 28.5,-55 34.5,-55"/>
<text text-anchor="middle" x="86.5" y="-163.8" font-family="Helvetica,sans-Serif" font-weight="bold" font-size="9.00">routes</text>
</g>
<g id="clust9" class="cluster">
<title>cluster_src/routes/collection</title>
<path fill="#ffffff" stroke="black" stroke-width="2" d="M42.5,-63C42.5,-63 130.5,-63 130.5,-63 136.5,-63 142.5,-69 142.5,-75 142.5,-75 142.5,-137 142.5,-137 142.5,-143 136.5,-149 130.5,-149 130.5,-149 42.5,-149 42.5,-149 36.5,-149 30.5,-143 30.5,-137 30.5,-137 30.5,-75 30.5,-75 30.5,-69 36.5,-63 42.5,-63"/>
<text text-anchor="middle" x="86.5" y="-137.8" font-family="Helvetica,sans-Serif" font-weight="bold" font-size="9.00">collection</text>
</g>
<g id="clust10" class="cluster">
<title>cluster_src/routes/collection/couz</title>
<path fill="#ffffff" stroke="black" stroke-width="2" d="M50.5,-71C50.5,-71 122.5,-71 122.5,-71 128.5,-71 134.5,-77 134.5,-83 134.5,-83 134.5,-111 134.5,-111 134.5,-117 128.5,-123 122.5,-123 122.5,-123 50.5,-123 50.5,-123 44.5,-123 38.5,-117 38.5,-111 38.5,-111 38.5,-83 38.5,-83 38.5,-77 44.5,-71 50.5,-71"/>
<text text-anchor="middle" x="86.5" y="-111.8" font-family="Helvetica,sans-Serif" font-weight="bold" font-size="9.00">couz</text>
</g>
<!-- src/gathering/Collection.ts -->
<g id="node1" class="node">
<title>src/gathering/Collection.ts</title>
<g id="a_node1"><a xlink:href="src/gathering/Collection.ts" xlink:title="Collection.ts">
<path fill="#ddfeff" stroke="black" d="M458,-364C458,-364 402,-364 402,-364 399,-364 396,-361 396,-358 396,-358 396,-352 396,-352 396,-349 399,-346 402,-346 402,-346 458,-346 458,-346 461,-346 464,-349 464,-352 464,-352 464,-358 464,-358 464,-361 461,-364 458,-364"/>
<text text-anchor="start" x="404" y="-352.8" font-family="Helvetica,sans-Serif" font-size="9.00">Collection.ts</text>
</a>
</g>
</g>
<!-- src/gathering/Pack.ts -->
<g id="node2" class="node">
<title>src/gathering/Pack.ts</title>
<g id="a_node2"><a xlink:href="src/gathering/Pack.ts" xlink:title="Pack.ts">
<path fill="#ddfeff" stroke="black" d="M525,-322C525,-322 483,-322 483,-322 480,-322 477,-319 477,-316 477,-316 477,-310 477,-310 477,-307 480,-304 483,-304 483,-304 525,-304 525,-304 528,-304 531,-307 531,-310 531,-310 531,-316 531,-316 531,-319 528,-322 525,-322"/>
<text text-anchor="start" x="488.5" y="-310.8" font-family="Helvetica,sans-Serif" font-size="9.00">Pack.ts</text>
</a>
</g>
</g>
<!-- src/gathering/Collection.ts&#45;&gt;src/gathering/Pack.ts -->
<g id="edge1" class="edge">
<title>src/gathering/Collection.ts&#45;&gt;src/gathering/Pack.ts</title>
<path fill="none" stroke="#000000" stroke-opacity="0.200000" d="M446.62,-345.89C457,-339.83 470.75,-331.81 482.07,-325.21"/>
<polygon fill="none" stroke="#000000" stroke-opacity="0.200000" points="483.28,-326.93 487.41,-322.1 481.17,-323.3 483.28,-326.93"/>
</g>
<!-- src/gathering/CollectionEditor/CollectionEditor.test.ts -->
<g id="node3" class="node">
<title>src/gathering/CollectionEditor/CollectionEditor.test.ts</title>
<g id="a_node3"><a xlink:href="src/gathering/CollectionEditor/CollectionEditor.test.ts" xlink:title="CollectionEditor.test.ts">
<path fill="#ddfeff" stroke="black" d="M135,-330C135,-330 38,-330 38,-330 35,-330 32,-327 32,-324 32,-324 32,-318 32,-318 32,-315 35,-312 38,-312 38,-312 135,-312 135,-312 138,-312 141,-315 141,-318 141,-318 141,-324 141,-324 141,-327 138,-330 135,-330"/>
<text text-anchor="start" x="40" y="-318.8" font-family="Helvetica,sans-Serif" font-size="9.00">CollectionEditor.test.ts</text>
</a>
</g>
</g>
<!-- src/gathering/CollectionEditor/CollectionEditor.test.ts&#45;&gt;src/gathering/Collection.ts -->
<g id="edge4" class="edge">
<title>src/gathering/CollectionEditor/CollectionEditor.test.ts&#45;&gt;src/gathering/Collection.ts</title>
<path fill="none" stroke="#000000" stroke-opacity="0.200000" d="M129.91,-330.04C139.32,-332.03 149.24,-334.1 158.5,-336 216.43,-347.89 230.15,-356.19 289,-362 330.58,-366.1 341.34,-365.15 383,-362 385.23,-361.83 387.51,-361.62 389.8,-361.37"/>
<polygon fill="none" stroke="#000000" stroke-opacity="0.200000" points="390.19,-363.44 395.9,-360.65 389.7,-359.27 390.19,-363.44"/>
</g>
<!-- src/gathering/CollectionEditor/CollectionEditor.ts -->
<g id="node4" class="node">
<title>src/gathering/CollectionEditor/CollectionEditor.ts</title>
<g id="a_node4"><a xlink:href="src/gathering/CollectionEditor/CollectionEditor.ts" xlink:title="CollectionEditor.ts">
<path fill="#ddfeff" stroke="black" d="M257,-330C257,-330 177,-330 177,-330 174,-330 171,-327 171,-324 171,-324 171,-318 171,-318 171,-315 174,-312 177,-312 177,-312 257,-312 257,-312 260,-312 263,-315 263,-318 263,-318 263,-324 263,-324 263,-327 260,-330 257,-330"/>
<text text-anchor="start" x="179" y="-318.8" font-family="Helvetica,sans-Serif" font-size="9.00">CollectionEditor.ts</text>
</a>
</g>
</g>
<!-- src/gathering/CollectionEditor/CollectionEditor.test.ts&#45;&gt;src/gathering/CollectionEditor/CollectionEditor.ts -->
<g id="edge2" class="edge">
<title>src/gathering/CollectionEditor/CollectionEditor.test.ts&#45;&gt;src/gathering/CollectionEditor/CollectionEditor.ts</title>
<path fill="none" stroke="#000000" stroke-width="2" stroke-opacity="0.200000" d="M141.25,-321C148.88,-321 156.71,-321 164.3,-321"/>
<polygon fill="#000000" fill-opacity="0.200000" stroke="#000000" stroke-width="2" stroke-opacity="0.200000" points="164.61,-323.1 170.61,-321 164.61,-318.9 164.61,-323.1"/>
</g>
<!-- src/gathering/CollectionEditor/PackRepositoryMock.ts -->
<g id="node5" class="node">
<title>src/gathering/CollectionEditor/PackRepositoryMock.ts</title>
<g id="a_node5"><a xlink:href="src/gathering/CollectionEditor/PackRepositoryMock.ts" xlink:title="PackRepositoryMock.ts">
<path fill="#ddfeff" stroke="black" d="M267,-300C267,-300 167,-300 167,-300 164,-300 161,-297 161,-294 161,-294 161,-288 161,-288 161,-285 164,-282 167,-282 167,-282 267,-282 267,-282 270,-282 273,-285 273,-288 273,-288 273,-294 273,-294 273,-297 270,-300 267,-300"/>
<text text-anchor="start" x="169" y="-288.8" font-family="Helvetica,sans-Serif" font-size="9.00">PackRepositoryMock.ts</text>
</a>
</g>
</g>
<!-- src/gathering/CollectionEditor/CollectionEditor.test.ts&#45;&gt;src/gathering/CollectionEditor/PackRepositoryMock.ts -->
<g id="edge3" class="edge">
<title>src/gathering/CollectionEditor/CollectionEditor.test.ts&#45;&gt;src/gathering/CollectionEditor/PackRepositoryMock.ts</title>
<path fill="none" stroke="#000000" stroke-width="2" stroke-opacity="0.200000" d="M126.05,-312C140.16,-308.71 156.23,-304.95 170.86,-301.54"/>
<polygon fill="#000000" fill-opacity="0.200000" stroke="#000000" stroke-width="2" stroke-opacity="0.200000" points="171.66,-303.51 177.03,-300.1 170.71,-299.42 171.66,-303.51"/>
</g>
<!-- src/gathering/CollectionEditor/CollectionEditor.ts&#45;&gt;src/gathering/Collection.ts -->
<g id="edge5" class="edge">
<title>src/gathering/CollectionEditor/CollectionEditor.ts&#45;&gt;src/gathering/Collection.ts</title>
<path fill="none" stroke="#000000" stroke-opacity="0.200000" d="M263.22,-325.11C269.61,-327.13 275.78,-329.98 281,-334 287.3,-338.85 282.31,-345.7 289,-350 318.7,-369.1 359.74,-368.14 389.7,-363.74"/>
<polygon fill="none" stroke="#000000" stroke-opacity="0.200000" points="390.32,-365.76 395.92,-362.75 389.66,-361.62 390.32,-365.76"/>
</g>
<!-- src/gathering/CollectionEditor/CollectionEditor.ts&#45;&gt;src/gathering/Pack.ts -->
<g id="edge8" class="edge">
<title>src/gathering/CollectionEditor/CollectionEditor.ts&#45;&gt;src/gathering/Pack.ts</title>
<path fill="none" stroke="#000000" stroke-opacity="0.200000" d="M263.16,-319.73C320.96,-318.11 419.69,-315.34 470.57,-313.91"/>
<polygon fill="none" stroke="#000000" stroke-opacity="0.200000" points="470.89,-316 476.83,-313.73 470.77,-311.8 470.89,-316"/>
</g>
<!-- src/gathering/ICollectionEditor.ts -->
<g id="node6" class="node">
<title>src/gathering/ICollectionEditor.ts</title>
<g id="a_node6"><a xlink:href="src/gathering/ICollectionEditor.ts" xlink:title="ICollectionEditor.ts">
<path fill="#ddfeff" stroke="black" d="M377,-344C377,-344 295,-344 295,-344 292,-344 289,-341 289,-338 289,-338 289,-332 289,-332 289,-329 292,-326 295,-326 295,-326 377,-326 377,-326 380,-326 383,-329 383,-332 383,-332 383,-338 383,-338 383,-341 380,-344 377,-344"/>
<text text-anchor="start" x="297" y="-332.8" font-family="Helvetica,sans-Serif" font-size="9.00">ICollectionEditor.ts</text>
</a>
</g>
</g>
<!-- src/gathering/CollectionEditor/CollectionEditor.ts&#45;&gt;src/gathering/ICollectionEditor.ts -->
<g id="edge6" class="edge">
<title>src/gathering/CollectionEditor/CollectionEditor.ts&#45;&gt;src/gathering/ICollectionEditor.ts</title>
<path fill="none" stroke="#000000" stroke-opacity="0.200000" d="M263.24,-326.41C269.5,-327.16 275.99,-327.94 282.38,-328.7"/>
<polygon fill="none" stroke="#000000" stroke-opacity="0.200000" points="282.52,-330.84 288.73,-329.46 283.02,-326.66 282.52,-330.84"/>
</g>
<!-- src/gathering/IPackRepository.ts -->
<g id="node7" class="node">
<title>src/gathering/IPackRepository.ts</title>
<g id="a_node7"><a xlink:href="src/gathering/IPackRepository.ts" xlink:title="IPackRepository.ts">
<path fill="#ddfeff" stroke="black" d="M376.5,-300C376.5,-300 295.5,-300 295.5,-300 292.5,-300 289.5,-297 289.5,-294 289.5,-294 289.5,-288 289.5,-288 289.5,-285 292.5,-282 295.5,-282 295.5,-282 376.5,-282 376.5,-282 379.5,-282 382.5,-285 382.5,-288 382.5,-288 382.5,-294 382.5,-294 382.5,-297 379.5,-300 376.5,-300"/>
<text text-anchor="start" x="297.5" y="-288.8" font-family="Helvetica,sans-Serif" font-size="9.00">IPackRepository.ts</text>
</a>
</g>
</g>
<!-- src/gathering/CollectionEditor/CollectionEditor.ts&#45;&gt;src/gathering/IPackRepository.ts -->
<g id="edge7" class="edge">
<title>src/gathering/CollectionEditor/CollectionEditor.ts&#45;&gt;src/gathering/IPackRepository.ts</title>
<path fill="none" stroke="#000000" stroke-opacity="0.200000" d="M257.04,-311.94C264.98,-310.03 273.27,-307.99 281,-306 286.33,-304.63 291.94,-303.13 297.44,-301.63"/>
<polygon fill="none" stroke="#000000" stroke-opacity="0.200000" points="298.13,-303.62 303.36,-300 297.02,-299.57 298.13,-303.62"/>
</g>
<!-- src/gathering/CollectionEditor/PackRepositoryMock.ts&#45;&gt;src/gathering/Pack.ts -->
<g id="edge10" class="edge">
<title>src/gathering/CollectionEditor/PackRepositoryMock.ts&#45;&gt;src/gathering/Pack.ts</title>
<path fill="none" stroke="#000000" stroke-opacity="0.200000" d="M253.52,-281.98C264.79,-279.53 277.35,-277.22 289,-276 366.91,-267.86 389.68,-272.25 464,-297 468.11,-298.37 472.39,-299.96 476.56,-301.59"/>
<polygon fill="none" stroke="#000000" stroke-opacity="0.200000" points="475.8,-303.55 482.15,-303.83 477.36,-299.65 475.8,-303.55"/>
</g>
<!-- src/gathering/CollectionEditor/PackRepositoryMock.ts&#45;&gt;src/gathering/IPackRepository.ts -->
<g id="edge9" class="edge">
<title>src/gathering/CollectionEditor/PackRepositoryMock.ts&#45;&gt;src/gathering/IPackRepository.ts</title>
<path fill="none" stroke="#000000" stroke-opacity="0.200000" d="M273.07,-291C276.48,-291 279.91,-291 283.3,-291"/>
<polygon fill="none" stroke="#000000" stroke-opacity="0.200000" points="283.36,-293.1 289.36,-291 283.36,-288.9 283.36,-293.1"/>
</g>
<!-- src/gathering/ICollectionEditor.ts&#45;&gt;src/gathering/Collection.ts -->
<g id="edge11" class="edge">
<title>src/gathering/ICollectionEditor.ts&#45;&gt;src/gathering/Collection.ts</title>
<path fill="none" stroke="#000000" stroke-opacity="0.200000" d="M378.42,-344.01C382.24,-344.84 386.1,-345.67 389.9,-346.5"/>
<polygon fill="none" stroke="#000000" stroke-opacity="0.200000" points="389.49,-348.56 395.8,-347.78 390.38,-344.46 389.49,-348.56"/>
</g>
<!-- src/gathering/ICollectionEditor.ts&#45;&gt;src/gathering/Pack.ts -->
<g id="edge12" class="edge">
<title>src/gathering/ICollectionEditor.ts&#45;&gt;src/gathering/Pack.ts</title>
<path fill="none" stroke="#000000" stroke-opacity="0.200000" d="M383.24,-328.87C411.01,-325.19 445.66,-320.6 470.53,-317.3"/>
<polygon fill="none" stroke="#000000" stroke-opacity="0.200000" points="470.96,-319.36 476.64,-316.49 470.41,-315.2 470.96,-319.36"/>
</g>
<!-- src/gathering/IPackRepository.ts&#45;&gt;src/gathering/Pack.ts -->
<g id="edge13" class="edge">
<title>src/gathering/IPackRepository.ts&#45;&gt;src/gathering/Pack.ts</title>
<path fill="none" stroke="#000000" stroke-opacity="0.200000" d="M382.8,-297.07C410.76,-300.77 445.81,-305.42 470.84,-308.74"/>
<polygon fill="none" stroke="#000000" stroke-opacity="0.200000" points="470.75,-310.84 476.97,-309.55 471.3,-306.68 470.75,-310.84"/>
</g>
<!-- src/lib/BinderStorage/index.ts -->
<g id="node8" class="node">
<title>src/lib/BinderStorage/index.ts</title>
<g id="a_node8"><a xlink:href="src/lib/BinderStorage/index.ts" xlink:title="index.ts">
<path fill="#ddfeff" stroke="black" d="M238,-200C238,-200 196,-200 196,-200 193,-200 190,-197 190,-194 190,-194 190,-188 190,-188 190,-185 193,-182 196,-182 196,-182 238,-182 238,-182 241,-182 244,-185 244,-188 244,-188 244,-194 244,-194 244,-197 241,-200 238,-200"/>
<text text-anchor="start" x="201" y="-188.8" font-family="Helvetica,sans-Serif" font-size="9.00">index.ts</text>
</a>
</g>
</g>
<!-- src/lib/server/ahdb.cards.json -->
<g id="node9" class="node">
<title>src/lib/server/ahdb.cards.json</title>
<g id="a_node9"><a xlink:href="src/lib/server/ahdb.cards.json" xlink:title="ahdb.cards.json">
<path fill="#ffee44" stroke="black" d="M252.5,-80C252.5,-80 181.5,-80 181.5,-80 178.5,-80 175.5,-77 175.5,-74 175.5,-74 175.5,-68 175.5,-68 175.5,-65 178.5,-62 181.5,-62 181.5,-62 252.5,-62 252.5,-62 255.5,-62 258.5,-65 258.5,-68 258.5,-68 258.5,-74 258.5,-74 258.5,-77 255.5,-80 252.5,-80"/>
<text text-anchor="start" x="183.5" y="-68.8" font-family="Helvetica,sans-Serif" font-size="9.00">ahdb.cards.json</text>
</a>
</g>
</g>
<!-- src/lib/server/ahdb.packs.json -->
<g id="node10" class="node">
<title>src/lib/server/ahdb.packs.json</title>
<g id="a_node10"><a xlink:href="src/lib/server/ahdb.packs.json" xlink:title="ahdb.packs.json">
<path fill="#ffee44" stroke="black" d="M253.5,-50C253.5,-50 180.5,-50 180.5,-50 177.5,-50 174.5,-47 174.5,-44 174.5,-44 174.5,-38 174.5,-38 174.5,-35 177.5,-32 180.5,-32 180.5,-32 253.5,-32 253.5,-32 256.5,-32 259.5,-35 259.5,-38 259.5,-38 259.5,-44 259.5,-44 259.5,-47 256.5,-50 253.5,-50"/>
<text text-anchor="start" x="182.5" y="-38.8" font-family="Helvetica,sans-Serif" font-size="9.00">ahdb.packs.json</text>
</a>
</g>
</g>
<!-- src/lib/server/collection/couz.json -->
<g id="node11" class="node">
<title>src/lib/server/collection/couz.json</title>
<g id="a_node11"><a xlink:href="src/lib/server/collection/couz.json" xlink:title="couz.json">
<path fill="#ffee44" stroke="black" d="M239,-114C239,-114 195,-114 195,-114 192,-114 189,-111 189,-108 189,-108 189,-102 189,-102 189,-99 192,-96 195,-96 195,-96 239,-96 239,-96 242,-96 245,-99 245,-102 245,-102 245,-108 245,-108 245,-111 242,-114 239,-114"/>
<text text-anchor="start" x="197" y="-102.8" font-family="Helvetica,sans-Serif" font-size="9.00">couz.json</text>
</a>
</g>
</g>
<!-- src/routes/collection/couz/+page.server.ts -->
<g id="node12" class="node">
<title>src/routes/collection/couz/+page.server.ts</title>
<g id="a_node12"><a xlink:href="src/routes/collection/couz/+page.server.ts" xlink:title="+page.server.ts">
<path fill="#ddfeff" stroke="black" d="M120.5,-97C120.5,-97 52.5,-97 52.5,-97 49.5,-97 46.5,-94 46.5,-91 46.5,-91 46.5,-85 46.5,-85 46.5,-82 49.5,-79 52.5,-79 52.5,-79 120.5,-79 120.5,-79 123.5,-79 126.5,-82 126.5,-85 126.5,-85 126.5,-91 126.5,-91 126.5,-94 123.5,-97 120.5,-97"/>
<text text-anchor="start" x="54.5" y="-85.8" font-family="Helvetica,sans-Serif" font-size="9.00">+page.server.ts</text>
</a>
</g>
</g>
<!-- src/routes/collection/couz/+page.server.ts&#45;&gt;src/lib/BinderStorage/index.ts -->
<g id="edge14" class="edge">
<title>src/routes/collection/couz/+page.server.ts&#45;&gt;src/lib/BinderStorage/index.ts</title>
<path fill="none" stroke="#000000" stroke-opacity="0.200000" d="M98.9,-97.14C121.71,-115.42 173.01,-156.54 199.49,-177.76"/>
<polygon fill="none" stroke="#000000" stroke-opacity="0.200000" points="198.44,-179.62 204.44,-181.73 201.07,-176.34 198.44,-179.62"/>
</g>
<!-- src/routes/collection/couz/+page.server.ts&#45;&gt;src/lib/server/ahdb.cards.json -->
<g id="edge15" class="edge">
<title>src/routes/collection/couz/+page.server.ts&#45;&gt;src/lib/server/ahdb.cards.json</title>
<path fill="none" stroke="#000000" stroke-width="2" stroke-opacity="0.200000" d="M126.75,-82.81C140.07,-81.05 155.07,-79.06 168.93,-77.23"/>
<polygon fill="#000000" fill-opacity="0.200000" stroke="#000000" stroke-width="2" stroke-opacity="0.200000" points="169.54,-79.27 175.21,-76.4 168.99,-75.1 169.54,-79.27"/>
</g>
<!-- src/routes/collection/couz/+page.server.ts&#45;&gt;src/lib/server/ahdb.packs.json -->
<g id="edge16" class="edge">
<title>src/routes/collection/couz/+page.server.ts&#45;&gt;src/lib/server/ahdb.packs.json</title>
<path fill="none" stroke="#000000" stroke-width="2" stroke-opacity="0.200000" d="M105.25,-78.99C119.41,-72.05 139.89,-62.57 158.5,-56 162.81,-54.48 167.35,-53.04 171.91,-51.69"/>
<polygon fill="#000000" fill-opacity="0.200000" stroke="#000000" stroke-width="2" stroke-opacity="0.200000" points="172.49,-53.7 177.68,-50.03 171.34,-49.67 172.49,-53.7"/>
</g>
<!-- src/routes/collection/couz/+page.server.ts&#45;&gt;src/lib/server/collection/couz.json -->
<g id="edge17" class="edge">
<title>src/routes/collection/couz/+page.server.ts&#45;&gt;src/lib/server/collection/couz.json</title>
<path fill="none" stroke="#000000" stroke-width="2" stroke-opacity="0.200000" d="M126.75,-93.19C144.63,-95.56 165.57,-98.33 182.67,-100.59"/>
<polygon fill="#000000" fill-opacity="0.200000" stroke="#000000" stroke-width="2" stroke-opacity="0.200000" points="182.56,-102.69 188.79,-101.4 183.12,-98.53 182.56,-102.69"/>
</g>
</g>
</svg>
