<?xml version="1.0" encoding="UTF-8" standalone="no"?>
<!DOCTYPE svg PUBLIC "-//W3C//DTD SVG 1.1//EN"
 "http://www.w3.org/Graphics/SVG/1.1/DTD/svg11.dtd">
<!-- Generated by graphviz version 2.50.0 (20211204.2007)
 -->
<!-- Title: dependency&#45;cruiser output Pages: 1 -->
<svg width="860pt" height="568pt"
 viewBox="0.00 0.00 859.50 568.00" xmlns="http://www.w3.org/2000/svg" xmlns:xlink="http://www.w3.org/1999/xlink">
<g id="graph0" class="graph" transform="scale(1 1) rotate(0) translate(4 564)">
<title>dependency&#45;cruiser output</title>
<polygon fill="white" stroke="transparent" points="-4,4 -4,-564 855.5,-564 855.5,4 -4,4"/>
<g id="clust1" class="cluster">
<title>cluster_src</title>
<path fill="#ffffff" stroke="black" stroke-width="2" d="M20,-8C20,-8 831.5,-8 831.5,-8 837.5,-8 843.5,-14 843.5,-20 843.5,-20 843.5,-540 843.5,-540 843.5,-546 837.5,-552 831.5,-552 831.5,-552 20,-552 20,-552 14,-552 8,-546 8,-540 8,-540 8,-20 8,-20 8,-14 14,-8 20,-8"/>
<text text-anchor="middle" x="425.75" y="-540.8" font-family="Helvetica,sans-Serif" font-weight="bold" font-size="9.00">src</text>
</g>
<g id="clust6" class="cluster">
<title>cluster_src/lib</title>
<path fill="#ffffff" stroke="black" stroke-width="2" d="M391,-16C391,-16 516,-16 516,-16 522,-16 528,-22 528,-28 528,-28 528,-90 528,-90 528,-96 522,-102 516,-102 516,-102 391,-102 391,-102 385,-102 379,-96 379,-90 379,-90 379,-28 379,-28 379,-22 385,-16 391,-16"/>
<text text-anchor="middle" x="453.5" y="-90.8" font-family="Helvetica,sans-Serif" font-weight="bold" font-size="9.00">lib</text>
</g>
<g id="clust7" class="cluster">
<title>cluster_src/lib/userEditsItsCollection</title>
<path fill="#ffffff" stroke="black" stroke-width="2" d="M399,-24C399,-24 508,-24 508,-24 514,-24 520,-30 520,-36 520,-36 520,-64 520,-64 520,-70 514,-76 508,-76 508,-76 399,-76 399,-76 393,-76 387,-70 387,-64 387,-64 387,-36 387,-36 387,-30 393,-24 399,-24"/>
<text text-anchor="middle" x="453.5" y="-64.8" font-family="Helvetica,sans-Serif" font-weight="bold" font-size="9.00">userEditsItsCollection</text>
</g>
<g id="clust2" class="cluster">
<title>cluster_src/gathering</title>
<path fill="#ffffff" stroke="black" stroke-width="2" d="M393.5,-302C393.5,-302 823.5,-302 823.5,-302 829.5,-302 835.5,-308 835.5,-314 835.5,-314 835.5,-514 835.5,-514 835.5,-520 829.5,-526 823.5,-526 823.5,-526 393.5,-526 393.5,-526 387.5,-526 381.5,-520 381.5,-514 381.5,-514 381.5,-314 381.5,-314 381.5,-308 387.5,-302 393.5,-302"/>
<text text-anchor="middle" x="608.5" y="-514.8" font-family="Helvetica,sans-Serif" font-weight="bold" font-size="9.00">gathering</text>
</g>
<g id="clust4" class="cluster">
<title>cluster_src/gathering/CollectionEntity</title>
<path fill="#ffffff" stroke="black" stroke-width="2" d="M564.5,-378C564.5,-378 645.5,-378 645.5,-378 651.5,-378 657.5,-384 657.5,-390 657.5,-390 657.5,-418 657.5,-418 657.5,-424 651.5,-430 645.5,-430 645.5,-430 564.5,-430 564.5,-430 558.5,-430 552.5,-424 552.5,-418 552.5,-418 552.5,-390 552.5,-390 552.5,-384 558.5,-378 564.5,-378"/>
<text text-anchor="middle" x="605" y="-418.8" font-family="Helvetica,sans-Serif" font-weight="bold" font-size="9.00">CollectionEntity</text>
</g>
<g id="clust5" class="cluster">
<title>cluster_src/gathering/CollectionLoader</title>
<path fill="#ffffff" stroke="black" stroke-width="2" d="M409,-421C409,-421 498,-421 498,-421 504,-421 510,-427 510,-433 510,-433 510,-461 510,-461 510,-467 504,-473 498,-473 498,-473 409,-473 409,-473 403,-473 397,-467 397,-461 397,-461 397,-433 397,-433 397,-427 403,-421 409,-421"/>
<text text-anchor="middle" x="453.5" y="-461.8" font-family="Helvetica,sans-Serif" font-weight="bold" font-size="9.00">CollectionLoader</text>
</g>
<g id="clust3" class="cluster">
<title>cluster_src/gathering/CollectionEditor</title>
<path fill="#ffffff" stroke="black" stroke-width="2" d="M401.5,-322C401.5,-322 505.5,-322 505.5,-322 511.5,-322 517.5,-328 517.5,-334 517.5,-334 517.5,-392 517.5,-392 517.5,-398 511.5,-404 505.5,-404 505.5,-404 401.5,-404 401.5,-404 395.5,-404 389.5,-398 389.5,-392 389.5,-392 389.5,-334 389.5,-334 389.5,-328 395.5,-322 401.5,-322"/>
<text text-anchor="middle" x="453.5" y="-392.8" font-family="Helvetica,sans-Serif" font-weight="bold" font-size="9.00">CollectionEditor</text>
</g>
<g id="clust8" class="cluster">
<title>cluster_src/routes</title>
<path fill="#ffffff" stroke="black" stroke-width="2" d="M28,-110C28,-110 532.5,-110 532.5,-110 538.5,-110 544.5,-116 544.5,-122 544.5,-122 544.5,-282 544.5,-282 544.5,-288 538.5,-294 532.5,-294 532.5,-294 28,-294 28,-294 22,-294 16,-288 16,-282 16,-282 16,-122 16,-122 16,-116 22,-110 28,-110"/>
<text text-anchor="middle" x="280.25" y="-282.8" font-family="Helvetica,sans-Serif" font-weight="bold" font-size="9.00">routes</text>
</g>
<g id="clust9" class="cluster">
<title>cluster_src/routes/collection</title>
<path fill="#ffffff" stroke="black" stroke-width="2" d="M36,-118C36,-118 524.5,-118 524.5,-118 530.5,-118 536.5,-124 536.5,-130 536.5,-130 536.5,-256 536.5,-256 536.5,-262 530.5,-268 524.5,-268 524.5,-268 36,-268 36,-268 30,-268 24,-262 24,-256 24,-256 24,-130 24,-130 24,-124 30,-118 36,-118"/>
<text text-anchor="middle" x="280.25" y="-256.8" font-family="Helvetica,sans-Serif" font-weight="bold" font-size="9.00">collection</text>
</g>
<g id="clust10" class="cluster">
<title>cluster_src/routes/collection/edit</title>
<path fill="#ffffff" stroke="black" stroke-width="2" d="M44,-126C44,-126 516.5,-126 516.5,-126 522.5,-126 528.5,-132 528.5,-138 528.5,-138 528.5,-230 528.5,-230 528.5,-236 522.5,-242 516.5,-242 516.5,-242 44,-242 44,-242 38,-242 32,-236 32,-230 32,-230 32,-138 32,-138 32,-132 38,-126 44,-126"/>
<text text-anchor="middle" x="280.25" y="-230.8" font-family="Helvetica,sans-Serif" font-weight="bold" font-size="9.00">edit</text>
</g>
<g id="clust11" class="cluster">
<title>cluster_src/routes/collection/edit/PacksBundle</title>
<path fill="#ffffff" stroke="black" stroke-width="2" d="M139,-134C139,-134 508.5,-134 508.5,-134 514.5,-134 520.5,-140 520.5,-146 520.5,-146 520.5,-204 520.5,-204 520.5,-210 514.5,-216 508.5,-216 508.5,-216 139,-216 139,-216 133,-216 127,-210 127,-204 127,-204 127,-146 127,-146 127,-140 133,-134 139,-134"/>
<text text-anchor="middle" x="323.75" y="-204.8" font-family="Helvetica,sans-Serif" font-weight="bold" font-size="9.00">PacksBundle</text>
</g>
<!-- src/gathering/Collection.ts -->
<g id="node1" class="node">
<title>src/gathering/Collection.ts</title>
<g id="a_node1"><a xlink:href="src/gathering/Collection.ts" xlink:title="Collection.ts">
<path fill="#ddfeff" stroke="black" d="M742,-467C742,-467 686,-467 686,-467 683,-467 680,-464 680,-461 680,-461 680,-455 680,-455 680,-452 683,-449 686,-449 686,-449 742,-449 742,-449 745,-449 748,-452 748,-455 748,-455 748,-461 748,-461 748,-464 745,-467 742,-467"/>
<text text-anchor="start" x="688" y="-455.8" font-family="Helvetica,sans-Serif" font-size="9.00">Collection.ts</text>
</a>
</g>
</g>
<!-- src/gathering/Pack.ts -->
<g id="node2" class="node">
<title>src/gathering/Pack.ts</title>
<g id="a_node2"><a xlink:href="src/gathering/Pack.ts" xlink:title="Pack.ts">
<path fill="#ddfeff" stroke="black" d="M821.5,-375C821.5,-375 779.5,-375 779.5,-375 776.5,-375 773.5,-372 773.5,-369 773.5,-369 773.5,-363 773.5,-363 773.5,-360 776.5,-357 779.5,-357 779.5,-357 821.5,-357 821.5,-357 824.5,-357 827.5,-360 827.5,-363 827.5,-363 827.5,-369 827.5,-369 827.5,-372 824.5,-375 821.5,-375"/>
<text text-anchor="start" x="785" y="-363.8" font-family="Helvetica,sans-Serif" font-size="9.00">Pack.ts</text>
</a>
</g>
</g>
<!-- src/gathering/Collection.ts&#45;&gt;src/gathering/Pack.ts -->
<g id="edge1" class="edge">
<title>src/gathering/Collection.ts&#45;&gt;src/gathering/Pack.ts</title>
<path fill="none" stroke="#000000" stroke-opacity="0.200000" d="M723.41,-448.84C738.34,-432.59 769.55,-398.61 787,-379.61"/>
<polygon fill="none" stroke="#000000" stroke-opacity="0.200000" points="788.61,-380.96 791.12,-375.12 785.52,-378.12 788.61,-380.96"/>
</g>
<!-- src/gathering/CollectionEditor/CollectionEditor.ts -->
<g id="node3" class="node">
<title>src/gathering/CollectionEditor/CollectionEditor.ts</title>
<g id="a_node3"><a xlink:href="src/gathering/CollectionEditor/CollectionEditor.ts" xlink:title="CollectionEditor.ts">
<path fill="#ddfeff" stroke="black" d="M493.5,-348C493.5,-348 413.5,-348 413.5,-348 410.5,-348 407.5,-345 407.5,-342 407.5,-342 407.5,-336 407.5,-336 407.5,-333 410.5,-330 413.5,-330 413.5,-330 493.5,-330 493.5,-330 496.5,-330 499.5,-333 499.5,-336 499.5,-336 499.5,-342 499.5,-342 499.5,-345 496.5,-348 493.5,-348"/>
<text text-anchor="start" x="415.5" y="-336.8" font-family="Helvetica,sans-Serif" font-size="9.00">CollectionEditor.ts</text>
</a>
</g>
</g>
<!-- src/gathering/CollectionEditor/CollectionEditor.ts&#45;&gt;src/gathering/Pack.ts -->
<g id="edge4" class="edge">
<title>src/gathering/CollectionEditor/CollectionEditor.ts&#45;&gt;src/gathering/Pack.ts</title>
<path fill="none" stroke="#000000" stroke-opacity="0.200000" d="M499.59,-339.29C559.48,-340.21 668.45,-343.77 760.5,-357 762.69,-357.32 764.94,-357.69 767.2,-358.11"/>
<polygon fill="none" stroke="#000000" stroke-opacity="0.200000" points="766.89,-360.19 773.18,-359.29 767.7,-356.07 766.89,-360.19"/>
</g>
<!-- src/gathering/ICollectionEditor.ts -->
<g id="node4" class="node">
<title>src/gathering/ICollectionEditor.ts</title>
<g id="a_node4"><a xlink:href="src/gathering/ICollectionEditor.ts" xlink:title="ICollectionEditor.ts">
<path fill="#ddfeff" stroke="black" d="M646,-328C646,-328 564,-328 564,-328 561,-328 558,-325 558,-322 558,-322 558,-316 558,-316 558,-313 561,-310 564,-310 564,-310 646,-310 646,-310 649,-310 652,-313 652,-316 652,-316 652,-322 652,-322 652,-325 649,-328 646,-328"/>
<text text-anchor="start" x="566" y="-316.8" font-family="Helvetica,sans-Serif" font-size="9.00">ICollectionEditor.ts</text>
</a>
</g>
</g>
<!-- src/gathering/CollectionEditor/CollectionEditor.ts&#45;&gt;src/gathering/ICollectionEditor.ts -->
<g id="edge2" class="edge">
<title>src/gathering/CollectionEditor/CollectionEditor.ts&#45;&gt;src/gathering/ICollectionEditor.ts</title>
<path fill="none" stroke="#000000" stroke-opacity="0.200000" d="M499.76,-332.95C516.14,-330.75 534.77,-328.26 551.7,-326"/>
<polygon fill="none" stroke="#000000" stroke-opacity="0.200000" points="552.19,-328.05 557.86,-325.17 551.63,-323.89 552.19,-328.05"/>
</g>
<!-- src/gathering/ICollectionOutput.ts -->
<g id="node5" class="node">
<title>src/gathering/ICollectionOutput.ts</title>
<g id="a_node5"><a xlink:href="src/gathering/ICollectionOutput.ts" xlink:title="ICollectionOutput.ts">
<path fill="#ddfeff" stroke="black" d="M647.5,-456C647.5,-456 562.5,-456 562.5,-456 559.5,-456 556.5,-453 556.5,-450 556.5,-450 556.5,-444 556.5,-444 556.5,-441 559.5,-438 562.5,-438 562.5,-438 647.5,-438 647.5,-438 650.5,-438 653.5,-441 653.5,-444 653.5,-444 653.5,-450 653.5,-450 653.5,-453 650.5,-456 647.5,-456"/>
<text text-anchor="start" x="564.5" y="-444.8" font-family="Helvetica,sans-Serif" font-size="9.00">ICollectionOutput.ts</text>
</a>
</g>
</g>
<!-- src/gathering/CollectionEditor/CollectionEditor.ts&#45;&gt;src/gathering/ICollectionOutput.ts -->
<g id="edge3" class="edge">
<title>src/gathering/CollectionEditor/CollectionEditor.ts&#45;&gt;src/gathering/ICollectionOutput.ts</title>
<path fill="none" stroke="#000000" stroke-opacity="0.200000" d="M499.62,-335.84C515.94,-337.16 533.12,-341.87 544.5,-354 556.57,-366.87 541.09,-419.54 552.5,-433 552.69,-433.23 552.89,-433.46 553.09,-433.68"/>
<polygon fill="none" stroke="#000000" stroke-opacity="0.200000" points="551.89,-435.42 557.76,-437.85 554.69,-432.29 551.89,-435.42"/>
</g>
<!-- src/gathering/ICollectionEditor.ts&#45;&gt;src/gathering/Pack.ts -->
<g id="edge13" class="edge">
<title>src/gathering/ICollectionEditor.ts&#45;&gt;src/gathering/Pack.ts</title>
<path fill="none" stroke="#000000" stroke-opacity="0.200000" d="M652.14,-318.19C683.67,-319.1 725.86,-323.26 760.5,-337 769.5,-340.57 778.27,-346.77 785.2,-352.52"/>
<polygon fill="none" stroke="#000000" stroke-opacity="0.200000" points="784.21,-354.44 790.12,-356.78 786.96,-351.26 784.21,-354.44"/>
</g>
<!-- src/gathering/ICollectionOutput.ts&#45;&gt;src/gathering/Collection.ts -->
<g id="edge15" class="edge">
<title>src/gathering/ICollectionOutput.ts&#45;&gt;src/gathering/Collection.ts</title>
<path fill="none" stroke="#000000" stroke-opacity="0.200000" d="M653.55,-451.89C660.17,-452.57 666.91,-453.26 673.35,-453.92"/>
<polygon fill="none" stroke="#000000" stroke-opacity="0.200000" points="673.51,-456.05 679.69,-454.58 673.94,-451.87 673.51,-456.05"/>
</g>
<!-- src/gathering/CollectionEditor/PackRepositoryMock.ts -->
<g id="node6" class="node">
<title>src/gathering/CollectionEditor/PackRepositoryMock.ts</title>
<g id="a_node6"><a xlink:href="src/gathering/CollectionEditor/PackRepositoryMock.ts" xlink:title="PackRepositoryMock.ts">
<path fill="#ddfeff" stroke="black" d="M503.5,-378C503.5,-378 403.5,-378 403.5,-378 400.5,-378 397.5,-375 397.5,-372 397.5,-372 397.5,-366 397.5,-366 397.5,-363 400.5,-360 403.5,-360 403.5,-360 503.5,-360 503.5,-360 506.5,-360 509.5,-363 509.5,-366 509.5,-366 509.5,-372 509.5,-372 509.5,-375 506.5,-378 503.5,-378"/>
<text text-anchor="start" x="405.5" y="-366.8" font-family="Helvetica,sans-Serif" font-size="9.00">PackRepositoryMock.ts</text>
</a>
</g>
</g>
<!-- src/gathering/CollectionEditor/PackRepositoryMock.ts&#45;&gt;src/gathering/Pack.ts -->
<g id="edge6" class="edge">
<title>src/gathering/CollectionEditor/PackRepositoryMock.ts&#45;&gt;src/gathering/Pack.ts</title>
<path fill="none" stroke="#000000" stroke-opacity="0.200000" d="M509.54,-365.29C570.82,-361.74 672.8,-357.51 760.5,-362 762.54,-362.1 764.64,-362.24 766.75,-362.4"/>
<polygon fill="none" stroke="#000000" stroke-opacity="0.200000" points="766.94,-364.52 773.09,-362.92 767.29,-360.33 766.94,-364.52"/>
</g>
<!-- src/gathering/IPackRepository.ts -->
<g id="node7" class="node">
<title>src/gathering/IPackRepository.ts</title>
<g id="a_node7"><a xlink:href="src/gathering/IPackRepository.ts" xlink:title="IPackRepository.ts">
<path fill="#ddfeff" stroke="black" d="M754.5,-386C754.5,-386 673.5,-386 673.5,-386 670.5,-386 667.5,-383 667.5,-380 667.5,-380 667.5,-374 667.5,-374 667.5,-371 670.5,-368 673.5,-368 673.5,-368 754.5,-368 754.5,-368 757.5,-368 760.5,-371 760.5,-374 760.5,-374 760.5,-380 760.5,-380 760.5,-383 757.5,-386 754.5,-386"/>
<text text-anchor="start" x="675.5" y="-374.8" font-family="Helvetica,sans-Serif" font-size="9.00">IPackRepository.ts</text>
</a>
</g>
</g>
<!-- src/gathering/CollectionEditor/PackRepositoryMock.ts&#45;&gt;src/gathering/IPackRepository.ts -->
<g id="edge5" class="edge">
<title>src/gathering/CollectionEditor/PackRepositoryMock.ts&#45;&gt;src/gathering/IPackRepository.ts</title>
<path fill="none" stroke="#000000" stroke-opacity="0.200000" d="M509.64,-370.53C550.47,-371.69 607.46,-373.36 657.5,-375 658.69,-375.04 659.9,-375.08 661.12,-375.12"/>
<polygon fill="none" stroke="#000000" stroke-opacity="0.200000" points="661.2,-377.22 667.27,-375.33 661.34,-373.03 661.2,-377.22"/>
</g>
<!-- src/gathering/IPackRepository.ts&#45;&gt;src/gathering/Pack.ts -->
<g id="edge16" class="edge">
<title>src/gathering/IPackRepository.ts&#45;&gt;src/gathering/Pack.ts</title>
<path fill="none" stroke="#000000" stroke-opacity="0.200000" d="M760.71,-371.05C762.89,-370.77 765.06,-370.48 767.18,-370.21"/>
<polygon fill="none" stroke="#000000" stroke-opacity="0.200000" points="767.76,-372.25 773.44,-369.39 767.22,-368.08 767.76,-372.25"/>
</g>
<!-- src/gathering/CollectionEntity/CollectionEntity.ts -->
<g id="node8" class="node">
<title>src/gathering/CollectionEntity/CollectionEntity.ts</title>
<g id="a_node8"><a xlink:href="src/gathering/CollectionEntity/CollectionEntity.ts" xlink:title="CollectionEntity.ts">
<path fill="#ddfeff" stroke="black" d="M643.5,-404C643.5,-404 566.5,-404 566.5,-404 563.5,-404 560.5,-401 560.5,-398 560.5,-398 560.5,-392 560.5,-392 560.5,-389 563.5,-386 566.5,-386 566.5,-386 643.5,-386 643.5,-386 646.5,-386 649.5,-389 649.5,-392 649.5,-392 649.5,-398 649.5,-398 649.5,-401 646.5,-404 643.5,-404"/>
<text text-anchor="start" x="568.5" y="-392.8" font-family="Helvetica,sans-Serif" font-size="9.00">CollectionEntity.ts</text>
</a>
</g>
</g>
<!-- src/gathering/CollectionEntity/CollectionEntity.ts&#45;&gt;src/gathering/Pack.ts -->
<g id="edge8" class="edge">
<title>src/gathering/CollectionEntity/CollectionEntity.ts&#45;&gt;src/gathering/Pack.ts</title>
<path fill="none" stroke="#000000" stroke-opacity="0.200000" d="M649.67,-400.58C681.2,-403.07 724.4,-403.31 760.5,-392 769.16,-389.28 777.68,-384 784.54,-378.9"/>
<polygon fill="none" stroke="#000000" stroke-opacity="0.200000" points="785.99,-380.43 789.43,-375.08 783.41,-377.11 785.99,-380.43"/>
</g>
<!-- src/gathering/CollectionEntity/CollectionEntity.ts&#45;&gt;src/gathering/IPackRepository.ts -->
<g id="edge7" class="edge">
<title>src/gathering/CollectionEntity/CollectionEntity.ts&#45;&gt;src/gathering/IPackRepository.ts</title>
<path fill="none" stroke="#000000" stroke-opacity="0.200000" d="M649.52,-387.68C653.39,-387.03 657.34,-386.36 661.27,-385.7"/>
<polygon fill="none" stroke="#000000" stroke-opacity="0.200000" points="661.86,-387.73 667.43,-384.67 661.16,-383.59 661.86,-387.73"/>
</g>
<!-- src/gathering/CollectionLoader/CollectionLoader.ts -->
<g id="node9" class="node">
<title>src/gathering/CollectionLoader/CollectionLoader.ts</title>
<g id="a_node9"><a xlink:href="src/gathering/CollectionLoader/CollectionLoader.ts" xlink:title="CollectionLoader.ts">
<path fill="#ddfeff" stroke="black" d="M496,-447C496,-447 411,-447 411,-447 408,-447 405,-444 405,-441 405,-441 405,-435 405,-435 405,-432 408,-429 411,-429 411,-429 496,-429 496,-429 499,-429 502,-432 502,-435 502,-435 502,-441 502,-441 502,-444 499,-447 496,-447"/>
<text text-anchor="start" x="413" y="-435.8" font-family="Helvetica,sans-Serif" font-size="9.00">CollectionLoader.ts</text>
</a>
</g>
</g>
<!-- src/gathering/CollectionLoader/CollectionLoader.ts&#45;&gt;src/gathering/Collection.ts -->
<g id="edge9" class="edge">
<title>src/gathering/CollectionLoader/CollectionLoader.ts&#45;&gt;src/gathering/Collection.ts</title>
<path fill="none" stroke="#000000" stroke-opacity="0.200000" d="M502.21,-437.88C516.61,-439.63 531.93,-443.42 544.5,-451 549.68,-454.12 547.11,-459.26 552.5,-462 594.09,-483.18 610.86,-463.68 657.5,-462 662.7,-461.81 668.18,-461.53 673.58,-461.19"/>
<polygon fill="none" stroke="#000000" stroke-opacity="0.200000" points="674.01,-463.27 679.86,-460.78 673.73,-459.08 674.01,-463.27"/>
</g>
<!-- src/gathering/CollectionLoader/CollectionLoader.ts&#45;&gt;src/gathering/ICollectionEditor.ts -->
<g id="edge10" class="edge">
<title>src/gathering/CollectionLoader/CollectionLoader.ts&#45;&gt;src/gathering/ICollectionEditor.ts</title>
<path fill="none" stroke="#000000" stroke-opacity="0.200000" d="M502.06,-430.93C517.48,-426.43 533.44,-419.06 544.5,-407 554.41,-396.19 545.55,-387.91 552.5,-375 561.49,-358.31 576.58,-342.74 588.11,-332.27"/>
<polygon fill="none" stroke="#000000" stroke-opacity="0.200000" points="589.71,-333.66 592.81,-328.11 586.93,-330.52 589.71,-333.66"/>
</g>
<!-- src/gathering/CollectionLoader/CollectionLoader.ts&#45;&gt;src/gathering/ICollectionOutput.ts -->
<g id="edge12" class="edge">
<title>src/gathering/CollectionLoader/CollectionLoader.ts&#45;&gt;src/gathering/ICollectionOutput.ts</title>
<path fill="none" stroke="#000000" stroke-opacity="0.200000" d="M502.21,-440.87C517.53,-441.79 534.59,-442.82 550.3,-443.77"/>
<polygon fill="none" stroke="#000000" stroke-opacity="0.200000" points="550.37,-445.88 556.48,-444.14 550.62,-441.68 550.37,-445.88"/>
</g>
<!-- src/gathering/ICollectionLoader.ts -->
<g id="node10" class="node">
<title>src/gathering/ICollectionLoader.ts</title>
<g id="a_node10"><a xlink:href="src/gathering/ICollectionLoader.ts" xlink:title="ICollectionLoader.ts">
<path fill="#ddfeff" stroke="black" d="M648.5,-500C648.5,-500 561.5,-500 561.5,-500 558.5,-500 555.5,-497 555.5,-494 555.5,-494 555.5,-488 555.5,-488 555.5,-485 558.5,-482 561.5,-482 561.5,-482 648.5,-482 648.5,-482 651.5,-482 654.5,-485 654.5,-488 654.5,-488 654.5,-494 654.5,-494 654.5,-497 651.5,-500 648.5,-500"/>
<text text-anchor="start" x="563.5" y="-488.8" font-family="Helvetica,sans-Serif" font-size="9.00">ICollectionLoader.ts</text>
</a>
</g>
</g>
<!-- src/gathering/CollectionLoader/CollectionLoader.ts&#45;&gt;src/gathering/ICollectionLoader.ts -->
<g id="edge11" class="edge">
<title>src/gathering/CollectionLoader/CollectionLoader.ts&#45;&gt;src/gathering/ICollectionLoader.ts</title>
<path fill="none" stroke="#000000" stroke-opacity="0.200000" d="M502.24,-435.68C517.15,-437.22 532.74,-441.44 544.5,-451 552.57,-457.56 545.1,-465.69 552.5,-473 554.7,-475.17 557.18,-477.09 559.83,-478.77"/>
<polygon fill="none" stroke="#000000" stroke-opacity="0.200000" points="559.2,-480.82 565.46,-481.91 561.24,-477.15 559.2,-480.82"/>
</g>
<!-- src/gathering/ICollectionLoader.ts&#45;&gt;src/gathering/Collection.ts -->
<g id="edge14" class="edge">
<title>src/gathering/ICollectionLoader.ts&#45;&gt;src/gathering/Collection.ts</title>
<path fill="none" stroke="#000000" stroke-opacity="0.200000" d="M635.24,-481.98C648.45,-477.91 664.16,-473.06 678,-468.8"/>
<polygon fill="none" stroke="#000000" stroke-opacity="0.200000" points="678.68,-470.78 683.8,-467.01 677.44,-466.77 678.68,-470.78"/>
</g>
<!-- src/lib/userEditsItsCollection/userEditsItsCollection.ts -->
<g id="node11" class="node">
<title>src/lib/userEditsItsCollection/userEditsItsCollection.ts</title>
<g id="a_node11"><a xlink:href="src/lib/userEditsItsCollection/userEditsItsCollection.ts" xlink:title="userEditsItsCollection.ts">
<path fill="#ddfeff" stroke="black" d="M506,-50C506,-50 401,-50 401,-50 398,-50 395,-47 395,-44 395,-44 395,-38 395,-38 395,-35 398,-32 401,-32 401,-32 506,-32 506,-32 509,-32 512,-35 512,-38 512,-38 512,-44 512,-44 512,-47 509,-50 506,-50"/>
<text text-anchor="start" x="403" y="-38.8" font-family="Helvetica,sans-Serif" font-size="9.00">userEditsItsCollection.ts</text>
</a>
</g>
</g>
<!-- src/lib/userEditsItsCollection/userEditsItsCollection.ts&#45;&gt;src/gathering/Collection.ts -->
<g id="edge17" class="edge">
<title>src/lib/userEditsItsCollection/userEditsItsCollection.ts&#45;&gt;src/gathering/Collection.ts</title>
<path fill="none" stroke="#000000" stroke-opacity="0.200000" d="M464.91,-50.1C482.44,-65.69 518.45,-98.92 544.5,-131 602.39,-202.29 626.36,-217.6 657.5,-304 670.84,-341.03 653.69,-355.14 667.5,-392 674.91,-411.79 689.54,-431.32 700.21,-443.94"/>
<polygon fill="none" stroke="#000000" stroke-opacity="0.200000" points="698.72,-445.42 704.23,-448.59 701.89,-442.67 698.72,-445.42"/>
</g>
<!-- src/lib/userEditsItsCollection/userEditsItsCollection.ts&#45;&gt;src/gathering/ICollectionEditor.ts -->
<g id="edge18" class="edge">
<title>src/lib/userEditsItsCollection/userEditsItsCollection.ts&#45;&gt;src/gathering/ICollectionEditor.ts</title>
<path fill="none" stroke="#000000" stroke-opacity="0.200000" d="M467.67,-50.06C487.72,-64.63 525.58,-95.26 544.5,-131 553.39,-147.79 547.55,-154.65 552.5,-173 565.73,-222.01 587.47,-278.17 597.96,-304.25"/>
<polygon fill="none" stroke="#000000" stroke-opacity="0.200000" points="596.06,-305.15 600.26,-309.93 599.95,-303.58 596.06,-305.15"/>
</g>
<!-- src/lib/userEditsItsCollection/userEditsItsCollection.ts&#45;&gt;src/gathering/ICollectionOutput.ts -->
<g id="edge19" class="edge">
<title>src/lib/userEditsItsCollection/userEditsItsCollection.ts&#45;&gt;src/gathering/ICollectionOutput.ts</title>
<path fill="none" stroke="#000000" stroke-opacity="0.200000" d="M469.08,-50.19C490.26,-64.48 528.71,-94.25 544.5,-131 551.13,-146.42 542.13,-419.8 552.5,-433 552.69,-433.24 552.88,-433.47 553.07,-433.7"/>
<polygon fill="none" stroke="#000000" stroke-opacity="0.200000" points="551.79,-435.38 557.59,-437.99 554.68,-432.34 551.79,-435.38"/>
</g>
<!-- src/routes/collection/edit/+page.svelte.ts -->
<g id="node12" class="node">
<title>src/routes/collection/edit/+page.svelte.ts</title>
<g id="a_node12"><a xlink:href="src/routes/collection/edit/+page.svelte.ts" xlink:title="+page.svelte.ts">
<path fill="#ddfeff" stroke="black" d="M113,-188C113,-188 46,-188 46,-188 43,-188 40,-185 40,-182 40,-182 40,-176 40,-176 40,-173 43,-170 46,-170 46,-170 113,-170 113,-170 116,-170 119,-173 119,-176 119,-176 119,-182 119,-182 119,-185 116,-188 113,-188"/>
<text text-anchor="start" x="48" y="-176.8" font-family="Helvetica,sans-Serif" font-size="9.00">+page.svelte.ts</text>
</a>
</g>
</g>
<!-- src/routes/collection/edit/+page.svelte.ts&#45;&gt;src/gathering/Collection.ts -->
<g id="edge21" class="edge">
<title>src/routes/collection/edit/+page.svelte.ts&#45;&gt;src/gathering/Collection.ts</title>
<path fill="none" stroke="#000000" stroke-opacity="0.200000" d="M82.09,-188.28C91.92,-242.23 149.38,-513 312,-513 312,-513 312,-513 454.5,-513 544.78,-513 573.46,-538.96 657.5,-506 675.56,-498.92 691.77,-483.28 701.94,-471.77"/>
<polygon fill="none" stroke="#000000" stroke-opacity="0.200000" points="703.61,-473.05 705.92,-467.13 700.42,-470.32 703.61,-473.05"/>
</g>
<!-- src/routes/collection/edit/+page.svelte.ts&#45;&gt;src/gathering/ICollectionOutput.ts -->
<g id="edge22" class="edge">
<title>src/routes/collection/edit/+page.svelte.ts&#45;&gt;src/gathering/ICollectionOutput.ts</title>
<path fill="none" stroke="#000000" stroke-opacity="0.200000" d="M85.88,-188.25C111.59,-231.38 226.96,-413.25 379,-476 446.99,-504.06 472.83,-492.54 544.5,-476 558.74,-472.71 573.52,-465.54 584.78,-459.14"/>
<polygon fill="none" stroke="#000000" stroke-opacity="0.200000" points="585.89,-460.93 590.01,-456.09 583.77,-457.3 585.89,-460.93"/>
</g>
<!-- src/routes/collection/edit/+page.svelte.ts&#45;&gt;src/lib/userEditsItsCollection/userEditsItsCollection.ts -->
<g id="edge23" class="edge">
<title>src/routes/collection/edit/+page.svelte.ts&#45;&gt;src/lib/userEditsItsCollection/userEditsItsCollection.ts</title>
<path fill="none" stroke="#000000" stroke-width="2" stroke-opacity="0.200000" d="M87.54,-169.84C95.99,-159.35 111.02,-142.17 127,-131 206.41,-75.48 318.94,-54.14 388.74,-45.98"/>
<polygon fill="#000000" fill-opacity="0.200000" stroke="#000000" stroke-width="2" stroke-opacity="0.200000" points="389.22,-48.04 394.94,-45.28 388.74,-43.87 389.22,-48.04"/>
</g>
<!-- src/routes/collection/edit/PacksBundle/PacksBundle.svelte.ts -->
<g id="node13" class="node">
<title>src/routes/collection/edit/PacksBundle/PacksBundle.svelte.ts</title>
<g id="a_node13"><a xlink:href="src/routes/collection/edit/PacksBundle/PacksBundle.svelte.ts" xlink:title="PacksBundle.svelte.ts">
<path fill="#ddfeff" stroke="black" d="M236,-160C236,-160 141,-160 141,-160 138,-160 135,-157 135,-154 135,-154 135,-148 135,-148 135,-145 138,-142 141,-142 141,-142 236,-142 236,-142 239,-142 242,-145 242,-148 242,-148 242,-154 242,-154 242,-157 239,-160 236,-160"/>
<text text-anchor="start" x="143" y="-148.8" font-family="Helvetica,sans-Serif" font-size="9.00">PacksBundle.svelte.ts</text>
</a>
</g>
</g>
<!-- src/routes/collection/edit/+page.svelte.ts&#45;&gt;src/routes/collection/edit/PacksBundle/PacksBundle.svelte.ts -->
<g id="edge20" class="edge">
<title>src/routes/collection/edit/+page.svelte.ts&#45;&gt;src/routes/collection/edit/PacksBundle/PacksBundle.svelte.ts</title>
<path fill="none" stroke="#000000" stroke-width="2" stroke-opacity="0.200000" d="M114.94,-169.99C125.06,-167.34 136.21,-164.42 146.68,-161.68"/>
<polygon fill="#000000" fill-opacity="0.200000" stroke="#000000" stroke-width="2" stroke-opacity="0.200000" points="147.48,-163.64 152.75,-160.09 146.42,-159.58 147.48,-163.64"/>
</g>
<!-- src/routes/collection/edit/PacksBundle/PacksBundle.svelte.ts&#45;&gt;src/lib/userEditsItsCollection/userEditsItsCollection.ts -->
<g id="edge28" class="edge">
<title>src/routes/collection/edit/PacksBundle/PacksBundle.svelte.ts&#45;&gt;src/lib/userEditsItsCollection/userEditsItsCollection.ts</title>
<path fill="none" stroke="#000000" stroke-opacity="0.200000" d="M211.02,-142C258.51,-122.14 372.21,-74.58 424.87,-52.56"/>
<polygon fill="none" stroke="#000000" stroke-opacity="0.200000" points="425.96,-54.38 430.68,-50.13 424.33,-50.5 425.96,-54.38"/>
</g>
<!-- src/routes/collection/edit/PacksBundle/CollectiblePack.svelte.ts -->
<g id="node14" class="node">
<title>src/routes/collection/edit/PacksBundle/CollectiblePack.svelte.ts</title>
<g id="a_node14"><a xlink:href="src/routes/collection/edit/PacksBundle/CollectiblePack.svelte.ts" xlink:title="CollectiblePack.svelte.ts">
<path fill="#ddfeff" stroke="black" d="M365,-160C365,-160 261,-160 261,-160 258,-160 255,-157 255,-154 255,-154 255,-148 255,-148 255,-145 258,-142 261,-142 261,-142 365,-142 365,-142 368,-142 371,-145 371,-148 371,-148 371,-154 371,-154 371,-157 368,-160 365,-160"/>
<text text-anchor="start" x="263" y="-148.8" font-family="Helvetica,sans-Serif" font-size="9.00">CollectiblePack.svelte.ts</text>
</a>
</g>
</g>
<!-- src/routes/collection/edit/PacksBundle/PacksBundle.svelte.ts&#45;&gt;src/routes/collection/edit/PacksBundle/CollectiblePack.svelte.ts -->
<g id="edge27" class="edge">
<title>src/routes/collection/edit/PacksBundle/PacksBundle.svelte.ts&#45;&gt;src/routes/collection/edit/PacksBundle/CollectiblePack.svelte.ts</title>
<path fill="none" stroke="#000000" stroke-width="2" stroke-opacity="0.200000" d="M242.16,-151C244.24,-151 246.33,-151 248.42,-151"/>
<polygon fill="#000000" fill-opacity="0.200000" stroke="#000000" stroke-width="2" stroke-opacity="0.200000" points="248.7,-153.1 254.7,-151 248.7,-148.9 248.7,-153.1"/>
</g>
<!-- src/routes/collection/edit/PacksBundle/CollectiblePack.svelte.ts&#45;&gt;src/lib/userEditsItsCollection/userEditsItsCollection.ts -->
<g id="edge26" class="edge">
<title>src/routes/collection/edit/PacksBundle/CollectiblePack.svelte.ts&#45;&gt;src/lib/userEditsItsCollection/userEditsItsCollection.ts</title>
<path fill="none" stroke="#000000" stroke-opacity="0.200000" d="M329.44,-141.88C341.16,-134.74 357.51,-124.32 371,-114 396.16,-94.75 423.12,-69.61 438.86,-54.41"/>
<polygon fill="none" stroke="#000000" stroke-opacity="0.200000" points="440.53,-55.72 443.37,-50.04 437.61,-52.71 440.53,-55.72"/>
</g>
<!-- src/routes/collection/edit/PacksBundle/arrow&#45;down.svg.svelte.ts -->
<g id="node15" class="node">
<title>src/routes/collection/edit/PacksBundle/arrow&#45;down.svg.svelte.ts</title>
<g id="a_node15"><a xlink:href="src/routes/collection/edit/PacksBundle/arrow-down.svg.svelte.ts" xlink:title="arrow&#45;down.svg.svelte.ts">
<path fill="#ddfeff" stroke="black" d="M506.5,-160C506.5,-160 400.5,-160 400.5,-160 397.5,-160 394.5,-157 394.5,-154 394.5,-154 394.5,-148 394.5,-148 394.5,-145 397.5,-142 400.5,-142 400.5,-142 506.5,-142 506.5,-142 509.5,-142 512.5,-145 512.5,-148 512.5,-148 512.5,-154 512.5,-154 512.5,-157 509.5,-160 506.5,-160"/>
<text text-anchor="start" x="402.5" y="-148.8" font-family="Helvetica,sans-Serif" font-size="9.00">arrow&#45;down.svg.svelte.ts</text>
</a>
</g>
</g>
<!-- src/routes/collection/edit/PacksBundle/CollectiblePack.svelte.ts&#45;&gt;src/routes/collection/edit/PacksBundle/arrow&#45;down.svg.svelte.ts -->
<g id="edge24" class="edge">
<title>src/routes/collection/edit/PacksBundle/CollectiblePack.svelte.ts&#45;&gt;src/routes/collection/edit/PacksBundle/arrow&#45;down.svg.svelte.ts</title>
<path fill="none" stroke="#000000" stroke-width="2" stroke-opacity="0.200000" d="M371.13,-151C376.71,-151 382.4,-151 388.05,-151"/>
<polygon fill="#000000" fill-opacity="0.200000" stroke="#000000" stroke-width="2" stroke-opacity="0.200000" points="388.16,-153.1 394.16,-151 388.16,-148.9 388.16,-153.1"/>
</g>
<!-- src/routes/collection/edit/PacksBundle/arrow&#45;up.svg.svelte.ts -->
<g id="node16" class="node">
<title>src/routes/collection/edit/PacksBundle/arrow&#45;up.svg.svelte.ts</title>
<g id="a_node16"><a xlink:href="src/routes/collection/edit/PacksBundle/arrow-up.svg.svelte.ts" xlink:title="arrow&#45;up.svg.svelte.ts">
<path fill="#ddfeff" stroke="black" d="M500.5,-190C500.5,-190 406.5,-190 406.5,-190 403.5,-190 400.5,-187 400.5,-184 400.5,-184 400.5,-178 400.5,-178 400.5,-175 403.5,-172 406.5,-172 406.5,-172 500.5,-172 500.5,-172 503.5,-172 506.5,-175 506.5,-178 506.5,-178 506.5,-184 506.5,-184 506.5,-187 503.5,-190 500.5,-190"/>
<text text-anchor="start" x="408.5" y="-178.8" font-family="Helvetica,sans-Serif" font-size="9.00">arrow&#45;up.svg.svelte.ts</text>
</a>
</g>
</g>
<!-- src/routes/collection/edit/PacksBundle/CollectiblePack.svelte.ts&#45;&gt;src/routes/collection/edit/PacksBundle/arrow&#45;up.svg.svelte.ts -->
<g id="edge25" class="edge">
<title>src/routes/collection/edit/PacksBundle/CollectiblePack.svelte.ts&#45;&gt;src/routes/collection/edit/PacksBundle/arrow&#45;up.svg.svelte.ts</title>
<path fill="none" stroke="#000000" stroke-width="2" stroke-opacity="0.200000" d="M352.46,-160.05C361.18,-162.05 370.4,-164.13 379,-166 386.16,-167.56 393.72,-169.15 401.16,-170.7"/>
<polygon fill="#000000" fill-opacity="0.200000" stroke="#000000" stroke-width="2" stroke-opacity="0.200000" points="401.07,-172.82 407.37,-171.98 401.92,-168.71 401.07,-172.82"/>
</g>
</g>
</svg>
