<?xml version="1.0" encoding="UTF-8" standalone="no"?>
<!DOCTYPE svg PUBLIC "-//W3C//DTD SVG 1.1//EN"
 "http://www.w3.org/Graphics/SVG/1.1/DTD/svg11.dtd">
<!-- Generated by graphviz version 2.50.0 (20211204.2007)
 -->
<!-- Title: dependency&#45;cruiser output Pages: 1 -->
<svg width="541pt" height="418pt"
 viewBox="0.00 0.00 541.00 418.00" xmlns="http://www.w3.org/2000/svg" xmlns:xlink="http://www.w3.org/1999/xlink">
<g id="graph0" class="graph" transform="scale(1 1) rotate(0) translate(4 414)">
<title>dependency&#45;cruiser output</title>
<polygon fill="white" stroke="transparent" points="-4,4 -4,-414 537,-414 537,4 -4,4"/>
<g id="clust1" class="cluster">
<title>cluster_src</title>
<path fill="#ffffff" stroke="black" stroke-width="2" d="M20,-8C20,-8 513,-8 513,-8 519,-8 525,-14 525,-20 525,-20 525,-390 525,-390 525,-396 519,-402 513,-402 513,-402 20,-402 20,-402 14,-402 8,-396 8,-390 8,-390 8,-20 8,-20 8,-14 14,-8 20,-8"/>
<text text-anchor="middle" x="266.5" y="-390.8" font-family="Helvetica,sans-Serif" font-weight="bold" font-size="9.00">src</text>
</g>
<g id="clust2" class="cluster">
<title>cluster_src/lib</title>
<path fill="#ffffff" stroke="black" stroke-width="2" d="M140,-230C140,-230 505,-230 505,-230 511,-230 517,-236 517,-242 517,-242 517,-364 517,-364 517,-370 511,-376 505,-376 505,-376 140,-376 140,-376 134,-376 128,-370 128,-364 128,-364 128,-242 128,-242 128,-236 134,-230 140,-230"/>
<text text-anchor="middle" x="322.5" y="-364.8" font-family="Helvetica,sans-Serif" font-weight="bold" font-size="9.00">lib</text>
</g>
<g id="clust3" class="cluster">
<title>cluster_src/lib/userBrowsesItsCollection</title>
<path fill="#ffffff" stroke="black" stroke-width="2" d="M148,-238C148,-238 497,-238 497,-238 503,-238 509,-244 509,-250 509,-250 509,-338 509,-338 509,-344 503,-350 497,-350 497,-350 148,-350 148,-350 142,-350 136,-344 136,-338 136,-338 136,-250 136,-250 136,-244 142,-238 148,-238"/>
<text text-anchor="middle" x="322.5" y="-338.8" font-family="Helvetica,sans-Serif" font-weight="bold" font-size="9.00">userBrowsesItsCollection</text>
</g>
<g id="clust4" class="cluster">
<title>cluster_src/routes</title>
<path fill="#ffffff" stroke="black" stroke-width="2" d="M28,-16C28,-16 398,-16 398,-16 404,-16 410,-22 410,-28 410,-28 410,-210 410,-210 410,-216 404,-222 398,-222 398,-222 28,-222 28,-222 22,-222 16,-216 16,-210 16,-210 16,-28 16,-28 16,-22 22,-16 28,-16"/>
<text text-anchor="middle" x="213" y="-210.8" font-family="Helvetica,sans-Serif" font-weight="bold" font-size="9.00">routes</text>
</g>
<g id="clust5" class="cluster">
<title>cluster_src/routes/cards</title>
<path fill="#ffffff" stroke="black" stroke-width="2" d="M36,-84C36,-84 108,-84 108,-84 114,-84 120,-90 120,-96 120,-96 120,-124 120,-124 120,-130 114,-136 108,-136 108,-136 36,-136 36,-136 30,-136 24,-130 24,-124 24,-124 24,-96 24,-96 24,-90 30,-84 36,-84"/>
<text text-anchor="middle" x="72" y="-124.8" font-family="Helvetica,sans-Serif" font-weight="bold" font-size="9.00">cards</text>
</g>
<g id="clust7" class="cluster">
<title>cluster_src/routes/packs</title>
<path fill="#ffffff" stroke="black" stroke-width="2" d="M36,-144C36,-144 108,-144 108,-144 114,-144 120,-150 120,-156 120,-156 120,-184 120,-184 120,-190 114,-196 108,-196 108,-196 36,-196 36,-196 30,-196 24,-190 24,-184 24,-184 24,-156 24,-156 24,-150 30,-144 36,-144"/>
<text text-anchor="middle" x="72" y="-184.8" font-family="Helvetica,sans-Serif" font-weight="bold" font-size="9.00">packs</text>
</g>
<g id="clust6" class="cluster">
<title>cluster_src/routes/collection</title>
<path fill="#ffffff" stroke="black" stroke-width="2" d="M36.5,-24C36.5,-24 390,-24 390,-24 396,-24 402,-30 402,-36 402,-36 402,-64 402,-64 402,-70 396,-76 390,-76 390,-76 36.5,-76 36.5,-76 30.5,-76 24.5,-70 24.5,-64 24.5,-64 24.5,-36 24.5,-36 24.5,-30 30.5,-24 36.5,-24"/>
<text text-anchor="middle" x="213.25" y="-64.8" font-family="Helvetica,sans-Serif" font-weight="bold" font-size="9.00">collection</text>
</g>
<!-- src/lib/userBrowsesItsCollection/ahdb.cards.json -->
<g id="node1" class="node">
<title>src/lib/userBrowsesItsCollection/ahdb.cards.json</title>
<g id="a_node1"><a xlink:href="src/lib/userBrowsesItsCollection/ahdb.cards.json" xlink:title="ahdb.cards.json">
<path fill="#ffee44" stroke="black" d="M495,-279C495,-279 424,-279 424,-279 421,-279 418,-276 418,-273 418,-273 418,-267 418,-267 418,-264 421,-261 424,-261 424,-261 495,-261 495,-261 498,-261 501,-264 501,-267 501,-267 501,-273 501,-273 501,-276 498,-279 495,-279"/>
<text text-anchor="start" x="426" y="-267.8" font-family="Helvetica,sans-Serif" font-size="9.00">ahdb.cards.json</text>
</a>
</g>
</g>
<!-- src/lib/userBrowsesItsCollection/ahdb.packs.json -->
<g id="node2" class="node">
<title>src/lib/userBrowsesItsCollection/ahdb.packs.json</title>
<g id="a_node2"><a xlink:href="src/lib/userBrowsesItsCollection/ahdb.packs.json" xlink:title="ahdb.packs.json">
<path fill="#ffee44" stroke="black" d="M378.5,-324C378.5,-324 305.5,-324 305.5,-324 302.5,-324 299.5,-321 299.5,-318 299.5,-318 299.5,-312 299.5,-312 299.5,-309 302.5,-306 305.5,-306 305.5,-306 378.5,-306 378.5,-306 381.5,-306 384.5,-309 384.5,-312 384.5,-312 384.5,-318 384.5,-318 384.5,-321 381.5,-324 378.5,-324"/>
<text text-anchor="start" x="307.5" y="-312.8" font-family="Helvetica,sans-Serif" font-size="9.00">ahdb.packs.json</text>
</a>
</g>
</g>
<!-- src/lib/userBrowsesItsCollection/couz.json -->
<g id="node3" class="node">
<title>src/lib/userBrowsesItsCollection/couz.json</title>
<g id="a_node3"><a xlink:href="src/lib/userBrowsesItsCollection/couz.json" xlink:title="couz.json">
<path fill="#ffee44" stroke="black" d="M364,-264C364,-264 320,-264 320,-264 317,-264 314,-261 314,-258 314,-258 314,-252 314,-252 314,-249 317,-246 320,-246 320,-246 364,-246 364,-246 367,-246 370,-249 370,-252 370,-252 370,-258 370,-258 370,-261 367,-264 364,-264"/>
<text text-anchor="start" x="322" y="-252.8" font-family="Helvetica,sans-Serif" font-size="9.00">couz.json</text>
</a>
</g>
</g>
<!-- src/lib/userBrowsesItsCollection/regroupByPockets.ts -->
<g id="node4" class="node">
<title>src/lib/userBrowsesItsCollection/regroupByPockets.ts</title>
<g id="a_node4"><a xlink:href="src/lib/userBrowsesItsCollection/regroupByPockets.ts" xlink:title="regroupByPockets.ts">
<path fill="#ddfeff" stroke="black" d="M386.5,-294C386.5,-294 297.5,-294 297.5,-294 294.5,-294 291.5,-291 291.5,-288 291.5,-288 291.5,-282 291.5,-282 291.5,-279 294.5,-276 297.5,-276 297.5,-276 386.5,-276 386.5,-276 389.5,-276 392.5,-279 392.5,-282 392.5,-282 392.5,-288 392.5,-288 392.5,-291 389.5,-294 386.5,-294"/>
<text text-anchor="start" x="299.5" y="-282.8" font-family="Helvetica,sans-Serif" font-size="9.00">regroupByPockets.ts</text>
</a>
</g>
</g>
<!-- src/lib/userBrowsesItsCollection/regroupByPockets.ts&#45;&gt;src/lib/userBrowsesItsCollection/ahdb.cards.json -->
<g id="edge1" class="edge">
<title>src/lib/userBrowsesItsCollection/regroupByPockets.ts&#45;&gt;src/lib/userBrowsesItsCollection/ahdb.cards.json</title>
<path fill="none" stroke="#000000" stroke-width="2" stroke-opacity="0.200000" d="M392.65,-278.55C398.98,-277.73 405.44,-276.89 411.72,-276.08"/>
<polygon fill="#000000" fill-opacity="0.200000" stroke="#000000" stroke-width="2" stroke-opacity="0.200000" points="412.25,-278.12 417.93,-275.27 411.71,-273.96 412.25,-278.12"/>
</g>
<!-- src/lib/userBrowsesItsCollection/userBrowsesItsCollection.ts -->
<g id="node5" class="node">
<title>src/lib/userBrowsesItsCollection/userBrowsesItsCollection.ts</title>
<g id="a_node5"><a xlink:href="src/lib/userBrowsesItsCollection/userBrowsesItsCollection.ts" xlink:title="userBrowsesItsCollection.ts">
<path fill="#ddfeff" stroke="black" d="M271,-273C271,-273 150,-273 150,-273 147,-273 144,-270 144,-267 144,-267 144,-261 144,-261 144,-258 147,-255 150,-255 150,-255 271,-255 271,-255 274,-255 277,-258 277,-261 277,-261 277,-267 277,-267 277,-270 274,-273 271,-273"/>
<text text-anchor="start" x="152" y="-261.8" font-family="Helvetica,sans-Serif" font-size="9.00">userBrowsesItsCollection.ts</text>
</a>
</g>
</g>
<!-- src/lib/userBrowsesItsCollection/userBrowsesItsCollection.ts&#45;&gt;src/lib/userBrowsesItsCollection/ahdb.packs.json -->
<g id="edge2" class="edge">
<title>src/lib/userBrowsesItsCollection/userBrowsesItsCollection.ts&#45;&gt;src/lib/userBrowsesItsCollection/ahdb.packs.json</title>
<path fill="none" stroke="#000000" stroke-width="2" stroke-opacity="0.200000" d="M229.27,-273.04C244.98,-280.82 268.66,-292.01 290,-300 293.77,-301.41 297.75,-302.78 301.74,-304.08"/>
<polygon fill="#000000" fill-opacity="0.200000" stroke="#000000" stroke-width="2" stroke-opacity="0.200000" points="301.22,-306.12 307.58,-305.92 302.49,-302.11 301.22,-306.12"/>
</g>
<!-- src/lib/userBrowsesItsCollection/userBrowsesItsCollection.ts&#45;&gt;src/lib/userBrowsesItsCollection/couz.json -->
<g id="edge3" class="edge">
<title>src/lib/userBrowsesItsCollection/userBrowsesItsCollection.ts&#45;&gt;src/lib/userBrowsesItsCollection/couz.json</title>
<path fill="none" stroke="#000000" stroke-width="2" stroke-opacity="0.200000" d="M277.01,-259.45C287.71,-258.7 298.39,-257.96 307.87,-257.3"/>
<polygon fill="#000000" fill-opacity="0.200000" stroke="#000000" stroke-width="2" stroke-opacity="0.200000" points="308.07,-259.39 313.91,-256.88 307.78,-255.2 308.07,-259.39"/>
</g>
<!-- src/lib/userBrowsesItsCollection/userBrowsesItsCollection.ts&#45;&gt;src/lib/userBrowsesItsCollection/regroupByPockets.ts -->
<g id="edge4" class="edge">
<title>src/lib/userBrowsesItsCollection/userBrowsesItsCollection.ts&#45;&gt;src/lib/userBrowsesItsCollection/regroupByPockets.ts</title>
<path fill="none" stroke="#000000" stroke-width="2" stroke-opacity="0.200000" d="M267.17,-273.03C273.24,-274.01 279.41,-275.01 285.48,-276"/>
<polygon fill="#000000" fill-opacity="0.200000" stroke="#000000" stroke-width="2" stroke-opacity="0.200000" points="285.24,-278.09 291.5,-276.97 285.91,-273.94 285.24,-278.09"/>
</g>
<!-- src/routes/cards/+page.server.ts -->
<g id="node6" class="node">
<title>src/routes/cards/+page.server.ts</title>
<g id="a_node6"><a xlink:href="src/routes/cards/+page.server.ts" xlink:title="+page.server.ts">
<path fill="#ddfeff" stroke="black" d="M106,-110C106,-110 38,-110 38,-110 35,-110 32,-107 32,-104 32,-104 32,-98 32,-98 32,-95 35,-92 38,-92 38,-92 106,-92 106,-92 109,-92 112,-95 112,-98 112,-98 112,-104 112,-104 112,-107 109,-110 106,-110"/>
<text text-anchor="start" x="40" y="-98.8" font-family="Helvetica,sans-Serif" font-size="9.00">+page.server.ts</text>
</a>
</g>
</g>
<!-- src/routes/cards/+page.server.ts&#45;&gt;src/lib/userBrowsesItsCollection/ahdb.cards.json -->
<g id="edge5" class="edge">
<title>src/routes/cards/+page.server.ts&#45;&gt;src/lib/userBrowsesItsCollection/ahdb.cards.json</title>
<path fill="none" stroke="#000000" stroke-width="2" stroke-opacity="0.200000" d="M99,-110.08C156.43,-130.48 297.86,-182.67 410,-240 420.22,-245.22 431.13,-251.87 440.01,-257.58"/>
<polygon fill="#000000" fill-opacity="0.200000" stroke="#000000" stroke-width="2" stroke-opacity="0.200000" points="439.08,-259.48 445.25,-260.99 441.37,-255.96 439.08,-259.48"/>
</g>
<!-- src/routes/collection/+page.svelte.ts -->
<g id="node7" class="node">
<title>src/routes/collection/+page.svelte.ts</title>
<g id="a_node7"><a xlink:href="src/routes/collection/+page.svelte.ts" xlink:title="+page.svelte.ts">
<path fill="#ddfeff" stroke="black" d="M105.5,-50C105.5,-50 38.5,-50 38.5,-50 35.5,-50 32.5,-47 32.5,-44 32.5,-44 32.5,-38 32.5,-38 32.5,-35 35.5,-32 38.5,-32 38.5,-32 105.5,-32 105.5,-32 108.5,-32 111.5,-35 111.5,-38 111.5,-38 111.5,-44 111.5,-44 111.5,-47 108.5,-50 105.5,-50"/>
<text text-anchor="start" x="40.5" y="-38.8" font-family="Helvetica,sans-Serif" font-size="9.00">+page.svelte.ts</text>
</a>
</g>
</g>
<!-- src/routes/collection/+page.svelte.ts&#45;&gt;src/lib/userBrowsesItsCollection/userBrowsesItsCollection.ts -->
<g id="edge7" class="edge">
<title>src/routes/collection/+page.svelte.ts&#45;&gt;src/lib/userBrowsesItsCollection/userBrowsesItsCollection.ts</title>
<path fill="none" stroke="#000000" stroke-width="2" stroke-opacity="0.200000" d="M86.68,-50.27C96.85,-57.68 110.54,-68.81 120,-81 163.11,-136.52 193.23,-216.13 204.54,-248.97"/>
<polygon fill="#000000" fill-opacity="0.200000" stroke="#000000" stroke-width="2" stroke-opacity="0.200000" points="202.64,-249.88 206.55,-254.89 206.61,-248.53 202.64,-249.88"/>
</g>
<!-- src/routes/collection/Binder.svelte.ts -->
<g id="node8" class="node">
<title>src/routes/collection/Binder.svelte.ts</title>
<g id="a_node8"><a xlink:href="src/routes/collection/Binder.svelte.ts" xlink:title="Binder.svelte.ts">
<path fill="#ddfeff" stroke="black" d="M244.5,-50C244.5,-50 176.5,-50 176.5,-50 173.5,-50 170.5,-47 170.5,-44 170.5,-44 170.5,-38 170.5,-38 170.5,-35 173.5,-32 176.5,-32 176.5,-32 244.5,-32 244.5,-32 247.5,-32 250.5,-35 250.5,-38 250.5,-38 250.5,-44 250.5,-44 250.5,-47 247.5,-50 244.5,-50"/>
<text text-anchor="start" x="178.5" y="-38.8" font-family="Helvetica,sans-Serif" font-size="9.00">Binder.svelte.ts</text>
</a>
</g>
</g>
<!-- src/routes/collection/+page.svelte.ts&#45;&gt;src/routes/collection/Binder.svelte.ts -->
<g id="edge6" class="edge">
<title>src/routes/collection/+page.svelte.ts&#45;&gt;src/routes/collection/Binder.svelte.ts</title>
<path fill="none" stroke="#000000" stroke-width="2" stroke-opacity="0.200000" d="M111.75,-41C128.04,-41 147.1,-41 164.04,-41"/>
<polygon fill="#000000" fill-opacity="0.200000" stroke="#000000" stroke-width="2" stroke-opacity="0.200000" points="164.18,-43.1 170.18,-41 164.18,-38.9 164.18,-43.1"/>
</g>
<!-- src/routes/collection/PocketSheet.svelte.ts -->
<g id="node9" class="node">
<title>src/routes/collection/PocketSheet.svelte.ts</title>
<g id="a_node9"><a xlink:href="src/routes/collection/PocketSheet.svelte.ts" xlink:title="PocketSheet.svelte.ts">
<path fill="#ddfeff" stroke="black" d="M388,-50C388,-50 296,-50 296,-50 293,-50 290,-47 290,-44 290,-44 290,-38 290,-38 290,-35 293,-32 296,-32 296,-32 388,-32 388,-32 391,-32 394,-35 394,-38 394,-38 394,-44 394,-44 394,-47 391,-50 388,-50"/>
<text text-anchor="start" x="298" y="-38.8" font-family="Helvetica,sans-Serif" font-size="9.00">PocketSheet.svelte.ts</text>
</a>
</g>
</g>
<!-- src/routes/collection/Binder.svelte.ts&#45;&gt;src/routes/collection/PocketSheet.svelte.ts -->
<g id="edge8" class="edge">
<title>src/routes/collection/Binder.svelte.ts&#45;&gt;src/routes/collection/PocketSheet.svelte.ts</title>
<path fill="none" stroke="#000000" stroke-width="2" stroke-opacity="0.200000" d="M250.71,-41C261.13,-41 272.61,-41 283.79,-41"/>
<polygon fill="#000000" fill-opacity="0.200000" stroke="#000000" stroke-width="2" stroke-opacity="0.200000" points="283.96,-43.1 289.96,-41 283.96,-38.9 283.96,-43.1"/>
</g>
<!-- src/routes/packs/+page.server.ts -->
<g id="node10" class="node">
<title>src/routes/packs/+page.server.ts</title>
<g id="a_node10"><a xlink:href="src/routes/packs/+page.server.ts" xlink:title="+page.server.ts">
<path fill="#ddfeff" stroke="black" d="M106,-170C106,-170 38,-170 38,-170 35,-170 32,-167 32,-164 32,-164 32,-158 32,-158 32,-155 35,-152 38,-152 38,-152 106,-152 106,-152 109,-152 112,-155 112,-158 112,-158 112,-164 112,-164 112,-167 109,-170 106,-170"/>
<text text-anchor="start" x="40" y="-158.8" font-family="Helvetica,sans-Serif" font-size="9.00">+page.server.ts</text>
</a>
</g>
</g>
<!-- src/routes/packs/+page.server.ts&#45;&gt;src/lib/userBrowsesItsCollection/ahdb.packs.json -->
<g id="edge9" class="edge">
<title>src/routes/packs/+page.server.ts&#45;&gt;src/lib/userBrowsesItsCollection/ahdb.packs.json</title>
<path fill="none" stroke="#000000" stroke-width="2" stroke-opacity="0.200000" d="M74.35,-170.17C78.17,-192.72 91.32,-251.06 128,-279 175.54,-315.22 246.42,-320.29 293.17,-318.97"/>
<polygon fill="#000000" fill-opacity="0.200000" stroke="#000000" stroke-width="2" stroke-opacity="0.200000" points="293.39,-321.06 299.31,-318.75 293.24,-316.86 293.39,-321.06"/>
</g>
</g>
</svg>
