<?xml version="1.0" encoding="UTF-8" standalone="no"?>
<!DOCTYPE svg PUBLIC "-//W3C//DTD SVG 1.1//EN"
 "http://www.w3.org/Graphics/SVG/1.1/DTD/svg11.dtd">
<!-- Generated by graphviz version 2.50.0 (20211204.2007)
 -->
<!-- Title: dependency&#45;cruiser output Pages: 1 -->
<svg width="677pt" height="496pt"
 viewBox="0.00 0.00 677.00 496.00" xmlns="http://www.w3.org/2000/svg" xmlns:xlink="http://www.w3.org/1999/xlink">
<g id="graph0" class="graph" transform="scale(1 1) rotate(0) translate(4 492)">
<title>dependency&#45;cruiser output</title>
<polygon fill="white" stroke="transparent" points="-4,4 -4,-492 673,-492 673,4 -4,4"/>
<g id="clust1" class="cluster">
<title>cluster_src</title>
<path fill="#ffffff" stroke="black" stroke-width="2" d="M20,-8C20,-8 649,-8 649,-8 655,-8 661,-14 661,-20 661,-20 661,-468 661,-468 661,-474 655,-480 649,-480 649,-480 20,-480 20,-480 14,-480 8,-474 8,-468 8,-468 8,-20 8,-20 8,-14 14,-8 20,-8"/>
<text text-anchor="middle" x="334.5" y="-468.8" font-family="Helvetica,sans-Serif" font-weight="bold" font-size="9.00">src</text>
</g>
<g id="clust2" class="cluster">
<title>cluster_src/gathering</title>
<path fill="#ffffff" stroke="black" stroke-width="2" d="M157.5,-170C157.5,-170 641,-170 641,-170 647,-170 653,-176 653,-182 653,-182 653,-442 653,-442 653,-448 647,-454 641,-454 641,-454 157.5,-454 157.5,-454 151.5,-454 145.5,-448 145.5,-442 145.5,-442 145.5,-182 145.5,-182 145.5,-176 151.5,-170 157.5,-170"/>
<text text-anchor="middle" x="399.25" y="-442.8" font-family="Helvetica,sans-Serif" font-weight="bold" font-size="9.00">gathering</text>
</g>
<g id="clust6" class="cluster">
<title>cluster_src/gathering/CollectionOrganizer</title>
<path fill="#ffffff" stroke="black" stroke-width="2" d="M320,-376C320,-376 419,-376 419,-376 425,-376 431,-382 431,-388 431,-388 431,-416 431,-416 431,-422 425,-428 419,-428 419,-428 320,-428 320,-428 314,-428 308,-422 308,-416 308,-416 308,-388 308,-388 308,-382 314,-376 320,-376"/>
<text text-anchor="middle" x="369.5" y="-416.8" font-family="Helvetica,sans-Serif" font-weight="bold" font-size="9.00">CollectionOrganizer</text>
</g>
<g id="clust5" class="cluster">
<title>cluster_src/gathering/CollectionLoader</title>
<path fill="#ffffff" stroke="black" stroke-width="2" d="M173,-200C173,-200 262,-200 262,-200 268,-200 274,-206 274,-212 274,-212 274,-240 274,-240 274,-246 268,-252 262,-252 262,-252 173,-252 173,-252 167,-252 161,-246 161,-240 161,-240 161,-212 161,-212 161,-206 167,-200 173,-200"/>
<text text-anchor="middle" x="217.5" y="-240.8" font-family="Helvetica,sans-Serif" font-weight="bold" font-size="9.00">CollectionLoader</text>
</g>
<g id="clust3" class="cluster">
<title>cluster_src/gathering/CollectionEditor</title>
<path fill="#ffffff" stroke="black" stroke-width="2" d="M165.5,-260C165.5,-260 269.5,-260 269.5,-260 275.5,-260 281.5,-266 281.5,-272 281.5,-272 281.5,-330 281.5,-330 281.5,-336 275.5,-342 269.5,-342 269.5,-342 165.5,-342 165.5,-342 159.5,-342 153.5,-336 153.5,-330 153.5,-330 153.5,-272 153.5,-272 153.5,-266 159.5,-260 165.5,-260"/>
<text text-anchor="middle" x="217.5" y="-330.8" font-family="Helvetica,sans-Serif" font-weight="bold" font-size="9.00">CollectionEditor</text>
</g>
<g id="clust4" class="cluster">
<title>cluster_src/gathering/CollectionEntity</title>
<path fill="#ffffff" stroke="black" stroke-width="2" d="M329,-292C329,-292 410,-292 410,-292 416,-292 422,-298 422,-304 422,-304 422,-332 422,-332 422,-338 416,-344 410,-344 410,-344 329,-344 329,-344 323,-344 317,-338 317,-332 317,-332 317,-304 317,-304 317,-298 323,-292 329,-292"/>
<text text-anchor="middle" x="369.5" y="-332.8" font-family="Helvetica,sans-Serif" font-weight="bold" font-size="9.00">CollectionEntity</text>
</g>
<g id="clust7" class="cluster">
<title>cluster_src/lib</title>
<path fill="#ffffff" stroke="black" stroke-width="2" d="M147,-16C147,-16 288,-16 288,-16 294,-16 300,-22 300,-28 300,-28 300,-150 300,-150 300,-156 294,-162 288,-162 288,-162 147,-162 147,-162 141,-162 135,-156 135,-150 135,-150 135,-28 135,-28 135,-22 141,-16 147,-16"/>
<text text-anchor="middle" x="217.5" y="-150.8" font-family="Helvetica,sans-Serif" font-weight="bold" font-size="9.00">lib</text>
</g>
<g id="clust9" class="cluster">
<title>cluster_src/lib/userEditsItsCollection</title>
<path fill="#ffffff" stroke="black" stroke-width="2" d="M163,-84C163,-84 272,-84 272,-84 278,-84 284,-90 284,-96 284,-96 284,-124 284,-124 284,-130 278,-136 272,-136 272,-136 163,-136 163,-136 157,-136 151,-130 151,-124 151,-124 151,-96 151,-96 151,-90 157,-84 163,-84"/>
<text text-anchor="middle" x="217.5" y="-124.8" font-family="Helvetica,sans-Serif" font-weight="bold" font-size="9.00">userEditsItsCollection</text>
</g>
<g id="clust8" class="cluster">
<title>cluster_src/lib/userBrowsesItsCollection</title>
<path fill="#ffffff" stroke="black" stroke-width="2" d="M155,-24C155,-24 280,-24 280,-24 286,-24 292,-30 292,-36 292,-36 292,-64 292,-64 292,-70 286,-76 280,-76 280,-76 155,-76 155,-76 149,-76 143,-70 143,-64 143,-64 143,-36 143,-36 143,-30 149,-24 155,-24"/>
<text text-anchor="middle" x="217.5" y="-64.8" font-family="Helvetica,sans-Serif" font-weight="bold" font-size="9.00">userBrowsesItsCollection</text>
</g>
<g id="clust10" class="cluster">
<title>cluster_src/routes</title>
<path fill="#ffffff" stroke="black" stroke-width="2" d="M28,-16C28,-16 115,-16 115,-16 121,-16 127,-22 127,-28 127,-28 127,-90 127,-90 127,-96 121,-102 115,-102 115,-102 28,-102 28,-102 22,-102 16,-96 16,-90 16,-90 16,-28 16,-28 16,-22 22,-16 28,-16"/>
<text text-anchor="middle" x="71.5" y="-90.8" font-family="Helvetica,sans-Serif" font-weight="bold" font-size="9.00">routes</text>
</g>
<g id="clust11" class="cluster">
<title>cluster_src/routes/collection</title>
<path fill="#ffffff" stroke="black" stroke-width="2" d="M36,-24C36,-24 107,-24 107,-24 113,-24 119,-30 119,-36 119,-36 119,-64 119,-64 119,-70 113,-76 107,-76 107,-76 36,-76 36,-76 30,-76 24,-70 24,-64 24,-64 24,-36 24,-36 24,-30 30,-24 36,-24"/>
<text text-anchor="middle" x="71.5" y="-64.8" font-family="Helvetica,sans-Serif" font-weight="bold" font-size="9.00">collection</text>
</g>
<!-- src/gathering/Collection.ts -->
<g id="node1" class="node">
<title>src/gathering/Collection.ts</title>
<g id="a_node1"><a xlink:href="src/gathering/Collection.ts" xlink:title="Collection.ts">
<path fill="#ddfeff" stroke="black" d="M522,-226C522,-226 466,-226 466,-226 463,-226 460,-223 460,-220 460,-220 460,-214 460,-214 460,-211 463,-208 466,-208 466,-208 522,-208 522,-208 525,-208 528,-211 528,-214 528,-214 528,-220 528,-220 528,-223 525,-226 522,-226"/>
<text text-anchor="start" x="468" y="-214.8" font-family="Helvetica,sans-Serif" font-size="9.00">Collection.ts</text>
</a>
</g>
</g>
<!-- src/gathering/Pack.ts -->
<g id="node2" class="node">
<title>src/gathering/Pack.ts</title>
<g id="a_node2"><a xlink:href="src/gathering/Pack.ts" xlink:title="Pack.ts">
<path fill="#ddfeff" stroke="black" d="M624.5,-306C624.5,-306 582.5,-306 582.5,-306 579.5,-306 576.5,-303 576.5,-300 576.5,-300 576.5,-294 576.5,-294 576.5,-291 579.5,-288 582.5,-288 582.5,-288 624.5,-288 624.5,-288 627.5,-288 630.5,-291 630.5,-294 630.5,-294 630.5,-300 630.5,-300 630.5,-303 627.5,-306 624.5,-306"/>
<text text-anchor="start" x="588" y="-294.8" font-family="Helvetica,sans-Serif" font-size="9.00">Pack.ts</text>
</a>
</g>
</g>
<!-- src/gathering/Collection.ts&#45;&gt;src/gathering/Pack.ts -->
<g id="edge1" class="edge">
<title>src/gathering/Collection.ts&#45;&gt;src/gathering/Pack.ts</title>
<path fill="none" stroke="#000000" stroke-opacity="0.200000" d="M507.33,-226.18C526.53,-240.46 563.61,-268.06 585.39,-284.27"/>
<polygon fill="none" stroke="#000000" stroke-opacity="0.200000" points="584.25,-286.03 590.31,-287.93 586.75,-282.66 584.25,-286.03"/>
</g>
<!-- src/gathering/CollectionEditor/CollectionEditor.ts -->
<g id="node3" class="node">
<title>src/gathering/CollectionEditor/CollectionEditor.ts</title>
<g id="a_node3"><a xlink:href="src/gathering/CollectionEditor/CollectionEditor.ts" xlink:title="CollectionEditor.ts">
<path fill="#ddfeff" stroke="black" d="M257.5,-286C257.5,-286 177.5,-286 177.5,-286 174.5,-286 171.5,-283 171.5,-280 171.5,-280 171.5,-274 171.5,-274 171.5,-271 174.5,-268 177.5,-268 177.5,-268 257.5,-268 257.5,-268 260.5,-268 263.5,-271 263.5,-274 263.5,-274 263.5,-280 263.5,-280 263.5,-283 260.5,-286 257.5,-286"/>
<text text-anchor="start" x="179.5" y="-274.8" font-family="Helvetica,sans-Serif" font-size="9.00">CollectionEditor.ts</text>
</a>
</g>
</g>
<!-- src/gathering/CollectionEditor/CollectionEditor.ts&#45;&gt;src/gathering/Pack.ts -->
<g id="edge4" class="edge">
<title>src/gathering/CollectionEditor/CollectionEditor.ts&#45;&gt;src/gathering/Pack.ts</title>
<path fill="none" stroke="#000000" stroke-opacity="0.200000" d="M263.83,-275.72C277.14,-277.65 290.62,-282.26 300,-292 317.14,-309.79 289.32,-330.84 308,-347 349.34,-382.77 376.42,-350 431,-347 483.68,-344.11 499.57,-352.46 549,-334 563.55,-328.57 577.9,-318.3 588.07,-309.95"/>
<polygon fill="none" stroke="#000000" stroke-opacity="0.200000" points="589.48,-311.51 592.71,-306.04 586.77,-308.3 589.48,-311.51"/>
</g>
<!-- src/gathering/ICollectionEditor.ts -->
<g id="node4" class="node">
<title>src/gathering/ICollectionEditor.ts</title>
<g id="a_node4"><a xlink:href="src/gathering/ICollectionEditor.ts" xlink:title="ICollectionEditor.ts">
<path fill="#ddfeff" stroke="black" d="M410.5,-270C410.5,-270 328.5,-270 328.5,-270 325.5,-270 322.5,-267 322.5,-264 322.5,-264 322.5,-258 322.5,-258 322.5,-255 325.5,-252 328.5,-252 328.5,-252 410.5,-252 410.5,-252 413.5,-252 416.5,-255 416.5,-258 416.5,-258 416.5,-264 416.5,-264 416.5,-267 413.5,-270 410.5,-270"/>
<text text-anchor="start" x="330.5" y="-258.8" font-family="Helvetica,sans-Serif" font-size="9.00">ICollectionEditor.ts</text>
</a>
</g>
</g>
<!-- src/gathering/CollectionEditor/CollectionEditor.ts&#45;&gt;src/gathering/ICollectionEditor.ts -->
<g id="edge2" class="edge">
<title>src/gathering/CollectionEditor/CollectionEditor.ts&#45;&gt;src/gathering/ICollectionEditor.ts</title>
<path fill="none" stroke="#000000" stroke-opacity="0.200000" d="M263.5,-272.2C280.11,-270.43 299.05,-268.41 316.24,-266.57"/>
<polygon fill="none" stroke="#000000" stroke-opacity="0.200000" points="316.75,-268.63 322.49,-265.91 316.3,-264.46 316.75,-268.63"/>
</g>
<!-- src/gathering/ICollectionOutput.ts -->
<g id="node5" class="node">
<title>src/gathering/ICollectionOutput.ts</title>
<g id="a_node5"><a xlink:href="src/gathering/ICollectionOutput.ts" xlink:title="ICollectionOutput.ts">
<path fill="#ddfeff" stroke="black" d="M412,-226C412,-226 327,-226 327,-226 324,-226 321,-223 321,-220 321,-220 321,-214 321,-214 321,-211 324,-208 327,-208 327,-208 412,-208 412,-208 415,-208 418,-211 418,-214 418,-214 418,-220 418,-220 418,-223 415,-226 412,-226"/>
<text text-anchor="start" x="329" y="-214.8" font-family="Helvetica,sans-Serif" font-size="9.00">ICollectionOutput.ts</text>
</a>
</g>
</g>
<!-- src/gathering/CollectionEditor/CollectionEditor.ts&#45;&gt;src/gathering/ICollectionOutput.ts -->
<g id="edge3" class="edge">
<title>src/gathering/CollectionEditor/CollectionEditor.ts&#45;&gt;src/gathering/ICollectionOutput.ts</title>
<path fill="none" stroke="#000000" stroke-opacity="0.200000" d="M263.56,-269.78C275.97,-266.5 289.03,-261.78 300,-255 304.55,-252.18 303.73,-249.22 308,-246 317.18,-239.08 328.28,-233.19 338.45,-228.55"/>
<polygon fill="none" stroke="#000000" stroke-opacity="0.200000" points="339.35,-230.46 343.99,-226.11 337.65,-226.61 339.35,-230.46"/>
</g>
<!-- src/gathering/ICollectionEditor.ts&#45;&gt;src/gathering/Pack.ts -->
<g id="edge18" class="edge">
<title>src/gathering/ICollectionEditor.ts&#45;&gt;src/gathering/Pack.ts</title>
<path fill="none" stroke="#000000" stroke-opacity="0.200000" d="M416.8,-262.82C453.1,-264.93 504.7,-269.44 549,-279 557.09,-280.75 565.67,-283.3 573.53,-285.94"/>
<polygon fill="none" stroke="#000000" stroke-opacity="0.200000" points="573.02,-287.98 579.38,-287.96 574.39,-284.01 573.02,-287.98"/>
</g>
<!-- src/gathering/ICollectionOutput.ts&#45;&gt;src/gathering/Collection.ts -->
<g id="edge21" class="edge">
<title>src/gathering/ICollectionOutput.ts&#45;&gt;src/gathering/Collection.ts</title>
<path fill="none" stroke="#000000" stroke-opacity="0.200000" d="M418.21,-217C430,-217 442.5,-217 453.83,-217"/>
<polygon fill="none" stroke="#000000" stroke-opacity="0.200000" points="453.99,-219.1 459.99,-217 453.99,-214.9 453.99,-219.1"/>
</g>
<!-- src/gathering/CollectionEditor/PackRepositoryMock.ts -->
<g id="node6" class="node">
<title>src/gathering/CollectionEditor/PackRepositoryMock.ts</title>
<g id="a_node6"><a xlink:href="src/gathering/CollectionEditor/PackRepositoryMock.ts" xlink:title="PackRepositoryMock.ts">
<path fill="#ddfeff" stroke="black" d="M267.5,-316C267.5,-316 167.5,-316 167.5,-316 164.5,-316 161.5,-313 161.5,-310 161.5,-310 161.5,-304 161.5,-304 161.5,-301 164.5,-298 167.5,-298 167.5,-298 267.5,-298 267.5,-298 270.5,-298 273.5,-301 273.5,-304 273.5,-304 273.5,-310 273.5,-310 273.5,-313 270.5,-316 267.5,-316"/>
<text text-anchor="start" x="169.5" y="-304.8" font-family="Helvetica,sans-Serif" font-size="9.00">PackRepositoryMock.ts</text>
</a>
</g>
</g>
<!-- src/gathering/CollectionEditor/PackRepositoryMock.ts&#45;&gt;src/gathering/Pack.ts -->
<g id="edge6" class="edge">
<title>src/gathering/CollectionEditor/PackRepositoryMock.ts&#45;&gt;src/gathering/Pack.ts</title>
<path fill="none" stroke="#000000" stroke-opacity="0.200000" d="M273.6,-298.23C282.49,-296.42 291.54,-294.34 300,-292 303.66,-290.99 304.26,-289.68 308,-289 402.01,-271.95 515.63,-284.04 570.19,-291.83"/>
<polygon fill="none" stroke="#000000" stroke-opacity="0.200000" points="569.99,-293.92 576.23,-292.7 570.59,-289.76 569.99,-293.92"/>
</g>
<!-- src/gathering/IPackRepository.ts -->
<g id="node7" class="node">
<title>src/gathering/IPackRepository.ts</title>
<g id="a_node7"><a xlink:href="src/gathering/IPackRepository.ts" xlink:title="IPackRepository.ts">
<path fill="#ddfeff" stroke="black" d="M534.5,-328C534.5,-328 453.5,-328 453.5,-328 450.5,-328 447.5,-325 447.5,-322 447.5,-322 447.5,-316 447.5,-316 447.5,-313 450.5,-310 453.5,-310 453.5,-310 534.5,-310 534.5,-310 537.5,-310 540.5,-313 540.5,-316 540.5,-316 540.5,-322 540.5,-322 540.5,-325 537.5,-328 534.5,-328"/>
<text text-anchor="start" x="455.5" y="-316.8" font-family="Helvetica,sans-Serif" font-size="9.00">IPackRepository.ts</text>
</a>
</g>
</g>
<!-- src/gathering/CollectionEditor/PackRepositoryMock.ts&#45;&gt;src/gathering/IPackRepository.ts -->
<g id="edge5" class="edge">
<title>src/gathering/CollectionEditor/PackRepositoryMock.ts&#45;&gt;src/gathering/IPackRepository.ts</title>
<path fill="none" stroke="#000000" stroke-opacity="0.200000" d="M233.66,-316.17C250.94,-326.04 280.37,-341.11 308,-347 361.46,-358.4 377.56,-358.51 431,-347 445.49,-343.88 460.67,-337.09 472.38,-330.98"/>
<polygon fill="none" stroke="#000000" stroke-opacity="0.200000" points="473.54,-332.74 477.83,-328.06 471.55,-329.04 473.54,-332.74"/>
</g>
<!-- src/gathering/IPackRepository.ts&#45;&gt;src/gathering/Pack.ts -->
<g id="edge22" class="edge">
<title>src/gathering/IPackRepository.ts&#45;&gt;src/gathering/Pack.ts</title>
<path fill="none" stroke="#000000" stroke-opacity="0.200000" d="M539.03,-309.99C549.5,-307.85 560.48,-305.6 570.3,-303.59"/>
<polygon fill="none" stroke="#000000" stroke-opacity="0.200000" points="570.8,-305.63 576.26,-302.37 569.96,-301.52 570.8,-305.63"/>
</g>
<!-- src/gathering/CollectionEntity/CollectionEntity.ts -->
<g id="node8" class="node">
<title>src/gathering/CollectionEntity/CollectionEntity.ts</title>
<g id="a_node8"><a xlink:href="src/gathering/CollectionEntity/CollectionEntity.ts" xlink:title="CollectionEntity.ts">
<path fill="#ddfeff" stroke="black" d="M408,-318C408,-318 331,-318 331,-318 328,-318 325,-315 325,-312 325,-312 325,-306 325,-306 325,-303 328,-300 331,-300 331,-300 408,-300 408,-300 411,-300 414,-303 414,-306 414,-306 414,-312 414,-312 414,-315 411,-318 408,-318"/>
<text text-anchor="start" x="333" y="-306.8" font-family="Helvetica,sans-Serif" font-size="9.00">CollectionEntity.ts</text>
</a>
</g>
</g>
<!-- src/gathering/CollectionEntity/CollectionEntity.ts&#45;&gt;src/gathering/Pack.ts -->
<g id="edge8" class="edge">
<title>src/gathering/CollectionEntity/CollectionEntity.ts&#45;&gt;src/gathering/Pack.ts</title>
<path fill="none" stroke="#000000" stroke-opacity="0.200000" d="M414.34,-305.6C422.53,-305.02 431.02,-304.46 439,-304 484.47,-301.37 537.11,-299.29 570.11,-298.1"/>
<polygon fill="none" stroke="#000000" stroke-opacity="0.200000" points="570.51,-300.19 576.44,-297.87 570.37,-295.99 570.51,-300.19"/>
</g>
<!-- src/gathering/CollectionEntity/CollectionEntity.ts&#45;&gt;src/gathering/IPackRepository.ts -->
<g id="edge7" class="edge">
<title>src/gathering/CollectionEntity/CollectionEntity.ts&#45;&gt;src/gathering/IPackRepository.ts</title>
<path fill="none" stroke="#000000" stroke-opacity="0.200000" d="M414.03,-312.55C422.75,-313.27 431.99,-314.02 440.96,-314.75"/>
<polygon fill="none" stroke="#000000" stroke-opacity="0.200000" points="440.97,-316.86 447.12,-315.25 441.31,-312.67 440.97,-316.86"/>
</g>
<!-- src/gathering/CollectionLoader/CollectionLoader.ts -->
<g id="node9" class="node">
<title>src/gathering/CollectionLoader/CollectionLoader.ts</title>
<g id="a_node9"><a xlink:href="src/gathering/CollectionLoader/CollectionLoader.ts" xlink:title="CollectionLoader.ts">
<path fill="#ddfeff" stroke="black" d="M260,-226C260,-226 175,-226 175,-226 172,-226 169,-223 169,-220 169,-220 169,-214 169,-214 169,-211 172,-208 175,-208 175,-208 260,-208 260,-208 263,-208 266,-211 266,-214 266,-214 266,-220 266,-220 266,-223 263,-226 260,-226"/>
<text text-anchor="start" x="177" y="-214.8" font-family="Helvetica,sans-Serif" font-size="9.00">CollectionLoader.ts</text>
</a>
</g>
</g>
<!-- src/gathering/CollectionLoader/CollectionLoader.ts&#45;&gt;src/gathering/Collection.ts -->
<g id="edge9" class="edge">
<title>src/gathering/CollectionLoader/CollectionLoader.ts&#45;&gt;src/gathering/Collection.ts</title>
<path fill="none" stroke="#000000" stroke-opacity="0.200000" d="M263.39,-226.02C277.59,-228.47 293.4,-230.78 308,-232 362.48,-236.53 376.72,-238.47 431,-232 439.15,-231.03 447.78,-229.36 455.92,-227.48"/>
<polygon fill="none" stroke="#000000" stroke-opacity="0.200000" points="456.7,-229.46 462.04,-226.02 455.72,-225.37 456.7,-229.46"/>
</g>
<!-- src/gathering/CollectionLoader/CollectionLoader.ts&#45;&gt;src/gathering/ICollectionEditor.ts -->
<g id="edge10" class="edge">
<title>src/gathering/CollectionLoader/CollectionLoader.ts&#45;&gt;src/gathering/ICollectionEditor.ts</title>
<path fill="none" stroke="#000000" stroke-opacity="0.200000" d="M249.22,-226.01C273.1,-233.02 306.32,-242.76 331.64,-250.19"/>
<polygon fill="none" stroke="#000000" stroke-opacity="0.200000" points="331.22,-252.25 337.57,-251.93 332.4,-248.22 331.22,-252.25"/>
</g>
<!-- src/gathering/CollectionLoader/CollectionLoader.ts&#45;&gt;src/gathering/ICollectionOutput.ts -->
<g id="edge12" class="edge">
<title>src/gathering/CollectionLoader/CollectionLoader.ts&#45;&gt;src/gathering/ICollectionOutput.ts</title>
<path fill="none" stroke="#000000" stroke-opacity="0.200000" d="M266.37,-217C281.74,-217 298.86,-217 314.62,-217"/>
<polygon fill="none" stroke="#000000" stroke-opacity="0.200000" points="314.82,-219.1 320.82,-217 314.82,-214.9 314.82,-219.1"/>
</g>
<!-- src/gathering/ICollectionLoader.ts -->
<g id="node10" class="node">
<title>src/gathering/ICollectionLoader.ts</title>
<g id="a_node10"><a xlink:href="src/gathering/ICollectionLoader.ts" xlink:title="ICollectionLoader.ts">
<path fill="#ddfeff" stroke="black" d="M413,-196C413,-196 326,-196 326,-196 323,-196 320,-193 320,-190 320,-190 320,-184 320,-184 320,-181 323,-178 326,-178 326,-178 413,-178 413,-178 416,-178 419,-181 419,-184 419,-184 419,-190 419,-190 419,-193 416,-196 413,-196"/>
<text text-anchor="start" x="328" y="-184.8" font-family="Helvetica,sans-Serif" font-size="9.00">ICollectionLoader.ts</text>
</a>
</g>
</g>
<!-- src/gathering/CollectionLoader/CollectionLoader.ts&#45;&gt;src/gathering/ICollectionLoader.ts -->
<g id="edge11" class="edge">
<title>src/gathering/CollectionLoader/CollectionLoader.ts&#45;&gt;src/gathering/ICollectionLoader.ts</title>
<path fill="none" stroke="#000000" stroke-opacity="0.200000" d="M263.5,-208C280.34,-204.63 299.58,-200.78 316.96,-197.31"/>
<polygon fill="none" stroke="#000000" stroke-opacity="0.200000" points="317.8,-199.28 323.27,-196.05 316.97,-195.16 317.8,-199.28"/>
</g>
<!-- src/gathering/ICollectionLoader.ts&#45;&gt;src/gathering/Collection.ts -->
<g id="edge19" class="edge">
<title>src/gathering/ICollectionLoader.ts&#45;&gt;src/gathering/Collection.ts</title>
<path fill="none" stroke="#000000" stroke-opacity="0.200000" d="M407.25,-196C421.81,-199.57 438.57,-203.67 453.39,-207.3"/>
<polygon fill="none" stroke="#000000" stroke-opacity="0.200000" points="453.28,-209.44 459.61,-208.82 454.28,-205.36 453.28,-209.44"/>
</g>
<!-- src/gathering/CollectionOrganizer/CollectionOrganizer.ts -->
<g id="node11" class="node">
<title>src/gathering/CollectionOrganizer/CollectionOrganizer.ts</title>
<g id="a_node11"><a xlink:href="src/gathering/CollectionOrganizer/CollectionOrganizer.ts" xlink:title="CollectionOrganizer.ts">
<path fill="#ddfeff" stroke="black" d="M417,-402C417,-402 322,-402 322,-402 319,-402 316,-399 316,-396 316,-396 316,-390 316,-390 316,-387 319,-384 322,-384 322,-384 417,-384 417,-384 420,-384 423,-387 423,-390 423,-390 423,-396 423,-396 423,-399 420,-402 417,-402"/>
<text text-anchor="start" x="324" y="-390.8" font-family="Helvetica,sans-Serif" font-size="9.00">CollectionOrganizer.ts</text>
</a>
</g>
</g>
<!-- src/gathering/IBinderOutput.ts -->
<g id="node12" class="node">
<title>src/gathering/IBinderOutput.ts</title>
<g id="a_node12"><a xlink:href="src/gathering/IBinderOutput.ts" xlink:title="IBinderOutput.ts">
<path fill="#ddfeff" stroke="black" d="M639,-387C639,-387 568,-387 568,-387 565,-387 562,-384 562,-381 562,-381 562,-375 562,-375 562,-372 565,-369 568,-369 568,-369 639,-369 639,-369 642,-369 645,-372 645,-375 645,-375 645,-381 645,-381 645,-384 642,-387 639,-387"/>
<text text-anchor="start" x="570" y="-375.8" font-family="Helvetica,sans-Serif" font-size="9.00">IBinderOutput.ts</text>
</a>
</g>
</g>
<!-- src/gathering/CollectionOrganizer/CollectionOrganizer.ts&#45;&gt;src/gathering/IBinderOutput.ts -->
<g id="edge13" class="edge">
<title>src/gathering/CollectionOrganizer/CollectionOrganizer.ts&#45;&gt;src/gathering/IBinderOutput.ts</title>
<path fill="none" stroke="#000000" stroke-opacity="0.200000" d="M402.33,-402.02C438.46,-410.81 498.9,-421.09 549,-408 562.04,-404.59 575.26,-397.22 585.3,-390.64"/>
<polygon fill="none" stroke="#000000" stroke-opacity="0.200000" points="586.74,-392.2 590.53,-387.09 584.38,-388.72 586.74,-392.2"/>
</g>
<!-- src/gathering/ICardRepository.ts -->
<g id="node13" class="node">
<title>src/gathering/ICardRepository.ts</title>
<g id="a_node13"><a xlink:href="src/gathering/ICardRepository.ts" xlink:title="ICardRepository.ts">
<path fill="#ddfeff" stroke="black" d="M534.5,-402C534.5,-402 453.5,-402 453.5,-402 450.5,-402 447.5,-399 447.5,-396 447.5,-396 447.5,-390 447.5,-390 447.5,-387 450.5,-384 453.5,-384 453.5,-384 534.5,-384 534.5,-384 537.5,-384 540.5,-387 540.5,-390 540.5,-390 540.5,-396 540.5,-396 540.5,-399 537.5,-402 534.5,-402"/>
<text text-anchor="start" x="455.5" y="-390.8" font-family="Helvetica,sans-Serif" font-size="9.00">ICardRepository.ts</text>
</a>
</g>
</g>
<!-- src/gathering/CollectionOrganizer/CollectionOrganizer.ts&#45;&gt;src/gathering/ICardRepository.ts -->
<g id="edge14" class="edge">
<title>src/gathering/CollectionOrganizer/CollectionOrganizer.ts&#45;&gt;src/gathering/ICardRepository.ts</title>
<path fill="none" stroke="#000000" stroke-opacity="0.200000" d="M423.16,-393C429.07,-393 435.08,-393 440.98,-393"/>
<polygon fill="none" stroke="#000000" stroke-opacity="0.200000" points="441.32,-395.1 447.32,-393 441.32,-390.9 441.32,-395.1"/>
</g>
<!-- src/gathering/ICollectionOrganizer.ts -->
<g id="node14" class="node">
<title>src/gathering/ICollectionOrganizer.ts</title>
<g id="a_node14"><a xlink:href="src/gathering/ICollectionOrganizer.ts" xlink:title="ICollectionOrganizer.ts">
<path fill="#ddfeff" stroke="black" d="M543,-372C543,-372 445,-372 445,-372 442,-372 439,-369 439,-366 439,-366 439,-360 439,-360 439,-357 442,-354 445,-354 445,-354 543,-354 543,-354 546,-354 549,-357 549,-360 549,-360 549,-366 549,-366 549,-369 546,-372 543,-372"/>
<text text-anchor="start" x="447" y="-360.8" font-family="Helvetica,sans-Serif" font-size="9.00">ICollectionOrganizer.ts</text>
</a>
</g>
</g>
<!-- src/gathering/CollectionOrganizer/CollectionOrganizer.ts&#45;&gt;src/gathering/ICollectionOrganizer.ts -->
<g id="edge15" class="edge">
<title>src/gathering/CollectionOrganizer/CollectionOrganizer.ts&#45;&gt;src/gathering/ICollectionOrganizer.ts</title>
<path fill="none" stroke="#000000" stroke-opacity="0.200000" d="M413.86,-383.99C419.63,-382.7 425.47,-381.35 431,-380 438.86,-378.08 447.25,-375.88 455.22,-373.72"/>
<polygon fill="none" stroke="#000000" stroke-opacity="0.200000" points="456,-375.69 461.23,-372.08 454.89,-371.63 456,-375.69"/>
</g>
<!-- src/gathering/ICardRepository.ts&#45;&gt;src/gathering/Pack.ts -->
<g id="edge16" class="edge">
<title>src/gathering/ICardRepository.ts&#45;&gt;src/gathering/Pack.ts</title>
<path fill="none" stroke="#000000" stroke-opacity="0.200000" d="M538.46,-384C542.2,-382.33 545.77,-380.35 549,-378 555.28,-373.43 580.27,-333.43 593.75,-311.4"/>
<polygon fill="none" stroke="#000000" stroke-opacity="0.200000" points="595.58,-312.44 596.92,-306.22 592,-310.25 595.58,-312.44"/>
</g>
<!-- src/gathering/ICardRepository.ts&#45;&gt;src/gathering/IBinderOutput.ts -->
<g id="edge17" class="edge">
<title>src/gathering/ICardRepository.ts&#45;&gt;src/gathering/IBinderOutput.ts</title>
<path fill="none" stroke="#000000" stroke-opacity="0.200000" d="M540.59,-386.64C545.69,-385.93 550.89,-385.2 556,-384.49"/>
<polygon fill="none" stroke="#000000" stroke-opacity="0.200000" points="556.3,-386.57 561.95,-383.66 555.72,-382.41 556.3,-386.57"/>
</g>
<!-- src/gathering/ICollectionOrganizer.ts&#45;&gt;src/gathering/IBinderOutput.ts -->
<g id="edge20" class="edge">
<title>src/gathering/ICollectionOrganizer.ts&#45;&gt;src/gathering/IBinderOutput.ts</title>
<path fill="none" stroke="#000000" stroke-opacity="0.200000" d="M549.06,-370.54C551.21,-370.84 553.35,-371.14 555.48,-371.44"/>
<polygon fill="none" stroke="#000000" stroke-opacity="0.200000" points="555.58,-373.57 561.81,-372.32 556.16,-369.41 555.58,-373.57"/>
</g>
<!-- src/lib/userBrowsesItsCollection/userBrowsesItsCollection.ts -->
<g id="node15" class="node">
<title>src/lib/userBrowsesItsCollection/userBrowsesItsCollection.ts</title>
<g id="a_node15"><a xlink:href="src/lib/userBrowsesItsCollection/userBrowsesItsCollection.ts" xlink:title="userBrowsesItsCollection.ts">
<path fill="#ddfeff" stroke="black" d="M278,-50C278,-50 157,-50 157,-50 154,-50 151,-47 151,-44 151,-44 151,-38 151,-38 151,-35 154,-32 157,-32 157,-32 278,-32 278,-32 281,-32 284,-35 284,-38 284,-38 284,-44 284,-44 284,-47 281,-50 278,-50"/>
<text text-anchor="start" x="159" y="-38.8" font-family="Helvetica,sans-Serif" font-size="9.00">userBrowsesItsCollection.ts</text>
</a>
</g>
</g>
<!-- src/lib/userBrowsesItsCollection/userBrowsesItsCollection.ts&#45;&gt;src/gathering/IBinderOutput.ts -->
<g id="edge23" class="edge">
<title>src/lib/userBrowsesItsCollection/userBrowsesItsCollection.ts&#45;&gt;src/gathering/IBinderOutput.ts</title>
<path fill="none" stroke="#000000" stroke-opacity="0.200000" d="M284.37,-38.03C328.28,-38.76 385.97,-45.1 431,-69 500.8,-106.05 516.66,-129.9 549,-202 569.15,-246.92 545.86,-265.49 562,-312 568.71,-331.34 581.76,-351.02 591.24,-363.79"/>
<polygon fill="none" stroke="#000000" stroke-opacity="0.200000" points="589.76,-365.31 595.06,-368.83 593.11,-362.78 589.76,-365.31"/>
</g>
<!-- src/lib/userBrowsesItsCollection/userBrowsesItsCollection.ts&#45;&gt;src/gathering/ICollectionOrganizer.ts -->
<g id="edge24" class="edge">
<title>src/lib/userBrowsesItsCollection/userBrowsesItsCollection.ts&#45;&gt;src/gathering/ICollectionOrganizer.ts</title>
<path fill="none" stroke="#000000" stroke-opacity="0.200000" d="M251.5,-50.09C300.97,-65.71 392.63,-102.84 431,-172 448.49,-203.52 419.74,-303.53 439,-334 443.58,-341.24 450.61,-346.79 458.11,-351.01"/>
<polygon fill="none" stroke="#000000" stroke-opacity="0.200000" points="457.6,-353.11 463.9,-353.97 459.52,-349.37 457.6,-353.11"/>
</g>
<!-- src/lib/userEditsItsCollection/userEditsItsCollection.ts -->
<g id="node16" class="node">
<title>src/lib/userEditsItsCollection/userEditsItsCollection.ts</title>
<g id="a_node16"><a xlink:href="src/lib/userEditsItsCollection/userEditsItsCollection.ts" xlink:title="userEditsItsCollection.ts">
<path fill="#ddfeff" stroke="black" d="M270,-110C270,-110 165,-110 165,-110 162,-110 159,-107 159,-104 159,-104 159,-98 159,-98 159,-95 162,-92 165,-92 165,-92 270,-92 270,-92 273,-92 276,-95 276,-98 276,-98 276,-104 276,-104 276,-107 273,-110 270,-110"/>
<text text-anchor="start" x="167" y="-98.8" font-family="Helvetica,sans-Serif" font-size="9.00">userEditsItsCollection.ts</text>
</a>
</g>
</g>
<!-- src/lib/userEditsItsCollection/userEditsItsCollection.ts&#45;&gt;src/gathering/Collection.ts -->
<g id="edge25" class="edge">
<title>src/lib/userEditsItsCollection/userEditsItsCollection.ts&#45;&gt;src/gathering/Collection.ts</title>
<path fill="none" stroke="#000000" stroke-opacity="0.200000" d="M256.75,-110C300.41,-121.12 373.24,-142.28 431,-172 448.18,-180.84 465.82,-194.13 477.87,-203.98"/>
<polygon fill="none" stroke="#000000" stroke-opacity="0.200000" points="476.72,-205.75 482.68,-207.97 479.4,-202.52 476.72,-205.75"/>
</g>
<!-- src/lib/userEditsItsCollection/userEditsItsCollection.ts&#45;&gt;src/gathering/ICollectionEditor.ts -->
<g id="edge26" class="edge">
<title>src/lib/userEditsItsCollection/userEditsItsCollection.ts&#45;&gt;src/gathering/ICollectionEditor.ts</title>
<path fill="none" stroke="#000000" stroke-opacity="0.200000" d="M229.08,-110.2C246.64,-126.07 281.69,-160.44 300,-197 307.15,-211.27 298.04,-219.54 308,-232 313.91,-239.39 322.16,-245.01 330.67,-249.24"/>
<polygon fill="none" stroke="#000000" stroke-opacity="0.200000" points="330.25,-251.36 336.58,-251.95 332.01,-247.54 330.25,-251.36"/>
</g>
<!-- src/lib/userEditsItsCollection/userEditsItsCollection.ts&#45;&gt;src/gathering/ICollectionOutput.ts -->
<g id="edge27" class="edge">
<title>src/lib/userEditsItsCollection/userEditsItsCollection.ts&#45;&gt;src/gathering/ICollectionOutput.ts</title>
<path fill="none" stroke="#000000" stroke-opacity="0.200000" d="M223.9,-110.2C236.16,-130.22 268.12,-177.86 308,-202 310.24,-203.36 312.6,-204.59 315.03,-205.71"/>
<polygon fill="none" stroke="#000000" stroke-opacity="0.200000" points="314.47,-207.75 320.81,-208.13 316.09,-203.88 314.47,-207.75"/>
</g>
<!-- src/routes/collection/+page.svelte.ts -->
<g id="node17" class="node">
<title>src/routes/collection/+page.svelte.ts</title>
<g id="a_node17"><a xlink:href="src/routes/collection/+page.svelte.ts" xlink:title="+page.svelte.ts">
<path fill="#ddfeff" stroke="black" d="M105,-50C105,-50 38,-50 38,-50 35,-50 32,-47 32,-44 32,-44 32,-38 32,-38 32,-35 35,-32 38,-32 38,-32 105,-32 105,-32 108,-32 111,-35 111,-38 111,-38 111,-44 111,-44 111,-47 108,-50 105,-50"/>
<text text-anchor="start" x="40" y="-38.8" font-family="Helvetica,sans-Serif" font-size="9.00">+page.svelte.ts</text>
</a>
</g>
</g>
<!-- src/routes/collection/+page.svelte.ts&#45;&gt;src/lib/userBrowsesItsCollection/userBrowsesItsCollection.ts -->
<g id="edge28" class="edge">
<title>src/routes/collection/+page.svelte.ts&#45;&gt;src/lib/userBrowsesItsCollection/userBrowsesItsCollection.ts</title>
<path fill="none" stroke="#000000" stroke-width="2" stroke-opacity="0.200000" d="M111.09,-41C121.52,-41 133.15,-41 144.77,-41"/>
<polygon fill="#000000" fill-opacity="0.200000" stroke="#000000" stroke-width="2" stroke-opacity="0.200000" points="144.84,-43.1 150.84,-41 144.84,-38.9 144.84,-43.1"/>
</g>
</g>
</svg>
