<?xml version="1.0" encoding="UTF-8" standalone="no"?>
<!DOCTYPE svg PUBLIC "-//W3C//DTD SVG 1.1//EN"
 "http://www.w3.org/Graphics/SVG/1.1/DTD/svg11.dtd">
<!-- Generated by graphviz version 2.50.0 (20211204.2007)
 -->
<!-- Title: dependency&#45;cruiser output Pages: 1 -->
<svg width="624pt" height="570pt"
 viewBox="0.00 0.00 624.00 570.00" xmlns="http://www.w3.org/2000/svg" xmlns:xlink="http://www.w3.org/1999/xlink">
<g id="graph0" class="graph" transform="scale(1 1) rotate(0) translate(4 566)">
<title>dependency&#45;cruiser output</title>
<polygon fill="white" stroke="transparent" points="-4,4 -4,-566 620,-566 620,4 -4,4"/>
<g id="clust1" class="cluster">
<title>cluster_src</title>
<path fill="#ffffff" stroke="black" stroke-width="2" d="M20,-8C20,-8 596,-8 596,-8 602,-8 608,-14 608,-20 608,-20 608,-542 608,-542 608,-548 602,-554 596,-554 596,-554 20,-554 20,-554 14,-554 8,-548 8,-542 8,-542 8,-20 8,-20 8,-14 14,-8 20,-8"/>
<text text-anchor="middle" x="308" y="-542.8" font-family="Helvetica,sans-Serif" font-weight="bold" font-size="9.00">src</text>
</g>
<g id="clust2" class="cluster">
<title>cluster_src/gathering</title>
<path fill="#ffffff" stroke="black" stroke-width="2" d="M158.5,-170C158.5,-170 588,-170 588,-170 594,-170 600,-176 600,-182 600,-182 600,-516 600,-516 600,-522 594,-528 588,-528 588,-528 158.5,-528 158.5,-528 152.5,-528 146.5,-522 146.5,-516 146.5,-516 146.5,-182 146.5,-182 146.5,-176 152.5,-170 158.5,-170"/>
<text text-anchor="middle" x="373.25" y="-516.8" font-family="Helvetica,sans-Serif" font-weight="bold" font-size="9.00">gathering</text>
</g>
<g id="clust6" class="cluster">
<title>cluster_src/gathering/CollectionOrganizer</title>
<path fill="#ffffff" stroke="black" stroke-width="2" d="M169,-243C169,-243 268,-243 268,-243 274,-243 280,-249 280,-255 280,-255 280,-283 280,-283 280,-289 274,-295 268,-295 268,-295 169,-295 169,-295 163,-295 157,-289 157,-283 157,-283 157,-255 157,-255 157,-249 163,-243 169,-243"/>
<text text-anchor="middle" x="218.5" y="-283.8" font-family="Helvetica,sans-Serif" font-weight="bold" font-size="9.00">CollectionOrganizer</text>
</g>
<g id="clust4" class="cluster">
<title>cluster_src/gathering/CollectionEntity</title>
<path fill="#ffffff" stroke="black" stroke-width="2" d="M323.5,-412C323.5,-412 404.5,-412 404.5,-412 410.5,-412 416.5,-418 416.5,-424 416.5,-424 416.5,-452 416.5,-452 416.5,-458 410.5,-464 404.5,-464 404.5,-464 323.5,-464 323.5,-464 317.5,-464 311.5,-458 311.5,-452 311.5,-452 311.5,-424 311.5,-424 311.5,-418 317.5,-412 323.5,-412"/>
<text text-anchor="middle" x="364" y="-452.8" font-family="Helvetica,sans-Serif" font-weight="bold" font-size="9.00">CollectionEntity</text>
</g>
<g id="clust3" class="cluster">
<title>cluster_src/gathering/CollectionEditor</title>
<path fill="#ffffff" stroke="black" stroke-width="2" d="M166.5,-420C166.5,-420 270.5,-420 270.5,-420 276.5,-420 282.5,-426 282.5,-432 282.5,-432 282.5,-490 282.5,-490 282.5,-496 276.5,-502 270.5,-502 270.5,-502 166.5,-502 166.5,-502 160.5,-502 154.5,-496 154.5,-490 154.5,-490 154.5,-432 154.5,-432 154.5,-426 160.5,-420 166.5,-420"/>
<text text-anchor="middle" x="218.5" y="-490.8" font-family="Helvetica,sans-Serif" font-weight="bold" font-size="9.00">CollectionEditor</text>
</g>
<g id="clust5" class="cluster">
<title>cluster_src/gathering/CollectionLoader</title>
<path fill="#ffffff" stroke="black" stroke-width="2" d="M174,-333C174,-333 263,-333 263,-333 269,-333 275,-339 275,-345 275,-345 275,-373 275,-373 275,-379 269,-385 263,-385 263,-385 174,-385 174,-385 168,-385 162,-379 162,-373 162,-373 162,-345 162,-345 162,-339 168,-333 174,-333"/>
<text text-anchor="middle" x="218.5" y="-373.8" font-family="Helvetica,sans-Serif" font-weight="bold" font-size="9.00">CollectionLoader</text>
</g>
<g id="clust7" class="cluster">
<title>cluster_src/lib</title>
<path fill="#ffffff" stroke="black" stroke-width="2" d="M148,-16C148,-16 289,-16 289,-16 295,-16 301,-22 301,-28 301,-28 301,-150 301,-150 301,-156 295,-162 289,-162 289,-162 148,-162 148,-162 142,-162 136,-156 136,-150 136,-150 136,-28 136,-28 136,-22 142,-16 148,-16"/>
<text text-anchor="middle" x="218.5" y="-150.8" font-family="Helvetica,sans-Serif" font-weight="bold" font-size="9.00">lib</text>
</g>
<g id="clust8" class="cluster">
<title>cluster_src/lib/userBrowsesItsCollection</title>
<path fill="#ffffff" stroke="black" stroke-width="2" d="M156,-24C156,-24 281,-24 281,-24 287,-24 293,-30 293,-36 293,-36 293,-64 293,-64 293,-70 287,-76 281,-76 281,-76 156,-76 156,-76 150,-76 144,-70 144,-64 144,-64 144,-36 144,-36 144,-30 150,-24 156,-24"/>
<text text-anchor="middle" x="218.5" y="-64.8" font-family="Helvetica,sans-Serif" font-weight="bold" font-size="9.00">userBrowsesItsCollection</text>
</g>
<g id="clust9" class="cluster">
<title>cluster_src/lib/userEditsItsCollection</title>
<path fill="#ffffff" stroke="black" stroke-width="2" d="M164,-84C164,-84 273,-84 273,-84 279,-84 285,-90 285,-96 285,-96 285,-124 285,-124 285,-130 279,-136 273,-136 273,-136 164,-136 164,-136 158,-136 152,-130 152,-124 152,-124 152,-96 152,-96 152,-90 158,-84 164,-84"/>
<text text-anchor="middle" x="218.5" y="-124.8" font-family="Helvetica,sans-Serif" font-weight="bold" font-size="9.00">userEditsItsCollection</text>
</g>
<g id="clust10" class="cluster">
<title>cluster_src/routes</title>
<path fill="#ffffff" stroke="black" stroke-width="2" d="M28,-89C28,-89 116,-89 116,-89 122,-89 128,-95 128,-101 128,-101 128,-283 128,-283 128,-289 122,-295 116,-295 116,-295 28,-295 28,-295 22,-295 16,-289 16,-283 16,-283 16,-101 16,-101 16,-95 22,-89 28,-89"/>
<text text-anchor="middle" x="72" y="-283.8" font-family="Helvetica,sans-Serif" font-weight="bold" font-size="9.00">routes</text>
</g>
<g id="clust11" class="cluster">
<title>cluster_src/routes/cards</title>
<path fill="#ffffff" stroke="black" stroke-width="2" d="M36,-217C36,-217 108,-217 108,-217 114,-217 120,-223 120,-229 120,-229 120,-257 120,-257 120,-263 114,-269 108,-269 108,-269 36,-269 36,-269 30,-269 24,-263 24,-257 24,-257 24,-229 24,-229 24,-223 30,-217 36,-217"/>
<text text-anchor="middle" x="72" y="-257.8" font-family="Helvetica,sans-Serif" font-weight="bold" font-size="9.00">cards</text>
</g>
<g id="clust13" class="cluster">
<title>cluster_src/routes/packs</title>
<path fill="#ffffff" stroke="black" stroke-width="2" d="M36,-157C36,-157 108,-157 108,-157 114,-157 120,-163 120,-169 120,-169 120,-197 120,-197 120,-203 114,-209 108,-209 108,-209 36,-209 36,-209 30,-209 24,-203 24,-197 24,-197 24,-169 24,-169 24,-163 30,-157 36,-157"/>
<text text-anchor="middle" x="72" y="-197.8" font-family="Helvetica,sans-Serif" font-weight="bold" font-size="9.00">packs</text>
</g>
<g id="clust12" class="cluster">
<title>cluster_src/routes/collection</title>
<path fill="#ffffff" stroke="black" stroke-width="2" d="M36.5,-97C36.5,-97 107.5,-97 107.5,-97 113.5,-97 119.5,-103 119.5,-109 119.5,-109 119.5,-137 119.5,-137 119.5,-143 113.5,-149 107.5,-149 107.5,-149 36.5,-149 36.5,-149 30.5,-149 24.5,-143 24.5,-137 24.5,-137 24.5,-109 24.5,-109 24.5,-103 30.5,-97 36.5,-97"/>
<text text-anchor="middle" x="72" y="-137.8" font-family="Helvetica,sans-Serif" font-weight="bold" font-size="9.00">collection</text>
</g>
<!-- src/gathering/Collection.ts -->
<g id="node1" class="node">
<title>src/gathering/Collection.ts</title>
<g id="a_node1"><a xlink:href="src/gathering/Collection.ts" xlink:title="Collection.ts">
<path fill="#ddfeff" stroke="black" d="M506.5,-344C506.5,-344 450.5,-344 450.5,-344 447.5,-344 444.5,-341 444.5,-338 444.5,-338 444.5,-332 444.5,-332 444.5,-329 447.5,-326 450.5,-326 450.5,-326 506.5,-326 506.5,-326 509.5,-326 512.5,-329 512.5,-332 512.5,-332 512.5,-338 512.5,-338 512.5,-341 509.5,-344 506.5,-344"/>
<text text-anchor="start" x="452.5" y="-332.8" font-family="Helvetica,sans-Serif" font-size="9.00">Collection.ts</text>
</a>
</g>
</g>
<!-- src/gathering/Pack.ts -->
<g id="node2" class="node">
<title>src/gathering/Pack.ts</title>
<g id="a_node2"><a xlink:href="src/gathering/Pack.ts" xlink:title="Pack.ts">
<path fill="#ddfeff" stroke="black" d="M586,-455C586,-455 544,-455 544,-455 541,-455 538,-452 538,-449 538,-449 538,-443 538,-443 538,-440 541,-437 544,-437 544,-437 586,-437 586,-437 589,-437 592,-440 592,-443 592,-443 592,-449 592,-449 592,-452 589,-455 586,-455"/>
<text text-anchor="start" x="549.5" y="-443.8" font-family="Helvetica,sans-Serif" font-size="9.00">Pack.ts</text>
</a>
</g>
</g>
<!-- src/gathering/Collection.ts&#45;&gt;src/gathering/Pack.ts -->
<g id="edge1" class="edge">
<title>src/gathering/Collection.ts&#45;&gt;src/gathering/Pack.ts</title>
<path fill="none" stroke="#000000" stroke-opacity="0.200000" d="M486.41,-344.08C501.15,-363.43 535.71,-408.84 553.3,-431.95"/>
<polygon fill="none" stroke="#000000" stroke-opacity="0.200000" points="551.68,-433.29 556.99,-436.79 555.03,-430.74 551.68,-433.29"/>
</g>
<!-- src/gathering/CollectionEditor/CollectionEditor.ts -->
<g id="node3" class="node">
<title>src/gathering/CollectionEditor/CollectionEditor.ts</title>
<g id="a_node3"><a xlink:href="src/gathering/CollectionEditor/CollectionEditor.ts" xlink:title="CollectionEditor.ts">
<path fill="#ddfeff" stroke="black" d="M258.5,-446C258.5,-446 178.5,-446 178.5,-446 175.5,-446 172.5,-443 172.5,-440 172.5,-440 172.5,-434 172.5,-434 172.5,-431 175.5,-428 178.5,-428 178.5,-428 258.5,-428 258.5,-428 261.5,-428 264.5,-431 264.5,-434 264.5,-434 264.5,-440 264.5,-440 264.5,-443 261.5,-446 258.5,-446"/>
<text text-anchor="start" x="180.5" y="-434.8" font-family="Helvetica,sans-Serif" font-size="9.00">CollectionEditor.ts</text>
</a>
</g>
</g>
<!-- src/gathering/CollectionEditor/CollectionEditor.ts&#45;&gt;src/gathering/Pack.ts -->
<g id="edge4" class="edge">
<title>src/gathering/CollectionEditor/CollectionEditor.ts&#45;&gt;src/gathering/Pack.ts</title>
<path fill="none" stroke="#000000" stroke-opacity="0.200000" d="M264.68,-438.1C277.37,-440.23 290.55,-444.36 301,-452 307.1,-456.46 302.52,-463.11 309,-467 329.96,-479.58 394.71,-469.77 419,-467 424.89,-466.33 426.17,-465.07 432,-464 465.7,-457.83 504.59,-452.77 531.39,-449.61"/>
<polygon fill="none" stroke="#000000" stroke-opacity="0.200000" points="531.87,-451.66 537.59,-448.88 531.39,-447.49 531.87,-451.66"/>
</g>
<!-- src/gathering/ICollectionEditor.ts -->
<g id="node4" class="node">
<title>src/gathering/ICollectionEditor.ts</title>
<g id="a_node4"><a xlink:href="src/gathering/ICollectionEditor.ts" xlink:title="ICollectionEditor.ts">
<path fill="#ddfeff" stroke="black" d="M405,-404C405,-404 323,-404 323,-404 320,-404 317,-401 317,-398 317,-398 317,-392 317,-392 317,-389 320,-386 323,-386 323,-386 405,-386 405,-386 408,-386 411,-389 411,-392 411,-392 411,-398 411,-398 411,-401 408,-404 405,-404"/>
<text text-anchor="start" x="325" y="-392.8" font-family="Helvetica,sans-Serif" font-size="9.00">ICollectionEditor.ts</text>
</a>
</g>
</g>
<!-- src/gathering/CollectionEditor/CollectionEditor.ts&#45;&gt;src/gathering/ICollectionEditor.ts -->
<g id="edge2" class="edge">
<title>src/gathering/CollectionEditor/CollectionEditor.ts&#45;&gt;src/gathering/ICollectionEditor.ts</title>
<path fill="none" stroke="#000000" stroke-opacity="0.200000" d="M247.21,-427.94C264.84,-422.28 288.18,-414.95 309,-409 312.94,-407.87 317.06,-406.74 321.18,-405.62"/>
<polygon fill="none" stroke="#000000" stroke-opacity="0.200000" points="321.95,-407.59 327.2,-404.01 320.87,-403.53 321.95,-407.59"/>
</g>
<!-- src/gathering/ICollectionOutput.ts -->
<g id="node5" class="node">
<title>src/gathering/ICollectionOutput.ts</title>
<g id="a_node5"><a xlink:href="src/gathering/ICollectionOutput.ts" xlink:title="ICollectionOutput.ts">
<path fill="#ddfeff" stroke="black" d="M406.5,-374C406.5,-374 321.5,-374 321.5,-374 318.5,-374 315.5,-371 315.5,-368 315.5,-368 315.5,-362 315.5,-362 315.5,-359 318.5,-356 321.5,-356 321.5,-356 406.5,-356 406.5,-356 409.5,-356 412.5,-359 412.5,-362 412.5,-362 412.5,-368 412.5,-368 412.5,-371 409.5,-374 406.5,-374"/>
<text text-anchor="start" x="323.5" y="-362.8" font-family="Helvetica,sans-Serif" font-size="9.00">ICollectionOutput.ts</text>
</a>
</g>
</g>
<!-- src/gathering/CollectionEditor/CollectionEditor.ts&#45;&gt;src/gathering/ICollectionOutput.ts -->
<g id="edge3" class="edge">
<title>src/gathering/CollectionEditor/CollectionEditor.ts&#45;&gt;src/gathering/ICollectionOutput.ts</title>
<path fill="none" stroke="#000000" stroke-opacity="0.200000" d="M237.48,-427.84C254.55,-418.77 280.58,-403.96 301,-388 304.96,-384.9 304.66,-382.53 309,-380 311.22,-378.7 313.56,-377.52 315.97,-376.43"/>
<polygon fill="none" stroke="#000000" stroke-opacity="0.200000" points="316.95,-378.29 321.69,-374.06 315.34,-374.41 316.95,-378.29"/>
</g>
<!-- src/gathering/ICollectionEditor.ts&#45;&gt;src/gathering/Pack.ts -->
<g id="edge18" class="edge">
<title>src/gathering/ICollectionEditor.ts&#45;&gt;src/gathering/Pack.ts</title>
<path fill="none" stroke="#000000" stroke-opacity="0.200000" d="M411.33,-403.56C443.52,-409.96 487.26,-419.56 525,-431 528.64,-432.1 532.43,-433.39 536.16,-434.73"/>
<polygon fill="none" stroke="#000000" stroke-opacity="0.200000" points="535.57,-436.75 541.92,-436.87 537.03,-432.81 535.57,-436.75"/>
</g>
<!-- src/gathering/ICollectionOutput.ts&#45;&gt;src/gathering/Collection.ts -->
<g id="edge21" class="edge">
<title>src/gathering/ICollectionOutput.ts&#45;&gt;src/gathering/Collection.ts</title>
<path fill="none" stroke="#000000" stroke-opacity="0.200000" d="M398.75,-356C411.21,-352.68 425.44,-348.88 438.34,-345.44"/>
<polygon fill="none" stroke="#000000" stroke-opacity="0.200000" points="438.9,-347.47 444.16,-343.89 437.82,-343.41 438.9,-347.47"/>
</g>
<!-- src/gathering/CollectionEditor/PackRepositoryMock.ts -->
<g id="node6" class="node">
<title>src/gathering/CollectionEditor/PackRepositoryMock.ts</title>
<g id="a_node6"><a xlink:href="src/gathering/CollectionEditor/PackRepositoryMock.ts" xlink:title="PackRepositoryMock.ts">
<path fill="#ddfeff" stroke="black" d="M268.5,-476C268.5,-476 168.5,-476 168.5,-476 165.5,-476 162.5,-473 162.5,-470 162.5,-470 162.5,-464 162.5,-464 162.5,-461 165.5,-458 168.5,-458 168.5,-458 268.5,-458 268.5,-458 271.5,-458 274.5,-461 274.5,-464 274.5,-464 274.5,-470 274.5,-470 274.5,-473 271.5,-476 268.5,-476"/>
<text text-anchor="start" x="170.5" y="-464.8" font-family="Helvetica,sans-Serif" font-size="9.00">PackRepositoryMock.ts</text>
</a>
</g>
</g>
<!-- src/gathering/CollectionEditor/PackRepositoryMock.ts&#45;&gt;src/gathering/Pack.ts -->
<g id="edge6" class="edge">
<title>src/gathering/CollectionEditor/PackRepositoryMock.ts&#45;&gt;src/gathering/Pack.ts</title>
<path fill="none" stroke="#000000" stroke-opacity="0.200000" d="M241.2,-476.12C293.16,-496.47 427.64,-540.34 525,-494 539.37,-487.16 550.17,-472.16 556.72,-460.73"/>
<polygon fill="none" stroke="#000000" stroke-opacity="0.200000" points="558.73,-461.42 559.75,-455.15 555.04,-459.42 558.73,-461.42"/>
</g>
<!-- src/gathering/IPackRepository.ts -->
<g id="node7" class="node">
<title>src/gathering/IPackRepository.ts</title>
<g id="a_node7"><a xlink:href="src/gathering/IPackRepository.ts" xlink:title="IPackRepository.ts">
<path fill="#ddfeff" stroke="black" d="M519,-488C519,-488 438,-488 438,-488 435,-488 432,-485 432,-482 432,-482 432,-476 432,-476 432,-473 435,-470 438,-470 438,-470 519,-470 519,-470 522,-470 525,-473 525,-476 525,-476 525,-482 525,-482 525,-485 522,-488 519,-488"/>
<text text-anchor="start" x="440" y="-476.8" font-family="Helvetica,sans-Serif" font-size="9.00">IPackRepository.ts</text>
</a>
</g>
</g>
<!-- src/gathering/CollectionEditor/PackRepositoryMock.ts&#45;&gt;src/gathering/IPackRepository.ts -->
<g id="edge5" class="edge">
<title>src/gathering/CollectionEditor/PackRepositoryMock.ts&#45;&gt;src/gathering/IPackRepository.ts</title>
<path fill="none" stroke="#000000" stroke-opacity="0.200000" d="M274.81,-474.05C286.1,-475.24 297.92,-476.32 309,-477 348.03,-479.41 392.25,-479.84 425.59,-479.71"/>
<polygon fill="none" stroke="#000000" stroke-opacity="0.200000" points="425.7,-481.81 431.68,-479.68 425.67,-477.61 425.7,-481.81"/>
</g>
<!-- src/gathering/IPackRepository.ts&#45;&gt;src/gathering/Pack.ts -->
<g id="edge22" class="edge">
<title>src/gathering/IPackRepository.ts&#45;&gt;src/gathering/Pack.ts</title>
<path fill="none" stroke="#000000" stroke-opacity="0.200000" d="M502.59,-469.98C512.65,-466.05 524.55,-461.41 535.18,-457.25"/>
<polygon fill="none" stroke="#000000" stroke-opacity="0.200000" points="536.11,-459.15 540.94,-455.01 534.59,-455.23 536.11,-459.15"/>
</g>
<!-- src/gathering/CollectionEntity/CollectionEntity.ts -->
<g id="node8" class="node">
<title>src/gathering/CollectionEntity/CollectionEntity.ts</title>
<g id="a_node8"><a xlink:href="src/gathering/CollectionEntity/CollectionEntity.ts" xlink:title="CollectionEntity.ts">
<path fill="#ddfeff" stroke="black" d="M402.5,-438C402.5,-438 325.5,-438 325.5,-438 322.5,-438 319.5,-435 319.5,-432 319.5,-432 319.5,-426 319.5,-426 319.5,-423 322.5,-420 325.5,-420 325.5,-420 402.5,-420 402.5,-420 405.5,-420 408.5,-423 408.5,-426 408.5,-426 408.5,-432 408.5,-432 408.5,-435 405.5,-438 402.5,-438"/>
<text text-anchor="start" x="327.5" y="-426.8" font-family="Helvetica,sans-Serif" font-size="9.00">CollectionEntity.ts</text>
</a>
</g>
</g>
<!-- src/gathering/CollectionEntity/CollectionEntity.ts&#45;&gt;src/gathering/Pack.ts -->
<g id="edge8" class="edge">
<title>src/gathering/CollectionEntity/CollectionEntity.ts&#45;&gt;src/gathering/Pack.ts</title>
<path fill="none" stroke="#000000" stroke-opacity="0.200000" d="M408.67,-432.73C445.83,-435.91 498.35,-440.39 531.79,-443.25"/>
<polygon fill="none" stroke="#000000" stroke-opacity="0.200000" points="531.65,-445.34 537.8,-443.76 532,-441.16 531.65,-445.34"/>
</g>
<!-- src/gathering/CollectionEntity/CollectionEntity.ts&#45;&gt;src/gathering/IPackRepository.ts -->
<g id="edge7" class="edge">
<title>src/gathering/CollectionEntity/CollectionEntity.ts&#45;&gt;src/gathering/IPackRepository.ts</title>
<path fill="none" stroke="#000000" stroke-opacity="0.200000" d="M408.16,-438.03C411.87,-439.21 415.54,-440.54 419,-442 433.97,-448.33 449.46,-458.3 460.73,-466.3"/>
<polygon fill="none" stroke="#000000" stroke-opacity="0.200000" points="459.5,-468.01 465.6,-469.82 461.96,-464.6 459.5,-468.01"/>
</g>
<!-- src/gathering/CollectionLoader/CollectionLoader.ts -->
<g id="node9" class="node">
<title>src/gathering/CollectionLoader/CollectionLoader.ts</title>
<g id="a_node9"><a xlink:href="src/gathering/CollectionLoader/CollectionLoader.ts" xlink:title="CollectionLoader.ts">
<path fill="#ddfeff" stroke="black" d="M261,-359C261,-359 176,-359 176,-359 173,-359 170,-356 170,-353 170,-353 170,-347 170,-347 170,-344 173,-341 176,-341 176,-341 261,-341 261,-341 264,-341 267,-344 267,-347 267,-347 267,-353 267,-353 267,-356 264,-359 261,-359"/>
<text text-anchor="start" x="178" y="-347.8" font-family="Helvetica,sans-Serif" font-size="9.00">CollectionLoader.ts</text>
</a>
</g>
</g>
<!-- src/gathering/CollectionLoader/CollectionLoader.ts&#45;&gt;src/gathering/Collection.ts -->
<g id="edge9" class="edge">
<title>src/gathering/CollectionLoader/CollectionLoader.ts&#45;&gt;src/gathering/Collection.ts</title>
<path fill="none" stroke="#000000" stroke-opacity="0.200000" d="M240.35,-340.86C258.18,-333.58 284.74,-323.96 309,-320 357.25,-312.13 370.5,-313.88 419,-320 426.56,-320.95 434.54,-322.57 442.09,-324.41"/>
<polygon fill="none" stroke="#000000" stroke-opacity="0.200000" points="441.99,-326.55 448.32,-325.98 443.02,-322.47 441.99,-326.55"/>
</g>
<!-- src/gathering/CollectionLoader/CollectionLoader.ts&#45;&gt;src/gathering/ICollectionEditor.ts -->
<g id="edge10" class="edge">
<title>src/gathering/CollectionLoader/CollectionLoader.ts&#45;&gt;src/gathering/ICollectionEditor.ts</title>
<path fill="none" stroke="#000000" stroke-opacity="0.200000" d="M245.23,-359.02C263.06,-365.18 287.38,-373.38 309,-380 313.75,-381.45 318.75,-382.92 323.71,-384.35"/>
<polygon fill="none" stroke="#000000" stroke-opacity="0.200000" points="323.16,-386.37 329.51,-385.99 324.31,-382.33 323.16,-386.37"/>
</g>
<!-- src/gathering/CollectionLoader/CollectionLoader.ts&#45;&gt;src/gathering/ICollectionOutput.ts -->
<g id="edge12" class="edge">
<title>src/gathering/CollectionLoader/CollectionLoader.ts&#45;&gt;src/gathering/ICollectionOutput.ts</title>
<path fill="none" stroke="#000000" stroke-opacity="0.200000" d="M267.28,-354.99C280.72,-356.4 295.42,-357.94 309.18,-359.37"/>
<polygon fill="none" stroke="#000000" stroke-opacity="0.200000" points="309.24,-361.49 315.43,-360.03 309.68,-357.31 309.24,-361.49"/>
</g>
<!-- src/gathering/ICollectionLoader.ts -->
<g id="node10" class="node">
<title>src/gathering/ICollectionLoader.ts</title>
<g id="a_node10"><a xlink:href="src/gathering/ICollectionLoader.ts" xlink:title="ICollectionLoader.ts">
<path fill="#ddfeff" stroke="black" d="M407.5,-344C407.5,-344 320.5,-344 320.5,-344 317.5,-344 314.5,-341 314.5,-338 314.5,-338 314.5,-332 314.5,-332 314.5,-329 317.5,-326 320.5,-326 320.5,-326 407.5,-326 407.5,-326 410.5,-326 413.5,-329 413.5,-332 413.5,-332 413.5,-338 413.5,-338 413.5,-341 410.5,-344 407.5,-344"/>
<text text-anchor="start" x="322.5" y="-332.8" font-family="Helvetica,sans-Serif" font-size="9.00">ICollectionLoader.ts</text>
</a>
</g>
</g>
<!-- src/gathering/CollectionLoader/CollectionLoader.ts&#45;&gt;src/gathering/ICollectionLoader.ts -->
<g id="edge11" class="edge">
<title>src/gathering/CollectionLoader/CollectionLoader.ts&#45;&gt;src/gathering/ICollectionLoader.ts</title>
<path fill="none" stroke="#000000" stroke-opacity="0.200000" d="M267.28,-345.01C280.43,-343.63 294.8,-342.13 308.31,-340.72"/>
<polygon fill="none" stroke="#000000" stroke-opacity="0.200000" points="308.7,-342.79 314.45,-340.08 308.26,-338.61 308.7,-342.79"/>
</g>
<!-- src/gathering/ICollectionLoader.ts&#45;&gt;src/gathering/Collection.ts -->
<g id="edge19" class="edge">
<title>src/gathering/ICollectionLoader.ts&#45;&gt;src/gathering/Collection.ts</title>
<path fill="none" stroke="#000000" stroke-opacity="0.200000" d="M413.69,-335C421.76,-335 430.05,-335 437.86,-335"/>
<polygon fill="none" stroke="#000000" stroke-opacity="0.200000" points="438.3,-337.1 444.3,-335 438.3,-332.9 438.3,-337.1"/>
</g>
<!-- src/gathering/CollectionOrganizer/CollectionOrganizer.ts -->
<g id="node11" class="node">
<title>src/gathering/CollectionOrganizer/CollectionOrganizer.ts</title>
<g id="a_node11"><a xlink:href="src/gathering/CollectionOrganizer/CollectionOrganizer.ts" xlink:title="CollectionOrganizer.ts">
<path fill="#ddfeff" stroke="black" d="M266,-269C266,-269 171,-269 171,-269 168,-269 165,-266 165,-263 165,-263 165,-257 165,-257 165,-254 168,-251 171,-251 171,-251 266,-251 266,-251 269,-251 272,-254 272,-257 272,-257 272,-263 272,-263 272,-266 269,-269 266,-269"/>
<text text-anchor="start" x="173" y="-257.8" font-family="Helvetica,sans-Serif" font-size="9.00">CollectionOrganizer.ts</text>
</a>
</g>
</g>
<!-- src/gathering/ahdb.cards.json -->
<g id="node12" class="node">
<title>src/gathering/ahdb.cards.json</title>
<g id="a_node12"><a xlink:href="src/gathering/ahdb.cards.json" xlink:title="ahdb.cards.json">
<path fill="#ffee44" stroke="black" d="M399.5,-256C399.5,-256 328.5,-256 328.5,-256 325.5,-256 322.5,-253 322.5,-250 322.5,-250 322.5,-244 322.5,-244 322.5,-241 325.5,-238 328.5,-238 328.5,-238 399.5,-238 399.5,-238 402.5,-238 405.5,-241 405.5,-244 405.5,-244 405.5,-250 405.5,-250 405.5,-253 402.5,-256 399.5,-256"/>
<text text-anchor="start" x="330.5" y="-244.8" font-family="Helvetica,sans-Serif" font-size="9.00">ahdb.cards.json</text>
</a>
</g>
</g>
<!-- src/gathering/CollectionOrganizer/CollectionOrganizer.ts&#45;&gt;src/gathering/ahdb.cards.json -->
<g id="edge13" class="edge">
<title>src/gathering/CollectionOrganizer/CollectionOrganizer.ts&#45;&gt;src/gathering/ahdb.cards.json</title>
<path fill="none" stroke="#000000" stroke-width="2" stroke-opacity="0.200000" d="M272.12,-255.23C286.41,-253.94 301.79,-252.55 315.76,-251.28"/>
<polygon fill="#000000" fill-opacity="0.200000" stroke="#000000" stroke-width="2" stroke-opacity="0.200000" points="316.29,-253.34 322.07,-250.71 315.91,-249.16 316.29,-253.34"/>
</g>
<!-- src/gathering/ahdb.packs.json -->
<g id="node13" class="node">
<title>src/gathering/ahdb.packs.json</title>
<g id="a_node13"><a xlink:href="src/gathering/ahdb.packs.json" xlink:title="ahdb.packs.json">
<path fill="#ffee44" stroke="black" d="M400.5,-226C400.5,-226 327.5,-226 327.5,-226 324.5,-226 321.5,-223 321.5,-220 321.5,-220 321.5,-214 321.5,-214 321.5,-211 324.5,-208 327.5,-208 327.5,-208 400.5,-208 400.5,-208 403.5,-208 406.5,-211 406.5,-214 406.5,-214 406.5,-220 406.5,-220 406.5,-223 403.5,-226 400.5,-226"/>
<text text-anchor="start" x="329.5" y="-214.8" font-family="Helvetica,sans-Serif" font-size="9.00">ahdb.packs.json</text>
</a>
</g>
</g>
<!-- src/gathering/CollectionOrganizer/CollectionOrganizer.ts&#45;&gt;src/gathering/ahdb.packs.json -->
<g id="edge14" class="edge">
<title>src/gathering/CollectionOrganizer/CollectionOrganizer.ts&#45;&gt;src/gathering/ahdb.packs.json</title>
<path fill="none" stroke="#000000" stroke-width="2" stroke-opacity="0.200000" d="M272.27,-258.79C282.48,-256.64 292.6,-252.99 301,-247 307.15,-242.61 303.11,-236.73 309,-232 311.09,-230.32 313.36,-228.83 315.74,-227.51"/>
<polygon fill="#000000" fill-opacity="0.200000" stroke="#000000" stroke-width="2" stroke-opacity="0.200000" points="317,-229.23 321.47,-224.71 315.16,-225.45 317,-229.23"/>
</g>
<!-- src/gathering/couz.json -->
<g id="node14" class="node">
<title>src/gathering/couz.json</title>
<g id="a_node14"><a xlink:href="src/gathering/couz.json" xlink:title="couz.json">
<path fill="#ffee44" stroke="black" d="M386,-286C386,-286 342,-286 342,-286 339,-286 336,-283 336,-280 336,-280 336,-274 336,-274 336,-271 339,-268 342,-268 342,-268 386,-268 386,-268 389,-268 392,-271 392,-274 392,-274 392,-280 392,-280 392,-283 389,-286 386,-286"/>
<text text-anchor="start" x="344" y="-274.8" font-family="Helvetica,sans-Serif" font-size="9.00">couz.json</text>
</a>
</g>
</g>
<!-- src/gathering/CollectionOrganizer/CollectionOrganizer.ts&#45;&gt;src/gathering/couz.json -->
<g id="edge15" class="edge">
<title>src/gathering/CollectionOrganizer/CollectionOrganizer.ts&#45;&gt;src/gathering/couz.json</title>
<path fill="none" stroke="#000000" stroke-width="2" stroke-opacity="0.200000" d="M272.12,-266.23C291.35,-268.51 312.57,-271.03 329.66,-273.05"/>
<polygon fill="#000000" fill-opacity="0.200000" stroke="#000000" stroke-width="2" stroke-opacity="0.200000" points="329.55,-275.15 335.76,-273.77 330.05,-270.98 329.55,-275.15"/>
</g>
<!-- src/gathering/IBinderOutput.ts -->
<g id="node15" class="node">
<title>src/gathering/IBinderOutput.ts</title>
<g id="a_node15"><a xlink:href="src/gathering/IBinderOutput.ts" xlink:title="IBinderOutput.ts">
<path fill="#ddfeff" stroke="black" d="M514,-196C514,-196 443,-196 443,-196 440,-196 437,-193 437,-190 437,-190 437,-184 437,-184 437,-181 440,-178 443,-178 443,-178 514,-178 514,-178 517,-178 520,-181 520,-184 520,-184 520,-190 520,-190 520,-193 517,-196 514,-196"/>
<text text-anchor="start" x="445" y="-184.8" font-family="Helvetica,sans-Serif" font-size="9.00">IBinderOutput.ts</text>
</a>
</g>
</g>
<!-- src/gathering/CollectionOrganizer/CollectionOrganizer.ts&#45;&gt;src/gathering/IBinderOutput.ts -->
<g id="edge16" class="edge">
<title>src/gathering/CollectionOrganizer/CollectionOrganizer.ts&#45;&gt;src/gathering/IBinderOutput.ts</title>
<path fill="none" stroke="#000000" stroke-opacity="0.200000" d="M235.28,-269.03C270.77,-288.02 358.51,-327.54 419,-292 452.36,-272.4 468.09,-226.1 474.22,-202.07"/>
<polygon fill="none" stroke="#000000" stroke-opacity="0.200000" points="476.27,-202.52 475.64,-196.19 472.19,-201.53 476.27,-202.52"/>
</g>
<!-- src/gathering/ICollectionOrganizer.ts -->
<g id="node16" class="node">
<title>src/gathering/ICollectionOrganizer.ts</title>
<g id="a_node16"><a xlink:href="src/gathering/ICollectionOrganizer.ts" xlink:title="ICollectionOrganizer.ts">
<path fill="#ddfeff" stroke="black" d="M413,-196C413,-196 315,-196 315,-196 312,-196 309,-193 309,-190 309,-190 309,-184 309,-184 309,-181 312,-178 315,-178 315,-178 413,-178 413,-178 416,-178 419,-181 419,-184 419,-184 419,-190 419,-190 419,-193 416,-196 413,-196"/>
<text text-anchor="start" x="317" y="-184.8" font-family="Helvetica,sans-Serif" font-size="9.00">ICollectionOrganizer.ts</text>
</a>
</g>
</g>
<!-- src/gathering/CollectionOrganizer/CollectionOrganizer.ts&#45;&gt;src/gathering/ICollectionOrganizer.ts -->
<g id="edge17" class="edge">
<title>src/gathering/CollectionOrganizer/CollectionOrganizer.ts&#45;&gt;src/gathering/ICollectionOrganizer.ts</title>
<path fill="none" stroke="#000000" stroke-opacity="0.200000" d="M230.99,-250.9C247.42,-238.28 278.95,-215.53 309,-202 312.11,-200.6 315.37,-199.31 318.69,-198.11"/>
<polygon fill="none" stroke="#000000" stroke-opacity="0.200000" points="319.71,-199.98 324.72,-196.07 318.36,-196.01 319.71,-199.98"/>
</g>
<!-- src/gathering/ICollectionOrganizer.ts&#45;&gt;src/gathering/IBinderOutput.ts -->
<g id="edge20" class="edge">
<title>src/gathering/ICollectionOrganizer.ts&#45;&gt;src/gathering/IBinderOutput.ts</title>
<path fill="none" stroke="#000000" stroke-opacity="0.200000" d="M419.27,-187C423.18,-187 427.1,-187 430.96,-187"/>
<polygon fill="none" stroke="#000000" stroke-opacity="0.200000" points="430.96,-189.1 436.96,-187 430.96,-184.9 430.96,-189.1"/>
</g>
<!-- src/lib/userBrowsesItsCollection/userBrowsesItsCollection.ts -->
<g id="node17" class="node">
<title>src/lib/userBrowsesItsCollection/userBrowsesItsCollection.ts</title>
<g id="a_node17"><a xlink:href="src/lib/userBrowsesItsCollection/userBrowsesItsCollection.ts" xlink:title="userBrowsesItsCollection.ts">
<path fill="#ddfeff" stroke="black" d="M279,-50C279,-50 158,-50 158,-50 155,-50 152,-47 152,-44 152,-44 152,-38 152,-38 152,-35 155,-32 158,-32 158,-32 279,-32 279,-32 282,-32 285,-35 285,-38 285,-38 285,-44 285,-44 285,-47 282,-50 279,-50"/>
<text text-anchor="start" x="160" y="-38.8" font-family="Helvetica,sans-Serif" font-size="9.00">userBrowsesItsCollection.ts</text>
</a>
</g>
</g>
<!-- src/lib/userBrowsesItsCollection/userBrowsesItsCollection.ts&#45;&gt;src/gathering/IBinderOutput.ts -->
<g id="edge23" class="edge">
<title>src/lib/userBrowsesItsCollection/userBrowsesItsCollection.ts&#45;&gt;src/gathering/IBinderOutput.ts</title>
<path fill="none" stroke="#000000" stroke-opacity="0.200000" d="M248.61,-50.07C289.04,-63.49 363.48,-91.16 419,-129 437.36,-141.52 454.98,-160.2 466,-172.96"/>
<polygon fill="none" stroke="#000000" stroke-opacity="0.200000" points="464.54,-174.49 470.03,-177.7 467.74,-171.77 464.54,-174.49"/>
</g>
<!-- src/lib/userBrowsesItsCollection/userBrowsesItsCollection.ts&#45;&gt;src/gathering/ICollectionOrganizer.ts -->
<g id="edge24" class="edge">
<title>src/lib/userBrowsesItsCollection/userBrowsesItsCollection.ts&#45;&gt;src/gathering/ICollectionOrganizer.ts</title>
<path fill="none" stroke="#000000" stroke-opacity="0.200000" d="M247.61,-50.09C264.57,-56.64 285.76,-66.83 301,-81 329.4,-107.4 348.75,-149.8 357.56,-172.13"/>
<polygon fill="none" stroke="#000000" stroke-opacity="0.200000" points="355.66,-173.02 359.77,-177.87 359.58,-171.52 355.66,-173.02"/>
</g>
<!-- src/lib/userEditsItsCollection/userEditsItsCollection.ts -->
<g id="node18" class="node">
<title>src/lib/userEditsItsCollection/userEditsItsCollection.ts</title>
<g id="a_node18"><a xlink:href="src/lib/userEditsItsCollection/userEditsItsCollection.ts" xlink:title="userEditsItsCollection.ts">
<path fill="#ddfeff" stroke="black" d="M271,-110C271,-110 166,-110 166,-110 163,-110 160,-107 160,-104 160,-104 160,-98 160,-98 160,-95 163,-92 166,-92 166,-92 271,-92 271,-92 274,-92 277,-95 277,-98 277,-98 277,-104 277,-104 277,-107 274,-110 271,-110"/>
<text text-anchor="start" x="168" y="-98.8" font-family="Helvetica,sans-Serif" font-size="9.00">userEditsItsCollection.ts</text>
</a>
</g>
</g>
<!-- src/lib/userEditsItsCollection/userEditsItsCollection.ts&#45;&gt;src/gathering/Collection.ts -->
<g id="edge25" class="edge">
<title>src/lib/userEditsItsCollection/userEditsItsCollection.ts&#45;&gt;src/gathering/Collection.ts</title>
<path fill="none" stroke="#000000" stroke-opacity="0.200000" d="M277.3,-108.07C321.45,-116.33 381,-134.1 419,-172 424.51,-177.49 459.33,-280.61 472.48,-319.93"/>
<polygon fill="none" stroke="#000000" stroke-opacity="0.200000" points="470.51,-320.65 474.4,-325.67 474.49,-319.32 470.51,-320.65"/>
</g>
<!-- src/lib/userEditsItsCollection/userEditsItsCollection.ts&#45;&gt;src/gathering/ICollectionEditor.ts -->
<g id="edge26" class="edge">
<title>src/lib/userEditsItsCollection/userEditsItsCollection.ts&#45;&gt;src/gathering/ICollectionEditor.ts</title>
<path fill="none" stroke="#000000" stroke-opacity="0.200000" d="M226.92,-110.04C243.76,-131.18 284.72,-186.18 301,-240 305.51,-254.91 299.22,-367.87 309,-380 309.82,-381.02 310.71,-381.98 311.65,-382.87"/>
<polygon fill="none" stroke="#000000" stroke-opacity="0.200000" points="310.75,-384.83 316.77,-386.85 313.32,-381.51 310.75,-384.83"/>
</g>
<!-- src/lib/userEditsItsCollection/userEditsItsCollection.ts&#45;&gt;src/gathering/ICollectionOutput.ts -->
<g id="edge27" class="edge">
<title>src/lib/userEditsItsCollection/userEditsItsCollection.ts&#45;&gt;src/gathering/ICollectionOutput.ts</title>
<path fill="none" stroke="#000000" stroke-opacity="0.200000" d="M226.86,-110.06C243.58,-131.24 284.31,-186.31 301,-240 308.28,-263.4 293.47,-331.04 309,-350 309.46,-350.56 309.94,-351.11 310.44,-351.63"/>
<polygon fill="none" stroke="#000000" stroke-opacity="0.200000" points="309.45,-353.55 315.38,-355.85 312.18,-350.35 309.45,-353.55"/>
</g>
<!-- src/routes/cards/+page.server.ts -->
<g id="node19" class="node">
<title>src/routes/cards/+page.server.ts</title>
<g id="a_node19"><a xlink:href="src/routes/cards/+page.server.ts" xlink:title="+page.server.ts">
<path fill="#ddfeff" stroke="black" d="M106,-243C106,-243 38,-243 38,-243 35,-243 32,-240 32,-237 32,-237 32,-231 32,-231 32,-228 35,-225 38,-225 38,-225 106,-225 106,-225 109,-225 112,-228 112,-231 112,-231 112,-237 112,-237 112,-240 109,-243 106,-243"/>
<text text-anchor="start" x="40" y="-231.8" font-family="Helvetica,sans-Serif" font-size="9.00">+page.server.ts</text>
</a>
</g>
</g>
<!-- src/routes/cards/+page.server.ts&#45;&gt;src/gathering/ahdb.cards.json -->
<g id="edge28" class="edge">
<title>src/routes/cards/+page.server.ts&#45;&gt;src/gathering/ahdb.cards.json</title>
<path fill="none" stroke="#000000" stroke-width="2" stroke-opacity="0.200000" d="M112.18,-234.01C157.64,-234.25 234.83,-235.4 301,-240 305.97,-240.35 311.16,-240.79 316.32,-241.29"/>
<polygon fill="#000000" fill-opacity="0.200000" stroke="#000000" stroke-width="2" stroke-opacity="0.200000" points="316.18,-243.39 322.36,-241.9 316.6,-239.21 316.18,-243.39"/>
</g>
<!-- src/routes/collection/+page.svelte.ts -->
<g id="node20" class="node">
<title>src/routes/collection/+page.svelte.ts</title>
<g id="a_node20"><a xlink:href="src/routes/collection/+page.svelte.ts" xlink:title="+page.svelte.ts">
<path fill="#ddfeff" stroke="black" d="M105.5,-123C105.5,-123 38.5,-123 38.5,-123 35.5,-123 32.5,-120 32.5,-117 32.5,-117 32.5,-111 32.5,-111 32.5,-108 35.5,-105 38.5,-105 38.5,-105 105.5,-105 105.5,-105 108.5,-105 111.5,-108 111.5,-111 111.5,-111 111.5,-117 111.5,-117 111.5,-120 108.5,-123 105.5,-123"/>
<text text-anchor="start" x="40.5" y="-111.8" font-family="Helvetica,sans-Serif" font-size="9.00">+page.svelte.ts</text>
</a>
</g>
</g>
<!-- src/routes/collection/+page.svelte.ts&#45;&gt;src/lib/userBrowsesItsCollection/userBrowsesItsCollection.ts -->
<g id="edge29" class="edge">
<title>src/routes/collection/+page.svelte.ts&#45;&gt;src/lib/userBrowsesItsCollection/userBrowsesItsCollection.ts</title>
<path fill="none" stroke="#000000" stroke-width="2" stroke-opacity="0.200000" d="M90.05,-104.91C102.69,-98.22 120.36,-88.93 136,-81 155.03,-71.35 176.72,-60.72 192.94,-52.84"/>
<polygon fill="#000000" fill-opacity="0.200000" stroke="#000000" stroke-width="2" stroke-opacity="0.200000" points="194.17,-54.58 198.66,-50.08 192.34,-50.8 194.17,-54.58"/>
</g>
<!-- src/routes/packs/+page.server.ts -->
<g id="node21" class="node">
<title>src/routes/packs/+page.server.ts</title>
<g id="a_node21"><a xlink:href="src/routes/packs/+page.server.ts" xlink:title="+page.server.ts">
<path fill="#ddfeff" stroke="black" d="M106,-183C106,-183 38,-183 38,-183 35,-183 32,-180 32,-177 32,-177 32,-171 32,-171 32,-168 35,-165 38,-165 38,-165 106,-165 106,-165 109,-165 112,-168 112,-171 112,-171 112,-177 112,-177 112,-180 109,-183 106,-183"/>
<text text-anchor="start" x="40" y="-171.8" font-family="Helvetica,sans-Serif" font-size="9.00">+page.server.ts</text>
</a>
</g>
</g>
<!-- src/routes/packs/+page.server.ts&#45;&gt;src/gathering/ahdb.packs.json -->
<g id="edge30" class="edge">
<title>src/routes/packs/+page.server.ts&#45;&gt;src/gathering/ahdb.packs.json</title>
<path fill="none" stroke="#000000" stroke-width="2" stroke-opacity="0.200000" d="M112.11,-179.8C164.77,-187.61 258.39,-201.49 315.17,-209.91"/>
<polygon fill="#000000" fill-opacity="0.200000" stroke="#000000" stroke-width="2" stroke-opacity="0.200000" points="314.99,-212 321.23,-210.81 315.6,-207.85 314.99,-212"/>
</g>
</g>
</svg>
