<?xml version="1.0" encoding="UTF-8" standalone="no"?>
<!DOCTYPE svg PUBLIC "-//W3C//DTD SVG 1.1//EN"
 "http://www.w3.org/Graphics/SVG/1.1/DTD/svg11.dtd">
<!-- Generated by graphviz version 2.50.0 (20211204.2007)
 -->
<!-- Title: dependency&#45;cruiser output Pages: 1 -->
<svg width="372pt" height="388pt"
 viewBox="0.00 0.00 372.00 388.00" xmlns="http://www.w3.org/2000/svg" xmlns:xlink="http://www.w3.org/1999/xlink">
<g id="graph0" class="graph" transform="scale(1 1) rotate(0) translate(4 384)">
<title>dependency&#45;cruiser output</title>
<polygon fill="white" stroke="transparent" points="-4,4 -4,-384 368,-384 368,4 -4,4"/>
<g id="clust1" class="cluster">
<title>cluster_src</title>
<path fill="#ffffff" stroke="black" stroke-width="2" d="M20,-8C20,-8 344,-8 344,-8 350,-8 356,-14 356,-20 356,-20 356,-360 356,-360 356,-366 350,-372 344,-372 344,-372 20,-372 20,-372 14,-372 8,-366 8,-360 8,-360 8,-20 8,-20 8,-14 14,-8 20,-8"/>
<text text-anchor="middle" x="182" y="-360.8" font-family="Helvetica,sans-Serif" font-weight="bold" font-size="9.00">src</text>
</g>
<g id="clust4" class="cluster">
<title>cluster_src/lib</title>
<path fill="#ffffff" stroke="black" stroke-width="2" d="M173,-16C173,-16 266,-16 266,-16 272,-16 278,-22 278,-28 278,-28 278,-240 278,-240 278,-246 272,-252 266,-252 266,-252 173,-252 173,-252 167,-252 161,-246 161,-240 161,-240 161,-28 161,-28 161,-22 167,-16 173,-16"/>
<text text-anchor="middle" x="219.5" y="-240.8" font-family="Helvetica,sans-Serif" font-weight="bold" font-size="9.00">lib</text>
</g>
<g id="clust6" class="cluster">
<title>cluster_src/lib/server</title>
<path fill="#ffffff" stroke="black" stroke-width="2" d="M181,-84C181,-84 258,-84 258,-84 264,-84 270,-90 270,-96 270,-96 270,-214 270,-214 270,-220 264,-226 258,-226 258,-226 181,-226 181,-226 175,-226 169,-220 169,-214 169,-214 169,-96 169,-96 169,-90 175,-84 181,-84"/>
<text text-anchor="middle" x="219.5" y="-214.8" font-family="Helvetica,sans-Serif" font-weight="bold" font-size="9.00">server</text>
</g>
<g id="clust7" class="cluster">
<title>cluster_src/lib/server/collection</title>
<path fill="#ffffff" stroke="black" stroke-width="2" d="M195.5,-148C195.5,-148 243.5,-148 243.5,-148 249.5,-148 255.5,-154 255.5,-160 255.5,-160 255.5,-188 255.5,-188 255.5,-194 249.5,-200 243.5,-200 243.5,-200 195.5,-200 195.5,-200 189.5,-200 183.5,-194 183.5,-188 183.5,-188 183.5,-160 183.5,-160 183.5,-154 189.5,-148 195.5,-148"/>
<text text-anchor="middle" x="219.5" y="-188.8" font-family="Helvetica,sans-Serif" font-weight="bold" font-size="9.00">collection</text>
</g>
<g id="clust5" class="cluster">
<title>cluster_src/lib/BinderStorage</title>
<path fill="#ffffff" stroke="black" stroke-width="2" d="M192.5,-24C192.5,-24 246.5,-24 246.5,-24 252.5,-24 258.5,-30 258.5,-36 258.5,-36 258.5,-64 258.5,-64 258.5,-70 252.5,-76 246.5,-76 246.5,-76 192.5,-76 192.5,-76 186.5,-76 180.5,-70 180.5,-64 180.5,-64 180.5,-36 180.5,-36 180.5,-30 186.5,-24 192.5,-24"/>
<text text-anchor="middle" x="219.5" y="-64.8" font-family="Helvetica,sans-Serif" font-weight="bold" font-size="9.00">BinderStorage</text>
</g>
<g id="clust2" class="cluster">
<title>cluster_src/app</title>
<path fill="#ffffff" stroke="black" stroke-width="2" d="M28,-260C28,-260 336,-260 336,-260 342,-260 348,-266 348,-272 348,-272 348,-334 348,-334 348,-340 342,-346 336,-346 336,-346 28,-346 28,-346 22,-346 16,-340 16,-334 16,-334 16,-272 16,-272 16,-266 22,-260 28,-260"/>
<text text-anchor="middle" x="182" y="-334.8" font-family="Helvetica,sans-Serif" font-weight="bold" font-size="9.00">app</text>
</g>
<g id="clust3" class="cluster">
<title>cluster_src/app/CollectionEditor</title>
<path fill="#ffffff" stroke="black" stroke-width="2" d="M36,-268C36,-268 264,-268 264,-268 270,-268 276,-274 276,-280 276,-280 276,-308 276,-308 276,-314 270,-320 264,-320 264,-320 36,-320 36,-320 30,-320 24,-314 24,-308 24,-308 24,-280 24,-280 24,-274 30,-268 36,-268"/>
<text text-anchor="middle" x="150" y="-308.8" font-family="Helvetica,sans-Serif" font-weight="bold" font-size="9.00">CollectionEditor</text>
</g>
<g id="clust8" class="cluster">
<title>cluster_src/routes</title>
<path fill="#ffffff" stroke="black" stroke-width="2" d="M37,-83C37,-83 141,-83 141,-83 147,-83 153,-89 153,-95 153,-95 153,-191 153,-191 153,-197 147,-203 141,-203 141,-203 37,-203 37,-203 31,-203 25,-197 25,-191 25,-191 25,-95 25,-95 25,-89 31,-83 37,-83"/>
<text text-anchor="middle" x="89" y="-191.8" font-family="Helvetica,sans-Serif" font-weight="bold" font-size="9.00">routes</text>
</g>
<g id="clust9" class="cluster">
<title>cluster_src/routes/collection</title>
<path fill="#ffffff" stroke="black" stroke-width="2" d="M45,-91C45,-91 133,-91 133,-91 139,-91 145,-97 145,-103 145,-103 145,-165 145,-165 145,-171 139,-177 133,-177 133,-177 45,-177 45,-177 39,-177 33,-171 33,-165 33,-165 33,-103 33,-103 33,-97 39,-91 45,-91"/>
<text text-anchor="middle" x="89" y="-165.8" font-family="Helvetica,sans-Serif" font-weight="bold" font-size="9.00">collection</text>
</g>
<g id="clust10" class="cluster">
<title>cluster_src/routes/collection/couz</title>
<path fill="#ffffff" stroke="black" stroke-width="2" d="M53,-99C53,-99 125,-99 125,-99 131,-99 137,-105 137,-111 137,-111 137,-139 137,-139 137,-145 131,-151 125,-151 125,-151 53,-151 53,-151 47,-151 41,-145 41,-139 41,-139 41,-111 41,-111 41,-105 47,-99 53,-99"/>
<text text-anchor="middle" x="89" y="-139.8" font-family="Helvetica,sans-Serif" font-weight="bold" font-size="9.00">couz</text>
</g>
<!-- src/app.d.ts -->
<g id="node1" class="node">
<title>src/app.d.ts</title>
<g id="a_node1"><a xlink:href="src/app.d.ts" xlink:title="app.d.ts">
<path fill="#ccffcc" stroke="black" d="M110,-62C110,-62 68,-62 68,-62 65,-62 62,-59 62,-56 62,-56 62,-50 62,-50 62,-47 65,-44 68,-44 68,-44 110,-44 110,-44 113,-44 116,-47 116,-50 116,-50 116,-56 116,-56 116,-59 113,-62 110,-62"/>
<text text-anchor="start" x="72" y="-50.8" font-family="Helvetica,sans-Serif" font-size="9.00">app.d.ts</text>
</a>
</g>
</g>
<!-- src/app/CollectionEditor/addRemovePack.test.ts -->
<g id="node2" class="node">
<title>src/app/CollectionEditor/addRemovePack.test.ts</title>
<g id="a_node2"><a xlink:href="src/app/CollectionEditor/addRemovePack.test.ts" xlink:title="addRemovePack.test.ts">
<path fill="#ddfeff" stroke="black" d="M140,-294C140,-294 38,-294 38,-294 35,-294 32,-291 32,-288 32,-288 32,-282 32,-282 32,-279 35,-276 38,-276 38,-276 140,-276 140,-276 143,-276 146,-279 146,-282 146,-282 146,-288 146,-288 146,-291 143,-294 140,-294"/>
<text text-anchor="start" x="40" y="-282.8" font-family="Helvetica,sans-Serif" font-size="9.00">addRemovePack.test.ts</text>
</a>
</g>
</g>
<!-- src/app/CollectionEditor/addRemovePack.ts -->
<g id="node3" class="node">
<title>src/app/CollectionEditor/addRemovePack.ts</title>
<g id="a_node3"><a xlink:href="src/app/CollectionEditor/addRemovePack.ts" xlink:title="addRemovePack.ts">
<path fill="#ddfeff" stroke="black" d="M262,-294C262,-294 177,-294 177,-294 174,-294 171,-291 171,-288 171,-288 171,-282 171,-282 171,-279 174,-276 177,-276 177,-276 262,-276 262,-276 265,-276 268,-279 268,-282 268,-282 268,-288 268,-288 268,-291 265,-294 262,-294"/>
<text text-anchor="start" x="179" y="-282.8" font-family="Helvetica,sans-Serif" font-size="9.00">addRemovePack.ts</text>
</a>
</g>
</g>
<!-- src/app/CollectionEditor/addRemovePack.test.ts&#45;&gt;src/app/CollectionEditor/addRemovePack.ts -->
<g id="edge1" class="edge">
<title>src/app/CollectionEditor/addRemovePack.test.ts&#45;&gt;src/app/CollectionEditor/addRemovePack.ts</title>
<path fill="none" stroke="#000000" stroke-width="2" stroke-opacity="0.200000" d="M146.36,-285C152.3,-285 158.34,-285 164.26,-285"/>
<polygon fill="#000000" fill-opacity="0.200000" stroke="#000000" stroke-width="2" stroke-opacity="0.200000" points="164.62,-287.1 170.62,-285 164.62,-282.9 164.62,-287.1"/>
</g>
<!-- src/app/index.ts -->
<g id="node4" class="node">
<title>src/app/index.ts</title>
<g id="a_node4"><a xlink:href="src/app/index.ts" xlink:title="index.ts">
<path fill="#ddfeff" stroke="black" d="M334,-305C334,-305 292,-305 292,-305 289,-305 286,-302 286,-299 286,-299 286,-293 286,-293 286,-290 289,-287 292,-287 292,-287 334,-287 334,-287 337,-287 340,-290 340,-293 340,-293 340,-299 340,-299 340,-302 337,-305 334,-305"/>
<text text-anchor="start" x="297" y="-293.8" font-family="Helvetica,sans-Serif" font-size="9.00">index.ts</text>
</a>
</g>
</g>
<!-- src/app/CollectionEditor/addRemovePack.test.ts&#45;&gt;src/app/index.ts -->
<g id="edge2" class="edge">
<title>src/app/CollectionEditor/addRemovePack.test.ts&#45;&gt;src/app/index.ts</title>
<path fill="none" stroke="#000000" stroke-opacity="0.200000" d="M125.52,-294.02C136.79,-296.47 149.35,-298.78 161,-300 212.72,-305.4 226.09,-303.04 278,-300 278.47,-299.97 278.94,-299.94 279.41,-299.91"/>
<polygon fill="none" stroke="#000000" stroke-opacity="0.200000" points="279.86,-301.98 285.67,-299.41 279.52,-297.8 279.86,-301.98"/>
</g>
<!-- src/app/CollectionEditor/addRemovePack.ts&#45;&gt;src/app/index.ts -->
<g id="edge3" class="edge">
<title>src/app/CollectionEditor/addRemovePack.ts&#45;&gt;src/app/index.ts</title>
<path fill="none" stroke="#000000" stroke-opacity="0.200000" d="M268.13,-290.73C272.02,-291.19 275.9,-291.66 279.64,-292.11"/>
<polygon fill="none" stroke="#000000" stroke-opacity="0.200000" points="279.59,-294.22 285.8,-292.85 280.09,-290.05 279.59,-294.22"/>
</g>
<!-- src/lib/BinderStorage/index.ts -->
<g id="node5" class="node">
<title>src/lib/BinderStorage/index.ts</title>
<g id="a_node5"><a xlink:href="src/lib/BinderStorage/index.ts" xlink:title="index.ts">
<path fill="#ddfeff" stroke="black" d="M240.5,-50C240.5,-50 198.5,-50 198.5,-50 195.5,-50 192.5,-47 192.5,-44 192.5,-44 192.5,-38 192.5,-38 192.5,-35 195.5,-32 198.5,-32 198.5,-32 240.5,-32 240.5,-32 243.5,-32 246.5,-35 246.5,-38 246.5,-38 246.5,-44 246.5,-44 246.5,-47 243.5,-50 240.5,-50"/>
<text text-anchor="start" x="203.5" y="-38.8" font-family="Helvetica,sans-Serif" font-size="9.00">index.ts</text>
</a>
</g>
</g>
<!-- src/lib/server/ahdb.cards.json -->
<g id="node6" class="node">
<title>src/lib/server/ahdb.cards.json</title>
<g id="a_node6"><a xlink:href="src/lib/server/ahdb.cards.json" xlink:title="ahdb.cards.json">
<path fill="#ffee44" stroke="black" d="M255,-140C255,-140 184,-140 184,-140 181,-140 178,-137 178,-134 178,-134 178,-128 178,-128 178,-125 181,-122 184,-122 184,-122 255,-122 255,-122 258,-122 261,-125 261,-128 261,-128 261,-134 261,-134 261,-137 258,-140 255,-140"/>
<text text-anchor="start" x="186" y="-128.8" font-family="Helvetica,sans-Serif" font-size="9.00">ahdb.cards.json</text>
</a>
</g>
</g>
<!-- src/lib/server/ahdb.packs.json -->
<g id="node7" class="node">
<title>src/lib/server/ahdb.packs.json</title>
<g id="a_node7"><a xlink:href="src/lib/server/ahdb.packs.json" xlink:title="ahdb.packs.json">
<path fill="#ffee44" stroke="black" d="M256,-110C256,-110 183,-110 183,-110 180,-110 177,-107 177,-104 177,-104 177,-98 177,-98 177,-95 180,-92 183,-92 183,-92 256,-92 256,-92 259,-92 262,-95 262,-98 262,-98 262,-104 262,-104 262,-107 259,-110 256,-110"/>
<text text-anchor="start" x="185" y="-98.8" font-family="Helvetica,sans-Serif" font-size="9.00">ahdb.packs.json</text>
</a>
</g>
</g>
<!-- src/lib/server/collection/couz.json -->
<g id="node8" class="node">
<title>src/lib/server/collection/couz.json</title>
<g id="a_node8"><a xlink:href="src/lib/server/collection/couz.json" xlink:title="couz.json">
<path fill="#ffee44" stroke="black" d="M241.5,-174C241.5,-174 197.5,-174 197.5,-174 194.5,-174 191.5,-171 191.5,-168 191.5,-168 191.5,-162 191.5,-162 191.5,-159 194.5,-156 197.5,-156 197.5,-156 241.5,-156 241.5,-156 244.5,-156 247.5,-159 247.5,-162 247.5,-162 247.5,-168 247.5,-168 247.5,-171 244.5,-174 241.5,-174"/>
<text text-anchor="start" x="199.5" y="-162.8" font-family="Helvetica,sans-Serif" font-size="9.00">couz.json</text>
</a>
</g>
</g>
<!-- src/routes/collection/couz/+page.server.ts -->
<g id="node9" class="node">
<title>src/routes/collection/couz/+page.server.ts</title>
<g id="a_node9"><a xlink:href="src/routes/collection/couz/+page.server.ts" xlink:title="+page.server.ts">
<path fill="#ddfeff" stroke="black" d="M123,-125C123,-125 55,-125 55,-125 52,-125 49,-122 49,-119 49,-119 49,-113 49,-113 49,-110 52,-107 55,-107 55,-107 123,-107 123,-107 126,-107 129,-110 129,-113 129,-113 129,-119 129,-119 129,-122 126,-125 123,-125"/>
<text text-anchor="start" x="57" y="-113.8" font-family="Helvetica,sans-Serif" font-size="9.00">+page.server.ts</text>
</a>
</g>
</g>
<!-- src/routes/collection/couz/+page.server.ts&#45;&gt;src/lib/BinderStorage/index.ts -->
<g id="edge4" class="edge">
<title>src/routes/collection/couz/+page.server.ts&#45;&gt;src/lib/BinderStorage/index.ts</title>
<path fill="none" stroke="#000000" stroke-opacity="0.200000" d="M129.13,-114.22C137.77,-112.22 146.33,-108.77 153,-103 160.87,-96.2 154.65,-89.25 161,-81 169.86,-69.49 182.97,-60.01 194.44,-53.17"/>
<polygon fill="none" stroke="#000000" stroke-opacity="0.200000" points="195.75,-54.84 199.91,-50.03 193.66,-51.2 195.75,-54.84"/>
</g>
<!-- src/routes/collection/couz/+page.server.ts&#45;&gt;src/lib/server/ahdb.cards.json -->
<g id="edge5" class="edge">
<title>src/routes/collection/couz/+page.server.ts&#45;&gt;src/lib/server/ahdb.cards.json</title>
<path fill="none" stroke="#000000" stroke-width="2" stroke-opacity="0.200000" d="M129.25,-120.58C142.57,-122.14 157.57,-123.89 171.43,-125.51"/>
<polygon fill="#000000" fill-opacity="0.200000" stroke="#000000" stroke-width="2" stroke-opacity="0.200000" points="171.51,-127.63 177.71,-126.24 171.99,-123.46 171.51,-127.63"/>
</g>
<!-- src/routes/collection/couz/+page.server.ts&#45;&gt;src/lib/server/ahdb.packs.json -->
<g id="edge6" class="edge">
<title>src/routes/collection/couz/+page.server.ts&#45;&gt;src/lib/server/ahdb.packs.json</title>
<path fill="none" stroke="#000000" stroke-width="2" stroke-opacity="0.200000" d="M129.25,-111.42C142.31,-109.89 157,-108.18 170.63,-106.59"/>
<polygon fill="#000000" fill-opacity="0.200000" stroke="#000000" stroke-width="2" stroke-opacity="0.200000" points="171.1,-108.65 176.81,-105.87 170.61,-104.48 171.1,-108.65"/>
</g>
<!-- src/routes/collection/couz/+page.server.ts&#45;&gt;src/lib/server/collection/couz.json -->
<g id="edge7" class="edge">
<title>src/routes/collection/couz/+page.server.ts&#45;&gt;src/lib/server/collection/couz.json</title>
<path fill="none" stroke="#000000" stroke-width="2" stroke-opacity="0.200000" d="M105.3,-125.16C119.35,-133.22 140.98,-144.79 161,-152 168.75,-154.79 177.31,-157.11 185.4,-158.98"/>
<polygon fill="#000000" fill-opacity="0.200000" stroke="#000000" stroke-width="2" stroke-opacity="0.200000" points="185.17,-161.08 191.48,-160.33 186.08,-156.98 185.17,-161.08"/>
</g>
</g>
</svg>
