<?xml version="1.0" encoding="UTF-8" standalone="no"?>
<!DOCTYPE svg PUBLIC "-//W3C//DTD SVG 1.1//EN"
 "http://www.w3.org/Graphics/SVG/1.1/DTD/svg11.dtd">
<!-- Generated by graphviz version 2.50.0 (20211204.2007)
 -->
<!-- Title: dependency&#45;cruiser output Pages: 1 -->
<svg width="1134pt" height="336pt"
 viewBox="0.00 0.00 1133.50 336.00" xmlns="http://www.w3.org/2000/svg" xmlns:xlink="http://www.w3.org/1999/xlink">
<g id="graph0" class="graph" transform="scale(1 1) rotate(0) translate(4 332)">
<title>dependency&#45;cruiser output</title>
<polygon fill="white" stroke="transparent" points="-4,4 -4,-332 1129.5,-332 1129.5,4 -4,4"/>
<g id="clust1" class="cluster">
<title>cluster_src</title>
<path fill="#ffffff" stroke="black" stroke-width="2" d="M20,-8C20,-8 1105.5,-8 1105.5,-8 1111.5,-8 1117.5,-14 1117.5,-20 1117.5,-20 1117.5,-308 1117.5,-308 1117.5,-314 1111.5,-320 1105.5,-320 1105.5,-320 20,-320 20,-320 14,-320 8,-314 8,-308 8,-308 8,-20 8,-20 8,-14 14,-8 20,-8"/>
<text text-anchor="middle" x="562.75" y="-308.8" font-family="Helvetica,sans-Serif" font-weight="bold" font-size="9.00">src</text>
</g>
<g id="clust2" class="cluster">
<title>cluster_src/gathering</title>
<path fill="#ffffff" stroke="black" stroke-width="2" d="M559.5,-66C559.5,-66 1097.5,-66 1097.5,-66 1103.5,-66 1109.5,-72 1109.5,-78 1109.5,-78 1109.5,-282 1109.5,-282 1109.5,-288 1103.5,-294 1097.5,-294 1097.5,-294 559.5,-294 559.5,-294 553.5,-294 547.5,-288 547.5,-282 547.5,-282 547.5,-78 547.5,-78 547.5,-72 553.5,-66 559.5,-66"/>
<text text-anchor="middle" x="828.5" y="-282.8" font-family="Helvetica,sans-Serif" font-weight="bold" font-size="9.00">gathering</text>
</g>
<g id="clust4" class="cluster">
<title>cluster_src/gathering/PackRepository</title>
<path fill="#ffffff" stroke="black" stroke-width="2" d="M841,-74C841,-74 901,-74 901,-74 907,-74 913,-80 913,-86 913,-86 913,-114 913,-114 913,-120 907,-126 901,-126 901,-126 841,-126 841,-126 835,-126 829,-120 829,-114 829,-114 829,-86 829,-86 829,-80 835,-74 841,-74"/>
<text text-anchor="middle" x="871" y="-114.8" font-family="Helvetica,sans-Serif" font-weight="bold" font-size="9.00">PackRepository</text>
</g>
<g id="clust3" class="cluster">
<title>cluster_src/gathering/CollectionEditor</title>
<path fill="#ffffff" stroke="black" stroke-width="2" d="M567.5,-125C567.5,-125 793.5,-125 793.5,-125 799.5,-125 805.5,-131 805.5,-137 805.5,-137 805.5,-195 805.5,-195 805.5,-201 799.5,-207 793.5,-207 793.5,-207 567.5,-207 567.5,-207 561.5,-207 555.5,-201 555.5,-195 555.5,-195 555.5,-137 555.5,-137 555.5,-131 561.5,-125 567.5,-125"/>
<text text-anchor="middle" x="680.5" y="-195.8" font-family="Helvetica,sans-Serif" font-weight="bold" font-size="9.00">CollectionEditor</text>
</g>
<g id="clust5" class="cluster">
<title>cluster_src/lib</title>
<path fill="#ffffff" stroke="black" stroke-width="2" d="M391,-208C391,-208 506,-208 506,-208 512,-208 518,-214 518,-220 518,-220 518,-282 518,-282 518,-288 512,-294 506,-294 506,-294 391,-294 391,-294 385,-294 379,-288 379,-282 379,-282 379,-220 379,-220 379,-214 385,-208 391,-208"/>
<text text-anchor="middle" x="448.5" y="-282.8" font-family="Helvetica,sans-Serif" font-weight="bold" font-size="9.00">lib</text>
</g>
<g id="clust6" class="cluster">
<title>cluster_src/lib/userEditsCollection</title>
<path fill="#ffffff" stroke="black" stroke-width="2" d="M399,-216C399,-216 498,-216 498,-216 504,-216 510,-222 510,-228 510,-228 510,-256 510,-256 510,-262 504,-268 498,-268 498,-268 399,-268 399,-268 393,-268 387,-262 387,-256 387,-256 387,-228 387,-228 387,-222 393,-216 399,-216"/>
<text text-anchor="middle" x="448.5" y="-256.8" font-family="Helvetica,sans-Serif" font-weight="bold" font-size="9.00">userEditsCollection</text>
</g>
<g id="clust7" class="cluster">
<title>cluster_src/routes</title>
<path fill="#ffffff" stroke="black" stroke-width="2" d="M28,-16C28,-16 527.5,-16 527.5,-16 533.5,-16 539.5,-22 539.5,-28 539.5,-28 539.5,-188 539.5,-188 539.5,-194 533.5,-200 527.5,-200 527.5,-200 28,-200 28,-200 22,-200 16,-194 16,-188 16,-188 16,-28 16,-28 16,-22 22,-16 28,-16"/>
<text text-anchor="middle" x="277.75" y="-188.8" font-family="Helvetica,sans-Serif" font-weight="bold" font-size="9.00">routes</text>
</g>
<g id="clust8" class="cluster">
<title>cluster_src/routes/collection</title>
<path fill="#ffffff" stroke="black" stroke-width="2" d="M36,-24C36,-24 519.5,-24 519.5,-24 525.5,-24 531.5,-30 531.5,-36 531.5,-36 531.5,-162 531.5,-162 531.5,-168 525.5,-174 519.5,-174 519.5,-174 36,-174 36,-174 30,-174 24,-168 24,-162 24,-162 24,-36 24,-36 24,-30 30,-24 36,-24"/>
<text text-anchor="middle" x="277.75" y="-162.8" font-family="Helvetica,sans-Serif" font-weight="bold" font-size="9.00">collection</text>
</g>
<g id="clust9" class="cluster">
<title>cluster_src/routes/collection/edit</title>
<path fill="#ffffff" stroke="black" stroke-width="2" d="M44,-32C44,-32 511.5,-32 511.5,-32 517.5,-32 523.5,-38 523.5,-44 523.5,-44 523.5,-136 523.5,-136 523.5,-142 517.5,-148 511.5,-148 511.5,-148 44,-148 44,-148 38,-148 32,-142 32,-136 32,-136 32,-44 32,-44 32,-38 38,-32 44,-32"/>
<text text-anchor="middle" x="277.75" y="-136.8" font-family="Helvetica,sans-Serif" font-weight="bold" font-size="9.00">edit</text>
</g>
<g id="clust10" class="cluster">
<title>cluster_src/routes/collection/edit/PacksBundle</title>
<path fill="#ffffff" stroke="black" stroke-width="2" d="M139,-40C139,-40 503.5,-40 503.5,-40 509.5,-40 515.5,-46 515.5,-52 515.5,-52 515.5,-110 515.5,-110 515.5,-116 509.5,-122 503.5,-122 503.5,-122 139,-122 139,-122 133,-122 127,-116 127,-110 127,-110 127,-52 127,-52 127,-46 133,-40 139,-40"/>
<text text-anchor="middle" x="321.25" y="-110.8" font-family="Helvetica,sans-Serif" font-weight="bold" font-size="9.00">PacksBundle</text>
</g>
<!-- src/gathering/Collection.ts -->
<g id="node1" class="node">
<title>src/gathering/Collection.ts</title>
<g id="a_node1"><a xlink:href="src/gathering/Collection.ts" xlink:title="Collection.ts">
<path fill="#ddfeff" stroke="black" d="M1016,-169C1016,-169 960,-169 960,-169 957,-169 954,-166 954,-163 954,-163 954,-157 954,-157 954,-154 957,-151 960,-151 960,-151 1016,-151 1016,-151 1019,-151 1022,-154 1022,-157 1022,-157 1022,-163 1022,-163 1022,-166 1019,-169 1016,-169"/>
<text text-anchor="start" x="962" y="-157.8" font-family="Helvetica,sans-Serif" font-size="9.00">Collection.ts</text>
</a>
</g>
</g>
<!-- src/gathering/Pack.ts -->
<g id="node2" class="node">
<title>src/gathering/Pack.ts</title>
<g id="a_node2"><a xlink:href="src/gathering/Pack.ts" xlink:title="Pack.ts">
<path fill="#ddfeff" stroke="black" d="M1095.5,-202C1095.5,-202 1053.5,-202 1053.5,-202 1050.5,-202 1047.5,-199 1047.5,-196 1047.5,-196 1047.5,-190 1047.5,-190 1047.5,-187 1050.5,-184 1053.5,-184 1053.5,-184 1095.5,-184 1095.5,-184 1098.5,-184 1101.5,-187 1101.5,-190 1101.5,-190 1101.5,-196 1101.5,-196 1101.5,-199 1098.5,-202 1095.5,-202"/>
<text text-anchor="start" x="1059" y="-190.8" font-family="Helvetica,sans-Serif" font-size="9.00">Pack.ts</text>
</a>
</g>
</g>
<!-- src/gathering/Collection.ts&#45;&gt;src/gathering/Pack.ts -->
<g id="edge1" class="edge">
<title>src/gathering/Collection.ts&#45;&gt;src/gathering/Pack.ts</title>
<path fill="none" stroke="#000000" stroke-opacity="0.200000" d="M1012.09,-169.02C1022.15,-172.95 1034.05,-177.59 1044.68,-181.75"/>
<polygon fill="none" stroke="#000000" stroke-opacity="0.200000" points="1044.09,-183.77 1050.44,-183.99 1045.61,-179.85 1044.09,-183.77"/>
</g>
<!-- src/gathering/CollectionEditor/CollectionEditor.test.ts -->
<g id="node3" class="node">
<title>src/gathering/CollectionEditor/CollectionEditor.test.ts</title>
<g id="a_node3"><a xlink:href="src/gathering/CollectionEditor/CollectionEditor.test.ts" xlink:title="CollectionEditor.test.ts">
<path fill="#ddfeff" stroke="black" d="M666.5,-181C666.5,-181 569.5,-181 569.5,-181 566.5,-181 563.5,-178 563.5,-175 563.5,-175 563.5,-169 563.5,-169 563.5,-166 566.5,-163 569.5,-163 569.5,-163 666.5,-163 666.5,-163 669.5,-163 672.5,-166 672.5,-169 672.5,-169 672.5,-175 672.5,-175 672.5,-178 669.5,-181 666.5,-181"/>
<text text-anchor="start" x="571.5" y="-169.8" font-family="Helvetica,sans-Serif" font-size="9.00">CollectionEditor.test.ts</text>
</a>
</g>
</g>
<!-- src/gathering/CollectionEditor/CollectionEditor.test.ts&#45;&gt;src/gathering/Collection.ts -->
<g id="edge4" class="edge">
<title>src/gathering/CollectionEditor/CollectionEditor.test.ts&#45;&gt;src/gathering/Collection.ts</title>
<path fill="none" stroke="#000000" stroke-opacity="0.200000" d="M639.5,-181.08C652.41,-186.3 669.6,-192.33 685.5,-195 780.77,-211.01 894.2,-186.14 950.93,-170.73"/>
<polygon fill="none" stroke="#000000" stroke-opacity="0.200000" points="951.67,-172.71 956.9,-169.09 950.56,-168.66 951.67,-172.71"/>
</g>
<!-- src/gathering/CollectionEditor/CollectionEditor.ts -->
<g id="node4" class="node">
<title>src/gathering/CollectionEditor/CollectionEditor.ts</title>
<g id="a_node4"><a xlink:href="src/gathering/CollectionEditor/CollectionEditor.ts" xlink:title="CollectionEditor.ts">
<path fill="#ddfeff" stroke="black" d="M781.5,-151C781.5,-151 701.5,-151 701.5,-151 698.5,-151 695.5,-148 695.5,-145 695.5,-145 695.5,-139 695.5,-139 695.5,-136 698.5,-133 701.5,-133 701.5,-133 781.5,-133 781.5,-133 784.5,-133 787.5,-136 787.5,-139 787.5,-139 787.5,-145 787.5,-145 787.5,-148 784.5,-151 781.5,-151"/>
<text text-anchor="start" x="703.5" y="-139.8" font-family="Helvetica,sans-Serif" font-size="9.00">CollectionEditor.ts</text>
</a>
</g>
</g>
<!-- src/gathering/CollectionEditor/CollectionEditor.test.ts&#45;&gt;src/gathering/CollectionEditor/CollectionEditor.ts -->
<g id="edge2" class="edge">
<title>src/gathering/CollectionEditor/CollectionEditor.test.ts&#45;&gt;src/gathering/CollectionEditor/CollectionEditor.ts</title>
<path fill="none" stroke="#000000" stroke-width="2" stroke-opacity="0.200000" d="M656.42,-162.94C661.82,-161.62 667.3,-160.28 672.5,-159 680.95,-156.92 689.98,-154.67 698.61,-152.52"/>
<polygon fill="#000000" fill-opacity="0.200000" stroke="#000000" stroke-width="2" stroke-opacity="0.200000" points="699.2,-154.54 704.51,-151.04 698.18,-150.46 699.2,-154.54"/>
</g>
<!-- src/gathering/CollectionEditor/PackRepositoryMock.ts -->
<g id="node5" class="node">
<title>src/gathering/CollectionEditor/PackRepositoryMock.ts</title>
<g id="a_node5"><a xlink:href="src/gathering/CollectionEditor/PackRepositoryMock.ts" xlink:title="PackRepositoryMock.ts">
<path fill="#ddfeff" stroke="black" d="M791.5,-181C791.5,-181 691.5,-181 691.5,-181 688.5,-181 685.5,-178 685.5,-175 685.5,-175 685.5,-169 685.5,-169 685.5,-166 688.5,-163 691.5,-163 691.5,-163 791.5,-163 791.5,-163 794.5,-163 797.5,-166 797.5,-169 797.5,-169 797.5,-175 797.5,-175 797.5,-178 794.5,-181 791.5,-181"/>
<text text-anchor="start" x="693.5" y="-169.8" font-family="Helvetica,sans-Serif" font-size="9.00">PackRepositoryMock.ts</text>
</a>
</g>
</g>
<!-- src/gathering/CollectionEditor/CollectionEditor.test.ts&#45;&gt;src/gathering/CollectionEditor/PackRepositoryMock.ts -->
<g id="edge3" class="edge">
<title>src/gathering/CollectionEditor/CollectionEditor.test.ts&#45;&gt;src/gathering/CollectionEditor/PackRepositoryMock.ts</title>
<path fill="none" stroke="#000000" stroke-width="2" stroke-opacity="0.200000" d="M672.65,-172C674.74,-172 676.85,-172 678.96,-172"/>
<polygon fill="#000000" fill-opacity="0.200000" stroke="#000000" stroke-width="2" stroke-opacity="0.200000" points="679.29,-174.1 685.29,-172 679.29,-169.9 679.29,-174.1"/>
</g>
<!-- src/gathering/CollectionEntity.ts -->
<g id="node6" class="node">
<title>src/gathering/CollectionEntity.ts</title>
<g id="a_node6"><a xlink:href="src/gathering/CollectionEntity.ts" xlink:title="CollectionEntity.ts">
<path fill="#ddfeff" stroke="black" d="M909.5,-224C909.5,-224 832.5,-224 832.5,-224 829.5,-224 826.5,-221 826.5,-218 826.5,-218 826.5,-212 826.5,-212 826.5,-209 829.5,-206 832.5,-206 832.5,-206 909.5,-206 909.5,-206 912.5,-206 915.5,-209 915.5,-212 915.5,-212 915.5,-218 915.5,-218 915.5,-221 912.5,-224 909.5,-224"/>
<text text-anchor="start" x="834.5" y="-212.8" font-family="Helvetica,sans-Serif" font-size="9.00">CollectionEntity.ts</text>
</a>
</g>
</g>
<!-- src/gathering/CollectionEditor/CollectionEditor.test.ts&#45;&gt;src/gathering/CollectionEntity.ts -->
<g id="edge5" class="edge">
<title>src/gathering/CollectionEditor/CollectionEditor.test.ts&#45;&gt;src/gathering/CollectionEntity.ts</title>
<path fill="none" stroke="#000000" stroke-width="2" stroke-opacity="0.200000" d="M629.91,-181.07C642.42,-190.85 664,-205.84 685.5,-212 729.61,-224.63 782.11,-224.07 819.8,-221.12"/>
<polygon fill="#000000" fill-opacity="0.200000" stroke="#000000" stroke-width="2" stroke-opacity="0.200000" points="820.39,-223.18 826.19,-220.59 820.04,-218.99 820.39,-223.18"/>
</g>
<!-- src/gathering/ICollectionEditor.ts -->
<g id="node7" class="node">
<title>src/gathering/ICollectionEditor.ts</title>
<g id="a_node7"><a xlink:href="src/gathering/ICollectionEditor.ts" xlink:title="ICollectionEditor.ts">
<path fill="#ddfeff" stroke="black" d="M912,-268C912,-268 830,-268 830,-268 827,-268 824,-265 824,-262 824,-262 824,-256 824,-256 824,-253 827,-250 830,-250 830,-250 912,-250 912,-250 915,-250 918,-253 918,-256 918,-256 918,-262 918,-262 918,-265 915,-268 912,-268"/>
<text text-anchor="start" x="832" y="-256.8" font-family="Helvetica,sans-Serif" font-size="9.00">ICollectionEditor.ts</text>
</a>
</g>
</g>
<!-- src/gathering/CollectionEditor/CollectionEditor.test.ts&#45;&gt;src/gathering/ICollectionEditor.ts -->
<g id="edge6" class="edge">
<title>src/gathering/CollectionEditor/CollectionEditor.test.ts&#45;&gt;src/gathering/ICollectionEditor.ts</title>
<path fill="none" stroke="#000000" stroke-opacity="0.200000" d="M628.5,-181.12C640.69,-192.29 662.97,-210.96 685.5,-221 727.89,-239.88 779.98,-249.51 817.99,-254.34"/>
<polygon fill="none" stroke="#000000" stroke-opacity="0.200000" points="817.75,-256.42 823.96,-255.07 818.26,-252.26 817.75,-256.42"/>
</g>
<!-- src/gathering/ICollectionOutput.ts -->
<g id="node8" class="node">
<title>src/gathering/ICollectionOutput.ts</title>
<g id="a_node8"><a xlink:href="src/gathering/ICollectionOutput.ts" xlink:title="ICollectionOutput.ts">
<path fill="#ddfeff" stroke="black" d="M913.5,-166C913.5,-166 828.5,-166 828.5,-166 825.5,-166 822.5,-163 822.5,-160 822.5,-160 822.5,-154 822.5,-154 822.5,-151 825.5,-148 828.5,-148 828.5,-148 913.5,-148 913.5,-148 916.5,-148 919.5,-151 919.5,-154 919.5,-154 919.5,-160 919.5,-160 919.5,-163 916.5,-166 913.5,-166"/>
<text text-anchor="start" x="830.5" y="-154.8" font-family="Helvetica,sans-Serif" font-size="9.00">ICollectionOutput.ts</text>
</a>
</g>
</g>
<!-- src/gathering/CollectionEditor/CollectionEditor.test.ts&#45;&gt;src/gathering/ICollectionOutput.ts -->
<g id="edge7" class="edge">
<title>src/gathering/CollectionEditor/CollectionEditor.test.ts&#45;&gt;src/gathering/ICollectionOutput.ts</title>
<path fill="none" stroke="#000000" stroke-opacity="0.200000" d="M648.21,-181.07C685.6,-191.17 751.94,-204 805.5,-187 814.31,-184.2 814.33,-179.34 822.5,-175 826.98,-172.62 831.84,-170.4 836.69,-168.39"/>
<polygon fill="none" stroke="#000000" stroke-opacity="0.200000" points="837.56,-170.31 842.35,-166.13 836,-166.41 837.56,-170.31"/>
</g>
<!-- src/gathering/CollectionEditor/CollectionEditor.ts&#45;&gt;src/gathering/Pack.ts -->
<g id="edge12" class="edge">
<title>src/gathering/CollectionEditor/CollectionEditor.ts&#45;&gt;src/gathering/Pack.ts</title>
<path fill="none" stroke="#000000" stroke-opacity="0.200000" d="M787.71,-137.79C858.67,-131.95 992.42,-124.3 1034.5,-145 1048.77,-152.02 1059.59,-167 1066.17,-178.36"/>
<polygon fill="none" stroke="#000000" stroke-opacity="0.200000" points="1064.49,-179.67 1069.22,-183.92 1068.17,-177.65 1064.49,-179.67"/>
</g>
<!-- src/gathering/CollectionEditor/CollectionEditor.ts&#45;&gt;src/gathering/CollectionEntity.ts -->
<g id="edge9" class="edge">
<title>src/gathering/CollectionEditor/CollectionEditor.ts&#45;&gt;src/gathering/CollectionEntity.ts</title>
<path fill="none" stroke="#000000" stroke-width="2" stroke-opacity="0.200000" d="M787.57,-149.81C793.77,-151.71 799.92,-154.08 805.5,-157 806.23,-157.38 836.47,-184.68 855.28,-201.68"/>
<polygon fill="#000000" fill-opacity="0.200000" stroke="#000000" stroke-width="2" stroke-opacity="0.200000" points="853.93,-203.3 859.79,-205.76 856.75,-200.18 853.93,-203.3"/>
</g>
<!-- src/gathering/CollectionEditor/CollectionEditor.ts&#45;&gt;src/gathering/ICollectionEditor.ts -->
<g id="edge10" class="edge">
<title>src/gathering/CollectionEditor/CollectionEditor.ts&#45;&gt;src/gathering/ICollectionEditor.ts</title>
<path fill="none" stroke="#000000" stroke-opacity="0.200000" d="M787.73,-146.27C794.35,-148.63 800.58,-152.06 805.5,-157 829,-180.61 802.99,-203 822.5,-230 827.46,-236.86 834.59,-242.43 841.83,-246.78"/>
<polygon fill="none" stroke="#000000" stroke-opacity="0.200000" points="841.09,-248.77 847.35,-249.87 843.14,-245.1 841.09,-248.77"/>
</g>
<!-- src/gathering/CollectionEditor/CollectionEditor.ts&#45;&gt;src/gathering/ICollectionOutput.ts -->
<g id="edge11" class="edge">
<title>src/gathering/CollectionEditor/CollectionEditor.ts&#45;&gt;src/gathering/ICollectionOutput.ts</title>
<path fill="none" stroke="#000000" stroke-opacity="0.200000" d="M787.81,-147.33C796.97,-148.41 806.69,-149.55 816.11,-150.66"/>
<polygon fill="none" stroke="#000000" stroke-opacity="0.200000" points="816.04,-152.77 822.25,-151.38 816.53,-148.6 816.04,-152.77"/>
</g>
<!-- src/gathering/PackRepository/index.ts -->
<g id="node9" class="node">
<title>src/gathering/PackRepository/index.ts</title>
<g id="a_node9"><a xlink:href="src/gathering/PackRepository/index.ts" xlink:title="index.ts">
<path fill="#ddfeff" stroke="black" d="M892,-100C892,-100 850,-100 850,-100 847,-100 844,-97 844,-94 844,-94 844,-88 844,-88 844,-85 847,-82 850,-82 850,-82 892,-82 892,-82 895,-82 898,-85 898,-88 898,-88 898,-94 898,-94 898,-97 895,-100 892,-100"/>
<text text-anchor="start" x="855" y="-88.8" font-family="Helvetica,sans-Serif" font-size="9.00">index.ts</text>
</a>
</g>
</g>
<!-- src/gathering/CollectionEditor/CollectionEditor.ts&#45;&gt;src/gathering/PackRepository/index.ts -->
<g id="edge8" class="edge">
<title>src/gathering/CollectionEditor/CollectionEditor.ts&#45;&gt;src/gathering/PackRepository/index.ts</title>
<path fill="none" stroke="#000000" stroke-width="2" stroke-opacity="0.200000" d="M787.6,-137.15C793.93,-135.23 800.11,-132.6 805.5,-129 816.68,-121.54 811.57,-111.81 822.5,-104 827.1,-100.71 832.49,-98.26 837.95,-96.42"/>
<polygon fill="#000000" fill-opacity="0.200000" stroke="#000000" stroke-width="2" stroke-opacity="0.200000" points="838.73,-98.39 843.88,-94.67 837.53,-94.36 838.73,-98.39"/>
</g>
<!-- src/gathering/CollectionEditor/PackRepositoryMock.ts&#45;&gt;src/gathering/Pack.ts -->
<g id="edge14" class="edge">
<title>src/gathering/CollectionEditor/PackRepositoryMock.ts&#45;&gt;src/gathering/Pack.ts</title>
<path fill="none" stroke="#000000" stroke-opacity="0.200000" d="M797.74,-179.74C800.51,-181.23 803.12,-182.97 805.5,-185 821.76,-198.88 804.91,-217.84 822.5,-230 861.34,-256.85 989.79,-231.16 1034.5,-216 1041.94,-213.48 1049.52,-209.41 1056,-205.4"/>
<polygon fill="none" stroke="#000000" stroke-opacity="0.200000" points="1057.24,-207.09 1061.15,-202.08 1054.97,-203.57 1057.24,-207.09"/>
</g>
<!-- src/gathering/IPackRepository.ts -->
<g id="node10" class="node">
<title>src/gathering/IPackRepository.ts</title>
<g id="a_node10"><a xlink:href="src/gathering/IPackRepository.ts" xlink:title="IPackRepository.ts">
<path fill="#ddfeff" stroke="black" d="M1028.5,-202C1028.5,-202 947.5,-202 947.5,-202 944.5,-202 941.5,-199 941.5,-196 941.5,-196 941.5,-190 941.5,-190 941.5,-187 944.5,-184 947.5,-184 947.5,-184 1028.5,-184 1028.5,-184 1031.5,-184 1034.5,-187 1034.5,-190 1034.5,-190 1034.5,-196 1034.5,-196 1034.5,-199 1031.5,-202 1028.5,-202"/>
<text text-anchor="start" x="949.5" y="-190.8" font-family="Helvetica,sans-Serif" font-size="9.00">IPackRepository.ts</text>
</a>
</g>
</g>
<!-- src/gathering/CollectionEditor/PackRepositoryMock.ts&#45;&gt;src/gathering/IPackRepository.ts -->
<g id="edge13" class="edge">
<title>src/gathering/CollectionEditor/PackRepositoryMock.ts&#45;&gt;src/gathering/IPackRepository.ts</title>
<path fill="none" stroke="#000000" stroke-opacity="0.200000" d="M797.68,-176.74C838.85,-180.28 894.74,-185.08 935.1,-188.54"/>
<polygon fill="none" stroke="#000000" stroke-opacity="0.200000" points="935.29,-190.67 941.44,-189.09 935.65,-186.48 935.29,-190.67"/>
</g>
<!-- src/gathering/CollectionEntity.ts&#45;&gt;src/gathering/Pack.ts -->
<g id="edge16" class="edge">
<title>src/gathering/CollectionEntity.ts&#45;&gt;src/gathering/Pack.ts</title>
<path fill="none" stroke="#000000" stroke-opacity="0.200000" d="M915.58,-216.91C948.57,-217.45 994.83,-216.25 1034.5,-208 1038.89,-207.09 1043.44,-205.74 1047.81,-204.22"/>
<polygon fill="none" stroke="#000000" stroke-opacity="0.200000" points="1048.74,-206.12 1053.63,-202.06 1047.28,-202.18 1048.74,-206.12"/>
</g>
<!-- src/gathering/CollectionEntity.ts&#45;&gt;src/gathering/IPackRepository.ts -->
<g id="edge15" class="edge">
<title>src/gathering/CollectionEntity.ts&#45;&gt;src/gathering/IPackRepository.ts</title>
<path fill="none" stroke="#000000" stroke-opacity="0.200000" d="M915.8,-206.62C922.22,-205.39 928.88,-204.12 935.43,-202.87"/>
<polygon fill="none" stroke="#000000" stroke-opacity="0.200000" points="935.91,-204.91 941.41,-201.72 935.12,-200.79 935.91,-204.91"/>
</g>
<!-- src/gathering/ICollectionEditor.ts&#45;&gt;src/gathering/Pack.ts -->
<g id="edge17" class="edge">
<title>src/gathering/ICollectionEditor.ts&#45;&gt;src/gathering/Pack.ts</title>
<path fill="none" stroke="#000000" stroke-opacity="0.200000" d="M918.21,-262.94C952.34,-263.78 998.87,-260.44 1034.5,-241 1048.31,-233.47 1059.08,-218.84 1065.77,-207.71"/>
<polygon fill="none" stroke="#000000" stroke-opacity="0.200000" points="1067.73,-208.51 1068.9,-202.26 1064.09,-206.42 1067.73,-208.51"/>
</g>
<!-- src/gathering/ICollectionOutput.ts&#45;&gt;src/gathering/Collection.ts -->
<g id="edge18" class="edge">
<title>src/gathering/ICollectionOutput.ts&#45;&gt;src/gathering/Collection.ts</title>
<path fill="none" stroke="#000000" stroke-opacity="0.200000" d="M919.77,-158.25C929.1,-158.49 938.78,-158.74 947.78,-158.98"/>
<polygon fill="none" stroke="#000000" stroke-opacity="0.200000" points="947.85,-161.08 953.9,-159.14 947.96,-156.88 947.85,-161.08"/>
</g>
<!-- src/gathering/PackRepository/index.ts&#45;&gt;src/gathering/Pack.ts -->
<g id="edge21" class="edge">
<title>src/gathering/PackRepository/index.ts&#45;&gt;src/gathering/Pack.ts</title>
<path fill="none" stroke="#000000" stroke-opacity="0.200000" d="M898.13,-91.54C932.48,-93.47 993.28,-101.24 1034.5,-131 1050.92,-142.85 1062,-163.95 1068.03,-178.21"/>
<polygon fill="none" stroke="#000000" stroke-opacity="0.200000" points="1066.12,-179.07 1070.31,-183.85 1070.01,-177.5 1066.12,-179.07"/>
</g>
<!-- src/gathering/PackRepository/index.ts&#45;&gt;src/gathering/IPackRepository.ts -->
<g id="edge20" class="edge">
<title>src/gathering/PackRepository/index.ts&#45;&gt;src/gathering/IPackRepository.ts</title>
<path fill="none" stroke="#000000" stroke-opacity="0.200000" d="M898.05,-93.32C905.78,-95.18 913.72,-98.41 919.5,-104 943.25,-126.97 919.05,-150.77 941.5,-175 943.49,-177.15 945.76,-179.04 948.22,-180.71"/>
<polygon fill="none" stroke="#000000" stroke-opacity="0.200000" points="947.23,-182.57 953.46,-183.84 949.38,-178.96 947.23,-182.57"/>
</g>
<!-- src/gathering/IPackRepository.ts&#45;&gt;src/gathering/Pack.ts -->
<g id="edge19" class="edge">
<title>src/gathering/IPackRepository.ts&#45;&gt;src/gathering/Pack.ts</title>
<path fill="none" stroke="#000000" stroke-opacity="0.200000" d="M1034.71,-193C1036.89,-193 1039.06,-193 1041.18,-193"/>
<polygon fill="none" stroke="#000000" stroke-opacity="0.200000" points="1041.44,-195.1 1047.44,-193 1041.44,-190.9 1041.44,-195.1"/>
</g>
<!-- src/gathering/index.ts -->
<g id="node11" class="node">
<title>src/gathering/index.ts</title>
<g id="a_node11"><a xlink:href="src/gathering/index.ts" xlink:title="index.ts">
<path fill="#ddfeff" stroke="black" d="M639,-117C639,-117 597,-117 597,-117 594,-117 591,-114 591,-111 591,-111 591,-105 591,-105 591,-102 594,-99 597,-99 597,-99 639,-99 639,-99 642,-99 645,-102 645,-105 645,-105 645,-111 645,-111 645,-114 642,-117 639,-117"/>
<text text-anchor="start" x="602" y="-105.8" font-family="Helvetica,sans-Serif" font-size="9.00">index.ts</text>
</a>
</g>
</g>
<!-- src/gathering/index.ts&#45;&gt;src/gathering/CollectionEditor/CollectionEditor.ts -->
<g id="edge22" class="edge">
<title>src/gathering/index.ts&#45;&gt;src/gathering/CollectionEditor/CollectionEditor.ts</title>
<path fill="none" stroke="#000000" stroke-width="2" stroke-opacity="0.200000" d="M645.25,-113.55C654.05,-115.75 663.83,-118.59 672.5,-122 678.61,-124.4 679.37,-126.67 685.5,-129 687.38,-129.71 689.31,-130.4 691.28,-131.05"/>
<polygon fill="#000000" fill-opacity="0.200000" stroke="#000000" stroke-width="2" stroke-opacity="0.200000" points="690.88,-133.13 697.24,-132.92 692.14,-129.12 690.88,-133.13"/>
</g>
<!-- src/gathering/index.ts&#45;&gt;src/gathering/PackRepository/index.ts -->
<g id="edge23" class="edge">
<title>src/gathering/index.ts&#45;&gt;src/gathering/PackRepository/index.ts</title>
<path fill="none" stroke="#000000" stroke-width="2" stroke-opacity="0.200000" d="M645.39,-106.21C691.74,-103.07 787.61,-96.58 837.79,-93.18"/>
<polygon fill="#000000" fill-opacity="0.200000" stroke="#000000" stroke-width="2" stroke-opacity="0.200000" points="838.12,-95.26 843.97,-92.76 837.84,-91.07 838.12,-95.26"/>
</g>
<!-- src/lib/userEditsCollection/userEditsCollection.ts -->
<g id="node12" class="node">
<title>src/lib/userEditsCollection/userEditsCollection.ts</title>
<g id="a_node12"><a xlink:href="src/lib/userEditsCollection/userEditsCollection.ts" xlink:title="userEditsCollection.ts">
<path fill="#ddfeff" stroke="black" d="M496,-242C496,-242 401,-242 401,-242 398,-242 395,-239 395,-236 395,-236 395,-230 395,-230 395,-227 398,-224 401,-224 401,-224 496,-224 496,-224 499,-224 502,-227 502,-230 502,-230 502,-236 502,-236 502,-239 499,-242 496,-242"/>
<text text-anchor="start" x="403" y="-230.8" font-family="Helvetica,sans-Serif" font-size="9.00">userEditsCollection.ts</text>
</a>
</g>
</g>
<!-- src/lib/userEditsCollection/userEditsCollection.ts&#45;&gt;src/gathering/Collection.ts -->
<g id="edge25" class="edge">
<title>src/lib/userEditsCollection/userEditsCollection.ts&#45;&gt;src/gathering/Collection.ts</title>
<path fill="none" stroke="#000000" stroke-opacity="0.200000" d="M460.2,-223.84C479.53,-206.64 520.07,-167.37 539.5,-125 548.51,-105.34 531.15,-91.16 547.5,-77 672.5,31.25 771.4,2.55 919.5,-71 950.8,-86.55 971.48,-124.31 980.98,-145.3"/>
<polygon fill="none" stroke="#000000" stroke-opacity="0.200000" points="979.14,-146.34 983.47,-150.99 982.99,-144.66 979.14,-146.34"/>
</g>
<!-- src/lib/userEditsCollection/userEditsCollection.ts&#45;&gt;src/gathering/ICollectionOutput.ts -->
<g id="edge26" class="edge">
<title>src/lib/userEditsCollection/userEditsCollection.ts&#45;&gt;src/gathering/ICollectionOutput.ts</title>
<path fill="none" stroke="#000000" stroke-opacity="0.200000" d="M459.58,-223.96C478.27,-206.64 518.28,-166.78 539.5,-125 546.14,-111.93 535.94,-102.02 547.5,-93 592.98,-57.49 751.42,-101.9 805.5,-122 821.24,-127.85 837.87,-136.96 850.3,-144.41"/>
<polygon fill="none" stroke="#000000" stroke-opacity="0.200000" points="849.49,-146.37 855.7,-147.71 851.67,-142.79 849.49,-146.37"/>
</g>
<!-- src/lib/userEditsCollection/userEditsCollection.ts&#45;&gt;src/gathering/index.ts -->
<g id="edge24" class="edge">
<title>src/lib/userEditsCollection/userEditsCollection.ts&#45;&gt;src/gathering/index.ts</title>
<path fill="none" stroke="#000000" stroke-width="2" stroke-opacity="0.200000" d="M454.74,-223.73C467.51,-202.06 502.52,-147.94 547.5,-122 558.67,-115.56 572.33,-112.05 584.58,-110.14"/>
<polygon fill="#000000" fill-opacity="0.200000" stroke="#000000" stroke-width="2" stroke-opacity="0.200000" points="585.17,-112.18 590.83,-109.29 584.6,-108.02 585.17,-112.18"/>
</g>
<!-- src/routes/collection/edit/+page.svelte.ts -->
<g id="node13" class="node">
<title>src/routes/collection/edit/+page.svelte.ts</title>
<g id="a_node13"><a xlink:href="src/routes/collection/edit/+page.svelte.ts" xlink:title="+page.svelte.ts">
<path fill="#ddfeff" stroke="black" d="M113,-109C113,-109 46,-109 46,-109 43,-109 40,-106 40,-103 40,-103 40,-97 40,-97 40,-94 43,-91 46,-91 46,-91 113,-91 113,-91 116,-91 119,-94 119,-97 119,-97 119,-103 119,-103 119,-106 116,-109 113,-109"/>
<text text-anchor="start" x="48" y="-97.8" font-family="Helvetica,sans-Serif" font-size="9.00">+page.svelte.ts</text>
</a>
</g>
</g>
<!-- src/routes/collection/edit/+page.svelte.ts&#45;&gt;src/lib/userEditsCollection/userEditsCollection.ts -->
<g id="edge28" class="edge">
<title>src/routes/collection/edit/+page.svelte.ts&#45;&gt;src/lib/userEditsCollection/userEditsCollection.ts</title>
<path fill="none" stroke="#000000" stroke-width="2" stroke-opacity="0.200000" d="M96.1,-109.24C104.97,-114.28 116.4,-120.41 127,-125 225.69,-167.8 347.27,-204.65 408.44,-222.15"/>
<polygon fill="#000000" fill-opacity="0.200000" stroke="#000000" stroke-width="2" stroke-opacity="0.200000" points="408.17,-224.26 414.52,-223.88 409.33,-220.22 408.17,-224.26"/>
</g>
<!-- src/routes/collection/edit/PacksBundle/PacksBundle.svelte.ts -->
<g id="node14" class="node">
<title>src/routes/collection/edit/PacksBundle/PacksBundle.svelte.ts</title>
<g id="a_node14"><a xlink:href="src/routes/collection/edit/PacksBundle/PacksBundle.svelte.ts" xlink:title="PacksBundle.svelte.ts">
<path fill="#ddfeff" stroke="black" d="M236,-96C236,-96 141,-96 141,-96 138,-96 135,-93 135,-90 135,-90 135,-84 135,-84 135,-81 138,-78 141,-78 141,-78 236,-78 236,-78 239,-78 242,-81 242,-84 242,-84 242,-90 242,-90 242,-93 239,-96 236,-96"/>
<text text-anchor="start" x="143" y="-84.8" font-family="Helvetica,sans-Serif" font-size="9.00">PacksBundle.svelte.ts</text>
</a>
</g>
</g>
<!-- src/routes/collection/edit/+page.svelte.ts&#45;&gt;src/routes/collection/edit/PacksBundle/PacksBundle.svelte.ts -->
<g id="edge27" class="edge">
<title>src/routes/collection/edit/+page.svelte.ts&#45;&gt;src/routes/collection/edit/PacksBundle/PacksBundle.svelte.ts</title>
<path fill="none" stroke="#000000" stroke-width="2" stroke-opacity="0.200000" d="M119.13,-95.31C122.35,-94.92 125.64,-94.52 128.96,-94.11"/>
<polygon fill="#000000" fill-opacity="0.200000" stroke="#000000" stroke-width="2" stroke-opacity="0.200000" points="129.26,-96.19 134.96,-93.38 128.75,-92.02 129.26,-96.19"/>
</g>
<!-- src/routes/collection/edit/PacksBundle/PacksBundle.svelte.ts&#45;&gt;src/lib/userEditsCollection/userEditsCollection.ts -->
<g id="edge33" class="edge">
<title>src/routes/collection/edit/PacksBundle/PacksBundle.svelte.ts&#45;&gt;src/lib/userEditsCollection/userEditsCollection.ts</title>
<path fill="none" stroke="#000000" stroke-opacity="0.200000" d="M210.21,-96.08C244.51,-111.4 314.9,-144.06 371,-178 392.63,-191.08 416.02,-208.41 431.17,-220.09"/>
<polygon fill="none" stroke="#000000" stroke-opacity="0.200000" points="429.94,-221.8 435.97,-223.82 432.52,-218.49 429.94,-221.8"/>
</g>
<!-- src/routes/collection/edit/PacksBundle/CollectiblePack.svelte.ts -->
<g id="node15" class="node">
<title>src/routes/collection/edit/PacksBundle/CollectiblePack.svelte.ts</title>
<g id="a_node15"><a xlink:href="src/routes/collection/edit/PacksBundle/CollectiblePack.svelte.ts" xlink:title="CollectiblePack.svelte.ts">
<path fill="#ddfeff" stroke="black" d="M365,-96C365,-96 261,-96 261,-96 258,-96 255,-93 255,-90 255,-90 255,-84 255,-84 255,-81 258,-78 261,-78 261,-78 365,-78 365,-78 368,-78 371,-81 371,-84 371,-84 371,-90 371,-90 371,-93 368,-96 365,-96"/>
<text text-anchor="start" x="263" y="-84.8" font-family="Helvetica,sans-Serif" font-size="9.00">CollectiblePack.svelte.ts</text>
</a>
</g>
</g>
<!-- src/routes/collection/edit/PacksBundle/PacksBundle.svelte.ts&#45;&gt;src/routes/collection/edit/PacksBundle/CollectiblePack.svelte.ts -->
<g id="edge32" class="edge">
<title>src/routes/collection/edit/PacksBundle/PacksBundle.svelte.ts&#45;&gt;src/routes/collection/edit/PacksBundle/CollectiblePack.svelte.ts</title>
<path fill="none" stroke="#000000" stroke-width="2" stroke-opacity="0.200000" d="M242.16,-87C244.24,-87 246.33,-87 248.42,-87"/>
<polygon fill="#000000" fill-opacity="0.200000" stroke="#000000" stroke-width="2" stroke-opacity="0.200000" points="248.7,-89.1 254.7,-87 248.7,-84.9 248.7,-89.1"/>
</g>
<!-- src/routes/collection/edit/PacksBundle/CollectiblePack.svelte.ts&#45;&gt;src/lib/userEditsCollection/userEditsCollection.ts -->
<g id="edge31" class="edge">
<title>src/routes/collection/edit/PacksBundle/CollectiblePack.svelte.ts&#45;&gt;src/lib/userEditsCollection/userEditsCollection.ts</title>
<path fill="none" stroke="#000000" stroke-opacity="0.200000" d="M349.47,-96.05C357.19,-99.22 364.88,-103.43 371,-109 376.88,-114.35 375.09,-118.08 379,-125 398.56,-159.6 424.26,-198.62 437.95,-218.96"/>
<polygon fill="none" stroke="#000000" stroke-opacity="0.200000" points="436.22,-220.15 441.31,-223.95 439.7,-217.8 436.22,-220.15"/>
</g>
<!-- src/routes/collection/edit/PacksBundle/arrow&#45;down.svg.svelte.ts -->
<g id="node16" class="node">
<title>src/routes/collection/edit/PacksBundle/arrow&#45;down.svg.svelte.ts</title>
<g id="a_node16"><a xlink:href="src/routes/collection/edit/PacksBundle/arrow-down.svg.svelte.ts" xlink:title="arrow&#45;down.svg.svelte.ts">
<path fill="#ddfeff" stroke="black" d="M501.5,-66C501.5,-66 395.5,-66 395.5,-66 392.5,-66 389.5,-63 389.5,-60 389.5,-60 389.5,-54 389.5,-54 389.5,-51 392.5,-48 395.5,-48 395.5,-48 501.5,-48 501.5,-48 504.5,-48 507.5,-51 507.5,-54 507.5,-54 507.5,-60 507.5,-60 507.5,-63 504.5,-66 501.5,-66"/>
<text text-anchor="start" x="397.5" y="-54.8" font-family="Helvetica,sans-Serif" font-size="9.00">arrow&#45;down.svg.svelte.ts</text>
</a>
</g>
</g>
<!-- src/routes/collection/edit/PacksBundle/CollectiblePack.svelte.ts&#45;&gt;src/routes/collection/edit/PacksBundle/arrow&#45;down.svg.svelte.ts -->
<g id="edge29" class="edge">
<title>src/routes/collection/edit/PacksBundle/CollectiblePack.svelte.ts&#45;&gt;src/routes/collection/edit/PacksBundle/arrow&#45;down.svg.svelte.ts</title>
<path fill="none" stroke="#000000" stroke-width="2" stroke-opacity="0.200000" d="M352.82,-77.97C361.44,-75.98 370.53,-73.91 379,-72 385.77,-70.48 392.93,-68.89 399.96,-67.34"/>
<polygon fill="#000000" fill-opacity="0.200000" stroke="#000000" stroke-width="2" stroke-opacity="0.200000" points="400.42,-69.39 405.83,-66.05 399.51,-65.29 400.42,-69.39"/>
</g>
<!-- src/routes/collection/edit/PacksBundle/arrow&#45;up.svg.svelte.ts -->
<g id="node17" class="node">
<title>src/routes/collection/edit/PacksBundle/arrow&#45;up.svg.svelte.ts</title>
<g id="a_node17"><a xlink:href="src/routes/collection/edit/PacksBundle/arrow-up.svg.svelte.ts" xlink:title="arrow&#45;up.svg.svelte.ts">
<path fill="#ddfeff" stroke="black" d="M495.5,-96C495.5,-96 401.5,-96 401.5,-96 398.5,-96 395.5,-93 395.5,-90 395.5,-90 395.5,-84 395.5,-84 395.5,-81 398.5,-78 401.5,-78 401.5,-78 495.5,-78 495.5,-78 498.5,-78 501.5,-81 501.5,-84 501.5,-84 501.5,-90 501.5,-90 501.5,-93 498.5,-96 495.5,-96"/>
<text text-anchor="start" x="403.5" y="-84.8" font-family="Helvetica,sans-Serif" font-size="9.00">arrow&#45;up.svg.svelte.ts</text>
</a>
</g>
</g>
<!-- src/routes/collection/edit/PacksBundle/CollectiblePack.svelte.ts&#45;&gt;src/routes/collection/edit/PacksBundle/arrow&#45;up.svg.svelte.ts -->
<g id="edge30" class="edge">
<title>src/routes/collection/edit/PacksBundle/CollectiblePack.svelte.ts&#45;&gt;src/routes/collection/edit/PacksBundle/arrow&#45;up.svg.svelte.ts</title>
<path fill="none" stroke="#000000" stroke-width="2" stroke-opacity="0.200000" d="M371,-87C377.06,-87 383.23,-87 389.3,-87"/>
<polygon fill="#000000" fill-opacity="0.200000" stroke="#000000" stroke-width="2" stroke-opacity="0.200000" points="389.34,-89.1 395.34,-87 389.34,-84.9 389.34,-89.1"/>
</g>
</g>
</svg>
