<?xml version="1.0" encoding="UTF-8" standalone="no"?>
<!DOCTYPE svg PUBLIC "-//W3C//DTD SVG 1.1//EN"
 "http://www.w3.org/Graphics/SVG/1.1/DTD/svg11.dtd">
<!-- Generated by graphviz version 2.50.0 (20211204.2007)
 -->
<!-- Title: dependency&#45;cruiser output Pages: 1 -->
<svg width="677pt" height="496pt"
 viewBox="0.00 0.00 677.00 496.00" xmlns="http://www.w3.org/2000/svg" xmlns:xlink="http://www.w3.org/1999/xlink">
<g id="graph0" class="graph" transform="scale(1 1) rotate(0) translate(4 492)">
<title>dependency&#45;cruiser output</title>
<polygon fill="white" stroke="transparent" points="-4,4 -4,-492 673,-492 673,4 -4,4"/>
<g id="clust1" class="cluster">
<title>cluster_src</title>
<path fill="#ffffff" stroke="black" stroke-width="2" d="M20,-8C20,-8 649,-8 649,-8 655,-8 661,-14 661,-20 661,-20 661,-468 661,-468 661,-474 655,-480 649,-480 649,-480 20,-480 20,-480 14,-480 8,-474 8,-468 8,-468 8,-20 8,-20 8,-14 14,-8 20,-8"/>
<text text-anchor="middle" x="334.5" y="-468.8" font-family="Helvetica,sans-Serif" font-weight="bold" font-size="9.00">src</text>
</g>
<g id="clust2" class="cluster">
<title>cluster_src/gathering</title>
<path fill="#ffffff" stroke="black" stroke-width="2" d="M157.5,-170C157.5,-170 641,-170 641,-170 647,-170 653,-176 653,-182 653,-182 653,-442 653,-442 653,-448 647,-454 641,-454 641,-454 157.5,-454 157.5,-454 151.5,-454 145.5,-448 145.5,-442 145.5,-442 145.5,-182 145.5,-182 145.5,-176 151.5,-170 157.5,-170"/>
<text text-anchor="middle" x="399.25" y="-442.8" font-family="Helvetica,sans-Serif" font-weight="bold" font-size="9.00">gathering</text>
</g>
<g id="clust3" class="cluster">
<title>cluster_src/gathering/CollectionEditor</title>
<path fill="#ffffff" stroke="black" stroke-width="2" d="M165.5,-312C165.5,-312 269.5,-312 269.5,-312 275.5,-312 281.5,-318 281.5,-324 281.5,-324 281.5,-382 281.5,-382 281.5,-388 275.5,-394 269.5,-394 269.5,-394 165.5,-394 165.5,-394 159.5,-394 153.5,-388 153.5,-382 153.5,-382 153.5,-324 153.5,-324 153.5,-318 159.5,-312 165.5,-312"/>
<text text-anchor="middle" x="217.5" y="-382.8" font-family="Helvetica,sans-Serif" font-weight="bold" font-size="9.00">CollectionEditor</text>
</g>
<g id="clust5" class="cluster">
<title>cluster_src/gathering/CollectionLoader</title>
<path fill="#ffffff" stroke="black" stroke-width="2" d="M173,-252C173,-252 262,-252 262,-252 268,-252 274,-258 274,-264 274,-264 274,-292 274,-292 274,-298 268,-304 262,-304 262,-304 173,-304 173,-304 167,-304 161,-298 161,-292 161,-292 161,-264 161,-264 161,-258 167,-252 173,-252"/>
<text text-anchor="middle" x="217.5" y="-292.8" font-family="Helvetica,sans-Serif" font-weight="bold" font-size="9.00">CollectionLoader</text>
</g>
<g id="clust6" class="cluster">
<title>cluster_src/gathering/CollectionOrganizer</title>
<path fill="#ffffff" stroke="black" stroke-width="2" d="M320,-178C320,-178 419,-178 419,-178 425,-178 431,-184 431,-190 431,-190 431,-218 431,-218 431,-224 425,-230 419,-230 419,-230 320,-230 320,-230 314,-230 308,-224 308,-218 308,-218 308,-190 308,-190 308,-184 314,-178 320,-178"/>
<text text-anchor="middle" x="369.5" y="-218.8" font-family="Helvetica,sans-Serif" font-weight="bold" font-size="9.00">CollectionOrganizer</text>
</g>
<g id="clust4" class="cluster">
<title>cluster_src/gathering/CollectionEntity</title>
<path fill="#ffffff" stroke="black" stroke-width="2" d="M329,-352C329,-352 410,-352 410,-352 416,-352 422,-358 422,-364 422,-364 422,-392 422,-392 422,-398 416,-404 410,-404 410,-404 329,-404 329,-404 323,-404 317,-398 317,-392 317,-392 317,-364 317,-364 317,-358 323,-352 329,-352"/>
<text text-anchor="middle" x="369.5" y="-392.8" font-family="Helvetica,sans-Serif" font-weight="bold" font-size="9.00">CollectionEntity</text>
</g>
<g id="clust7" class="cluster">
<title>cluster_src/lib</title>
<path fill="#ffffff" stroke="black" stroke-width="2" d="M147,-16C147,-16 288,-16 288,-16 294,-16 300,-22 300,-28 300,-28 300,-150 300,-150 300,-156 294,-162 288,-162 288,-162 147,-162 147,-162 141,-162 135,-156 135,-150 135,-150 135,-28 135,-28 135,-22 141,-16 147,-16"/>
<text text-anchor="middle" x="217.5" y="-150.8" font-family="Helvetica,sans-Serif" font-weight="bold" font-size="9.00">lib</text>
</g>
<g id="clust8" class="cluster">
<title>cluster_src/lib/userBrowsesItsCollection</title>
<path fill="#ffffff" stroke="black" stroke-width="2" d="M155,-24C155,-24 280,-24 280,-24 286,-24 292,-30 292,-36 292,-36 292,-64 292,-64 292,-70 286,-76 280,-76 280,-76 155,-76 155,-76 149,-76 143,-70 143,-64 143,-64 143,-36 143,-36 143,-30 149,-24 155,-24"/>
<text text-anchor="middle" x="217.5" y="-64.8" font-family="Helvetica,sans-Serif" font-weight="bold" font-size="9.00">userBrowsesItsCollection</text>
</g>
<g id="clust9" class="cluster">
<title>cluster_src/lib/userEditsItsCollection</title>
<path fill="#ffffff" stroke="black" stroke-width="2" d="M163,-84C163,-84 272,-84 272,-84 278,-84 284,-90 284,-96 284,-96 284,-124 284,-124 284,-130 278,-136 272,-136 272,-136 163,-136 163,-136 157,-136 151,-130 151,-124 151,-124 151,-96 151,-96 151,-90 157,-84 163,-84"/>
<text text-anchor="middle" x="217.5" y="-124.8" font-family="Helvetica,sans-Serif" font-weight="bold" font-size="9.00">userEditsItsCollection</text>
</g>
<g id="clust10" class="cluster">
<title>cluster_src/routes</title>
<path fill="#ffffff" stroke="black" stroke-width="2" d="M28,-16C28,-16 115,-16 115,-16 121,-16 127,-22 127,-28 127,-28 127,-90 127,-90 127,-96 121,-102 115,-102 115,-102 28,-102 28,-102 22,-102 16,-96 16,-90 16,-90 16,-28 16,-28 16,-22 22,-16 28,-16"/>
<text text-anchor="middle" x="71.5" y="-90.8" font-family="Helvetica,sans-Serif" font-weight="bold" font-size="9.00">routes</text>
</g>
<g id="clust11" class="cluster">
<title>cluster_src/routes/collection</title>
<path fill="#ffffff" stroke="black" stroke-width="2" d="M36,-24C36,-24 107,-24 107,-24 113,-24 119,-30 119,-36 119,-36 119,-64 119,-64 119,-70 113,-76 107,-76 107,-76 36,-76 36,-76 30,-76 24,-70 24,-64 24,-64 24,-36 24,-36 24,-30 30,-24 36,-24"/>
<text text-anchor="middle" x="71.5" y="-64.8" font-family="Helvetica,sans-Serif" font-weight="bold" font-size="9.00">collection</text>
</g>
<!-- src/gathering/Collection.ts -->
<g id="node1" class="node">
<title>src/gathering/Collection.ts</title>
<g id="a_node1"><a xlink:href="src/gathering/Collection.ts" xlink:title="Collection.ts">
<path fill="#ddfeff" stroke="black" d="M522,-278C522,-278 466,-278 466,-278 463,-278 460,-275 460,-272 460,-272 460,-266 460,-266 460,-263 463,-260 466,-260 466,-260 522,-260 522,-260 525,-260 528,-263 528,-266 528,-266 528,-272 528,-272 528,-275 525,-278 522,-278"/>
<text text-anchor="start" x="468" y="-266.8" font-family="Helvetica,sans-Serif" font-size="9.00">Collection.ts</text>
</a>
</g>
</g>
<!-- src/gathering/Pack.ts -->
<g id="node2" class="node">
<title>src/gathering/Pack.ts</title>
<g id="a_node2"><a xlink:href="src/gathering/Pack.ts" xlink:title="Pack.ts">
<path fill="#ddfeff" stroke="black" d="M624.5,-352C624.5,-352 582.5,-352 582.5,-352 579.5,-352 576.5,-349 576.5,-346 576.5,-346 576.5,-340 576.5,-340 576.5,-337 579.5,-334 582.5,-334 582.5,-334 624.5,-334 624.5,-334 627.5,-334 630.5,-337 630.5,-340 630.5,-340 630.5,-346 630.5,-346 630.5,-349 627.5,-352 624.5,-352"/>
<text text-anchor="start" x="588" y="-340.8" font-family="Helvetica,sans-Serif" font-size="9.00">Pack.ts</text>
</a>
</g>
</g>
<!-- src/gathering/Collection.ts&#45;&gt;src/gathering/Pack.ts -->
<g id="edge1" class="edge">
<title>src/gathering/Collection.ts&#45;&gt;src/gathering/Pack.ts</title>
<path fill="none" stroke="#000000" stroke-opacity="0.200000" d="M508.18,-278.07C527.2,-291.17 562.43,-315.41 584.03,-330.29"/>
<polygon fill="none" stroke="#000000" stroke-opacity="0.200000" points="583.08,-332.18 589.21,-333.85 585.46,-328.72 583.08,-332.18"/>
</g>
<!-- src/gathering/CollectionEditor/CollectionEditor.ts -->
<g id="node3" class="node">
<title>src/gathering/CollectionEditor/CollectionEditor.ts</title>
<g id="a_node3"><a xlink:href="src/gathering/CollectionEditor/CollectionEditor.ts" xlink:title="CollectionEditor.ts">
<path fill="#ddfeff" stroke="black" d="M257.5,-338C257.5,-338 177.5,-338 177.5,-338 174.5,-338 171.5,-335 171.5,-332 171.5,-332 171.5,-326 171.5,-326 171.5,-323 174.5,-320 177.5,-320 177.5,-320 257.5,-320 257.5,-320 260.5,-320 263.5,-323 263.5,-326 263.5,-326 263.5,-332 263.5,-332 263.5,-335 260.5,-338 257.5,-338"/>
<text text-anchor="start" x="179.5" y="-326.8" font-family="Helvetica,sans-Serif" font-size="9.00">CollectionEditor.ts</text>
</a>
</g>
</g>
<!-- src/gathering/CollectionEditor/CollectionEditor.ts&#45;&gt;src/gathering/Pack.ts -->
<g id="edge4" class="edge">
<title>src/gathering/CollectionEditor/CollectionEditor.ts&#45;&gt;src/gathering/Pack.ts</title>
<path fill="none" stroke="#000000" stroke-opacity="0.200000" d="M263.52,-327.55C276.96,-329.44 290.61,-334.07 300,-344 319.39,-364.51 286.82,-388.34 308,-407 328.51,-425.07 404.11,-411.88 431,-407 434.74,-406.32 435.44,-405.33 439,-404 485.48,-386.61 539.42,-366.5 572.24,-354.27"/>
<polygon fill="none" stroke="#000000" stroke-opacity="0.200000" points="573.23,-356.14 578.12,-352.08 571.76,-352.21 573.23,-356.14"/>
</g>
<!-- src/gathering/ICollectionEditor.ts -->
<g id="node4" class="node">
<title>src/gathering/ICollectionEditor.ts</title>
<g id="a_node4"><a xlink:href="src/gathering/ICollectionEditor.ts" xlink:title="ICollectionEditor.ts">
<path fill="#ddfeff" stroke="black" d="M410.5,-330C410.5,-330 328.5,-330 328.5,-330 325.5,-330 322.5,-327 322.5,-324 322.5,-324 322.5,-318 322.5,-318 322.5,-315 325.5,-312 328.5,-312 328.5,-312 410.5,-312 410.5,-312 413.5,-312 416.5,-315 416.5,-318 416.5,-318 416.5,-324 416.5,-324 416.5,-327 413.5,-330 410.5,-330"/>
<text text-anchor="start" x="330.5" y="-318.8" font-family="Helvetica,sans-Serif" font-size="9.00">ICollectionEditor.ts</text>
</a>
</g>
</g>
<!-- src/gathering/CollectionEditor/CollectionEditor.ts&#45;&gt;src/gathering/ICollectionEditor.ts -->
<g id="edge2" class="edge">
<title>src/gathering/CollectionEditor/CollectionEditor.ts&#45;&gt;src/gathering/ICollectionEditor.ts</title>
<path fill="none" stroke="#000000" stroke-opacity="0.200000" d="M263.5,-326.6C280.11,-325.71 299.05,-324.7 316.24,-323.79"/>
<polygon fill="none" stroke="#000000" stroke-opacity="0.200000" points="316.61,-325.87 322.49,-323.45 316.39,-321.68 316.61,-325.87"/>
</g>
<!-- src/gathering/ICollectionOutput.ts -->
<g id="node5" class="node">
<title>src/gathering/ICollectionOutput.ts</title>
<g id="a_node5"><a xlink:href="src/gathering/ICollectionOutput.ts" xlink:title="ICollectionOutput.ts">
<path fill="#ddfeff" stroke="black" d="M412,-256C412,-256 327,-256 327,-256 324,-256 321,-253 321,-250 321,-250 321,-244 321,-244 321,-241 324,-238 327,-238 327,-238 412,-238 412,-238 415,-238 418,-241 418,-244 418,-244 418,-250 418,-250 418,-253 415,-256 412,-256"/>
<text text-anchor="start" x="329" y="-244.8" font-family="Helvetica,sans-Serif" font-size="9.00">ICollectionOutput.ts</text>
</a>
</g>
</g>
<!-- src/gathering/CollectionEditor/CollectionEditor.ts&#45;&gt;src/gathering/ICollectionOutput.ts -->
<g id="edge3" class="edge">
<title>src/gathering/CollectionEditor/CollectionEditor.ts&#45;&gt;src/gathering/ICollectionOutput.ts</title>
<path fill="none" stroke="#000000" stroke-opacity="0.200000" d="M263.89,-325.39C277.04,-322.24 290.42,-316.69 300,-307 310.01,-296.88 298.96,-286.99 308,-276 314.19,-268.48 322.79,-262.77 331.57,-258.5"/>
<polygon fill="none" stroke="#000000" stroke-opacity="0.200000" points="332.44,-260.41 337.04,-256.03 330.71,-256.59 332.44,-260.41"/>
</g>
<!-- src/gathering/ICollectionEditor.ts&#45;&gt;src/gathering/Pack.ts -->
<g id="edge18" class="edge">
<title>src/gathering/ICollectionEditor.ts&#45;&gt;src/gathering/Pack.ts</title>
<path fill="none" stroke="#000000" stroke-opacity="0.200000" d="M416.61,-325.37C462.02,-329.68 530.21,-336.14 570.14,-339.93"/>
<polygon fill="none" stroke="#000000" stroke-opacity="0.200000" points="570.13,-342.04 576.3,-340.52 570.53,-337.86 570.13,-342.04"/>
</g>
<!-- src/gathering/ICollectionOutput.ts&#45;&gt;src/gathering/Collection.ts -->
<g id="edge21" class="edge">
<title>src/gathering/ICollectionOutput.ts&#45;&gt;src/gathering/Collection.ts</title>
<path fill="none" stroke="#000000" stroke-opacity="0.200000" d="M418.21,-255.57C430,-257.69 442.5,-259.93 453.83,-261.96"/>
<polygon fill="none" stroke="#000000" stroke-opacity="0.200000" points="453.71,-264.08 459.99,-263.07 454.46,-259.94 453.71,-264.08"/>
</g>
<!-- src/gathering/CollectionEditor/PackRepositoryMock.ts -->
<g id="node6" class="node">
<title>src/gathering/CollectionEditor/PackRepositoryMock.ts</title>
<g id="a_node6"><a xlink:href="src/gathering/CollectionEditor/PackRepositoryMock.ts" xlink:title="PackRepositoryMock.ts">
<path fill="#ddfeff" stroke="black" d="M267.5,-368C267.5,-368 167.5,-368 167.5,-368 164.5,-368 161.5,-365 161.5,-362 161.5,-362 161.5,-356 161.5,-356 161.5,-353 164.5,-350 167.5,-350 167.5,-350 267.5,-350 267.5,-350 270.5,-350 273.5,-353 273.5,-356 273.5,-356 273.5,-362 273.5,-362 273.5,-365 270.5,-368 267.5,-368"/>
<text text-anchor="start" x="169.5" y="-356.8" font-family="Helvetica,sans-Serif" font-size="9.00">PackRepositoryMock.ts</text>
</a>
</g>
</g>
<!-- src/gathering/CollectionEditor/PackRepositoryMock.ts&#45;&gt;src/gathering/Pack.ts -->
<g id="edge6" class="edge">
<title>src/gathering/CollectionEditor/PackRepositoryMock.ts&#45;&gt;src/gathering/Pack.ts</title>
<path fill="none" stroke="#000000" stroke-opacity="0.200000" d="M273.81,-352.02C285.11,-350.82 296.92,-349.73 308,-349 403.13,-342.73 515.88,-342.41 570.14,-342.7"/>
<polygon fill="none" stroke="#000000" stroke-opacity="0.200000" points="570.45,-344.8 576.47,-342.74 570.48,-340.6 570.45,-344.8"/>
</g>
<!-- src/gathering/IPackRepository.ts -->
<g id="node7" class="node">
<title>src/gathering/IPackRepository.ts</title>
<g id="a_node7"><a xlink:href="src/gathering/IPackRepository.ts" xlink:title="IPackRepository.ts">
<path fill="#ddfeff" stroke="black" d="M534.5,-428C534.5,-428 453.5,-428 453.5,-428 450.5,-428 447.5,-425 447.5,-422 447.5,-422 447.5,-416 447.5,-416 447.5,-413 450.5,-410 453.5,-410 453.5,-410 534.5,-410 534.5,-410 537.5,-410 540.5,-413 540.5,-416 540.5,-416 540.5,-422 540.5,-422 540.5,-425 537.5,-428 534.5,-428"/>
<text text-anchor="start" x="455.5" y="-416.8" font-family="Helvetica,sans-Serif" font-size="9.00">IPackRepository.ts</text>
</a>
</g>
</g>
<!-- src/gathering/CollectionEditor/PackRepositoryMock.ts&#45;&gt;src/gathering/IPackRepository.ts -->
<g id="edge5" class="edge">
<title>src/gathering/CollectionEditor/PackRepositoryMock.ts&#45;&gt;src/gathering/IPackRepository.ts</title>
<path fill="none" stroke="#000000" stroke-opacity="0.200000" d="M228.27,-368.07C243.76,-381.78 275.56,-407.22 308,-417 351.46,-430.11 403.32,-429.35 441.05,-426.05"/>
<polygon fill="none" stroke="#000000" stroke-opacity="0.200000" points="441.68,-428.1 447.46,-425.45 441.29,-423.91 441.68,-428.1"/>
</g>
<!-- src/gathering/IPackRepository.ts&#45;&gt;src/gathering/Pack.ts -->
<g id="edge22" class="edge">
<title>src/gathering/IPackRepository.ts&#45;&gt;src/gathering/Pack.ts</title>
<path fill="none" stroke="#000000" stroke-opacity="0.200000" d="M530.75,-409.93C537.09,-407.54 543.44,-404.59 549,-401 566.92,-389.42 582.84,-370.46 592.56,-357.39"/>
<polygon fill="none" stroke="#000000" stroke-opacity="0.200000" points="594.51,-358.28 596.33,-352.19 591.11,-355.81 594.51,-358.28"/>
</g>
<!-- src/gathering/CollectionEntity/CollectionEntity.ts -->
<g id="node8" class="node">
<title>src/gathering/CollectionEntity/CollectionEntity.ts</title>
<g id="a_node8"><a xlink:href="src/gathering/CollectionEntity/CollectionEntity.ts" xlink:title="CollectionEntity.ts">
<path fill="#ddfeff" stroke="black" d="M408,-378C408,-378 331,-378 331,-378 328,-378 325,-375 325,-372 325,-372 325,-366 325,-366 325,-363 328,-360 331,-360 331,-360 408,-360 408,-360 411,-360 414,-363 414,-366 414,-366 414,-372 414,-372 414,-375 411,-378 408,-378"/>
<text text-anchor="start" x="333" y="-366.8" font-family="Helvetica,sans-Serif" font-size="9.00">CollectionEntity.ts</text>
</a>
</g>
</g>
<!-- src/gathering/CollectionEntity/CollectionEntity.ts&#45;&gt;src/gathering/Pack.ts -->
<g id="edge8" class="edge">
<title>src/gathering/CollectionEntity/CollectionEntity.ts&#45;&gt;src/gathering/Pack.ts</title>
<path fill="none" stroke="#000000" stroke-opacity="0.200000" d="M414.14,-364.11C459.58,-359.02 529.7,-351.16 570.34,-346.6"/>
<polygon fill="none" stroke="#000000" stroke-opacity="0.200000" points="570.63,-348.68 576.36,-345.93 570.16,-344.51 570.63,-348.68"/>
</g>
<!-- src/gathering/CollectionEntity/CollectionEntity.ts&#45;&gt;src/gathering/IPackRepository.ts -->
<g id="edge7" class="edge">
<title>src/gathering/CollectionEntity/CollectionEntity.ts&#45;&gt;src/gathering/IPackRepository.ts</title>
<path fill="none" stroke="#000000" stroke-opacity="0.200000" d="M414.3,-376.63C420,-378.14 425.7,-379.92 431,-382 446.78,-388.21 463.2,-398.19 475.17,-406.22"/>
<polygon fill="none" stroke="#000000" stroke-opacity="0.200000" points="474.2,-408.1 480.34,-409.75 476.57,-404.63 474.2,-408.1"/>
</g>
<!-- src/gathering/CollectionLoader/CollectionLoader.ts -->
<g id="node9" class="node">
<title>src/gathering/CollectionLoader/CollectionLoader.ts</title>
<g id="a_node9"><a xlink:href="src/gathering/CollectionLoader/CollectionLoader.ts" xlink:title="CollectionLoader.ts">
<path fill="#ddfeff" stroke="black" d="M260,-278C260,-278 175,-278 175,-278 172,-278 169,-275 169,-272 169,-272 169,-266 169,-266 169,-263 172,-260 175,-260 175,-260 260,-260 260,-260 263,-260 266,-263 266,-266 266,-266 266,-272 266,-272 266,-275 263,-278 260,-278"/>
<text text-anchor="start" x="177" y="-266.8" font-family="Helvetica,sans-Serif" font-size="9.00">CollectionLoader.ts</text>
</a>
</g>
</g>
<!-- src/gathering/CollectionLoader/CollectionLoader.ts&#45;&gt;src/gathering/Collection.ts -->
<g id="edge9" class="edge">
<title>src/gathering/CollectionLoader/CollectionLoader.ts&#45;&gt;src/gathering/Collection.ts</title>
<path fill="none" stroke="#000000" stroke-opacity="0.200000" d="M266,-269C319.12,-269 404.19,-269 453.71,-269"/>
<polygon fill="none" stroke="#000000" stroke-opacity="0.200000" points="453.87,-271.1 459.87,-269 453.87,-266.9 453.87,-271.1"/>
</g>
<!-- src/gathering/CollectionLoader/CollectionLoader.ts&#45;&gt;src/gathering/ICollectionEditor.ts -->
<g id="edge10" class="edge">
<title>src/gathering/CollectionLoader/CollectionLoader.ts&#45;&gt;src/gathering/ICollectionEditor.ts</title>
<path fill="none" stroke="#000000" stroke-opacity="0.200000" d="M238.09,-278.09C256.01,-286.17 283.4,-297.92 308,-306 312.73,-307.55 317.71,-309.03 322.7,-310.42"/>
<polygon fill="none" stroke="#000000" stroke-opacity="0.200000" points="322.22,-312.46 328.56,-311.99 323.31,-308.4 322.22,-312.46"/>
</g>
<!-- src/gathering/CollectionLoader/CollectionLoader.ts&#45;&gt;src/gathering/ICollectionOutput.ts -->
<g id="edge12" class="edge">
<title>src/gathering/CollectionLoader/CollectionLoader.ts&#45;&gt;src/gathering/ICollectionOutput.ts</title>
<path fill="none" stroke="#000000" stroke-opacity="0.200000" d="M266.37,-261.98C281.74,-259.72 298.86,-257.21 314.62,-254.9"/>
<polygon fill="none" stroke="#000000" stroke-opacity="0.200000" points="315.19,-256.94 320.82,-253.99 314.58,-252.79 315.19,-256.94"/>
</g>
<!-- src/gathering/ICollectionLoader.ts -->
<g id="node10" class="node">
<title>src/gathering/ICollectionLoader.ts</title>
<g id="a_node10"><a xlink:href="src/gathering/ICollectionLoader.ts" xlink:title="ICollectionLoader.ts">
<path fill="#ddfeff" stroke="black" d="M413,-300C413,-300 326,-300 326,-300 323,-300 320,-297 320,-294 320,-294 320,-288 320,-288 320,-285 323,-282 326,-282 326,-282 413,-282 413,-282 416,-282 419,-285 419,-288 419,-288 419,-294 419,-294 419,-297 416,-300 413,-300"/>
<text text-anchor="start" x="328" y="-288.8" font-family="Helvetica,sans-Serif" font-size="9.00">ICollectionLoader.ts</text>
</a>
</g>
</g>
<!-- src/gathering/CollectionLoader/CollectionLoader.ts&#45;&gt;src/gathering/ICollectionLoader.ts -->
<g id="edge11" class="edge">
<title>src/gathering/CollectionLoader/CollectionLoader.ts&#45;&gt;src/gathering/ICollectionLoader.ts</title>
<path fill="none" stroke="#000000" stroke-opacity="0.200000" d="M266.37,-276.02C281.44,-278.23 298.19,-280.69 313.69,-282.96"/>
<polygon fill="none" stroke="#000000" stroke-opacity="0.200000" points="313.55,-285.06 319.79,-283.86 314.16,-280.91 313.55,-285.06"/>
</g>
<!-- src/gathering/ICollectionLoader.ts&#45;&gt;src/gathering/Collection.ts -->
<g id="edge19" class="edge">
<title>src/gathering/ICollectionLoader.ts&#45;&gt;src/gathering/Collection.ts</title>
<path fill="none" stroke="#000000" stroke-opacity="0.200000" d="M419.27,-282.24C430.75,-280.18 442.85,-278.01 453.85,-276.03"/>
<polygon fill="none" stroke="#000000" stroke-opacity="0.200000" points="454.3,-278.08 459.83,-274.96 453.56,-273.95 454.3,-278.08"/>
</g>
<!-- src/gathering/CollectionOrganizer/CollectionOrganizer.ts -->
<g id="node11" class="node">
<title>src/gathering/CollectionOrganizer/CollectionOrganizer.ts</title>
<g id="a_node11"><a xlink:href="src/gathering/CollectionOrganizer/CollectionOrganizer.ts" xlink:title="CollectionOrganizer.ts">
<path fill="#ddfeff" stroke="black" d="M417,-204C417,-204 322,-204 322,-204 319,-204 316,-201 316,-198 316,-198 316,-192 316,-192 316,-189 319,-186 322,-186 322,-186 417,-186 417,-186 420,-186 423,-189 423,-192 423,-192 423,-198 423,-198 423,-201 420,-204 417,-204"/>
<text text-anchor="start" x="324" y="-192.8" font-family="Helvetica,sans-Serif" font-size="9.00">CollectionOrganizer.ts</text>
</a>
</g>
</g>
<!-- src/gathering/IBinderOutput.ts -->
<g id="node12" class="node">
<title>src/gathering/IBinderOutput.ts</title>
<g id="a_node12"><a xlink:href="src/gathering/IBinderOutput.ts" xlink:title="IBinderOutput.ts">
<path fill="#ddfeff" stroke="black" d="M639,-207C639,-207 568,-207 568,-207 565,-207 562,-204 562,-201 562,-201 562,-195 562,-195 562,-192 565,-189 568,-189 568,-189 639,-189 639,-189 642,-189 645,-192 645,-195 645,-195 645,-201 645,-201 645,-204 642,-207 639,-207"/>
<text text-anchor="start" x="570" y="-195.8" font-family="Helvetica,sans-Serif" font-size="9.00">IBinderOutput.ts</text>
</a>
</g>
</g>
<!-- src/gathering/CollectionOrganizer/CollectionOrganizer.ts&#45;&gt;src/gathering/IBinderOutput.ts -->
<g id="edge13" class="edge">
<title>src/gathering/CollectionOrganizer/CollectionOrganizer.ts&#45;&gt;src/gathering/IBinderOutput.ts</title>
<path fill="none" stroke="#000000" stroke-opacity="0.200000" d="M423.19,-200.93C428.52,-201.37 433.87,-201.74 439,-202 487.83,-204.49 500.15,-203.82 549,-202 551.23,-201.92 553.5,-201.81 555.8,-201.7"/>
<polygon fill="none" stroke="#000000" stroke-opacity="0.200000" points="556.04,-203.79 561.91,-201.35 555.81,-199.59 556.04,-203.79"/>
</g>
<!-- src/gathering/ICardRepository.ts -->
<g id="node13" class="node">
<title>src/gathering/ICardRepository.ts</title>
<g id="a_node13"><a xlink:href="src/gathering/ICardRepository.ts" xlink:title="ICardRepository.ts">
<path fill="#ddfeff" stroke="black" d="M534.5,-240C534.5,-240 453.5,-240 453.5,-240 450.5,-240 447.5,-237 447.5,-234 447.5,-234 447.5,-228 447.5,-228 447.5,-225 450.5,-222 453.5,-222 453.5,-222 534.5,-222 534.5,-222 537.5,-222 540.5,-225 540.5,-228 540.5,-228 540.5,-234 540.5,-234 540.5,-237 537.5,-240 534.5,-240"/>
<text text-anchor="start" x="455.5" y="-228.8" font-family="Helvetica,sans-Serif" font-size="9.00">ICardRepository.ts</text>
</a>
</g>
</g>
<!-- src/gathering/CollectionOrganizer/CollectionOrganizer.ts&#45;&gt;src/gathering/ICardRepository.ts -->
<g id="edge14" class="edge">
<title>src/gathering/CollectionOrganizer/CollectionOrganizer.ts&#45;&gt;src/gathering/ICardRepository.ts</title>
<path fill="none" stroke="#000000" stroke-opacity="0.200000" d="M419.81,-204.08C423.64,-205.25 427.42,-206.55 431,-208 434.89,-209.58 435.21,-211.21 439,-213 444.36,-215.53 450.18,-217.86 455.94,-219.95"/>
<polygon fill="none" stroke="#000000" stroke-opacity="0.200000" points="455.31,-221.95 461.67,-221.95 456.7,-217.99 455.31,-221.95"/>
</g>
<!-- src/gathering/ICollectionOrganizer.ts -->
<g id="node14" class="node">
<title>src/gathering/ICollectionOrganizer.ts</title>
<g id="a_node14"><a xlink:href="src/gathering/ICollectionOrganizer.ts" xlink:title="ICollectionOrganizer.ts">
<path fill="#ddfeff" stroke="black" d="M543,-196C543,-196 445,-196 445,-196 442,-196 439,-193 439,-190 439,-190 439,-184 439,-184 439,-181 442,-178 445,-178 445,-178 543,-178 543,-178 546,-178 549,-181 549,-184 549,-184 549,-190 549,-190 549,-193 546,-196 543,-196"/>
<text text-anchor="start" x="447" y="-184.8" font-family="Helvetica,sans-Serif" font-size="9.00">ICollectionOrganizer.ts</text>
</a>
</g>
</g>
<!-- src/gathering/CollectionOrganizer/CollectionOrganizer.ts&#45;&gt;src/gathering/ICollectionOrganizer.ts -->
<g id="edge15" class="edge">
<title>src/gathering/CollectionOrganizer/CollectionOrganizer.ts&#45;&gt;src/gathering/ICollectionOrganizer.ts</title>
<path fill="none" stroke="#000000" stroke-opacity="0.200000" d="M423.16,-191.56C426.24,-191.36 429.35,-191.16 432.46,-190.95"/>
<polygon fill="none" stroke="#000000" stroke-opacity="0.200000" points="432.97,-193.02 438.82,-190.54 432.7,-188.83 432.97,-193.02"/>
</g>
<!-- src/gathering/ICardRepository.ts&#45;&gt;src/gathering/Pack.ts -->
<g id="edge16" class="edge">
<title>src/gathering/ICardRepository.ts&#45;&gt;src/gathering/Pack.ts</title>
<path fill="none" stroke="#000000" stroke-opacity="0.200000" d="M525.5,-240.11C533.74,-243.56 542.24,-248.11 549,-254 572.81,-274.72 589.07,-308.72 596.98,-328.15"/>
<polygon fill="none" stroke="#000000" stroke-opacity="0.200000" points="595.09,-329.1 599.25,-333.91 599,-327.56 595.09,-329.1"/>
</g>
<!-- src/gathering/ICardRepository.ts&#45;&gt;src/gathering/IBinderOutput.ts -->
<g id="edge17" class="edge">
<title>src/gathering/ICardRepository.ts&#45;&gt;src/gathering/IBinderOutput.ts</title>
<path fill="none" stroke="#000000" stroke-opacity="0.200000" d="M524.37,-221.98C537.65,-217.91 553.44,-213.06 567.33,-208.8"/>
<polygon fill="none" stroke="#000000" stroke-opacity="0.200000" points="568.04,-210.77 573.16,-207.01 566.81,-206.76 568.04,-210.77"/>
</g>
<!-- src/gathering/ICollectionOrganizer.ts&#45;&gt;src/gathering/IBinderOutput.ts -->
<g id="edge20" class="edge">
<title>src/gathering/ICollectionOrganizer.ts&#45;&gt;src/gathering/IBinderOutput.ts</title>
<path fill="none" stroke="#000000" stroke-opacity="0.200000" d="M549.06,-192.53C551.21,-192.75 553.35,-192.97 555.48,-193.19"/>
<polygon fill="none" stroke="#000000" stroke-opacity="0.200000" points="555.63,-195.31 561.81,-193.84 556.05,-191.14 555.63,-195.31"/>
</g>
<!-- src/lib/userBrowsesItsCollection/userBrowsesItsCollection.ts -->
<g id="node15" class="node">
<title>src/lib/userBrowsesItsCollection/userBrowsesItsCollection.ts</title>
<g id="a_node15"><a xlink:href="src/lib/userBrowsesItsCollection/userBrowsesItsCollection.ts" xlink:title="userBrowsesItsCollection.ts">
<path fill="#ddfeff" stroke="black" d="M278,-50C278,-50 157,-50 157,-50 154,-50 151,-47 151,-44 151,-44 151,-38 151,-38 151,-35 154,-32 157,-32 157,-32 278,-32 278,-32 281,-32 284,-35 284,-38 284,-38 284,-44 284,-44 284,-47 281,-50 278,-50"/>
<text text-anchor="start" x="159" y="-38.8" font-family="Helvetica,sans-Serif" font-size="9.00">userBrowsesItsCollection.ts</text>
</a>
</g>
</g>
<!-- src/lib/userBrowsesItsCollection/userBrowsesItsCollection.ts&#45;&gt;src/gathering/IBinderOutput.ts -->
<g id="edge23" class="edge">
<title>src/lib/userBrowsesItsCollection/userBrowsesItsCollection.ts&#45;&gt;src/gathering/IBinderOutput.ts</title>
<path fill="none" stroke="#000000" stroke-opacity="0.200000" d="M284.39,-41.53C327.51,-43.89 384.31,-50.89 431,-70 498.29,-97.53 562.91,-157.76 589.63,-184.62"/>
<polygon fill="none" stroke="#000000" stroke-opacity="0.200000" points="588.17,-186.13 593.88,-188.93 591.16,-183.18 588.17,-186.13"/>
</g>
<!-- src/lib/userBrowsesItsCollection/userBrowsesItsCollection.ts&#45;&gt;src/gathering/ICollectionOrganizer.ts -->
<g id="edge24" class="edge">
<title>src/lib/userBrowsesItsCollection/userBrowsesItsCollection.ts&#45;&gt;src/gathering/ICollectionOrganizer.ts</title>
<path fill="none" stroke="#000000" stroke-opacity="0.200000" d="M248.2,-50.06C290.73,-63.8 370.53,-92.44 431,-131 449.79,-142.98 468.35,-160.74 480.2,-173.04"/>
<polygon fill="none" stroke="#000000" stroke-opacity="0.200000" points="478.89,-174.71 484.54,-177.62 481.94,-171.82 478.89,-174.71"/>
</g>
<!-- src/lib/userEditsItsCollection/userEditsItsCollection.ts -->
<g id="node16" class="node">
<title>src/lib/userEditsItsCollection/userEditsItsCollection.ts</title>
<g id="a_node16"><a xlink:href="src/lib/userEditsItsCollection/userEditsItsCollection.ts" xlink:title="userEditsItsCollection.ts">
<path fill="#ddfeff" stroke="black" d="M270,-110C270,-110 165,-110 165,-110 162,-110 159,-107 159,-104 159,-104 159,-98 159,-98 159,-95 162,-92 165,-92 165,-92 270,-92 270,-92 273,-92 276,-95 276,-98 276,-98 276,-104 276,-104 276,-107 273,-110 270,-110"/>
<text text-anchor="start" x="167" y="-98.8" font-family="Helvetica,sans-Serif" font-size="9.00">userEditsItsCollection.ts</text>
</a>
</g>
</g>
<!-- src/lib/userEditsItsCollection/userEditsItsCollection.ts&#45;&gt;src/gathering/Collection.ts -->
<g id="edge25" class="edge">
<title>src/lib/userEditsItsCollection/userEditsItsCollection.ts&#45;&gt;src/gathering/Collection.ts</title>
<path fill="none" stroke="#000000" stroke-opacity="0.200000" d="M276.39,-104.68C325.53,-111.1 393.82,-128.45 431,-175 450.82,-199.81 420.03,-220.53 439,-246 442.96,-251.32 448.4,-255.42 454.3,-258.58"/>
<polygon fill="none" stroke="#000000" stroke-opacity="0.200000" points="453.51,-260.53 459.83,-261.22 455.33,-256.74 453.51,-260.53"/>
</g>
<!-- src/lib/userEditsItsCollection/userEditsItsCollection.ts&#45;&gt;src/gathering/ICollectionEditor.ts -->
<g id="edge26" class="edge">
<title>src/lib/userEditsItsCollection/userEditsItsCollection.ts&#45;&gt;src/gathering/ICollectionEditor.ts</title>
<path fill="none" stroke="#000000" stroke-opacity="0.200000" d="M225.11,-110.14C240.96,-132.54 281.19,-192.5 300,-249 308.08,-273.27 290.87,-287 308,-306 310.57,-308.85 313.58,-311.2 316.87,-313.13"/>
<polygon fill="none" stroke="#000000" stroke-opacity="0.200000" points="315.94,-315.01 322.25,-315.83 317.83,-311.26 315.94,-315.01"/>
</g>
<!-- src/lib/userEditsItsCollection/userEditsItsCollection.ts&#45;&gt;src/gathering/ICollectionOutput.ts -->
<g id="edge27" class="edge">
<title>src/lib/userEditsItsCollection/userEditsItsCollection.ts&#45;&gt;src/gathering/ICollectionOutput.ts</title>
<path fill="none" stroke="#000000" stroke-opacity="0.200000" d="M221.89,-110.09C231.39,-134.29 260.74,-200.58 308,-233 310.2,-234.51 312.54,-235.86 314.97,-237.06"/>
<polygon fill="none" stroke="#000000" stroke-opacity="0.200000" points="314.46,-239.13 320.8,-239.62 316.15,-235.28 314.46,-239.13"/>
</g>
<!-- src/routes/collection/+page.svelte.ts -->
<g id="node17" class="node">
<title>src/routes/collection/+page.svelte.ts</title>
<g id="a_node17"><a xlink:href="src/routes/collection/+page.svelte.ts" xlink:title="+page.svelte.ts">
<path fill="#ddfeff" stroke="black" d="M105,-50C105,-50 38,-50 38,-50 35,-50 32,-47 32,-44 32,-44 32,-38 32,-38 32,-35 35,-32 38,-32 38,-32 105,-32 105,-32 108,-32 111,-35 111,-38 111,-38 111,-44 111,-44 111,-47 108,-50 105,-50"/>
<text text-anchor="start" x="40" y="-38.8" font-family="Helvetica,sans-Serif" font-size="9.00">+page.svelte.ts</text>
</a>
</g>
</g>
<!-- src/routes/collection/+page.svelte.ts&#45;&gt;src/lib/userBrowsesItsCollection/userBrowsesItsCollection.ts -->
<g id="edge28" class="edge">
<title>src/routes/collection/+page.svelte.ts&#45;&gt;src/lib/userBrowsesItsCollection/userBrowsesItsCollection.ts</title>
<path fill="none" stroke="#000000" stroke-width="2" stroke-opacity="0.200000" d="M111.09,-41C121.52,-41 133.15,-41 144.77,-41"/>
<polygon fill="#000000" fill-opacity="0.200000" stroke="#000000" stroke-width="2" stroke-opacity="0.200000" points="144.84,-43.1 150.84,-41 144.84,-38.9 144.84,-43.1"/>
</g>
</g>
</svg>
