<?xml version="1.0" encoding="UTF-8" standalone="no"?>
<!DOCTYPE svg PUBLIC "-//W3C//DTD SVG 1.1//EN"
 "http://www.w3.org/Graphics/SVG/1.1/DTD/svg11.dtd">
<!-- Generated by graphviz version 2.50.0 (20211204.2007)
 -->
<!-- Title: dependency&#45;cruiser output Pages: 1 -->
<svg width="885pt" height="357pt"
 viewBox="0.00 0.00 885.00 357.21" xmlns="http://www.w3.org/2000/svg" xmlns:xlink="http://www.w3.org/1999/xlink">
<g id="graph0" class="graph" transform="scale(1 1) rotate(0) translate(4 353.21)">
<title>dependency&#45;cruiser output</title>
<polygon fill="white" stroke="transparent" points="-4,4 -4,-353.21 881,-353.21 881,4 -4,4"/>
<g id="clust1" class="cluster">
<title>cluster_src</title>
<path fill="#ffffff" stroke="black" stroke-width="2" d="M20,-11.21C20,-11.21 857,-11.21 857,-11.21 863,-11.21 869,-17.21 869,-23.21 869,-23.21 869,-329.21 869,-329.21 869,-335.21 863,-341.21 857,-341.21 857,-341.21 20,-341.21 20,-341.21 14,-341.21 8,-335.21 8,-329.21 8,-329.21 8,-23.21 8,-23.21 8,-17.21 14,-11.21 20,-11.21"/>
<text text-anchor="middle" x="438.5" y="-330.01" font-family="Helvetica,sans-Serif" font-weight="bold" font-size="9.00">src</text>
</g>
<g id="clust5" class="cluster">
<title>cluster_src/lib</title>
<path fill="#ffffff" stroke="black" stroke-width="2" d="M164,-19.21C164,-19.21 279,-19.21 279,-19.21 285,-19.21 291,-25.21 291,-31.21 291,-31.21 291,-303.21 291,-303.21 291,-309.21 285,-315.21 279,-315.21 279,-315.21 164,-315.21 164,-315.21 158,-315.21 152,-309.21 152,-303.21 152,-303.21 152,-31.21 152,-31.21 152,-25.21 158,-19.21 164,-19.21"/>
<text text-anchor="middle" x="221.5" y="-304.01" font-family="Helvetica,sans-Serif" font-weight="bold" font-size="9.00">lib</text>
</g>
<g id="clust7" class="cluster">
<title>cluster_src/lib/server</title>
<path fill="#ffffff" stroke="black" stroke-width="2" d="M183,-147.21C183,-147.21 260,-147.21 260,-147.21 266,-147.21 272,-153.21 272,-159.21 272,-159.21 272,-277.21 272,-277.21 272,-283.21 266,-289.21 260,-289.21 260,-289.21 183,-289.21 183,-289.21 177,-289.21 171,-283.21 171,-277.21 171,-277.21 171,-159.21 171,-159.21 171,-153.21 177,-147.21 183,-147.21"/>
<text text-anchor="middle" x="221.5" y="-278.01" font-family="Helvetica,sans-Serif" font-weight="bold" font-size="9.00">server</text>
</g>
<g id="clust8" class="cluster">
<title>cluster_src/lib/server/collection</title>
<path fill="#ffffff" stroke="black" stroke-width="2" d="M197.5,-211.21C197.5,-211.21 245.5,-211.21 245.5,-211.21 251.5,-211.21 257.5,-217.21 257.5,-223.21 257.5,-223.21 257.5,-251.21 257.5,-251.21 257.5,-257.21 251.5,-263.21 245.5,-263.21 245.5,-263.21 197.5,-263.21 197.5,-263.21 191.5,-263.21 185.5,-257.21 185.5,-251.21 185.5,-251.21 185.5,-223.21 185.5,-223.21 185.5,-217.21 191.5,-211.21 197.5,-211.21"/>
<text text-anchor="middle" x="221.5" y="-252.01" font-family="Helvetica,sans-Serif" font-weight="bold" font-size="9.00">collection</text>
</g>
<g id="clust6" class="cluster">
<title>cluster_src/lib/BinderStorage</title>
<path fill="#ffffff" stroke="black" stroke-width="2" d="M194.5,-87.21C194.5,-87.21 248.5,-87.21 248.5,-87.21 254.5,-87.21 260.5,-93.21 260.5,-99.21 260.5,-99.21 260.5,-127.21 260.5,-127.21 260.5,-133.21 254.5,-139.21 248.5,-139.21 248.5,-139.21 194.5,-139.21 194.5,-139.21 188.5,-139.21 182.5,-133.21 182.5,-127.21 182.5,-127.21 182.5,-99.21 182.5,-99.21 182.5,-93.21 188.5,-87.21 194.5,-87.21"/>
<text text-anchor="middle" x="221.5" y="-128.01" font-family="Helvetica,sans-Serif" font-weight="bold" font-size="9.00">BinderStorage</text>
</g>
<g id="clust9" class="cluster">
<title>cluster_src/lib/userEditsCollection</title>
<path fill="#ffffff" stroke="black" stroke-width="2" d="M172,-27.21C172,-27.21 271,-27.21 271,-27.21 277,-27.21 283,-33.21 283,-39.21 283,-39.21 283,-67.21 283,-67.21 283,-73.21 277,-79.21 271,-79.21 271,-79.21 172,-79.21 172,-79.21 166,-79.21 160,-73.21 160,-67.21 160,-67.21 160,-39.21 160,-39.21 160,-33.21 166,-27.21 172,-27.21"/>
<text text-anchor="middle" x="221.5" y="-68.01" font-family="Helvetica,sans-Serif" font-weight="bold" font-size="9.00">userEditsCollection</text>
</g>
<g id="clust2" class="cluster">
<title>cluster_src/gathering</title>
<path fill="#ffffff" stroke="black" stroke-width="2" d="M311,-35.21C311,-35.21 849,-35.21 849,-35.21 855,-35.21 861,-41.21 861,-47.21 861,-47.21 861,-251.21 861,-251.21 861,-257.21 855,-263.21 849,-263.21 849,-263.21 311,-263.21 311,-263.21 305,-263.21 299,-257.21 299,-251.21 299,-251.21 299,-47.21 299,-47.21 299,-41.21 305,-35.21 311,-35.21"/>
<text text-anchor="middle" x="580" y="-252.01" font-family="Helvetica,sans-Serif" font-weight="bold" font-size="9.00">gathering</text>
</g>
<g id="clust3" class="cluster">
<title>cluster_src/gathering/CollectionEditor</title>
<path fill="#ffffff" stroke="black" stroke-width="2" d="M319,-101.21C319,-101.21 545,-101.21 545,-101.21 551,-101.21 557,-107.21 557,-113.21 557,-113.21 557,-171.21 557,-171.21 557,-177.21 551,-183.21 545,-183.21 545,-183.21 319,-183.21 319,-183.21 313,-183.21 307,-177.21 307,-171.21 307,-171.21 307,-113.21 307,-113.21 307,-107.21 313,-101.21 319,-101.21"/>
<text text-anchor="middle" x="432" y="-172.01" font-family="Helvetica,sans-Serif" font-weight="bold" font-size="9.00">CollectionEditor</text>
</g>
<g id="clust4" class="cluster">
<title>cluster_src/gathering/PackRepository</title>
<path fill="#ffffff" stroke="black" stroke-width="2" d="M592.5,-43.21C592.5,-43.21 652.5,-43.21 652.5,-43.21 658.5,-43.21 664.5,-49.21 664.5,-55.21 664.5,-55.21 664.5,-83.21 664.5,-83.21 664.5,-89.21 658.5,-95.21 652.5,-95.21 652.5,-95.21 592.5,-95.21 592.5,-95.21 586.5,-95.21 580.5,-89.21 580.5,-83.21 580.5,-83.21 580.5,-55.21 580.5,-55.21 580.5,-49.21 586.5,-43.21 592.5,-43.21"/>
<text text-anchor="middle" x="622.5" y="-84.01" font-family="Helvetica,sans-Serif" font-weight="bold" font-size="9.00">PackRepository</text>
</g>
<g id="clust10" class="cluster">
<title>cluster_src/routes</title>
<path fill="#ffffff" stroke="black" stroke-width="2" d="M28,-146.21C28,-146.21 132,-146.21 132,-146.21 138,-146.21 144,-152.21 144,-158.21 144,-158.21 144,-254.21 144,-254.21 144,-260.21 138,-266.21 132,-266.21 132,-266.21 28,-266.21 28,-266.21 22,-266.21 16,-260.21 16,-254.21 16,-254.21 16,-158.21 16,-158.21 16,-152.21 22,-146.21 28,-146.21"/>
<text text-anchor="middle" x="80" y="-255.01" font-family="Helvetica,sans-Serif" font-weight="bold" font-size="9.00">routes</text>
</g>
<g id="clust11" class="cluster">
<title>cluster_src/routes/collection</title>
<path fill="#ffffff" stroke="black" stroke-width="2" d="M36,-154.21C36,-154.21 124,-154.21 124,-154.21 130,-154.21 136,-160.21 136,-166.21 136,-166.21 136,-228.21 136,-228.21 136,-234.21 130,-240.21 124,-240.21 124,-240.21 36,-240.21 36,-240.21 30,-240.21 24,-234.21 24,-228.21 24,-228.21 24,-166.21 24,-166.21 24,-160.21 30,-154.21 36,-154.21"/>
<text text-anchor="middle" x="80" y="-229.01" font-family="Helvetica,sans-Serif" font-weight="bold" font-size="9.00">collection</text>
</g>
<g id="clust12" class="cluster">
<title>cluster_src/routes/collection/couz</title>
<path fill="#ffffff" stroke="black" stroke-width="2" d="M44,-162.21C44,-162.21 116,-162.21 116,-162.21 122,-162.21 128,-168.21 128,-174.21 128,-174.21 128,-202.21 128,-202.21 128,-208.21 122,-214.21 116,-214.21 116,-214.21 44,-214.21 44,-214.21 38,-214.21 32,-208.21 32,-202.21 32,-202.21 32,-174.21 32,-174.21 32,-168.21 38,-162.21 44,-162.21"/>
<text text-anchor="middle" x="80" y="-203.01" font-family="Helvetica,sans-Serif" font-weight="bold" font-size="9.00">couz</text>
</g>
<!-- src/gathering/Collection.ts -->
<g id="node1" class="node">
<title>src/gathering/Collection.ts</title>
<g id="a_node1"><a xlink:href="src/gathering/Collection.ts" xlink:title="Collection.ts">
<path fill="#ddfeff" stroke="black" d="M767.5,-187.21C767.5,-187.21 711.5,-187.21 711.5,-187.21 708.5,-187.21 705.5,-184.21 705.5,-181.21 705.5,-181.21 705.5,-175.21 705.5,-175.21 705.5,-172.21 708.5,-169.21 711.5,-169.21 711.5,-169.21 767.5,-169.21 767.5,-169.21 770.5,-169.21 773.5,-172.21 773.5,-175.21 773.5,-175.21 773.5,-181.21 773.5,-181.21 773.5,-184.21 770.5,-187.21 767.5,-187.21"/>
<text text-anchor="start" x="713.5" y="-176.01" font-family="Helvetica,sans-Serif" font-size="9.00">Collection.ts</text>
</a>
</g>
</g>
<!-- src/gathering/Pack.ts -->
<g id="node2" class="node">
<title>src/gathering/Pack.ts</title>
<g id="a_node2"><a xlink:href="src/gathering/Pack.ts" xlink:title="Pack.ts">
<path fill="#ddfeff" stroke="black" d="M847,-141.21C847,-141.21 805,-141.21 805,-141.21 802,-141.21 799,-138.21 799,-135.21 799,-135.21 799,-129.21 799,-129.21 799,-126.21 802,-123.21 805,-123.21 805,-123.21 847,-123.21 847,-123.21 850,-123.21 853,-126.21 853,-129.21 853,-129.21 853,-135.21 853,-135.21 853,-138.21 850,-141.21 847,-141.21"/>
<text text-anchor="start" x="810.5" y="-130.01" font-family="Helvetica,sans-Serif" font-size="9.00">Pack.ts</text>
</a>
</g>
</g>
<!-- src/gathering/Collection.ts&#45;&gt;src/gathering/Pack.ts -->
<g id="edge1" class="edge">
<title>src/gathering/Collection.ts&#45;&gt;src/gathering/Pack.ts</title>
<path fill="none" stroke="#000000" stroke-opacity="0.200000" d="M757.85,-169.2C766.36,-164.75 776.75,-159.25 786,-154.21 791.73,-151.08 797.9,-147.63 803.6,-144.42"/>
<polygon fill="none" stroke="#000000" stroke-opacity="0.200000" points="804.93,-146.08 809.12,-141.3 802.86,-142.43 804.93,-146.08"/>
</g>
<!-- src/gathering/CollectionEditor/CollectionEditor.test.ts -->
<g id="node3" class="node">
<title>src/gathering/CollectionEditor/CollectionEditor.test.ts</title>
<g id="a_node3"><a xlink:href="src/gathering/CollectionEditor/CollectionEditor.test.ts" xlink:title="CollectionEditor.test.ts">
<path fill="#ddfeff" stroke="black" d="M418,-157.21C418,-157.21 321,-157.21 321,-157.21 318,-157.21 315,-154.21 315,-151.21 315,-151.21 315,-145.21 315,-145.21 315,-142.21 318,-139.21 321,-139.21 321,-139.21 418,-139.21 418,-139.21 421,-139.21 424,-142.21 424,-145.21 424,-145.21 424,-151.21 424,-151.21 424,-154.21 421,-157.21 418,-157.21"/>
<text text-anchor="start" x="323" y="-146.01" font-family="Helvetica,sans-Serif" font-size="9.00">CollectionEditor.test.ts</text>
</a>
</g>
</g>
<!-- src/gathering/CollectionEditor/CollectionEditor.test.ts&#45;&gt;src/gathering/Collection.ts -->
<g id="edge4" class="edge">
<title>src/gathering/CollectionEditor/CollectionEditor.test.ts&#45;&gt;src/gathering/Collection.ts</title>
<path fill="none" stroke="#000000" stroke-opacity="0.200000" d="M417.24,-157.28C419.61,-158.44 421.88,-159.74 424,-161.21 432.42,-167.02 428.3,-174.82 437,-180.21 489.27,-212.56 512.67,-194.97 574,-199.21 617.01,-202.17 628.54,-206.69 671,-199.21 681.25,-197.4 683.1,-194.41 693,-191.21 695.16,-190.51 697.38,-189.8 699.63,-189.11"/>
<polygon fill="none" stroke="#000000" stroke-opacity="0.200000" points="700.48,-191.05 705.61,-187.3 699.26,-187.03 700.48,-191.05"/>
</g>
<!-- src/gathering/CollectionEditor/CollectionEditor.ts -->
<g id="node4" class="node">
<title>src/gathering/CollectionEditor/CollectionEditor.ts</title>
<g id="a_node4"><a xlink:href="src/gathering/CollectionEditor/CollectionEditor.ts" xlink:title="CollectionEditor.ts">
<path fill="#ddfeff" stroke="black" d="M533,-157.21C533,-157.21 453,-157.21 453,-157.21 450,-157.21 447,-154.21 447,-151.21 447,-151.21 447,-145.21 447,-145.21 447,-142.21 450,-139.21 453,-139.21 453,-139.21 533,-139.21 533,-139.21 536,-139.21 539,-142.21 539,-145.21 539,-145.21 539,-151.21 539,-151.21 539,-154.21 536,-157.21 533,-157.21"/>
<text text-anchor="start" x="455" y="-146.01" font-family="Helvetica,sans-Serif" font-size="9.00">CollectionEditor.ts</text>
</a>
</g>
</g>
<!-- src/gathering/CollectionEditor/CollectionEditor.test.ts&#45;&gt;src/gathering/CollectionEditor/CollectionEditor.ts -->
<g id="edge2" class="edge">
<title>src/gathering/CollectionEditor/CollectionEditor.test.ts&#45;&gt;src/gathering/CollectionEditor/CollectionEditor.ts</title>
<path fill="none" stroke="#000000" stroke-width="2" stroke-opacity="0.200000" d="M424.15,-148.21C429.63,-148.21 435.19,-148.21 440.65,-148.21"/>
<polygon fill="#000000" fill-opacity="0.200000" stroke="#000000" stroke-width="2" stroke-opacity="0.200000" points="441,-150.31 447,-148.21 441,-146.11 441,-150.31"/>
</g>
<!-- src/gathering/CollectionEditor/PackRepositoryMock.ts -->
<g id="node5" class="node">
<title>src/gathering/CollectionEditor/PackRepositoryMock.ts</title>
<g id="a_node5"><a xlink:href="src/gathering/CollectionEditor/PackRepositoryMock.ts" xlink:title="PackRepositoryMock.ts">
<path fill="#ddfeff" stroke="black" d="M543,-127.21C543,-127.21 443,-127.21 443,-127.21 440,-127.21 437,-124.21 437,-121.21 437,-121.21 437,-115.21 437,-115.21 437,-112.21 440,-109.21 443,-109.21 443,-109.21 543,-109.21 543,-109.21 546,-109.21 549,-112.21 549,-115.21 549,-115.21 549,-121.21 549,-121.21 549,-124.21 546,-127.21 543,-127.21"/>
<text text-anchor="start" x="445" y="-116.01" font-family="Helvetica,sans-Serif" font-size="9.00">PackRepositoryMock.ts</text>
</a>
</g>
</g>
<!-- src/gathering/CollectionEditor/CollectionEditor.test.ts&#45;&gt;src/gathering/CollectionEditor/PackRepositoryMock.ts -->
<g id="edge3" class="edge">
<title>src/gathering/CollectionEditor/CollectionEditor.test.ts&#45;&gt;src/gathering/CollectionEditor/PackRepositoryMock.ts</title>
<path fill="none" stroke="#000000" stroke-width="2" stroke-opacity="0.200000" d="M407.92,-139.14C413.32,-137.83 418.8,-136.49 424,-135.21 432.45,-133.12 441.48,-130.88 450.11,-128.72"/>
<polygon fill="#000000" fill-opacity="0.200000" stroke="#000000" stroke-width="2" stroke-opacity="0.200000" points="450.7,-130.74 456.01,-127.25 449.68,-126.67 450.7,-130.74"/>
</g>
<!-- src/gathering/CollectionEntity.ts -->
<g id="node6" class="node">
<title>src/gathering/CollectionEntity.ts</title>
<g id="a_node6"><a xlink:href="src/gathering/CollectionEntity.ts" xlink:title="CollectionEntity.ts">
<path fill="#ddfeff" stroke="black" d="M661,-163.21C661,-163.21 584,-163.21 584,-163.21 581,-163.21 578,-160.21 578,-157.21 578,-157.21 578,-151.21 578,-151.21 578,-148.21 581,-145.21 584,-145.21 584,-145.21 661,-145.21 661,-145.21 664,-145.21 667,-148.21 667,-151.21 667,-151.21 667,-157.21 667,-157.21 667,-160.21 664,-163.21 661,-163.21"/>
<text text-anchor="start" x="586" y="-152.01" font-family="Helvetica,sans-Serif" font-size="9.00">CollectionEntity.ts</text>
</a>
</g>
</g>
<!-- src/gathering/CollectionEditor/CollectionEditor.test.ts&#45;&gt;src/gathering/CollectionEntity.ts -->
<g id="edge5" class="edge">
<title>src/gathering/CollectionEditor/CollectionEditor.test.ts&#45;&gt;src/gathering/CollectionEntity.ts</title>
<path fill="none" stroke="#000000" stroke-width="2" stroke-opacity="0.200000" d="M407.23,-157.23C419.23,-160.02 431,-162.54 437,-163.21 490.01,-169.11 503.79,-166.9 557,-163.21 561.76,-162.87 566.7,-162.41 571.64,-161.86"/>
<polygon fill="#000000" fill-opacity="0.200000" stroke="#000000" stroke-width="2" stroke-opacity="0.200000" points="572.16,-163.91 577.87,-161.13 571.67,-159.74 572.16,-163.91"/>
</g>
<!-- src/gathering/ICollectionEditor.ts -->
<g id="node7" class="node">
<title>src/gathering/ICollectionEditor.ts</title>
<g id="a_node7"><a xlink:href="src/gathering/ICollectionEditor.ts" xlink:title="ICollectionEditor.ts">
<path fill="#ddfeff" stroke="black" d="M663.5,-237.21C663.5,-237.21 581.5,-237.21 581.5,-237.21 578.5,-237.21 575.5,-234.21 575.5,-231.21 575.5,-231.21 575.5,-225.21 575.5,-225.21 575.5,-222.21 578.5,-219.21 581.5,-219.21 581.5,-219.21 663.5,-219.21 663.5,-219.21 666.5,-219.21 669.5,-222.21 669.5,-225.21 669.5,-225.21 669.5,-231.21 669.5,-231.21 669.5,-234.21 666.5,-237.21 663.5,-237.21"/>
<text text-anchor="start" x="583.5" y="-226.01" font-family="Helvetica,sans-Serif" font-size="9.00">ICollectionEditor.ts</text>
</a>
</g>
</g>
<!-- src/gathering/CollectionEditor/CollectionEditor.test.ts&#45;&gt;src/gathering/ICollectionEditor.ts -->
<g id="edge6" class="edge">
<title>src/gathering/CollectionEditor/CollectionEditor.test.ts&#45;&gt;src/gathering/ICollectionEditor.ts</title>
<path fill="none" stroke="#000000" stroke-opacity="0.200000" d="M419.03,-157.34C420.79,-158.49 422.46,-159.77 424,-161.21 437.97,-174.25 422.4,-189.86 437,-202.21 473.3,-232.9 528.72,-236.92 569.35,-234.78"/>
<polygon fill="none" stroke="#000000" stroke-opacity="0.200000" points="569.63,-236.87 575.49,-234.4 569.37,-232.67 569.63,-236.87"/>
</g>
<!-- src/gathering/ICollectionOutput.ts -->
<g id="node8" class="node">
<title>src/gathering/ICollectionOutput.ts</title>
<g id="a_node8"><a xlink:href="src/gathering/ICollectionOutput.ts" xlink:title="ICollectionOutput.ts">
<path fill="#ddfeff" stroke="black" d="M665,-193.21C665,-193.21 580,-193.21 580,-193.21 577,-193.21 574,-190.21 574,-187.21 574,-187.21 574,-181.21 574,-181.21 574,-178.21 577,-175.21 580,-175.21 580,-175.21 665,-175.21 665,-175.21 668,-175.21 671,-178.21 671,-181.21 671,-181.21 671,-187.21 671,-187.21 671,-190.21 668,-193.21 665,-193.21"/>
<text text-anchor="start" x="582" y="-182.01" font-family="Helvetica,sans-Serif" font-size="9.00">ICollectionOutput.ts</text>
</a>
</g>
</g>
<!-- src/gathering/CollectionEditor/CollectionEditor.test.ts&#45;&gt;src/gathering/ICollectionOutput.ts -->
<g id="edge7" class="edge">
<title>src/gathering/CollectionEditor/CollectionEditor.test.ts&#45;&gt;src/gathering/ICollectionOutput.ts</title>
<path fill="none" stroke="#000000" stroke-opacity="0.200000" d="M412.29,-157.26C416.29,-158.45 420.25,-159.77 424,-161.21 430.13,-163.55 430.71,-166.33 437,-168.21 479.66,-180.95 530.16,-184.59 567.53,-185.24"/>
<polygon fill="none" stroke="#000000" stroke-opacity="0.200000" points="567.85,-187.35 573.88,-185.33 567.91,-183.15 567.85,-187.35"/>
</g>
<!-- src/gathering/CollectionEditor/CollectionEditor.ts&#45;&gt;src/gathering/Pack.ts -->
<g id="edge12" class="edge">
<title>src/gathering/CollectionEditor/CollectionEditor.ts&#45;&gt;src/gathering/Pack.ts</title>
<path fill="none" stroke="#000000" stroke-opacity="0.200000" d="M539.21,-142.45C550.55,-141.19 562.71,-140 574,-139.21 652.45,-133.71 744.98,-132.48 792.78,-132.24"/>
<polygon fill="none" stroke="#000000" stroke-opacity="0.200000" points="792.96,-134.34 798.95,-132.21 792.94,-130.14 792.96,-134.34"/>
</g>
<!-- src/gathering/CollectionEditor/CollectionEditor.ts&#45;&gt;src/gathering/CollectionEntity.ts -->
<g id="edge9" class="edge">
<title>src/gathering/CollectionEditor/CollectionEditor.ts&#45;&gt;src/gathering/CollectionEntity.ts</title>
<path fill="none" stroke="#000000" stroke-width="2" stroke-opacity="0.200000" d="M539.31,-150.34C549.72,-150.83 560.85,-151.35 571.45,-151.85"/>
<polygon fill="#000000" fill-opacity="0.200000" stroke="#000000" stroke-width="2" stroke-opacity="0.200000" points="571.53,-153.96 577.62,-152.14 571.72,-149.76 571.53,-153.96"/>
</g>
<!-- src/gathering/CollectionEditor/CollectionEditor.ts&#45;&gt;src/gathering/ICollectionEditor.ts -->
<g id="edge10" class="edge">
<title>src/gathering/CollectionEditor/CollectionEditor.ts&#45;&gt;src/gathering/ICollectionEditor.ts</title>
<path fill="none" stroke="#000000" stroke-opacity="0.200000" d="M539.05,-152.02C545.54,-154.06 551.78,-157.01 557,-161.21 571.42,-172.79 561.78,-185.32 574,-199.21 579.8,-205.79 587.46,-211.36 594.94,-215.8"/>
<polygon fill="none" stroke="#000000" stroke-opacity="0.200000" points="594.33,-217.86 600.59,-218.97 596.38,-214.2 594.33,-217.86"/>
</g>
<!-- src/gathering/CollectionEditor/CollectionEditor.ts&#45;&gt;src/gathering/ICollectionOutput.ts -->
<g id="edge11" class="edge">
<title>src/gathering/CollectionEditor/CollectionEditor.ts&#45;&gt;src/gathering/ICollectionOutput.ts</title>
<path fill="none" stroke="#000000" stroke-opacity="0.200000" d="M539.09,-156.15C545.17,-157.62 551.28,-159.3 557,-161.21 564.92,-163.85 566.22,-166.16 574,-169.21 577.54,-170.59 581.27,-171.94 585.01,-173.23"/>
<polygon fill="none" stroke="#000000" stroke-opacity="0.200000" points="584.52,-175.28 590.88,-175.2 585.86,-171.3 584.52,-175.28"/>
</g>
<!-- src/gathering/PackRepository/index.ts -->
<g id="node9" class="node">
<title>src/gathering/PackRepository/index.ts</title>
<g id="a_node9"><a xlink:href="src/gathering/PackRepository/index.ts" xlink:title="index.ts">
<path fill="#ddfeff" stroke="black" d="M643.5,-69.21C643.5,-69.21 601.5,-69.21 601.5,-69.21 598.5,-69.21 595.5,-66.21 595.5,-63.21 595.5,-63.21 595.5,-57.21 595.5,-57.21 595.5,-54.21 598.5,-51.21 601.5,-51.21 601.5,-51.21 643.5,-51.21 643.5,-51.21 646.5,-51.21 649.5,-54.21 649.5,-57.21 649.5,-57.21 649.5,-63.21 649.5,-63.21 649.5,-66.21 646.5,-69.21 643.5,-69.21"/>
<text text-anchor="start" x="606.5" y="-58.01" font-family="Helvetica,sans-Serif" font-size="9.00">index.ts</text>
</a>
</g>
</g>
<!-- src/gathering/CollectionEditor/CollectionEditor.ts&#45;&gt;src/gathering/PackRepository/index.ts -->
<g id="edge8" class="edge">
<title>src/gathering/CollectionEditor/CollectionEditor.ts&#45;&gt;src/gathering/PackRepository/index.ts</title>
<path fill="none" stroke="#000000" stroke-width="2" stroke-opacity="0.200000" d="M539.03,-143.73C545.68,-141.4 551.97,-138.03 557,-133.21 577.01,-114.03 554.31,-92.72 574,-73.21 578.28,-68.96 583.81,-66.07 589.57,-64.11"/>
<polygon fill="#000000" fill-opacity="0.200000" stroke="#000000" stroke-width="2" stroke-opacity="0.200000" points="590.18,-66.12 595.37,-62.44 589.02,-62.08 590.18,-66.12"/>
</g>
<!-- src/gathering/CollectionEditor/PackRepositoryMock.ts&#45;&gt;src/gathering/Pack.ts -->
<g id="edge14" class="edge">
<title>src/gathering/CollectionEditor/PackRepositoryMock.ts&#45;&gt;src/gathering/Pack.ts</title>
<path fill="none" stroke="#000000" stroke-opacity="0.200000" d="M549.22,-118.98C607.98,-120.06 703.64,-122.58 786,-128.21 788.04,-128.34 790.13,-128.51 792.24,-128.68"/>
<polygon fill="none" stroke="#000000" stroke-opacity="0.200000" points="792.42,-130.81 798.59,-129.25 792.8,-126.62 792.42,-130.81"/>
</g>
<!-- src/gathering/IPackRepository.ts -->
<g id="node10" class="node">
<title>src/gathering/IPackRepository.ts</title>
<g id="a_node10"><a xlink:href="src/gathering/IPackRepository.ts" xlink:title="IPackRepository.ts">
<path fill="#ddfeff" stroke="black" d="M780,-105.21C780,-105.21 699,-105.21 699,-105.21 696,-105.21 693,-102.21 693,-99.21 693,-99.21 693,-93.21 693,-93.21 693,-90.21 696,-87.21 699,-87.21 699,-87.21 780,-87.21 780,-87.21 783,-87.21 786,-90.21 786,-93.21 786,-93.21 786,-99.21 786,-99.21 786,-102.21 783,-105.21 780,-105.21"/>
<text text-anchor="start" x="701" y="-94.01" font-family="Helvetica,sans-Serif" font-size="9.00">IPackRepository.ts</text>
</a>
</g>
</g>
<!-- src/gathering/CollectionEditor/PackRepositoryMock.ts&#45;&gt;src/gathering/IPackRepository.ts -->
<g id="edge13" class="edge">
<title>src/gathering/CollectionEditor/PackRepositoryMock.ts&#45;&gt;src/gathering/IPackRepository.ts</title>
<path fill="none" stroke="#000000" stroke-opacity="0.200000" d="M549.18,-113.24C590.35,-109.54 646.24,-104.51 686.6,-100.87"/>
<polygon fill="none" stroke="#000000" stroke-opacity="0.200000" points="687.16,-102.93 692.94,-100.3 686.78,-98.75 687.16,-102.93"/>
</g>
<!-- src/gathering/CollectionEntity.ts&#45;&gt;src/gathering/Pack.ts -->
<g id="edge16" class="edge">
<title>src/gathering/CollectionEntity.ts&#45;&gt;src/gathering/Pack.ts</title>
<path fill="none" stroke="#000000" stroke-opacity="0.200000" d="M667.22,-149.43C705.03,-145.3 758.82,-139.43 792.81,-135.72"/>
<polygon fill="none" stroke="#000000" stroke-opacity="0.200000" points="793.18,-137.79 798.92,-135.05 792.72,-133.62 793.18,-137.79"/>
</g>
<!-- src/gathering/CollectionEntity.ts&#45;&gt;src/gathering/IPackRepository.ts -->
<g id="edge15" class="edge">
<title>src/gathering/CollectionEntity.ts&#45;&gt;src/gathering/IPackRepository.ts</title>
<path fill="none" stroke="#000000" stroke-opacity="0.200000" d="M641.47,-145.14C661.19,-135.2 692.92,-119.19 714.69,-108.21"/>
<polygon fill="none" stroke="#000000" stroke-opacity="0.200000" points="715.87,-109.97 720.28,-105.4 713.98,-106.22 715.87,-109.97"/>
</g>
<!-- src/gathering/ICollectionEditor.ts&#45;&gt;src/gathering/Pack.ts -->
<g id="edge17" class="edge">
<title>src/gathering/ICollectionEditor.ts&#45;&gt;src/gathering/Pack.ts</title>
<path fill="none" stroke="#000000" stroke-opacity="0.200000" d="M669.63,-227.61C704.39,-225.08 751.75,-216.99 786,-193.21 802.44,-181.79 813.52,-160.97 819.54,-146.86"/>
<polygon fill="none" stroke="#000000" stroke-opacity="0.200000" points="821.5,-147.63 821.82,-141.28 817.61,-146.04 821.5,-147.63"/>
</g>
<!-- src/gathering/ICollectionOutput.ts&#45;&gt;src/gathering/Collection.ts -->
<g id="edge18" class="edge">
<title>src/gathering/ICollectionOutput.ts&#45;&gt;src/gathering/Collection.ts</title>
<path fill="none" stroke="#000000" stroke-opacity="0.200000" d="M671.27,-181.71C680.6,-181.23 690.28,-180.72 699.28,-180.25"/>
<polygon fill="none" stroke="#000000" stroke-opacity="0.200000" points="699.52,-182.34 705.4,-179.93 699.3,-178.15 699.52,-182.34"/>
</g>
<!-- src/gathering/PackRepository/index.ts&#45;&gt;src/gathering/Pack.ts -->
<g id="edge21" class="edge">
<title>src/gathering/PackRepository/index.ts&#45;&gt;src/gathering/Pack.ts</title>
<path fill="none" stroke="#000000" stroke-opacity="0.200000" d="M649.64,-57.68C683.46,-55.66 743.13,-56.47 786,-81.21 800.44,-89.53 811.31,-105.53 817.87,-117.4"/>
<polygon fill="none" stroke="#000000" stroke-opacity="0.200000" points="816.08,-118.51 820.73,-122.84 819.79,-116.55 816.08,-118.51"/>
</g>
<!-- src/gathering/PackRepository/index.ts&#45;&gt;src/gathering/IPackRepository.ts -->
<g id="edge20" class="edge">
<title>src/gathering/PackRepository/index.ts&#45;&gt;src/gathering/IPackRepository.ts</title>
<path fill="none" stroke="#000000" stroke-opacity="0.200000" d="M649.72,-67.07C656.66,-68.97 664.13,-71.1 671,-73.21 682.89,-76.86 695.85,-81.18 707.2,-85.09"/>
<polygon fill="none" stroke="#000000" stroke-opacity="0.200000" points="706.62,-87.12 712.98,-87.1 708,-83.15 706.62,-87.12"/>
</g>
<!-- src/gathering/IPackRepository.ts&#45;&gt;src/gathering/Pack.ts -->
<g id="edge19" class="edge">
<title>src/gathering/IPackRepository.ts&#45;&gt;src/gathering/Pack.ts</title>
<path fill="none" stroke="#000000" stroke-opacity="0.200000" d="M764.22,-105.3C771.26,-108.08 778.97,-111.2 786,-114.21 790.73,-116.23 795.74,-118.47 800.54,-120.67"/>
<polygon fill="none" stroke="#000000" stroke-opacity="0.200000" points="799.72,-122.6 806.05,-123.2 801.48,-118.78 799.72,-122.6"/>
</g>
<!-- src/gathering/index.ts -->
<g id="node11" class="node">
<title>src/gathering/index.ts</title>
<g id="a_node11"><a xlink:href="src/gathering/index.ts" xlink:title="index.ts">
<path fill="#ddfeff" stroke="black" d="M390.5,-69.21C390.5,-69.21 348.5,-69.21 348.5,-69.21 345.5,-69.21 342.5,-66.21 342.5,-63.21 342.5,-63.21 342.5,-57.21 342.5,-57.21 342.5,-54.21 345.5,-51.21 348.5,-51.21 348.5,-51.21 390.5,-51.21 390.5,-51.21 393.5,-51.21 396.5,-54.21 396.5,-57.21 396.5,-57.21 396.5,-63.21 396.5,-63.21 396.5,-66.21 393.5,-69.21 390.5,-69.21"/>
<text text-anchor="start" x="353.5" y="-58.01" font-family="Helvetica,sans-Serif" font-size="9.00">index.ts</text>
</a>
</g>
</g>
<!-- src/gathering/index.ts&#45;&gt;src/gathering/CollectionEditor/CollectionEditor.ts -->
<g id="edge22" class="edge">
<title>src/gathering/index.ts&#45;&gt;src/gathering/CollectionEditor/CollectionEditor.ts</title>
<path fill="none" stroke="#000000" stroke-width="2" stroke-opacity="0.200000" d="M388.53,-69.32C400.06,-75.96 414.57,-85.91 424,-98.21 434.1,-111.37 424.75,-122.01 437,-133.21 438.37,-134.46 439.83,-135.61 441.37,-136.66"/>
<polygon fill="#000000" fill-opacity="0.200000" stroke="#000000" stroke-width="2" stroke-opacity="0.200000" points="440.61,-138.65 446.85,-139.9 442.75,-135.04 440.61,-138.65"/>
</g>
<!-- src/gathering/index.ts&#45;&gt;src/gathering/PackRepository/index.ts -->
<g id="edge23" class="edge">
<title>src/gathering/index.ts&#45;&gt;src/gathering/PackRepository/index.ts</title>
<path fill="none" stroke="#000000" stroke-width="2" stroke-opacity="0.200000" d="M396.89,-60.21C443.24,-60.21 539.11,-60.21 589.29,-60.21"/>
<polygon fill="#000000" fill-opacity="0.200000" stroke="#000000" stroke-width="2" stroke-opacity="0.200000" points="589.47,-62.31 595.47,-60.21 589.47,-58.11 589.47,-62.31"/>
</g>
<!-- src/lib/BinderStorage/index.ts -->
<g id="node12" class="node">
<title>src/lib/BinderStorage/index.ts</title>
<g id="a_node12"><a xlink:href="src/lib/BinderStorage/index.ts" xlink:title="index.ts">
<path fill="#ddfeff" stroke="black" d="M242.5,-113.21C242.5,-113.21 200.5,-113.21 200.5,-113.21 197.5,-113.21 194.5,-110.21 194.5,-107.21 194.5,-107.21 194.5,-101.21 194.5,-101.21 194.5,-98.21 197.5,-95.21 200.5,-95.21 200.5,-95.21 242.5,-95.21 242.5,-95.21 245.5,-95.21 248.5,-98.21 248.5,-101.21 248.5,-101.21 248.5,-107.21 248.5,-107.21 248.5,-110.21 245.5,-113.21 242.5,-113.21"/>
<text text-anchor="start" x="205.5" y="-102.01" font-family="Helvetica,sans-Serif" font-size="9.00">index.ts</text>
</a>
</g>
</g>
<!-- src/lib/server/ahdb.cards.json -->
<g id="node13" class="node">
<title>src/lib/server/ahdb.cards.json</title>
<g id="a_node13"><a xlink:href="src/lib/server/ahdb.cards.json" xlink:title="ahdb.cards.json">
<path fill="#ffee44" stroke="black" d="M257,-203.21C257,-203.21 186,-203.21 186,-203.21 183,-203.21 180,-200.21 180,-197.21 180,-197.21 180,-191.21 180,-191.21 180,-188.21 183,-185.21 186,-185.21 186,-185.21 257,-185.21 257,-185.21 260,-185.21 263,-188.21 263,-191.21 263,-191.21 263,-197.21 263,-197.21 263,-200.21 260,-203.21 257,-203.21"/>
<text text-anchor="start" x="188" y="-192.01" font-family="Helvetica,sans-Serif" font-size="9.00">ahdb.cards.json</text>
</a>
</g>
</g>
<!-- src/lib/server/ahdb.packs.json -->
<g id="node14" class="node">
<title>src/lib/server/ahdb.packs.json</title>
<g id="a_node14"><a xlink:href="src/lib/server/ahdb.packs.json" xlink:title="ahdb.packs.json">
<path fill="#ffee44" stroke="black" d="M258,-173.21C258,-173.21 185,-173.21 185,-173.21 182,-173.21 179,-170.21 179,-167.21 179,-167.21 179,-161.21 179,-161.21 179,-158.21 182,-155.21 185,-155.21 185,-155.21 258,-155.21 258,-155.21 261,-155.21 264,-158.21 264,-161.21 264,-161.21 264,-167.21 264,-167.21 264,-170.21 261,-173.21 258,-173.21"/>
<text text-anchor="start" x="187" y="-162.01" font-family="Helvetica,sans-Serif" font-size="9.00">ahdb.packs.json</text>
</a>
</g>
</g>
<!-- src/lib/server/collection/couz.json -->
<g id="node15" class="node">
<title>src/lib/server/collection/couz.json</title>
<g id="a_node15"><a xlink:href="src/lib/server/collection/couz.json" xlink:title="couz.json">
<path fill="#ffee44" stroke="black" d="M243.5,-237.21C243.5,-237.21 199.5,-237.21 199.5,-237.21 196.5,-237.21 193.5,-234.21 193.5,-231.21 193.5,-231.21 193.5,-225.21 193.5,-225.21 193.5,-222.21 196.5,-219.21 199.5,-219.21 199.5,-219.21 243.5,-219.21 243.5,-219.21 246.5,-219.21 249.5,-222.21 249.5,-225.21 249.5,-225.21 249.5,-231.21 249.5,-231.21 249.5,-234.21 246.5,-237.21 243.5,-237.21"/>
<text text-anchor="start" x="201.5" y="-226.01" font-family="Helvetica,sans-Serif" font-size="9.00">couz.json</text>
</a>
</g>
</g>
<!-- src/lib/userEditsCollection/userEditsCollection.ts -->
<g id="node16" class="node">
<title>src/lib/userEditsCollection/userEditsCollection.ts</title>
<g id="a_node16"><a xlink:href="src/lib/userEditsCollection/userEditsCollection.ts" xlink:title="userEditsCollection.ts">
<path fill="#ddfeff" stroke="black" d="M269,-53.21C269,-53.21 174,-53.21 174,-53.21 171,-53.21 168,-50.21 168,-47.21 168,-47.21 168,-41.21 168,-41.21 168,-38.21 171,-35.21 174,-35.21 174,-35.21 269,-35.21 269,-35.21 272,-35.21 275,-38.21 275,-41.21 275,-41.21 275,-47.21 275,-47.21 275,-50.21 272,-53.21 269,-53.21"/>
<text text-anchor="start" x="176" y="-42.01" font-family="Helvetica,sans-Serif" font-size="9.00">userEditsCollection.ts</text>
</a>
</g>
</g>
<!-- src/lib/userEditsCollection/userEditsCollection.ts&#45;&gt;src/gathering/Collection.ts -->
<g id="edge25" class="edge">
<title>src/lib/userEditsCollection/userEditsCollection.ts&#45;&gt;src/gathering/Collection.ts</title>
<path fill="none" stroke="#000000" stroke-opacity="0.200000" d="M275.09,-40.25C386.74,-32.35 639.86,-17.25 671,-40.21 697.59,-59.81 678.67,-81.44 693,-111.21 702.47,-130.89 717.21,-151.36 727.33,-164.41"/>
<polygon fill="none" stroke="#000000" stroke-opacity="0.200000" points="725.73,-165.78 731.09,-169.2 729.03,-163.18 725.73,-165.78"/>
</g>
<!-- src/lib/userEditsCollection/userEditsCollection.ts&#45;&gt;src/gathering/ICollectionEditor.ts -->
<g id="edge26" class="edge">
<title>src/lib/userEditsCollection/userEditsCollection.ts&#45;&gt;src/gathering/ICollectionEditor.ts</title>
<path fill="none" stroke="#000000" stroke-opacity="0.200000" d="M250.51,-53.25C265.16,-59.51 281.89,-69.44 291,-84.21 305.84,-108.27 279.17,-191.04 299,-211.21 375.55,-289.04 522.23,-258.31 588.07,-239.13"/>
<polygon fill="none" stroke="#000000" stroke-opacity="0.200000" points="589.03,-241.04 594.18,-237.31 587.83,-237.01 589.03,-241.04"/>
</g>
<!-- src/lib/userEditsCollection/userEditsCollection.ts&#45;&gt;src/gathering/ICollectionOutput.ts -->
<g id="edge27" class="edge">
<title>src/lib/userEditsCollection/userEditsCollection.ts&#45;&gt;src/gathering/ICollectionOutput.ts</title>
<path fill="none" stroke="#000000" stroke-opacity="0.200000" d="M250.42,-53.3C265.04,-59.59 281.78,-69.51 291,-84.21 303.08,-103.47 282.31,-170.77 299,-186.21 381.04,-262.06 531.15,-218.44 593.35,-195.51"/>
<polygon fill="none" stroke="#000000" stroke-opacity="0.200000" points="594.21,-197.44 599.09,-193.37 592.73,-193.5 594.21,-197.44"/>
</g>
<!-- src/lib/userEditsCollection/userEditsCollection.ts&#45;&gt;src/gathering/IPackRepository.ts -->
<g id="edge28" class="edge">
<title>src/lib/userEditsCollection/userEditsCollection.ts&#45;&gt;src/gathering/IPackRepository.ts</title>
<path fill="none" stroke="#000000" stroke-opacity="0.200000" d="M252.83,-35.13C327.38,-14.51 524.2,29.64 671,-30.21 696.64,-40.66 717.83,-66.05 729.28,-82.11"/>
<polygon fill="none" stroke="#000000" stroke-opacity="0.200000" points="727.64,-83.43 732.78,-87.17 731.09,-81.04 727.64,-83.43"/>
</g>
<!-- src/lib/userEditsCollection/userEditsCollection.ts&#45;&gt;src/gathering/index.ts -->
<g id="edge24" class="edge">
<title>src/lib/userEditsCollection/userEditsCollection.ts&#45;&gt;src/gathering/index.ts</title>
<path fill="none" stroke="#000000" stroke-width="2" stroke-opacity="0.200000" d="M275.21,-49.98C295.58,-52.21 318.24,-54.7 336.12,-56.66"/>
<polygon fill="#000000" fill-opacity="0.200000" stroke="#000000" stroke-width="2" stroke-opacity="0.200000" points="336.29,-58.79 342.48,-57.35 336.75,-54.61 336.29,-58.79"/>
</g>
<!-- src/routes/collection/couz/+page.server.ts -->
<g id="node17" class="node">
<title>src/routes/collection/couz/+page.server.ts</title>
<g id="a_node17"><a xlink:href="src/routes/collection/couz/+page.server.ts" xlink:title="+page.server.ts">
<path fill="#ddfeff" stroke="black" d="M114,-188.21C114,-188.21 46,-188.21 46,-188.21 43,-188.21 40,-185.21 40,-182.21 40,-182.21 40,-176.21 40,-176.21 40,-173.21 43,-170.21 46,-170.21 46,-170.21 114,-170.21 114,-170.21 117,-170.21 120,-173.21 120,-176.21 120,-176.21 120,-182.21 120,-182.21 120,-185.21 117,-188.21 114,-188.21"/>
<text text-anchor="start" x="48" y="-177.01" font-family="Helvetica,sans-Serif" font-size="9.00">+page.server.ts</text>
</a>
</g>
</g>
<!-- src/routes/collection/couz/+page.server.ts&#45;&gt;src/lib/BinderStorage/index.ts -->
<g id="edge29" class="edge">
<title>src/routes/collection/couz/+page.server.ts&#45;&gt;src/lib/BinderStorage/index.ts</title>
<path fill="none" stroke="#000000" stroke-opacity="0.200000" d="M97.83,-170.16C122.96,-156.64 170.35,-131.17 198.3,-116.14"/>
<polygon fill="none" stroke="#000000" stroke-opacity="0.200000" points="199.32,-117.97 203.61,-113.28 197.33,-114.28 199.32,-117.97"/>
</g>
<!-- src/routes/collection/couz/+page.server.ts&#45;&gt;src/lib/server/ahdb.cards.json -->
<g id="edge30" class="edge">
<title>src/routes/collection/couz/+page.server.ts&#45;&gt;src/lib/server/ahdb.cards.json</title>
<path fill="none" stroke="#000000" stroke-width="2" stroke-opacity="0.200000" d="M120.23,-183.42C136.74,-185.2 156.09,-187.28 173.36,-189.14"/>
<polygon fill="#000000" fill-opacity="0.200000" stroke="#000000" stroke-width="2" stroke-opacity="0.200000" points="173.43,-191.26 179.62,-189.81 173.88,-187.08 173.43,-191.26"/>
</g>
<!-- src/routes/collection/couz/+page.server.ts&#45;&gt;src/lib/server/ahdb.packs.json -->
<g id="edge31" class="edge">
<title>src/routes/collection/couz/+page.server.ts&#45;&gt;src/lib/server/ahdb.packs.json</title>
<path fill="none" stroke="#000000" stroke-width="2" stroke-opacity="0.200000" d="M120.23,-174.99C136.45,-173.24 155.41,-171.2 172.46,-169.37"/>
<polygon fill="#000000" fill-opacity="0.200000" stroke="#000000" stroke-width="2" stroke-opacity="0.200000" points="172.9,-171.44 178.64,-168.71 172.45,-167.26 172.9,-171.44"/>
</g>
<!-- src/routes/collection/couz/+page.server.ts&#45;&gt;src/lib/server/collection/couz.json -->
<g id="edge32" class="edge">
<title>src/routes/collection/couz/+page.server.ts&#45;&gt;src/lib/server/collection/couz.json</title>
<path fill="none" stroke="#000000" stroke-width="2" stroke-opacity="0.200000" d="M95.7,-188.21C109.69,-196.4 131.59,-208.25 152,-215.21 163.21,-219.03 175.87,-221.83 187.22,-223.83"/>
<polygon fill="#000000" fill-opacity="0.200000" stroke="#000000" stroke-width="2" stroke-opacity="0.200000" points="187.11,-225.94 193.37,-224.86 187.8,-221.8 187.11,-225.94"/>
</g>
</g>
</svg>
