<?xml version="1.0" encoding="UTF-8" standalone="no"?>
<!DOCTYPE svg PUBLIC "-//W3C//DTD SVG 1.1//EN"
 "http://www.w3.org/Graphics/SVG/1.1/DTD/svg11.dtd">
<!-- Generated by graphviz version 2.50.0 (20211204.2007)
 -->
<!-- Title: dependency&#45;cruiser output Pages: 1 -->
<svg width="887pt" height="472pt"
 viewBox="0.00 0.00 887.00 472.00" xmlns="http://www.w3.org/2000/svg" xmlns:xlink="http://www.w3.org/1999/xlink">
<g id="graph0" class="graph" transform="scale(1 1) rotate(0) translate(4 468)">
<title>dependency&#45;cruiser output</title>
<polygon fill="white" stroke="transparent" points="-4,4 -4,-468 883,-468 883,4 -4,4"/>
<g id="clust1" class="cluster">
<title>cluster_src</title>
<path fill="#ffffff" stroke="black" stroke-width="2" d="M20,-8C20,-8 859,-8 859,-8 865,-8 871,-14 871,-20 871,-20 871,-444 871,-444 871,-450 865,-456 859,-456 859,-456 20,-456 20,-456 14,-456 8,-450 8,-444 8,-444 8,-20 8,-20 8,-14 14,-8 20,-8"/>
<text text-anchor="middle" x="439.5" y="-444.8" font-family="Helvetica,sans-Serif" font-weight="bold" font-size="9.00">src</text>
</g>
<g id="clust2" class="cluster">
<title>cluster_src/gathering</title>
<path fill="#ffffff" stroke="black" stroke-width="2" d="M375,-170C375,-170 851,-170 851,-170 857,-170 863,-176 863,-182 863,-182 863,-418 863,-418 863,-424 857,-430 851,-430 851,-430 375,-430 375,-430 369,-430 363,-424 363,-418 363,-418 363,-182 363,-182 363,-176 369,-170 375,-170"/>
<text text-anchor="middle" x="613" y="-418.8" font-family="Helvetica,sans-Serif" font-weight="bold" font-size="9.00">gathering</text>
</g>
<g id="clust4" class="cluster">
<title>cluster_src/gathering/CollectionEntity</title>
<path fill="#ffffff" stroke="black" stroke-width="2" d="M539,-352C539,-352 620,-352 620,-352 626,-352 632,-358 632,-364 632,-364 632,-392 632,-392 632,-398 626,-404 620,-404 620,-404 539,-404 539,-404 533,-404 527,-398 527,-392 527,-392 527,-364 527,-364 527,-358 533,-352 539,-352"/>
<text text-anchor="middle" x="579.5" y="-392.8" font-family="Helvetica,sans-Serif" font-weight="bold" font-size="9.00">CollectionEntity</text>
</g>
<g id="clust5" class="cluster">
<title>cluster_src/gathering/CollectionLoader</title>
<path fill="#ffffff" stroke="black" stroke-width="2" d="M383,-304C383,-304 472,-304 472,-304 478,-304 484,-310 484,-316 484,-316 484,-344 484,-344 484,-350 478,-356 472,-356 472,-356 383,-356 383,-356 377,-356 371,-350 371,-344 371,-344 371,-316 371,-316 371,-310 377,-304 383,-304"/>
<text text-anchor="middle" x="427.5" y="-344.8" font-family="Helvetica,sans-Serif" font-weight="bold" font-size="9.00">CollectionLoader</text>
</g>
<g id="clust6" class="cluster">
<title>cluster_src/gathering/CollectionOrganizer</title>
<path fill="#ffffff" stroke="black" stroke-width="2" d="M530,-178C530,-178 629,-178 629,-178 635,-178 641,-184 641,-190 641,-190 641,-218 641,-218 641,-224 635,-230 629,-230 629,-230 530,-230 530,-230 524,-230 518,-224 518,-218 518,-218 518,-190 518,-190 518,-184 524,-178 530,-178"/>
<text text-anchor="middle" x="579.5" y="-218.8" font-family="Helvetica,sans-Serif" font-weight="bold" font-size="9.00">CollectionOrganizer</text>
</g>
<g id="clust3" class="cluster">
<title>cluster_src/gathering/CollectionEditor</title>
<path fill="#ffffff" stroke="black" stroke-width="2" d="M385.5,-244C385.5,-244 469.5,-244 469.5,-244 475.5,-244 481.5,-250 481.5,-256 481.5,-256 481.5,-284 481.5,-284 481.5,-290 475.5,-296 469.5,-296 469.5,-296 385.5,-296 385.5,-296 379.5,-296 373.5,-290 373.5,-284 373.5,-284 373.5,-256 373.5,-256 373.5,-250 379.5,-244 385.5,-244"/>
<text text-anchor="middle" x="427.5" y="-284.8" font-family="Helvetica,sans-Serif" font-weight="bold" font-size="9.00">CollectionEditor</text>
</g>
<g id="clust7" class="cluster">
<title>cluster_src/lib</title>
<path fill="#ffffff" stroke="black" stroke-width="2" d="M357,-16C357,-16 498,-16 498,-16 504,-16 510,-22 510,-28 510,-28 510,-150 510,-150 510,-156 504,-162 498,-162 498,-162 357,-162 357,-162 351,-162 345,-156 345,-150 345,-150 345,-28 345,-28 345,-22 351,-16 357,-16"/>
<text text-anchor="middle" x="427.5" y="-150.8" font-family="Helvetica,sans-Serif" font-weight="bold" font-size="9.00">lib</text>
</g>
<g id="clust9" class="cluster">
<title>cluster_src/lib/userEditsItsCollection</title>
<path fill="#ffffff" stroke="black" stroke-width="2" d="M373,-84C373,-84 482,-84 482,-84 488,-84 494,-90 494,-96 494,-96 494,-124 494,-124 494,-130 488,-136 482,-136 482,-136 373,-136 373,-136 367,-136 361,-130 361,-124 361,-124 361,-96 361,-96 361,-90 367,-84 373,-84"/>
<text text-anchor="middle" x="427.5" y="-124.8" font-family="Helvetica,sans-Serif" font-weight="bold" font-size="9.00">userEditsItsCollection</text>
</g>
<g id="clust8" class="cluster">
<title>cluster_src/lib/userBrowsesItsCollection</title>
<path fill="#ffffff" stroke="black" stroke-width="2" d="M365,-24C365,-24 490,-24 490,-24 496,-24 502,-30 502,-36 502,-36 502,-64 502,-64 502,-70 496,-76 490,-76 490,-76 365,-76 365,-76 359,-76 353,-70 353,-64 353,-64 353,-36 353,-36 353,-30 359,-24 365,-24"/>
<text text-anchor="middle" x="427.5" y="-64.8" font-family="Helvetica,sans-Serif" font-weight="bold" font-size="9.00">userBrowsesItsCollection</text>
</g>
<g id="clust10" class="cluster">
<title>cluster_src/routes</title>
<path fill="#ffffff" stroke="black" stroke-width="2" d="M28,-16C28,-16 325,-16 325,-16 331,-16 337,-22 337,-28 337,-28 337,-90 337,-90 337,-96 331,-102 325,-102 325,-102 28,-102 28,-102 22,-102 16,-96 16,-90 16,-90 16,-28 16,-28 16,-22 22,-16 28,-16"/>
<text text-anchor="middle" x="176.5" y="-90.8" font-family="Helvetica,sans-Serif" font-weight="bold" font-size="9.00">routes</text>
</g>
<g id="clust11" class="cluster">
<title>cluster_src/routes/collection</title>
<path fill="#ffffff" stroke="black" stroke-width="2" d="M36,-24C36,-24 317,-24 317,-24 323,-24 329,-30 329,-36 329,-36 329,-64 329,-64 329,-70 323,-76 317,-76 317,-76 36,-76 36,-76 30,-76 24,-70 24,-64 24,-64 24,-36 24,-36 24,-30 30,-24 36,-24"/>
<text text-anchor="middle" x="176.5" y="-64.8" font-family="Helvetica,sans-Serif" font-weight="bold" font-size="9.00">collection</text>
</g>
<!-- src/gathering/Collection.ts -->
<g id="node1" class="node">
<title>src/gathering/Collection.ts</title>
<g id="a_node1"><a xlink:href="src/gathering/Collection.ts" xlink:title="Collection.ts">
<path fill="#ddfeff" stroke="black" d="M732,-300C732,-300 676,-300 676,-300 673,-300 670,-297 670,-294 670,-294 670,-288 670,-288 670,-285 673,-282 676,-282 676,-282 732,-282 732,-282 735,-282 738,-285 738,-288 738,-288 738,-294 738,-294 738,-297 735,-300 732,-300"/>
<text text-anchor="start" x="678" y="-288.8" font-family="Helvetica,sans-Serif" font-size="9.00">Collection.ts</text>
</a>
</g>
</g>
<!-- src/gathering/Pack.ts -->
<g id="node2" class="node">
<title>src/gathering/Pack.ts</title>
<g id="a_node2"><a xlink:href="src/gathering/Pack.ts" xlink:title="Pack.ts">
<path fill="#ddfeff" stroke="black" d="M834.5,-289C834.5,-289 792.5,-289 792.5,-289 789.5,-289 786.5,-286 786.5,-283 786.5,-283 786.5,-277 786.5,-277 786.5,-274 789.5,-271 792.5,-271 792.5,-271 834.5,-271 834.5,-271 837.5,-271 840.5,-274 840.5,-277 840.5,-277 840.5,-283 840.5,-283 840.5,-286 837.5,-289 834.5,-289"/>
<text text-anchor="start" x="798" y="-277.8" font-family="Helvetica,sans-Serif" font-size="9.00">Pack.ts</text>
</a>
</g>
</g>
<!-- src/gathering/Collection.ts&#45;&gt;src/gathering/Pack.ts -->
<g id="edge1" class="edge">
<title>src/gathering/Collection.ts&#45;&gt;src/gathering/Pack.ts</title>
<path fill="none" stroke="#000000" stroke-opacity="0.200000" d="M738.13,-287.61C751.61,-286.23 767.13,-284.64 780.5,-283.27"/>
<polygon fill="none" stroke="#000000" stroke-opacity="0.200000" points="780.72,-285.36 786.47,-282.66 780.29,-281.19 780.72,-285.36"/>
</g>
<!-- src/gathering/CollectionEditor/CollectionEditor.ts -->
<g id="node3" class="node">
<title>src/gathering/CollectionEditor/CollectionEditor.ts</title>
<g id="a_node3"><a xlink:href="src/gathering/CollectionEditor/CollectionEditor.ts" xlink:title="CollectionEditor.ts">
<path fill="#ddfeff" stroke="black" d="M467.5,-270C467.5,-270 387.5,-270 387.5,-270 384.5,-270 381.5,-267 381.5,-264 381.5,-264 381.5,-258 381.5,-258 381.5,-255 384.5,-252 387.5,-252 387.5,-252 467.5,-252 467.5,-252 470.5,-252 473.5,-255 473.5,-258 473.5,-258 473.5,-264 473.5,-264 473.5,-267 470.5,-270 467.5,-270"/>
<text text-anchor="start" x="389.5" y="-258.8" font-family="Helvetica,sans-Serif" font-size="9.00">CollectionEditor.ts</text>
</a>
</g>
</g>
<!-- src/gathering/CollectionEditor/CollectionEditor.ts&#45;&gt;src/gathering/Pack.ts -->
<g id="edge4" class="edge">
<title>src/gathering/CollectionEditor/CollectionEditor.ts&#45;&gt;src/gathering/Pack.ts</title>
<path fill="none" stroke="#000000" stroke-opacity="0.200000" d="M473.69,-262.63C537.36,-265.03 657.09,-269.88 759,-276 765.83,-276.41 773.15,-276.91 780.12,-277.43"/>
<polygon fill="none" stroke="#000000" stroke-opacity="0.200000" points="780.25,-279.54 786.39,-277.89 780.56,-275.35 780.25,-279.54"/>
</g>
<!-- src/gathering/ICollectionEditor.ts -->
<g id="node4" class="node">
<title>src/gathering/ICollectionEditor.ts</title>
<g id="a_node4"><a xlink:href="src/gathering/ICollectionEditor.ts" xlink:title="ICollectionEditor.ts">
<path fill="#ddfeff" stroke="black" d="M620.5,-256C620.5,-256 538.5,-256 538.5,-256 535.5,-256 532.5,-253 532.5,-250 532.5,-250 532.5,-244 532.5,-244 532.5,-241 535.5,-238 538.5,-238 538.5,-238 620.5,-238 620.5,-238 623.5,-238 626.5,-241 626.5,-244 626.5,-244 626.5,-250 626.5,-250 626.5,-253 623.5,-256 620.5,-256"/>
<text text-anchor="start" x="540.5" y="-244.8" font-family="Helvetica,sans-Serif" font-size="9.00">ICollectionEditor.ts</text>
</a>
</g>
</g>
<!-- src/gathering/CollectionEditor/CollectionEditor.ts&#45;&gt;src/gathering/ICollectionEditor.ts -->
<g id="edge2" class="edge">
<title>src/gathering/CollectionEditor/CollectionEditor.ts&#45;&gt;src/gathering/ICollectionEditor.ts</title>
<path fill="none" stroke="#000000" stroke-opacity="0.200000" d="M473.5,-256.8C490.11,-255.25 509.05,-253.48 526.24,-251.88"/>
<polygon fill="none" stroke="#000000" stroke-opacity="0.200000" points="526.71,-253.94 532.49,-251.29 526.32,-249.76 526.71,-253.94"/>
</g>
<!-- src/gathering/ICollectionOutput.ts -->
<g id="node5" class="node">
<title>src/gathering/ICollectionOutput.ts</title>
<g id="a_node5"><a xlink:href="src/gathering/ICollectionOutput.ts" xlink:title="ICollectionOutput.ts">
<path fill="#ddfeff" stroke="black" d="M622,-300C622,-300 537,-300 537,-300 534,-300 531,-297 531,-294 531,-294 531,-288 531,-288 531,-285 534,-282 537,-282 537,-282 622,-282 622,-282 625,-282 628,-285 628,-288 628,-288 628,-294 628,-294 628,-297 625,-300 622,-300"/>
<text text-anchor="start" x="539" y="-288.8" font-family="Helvetica,sans-Serif" font-size="9.00">ICollectionOutput.ts</text>
</a>
</g>
</g>
<!-- src/gathering/CollectionEditor/CollectionEditor.ts&#45;&gt;src/gathering/ICollectionOutput.ts -->
<g id="edge3" class="edge">
<title>src/gathering/CollectionEditor/CollectionEditor.ts&#45;&gt;src/gathering/ICollectionOutput.ts</title>
<path fill="none" stroke="#000000" stroke-opacity="0.200000" d="M473.5,-270C490.34,-273.37 509.58,-277.22 526.96,-280.69"/>
<polygon fill="none" stroke="#000000" stroke-opacity="0.200000" points="526.97,-282.84 533.27,-281.95 527.8,-278.72 526.97,-282.84"/>
</g>
<!-- src/gathering/ICollectionEditor.ts&#45;&gt;src/gathering/Pack.ts -->
<g id="edge16" class="edge">
<title>src/gathering/ICollectionEditor.ts&#45;&gt;src/gathering/Pack.ts</title>
<path fill="none" stroke="#000000" stroke-opacity="0.200000" d="M626.67,-249.46C662.9,-251.91 714.47,-256.58 759,-265 766.03,-266.33 773.49,-268.15 780.52,-270.06"/>
<polygon fill="none" stroke="#000000" stroke-opacity="0.200000" points="779.97,-272.09 786.32,-271.68 781.11,-268.05 779.97,-272.09"/>
</g>
<!-- src/gathering/ICollectionOutput.ts&#45;&gt;src/gathering/Collection.ts -->
<g id="edge19" class="edge">
<title>src/gathering/ICollectionOutput.ts&#45;&gt;src/gathering/Collection.ts</title>
<path fill="none" stroke="#000000" stroke-opacity="0.200000" d="M628.21,-291C640,-291 652.5,-291 663.83,-291"/>
<polygon fill="none" stroke="#000000" stroke-opacity="0.200000" points="663.99,-293.1 669.99,-291 663.99,-288.9 663.99,-293.1"/>
</g>
<!-- src/gathering/CollectionEntity/CollectionEntity.ts -->
<g id="node6" class="node">
<title>src/gathering/CollectionEntity/CollectionEntity.ts</title>
<g id="a_node6"><a xlink:href="src/gathering/CollectionEntity/CollectionEntity.ts" xlink:title="CollectionEntity.ts">
<path fill="#ddfeff" stroke="black" d="M618,-378C618,-378 541,-378 541,-378 538,-378 535,-375 535,-372 535,-372 535,-366 535,-366 535,-363 538,-360 541,-360 541,-360 618,-360 618,-360 621,-360 624,-363 624,-366 624,-366 624,-372 624,-372 624,-375 621,-378 618,-378"/>
<text text-anchor="start" x="543" y="-366.8" font-family="Helvetica,sans-Serif" font-size="9.00">CollectionEntity.ts</text>
</a>
</g>
</g>
<!-- src/gathering/CollectionEntity/CollectionEntity.ts&#45;&gt;src/gathering/Pack.ts -->
<g id="edge6" class="edge">
<title>src/gathering/CollectionEntity/CollectionEntity.ts&#45;&gt;src/gathering/Pack.ts</title>
<path fill="none" stroke="#000000" stroke-opacity="0.200000" d="M624.03,-363.7C630.02,-361.84 635.87,-359.34 641,-356 646.07,-352.7 644.16,-348.62 649,-345 690.56,-313.97 711.15,-326.03 759,-306 769.1,-301.77 780.01,-296.59 789.32,-291.96"/>
<polygon fill="none" stroke="#000000" stroke-opacity="0.200000" points="790.47,-293.74 794.89,-289.17 788.59,-289.98 790.47,-293.74"/>
</g>
<!-- src/gathering/IPackRepository.ts -->
<g id="node7" class="node">
<title>src/gathering/IPackRepository.ts</title>
<g id="a_node7"><a xlink:href="src/gathering/IPackRepository.ts" xlink:title="IPackRepository.ts">
<path fill="#ddfeff" stroke="black" d="M744.5,-369C744.5,-369 663.5,-369 663.5,-369 660.5,-369 657.5,-366 657.5,-363 657.5,-363 657.5,-357 657.5,-357 657.5,-354 660.5,-351 663.5,-351 663.5,-351 744.5,-351 744.5,-351 747.5,-351 750.5,-354 750.5,-357 750.5,-357 750.5,-363 750.5,-363 750.5,-366 747.5,-369 744.5,-369"/>
<text text-anchor="start" x="665.5" y="-357.8" font-family="Helvetica,sans-Serif" font-size="9.00">IPackRepository.ts</text>
</a>
</g>
</g>
<!-- src/gathering/CollectionEntity/CollectionEntity.ts&#45;&gt;src/gathering/IPackRepository.ts -->
<g id="edge5" class="edge">
<title>src/gathering/CollectionEntity/CollectionEntity.ts&#45;&gt;src/gathering/IPackRepository.ts</title>
<path fill="none" stroke="#000000" stroke-opacity="0.200000" d="M624.03,-365.8C632.75,-365.16 641.99,-364.48 650.96,-363.82"/>
<polygon fill="none" stroke="#000000" stroke-opacity="0.200000" points="651.29,-365.9 657.12,-363.37 650.98,-361.72 651.29,-365.9"/>
</g>
<!-- src/gathering/IPackRepository.ts&#45;&gt;src/gathering/Pack.ts -->
<g id="edge20" class="edge">
<title>src/gathering/IPackRepository.ts&#45;&gt;src/gathering/Pack.ts</title>
<path fill="none" stroke="#000000" stroke-opacity="0.200000" d="M728.03,-351C737.99,-346.59 749.51,-340.77 759,-334 775.17,-322.47 790.82,-305.83 800.97,-294.08"/>
<polygon fill="none" stroke="#000000" stroke-opacity="0.200000" points="802.69,-295.3 804.97,-289.37 799.48,-292.58 802.69,-295.3"/>
</g>
<!-- src/gathering/CollectionLoader/CollectionLoader.ts -->
<g id="node8" class="node">
<title>src/gathering/CollectionLoader/CollectionLoader.ts</title>
<g id="a_node8"><a xlink:href="src/gathering/CollectionLoader/CollectionLoader.ts" xlink:title="CollectionLoader.ts">
<path fill="#ddfeff" stroke="black" d="M470,-330C470,-330 385,-330 385,-330 382,-330 379,-327 379,-324 379,-324 379,-318 379,-318 379,-315 382,-312 385,-312 385,-312 470,-312 470,-312 473,-312 476,-315 476,-318 476,-318 476,-324 476,-324 476,-327 473,-330 470,-330"/>
<text text-anchor="start" x="387" y="-318.8" font-family="Helvetica,sans-Serif" font-size="9.00">CollectionLoader.ts</text>
</a>
</g>
</g>
<!-- src/gathering/CollectionLoader/CollectionLoader.ts&#45;&gt;src/gathering/Collection.ts -->
<g id="edge7" class="edge">
<title>src/gathering/CollectionLoader/CollectionLoader.ts&#45;&gt;src/gathering/Collection.ts</title>
<path fill="none" stroke="#000000" stroke-opacity="0.200000" d="M476.16,-329.79C529.74,-338.73 612.92,-349.5 641,-336 646.13,-333.53 644.78,-329.82 649,-326 658.51,-317.4 670.34,-309.48 680.5,-303.35"/>
<polygon fill="none" stroke="#000000" stroke-opacity="0.200000" points="681.85,-305 685.95,-300.14 679.72,-301.38 681.85,-305"/>
</g>
<!-- src/gathering/CollectionLoader/CollectionLoader.ts&#45;&gt;src/gathering/ICollectionEditor.ts -->
<g id="edge8" class="edge">
<title>src/gathering/CollectionLoader/CollectionLoader.ts&#45;&gt;src/gathering/ICollectionEditor.ts</title>
<path fill="none" stroke="#000000" stroke-opacity="0.200000" d="M476.38,-316.14C488.55,-312.89 500.78,-307.59 510,-299 517.92,-291.62 510.79,-284.07 518,-276 524.62,-268.59 533.55,-262.9 542.5,-258.61"/>
<polygon fill="none" stroke="#000000" stroke-opacity="0.200000" points="543.45,-260.48 548.07,-256.11 541.73,-256.65 543.45,-260.48"/>
</g>
<!-- src/gathering/CollectionLoader/CollectionLoader.ts&#45;&gt;src/gathering/ICollectionOutput.ts -->
<g id="edge10" class="edge">
<title>src/gathering/CollectionLoader/CollectionLoader.ts&#45;&gt;src/gathering/ICollectionOutput.ts</title>
<path fill="none" stroke="#000000" stroke-opacity="0.200000" d="M473.5,-312C490.34,-308.63 509.58,-304.78 526.96,-301.31"/>
<polygon fill="none" stroke="#000000" stroke-opacity="0.200000" points="527.8,-303.28 533.27,-300.05 526.97,-299.16 527.8,-303.28"/>
</g>
<!-- src/gathering/ICollectionLoader.ts -->
<g id="node9" class="node">
<title>src/gathering/ICollectionLoader.ts</title>
<g id="a_node9"><a xlink:href="src/gathering/ICollectionLoader.ts" xlink:title="ICollectionLoader.ts">
<path fill="#ddfeff" stroke="black" d="M623,-330C623,-330 536,-330 536,-330 533,-330 530,-327 530,-324 530,-324 530,-318 530,-318 530,-315 533,-312 536,-312 536,-312 623,-312 623,-312 626,-312 629,-315 629,-318 629,-318 629,-324 629,-324 629,-327 626,-330 623,-330"/>
<text text-anchor="start" x="538" y="-318.8" font-family="Helvetica,sans-Serif" font-size="9.00">ICollectionLoader.ts</text>
</a>
</g>
</g>
<!-- src/gathering/CollectionLoader/CollectionLoader.ts&#45;&gt;src/gathering/ICollectionLoader.ts -->
<g id="edge9" class="edge">
<title>src/gathering/CollectionLoader/CollectionLoader.ts&#45;&gt;src/gathering/ICollectionLoader.ts</title>
<path fill="none" stroke="#000000" stroke-opacity="0.200000" d="M476.37,-321C491.44,-321 508.19,-321 523.69,-321"/>
<polygon fill="none" stroke="#000000" stroke-opacity="0.200000" points="523.79,-323.1 529.79,-321 523.79,-318.9 523.79,-323.1"/>
</g>
<!-- src/gathering/ICollectionLoader.ts&#45;&gt;src/gathering/Collection.ts -->
<g id="edge17" class="edge">
<title>src/gathering/ICollectionLoader.ts&#45;&gt;src/gathering/Collection.ts</title>
<path fill="none" stroke="#000000" stroke-opacity="0.200000" d="M617.25,-312C631.81,-308.43 648.57,-304.33 663.39,-300.7"/>
<polygon fill="none" stroke="#000000" stroke-opacity="0.200000" points="664.28,-302.64 669.61,-299.18 663.28,-298.56 664.28,-302.64"/>
</g>
<!-- src/gathering/CollectionOrganizer/CollectionOrganizer.ts -->
<g id="node10" class="node">
<title>src/gathering/CollectionOrganizer/CollectionOrganizer.ts</title>
<g id="a_node10"><a xlink:href="src/gathering/CollectionOrganizer/CollectionOrganizer.ts" xlink:title="CollectionOrganizer.ts">
<path fill="#ddfeff" stroke="black" d="M627,-204C627,-204 532,-204 532,-204 529,-204 526,-201 526,-198 526,-198 526,-192 526,-192 526,-189 529,-186 532,-186 532,-186 627,-186 627,-186 630,-186 633,-189 633,-192 633,-192 633,-198 633,-198 633,-201 630,-204 627,-204"/>
<text text-anchor="start" x="534" y="-192.8" font-family="Helvetica,sans-Serif" font-size="9.00">CollectionOrganizer.ts</text>
</a>
</g>
</g>
<!-- src/gathering/IBinderOutput.ts -->
<g id="node11" class="node">
<title>src/gathering/IBinderOutput.ts</title>
<g id="a_node11"><a xlink:href="src/gathering/IBinderOutput.ts" xlink:title="IBinderOutput.ts">
<path fill="#ddfeff" stroke="black" d="M849,-207C849,-207 778,-207 778,-207 775,-207 772,-204 772,-201 772,-201 772,-195 772,-195 772,-192 775,-189 778,-189 778,-189 849,-189 849,-189 852,-189 855,-192 855,-195 855,-195 855,-201 855,-201 855,-204 852,-207 849,-207"/>
<text text-anchor="start" x="780" y="-195.8" font-family="Helvetica,sans-Serif" font-size="9.00">IBinderOutput.ts</text>
</a>
</g>
</g>
<!-- src/gathering/CollectionOrganizer/CollectionOrganizer.ts&#45;&gt;src/gathering/IBinderOutput.ts -->
<g id="edge11" class="edge">
<title>src/gathering/CollectionOrganizer/CollectionOrganizer.ts&#45;&gt;src/gathering/IBinderOutput.ts</title>
<path fill="none" stroke="#000000" stroke-opacity="0.200000" d="M633.19,-200.93C638.52,-201.37 643.87,-201.74 649,-202 697.83,-204.49 710.15,-203.82 759,-202 761.23,-201.92 763.5,-201.81 765.8,-201.7"/>
<polygon fill="none" stroke="#000000" stroke-opacity="0.200000" points="766.04,-203.79 771.91,-201.35 765.81,-199.59 766.04,-203.79"/>
</g>
<!-- src/gathering/ICardRepository.ts -->
<g id="node12" class="node">
<title>src/gathering/ICardRepository.ts</title>
<g id="a_node12"><a xlink:href="src/gathering/ICardRepository.ts" xlink:title="ICardRepository.ts">
<path fill="#ddfeff" stroke="black" d="M744.5,-240C744.5,-240 663.5,-240 663.5,-240 660.5,-240 657.5,-237 657.5,-234 657.5,-234 657.5,-228 657.5,-228 657.5,-225 660.5,-222 663.5,-222 663.5,-222 744.5,-222 744.5,-222 747.5,-222 750.5,-225 750.5,-228 750.5,-228 750.5,-234 750.5,-234 750.5,-237 747.5,-240 744.5,-240"/>
<text text-anchor="start" x="665.5" y="-228.8" font-family="Helvetica,sans-Serif" font-size="9.00">ICardRepository.ts</text>
</a>
</g>
</g>
<!-- src/gathering/CollectionOrganizer/CollectionOrganizer.ts&#45;&gt;src/gathering/ICardRepository.ts -->
<g id="edge12" class="edge">
<title>src/gathering/CollectionOrganizer/CollectionOrganizer.ts&#45;&gt;src/gathering/ICardRepository.ts</title>
<path fill="none" stroke="#000000" stroke-opacity="0.200000" d="M629.81,-204.08C633.64,-205.25 637.42,-206.55 641,-208 644.89,-209.58 645.21,-211.21 649,-213 654.36,-215.53 660.18,-217.86 665.94,-219.95"/>
<polygon fill="none" stroke="#000000" stroke-opacity="0.200000" points="665.31,-221.95 671.67,-221.95 666.7,-217.99 665.31,-221.95"/>
</g>
<!-- src/gathering/ICollectionOrganizer.ts -->
<g id="node13" class="node">
<title>src/gathering/ICollectionOrganizer.ts</title>
<g id="a_node13"><a xlink:href="src/gathering/ICollectionOrganizer.ts" xlink:title="ICollectionOrganizer.ts">
<path fill="#ddfeff" stroke="black" d="M753,-196C753,-196 655,-196 655,-196 652,-196 649,-193 649,-190 649,-190 649,-184 649,-184 649,-181 652,-178 655,-178 655,-178 753,-178 753,-178 756,-178 759,-181 759,-184 759,-184 759,-190 759,-190 759,-193 756,-196 753,-196"/>
<text text-anchor="start" x="657" y="-184.8" font-family="Helvetica,sans-Serif" font-size="9.00">ICollectionOrganizer.ts</text>
</a>
</g>
</g>
<!-- src/gathering/CollectionOrganizer/CollectionOrganizer.ts&#45;&gt;src/gathering/ICollectionOrganizer.ts -->
<g id="edge13" class="edge">
<title>src/gathering/CollectionOrganizer/CollectionOrganizer.ts&#45;&gt;src/gathering/ICollectionOrganizer.ts</title>
<path fill="none" stroke="#000000" stroke-opacity="0.200000" d="M633.16,-191.56C636.24,-191.36 639.35,-191.16 642.46,-190.95"/>
<polygon fill="none" stroke="#000000" stroke-opacity="0.200000" points="642.97,-193.02 648.82,-190.54 642.7,-188.83 642.97,-193.02"/>
</g>
<!-- src/gathering/ICardRepository.ts&#45;&gt;src/gathering/Pack.ts -->
<g id="edge14" class="edge">
<title>src/gathering/ICardRepository.ts&#45;&gt;src/gathering/Pack.ts</title>
<path fill="none" stroke="#000000" stroke-opacity="0.200000" d="M733.67,-240.05C741.96,-242.95 750.94,-246.36 759,-250 770.46,-255.18 782.74,-261.97 792.63,-267.78"/>
<polygon fill="none" stroke="#000000" stroke-opacity="0.200000" points="791.64,-269.63 797.87,-270.89 793.78,-266.02 791.64,-269.63"/>
</g>
<!-- src/gathering/ICardRepository.ts&#45;&gt;src/gathering/IBinderOutput.ts -->
<g id="edge15" class="edge">
<title>src/gathering/ICardRepository.ts&#45;&gt;src/gathering/IBinderOutput.ts</title>
<path fill="none" stroke="#000000" stroke-opacity="0.200000" d="M734.37,-221.98C747.65,-217.91 763.44,-213.06 777.33,-208.8"/>
<polygon fill="none" stroke="#000000" stroke-opacity="0.200000" points="778.04,-210.77 783.16,-207.01 776.81,-206.76 778.04,-210.77"/>
</g>
<!-- src/gathering/ICollectionOrganizer.ts&#45;&gt;src/gathering/IBinderOutput.ts -->
<g id="edge18" class="edge">
<title>src/gathering/ICollectionOrganizer.ts&#45;&gt;src/gathering/IBinderOutput.ts</title>
<path fill="none" stroke="#000000" stroke-opacity="0.200000" d="M759.06,-192.53C761.21,-192.75 763.35,-192.97 765.48,-193.19"/>
<polygon fill="none" stroke="#000000" stroke-opacity="0.200000" points="765.63,-195.31 771.81,-193.84 766.05,-191.14 765.63,-195.31"/>
</g>
<!-- src/lib/userBrowsesItsCollection/userBrowsesItsCollection.ts -->
<g id="node14" class="node">
<title>src/lib/userBrowsesItsCollection/userBrowsesItsCollection.ts</title>
<g id="a_node14"><a xlink:href="src/lib/userBrowsesItsCollection/userBrowsesItsCollection.ts" xlink:title="userBrowsesItsCollection.ts">
<path fill="#ddfeff" stroke="black" d="M488,-50C488,-50 367,-50 367,-50 364,-50 361,-47 361,-44 361,-44 361,-38 361,-38 361,-35 364,-32 367,-32 367,-32 488,-32 488,-32 491,-32 494,-35 494,-38 494,-38 494,-44 494,-44 494,-47 491,-50 488,-50"/>
<text text-anchor="start" x="369" y="-38.8" font-family="Helvetica,sans-Serif" font-size="9.00">userBrowsesItsCollection.ts</text>
</a>
</g>
</g>
<!-- src/lib/userBrowsesItsCollection/userBrowsesItsCollection.ts&#45;&gt;src/gathering/IBinderOutput.ts -->
<g id="edge21" class="edge">
<title>src/lib/userBrowsesItsCollection/userBrowsesItsCollection.ts&#45;&gt;src/gathering/IBinderOutput.ts</title>
<path fill="none" stroke="#000000" stroke-opacity="0.200000" d="M494.39,-41.53C537.51,-43.89 594.31,-50.89 641,-70 708.29,-97.53 772.91,-157.76 799.63,-184.62"/>
<polygon fill="none" stroke="#000000" stroke-opacity="0.200000" points="798.17,-186.13 803.88,-188.93 801.16,-183.18 798.17,-186.13"/>
</g>
<!-- src/lib/userBrowsesItsCollection/userBrowsesItsCollection.ts&#45;&gt;src/gathering/ICollectionOrganizer.ts -->
<g id="edge22" class="edge">
<title>src/lib/userBrowsesItsCollection/userBrowsesItsCollection.ts&#45;&gt;src/gathering/ICollectionOrganizer.ts</title>
<path fill="none" stroke="#000000" stroke-opacity="0.200000" d="M458.2,-50.06C500.73,-63.8 580.53,-92.44 641,-131 659.79,-142.98 678.35,-160.74 690.2,-173.04"/>
<polygon fill="none" stroke="#000000" stroke-opacity="0.200000" points="688.89,-174.71 694.54,-177.62 691.94,-171.82 688.89,-174.71"/>
</g>
<!-- src/lib/userEditsItsCollection/userEditsItsCollection.ts -->
<g id="node15" class="node">
<title>src/lib/userEditsItsCollection/userEditsItsCollection.ts</title>
<g id="a_node15"><a xlink:href="src/lib/userEditsItsCollection/userEditsItsCollection.ts" xlink:title="userEditsItsCollection.ts">
<path fill="#ddfeff" stroke="black" d="M480,-110C480,-110 375,-110 375,-110 372,-110 369,-107 369,-104 369,-104 369,-98 369,-98 369,-95 372,-92 375,-92 375,-92 480,-92 480,-92 483,-92 486,-95 486,-98 486,-98 486,-104 486,-104 486,-107 483,-110 480,-110"/>
<text text-anchor="start" x="377" y="-98.8" font-family="Helvetica,sans-Serif" font-size="9.00">userEditsItsCollection.ts</text>
</a>
</g>
</g>
<!-- src/lib/userEditsItsCollection/userEditsItsCollection.ts&#45;&gt;src/gathering/Collection.ts -->
<g id="edge23" class="edge">
<title>src/lib/userEditsItsCollection/userEditsItsCollection.ts&#45;&gt;src/gathering/Collection.ts</title>
<path fill="none" stroke="#000000" stroke-opacity="0.200000" d="M486.39,-104.68C535.53,-111.1 603.82,-128.45 641,-175 660.82,-199.81 633.94,-218.04 649,-246 656.33,-259.6 669.62,-270.76 681.18,-278.56"/>
<polygon fill="none" stroke="#000000" stroke-opacity="0.200000" points="680.16,-280.4 686.34,-281.9 682.44,-276.88 680.16,-280.4"/>
</g>
<!-- src/lib/userEditsItsCollection/userEditsItsCollection.ts&#45;&gt;src/gathering/ICollectionEditor.ts -->
<g id="edge24" class="edge">
<title>src/lib/userEditsItsCollection/userEditsItsCollection.ts&#45;&gt;src/gathering/ICollectionEditor.ts</title>
<path fill="none" stroke="#000000" stroke-opacity="0.200000" d="M431.89,-110.09C441.39,-134.29 470.74,-200.58 518,-233 520.72,-234.87 523.66,-236.49 526.72,-237.9"/>
<polygon fill="none" stroke="#000000" stroke-opacity="0.200000" points="526,-239.87 532.35,-240.2 527.59,-235.98 526,-239.87"/>
</g>
<!-- src/lib/userEditsItsCollection/userEditsItsCollection.ts&#45;&gt;src/gathering/ICollectionOutput.ts -->
<g id="edge25" class="edge">
<title>src/lib/userEditsItsCollection/userEditsItsCollection.ts&#45;&gt;src/gathering/ICollectionOutput.ts</title>
<path fill="none" stroke="#000000" stroke-opacity="0.200000" d="M434.58,-110.22C448.93,-132.21 485.52,-189.74 510,-241 514.3,-250.01 511.24,-254.65 518,-262 524.79,-269.38 533.86,-275.08 542.91,-279.39"/>
<polygon fill="none" stroke="#000000" stroke-opacity="0.200000" points="542.18,-281.37 548.52,-281.9 543.9,-277.53 542.18,-281.37"/>
</g>
<!-- src/routes/collection/+page.svelte.ts -->
<g id="node16" class="node">
<title>src/routes/collection/+page.svelte.ts</title>
<g id="a_node16"><a xlink:href="src/routes/collection/+page.svelte.ts" xlink:title="+page.svelte.ts">
<path fill="#ddfeff" stroke="black" d="M105,-50C105,-50 38,-50 38,-50 35,-50 32,-47 32,-44 32,-44 32,-38 32,-38 32,-35 35,-32 38,-32 38,-32 105,-32 105,-32 108,-32 111,-35 111,-38 111,-38 111,-44 111,-44 111,-47 108,-50 105,-50"/>
<text text-anchor="start" x="40" y="-38.8" font-family="Helvetica,sans-Serif" font-size="9.00">+page.svelte.ts</text>
</a>
</g>
</g>
<!-- src/routes/collection/+page.svelte.ts&#45;&gt;src/lib/userBrowsesItsCollection/userBrowsesItsCollection.ts -->
<g id="edge27" class="edge">
<title>src/routes/collection/+page.svelte.ts&#45;&gt;src/lib/userBrowsesItsCollection/userBrowsesItsCollection.ts</title>
<path fill="none" stroke="#000000" stroke-width="2" stroke-opacity="0.200000" d="M98.12,-50.01C106.29,-52.46 115.43,-54.78 124,-56 217.72,-69.37 242.66,-63.85 337,-56 349.55,-54.96 362.98,-53.1 375.53,-51.04"/>
<polygon fill="#000000" fill-opacity="0.200000" stroke="#000000" stroke-width="2" stroke-opacity="0.200000" points="376.04,-53.09 381.61,-50.02 375.35,-48.95 376.04,-53.09"/>
</g>
<!-- src/routes/collection/Binder.svelte.ts -->
<g id="node17" class="node">
<title>src/routes/collection/Binder.svelte.ts</title>
<g id="a_node17"><a xlink:href="src/routes/collection/Binder.svelte.ts" xlink:title="Binder.svelte.ts">
<path fill="#ddfeff" stroke="black" d="M198,-50C198,-50 130,-50 130,-50 127,-50 124,-47 124,-44 124,-44 124,-38 124,-38 124,-35 127,-32 130,-32 130,-32 198,-32 198,-32 201,-32 204,-35 204,-38 204,-38 204,-44 204,-44 204,-47 201,-50 198,-50"/>
<text text-anchor="start" x="132" y="-38.8" font-family="Helvetica,sans-Serif" font-size="9.00">Binder.svelte.ts</text>
</a>
</g>
</g>
<!-- src/routes/collection/+page.svelte.ts&#45;&gt;src/routes/collection/Binder.svelte.ts -->
<g id="edge26" class="edge">
<title>src/routes/collection/+page.svelte.ts&#45;&gt;src/routes/collection/Binder.svelte.ts</title>
<path fill="none" stroke="#000000" stroke-width="2" stroke-opacity="0.200000" d="M111.14,-41C113.26,-41 115.39,-41 117.52,-41"/>
<polygon fill="#000000" fill-opacity="0.200000" stroke="#000000" stroke-width="2" stroke-opacity="0.200000" points="117.91,-43.1 123.91,-41 117.91,-38.9 117.91,-43.1"/>
</g>
<!-- src/routes/collection/Binder.svelte.ts&#45;&gt;src/lib/userBrowsesItsCollection/userBrowsesItsCollection.ts -->
<g id="edge29" class="edge">
<title>src/routes/collection/Binder.svelte.ts&#45;&gt;src/lib/userBrowsesItsCollection/userBrowsesItsCollection.ts</title>
<path fill="none" stroke="#000000" stroke-opacity="0.200000" d="M190.88,-31.99C199.12,-29.54 208.35,-27.22 217,-26 269.81,-18.54 283.85,-21.58 337,-26 349.55,-27.04 362.98,-28.9 375.53,-30.96"/>
<polygon fill="none" stroke="#000000" stroke-opacity="0.200000" points="375.35,-33.05 381.61,-31.98 376.04,-28.91 375.35,-33.05"/>
</g>
<!-- src/routes/collection/PocketSheet.svelte.ts -->
<g id="node18" class="node">
<title>src/routes/collection/PocketSheet.svelte.ts</title>
<g id="a_node18"><a xlink:href="src/routes/collection/PocketSheet.svelte.ts" xlink:title="PocketSheet.svelte.ts">
<path fill="#ddfeff" stroke="black" d="M315,-50C315,-50 223,-50 223,-50 220,-50 217,-47 217,-44 217,-44 217,-38 217,-38 217,-35 220,-32 223,-32 223,-32 315,-32 315,-32 318,-32 321,-35 321,-38 321,-38 321,-44 321,-44 321,-47 318,-50 315,-50"/>
<text text-anchor="start" x="225" y="-38.8" font-family="Helvetica,sans-Serif" font-size="9.00">PocketSheet.svelte.ts</text>
</a>
</g>
</g>
<!-- src/routes/collection/Binder.svelte.ts&#45;&gt;src/routes/collection/PocketSheet.svelte.ts -->
<g id="edge28" class="edge">
<title>src/routes/collection/Binder.svelte.ts&#45;&gt;src/routes/collection/PocketSheet.svelte.ts</title>
<path fill="none" stroke="#000000" stroke-width="2" stroke-opacity="0.200000" d="M204.23,-41C206.28,-41 208.35,-41 210.44,-41"/>
<polygon fill="#000000" fill-opacity="0.200000" stroke="#000000" stroke-width="2" stroke-opacity="0.200000" points="210.73,-43.1 216.73,-41 210.73,-38.9 210.73,-43.1"/>
</g>
<!-- src/routes/collection/PocketSheet.svelte.ts&#45;&gt;src/lib/userBrowsesItsCollection/userBrowsesItsCollection.ts -->
<g id="edge30" class="edge">
<title>src/routes/collection/PocketSheet.svelte.ts&#45;&gt;src/lib/userBrowsesItsCollection/userBrowsesItsCollection.ts</title>
<path fill="none" stroke="#000000" stroke-opacity="0.200000" d="M321.24,-41C331.92,-41 343.37,-41 354.64,-41"/>
<polygon fill="none" stroke="#000000" stroke-opacity="0.200000" points="354.87,-43.1 360.87,-41 354.87,-38.9 354.87,-43.1"/>
</g>
</g>
</svg>
