<?xml version="1.0" encoding="UTF-8" standalone="no"?>
<!DOCTYPE svg PUBLIC "-//W3C//DTD SVG 1.1//EN"
 "http://www.w3.org/Graphics/SVG/1.1/DTD/svg11.dtd">
<!-- Generated by graphviz version 2.50.0 (20211204.2007)
 -->
<!-- Title: dependency&#45;cruiser output Pages: 1 -->
<svg width="484pt" height="444pt"
 viewBox="0.00 0.00 483.50 444.00" xmlns="http://www.w3.org/2000/svg" xmlns:xlink="http://www.w3.org/1999/xlink">
<g id="graph0" class="graph" transform="scale(1 1) rotate(0) translate(4 440)">
<title>dependency&#45;cruiser output</title>
<polygon fill="white" stroke="transparent" points="-4,4 -4,-440 479.5,-440 479.5,4 -4,4"/>
<g id="clust1" class="cluster">
<title>cluster_src</title>
<path fill="#ffffff" stroke="black" stroke-width="2" d="M20,-8C20,-8 455.5,-8 455.5,-8 461.5,-8 467.5,-14 467.5,-20 467.5,-20 467.5,-416 467.5,-416 467.5,-422 461.5,-428 455.5,-428 455.5,-428 20,-428 20,-428 14,-428 8,-422 8,-416 8,-416 8,-20 8,-20 8,-14 14,-8 20,-8"/>
<text text-anchor="middle" x="237.75" y="-416.8" font-family="Helvetica,sans-Serif" font-weight="bold" font-size="9.00">src</text>
</g>
<g id="clust2" class="cluster">
<title>cluster_src/gathering</title>
<path fill="#ffffff" stroke="black" stroke-width="2" d="M28,-260C28,-260 447.5,-260 447.5,-260 453.5,-260 459.5,-266 459.5,-272 459.5,-272 459.5,-390 459.5,-390 459.5,-396 453.5,-402 447.5,-402 447.5,-402 28,-402 28,-402 22,-402 16,-396 16,-390 16,-390 16,-272 16,-272 16,-266 22,-260 28,-260"/>
<text text-anchor="middle" x="237.75" y="-390.8" font-family="Helvetica,sans-Serif" font-weight="bold" font-size="9.00">gathering</text>
</g>
<g id="clust3" class="cluster">
<title>cluster_src/gathering/CollectionEditor</title>
<path fill="#ffffff" stroke="black" stroke-width="2" d="M36,-294C36,-294 271.5,-294 271.5,-294 277.5,-294 283.5,-300 283.5,-306 283.5,-306 283.5,-364 283.5,-364 283.5,-370 277.5,-376 271.5,-376 271.5,-376 36,-376 36,-376 30,-376 24,-370 24,-364 24,-364 24,-306 24,-306 24,-300 30,-294 36,-294"/>
<text text-anchor="middle" x="153.75" y="-364.8" font-family="Helvetica,sans-Serif" font-weight="bold" font-size="9.00">CollectionEditor</text>
</g>
<g id="clust4" class="cluster">
<title>cluster_src/lib</title>
<path fill="#ffffff" stroke="black" stroke-width="2" d="M173,-16C173,-16 266,-16 266,-16 272,-16 278,-22 278,-28 278,-28 278,-240 278,-240 278,-246 272,-252 266,-252 266,-252 173,-252 173,-252 167,-252 161,-246 161,-240 161,-240 161,-28 161,-28 161,-22 167,-16 173,-16"/>
<text text-anchor="middle" x="219.5" y="-240.8" font-family="Helvetica,sans-Serif" font-weight="bold" font-size="9.00">lib</text>
</g>
<g id="clust5" class="cluster">
<title>cluster_src/lib/BinderStorage</title>
<path fill="#ffffff" stroke="black" stroke-width="2" d="M192.5,-174C192.5,-174 246.5,-174 246.5,-174 252.5,-174 258.5,-180 258.5,-186 258.5,-186 258.5,-214 258.5,-214 258.5,-220 252.5,-226 246.5,-226 246.5,-226 192.5,-226 192.5,-226 186.5,-226 180.5,-220 180.5,-214 180.5,-214 180.5,-186 180.5,-186 180.5,-180 186.5,-174 192.5,-174"/>
<text text-anchor="middle" x="219.5" y="-214.8" font-family="Helvetica,sans-Serif" font-weight="bold" font-size="9.00">BinderStorage</text>
</g>
<g id="clust6" class="cluster">
<title>cluster_src/lib/server</title>
<path fill="#ffffff" stroke="black" stroke-width="2" d="M181,-24C181,-24 258,-24 258,-24 264,-24 270,-30 270,-36 270,-36 270,-154 270,-154 270,-160 264,-166 258,-166 258,-166 181,-166 181,-166 175,-166 169,-160 169,-154 169,-154 169,-36 169,-36 169,-30 175,-24 181,-24"/>
<text text-anchor="middle" x="219.5" y="-154.8" font-family="Helvetica,sans-Serif" font-weight="bold" font-size="9.00">server</text>
</g>
<g id="clust7" class="cluster">
<title>cluster_src/lib/server/collection</title>
<path fill="#ffffff" stroke="black" stroke-width="2" d="M195.5,-88C195.5,-88 243.5,-88 243.5,-88 249.5,-88 255.5,-94 255.5,-100 255.5,-100 255.5,-128 255.5,-128 255.5,-134 249.5,-140 243.5,-140 243.5,-140 195.5,-140 195.5,-140 189.5,-140 183.5,-134 183.5,-128 183.5,-128 183.5,-100 183.5,-100 183.5,-94 189.5,-88 195.5,-88"/>
<text text-anchor="middle" x="219.5" y="-128.8" font-family="Helvetica,sans-Serif" font-weight="bold" font-size="9.00">collection</text>
</g>
<g id="clust8" class="cluster">
<title>cluster_src/routes</title>
<path fill="#ffffff" stroke="black" stroke-width="2" d="M37,-55C37,-55 141,-55 141,-55 147,-55 153,-61 153,-67 153,-67 153,-163 153,-163 153,-169 147,-175 141,-175 141,-175 37,-175 37,-175 31,-175 25,-169 25,-163 25,-163 25,-67 25,-67 25,-61 31,-55 37,-55"/>
<text text-anchor="middle" x="89" y="-163.8" font-family="Helvetica,sans-Serif" font-weight="bold" font-size="9.00">routes</text>
</g>
<g id="clust9" class="cluster">
<title>cluster_src/routes/collection</title>
<path fill="#ffffff" stroke="black" stroke-width="2" d="M45,-63C45,-63 133,-63 133,-63 139,-63 145,-69 145,-75 145,-75 145,-137 145,-137 145,-143 139,-149 133,-149 133,-149 45,-149 45,-149 39,-149 33,-143 33,-137 33,-137 33,-75 33,-75 33,-69 39,-63 45,-63"/>
<text text-anchor="middle" x="89" y="-137.8" font-family="Helvetica,sans-Serif" font-weight="bold" font-size="9.00">collection</text>
</g>
<g id="clust10" class="cluster">
<title>cluster_src/routes/collection/couz</title>
<path fill="#ffffff" stroke="black" stroke-width="2" d="M53,-71C53,-71 125,-71 125,-71 131,-71 137,-77 137,-83 137,-83 137,-111 137,-111 137,-117 131,-123 125,-123 125,-123 53,-123 53,-123 47,-123 41,-117 41,-111 41,-111 41,-83 41,-83 41,-77 47,-71 53,-71"/>
<text text-anchor="middle" x="89" y="-111.8" font-family="Helvetica,sans-Serif" font-weight="bold" font-size="9.00">couz</text>
</g>
<!-- src/gathering/Collection.ts -->
<g id="node1" class="node">
<title>src/gathering/Collection.ts</title>
<g id="a_node1"><a xlink:href="src/gathering/Collection.ts" xlink:title="Collection.ts">
<path fill="#ddfeff" stroke="black" d="M366,-372C366,-372 310,-372 310,-372 307,-372 304,-369 304,-366 304,-366 304,-360 304,-360 304,-357 307,-354 310,-354 310,-354 366,-354 366,-354 369,-354 372,-357 372,-360 372,-360 372,-366 372,-366 372,-369 369,-372 366,-372"/>
<text text-anchor="start" x="312" y="-360.8" font-family="Helvetica,sans-Serif" font-size="9.00">Collection.ts</text>
</a>
</g>
</g>
<!-- src/gathering/Pack.ts -->
<g id="node2" class="node">
<title>src/gathering/Pack.ts</title>
<g id="a_node2"><a xlink:href="src/gathering/Pack.ts" xlink:title="Pack.ts">
<path fill="#ddfeff" stroke="black" d="M445.5,-339C445.5,-339 403.5,-339 403.5,-339 400.5,-339 397.5,-336 397.5,-333 397.5,-333 397.5,-327 397.5,-327 397.5,-324 400.5,-321 403.5,-321 403.5,-321 445.5,-321 445.5,-321 448.5,-321 451.5,-324 451.5,-327 451.5,-327 451.5,-333 451.5,-333 451.5,-336 448.5,-339 445.5,-339"/>
<text text-anchor="start" x="409" y="-327.8" font-family="Helvetica,sans-Serif" font-size="9.00">Pack.ts</text>
</a>
</g>
</g>
<!-- src/gathering/Collection.ts&#45;&gt;src/gathering/Pack.ts -->
<g id="edge1" class="edge">
<title>src/gathering/Collection.ts&#45;&gt;src/gathering/Pack.ts</title>
<path fill="none" stroke="#000000" stroke-opacity="0.200000" d="M362.09,-353.98C372.15,-350.05 384.05,-345.41 394.68,-341.25"/>
<polygon fill="none" stroke="#000000" stroke-opacity="0.200000" points="395.61,-343.15 400.44,-339.01 394.09,-339.23 395.61,-343.15"/>
</g>
<!-- src/gathering/CollectionEditor/PackRepositoryMock.ts -->
<g id="node3" class="node">
<title>src/gathering/CollectionEditor/PackRepositoryMock.ts</title>
<g id="a_node3"><a xlink:href="src/gathering/CollectionEditor/PackRepositoryMock.ts" xlink:title="PackRepositoryMock.ts">
<path fill="#ddfeff" stroke="black" d="M269.5,-320C269.5,-320 169.5,-320 169.5,-320 166.5,-320 163.5,-317 163.5,-314 163.5,-314 163.5,-308 163.5,-308 163.5,-305 166.5,-302 169.5,-302 169.5,-302 269.5,-302 269.5,-302 272.5,-302 275.5,-305 275.5,-308 275.5,-308 275.5,-314 275.5,-314 275.5,-317 272.5,-320 269.5,-320"/>
<text text-anchor="start" x="171.5" y="-308.8" font-family="Helvetica,sans-Serif" font-size="9.00">PackRepositoryMock.ts</text>
</a>
</g>
</g>
<!-- src/gathering/CollectionEditor/PackRepositoryMock.ts&#45;&gt;src/gathering/Pack.ts -->
<g id="edge3" class="edge">
<title>src/gathering/CollectionEditor/PackRepositoryMock.ts&#45;&gt;src/gathering/Pack.ts</title>
<path fill="none" stroke="#000000" stroke-opacity="0.200000" d="M260.86,-301.96C294.64,-296.11 343.72,-291.65 384.5,-304 393.19,-306.63 401.71,-311.91 408.56,-317.02"/>
<polygon fill="none" stroke="#000000" stroke-opacity="0.200000" points="407.43,-318.81 413.45,-320.86 410.03,-315.5 407.43,-318.81"/>
</g>
<!-- src/gathering/IPackRepository.ts -->
<g id="node4" class="node">
<title>src/gathering/IPackRepository.ts</title>
<g id="a_node4"><a xlink:href="src/gathering/IPackRepository.ts" xlink:title="IPackRepository.ts">
<path fill="#ddfeff" stroke="black" d="M378.5,-328C378.5,-328 297.5,-328 297.5,-328 294.5,-328 291.5,-325 291.5,-322 291.5,-322 291.5,-316 291.5,-316 291.5,-313 294.5,-310 297.5,-310 297.5,-310 378.5,-310 378.5,-310 381.5,-310 384.5,-313 384.5,-316 384.5,-316 384.5,-322 384.5,-322 384.5,-325 381.5,-328 378.5,-328"/>
<text text-anchor="start" x="299.5" y="-316.8" font-family="Helvetica,sans-Serif" font-size="9.00">IPackRepository.ts</text>
</a>
</g>
</g>
<!-- src/gathering/CollectionEditor/PackRepositoryMock.ts&#45;&gt;src/gathering/IPackRepository.ts -->
<g id="edge2" class="edge">
<title>src/gathering/CollectionEditor/PackRepositoryMock.ts&#45;&gt;src/gathering/IPackRepository.ts</title>
<path fill="none" stroke="#000000" stroke-opacity="0.200000" d="M275.68,-314.79C278.82,-315 281.98,-315.22 285.11,-315.44"/>
<polygon fill="none" stroke="#000000" stroke-opacity="0.200000" points="285.36,-317.56 291.48,-315.87 285.64,-313.37 285.36,-317.56"/>
</g>
<!-- src/gathering/IPackRepository.ts&#45;&gt;src/gathering/Pack.ts -->
<g id="edge10" class="edge">
<title>src/gathering/IPackRepository.ts&#45;&gt;src/gathering/Pack.ts</title>
<path fill="none" stroke="#000000" stroke-opacity="0.200000" d="M384.71,-324.95C386.89,-325.23 389.06,-325.52 391.18,-325.79"/>
<polygon fill="none" stroke="#000000" stroke-opacity="0.200000" points="391.22,-327.92 397.44,-326.61 391.76,-323.75 391.22,-327.92"/>
</g>
<!-- src/gathering/CollectionEditor/addRemovePack.test.ts -->
<g id="node5" class="node">
<title>src/gathering/CollectionEditor/addRemovePack.test.ts</title>
<g id="a_node5"><a xlink:href="src/gathering/CollectionEditor/addRemovePack.test.ts" xlink:title="addRemovePack.test.ts">
<path fill="#ddfeff" stroke="black" d="M140,-350C140,-350 38,-350 38,-350 35,-350 32,-347 32,-344 32,-344 32,-338 32,-338 32,-335 35,-332 38,-332 38,-332 140,-332 140,-332 143,-332 146,-335 146,-338 146,-338 146,-344 146,-344 146,-347 143,-350 140,-350"/>
<text text-anchor="start" x="40" y="-338.8" font-family="Helvetica,sans-Serif" font-size="9.00">addRemovePack.test.ts</text>
</a>
</g>
</g>
<!-- src/gathering/CollectionEditor/addRemovePack.test.ts&#45;&gt;src/gathering/Collection.ts -->
<g id="edge6" class="edge">
<title>src/gathering/CollectionEditor/addRemovePack.test.ts&#45;&gt;src/gathering/Collection.ts</title>
<path fill="none" stroke="#000000" stroke-opacity="0.200000" d="M127.02,-350.05C137.9,-352.38 149.87,-354.61 161,-356 207.76,-361.83 261.99,-363.18 297.76,-363.33"/>
<polygon fill="none" stroke="#000000" stroke-opacity="0.200000" points="297.77,-365.43 303.78,-363.34 297.78,-361.23 297.77,-365.43"/>
</g>
<!-- src/gathering/CollectionEditor/addRemovePack.test.ts&#45;&gt;src/gathering/CollectionEditor/PackRepositoryMock.ts -->
<g id="edge5" class="edge">
<title>src/gathering/CollectionEditor/addRemovePack.test.ts&#45;&gt;src/gathering/CollectionEditor/PackRepositoryMock.ts</title>
<path fill="none" stroke="#000000" stroke-width="2" stroke-opacity="0.200000" d="M135.14,-331.97C141.16,-330.69 147.24,-329.34 153,-328 155.83,-327.34 166.23,-324.66 177.94,-321.61"/>
<polygon fill="#000000" fill-opacity="0.200000" stroke="#000000" stroke-width="2" stroke-opacity="0.200000" points="178.49,-323.64 183.77,-320.09 177.44,-319.57 178.49,-323.64"/>
</g>
<!-- src/gathering/CollectionEditor/addRemovePack.ts -->
<g id="node6" class="node">
<title>src/gathering/CollectionEditor/addRemovePack.ts</title>
<g id="a_node6"><a xlink:href="src/gathering/CollectionEditor/addRemovePack.ts" xlink:title="addRemovePack.ts">
<path fill="#ddfeff" stroke="black" d="M262,-350C262,-350 177,-350 177,-350 174,-350 171,-347 171,-344 171,-344 171,-338 171,-338 171,-335 174,-332 177,-332 177,-332 262,-332 262,-332 265,-332 268,-335 268,-338 268,-338 268,-344 268,-344 268,-347 265,-350 262,-350"/>
<text text-anchor="start" x="179" y="-338.8" font-family="Helvetica,sans-Serif" font-size="9.00">addRemovePack.ts</text>
</a>
</g>
</g>
<!-- src/gathering/CollectionEditor/addRemovePack.test.ts&#45;&gt;src/gathering/CollectionEditor/addRemovePack.ts -->
<g id="edge4" class="edge">
<title>src/gathering/CollectionEditor/addRemovePack.test.ts&#45;&gt;src/gathering/CollectionEditor/addRemovePack.ts</title>
<path fill="none" stroke="#000000" stroke-width="2" stroke-opacity="0.200000" d="M146.36,-341C152.3,-341 158.34,-341 164.26,-341"/>
<polygon fill="#000000" fill-opacity="0.200000" stroke="#000000" stroke-width="2" stroke-opacity="0.200000" points="164.62,-343.1 170.62,-341 164.62,-338.9 164.62,-343.1"/>
</g>
<!-- src/gathering/CollectionEditor/addRemovePack.ts&#45;&gt;src/gathering/Collection.ts -->
<g id="edge7" class="edge">
<title>src/gathering/CollectionEditor/addRemovePack.ts&#45;&gt;src/gathering/Collection.ts</title>
<path fill="none" stroke="#000000" stroke-opacity="0.200000" d="M268.22,-350.01C278.02,-351.86 288.22,-353.79 297.68,-355.57"/>
<polygon fill="none" stroke="#000000" stroke-opacity="0.200000" points="297.49,-357.68 303.77,-356.73 298.27,-353.55 297.49,-357.68"/>
</g>
<!-- src/gathering/CollectionEditor/addRemovePack.ts&#45;&gt;src/gathering/Pack.ts -->
<g id="edge9" class="edge">
<title>src/gathering/CollectionEditor/addRemovePack.ts&#45;&gt;src/gathering/Pack.ts</title>
<path fill="none" stroke="#000000" stroke-opacity="0.200000" d="M268.27,-339.71C301.01,-338.64 345.42,-336.84 384.5,-334 386.54,-333.85 388.63,-333.68 390.74,-333.5"/>
<polygon fill="none" stroke="#000000" stroke-opacity="0.200000" points="391.3,-335.56 397.09,-332.92 390.92,-331.38 391.3,-335.56"/>
</g>
<!-- src/gathering/CollectionEditor/addRemovePack.ts&#45;&gt;src/gathering/IPackRepository.ts -->
<g id="edge8" class="edge">
<title>src/gathering/CollectionEditor/addRemovePack.ts&#45;&gt;src/gathering/IPackRepository.ts</title>
<path fill="none" stroke="#000000" stroke-opacity="0.200000" d="M268.22,-331.99C273.85,-330.93 279.62,-329.84 285.3,-328.76"/>
<polygon fill="none" stroke="#000000" stroke-opacity="0.200000" points="285.91,-330.78 291.42,-327.61 285.13,-326.66 285.91,-330.78"/>
</g>
<!-- src/gathering/index.ts -->
<g id="node7" class="node">
<title>src/gathering/index.ts</title>
<g id="a_node7"><a xlink:href="src/gathering/index.ts" xlink:title="no&#45;orphans">
<path fill="#ccffcc" stroke="orange" d="M110,-286C110,-286 68,-286 68,-286 65,-286 62,-283 62,-280 62,-280 62,-274 62,-274 62,-271 65,-268 68,-268 68,-268 110,-268 110,-268 113,-268 116,-271 116,-274 116,-274 116,-280 116,-280 116,-283 113,-286 110,-286"/>
<text text-anchor="start" x="73" y="-274.8" font-family="Helvetica,sans-Serif" font-size="9.00" fill="orange">index.ts</text>
</a>
</g>
</g>
<!-- src/lib/BinderStorage/index.ts -->
<g id="node8" class="node">
<title>src/lib/BinderStorage/index.ts</title>
<g id="a_node8"><a xlink:href="src/lib/BinderStorage/index.ts" xlink:title="index.ts">
<path fill="#ddfeff" stroke="black" d="M240.5,-200C240.5,-200 198.5,-200 198.5,-200 195.5,-200 192.5,-197 192.5,-194 192.5,-194 192.5,-188 192.5,-188 192.5,-185 195.5,-182 198.5,-182 198.5,-182 240.5,-182 240.5,-182 243.5,-182 246.5,-185 246.5,-188 246.5,-188 246.5,-194 246.5,-194 246.5,-197 243.5,-200 240.5,-200"/>
<text text-anchor="start" x="203.5" y="-188.8" font-family="Helvetica,sans-Serif" font-size="9.00">index.ts</text>
</a>
</g>
</g>
<!-- src/lib/server/ahdb.cards.json -->
<g id="node9" class="node">
<title>src/lib/server/ahdb.cards.json</title>
<g id="a_node9"><a xlink:href="src/lib/server/ahdb.cards.json" xlink:title="ahdb.cards.json">
<path fill="#ffee44" stroke="black" d="M255,-80C255,-80 184,-80 184,-80 181,-80 178,-77 178,-74 178,-74 178,-68 178,-68 178,-65 181,-62 184,-62 184,-62 255,-62 255,-62 258,-62 261,-65 261,-68 261,-68 261,-74 261,-74 261,-77 258,-80 255,-80"/>
<text text-anchor="start" x="186" y="-68.8" font-family="Helvetica,sans-Serif" font-size="9.00">ahdb.cards.json</text>
</a>
</g>
</g>
<!-- src/lib/server/ahdb.packs.json -->
<g id="node10" class="node">
<title>src/lib/server/ahdb.packs.json</title>
<g id="a_node10"><a xlink:href="src/lib/server/ahdb.packs.json" xlink:title="ahdb.packs.json">
<path fill="#ffee44" stroke="black" d="M256,-50C256,-50 183,-50 183,-50 180,-50 177,-47 177,-44 177,-44 177,-38 177,-38 177,-35 180,-32 183,-32 183,-32 256,-32 256,-32 259,-32 262,-35 262,-38 262,-38 262,-44 262,-44 262,-47 259,-50 256,-50"/>
<text text-anchor="start" x="185" y="-38.8" font-family="Helvetica,sans-Serif" font-size="9.00">ahdb.packs.json</text>
</a>
</g>
</g>
<!-- src/lib/server/collection/couz.json -->
<g id="node11" class="node">
<title>src/lib/server/collection/couz.json</title>
<g id="a_node11"><a xlink:href="src/lib/server/collection/couz.json" xlink:title="couz.json">
<path fill="#ffee44" stroke="black" d="M241.5,-114C241.5,-114 197.5,-114 197.5,-114 194.5,-114 191.5,-111 191.5,-108 191.5,-108 191.5,-102 191.5,-102 191.5,-99 194.5,-96 197.5,-96 197.5,-96 241.5,-96 241.5,-96 244.5,-96 247.5,-99 247.5,-102 247.5,-102 247.5,-108 247.5,-108 247.5,-111 244.5,-114 241.5,-114"/>
<text text-anchor="start" x="199.5" y="-102.8" font-family="Helvetica,sans-Serif" font-size="9.00">couz.json</text>
</a>
</g>
</g>
<!-- src/routes/collection/couz/+page.server.ts -->
<g id="node12" class="node">
<title>src/routes/collection/couz/+page.server.ts</title>
<g id="a_node12"><a xlink:href="src/routes/collection/couz/+page.server.ts" xlink:title="+page.server.ts">
<path fill="#ddfeff" stroke="black" d="M123,-97C123,-97 55,-97 55,-97 52,-97 49,-94 49,-91 49,-91 49,-85 49,-85 49,-82 52,-79 55,-79 55,-79 123,-79 123,-79 126,-79 129,-82 129,-85 129,-85 129,-91 129,-91 129,-94 126,-97 123,-97"/>
<text text-anchor="start" x="57" y="-85.8" font-family="Helvetica,sans-Serif" font-size="9.00">+page.server.ts</text>
</a>
</g>
</g>
<!-- src/routes/collection/couz/+page.server.ts&#45;&gt;src/lib/BinderStorage/index.ts -->
<g id="edge11" class="edge">
<title>src/routes/collection/couz/+page.server.ts&#45;&gt;src/lib/BinderStorage/index.ts</title>
<path fill="none" stroke="#000000" stroke-opacity="0.200000" d="M101.4,-97.14C124.21,-115.42 175.51,-156.54 201.99,-177.76"/>
<polygon fill="none" stroke="#000000" stroke-opacity="0.200000" points="200.94,-179.62 206.94,-181.73 203.57,-176.34 200.94,-179.62"/>
</g>
<!-- src/routes/collection/couz/+page.server.ts&#45;&gt;src/lib/server/ahdb.cards.json -->
<g id="edge12" class="edge">
<title>src/routes/collection/couz/+page.server.ts&#45;&gt;src/lib/server/ahdb.cards.json</title>
<path fill="none" stroke="#000000" stroke-width="2" stroke-opacity="0.200000" d="M129.25,-82.81C142.57,-81.05 157.57,-79.06 171.43,-77.23"/>
<polygon fill="#000000" fill-opacity="0.200000" stroke="#000000" stroke-width="2" stroke-opacity="0.200000" points="172.04,-79.27 177.71,-76.4 171.49,-75.1 172.04,-79.27"/>
</g>
<!-- src/routes/collection/couz/+page.server.ts&#45;&gt;src/lib/server/ahdb.packs.json -->
<g id="edge13" class="edge">
<title>src/routes/collection/couz/+page.server.ts&#45;&gt;src/lib/server/ahdb.packs.json</title>
<path fill="none" stroke="#000000" stroke-width="2" stroke-opacity="0.200000" d="M107.75,-78.99C121.91,-72.05 142.39,-62.57 161,-56 165.31,-54.48 169.85,-53.04 174.41,-51.69"/>
<polygon fill="#000000" fill-opacity="0.200000" stroke="#000000" stroke-width="2" stroke-opacity="0.200000" points="174.99,-53.7 180.18,-50.03 173.84,-49.67 174.99,-53.7"/>
</g>
<!-- src/routes/collection/couz/+page.server.ts&#45;&gt;src/lib/server/collection/couz.json -->
<g id="edge14" class="edge">
<title>src/routes/collection/couz/+page.server.ts&#45;&gt;src/lib/server/collection/couz.json</title>
<path fill="none" stroke="#000000" stroke-width="2" stroke-opacity="0.200000" d="M129.25,-93.19C147.13,-95.56 168.07,-98.33 185.17,-100.59"/>
<polygon fill="#000000" fill-opacity="0.200000" stroke="#000000" stroke-width="2" stroke-opacity="0.200000" points="185.06,-102.69 191.29,-101.4 185.62,-98.53 185.06,-102.69"/>
</g>
</g>
</svg>
