<?xml version="1.0" encoding="UTF-8" standalone="no"?>
<!DOCTYPE svg PUBLIC "-//W3C//DTD SVG 1.1//EN"
 "http://www.w3.org/Graphics/SVG/1.1/DTD/svg11.dtd">
<!-- Generated by graphviz version 2.50.0 (20211204.2007)
 -->
<!-- Title: dependency&#45;cruiser output Pages: 1 -->
<svg width="423pt" height="760pt"
 viewBox="0.00 0.00 423.00 760.00" xmlns="http://www.w3.org/2000/svg" xmlns:xlink="http://www.w3.org/1999/xlink">
<g id="graph0" class="graph" transform="scale(1 1) rotate(0) translate(4 756)">
<title>dependency&#45;cruiser output</title>
<polygon fill="white" stroke="transparent" points="-4,4 -4,-756 419,-756 419,4 -4,4"/>
<g id="clust1" class="cluster">
<title>cluster_src</title>
<path fill="#ffffff" stroke="black" stroke-width="2" d="M20,-8C20,-8 395,-8 395,-8 401,-8 407,-14 407,-20 407,-20 407,-732 407,-732 407,-738 401,-744 395,-744 395,-744 20,-744 20,-744 14,-744 8,-738 8,-732 8,-732 8,-20 8,-20 8,-14 14,-8 20,-8"/>
<text text-anchor="middle" x="207.5" y="-732.8" font-family="Helvetica,sans-Serif" font-weight="bold" font-size="9.00">src</text>
</g>
<g id="clust2" class="cluster">
<title>cluster_src/lib</title>
<path fill="#ffffff" stroke="black" stroke-width="2" d="M294,-316C294,-316 387,-316 387,-316 393,-316 399,-322 399,-328 399,-328 399,-540 399,-540 399,-546 393,-552 387,-552 387,-552 294,-552 294,-552 288,-552 282,-546 282,-540 282,-540 282,-328 282,-328 282,-322 288,-316 294,-316"/>
<text text-anchor="middle" x="340.5" y="-540.8" font-family="Helvetica,sans-Serif" font-weight="bold" font-size="9.00">lib</text>
</g>
<g id="clust4" class="cluster">
<title>cluster_src/lib/collections</title>
<path fill="#ffffff" stroke="black" stroke-width="2" d="M316.5,-384C316.5,-384 364.5,-384 364.5,-384 370.5,-384 376.5,-390 376.5,-396 376.5,-396 376.5,-424 376.5,-424 376.5,-430 370.5,-436 364.5,-436 364.5,-436 316.5,-436 316.5,-436 310.5,-436 304.5,-430 304.5,-424 304.5,-424 304.5,-396 304.5,-396 304.5,-390 310.5,-384 316.5,-384"/>
<text text-anchor="middle" x="340.5" y="-424.8" font-family="Helvetica,sans-Serif" font-weight="bold" font-size="9.00">collections</text>
</g>
<g id="clust5" class="cluster">
<title>cluster_src/lib/server</title>
<path fill="#ffffff" stroke="black" stroke-width="2" d="M302,-444C302,-444 379,-444 379,-444 385,-444 391,-450 391,-456 391,-456 391,-514 391,-514 391,-520 385,-526 379,-526 379,-526 302,-526 302,-526 296,-526 290,-520 290,-514 290,-514 290,-456 290,-456 290,-450 296,-444 302,-444"/>
<text text-anchor="middle" x="340.5" y="-514.8" font-family="Helvetica,sans-Serif" font-weight="bold" font-size="9.00">server</text>
</g>
<g id="clust3" class="cluster">
<title>cluster_src/lib/BinderStorage</title>
<path fill="#ffffff" stroke="black" stroke-width="2" d="M313.5,-324C313.5,-324 367.5,-324 367.5,-324 373.5,-324 379.5,-330 379.5,-336 379.5,-336 379.5,-364 379.5,-364 379.5,-370 373.5,-376 367.5,-376 367.5,-376 313.5,-376 313.5,-376 307.5,-376 301.5,-370 301.5,-364 301.5,-364 301.5,-336 301.5,-336 301.5,-330 307.5,-324 313.5,-324"/>
<text text-anchor="middle" x="340.5" y="-364.8" font-family="Helvetica,sans-Serif" font-weight="bold" font-size="9.00">BinderStorage</text>
</g>
<g id="clust6" class="cluster">
<title>cluster_src/routes</title>
<path fill="#ffffff" stroke="black" stroke-width="2" d="M28,-72C28,-72 262,-72 262,-72 268,-72 274,-78 274,-84 274,-84 274,-652 274,-652 274,-658 268,-664 262,-664 262,-664 28,-664 28,-664 22,-664 16,-658 16,-652 16,-652 16,-84 16,-84 16,-78 22,-72 28,-72"/>
<text text-anchor="middle" x="145" y="-652.8" font-family="Helvetica,sans-Serif" font-weight="bold" font-size="9.00">routes</text>
</g>
<g id="clust7" class="cluster">
<title>cluster_src/routes/cards</title>
<path fill="#ffffff" stroke="black" stroke-width="2" d="M44,-466C44,-466 116,-466 116,-466 122,-466 128,-472 128,-478 128,-478 128,-536 128,-536 128,-542 122,-548 116,-548 116,-548 44,-548 44,-548 38,-548 32,-542 32,-536 32,-536 32,-478 32,-478 32,-472 38,-466 44,-466"/>
<text text-anchor="middle" x="80" y="-536.8" font-family="Helvetica,sans-Serif" font-weight="bold" font-size="9.00">cards</text>
</g>
<g id="clust8" class="cluster">
<title>cluster_src/routes/collection</title>
<path fill="#ffffff" stroke="black" stroke-width="2" d="M36,-316C36,-316 253,-316 253,-316 259,-316 265,-322 265,-328 265,-328 265,-420 265,-420 265,-426 259,-432 253,-432 253,-432 36,-432 36,-432 30,-432 24,-426 24,-420 24,-420 24,-328 24,-328 24,-322 30,-316 36,-316"/>
<text text-anchor="middle" x="144.5" y="-420.8" font-family="Helvetica,sans-Serif" font-weight="bold" font-size="9.00">collection</text>
</g>
<g id="clust9" class="cluster">
<title>cluster_src/routes/collection/couz</title>
<path fill="#ffffff" stroke="black" stroke-width="2" d="M44,-324C44,-324 245,-324 245,-324 251,-324 257,-330 257,-336 257,-336 257,-394 257,-394 257,-400 251,-406 245,-406 245,-406 44,-406 44,-406 38,-406 32,-400 32,-394 32,-394 32,-336 32,-336 32,-330 38,-324 44,-324"/>
<text text-anchor="middle" x="144.5" y="-394.8" font-family="Helvetica,sans-Serif" font-weight="bold" font-size="9.00">couz</text>
</g>
<g id="clust10" class="cluster">
<title>cluster_src/routes/icons</title>
<path fill="#ffffff" stroke="black" stroke-width="2" d="M44.5,-106C44.5,-106 254,-106 254,-106 260,-106 266,-112 266,-118 266,-118 266,-296 266,-296 266,-302 260,-308 254,-308 254,-308 44.5,-308 44.5,-308 38.5,-308 32.5,-302 32.5,-296 32.5,-296 32.5,-118 32.5,-118 32.5,-112 38.5,-106 44.5,-106"/>
<text text-anchor="middle" x="149.25" y="-296.8" font-family="Helvetica,sans-Serif" font-weight="bold" font-size="9.00">icons</text>
</g>
<g id="clust11" class="cluster">
<title>cluster_src/routes/packs</title>
<path fill="#ffffff" stroke="black" stroke-width="2" d="M44,-556C44,-556 116,-556 116,-556 122,-556 128,-562 128,-568 128,-568 128,-626 128,-626 128,-632 122,-638 116,-638 116,-638 44,-638 44,-638 38,-638 32,-632 32,-626 32,-626 32,-568 32,-568 32,-562 38,-556 44,-556"/>
<text text-anchor="middle" x="80" y="-626.8" font-family="Helvetica,sans-Serif" font-weight="bold" font-size="9.00">packs</text>
</g>
<!-- src/app.css -->
<g id="node1" class="node">
<title>src/app.css</title>
<g id="a_node1"><a xlink:href="src/app.css" xlink:title="app.css">
<path fill="#ffffcc" stroke="black" d="M218,-690C218,-690 176,-690 176,-690 173,-690 170,-687 170,-684 170,-684 170,-678 170,-678 170,-675 173,-672 176,-672 176,-672 218,-672 218,-672 221,-672 224,-675 224,-678 224,-678 224,-684 224,-684 224,-687 221,-690 218,-690"/>
<text text-anchor="start" x="180" y="-678.8" font-family="Helvetica,sans-Serif" font-size="9.00">app.css</text>
</a>
</g>
</g>
<!-- src/app.d.ts -->
<g id="node2" class="node">
<title>src/app.d.ts</title>
<g id="a_node2"><a xlink:href="src/app.d.ts" xlink:title="app.d.ts">
<path fill="#ccffcc" stroke="black" d="M101,-64C101,-64 59,-64 59,-64 56,-64 53,-61 53,-58 53,-58 53,-52 53,-52 53,-49 56,-46 59,-46 59,-46 101,-46 101,-46 104,-46 107,-49 107,-52 107,-52 107,-58 107,-58 107,-61 104,-64 101,-64"/>
<text text-anchor="start" x="63" y="-52.8" font-family="Helvetica,sans-Serif" font-size="9.00">app.d.ts</text>
</a>
</g>
</g>
<!-- src/index.test.ts -->
<g id="node3" class="node">
<title>src/index.test.ts</title>
<g id="a_node3"><a xlink:href="src/index.test.ts" xlink:title="no&#45;orphans">
<path fill="#ccffcc" stroke="orange" d="M106.5,-34C106.5,-34 53.5,-34 53.5,-34 50.5,-34 47.5,-31 47.5,-28 47.5,-28 47.5,-22 47.5,-22 47.5,-19 50.5,-16 53.5,-16 53.5,-16 106.5,-16 106.5,-16 109.5,-16 112.5,-19 112.5,-22 112.5,-22 112.5,-28 112.5,-28 112.5,-31 109.5,-34 106.5,-34"/>
<text text-anchor="start" x="55.5" y="-22.8" font-family="Helvetica,sans-Serif" font-size="9.00" fill="orange">index.test.ts</text>
</a>
</g>
</g>
<!-- src/lib/BinderStorage/index.ts -->
<g id="node4" class="node">
<title>src/lib/BinderStorage/index.ts</title>
<g id="a_node4"><a xlink:href="src/lib/BinderStorage/index.ts" xlink:title="index.ts">
<path fill="#ddfeff" stroke="black" d="M361.5,-350C361.5,-350 319.5,-350 319.5,-350 316.5,-350 313.5,-347 313.5,-344 313.5,-344 313.5,-338 313.5,-338 313.5,-335 316.5,-332 319.5,-332 319.5,-332 361.5,-332 361.5,-332 364.5,-332 367.5,-335 367.5,-338 367.5,-338 367.5,-344 367.5,-344 367.5,-347 364.5,-350 361.5,-350"/>
<text text-anchor="start" x="324.5" y="-338.8" font-family="Helvetica,sans-Serif" font-size="9.00">index.ts</text>
</a>
</g>
</g>
<!-- src/lib/collections/couz.json -->
<g id="node5" class="node">
<title>src/lib/collections/couz.json</title>
<g id="a_node5"><a xlink:href="src/lib/collections/couz.json" xlink:title="couz.json">
<path fill="#ffee44" stroke="black" d="M362.5,-410C362.5,-410 318.5,-410 318.5,-410 315.5,-410 312.5,-407 312.5,-404 312.5,-404 312.5,-398 312.5,-398 312.5,-395 315.5,-392 318.5,-392 318.5,-392 362.5,-392 362.5,-392 365.5,-392 368.5,-395 368.5,-398 368.5,-398 368.5,-404 368.5,-404 368.5,-407 365.5,-410 362.5,-410"/>
<text text-anchor="start" x="320.5" y="-398.8" font-family="Helvetica,sans-Serif" font-size="9.00">couz.json</text>
</a>
</g>
</g>
<!-- src/lib/server/ahdb.cards.json -->
<g id="node6" class="node">
<title>src/lib/server/ahdb.cards.json</title>
<g id="a_node6"><a xlink:href="src/lib/server/ahdb.cards.json" xlink:title="ahdb.cards.json">
<path fill="#ffee44" stroke="black" d="M376,-470C376,-470 305,-470 305,-470 302,-470 299,-467 299,-464 299,-464 299,-458 299,-458 299,-455 302,-452 305,-452 305,-452 376,-452 376,-452 379,-452 382,-455 382,-458 382,-458 382,-464 382,-464 382,-467 379,-470 376,-470"/>
<text text-anchor="start" x="307" y="-458.8" font-family="Helvetica,sans-Serif" font-size="9.00">ahdb.cards.json</text>
</a>
</g>
</g>
<!-- src/lib/server/ahdb.packs.json -->
<g id="node7" class="node">
<title>src/lib/server/ahdb.packs.json</title>
<g id="a_node7"><a xlink:href="src/lib/server/ahdb.packs.json" xlink:title="ahdb.packs.json">
<path fill="#ffee44" stroke="black" d="M377,-500C377,-500 304,-500 304,-500 301,-500 298,-497 298,-494 298,-494 298,-488 298,-488 298,-485 301,-482 304,-482 304,-482 377,-482 377,-482 380,-482 383,-485 383,-488 383,-488 383,-494 383,-494 383,-497 380,-500 377,-500"/>
<text text-anchor="start" x="306" y="-488.8" font-family="Helvetica,sans-Serif" font-size="9.00">ahdb.packs.json</text>
</a>
</g>
</g>
<!-- src/routes/+layout.svelte.ts -->
<g id="node8" class="node">
<title>src/routes/+layout.svelte.ts</title>
<g id="a_node8"><a xlink:href="src/routes/+layout.svelte.ts" xlink:title="+layout.svelte.ts">
<path fill="#ddfeff" stroke="black" d="M115,-458C115,-458 45,-458 45,-458 42,-458 39,-455 39,-452 39,-452 39,-446 39,-446 39,-443 42,-440 45,-440 45,-440 115,-440 115,-440 118,-440 121,-443 121,-446 121,-446 121,-452 121,-452 121,-455 118,-458 115,-458"/>
<text text-anchor="start" x="47" y="-446.8" font-family="Helvetica,sans-Serif" font-size="9.00">+layout.svelte.ts</text>
</a>
</g>
</g>
<!-- src/routes/+layout.svelte.ts&#45;&gt;src/app.css -->
<g id="edge1" class="edge">
<title>src/routes/+layout.svelte.ts&#45;&gt;src/app.css</title>
<path fill="none" stroke="#000000" stroke-width="2" stroke-opacity="0.200000" d="M121.09,-457.74C123.6,-459.23 125.94,-460.97 128,-463 128.95,-463.94 176.2,-616.85 191.37,-665.99"/>
<polygon fill="#000000" fill-opacity="0.200000" stroke="#000000" stroke-width="2" stroke-opacity="0.200000" points="189.43,-666.84 193.21,-671.95 193.45,-665.6 189.43,-666.84"/>
</g>
<!-- src/routes/+page.svelte.ts -->
<g id="node9" class="node">
<title>src/routes/+page.svelte.ts</title>
<g id="a_node9"><a xlink:href="src/routes/+page.svelte.ts" xlink:title="no&#45;orphans">
<path fill="#ccffcc" stroke="orange" d="M113.5,-98C113.5,-98 46.5,-98 46.5,-98 43.5,-98 40.5,-95 40.5,-92 40.5,-92 40.5,-86 40.5,-86 40.5,-83 43.5,-80 46.5,-80 46.5,-80 113.5,-80 113.5,-80 116.5,-80 119.5,-83 119.5,-86 119.5,-86 119.5,-92 119.5,-92 119.5,-95 116.5,-98 113.5,-98"/>
<text text-anchor="start" x="48.5" y="-86.8" font-family="Helvetica,sans-Serif" font-size="9.00" fill="orange">+page.svelte.ts</text>
</a>
</g>
</g>
<!-- src/routes/cards/+page.server.ts -->
<g id="node10" class="node">
<title>src/routes/cards/+page.server.ts</title>
<g id="a_node10"><a xlink:href="src/routes/cards/+page.server.ts" xlink:title="+page.server.ts">
<path fill="#ddfeff" stroke="black" d="M114,-522C114,-522 46,-522 46,-522 43,-522 40,-519 40,-516 40,-516 40,-510 40,-510 40,-507 43,-504 46,-504 46,-504 114,-504 114,-504 117,-504 120,-507 120,-510 120,-510 120,-516 120,-516 120,-519 117,-522 114,-522"/>
<text text-anchor="start" x="48" y="-510.8" font-family="Helvetica,sans-Serif" font-size="9.00">+page.server.ts</text>
</a>
</g>
</g>
<!-- src/routes/cards/+page.server.ts&#45;&gt;src/lib/server/ahdb.cards.json -->
<g id="edge2" class="edge">
<title>src/routes/cards/+page.server.ts&#45;&gt;src/lib/server/ahdb.cards.json</title>
<path fill="none" stroke="#000000" stroke-width="2" stroke-opacity="0.200000" d="M97.56,-522.22C108.29,-529.16 121.43,-539.75 128,-553 135.17,-567.46 124.28,-686.91 136,-698 147.14,-708.54 262.96,-708.65 274,-698 291.76,-680.86 266.56,-495.26 282,-476 285.04,-472.21 288.91,-469.3 293.2,-467.09"/>
<polygon fill="#000000" fill-opacity="0.200000" stroke="#000000" stroke-width="2" stroke-opacity="0.200000" points="294.16,-468.96 298.82,-464.64 292.48,-465.11 294.16,-468.96"/>
</g>
<!-- src/routes/cards/+page.svelte.ts -->
<g id="node11" class="node">
<title>src/routes/cards/+page.svelte.ts</title>
<g id="a_node11"><a xlink:href="src/routes/cards/+page.svelte.ts" xlink:title="no&#45;orphans">
<path fill="#ccffcc" stroke="orange" d="M113.5,-492C113.5,-492 46.5,-492 46.5,-492 43.5,-492 40.5,-489 40.5,-486 40.5,-486 40.5,-480 40.5,-480 40.5,-477 43.5,-474 46.5,-474 46.5,-474 113.5,-474 113.5,-474 116.5,-474 119.5,-477 119.5,-480 119.5,-480 119.5,-486 119.5,-486 119.5,-489 116.5,-492 113.5,-492"/>
<text text-anchor="start" x="48.5" y="-480.8" font-family="Helvetica,sans-Serif" font-size="9.00" fill="orange">+page.svelte.ts</text>
</a>
</g>
</g>
<!-- src/routes/collection/couz/+page.server.ts -->
<g id="node12" class="node">
<title>src/routes/collection/couz/+page.server.ts</title>
<g id="a_node12"><a xlink:href="src/routes/collection/couz/+page.server.ts" xlink:title="+page.server.ts">
<path fill="#ddfeff" stroke="black" d="M114,-380C114,-380 46,-380 46,-380 43,-380 40,-377 40,-374 40,-374 40,-368 40,-368 40,-365 43,-362 46,-362 46,-362 114,-362 114,-362 117,-362 120,-365 120,-368 120,-368 120,-374 120,-374 120,-377 117,-380 114,-380"/>
<text text-anchor="start" x="48" y="-368.8" font-family="Helvetica,sans-Serif" font-size="9.00">+page.server.ts</text>
</a>
</g>
</g>
<!-- src/routes/collection/couz/+page.server.ts&#45;&gt;src/lib/BinderStorage/index.ts -->
<g id="edge3" class="edge">
<title>src/routes/collection/couz/+page.server.ts&#45;&gt;src/lib/BinderStorage/index.ts</title>
<path fill="none" stroke="#000000" stroke-opacity="0.200000" d="M120.01,-369.66C159.13,-367.92 221.01,-364.08 274,-356 284.89,-354.34 296.67,-351.86 307.19,-349.4"/>
<polygon fill="none" stroke="#000000" stroke-opacity="0.200000" points="307.87,-351.39 313.22,-347.95 306.89,-347.31 307.87,-351.39"/>
</g>
<!-- src/routes/collection/couz/+page.server.ts&#45;&gt;src/lib/collections/couz.json -->
<g id="edge4" class="edge">
<title>src/routes/collection/couz/+page.server.ts&#45;&gt;src/lib/collections/couz.json</title>
<path fill="none" stroke="#000000" stroke-width="2" stroke-opacity="0.200000" d="M120.26,-375.56C170.95,-381.44 258.3,-391.58 306.01,-397.11"/>
<polygon fill="#000000" fill-opacity="0.200000" stroke="#000000" stroke-width="2" stroke-opacity="0.200000" points="305.98,-399.22 312.19,-397.83 306.47,-395.05 305.98,-399.22"/>
</g>
<!-- src/routes/collection/couz/+page.server.ts&#45;&gt;src/lib/server/ahdb.cards.json -->
<g id="edge5" class="edge">
<title>src/routes/collection/couz/+page.server.ts&#45;&gt;src/lib/server/ahdb.cards.json</title>
<path fill="none" stroke="#000000" stroke-width="2" stroke-opacity="0.200000" d="M117.8,-380.06C121.29,-381.26 124.74,-382.57 128,-384 131.84,-385.69 132.22,-387.18 136,-389 191.5,-415.76 259.65,-437.85 301.31,-450.22"/>
<polygon fill="#000000" fill-opacity="0.200000" stroke="#000000" stroke-width="2" stroke-opacity="0.200000" points="300.91,-452.3 307.26,-451.98 302.1,-448.27 300.91,-452.3"/>
</g>
<!-- src/routes/collection/couz/+page.server.ts&#45;&gt;src/lib/server/ahdb.packs.json -->
<g id="edge6" class="edge">
<title>src/routes/collection/couz/+page.server.ts&#45;&gt;src/lib/server/ahdb.packs.json</title>
<path fill="none" stroke="#000000" stroke-width="2" stroke-opacity="0.200000" d="M120.35,-378.18C123.17,-379.76 125.77,-381.68 128,-384 138.76,-395.19 125.86,-406.25 136,-418 181.61,-470.86 215.65,-454.26 282,-476 286.55,-477.49 291.34,-478.93 296.13,-480.3"/>
<polygon fill="#000000" fill-opacity="0.200000" stroke="#000000" stroke-width="2" stroke-opacity="0.200000" points="295.84,-482.4 302.19,-481.98 296.97,-478.35 295.84,-482.4"/>
</g>
<!-- src/routes/collection/couz/+page.svelte.ts -->
<g id="node13" class="node">
<title>src/routes/collection/couz/+page.svelte.ts</title>
<g id="a_node13"><a xlink:href="src/routes/collection/couz/+page.svelte.ts" xlink:title="+page.svelte.ts">
<path fill="#ddfeff" stroke="black" d="M113.5,-350C113.5,-350 46.5,-350 46.5,-350 43.5,-350 40.5,-347 40.5,-344 40.5,-344 40.5,-338 40.5,-338 40.5,-335 43.5,-332 46.5,-332 46.5,-332 113.5,-332 113.5,-332 116.5,-332 119.5,-335 119.5,-338 119.5,-338 119.5,-344 119.5,-344 119.5,-347 116.5,-350 113.5,-350"/>
<text text-anchor="start" x="48.5" y="-338.8" font-family="Helvetica,sans-Serif" font-size="9.00">+page.svelte.ts</text>
</a>
</g>
</g>
<!-- src/routes/collection/couz/PocketSheet.svelte.ts -->
<g id="node14" class="node">
<title>src/routes/collection/couz/PocketSheet.svelte.ts</title>
<g id="a_node14"><a xlink:href="src/routes/collection/couz/PocketSheet.svelte.ts" xlink:title="PocketSheet.svelte.ts">
<path fill="#ddfeff" stroke="black" d="M243,-350C243,-350 151,-350 151,-350 148,-350 145,-347 145,-344 145,-344 145,-338 145,-338 145,-335 148,-332 151,-332 151,-332 243,-332 243,-332 246,-332 249,-335 249,-338 249,-338 249,-344 249,-344 249,-347 246,-350 243,-350"/>
<text text-anchor="start" x="153" y="-338.8" font-family="Helvetica,sans-Serif" font-size="9.00">PocketSheet.svelte.ts</text>
</a>
</g>
</g>
<!-- src/routes/collection/couz/+page.svelte.ts&#45;&gt;src/routes/collection/couz/PocketSheet.svelte.ts -->
<g id="edge7" class="edge">
<title>src/routes/collection/couz/+page.svelte.ts&#45;&gt;src/routes/collection/couz/PocketSheet.svelte.ts</title>
<path fill="none" stroke="#000000" stroke-width="2" stroke-opacity="0.200000" d="M119.61,-341C125.68,-341 132.07,-341 138.45,-341"/>
<polygon fill="#000000" fill-opacity="0.200000" stroke="#000000" stroke-width="2" stroke-opacity="0.200000" points="138.82,-343.1 144.82,-341 138.82,-338.9 138.82,-343.1"/>
</g>
<!-- src/routes/collection/couz/PocketSheet.svelte.ts&#45;&gt;src/lib/BinderStorage/index.ts -->
<g id="edge8" class="edge">
<title>src/routes/collection/couz/PocketSheet.svelte.ts&#45;&gt;src/lib/BinderStorage/index.ts</title>
<path fill="none" stroke="#000000" stroke-opacity="0.200000" d="M249.08,-341C268.4,-341 289.85,-341 307,-341"/>
<polygon fill="none" stroke="#000000" stroke-opacity="0.200000" points="307.11,-343.1 313.11,-341 307.11,-338.9 307.11,-343.1"/>
</g>
<!-- src/routes/icons/+page.svelte.ts -->
<g id="node15" class="node">
<title>src/routes/icons/+page.svelte.ts</title>
<g id="a_node15"><a xlink:href="src/routes/icons/+page.svelte.ts" xlink:title="+page.svelte.ts">
<path fill="#ddfeff" stroke="black" d="M113.5,-207C113.5,-207 46.5,-207 46.5,-207 43.5,-207 40.5,-204 40.5,-201 40.5,-201 40.5,-195 40.5,-195 40.5,-192 43.5,-189 46.5,-189 46.5,-189 113.5,-189 113.5,-189 116.5,-189 119.5,-192 119.5,-195 119.5,-195 119.5,-201 119.5,-201 119.5,-204 116.5,-207 113.5,-207"/>
<text text-anchor="start" x="48.5" y="-195.8" font-family="Helvetica,sans-Serif" font-size="9.00">+page.svelte.ts</text>
</a>
</g>
</g>
<!-- src/routes/icons/guardian.svg.svelte.ts -->
<g id="node16" class="node">
<title>src/routes/icons/guardian.svg.svelte.ts</title>
<g id="a_node16"><a xlink:href="src/routes/icons/guardian.svg.svelte.ts" xlink:title="guardian.svg.svelte.ts">
<path fill="#ddfeff" stroke="black" d="M244,-132C244,-132 150,-132 150,-132 147,-132 144,-129 144,-126 144,-126 144,-120 144,-120 144,-117 147,-114 150,-114 150,-114 244,-114 244,-114 247,-114 250,-117 250,-120 250,-120 250,-126 250,-126 250,-129 247,-132 244,-132"/>
<text text-anchor="start" x="152" y="-120.8" font-family="Helvetica,sans-Serif" font-size="9.00">guardian.svg.svelte.ts</text>
</a>
</g>
</g>
<!-- src/routes/icons/+page.svelte.ts&#45;&gt;src/routes/icons/guardian.svg.svelte.ts -->
<g id="edge9" class="edge">
<title>src/routes/icons/+page.svelte.ts&#45;&gt;src/routes/icons/guardian.svg.svelte.ts</title>
<path fill="none" stroke="#000000" stroke-width="2" stroke-opacity="0.200000" d="M119.62,-191.47C122.75,-189.76 125.62,-187.64 128,-185 142.21,-169.28 121.6,-153.54 136,-138 136.88,-137.05 137.8,-136.17 138.77,-135.33"/>
<polygon fill="#000000" fill-opacity="0.200000" stroke="#000000" stroke-width="2" stroke-opacity="0.200000" points="140.32,-136.79 143.94,-131.57 137.85,-133.4 140.32,-136.79"/>
</g>
<!-- src/routes/icons/mystic.svg.svelte.ts -->
<g id="node17" class="node">
<title>src/routes/icons/mystic.svg.svelte.ts</title>
<g id="a_node17"><a xlink:href="src/routes/icons/mystic.svg.svelte.ts" xlink:title="mystic.svg.svelte.ts">
<path fill="#ddfeff" stroke="black" d="M238.5,-162C238.5,-162 155.5,-162 155.5,-162 152.5,-162 149.5,-159 149.5,-156 149.5,-156 149.5,-150 149.5,-150 149.5,-147 152.5,-144 155.5,-144 155.5,-144 238.5,-144 238.5,-144 241.5,-144 244.5,-147 244.5,-150 244.5,-150 244.5,-156 244.5,-156 244.5,-159 241.5,-162 238.5,-162"/>
<text text-anchor="start" x="157.5" y="-150.8" font-family="Helvetica,sans-Serif" font-size="9.00">mystic.svg.svelte.ts</text>
</a>
</g>
</g>
<!-- src/routes/icons/+page.svelte.ts&#45;&gt;src/routes/icons/mystic.svg.svelte.ts -->
<g id="edge10" class="edge">
<title>src/routes/icons/+page.svelte.ts&#45;&gt;src/routes/icons/mystic.svg.svelte.ts</title>
<path fill="none" stroke="#000000" stroke-width="2" stroke-opacity="0.200000" d="M119.85,-190.29C122.78,-188.82 125.54,-187.07 128,-185 134.38,-179.62 129.55,-173.3 136,-168 138.36,-166.06 140.95,-164.36 143.67,-162.88"/>
<polygon fill="#000000" fill-opacity="0.200000" stroke="#000000" stroke-width="2" stroke-opacity="0.200000" points="144.91,-164.61 149.42,-160.13 143.1,-160.82 144.91,-164.61"/>
</g>
<!-- src/routes/icons/rogue.svg.svelte.ts -->
<g id="node18" class="node">
<title>src/routes/icons/rogue.svg.svelte.ts</title>
<g id="a_node18"><a xlink:href="src/routes/icons/rogue.svg.svelte.ts" xlink:title="rogue.svg.svelte.ts">
<path fill="#ddfeff" stroke="black" d="M237.5,-192C237.5,-192 156.5,-192 156.5,-192 153.5,-192 150.5,-189 150.5,-186 150.5,-186 150.5,-180 150.5,-180 150.5,-177 153.5,-174 156.5,-174 156.5,-174 237.5,-174 237.5,-174 240.5,-174 243.5,-177 243.5,-180 243.5,-180 243.5,-186 243.5,-186 243.5,-189 240.5,-192 237.5,-192"/>
<text text-anchor="start" x="158.5" y="-180.8" font-family="Helvetica,sans-Serif" font-size="9.00">rogue.svg.svelte.ts</text>
</a>
</g>
</g>
<!-- src/routes/icons/+page.svelte.ts&#45;&gt;src/routes/icons/rogue.svg.svelte.ts -->
<g id="edge11" class="edge">
<title>src/routes/icons/+page.svelte.ts&#45;&gt;src/routes/icons/rogue.svg.svelte.ts</title>
<path fill="none" stroke="#000000" stroke-width="2" stroke-opacity="0.200000" d="M119.61,-192.96C127.41,-191.95 135.73,-190.86 143.91,-189.79"/>
<polygon fill="#000000" fill-opacity="0.200000" stroke="#000000" stroke-width="2" stroke-opacity="0.200000" points="144.44,-191.84 150.12,-188.98 143.9,-187.68 144.44,-191.84"/>
</g>
<!-- src/routes/icons/seeker.svg.svelte.ts -->
<g id="node19" class="node">
<title>src/routes/icons/seeker.svg.svelte.ts</title>
<g id="a_node19"><a xlink:href="src/routes/icons/seeker.svg.svelte.ts" xlink:title="seeker.svg.svelte.ts">
<path fill="#ddfeff" stroke="black" d="M240,-222C240,-222 154,-222 154,-222 151,-222 148,-219 148,-216 148,-216 148,-210 148,-210 148,-207 151,-204 154,-204 154,-204 240,-204 240,-204 243,-204 246,-207 246,-210 246,-210 246,-216 246,-216 246,-219 243,-222 240,-222"/>
<text text-anchor="start" x="156" y="-210.8" font-family="Helvetica,sans-Serif" font-size="9.00">seeker.svg.svelte.ts</text>
</a>
</g>
</g>
<!-- src/routes/icons/+page.svelte.ts&#45;&gt;src/routes/icons/seeker.svg.svelte.ts -->
<g id="edge12" class="edge">
<title>src/routes/icons/+page.svelte.ts&#45;&gt;src/routes/icons/seeker.svg.svelte.ts</title>
<path fill="none" stroke="#000000" stroke-width="2" stroke-opacity="0.200000" d="M119.61,-203.04C126.65,-203.95 134.11,-204.93 141.5,-205.89"/>
<polygon fill="#000000" fill-opacity="0.200000" stroke="#000000" stroke-width="2" stroke-opacity="0.200000" points="141.46,-208 147.68,-206.7 142.01,-203.84 141.46,-208"/>
</g>
<!-- src/routes/icons/SortableSlotsBar.svelte.ts -->
<g id="node20" class="node">
<title>src/routes/icons/SortableSlotsBar.svelte.ts</title>
<g id="a_node20"><a xlink:href="src/routes/icons/SortableSlotsBar.svelte.ts" xlink:title="SortableSlotsBar.svelte.ts">
<path fill="#ddfeff" stroke="black" d="M252,-252C252,-252 142,-252 142,-252 139,-252 136,-249 136,-246 136,-246 136,-240 136,-240 136,-237 139,-234 142,-234 142,-234 252,-234 252,-234 255,-234 258,-237 258,-240 258,-240 258,-246 258,-246 258,-249 255,-252 252,-252"/>
<text text-anchor="start" x="144" y="-240.8" font-family="Helvetica,sans-Serif" font-size="9.00">SortableSlotsBar.svelte.ts</text>
</a>
</g>
</g>
<!-- src/routes/icons/+page.svelte.ts&#45;&gt;src/routes/icons/SortableSlotsBar.svelte.ts -->
<g id="edge13" class="edge">
<title>src/routes/icons/+page.svelte.ts&#45;&gt;src/routes/icons/SortableSlotsBar.svelte.ts</title>
<path fill="none" stroke="#000000" stroke-width="2" stroke-opacity="0.200000" d="M95.45,-207.21C106.26,-213.77 121.61,-222.38 136,-228 139.83,-229.5 143.86,-230.88 147.94,-232.15"/>
<polygon fill="#000000" fill-opacity="0.200000" stroke="#000000" stroke-width="2" stroke-opacity="0.200000" points="147.58,-234.24 153.93,-233.93 148.78,-230.21 147.58,-234.24"/>
</g>
<!-- src/routes/icons/survivor.svg.svelte.ts -->
<g id="node21" class="node">
<title>src/routes/icons/survivor.svg.svelte.ts</title>
<g id="a_node21"><a xlink:href="src/routes/icons/survivor.svg.svelte.ts" xlink:title="survivor.svg.svelte.ts">
<path fill="#ddfeff" stroke="black" d="M241.5,-282C241.5,-282 152.5,-282 152.5,-282 149.5,-282 146.5,-279 146.5,-276 146.5,-276 146.5,-270 146.5,-270 146.5,-267 149.5,-264 152.5,-264 152.5,-264 241.5,-264 241.5,-264 244.5,-264 247.5,-267 247.5,-270 247.5,-270 247.5,-276 247.5,-276 247.5,-279 244.5,-282 241.5,-282"/>
<text text-anchor="start" x="154.5" y="-270.8" font-family="Helvetica,sans-Serif" font-size="9.00">survivor.svg.svelte.ts</text>
</a>
</g>
</g>
<!-- src/routes/icons/+page.svelte.ts&#45;&gt;src/routes/icons/survivor.svg.svelte.ts -->
<g id="edge14" class="edge">
<title>src/routes/icons/+page.svelte.ts&#45;&gt;src/routes/icons/survivor.svg.svelte.ts</title>
<path fill="none" stroke="#000000" stroke-width="2" stroke-opacity="0.200000" d="M86.89,-207.28C95.83,-220.61 114.14,-244.99 136,-258 138.18,-259.3 140.47,-260.48 142.83,-261.57"/>
<polygon fill="#000000" fill-opacity="0.200000" stroke="#000000" stroke-width="2" stroke-opacity="0.200000" points="142.09,-263.54 148.44,-263.91 143.71,-259.66 142.09,-263.54"/>
</g>
<!-- src/routes/packs/+page.server.ts -->
<g id="node22" class="node">
<title>src/routes/packs/+page.server.ts</title>
<g id="a_node22"><a xlink:href="src/routes/packs/+page.server.ts" xlink:title="+page.server.ts">
<path fill="#ddfeff" stroke="black" d="M114,-612C114,-612 46,-612 46,-612 43,-612 40,-609 40,-606 40,-606 40,-600 40,-600 40,-597 43,-594 46,-594 46,-594 114,-594 114,-594 117,-594 120,-597 120,-600 120,-600 120,-606 120,-606 120,-609 117,-612 114,-612"/>
<text text-anchor="start" x="48" y="-600.8" font-family="Helvetica,sans-Serif" font-size="9.00">+page.server.ts</text>
</a>
</g>
</g>
<!-- src/routes/packs/+page.server.ts&#45;&gt;src/lib/server/ahdb.packs.json -->
<g id="edge15" class="edge">
<title>src/routes/packs/+page.server.ts&#45;&gt;src/lib/server/ahdb.packs.json</title>
<path fill="none" stroke="#000000" stroke-width="2" stroke-opacity="0.200000" d="M82.72,-612.23C87.17,-633.21 101.28,-684.27 136,-705 188.66,-736.44 224.69,-741.47 274,-705 306.97,-680.61 330.11,-550.91 337.21,-506.18"/>
<polygon fill="#000000" fill-opacity="0.200000" stroke="#000000" stroke-width="2" stroke-opacity="0.200000" points="339.29,-506.47 338.14,-500.22 335.14,-505.82 339.29,-506.47"/>
</g>
<!-- src/routes/packs/+page.svelte.ts -->
<g id="node23" class="node">
<title>src/routes/packs/+page.svelte.ts</title>
<g id="a_node23"><a xlink:href="src/routes/packs/+page.svelte.ts" xlink:title="no&#45;orphans">
<path fill="#ccffcc" stroke="orange" d="M113.5,-582C113.5,-582 46.5,-582 46.5,-582 43.5,-582 40.5,-579 40.5,-576 40.5,-576 40.5,-570 40.5,-570 40.5,-567 43.5,-564 46.5,-564 46.5,-564 113.5,-564 113.5,-564 116.5,-564 119.5,-567 119.5,-570 119.5,-570 119.5,-576 119.5,-576 119.5,-579 116.5,-582 113.5,-582"/>
<text text-anchor="start" x="48.5" y="-570.8" font-family="Helvetica,sans-Serif" font-size="9.00" fill="orange">+page.svelte.ts</text>
</a>
</g>
</g>
</g>
</svg>
