<?xml version="1.0" encoding="UTF-8" standalone="no"?>
<!DOCTYPE svg PUBLIC "-//W3C//DTD SVG 1.1//EN"
 "http://www.w3.org/Graphics/SVG/1.1/DTD/svg11.dtd">
<!-- Generated by graphviz version 2.50.0 (20211204.2007)
 -->
<!-- Title: dependency&#45;cruiser output Pages: 1 -->
<svg width="516pt" height="356pt"
 viewBox="0.00 0.00 515.50 356.00" xmlns="http://www.w3.org/2000/svg" xmlns:xlink="http://www.w3.org/1999/xlink">
<g id="graph0" class="graph" transform="scale(1 1) rotate(0) translate(4 352)">
<title>dependency&#45;cruiser output</title>
<polygon fill="white" stroke="transparent" points="-4,4 -4,-352 511.5,-352 511.5,4 -4,4"/>
<g id="clust1" class="cluster">
<title>cluster_src</title>
<path fill="#ffffff" stroke="black" stroke-width="2" d="M20,-8C20,-8 491.5,-8 491.5,-8 497.5,-8 503.5,-14 503.5,-20 503.5,-20 503.5,-328 503.5,-328 503.5,-334 497.5,-340 491.5,-340 491.5,-340 20,-340 20,-340 14,-340 8,-334 8,-328 8,-328 8,-20 8,-20 8,-14 14,-8 20,-8"/>
<text text-anchor="middle" x="255.75" y="-328.8" font-family="Helvetica,sans-Serif" font-weight="bold" font-size="9.00">src</text>
</g>
<g id="clust2" class="cluster">
<title>cluster_src/lib</title>
<path fill="#ffffff" stroke="black" stroke-width="2" d="M164,-18C164,-18 483.5,-18 483.5,-18 489.5,-18 495.5,-24 495.5,-30 495.5,-30 495.5,-302 495.5,-302 495.5,-308 489.5,-314 483.5,-314 483.5,-314 164,-314 164,-314 158,-314 152,-308 152,-302 152,-302 152,-30 152,-30 152,-24 158,-18 164,-18"/>
<text text-anchor="middle" x="323.75" y="-302.8" font-family="Helvetica,sans-Serif" font-weight="bold" font-size="9.00">lib</text>
</g>
<g id="clust4" class="cluster">
<title>cluster_src/lib/Components</title>
<path fill="#ffffff" stroke="black" stroke-width="2" d="M174.5,-176C174.5,-176 373.5,-176 373.5,-176 379.5,-176 385.5,-182 385.5,-188 385.5,-188 385.5,-216 385.5,-216 385.5,-222 379.5,-228 373.5,-228 373.5,-228 174.5,-228 174.5,-228 168.5,-228 162.5,-222 162.5,-216 162.5,-216 162.5,-188 162.5,-188 162.5,-182 168.5,-176 174.5,-176"/>
<text text-anchor="middle" x="274" y="-216.8" font-family="Helvetica,sans-Serif" font-weight="bold" font-size="9.00">Components</text>
</g>
<g id="clust6" class="cluster">
<title>cluster_src/lib/ViewModels</title>
<path fill="#ffffff" stroke="black" stroke-width="2" d="M425.5,-198C425.5,-198 471.5,-198 471.5,-198 477.5,-198 483.5,-204 483.5,-210 483.5,-210 483.5,-238 483.5,-238 483.5,-244 477.5,-250 471.5,-250 471.5,-250 425.5,-250 425.5,-250 419.5,-250 413.5,-244 413.5,-238 413.5,-238 413.5,-210 413.5,-210 413.5,-204 419.5,-198 425.5,-198"/>
<text text-anchor="middle" x="448.5" y="-238.8" font-family="Helvetica,sans-Serif" font-weight="bold" font-size="9.00">ViewModels</text>
</g>
<g id="clust5" class="cluster">
<title>cluster_src/lib/Presenters</title>
<path fill="#ffffff" stroke="black" stroke-width="2" d="M281,-236C281,-236 370,-236 370,-236 376,-236 382,-242 382,-248 382,-248 382,-276 382,-276 382,-282 376,-288 370,-288 370,-288 281,-288 281,-288 275,-288 269,-282 269,-276 269,-276 269,-248 269,-248 269,-242 275,-236 281,-236"/>
<text text-anchor="middle" x="325.5" y="-276.8" font-family="Helvetica,sans-Serif" font-weight="bold" font-size="9.00">Presenters</text>
</g>
<g id="clust3" class="cluster">
<title>cluster_src/lib/BinderStorage</title>
<path fill="#ffffff" stroke="black" stroke-width="2" d="M421.5,-82C421.5,-82 475.5,-82 475.5,-82 481.5,-82 487.5,-88 487.5,-94 487.5,-94 487.5,-122 487.5,-122 487.5,-128 481.5,-134 475.5,-134 475.5,-134 421.5,-134 421.5,-134 415.5,-134 409.5,-128 409.5,-122 409.5,-122 409.5,-94 409.5,-94 409.5,-88 415.5,-82 421.5,-82"/>
<text text-anchor="middle" x="448.5" y="-122.8" font-family="Helvetica,sans-Serif" font-weight="bold" font-size="9.00">BinderStorage</text>
</g>
<g id="clust7" class="cluster">
<title>cluster_src/lib/server</title>
<path fill="#ffffff" stroke="black" stroke-width="2" d="M172,-26C172,-26 249,-26 249,-26 255,-26 261,-32 261,-38 261,-38 261,-156 261,-156 261,-162 255,-168 249,-168 249,-168 172,-168 172,-168 166,-168 160,-162 160,-156 160,-156 160,-38 160,-38 160,-32 166,-26 172,-26"/>
<text text-anchor="middle" x="210.5" y="-156.8" font-family="Helvetica,sans-Serif" font-weight="bold" font-size="9.00">server</text>
</g>
<g id="clust8" class="cluster">
<title>cluster_src/lib/server/collection</title>
<path fill="#ffffff" stroke="black" stroke-width="2" d="M186.5,-90C186.5,-90 234.5,-90 234.5,-90 240.5,-90 246.5,-96 246.5,-102 246.5,-102 246.5,-130 246.5,-130 246.5,-136 240.5,-142 234.5,-142 234.5,-142 186.5,-142 186.5,-142 180.5,-142 174.5,-136 174.5,-130 174.5,-130 174.5,-102 174.5,-102 174.5,-96 180.5,-90 186.5,-90"/>
<text text-anchor="middle" x="210.5" y="-130.8" font-family="Helvetica,sans-Serif" font-weight="bold" font-size="9.00">collection</text>
</g>
<g id="clust9" class="cluster">
<title>cluster_src/routes</title>
<path fill="#ffffff" stroke="black" stroke-width="2" d="M28,-57C28,-57 132,-57 132,-57 138,-57 144,-63 144,-69 144,-69 144,-195 144,-195 144,-201 138,-207 132,-207 132,-207 28,-207 28,-207 22,-207 16,-201 16,-195 16,-195 16,-69 16,-69 16,-63 22,-57 28,-57"/>
<text text-anchor="middle" x="80" y="-195.8" font-family="Helvetica,sans-Serif" font-weight="bold" font-size="9.00">routes</text>
</g>
<g id="clust10" class="cluster">
<title>cluster_src/routes/collection</title>
<path fill="#ffffff" stroke="black" stroke-width="2" d="M36,-65C36,-65 124,-65 124,-65 130,-65 136,-71 136,-77 136,-77 136,-169 136,-169 136,-175 130,-181 124,-181 124,-181 36,-181 36,-181 30,-181 24,-175 24,-169 24,-169 24,-77 24,-77 24,-71 30,-65 36,-65"/>
<text text-anchor="middle" x="80" y="-169.8" font-family="Helvetica,sans-Serif" font-weight="bold" font-size="9.00">collection</text>
</g>
<g id="clust11" class="cluster">
<title>cluster_src/routes/collection/couz</title>
<path fill="#ffffff" stroke="black" stroke-width="2" d="M44,-73C44,-73 116,-73 116,-73 122,-73 128,-79 128,-85 128,-85 128,-143 128,-143 128,-149 122,-155 116,-155 116,-155 44,-155 44,-155 38,-155 32,-149 32,-143 32,-143 32,-85 32,-85 32,-79 38,-73 44,-73"/>
<text text-anchor="middle" x="80" y="-143.8" font-family="Helvetica,sans-Serif" font-weight="bold" font-size="9.00">couz</text>
</g>
<!-- src/lib/BinderStorage/index.ts -->
<g id="node1" class="node">
<title>src/lib/BinderStorage/index.ts</title>
<g id="a_node1"><a xlink:href="src/lib/BinderStorage/index.ts" xlink:title="index.ts">
<path fill="#ddfeff" stroke="black" d="M469.5,-108C469.5,-108 427.5,-108 427.5,-108 424.5,-108 421.5,-105 421.5,-102 421.5,-102 421.5,-96 421.5,-96 421.5,-93 424.5,-90 427.5,-90 427.5,-90 469.5,-90 469.5,-90 472.5,-90 475.5,-93 475.5,-96 475.5,-96 475.5,-102 475.5,-102 475.5,-105 472.5,-108 469.5,-108"/>
<text text-anchor="start" x="432.5" y="-96.8" font-family="Helvetica,sans-Serif" font-size="9.00">index.ts</text>
</a>
</g>
</g>
<!-- src/lib/Components/Binder.svelte.ts -->
<g id="node2" class="node">
<title>src/lib/Components/Binder.svelte.ts</title>
<g id="a_node2"><a xlink:href="src/lib/Components/Binder.svelte.ts" xlink:title="Binder.svelte.ts">
<path fill="#ddfeff" stroke="black" d="M244.5,-202C244.5,-202 176.5,-202 176.5,-202 173.5,-202 170.5,-199 170.5,-196 170.5,-196 170.5,-190 170.5,-190 170.5,-187 173.5,-184 176.5,-184 176.5,-184 244.5,-184 244.5,-184 247.5,-184 250.5,-187 250.5,-190 250.5,-190 250.5,-196 250.5,-196 250.5,-199 247.5,-202 244.5,-202"/>
<text text-anchor="start" x="178.5" y="-190.8" font-family="Helvetica,sans-Serif" font-size="9.00">Binder.svelte.ts</text>
</a>
</g>
</g>
<!-- src/lib/Components/PocketSheet.svelte.ts -->
<g id="node3" class="node">
<title>src/lib/Components/PocketSheet.svelte.ts</title>
<g id="a_node3"><a xlink:href="src/lib/Components/PocketSheet.svelte.ts" xlink:title="PocketSheet.svelte.ts">
<path fill="#ddfeff" stroke="black" d="M371.5,-202C371.5,-202 279.5,-202 279.5,-202 276.5,-202 273.5,-199 273.5,-196 273.5,-196 273.5,-190 273.5,-190 273.5,-187 276.5,-184 279.5,-184 279.5,-184 371.5,-184 371.5,-184 374.5,-184 377.5,-187 377.5,-190 377.5,-190 377.5,-196 377.5,-196 377.5,-199 374.5,-202 371.5,-202"/>
<text text-anchor="start" x="281.5" y="-190.8" font-family="Helvetica,sans-Serif" font-size="9.00">PocketSheet.svelte.ts</text>
</a>
</g>
</g>
<!-- src/lib/Components/Binder.svelte.ts&#45;&gt;src/lib/Components/PocketSheet.svelte.ts -->
<g id="edge1" class="edge">
<title>src/lib/Components/Binder.svelte.ts&#45;&gt;src/lib/Components/PocketSheet.svelte.ts</title>
<path fill="none" stroke="#000000" stroke-width="2" stroke-opacity="0.200000" d="M250.7,-193C256.04,-193 261.61,-193 267.18,-193"/>
<polygon fill="#000000" fill-opacity="0.200000" stroke="#000000" stroke-width="2" stroke-opacity="0.200000" points="267.22,-195.1 273.22,-193 267.22,-190.9 267.22,-195.1"/>
</g>
<!-- src/lib/ViewModels/binder.ts -->
<g id="node4" class="node">
<title>src/lib/ViewModels/binder.ts</title>
<g id="a_node4"><a xlink:href="src/lib/ViewModels/binder.ts" xlink:title="binder.ts">
<path fill="#ddfeff" stroke="black" d="M469.5,-224C469.5,-224 427.5,-224 427.5,-224 424.5,-224 421.5,-221 421.5,-218 421.5,-218 421.5,-212 421.5,-212 421.5,-209 424.5,-206 427.5,-206 427.5,-206 469.5,-206 469.5,-206 472.5,-206 475.5,-209 475.5,-212 475.5,-212 475.5,-218 475.5,-218 475.5,-221 472.5,-224 469.5,-224"/>
<text text-anchor="start" x="430" y="-212.8" font-family="Helvetica,sans-Serif" font-size="9.00">binder.ts</text>
</a>
</g>
</g>
<!-- src/lib/Components/Binder.svelte.ts&#45;&gt;src/lib/ViewModels/binder.ts -->
<g id="edge2" class="edge">
<title>src/lib/Components/Binder.svelte.ts&#45;&gt;src/lib/ViewModels/binder.ts</title>
<path fill="none" stroke="#000000" stroke-opacity="0.200000" d="M241.09,-202.02C249.98,-204.38 259.82,-206.64 269,-208 319.54,-215.49 378.96,-216.24 414.89,-215.82"/>
<polygon fill="none" stroke="#000000" stroke-opacity="0.200000" points="415.35,-217.92 421.32,-215.73 415.29,-213.72 415.35,-217.92"/>
</g>
<!-- src/lib/Components/PocketSheet.svelte.ts&#45;&gt;src/lib/ViewModels/binder.ts -->
<g id="edge3" class="edge">
<title>src/lib/Components/PocketSheet.svelte.ts&#45;&gt;src/lib/ViewModels/binder.ts</title>
<path fill="none" stroke="#000000" stroke-opacity="0.200000" d="M376.06,-202.01C389.29,-204.42 403.24,-206.95 415.27,-209.14"/>
<polygon fill="none" stroke="#000000" stroke-opacity="0.200000" points="415.09,-211.24 421.37,-210.25 415.84,-207.11 415.09,-211.24"/>
</g>
<!-- src/lib/Presenters/BinderOutputPort.ts -->
<g id="node5" class="node">
<title>src/lib/Presenters/BinderOutputPort.ts</title>
<g id="a_node5"><a xlink:href="src/lib/Presenters/BinderOutputPort.ts" xlink:title="BinderOutputPort.ts">
<path fill="#ddfeff" stroke="black" d="M368,-262C368,-262 283,-262 283,-262 280,-262 277,-259 277,-256 277,-256 277,-250 277,-250 277,-247 280,-244 283,-244 283,-244 368,-244 368,-244 371,-244 374,-247 374,-250 374,-250 374,-256 374,-256 374,-259 371,-262 368,-262"/>
<text text-anchor="start" x="285" y="-250.8" font-family="Helvetica,sans-Serif" font-size="9.00">BinderOutputPort.ts</text>
</a>
</g>
</g>
<!-- src/lib/Presenters/BinderOutputPort.ts&#45;&gt;src/lib/BinderStorage/index.ts -->
<g id="edge5" class="edge">
<title>src/lib/Presenters/BinderOutputPort.ts&#45;&gt;src/lib/BinderStorage/index.ts</title>
<path fill="none" stroke="#000000" stroke-opacity="0.200000" d="M364.23,-243.89C371.91,-240.74 379.47,-236.55 385.5,-231 403.84,-214.11 430.67,-145.05 442.06,-114.12"/>
<polygon fill="none" stroke="#000000" stroke-opacity="0.200000" points="444.16,-114.48 444.25,-108.12 440.22,-113.04 444.16,-114.48"/>
</g>
<!-- src/lib/Presenters/BinderOutputPort.ts&#45;&gt;src/lib/ViewModels/binder.ts -->
<g id="edge4" class="edge">
<title>src/lib/Presenters/BinderOutputPort.ts&#45;&gt;src/lib/ViewModels/binder.ts</title>
<path fill="none" stroke="#000000" stroke-opacity="0.200000" d="M355.18,-243.99C373.13,-238.36 396.32,-231.07 414.96,-225.22"/>
<polygon fill="none" stroke="#000000" stroke-opacity="0.200000" points="416,-227.09 421.1,-223.29 414.74,-223.09 416,-227.09"/>
</g>
<!-- src/lib/server/ahdb.cards.json -->
<g id="node6" class="node">
<title>src/lib/server/ahdb.cards.json</title>
<g id="a_node6"><a xlink:href="src/lib/server/ahdb.cards.json" xlink:title="ahdb.cards.json">
<path fill="#ffee44" stroke="black" d="M246,-82C246,-82 175,-82 175,-82 172,-82 169,-79 169,-76 169,-76 169,-70 169,-70 169,-67 172,-64 175,-64 175,-64 246,-64 246,-64 249,-64 252,-67 252,-70 252,-70 252,-76 252,-76 252,-79 249,-82 246,-82"/>
<text text-anchor="start" x="177" y="-70.8" font-family="Helvetica,sans-Serif" font-size="9.00">ahdb.cards.json</text>
</a>
</g>
</g>
<!-- src/lib/server/ahdb.packs.json -->
<g id="node7" class="node">
<title>src/lib/server/ahdb.packs.json</title>
<g id="a_node7"><a xlink:href="src/lib/server/ahdb.packs.json" xlink:title="ahdb.packs.json">
<path fill="#ffee44" stroke="black" d="M247,-52C247,-52 174,-52 174,-52 171,-52 168,-49 168,-46 168,-46 168,-40 168,-40 168,-37 171,-34 174,-34 174,-34 247,-34 247,-34 250,-34 253,-37 253,-40 253,-40 253,-46 253,-46 253,-49 250,-52 247,-52"/>
<text text-anchor="start" x="176" y="-40.8" font-family="Helvetica,sans-Serif" font-size="9.00">ahdb.packs.json</text>
</a>
</g>
</g>
<!-- src/lib/server/collection/couz.json -->
<g id="node8" class="node">
<title>src/lib/server/collection/couz.json</title>
<g id="a_node8"><a xlink:href="src/lib/server/collection/couz.json" xlink:title="couz.json">
<path fill="#ffee44" stroke="black" d="M232.5,-116C232.5,-116 188.5,-116 188.5,-116 185.5,-116 182.5,-113 182.5,-110 182.5,-110 182.5,-104 182.5,-104 182.5,-101 185.5,-98 188.5,-98 188.5,-98 232.5,-98 232.5,-98 235.5,-98 238.5,-101 238.5,-104 238.5,-104 238.5,-110 238.5,-110 238.5,-113 235.5,-116 232.5,-116"/>
<text text-anchor="start" x="190.5" y="-104.8" font-family="Helvetica,sans-Serif" font-size="9.00">couz.json</text>
</a>
</g>
</g>
<!-- src/routes/collection/couz/+page.server.ts -->
<g id="node9" class="node">
<title>src/routes/collection/couz/+page.server.ts</title>
<g id="a_node9"><a xlink:href="src/routes/collection/couz/+page.server.ts" xlink:title="+page.server.ts">
<path fill="#ddfeff" stroke="black" d="M114,-99C114,-99 46,-99 46,-99 43,-99 40,-96 40,-93 40,-93 40,-87 40,-87 40,-84 43,-81 46,-81 46,-81 114,-81 114,-81 117,-81 120,-84 120,-87 120,-87 120,-93 120,-93 120,-96 117,-99 114,-99"/>
<text text-anchor="start" x="48" y="-87.8" font-family="Helvetica,sans-Serif" font-size="9.00">+page.server.ts</text>
</a>
</g>
</g>
<!-- src/routes/collection/couz/+page.server.ts&#45;&gt;src/lib/BinderStorage/index.ts -->
<g id="edge6" class="edge">
<title>src/routes/collection/couz/+page.server.ts&#45;&gt;src/lib/BinderStorage/index.ts</title>
<path fill="none" stroke="#000000" stroke-opacity="0.200000" d="M87.1,-80.82C97.98,-65.38 122.39,-34.77 152,-23 197.02,-5.11 213.46,-13.69 261,-23 323.6,-35.27 391.7,-68.65 425.66,-86.82"/>
<polygon fill="none" stroke="#000000" stroke-opacity="0.200000" points="424.93,-88.81 431.21,-89.81 426.92,-85.12 424.93,-88.81"/>
</g>
<!-- src/routes/collection/couz/+page.server.ts&#45;&gt;src/lib/server/ahdb.cards.json -->
<g id="edge7" class="edge">
<title>src/routes/collection/couz/+page.server.ts&#45;&gt;src/lib/server/ahdb.cards.json</title>
<path fill="none" stroke="#000000" stroke-width="2" stroke-opacity="0.200000" d="M120.25,-84.81C133.57,-83.05 148.57,-81.06 162.43,-79.23"/>
<polygon fill="#000000" fill-opacity="0.200000" stroke="#000000" stroke-width="2" stroke-opacity="0.200000" points="163.04,-81.27 168.71,-78.4 162.49,-77.1 163.04,-81.27"/>
</g>
<!-- src/routes/collection/couz/+page.server.ts&#45;&gt;src/lib/server/ahdb.packs.json -->
<g id="edge8" class="edge">
<title>src/routes/collection/couz/+page.server.ts&#45;&gt;src/lib/server/ahdb.packs.json</title>
<path fill="none" stroke="#000000" stroke-width="2" stroke-opacity="0.200000" d="M98.75,-80.99C112.91,-74.05 133.39,-64.57 152,-58 156.31,-56.48 160.85,-55.04 165.41,-53.69"/>
<polygon fill="#000000" fill-opacity="0.200000" stroke="#000000" stroke-width="2" stroke-opacity="0.200000" points="165.99,-55.7 171.18,-52.03 164.84,-51.67 165.99,-55.7"/>
</g>
<!-- src/routes/collection/couz/+page.server.ts&#45;&gt;src/lib/server/collection/couz.json -->
<g id="edge9" class="edge">
<title>src/routes/collection/couz/+page.server.ts&#45;&gt;src/lib/server/collection/couz.json</title>
<path fill="none" stroke="#000000" stroke-width="2" stroke-opacity="0.200000" d="M120.25,-95.19C138.13,-97.56 159.07,-100.33 176.17,-102.59"/>
<polygon fill="#000000" fill-opacity="0.200000" stroke="#000000" stroke-width="2" stroke-opacity="0.200000" points="176.06,-104.69 182.29,-103.4 176.62,-100.53 176.06,-104.69"/>
</g>
<!-- src/routes/collection/couz/+page.svelte.ts -->
<g id="node10" class="node">
<title>src/routes/collection/couz/+page.svelte.ts</title>
<g id="a_node10"><a xlink:href="src/routes/collection/couz/+page.svelte.ts" xlink:title="+page.svelte.ts">
<path fill="#ddfeff" stroke="black" d="M113.5,-129C113.5,-129 46.5,-129 46.5,-129 43.5,-129 40.5,-126 40.5,-123 40.5,-123 40.5,-117 40.5,-117 40.5,-114 43.5,-111 46.5,-111 46.5,-111 113.5,-111 113.5,-111 116.5,-111 119.5,-114 119.5,-117 119.5,-117 119.5,-123 119.5,-123 119.5,-126 116.5,-129 113.5,-129"/>
<text text-anchor="start" x="48.5" y="-117.8" font-family="Helvetica,sans-Serif" font-size="9.00">+page.svelte.ts</text>
</a>
</g>
</g>
<!-- src/routes/collection/couz/+page.svelte.ts&#45;&gt;src/lib/Components/Binder.svelte.ts -->
<g id="edge10" class="edge">
<title>src/routes/collection/couz/+page.svelte.ts&#45;&gt;src/lib/Components/Binder.svelte.ts</title>
<path fill="none" stroke="#000000" stroke-width="2" stroke-opacity="0.200000" d="M97.01,-129.1C119.91,-142.1 162.05,-166.05 187.75,-180.64"/>
<polygon fill="#000000" fill-opacity="0.200000" stroke="#000000" stroke-width="2" stroke-opacity="0.200000" points="187.03,-182.65 193.28,-183.79 189.1,-179 187.03,-182.65"/>
</g>
<!-- src/routes/collection/couz/+page.svelte.ts&#45;&gt;src/lib/Presenters/BinderOutputPort.ts -->
<g id="edge11" class="edge">
<title>src/routes/collection/couz/+page.svelte.ts&#45;&gt;src/lib/Presenters/BinderOutputPort.ts</title>
<path fill="none" stroke="#000000" stroke-width="2" stroke-opacity="0.200000" d="M83.82,-129.11C91.11,-150.92 112.76,-206.16 152,-231 187.21,-253.28 234.59,-257.94 270.79,-257.49"/>
<polygon fill="#000000" fill-opacity="0.200000" stroke="#000000" stroke-width="2" stroke-opacity="0.200000" points="271,-259.58 276.95,-257.36 270.91,-255.39 271,-259.58"/>
</g>
</g>
</svg>
