<?xml version="1.0" encoding="UTF-8" standalone="no"?>
<!DOCTYPE svg PUBLIC "-//W3C//DTD SVG 1.1//EN"
 "http://www.w3.org/Graphics/SVG/1.1/DTD/svg11.dtd">
<!-- Generated by graphviz version 2.50.0 (20211204.2007)
 -->
<!-- Title: dependency&#45;cruiser output Pages: 1 -->
<svg width="423pt" height="710pt"
 viewBox="0.00 0.00 423.00 710.00" xmlns="http://www.w3.org/2000/svg" xmlns:xlink="http://www.w3.org/1999/xlink">
<g id="graph0" class="graph" transform="scale(1 1) rotate(0) translate(4 706)">
<title>dependency&#45;cruiser output</title>
<polygon fill="white" stroke="transparent" points="-4,4 -4,-706 419,-706 419,4 -4,4"/>
<g id="clust1" class="cluster">
<title>cluster_src</title>
<path fill="#ffffff" stroke="black" stroke-width="2" d="M20,-8C20,-8 395,-8 395,-8 401,-8 407,-14 407,-20 407,-20 407,-682 407,-682 407,-688 401,-694 395,-694 395,-694 20,-694 20,-694 14,-694 8,-688 8,-682 8,-682 8,-20 8,-20 8,-14 14,-8 20,-8"/>
<text text-anchor="middle" x="207.5" y="-682.8" font-family="Helvetica,sans-Serif" font-weight="bold" font-size="9.00">src</text>
</g>
<g id="clust2" class="cluster">
<title>cluster_src/lib</title>
<path fill="#ffffff" stroke="black" stroke-width="2" d="M294,-346C294,-346 387,-346 387,-346 393,-346 399,-352 399,-358 399,-358 399,-566 399,-566 399,-572 393,-578 387,-578 387,-578 294,-578 294,-578 288,-578 282,-572 282,-566 282,-566 282,-358 282,-358 282,-352 288,-346 294,-346"/>
<text text-anchor="middle" x="340.5" y="-566.8" font-family="Helvetica,sans-Serif" font-weight="bold" font-size="9.00">lib</text>
</g>
<g id="clust4" class="cluster">
<title>cluster_src/lib/server</title>
<path fill="#ffffff" stroke="black" stroke-width="2" d="M302,-414C302,-414 379,-414 379,-414 385,-414 391,-420 391,-426 391,-426 391,-540 391,-540 391,-546 385,-552 379,-552 379,-552 302,-552 302,-552 296,-552 290,-546 290,-540 290,-540 290,-426 290,-426 290,-420 296,-414 302,-414"/>
<text text-anchor="middle" x="340.5" y="-540.8" font-family="Helvetica,sans-Serif" font-weight="bold" font-size="9.00">server</text>
</g>
<g id="clust5" class="cluster">
<title>cluster_src/lib/server/collection</title>
<path fill="#ffffff" stroke="black" stroke-width="2" d="M316.5,-448C316.5,-448 364.5,-448 364.5,-448 370.5,-448 376.5,-454 376.5,-460 376.5,-460 376.5,-488 376.5,-488 376.5,-494 370.5,-500 364.5,-500 364.5,-500 316.5,-500 316.5,-500 310.5,-500 304.5,-494 304.5,-488 304.5,-488 304.5,-460 304.5,-460 304.5,-454 310.5,-448 316.5,-448"/>
<text text-anchor="middle" x="340.5" y="-488.8" font-family="Helvetica,sans-Serif" font-weight="bold" font-size="9.00">collection</text>
</g>
<g id="clust3" class="cluster">
<title>cluster_src/lib/BinderStorage</title>
<path fill="#ffffff" stroke="black" stroke-width="2" d="M313.5,-354C313.5,-354 367.5,-354 367.5,-354 373.5,-354 379.5,-360 379.5,-366 379.5,-366 379.5,-394 379.5,-394 379.5,-400 373.5,-406 367.5,-406 367.5,-406 313.5,-406 313.5,-406 307.5,-406 301.5,-400 301.5,-394 301.5,-394 301.5,-366 301.5,-366 301.5,-360 307.5,-354 313.5,-354"/>
<text text-anchor="middle" x="340.5" y="-394.8" font-family="Helvetica,sans-Serif" font-weight="bold" font-size="9.00">BinderStorage</text>
</g>
<g id="clust6" class="cluster">
<title>cluster_src/routes</title>
<path fill="#ffffff" stroke="black" stroke-width="2" d="M28,-72C28,-72 262,-72 262,-72 268,-72 274,-78 274,-84 274,-84 274,-656 274,-656 274,-662 268,-668 262,-668 262,-668 28,-668 28,-668 22,-668 16,-662 16,-656 16,-656 16,-84 16,-84 16,-78 22,-72 28,-72"/>
<text text-anchor="middle" x="145" y="-656.8" font-family="Helvetica,sans-Serif" font-weight="bold" font-size="9.00">routes</text>
</g>
<g id="clust7" class="cluster">
<title>cluster_src/routes/cards</title>
<path fill="#ffffff" stroke="black" stroke-width="2" d="M44,-470C44,-470 116,-470 116,-470 122,-470 128,-476 128,-482 128,-482 128,-540 128,-540 128,-546 122,-552 116,-552 116,-552 44,-552 44,-552 38,-552 32,-546 32,-540 32,-540 32,-482 32,-482 32,-476 38,-470 44,-470"/>
<text text-anchor="middle" x="80" y="-540.8" font-family="Helvetica,sans-Serif" font-weight="bold" font-size="9.00">cards</text>
</g>
<g id="clust8" class="cluster">
<title>cluster_src/routes/collection</title>
<path fill="#ffffff" stroke="black" stroke-width="2" d="M36,-346C36,-346 253,-346 253,-346 259,-346 265,-352 265,-358 265,-358 265,-450 265,-450 265,-456 259,-462 253,-462 253,-462 36,-462 36,-462 30,-462 24,-456 24,-450 24,-450 24,-358 24,-358 24,-352 30,-346 36,-346"/>
<text text-anchor="middle" x="144.5" y="-450.8" font-family="Helvetica,sans-Serif" font-weight="bold" font-size="9.00">collection</text>
</g>
<g id="clust9" class="cluster">
<title>cluster_src/routes/collection/couz</title>
<path fill="#ffffff" stroke="black" stroke-width="2" d="M44,-354C44,-354 245,-354 245,-354 251,-354 257,-360 257,-366 257,-366 257,-424 257,-424 257,-430 251,-436 245,-436 245,-436 44,-436 44,-436 38,-436 32,-430 32,-424 32,-424 32,-366 32,-366 32,-360 38,-354 44,-354"/>
<text text-anchor="middle" x="144.5" y="-424.8" font-family="Helvetica,sans-Serif" font-weight="bold" font-size="9.00">couz</text>
</g>
<g id="clust10" class="cluster">
<title>cluster_src/routes/icons</title>
<path fill="#ffffff" stroke="black" stroke-width="2" d="M44.5,-136C44.5,-136 254,-136 254,-136 260,-136 266,-142 266,-148 266,-148 266,-326 266,-326 266,-332 260,-338 254,-338 254,-338 44.5,-338 44.5,-338 38.5,-338 32.5,-332 32.5,-326 32.5,-326 32.5,-148 32.5,-148 32.5,-142 38.5,-136 44.5,-136"/>
<text text-anchor="middle" x="149.25" y="-326.8" font-family="Helvetica,sans-Serif" font-weight="bold" font-size="9.00">icons</text>
</g>
<g id="clust11" class="cluster">
<title>cluster_src/routes/packs</title>
<path fill="#ffffff" stroke="black" stroke-width="2" d="M44,-560C44,-560 116,-560 116,-560 122,-560 128,-566 128,-572 128,-572 128,-630 128,-630 128,-636 122,-642 116,-642 116,-642 44,-642 44,-642 38,-642 32,-636 32,-630 32,-630 32,-572 32,-572 32,-566 38,-560 44,-560"/>
<text text-anchor="middle" x="80" y="-630.8" font-family="Helvetica,sans-Serif" font-weight="bold" font-size="9.00">packs</text>
</g>
<!-- src/app.d.ts -->
<g id="node1" class="node">
<title>src/app.d.ts</title>
<g id="a_node1"><a xlink:href="src/app.d.ts" xlink:title="app.d.ts">
<path fill="#ccffcc" stroke="black" d="M101,-64C101,-64 59,-64 59,-64 56,-64 53,-61 53,-58 53,-58 53,-52 53,-52 53,-49 56,-46 59,-46 59,-46 101,-46 101,-46 104,-46 107,-49 107,-52 107,-52 107,-58 107,-58 107,-61 104,-64 101,-64"/>
<text text-anchor="start" x="63" y="-52.8" font-family="Helvetica,sans-Serif" font-size="9.00">app.d.ts</text>
</a>
</g>
</g>
<!-- src/index.test.ts -->
<g id="node2" class="node">
<title>src/index.test.ts</title>
<g id="a_node2"><a xlink:href="src/index.test.ts" xlink:title="no&#45;orphans">
<path fill="#ccffcc" stroke="orange" d="M106.5,-34C106.5,-34 53.5,-34 53.5,-34 50.5,-34 47.5,-31 47.5,-28 47.5,-28 47.5,-22 47.5,-22 47.5,-19 50.5,-16 53.5,-16 53.5,-16 106.5,-16 106.5,-16 109.5,-16 112.5,-19 112.5,-22 112.5,-22 112.5,-28 112.5,-28 112.5,-31 109.5,-34 106.5,-34"/>
<text text-anchor="start" x="55.5" y="-22.8" font-family="Helvetica,sans-Serif" font-size="9.00" fill="orange">index.test.ts</text>
</a>
</g>
</g>
<!-- src/lib/BinderStorage/index.ts -->
<g id="node3" class="node">
<title>src/lib/BinderStorage/index.ts</title>
<g id="a_node3"><a xlink:href="src/lib/BinderStorage/index.ts" xlink:title="index.ts">
<path fill="#ddfeff" stroke="black" d="M361.5,-380C361.5,-380 319.5,-380 319.5,-380 316.5,-380 313.5,-377 313.5,-374 313.5,-374 313.5,-368 313.5,-368 313.5,-365 316.5,-362 319.5,-362 319.5,-362 361.5,-362 361.5,-362 364.5,-362 367.5,-365 367.5,-368 367.5,-368 367.5,-374 367.5,-374 367.5,-377 364.5,-380 361.5,-380"/>
<text text-anchor="start" x="324.5" y="-368.8" font-family="Helvetica,sans-Serif" font-size="9.00">index.ts</text>
</a>
</g>
</g>
<!-- src/lib/server/ahdb.cards.json -->
<g id="node4" class="node">
<title>src/lib/server/ahdb.cards.json</title>
<g id="a_node4"><a xlink:href="src/lib/server/ahdb.cards.json" xlink:title="ahdb.cards.json">
<path fill="#ffee44" stroke="black" d="M376,-440C376,-440 305,-440 305,-440 302,-440 299,-437 299,-434 299,-434 299,-428 299,-428 299,-425 302,-422 305,-422 305,-422 376,-422 376,-422 379,-422 382,-425 382,-428 382,-428 382,-434 382,-434 382,-437 379,-440 376,-440"/>
<text text-anchor="start" x="307" y="-428.8" font-family="Helvetica,sans-Serif" font-size="9.00">ahdb.cards.json</text>
</a>
</g>
</g>
<!-- src/lib/server/ahdb.packs.json -->
<g id="node5" class="node">
<title>src/lib/server/ahdb.packs.json</title>
<g id="a_node5"><a xlink:href="src/lib/server/ahdb.packs.json" xlink:title="ahdb.packs.json">
<path fill="#ffee44" stroke="black" d="M377,-526C377,-526 304,-526 304,-526 301,-526 298,-523 298,-520 298,-520 298,-514 298,-514 298,-511 301,-508 304,-508 304,-508 377,-508 377,-508 380,-508 383,-511 383,-514 383,-514 383,-520 383,-520 383,-523 380,-526 377,-526"/>
<text text-anchor="start" x="306" y="-514.8" font-family="Helvetica,sans-Serif" font-size="9.00">ahdb.packs.json</text>
</a>
</g>
</g>
<!-- src/lib/server/collection/couz.json -->
<g id="node6" class="node">
<title>src/lib/server/collection/couz.json</title>
<g id="a_node6"><a xlink:href="src/lib/server/collection/couz.json" xlink:title="couz.json">
<path fill="#ffee44" stroke="black" d="M362.5,-474C362.5,-474 318.5,-474 318.5,-474 315.5,-474 312.5,-471 312.5,-468 312.5,-468 312.5,-462 312.5,-462 312.5,-459 315.5,-456 318.5,-456 318.5,-456 362.5,-456 362.5,-456 365.5,-456 368.5,-459 368.5,-462 368.5,-462 368.5,-468 368.5,-468 368.5,-471 365.5,-474 362.5,-474"/>
<text text-anchor="start" x="320.5" y="-462.8" font-family="Helvetica,sans-Serif" font-size="9.00">couz.json</text>
</a>
</g>
</g>
<!-- src/routes/+layout.svelte.ts -->
<g id="node7" class="node">
<title>src/routes/+layout.svelte.ts</title>
<g id="a_node7"><a xlink:href="src/routes/+layout.svelte.ts" xlink:title="+layout.svelte.ts">
<path fill="#ddfeff" stroke="black" d="M115,-128C115,-128 45,-128 45,-128 42,-128 39,-125 39,-122 39,-122 39,-116 39,-116 39,-113 42,-110 45,-110 45,-110 115,-110 115,-110 118,-110 121,-113 121,-116 121,-116 121,-122 121,-122 121,-125 118,-128 115,-128"/>
<text text-anchor="start" x="47" y="-116.8" font-family="Helvetica,sans-Serif" font-size="9.00">+layout.svelte.ts</text>
</a>
</g>
</g>
<!-- src/routes/app.css -->
<g id="node8" class="node">
<title>src/routes/app.css</title>
<g id="a_node8"><a xlink:href="src/routes/app.css" xlink:title="app.css">
<path fill="#ffffcc" stroke="black" d="M218,-128C218,-128 176,-128 176,-128 173,-128 170,-125 170,-122 170,-122 170,-116 170,-116 170,-113 173,-110 176,-110 176,-110 218,-110 218,-110 221,-110 224,-113 224,-116 224,-116 224,-122 224,-122 224,-125 221,-128 218,-128"/>
<text text-anchor="start" x="180" y="-116.8" font-family="Helvetica,sans-Serif" font-size="9.00">app.css</text>
</a>
</g>
</g>
<!-- src/routes/+layout.svelte.ts&#45;&gt;src/routes/app.css -->
<g id="edge1" class="edge">
<title>src/routes/+layout.svelte.ts&#45;&gt;src/routes/app.css</title>
<path fill="none" stroke="#000000" stroke-width="2" stroke-opacity="0.200000" d="M121.22,-119C135.03,-119 150.29,-119 163.42,-119"/>
<polygon fill="#000000" fill-opacity="0.200000" stroke="#000000" stroke-width="2" stroke-opacity="0.200000" points="163.67,-121.1 169.67,-119 163.67,-116.9 163.67,-121.1"/>
</g>
<!-- src/routes/+page.svelte.ts -->
<g id="node9" class="node">
<title>src/routes/+page.svelte.ts</title>
<g id="a_node9"><a xlink:href="src/routes/+page.svelte.ts" xlink:title="no&#45;orphans">
<path fill="#ccffcc" stroke="orange" d="M113.5,-98C113.5,-98 46.5,-98 46.5,-98 43.5,-98 40.5,-95 40.5,-92 40.5,-92 40.5,-86 40.5,-86 40.5,-83 43.5,-80 46.5,-80 46.5,-80 113.5,-80 113.5,-80 116.5,-80 119.5,-83 119.5,-86 119.5,-86 119.5,-92 119.5,-92 119.5,-95 116.5,-98 113.5,-98"/>
<text text-anchor="start" x="48.5" y="-86.8" font-family="Helvetica,sans-Serif" font-size="9.00" fill="orange">+page.svelte.ts</text>
</a>
</g>
</g>
<!-- src/routes/cards/+page.server.ts -->
<g id="node10" class="node">
<title>src/routes/cards/+page.server.ts</title>
<g id="a_node10"><a xlink:href="src/routes/cards/+page.server.ts" xlink:title="+page.server.ts">
<path fill="#ddfeff" stroke="black" d="M114,-526C114,-526 46,-526 46,-526 43,-526 40,-523 40,-520 40,-520 40,-514 40,-514 40,-511 43,-508 46,-508 46,-508 114,-508 114,-508 117,-508 120,-511 120,-514 120,-514 120,-520 120,-520 120,-523 117,-526 114,-526"/>
<text text-anchor="start" x="48" y="-514.8" font-family="Helvetica,sans-Serif" font-size="9.00">+page.server.ts</text>
</a>
</g>
</g>
<!-- src/routes/cards/+page.server.ts&#45;&gt;src/lib/server/ahdb.cards.json -->
<g id="edge2" class="edge">
<title>src/routes/cards/+page.server.ts&#45;&gt;src/lib/server/ahdb.cards.json</title>
<path fill="none" stroke="#000000" stroke-width="2" stroke-opacity="0.200000" d="M110.15,-507.92C116.07,-506.02 122.25,-503.98 128,-502 197,-478.23 212.21,-466.33 282,-445 285.83,-443.83 289.82,-442.69 293.85,-441.6"/>
<polygon fill="#000000" fill-opacity="0.200000" stroke="#000000" stroke-width="2" stroke-opacity="0.200000" points="294.48,-443.61 299.74,-440.04 293.41,-439.55 294.48,-443.61"/>
</g>
<!-- src/routes/cards/+page.svelte.ts -->
<g id="node11" class="node">
<title>src/routes/cards/+page.svelte.ts</title>
<g id="a_node11"><a xlink:href="src/routes/cards/+page.svelte.ts" xlink:title="no&#45;orphans">
<path fill="#ccffcc" stroke="orange" d="M113.5,-496C113.5,-496 46.5,-496 46.5,-496 43.5,-496 40.5,-493 40.5,-490 40.5,-490 40.5,-484 40.5,-484 40.5,-481 43.5,-478 46.5,-478 46.5,-478 113.5,-478 113.5,-478 116.5,-478 119.5,-481 119.5,-484 119.5,-484 119.5,-490 119.5,-490 119.5,-493 116.5,-496 113.5,-496"/>
<text text-anchor="start" x="48.5" y="-484.8" font-family="Helvetica,sans-Serif" font-size="9.00" fill="orange">+page.svelte.ts</text>
</a>
</g>
</g>
<!-- src/routes/collection/couz/+page.server.ts -->
<g id="node12" class="node">
<title>src/routes/collection/couz/+page.server.ts</title>
<g id="a_node12"><a xlink:href="src/routes/collection/couz/+page.server.ts" xlink:title="+page.server.ts">
<path fill="#ddfeff" stroke="black" d="M114,-410C114,-410 46,-410 46,-410 43,-410 40,-407 40,-404 40,-404 40,-398 40,-398 40,-395 43,-392 46,-392 46,-392 114,-392 114,-392 117,-392 120,-395 120,-398 120,-398 120,-404 120,-404 120,-407 117,-410 114,-410"/>
<text text-anchor="start" x="48" y="-398.8" font-family="Helvetica,sans-Serif" font-size="9.00">+page.server.ts</text>
</a>
</g>
</g>
<!-- src/routes/collection/couz/+page.server.ts&#45;&gt;src/lib/BinderStorage/index.ts -->
<g id="edge3" class="edge">
<title>src/routes/collection/couz/+page.server.ts&#45;&gt;src/lib/BinderStorage/index.ts</title>
<path fill="none" stroke="#000000" stroke-opacity="0.200000" d="M120.01,-399.66C159.13,-397.92 221.01,-394.08 274,-386 284.89,-384.34 296.67,-381.86 307.19,-379.4"/>
<polygon fill="none" stroke="#000000" stroke-opacity="0.200000" points="307.87,-381.39 313.22,-377.95 306.89,-377.31 307.87,-381.39"/>
</g>
<!-- src/routes/collection/couz/+page.server.ts&#45;&gt;src/lib/server/ahdb.cards.json -->
<g id="edge4" class="edge">
<title>src/routes/collection/couz/+page.server.ts&#45;&gt;src/lib/server/ahdb.cards.json</title>
<path fill="none" stroke="#000000" stroke-width="2" stroke-opacity="0.200000" d="M120.26,-405.56C166.45,-410.92 243.07,-419.81 292.41,-425.54"/>
<polygon fill="#000000" fill-opacity="0.200000" stroke="#000000" stroke-width="2" stroke-opacity="0.200000" points="292.38,-427.65 298.59,-426.25 292.87,-423.47 292.38,-427.65"/>
</g>
<!-- src/routes/collection/couz/+page.server.ts&#45;&gt;src/lib/server/ahdb.packs.json -->
<g id="edge5" class="edge">
<title>src/routes/collection/couz/+page.server.ts&#45;&gt;src/lib/server/ahdb.packs.json</title>
<path fill="none" stroke="#000000" stroke-width="2" stroke-opacity="0.200000" d="M92.8,-410.14C103.66,-418.31 120.39,-430.29 136,-439 197.87,-473.52 214.88,-480.31 282,-503 285.37,-504.14 288.87,-505.22 292.42,-506.25"/>
<polygon fill="#000000" fill-opacity="0.200000" stroke="#000000" stroke-width="2" stroke-opacity="0.200000" points="292.07,-508.33 298.41,-507.92 293.2,-504.29 292.07,-508.33"/>
</g>
<!-- src/routes/collection/couz/+page.server.ts&#45;&gt;src/lib/server/collection/couz.json -->
<g id="edge6" class="edge">
<title>src/routes/collection/couz/+page.server.ts&#45;&gt;src/lib/server/collection/couz.json</title>
<path fill="none" stroke="#000000" stroke-width="2" stroke-opacity="0.200000" d="M106.87,-410.02C116.01,-413.06 126.41,-416.35 136,-419 195.45,-435.41 265.83,-450.34 306.31,-458.5"/>
<polygon fill="#000000" fill-opacity="0.200000" stroke="#000000" stroke-width="2" stroke-opacity="0.200000" points="306.01,-460.58 312.31,-459.7 306.84,-456.46 306.01,-460.58"/>
</g>
<!-- src/routes/collection/couz/+page.svelte.ts -->
<g id="node13" class="node">
<title>src/routes/collection/couz/+page.svelte.ts</title>
<g id="a_node13"><a xlink:href="src/routes/collection/couz/+page.svelte.ts" xlink:title="+page.svelte.ts">
<path fill="#ddfeff" stroke="black" d="M113.5,-380C113.5,-380 46.5,-380 46.5,-380 43.5,-380 40.5,-377 40.5,-374 40.5,-374 40.5,-368 40.5,-368 40.5,-365 43.5,-362 46.5,-362 46.5,-362 113.5,-362 113.5,-362 116.5,-362 119.5,-365 119.5,-368 119.5,-368 119.5,-374 119.5,-374 119.5,-377 116.5,-380 113.5,-380"/>
<text text-anchor="start" x="48.5" y="-368.8" font-family="Helvetica,sans-Serif" font-size="9.00">+page.svelte.ts</text>
</a>
</g>
</g>
<!-- src/routes/collection/couz/PocketSheet.svelte.ts -->
<g id="node14" class="node">
<title>src/routes/collection/couz/PocketSheet.svelte.ts</title>
<g id="a_node14"><a xlink:href="src/routes/collection/couz/PocketSheet.svelte.ts" xlink:title="PocketSheet.svelte.ts">
<path fill="#ddfeff" stroke="black" d="M243,-380C243,-380 151,-380 151,-380 148,-380 145,-377 145,-374 145,-374 145,-368 145,-368 145,-365 148,-362 151,-362 151,-362 243,-362 243,-362 246,-362 249,-365 249,-368 249,-368 249,-374 249,-374 249,-377 246,-380 243,-380"/>
<text text-anchor="start" x="153" y="-368.8" font-family="Helvetica,sans-Serif" font-size="9.00">PocketSheet.svelte.ts</text>
</a>
</g>
</g>
<!-- src/routes/collection/couz/+page.svelte.ts&#45;&gt;src/routes/collection/couz/PocketSheet.svelte.ts -->
<g id="edge7" class="edge">
<title>src/routes/collection/couz/+page.svelte.ts&#45;&gt;src/routes/collection/couz/PocketSheet.svelte.ts</title>
<path fill="none" stroke="#000000" stroke-width="2" stroke-opacity="0.200000" d="M119.61,-371C125.68,-371 132.07,-371 138.45,-371"/>
<polygon fill="#000000" fill-opacity="0.200000" stroke="#000000" stroke-width="2" stroke-opacity="0.200000" points="138.82,-373.1 144.82,-371 138.82,-368.9 138.82,-373.1"/>
</g>
<!-- src/routes/collection/couz/PocketSheet.svelte.ts&#45;&gt;src/lib/BinderStorage/index.ts -->
<g id="edge8" class="edge">
<title>src/routes/collection/couz/PocketSheet.svelte.ts&#45;&gt;src/lib/BinderStorage/index.ts</title>
<path fill="none" stroke="#000000" stroke-opacity="0.200000" d="M249.08,-371C268.4,-371 289.85,-371 307,-371"/>
<polygon fill="none" stroke="#000000" stroke-opacity="0.200000" points="307.11,-373.1 313.11,-371 307.11,-368.9 307.11,-373.1"/>
</g>
<!-- src/routes/icons/+page.svelte.ts -->
<g id="node15" class="node">
<title>src/routes/icons/+page.svelte.ts</title>
<g id="a_node15"><a xlink:href="src/routes/icons/+page.svelte.ts" xlink:title="+page.svelte.ts">
<path fill="#ddfeff" stroke="black" d="M113.5,-237C113.5,-237 46.5,-237 46.5,-237 43.5,-237 40.5,-234 40.5,-231 40.5,-231 40.5,-225 40.5,-225 40.5,-222 43.5,-219 46.5,-219 46.5,-219 113.5,-219 113.5,-219 116.5,-219 119.5,-222 119.5,-225 119.5,-225 119.5,-231 119.5,-231 119.5,-234 116.5,-237 113.5,-237"/>
<text text-anchor="start" x="48.5" y="-225.8" font-family="Helvetica,sans-Serif" font-size="9.00">+page.svelte.ts</text>
</a>
</g>
</g>
<!-- src/routes/icons/guardian.svg.svelte.ts -->
<g id="node16" class="node">
<title>src/routes/icons/guardian.svg.svelte.ts</title>
<g id="a_node16"><a xlink:href="src/routes/icons/guardian.svg.svelte.ts" xlink:title="guardian.svg.svelte.ts">
<path fill="#ddfeff" stroke="black" d="M244,-162C244,-162 150,-162 150,-162 147,-162 144,-159 144,-156 144,-156 144,-150 144,-150 144,-147 147,-144 150,-144 150,-144 244,-144 244,-144 247,-144 250,-147 250,-150 250,-150 250,-156 250,-156 250,-159 247,-162 244,-162"/>
<text text-anchor="start" x="152" y="-150.8" font-family="Helvetica,sans-Serif" font-size="9.00">guardian.svg.svelte.ts</text>
</a>
</g>
</g>
<!-- src/routes/icons/+page.svelte.ts&#45;&gt;src/routes/icons/guardian.svg.svelte.ts -->
<g id="edge9" class="edge">
<title>src/routes/icons/+page.svelte.ts&#45;&gt;src/routes/icons/guardian.svg.svelte.ts</title>
<path fill="none" stroke="#000000" stroke-width="2" stroke-opacity="0.200000" d="M119.62,-221.47C122.75,-219.76 125.62,-217.64 128,-215 142.21,-199.28 121.6,-183.54 136,-168 136.88,-167.05 137.8,-166.17 138.77,-165.33"/>
<polygon fill="#000000" fill-opacity="0.200000" stroke="#000000" stroke-width="2" stroke-opacity="0.200000" points="140.32,-166.79 143.94,-161.57 137.85,-163.4 140.32,-166.79"/>
</g>
<!-- src/routes/icons/mystic.svg.svelte.ts -->
<g id="node17" class="node">
<title>src/routes/icons/mystic.svg.svelte.ts</title>
<g id="a_node17"><a xlink:href="src/routes/icons/mystic.svg.svelte.ts" xlink:title="mystic.svg.svelte.ts">
<path fill="#ddfeff" stroke="black" d="M238.5,-192C238.5,-192 155.5,-192 155.5,-192 152.5,-192 149.5,-189 149.5,-186 149.5,-186 149.5,-180 149.5,-180 149.5,-177 152.5,-174 155.5,-174 155.5,-174 238.5,-174 238.5,-174 241.5,-174 244.5,-177 244.5,-180 244.5,-180 244.5,-186 244.5,-186 244.5,-189 241.5,-192 238.5,-192"/>
<text text-anchor="start" x="157.5" y="-180.8" font-family="Helvetica,sans-Serif" font-size="9.00">mystic.svg.svelte.ts</text>
</a>
</g>
</g>
<!-- src/routes/icons/+page.svelte.ts&#45;&gt;src/routes/icons/mystic.svg.svelte.ts -->
<g id="edge10" class="edge">
<title>src/routes/icons/+page.svelte.ts&#45;&gt;src/routes/icons/mystic.svg.svelte.ts</title>
<path fill="none" stroke="#000000" stroke-width="2" stroke-opacity="0.200000" d="M119.85,-220.29C122.78,-218.82 125.54,-217.07 128,-215 134.38,-209.62 129.55,-203.3 136,-198 138.36,-196.06 140.95,-194.36 143.67,-192.88"/>
<polygon fill="#000000" fill-opacity="0.200000" stroke="#000000" stroke-width="2" stroke-opacity="0.200000" points="144.91,-194.61 149.42,-190.13 143.1,-190.82 144.91,-194.61"/>
</g>
<!-- src/routes/icons/rogue.svg.svelte.ts -->
<g id="node18" class="node">
<title>src/routes/icons/rogue.svg.svelte.ts</title>
<g id="a_node18"><a xlink:href="src/routes/icons/rogue.svg.svelte.ts" xlink:title="rogue.svg.svelte.ts">
<path fill="#ddfeff" stroke="black" d="M237.5,-222C237.5,-222 156.5,-222 156.5,-222 153.5,-222 150.5,-219 150.5,-216 150.5,-216 150.5,-210 150.5,-210 150.5,-207 153.5,-204 156.5,-204 156.5,-204 237.5,-204 237.5,-204 240.5,-204 243.5,-207 243.5,-210 243.5,-210 243.5,-216 243.5,-216 243.5,-219 240.5,-222 237.5,-222"/>
<text text-anchor="start" x="158.5" y="-210.8" font-family="Helvetica,sans-Serif" font-size="9.00">rogue.svg.svelte.ts</text>
</a>
</g>
</g>
<!-- src/routes/icons/+page.svelte.ts&#45;&gt;src/routes/icons/rogue.svg.svelte.ts -->
<g id="edge11" class="edge">
<title>src/routes/icons/+page.svelte.ts&#45;&gt;src/routes/icons/rogue.svg.svelte.ts</title>
<path fill="none" stroke="#000000" stroke-width="2" stroke-opacity="0.200000" d="M119.61,-222.96C127.41,-221.95 135.73,-220.86 143.91,-219.79"/>
<polygon fill="#000000" fill-opacity="0.200000" stroke="#000000" stroke-width="2" stroke-opacity="0.200000" points="144.44,-221.84 150.12,-218.98 143.9,-217.68 144.44,-221.84"/>
</g>
<!-- src/routes/icons/seeker.svg.svelte.ts -->
<g id="node19" class="node">
<title>src/routes/icons/seeker.svg.svelte.ts</title>
<g id="a_node19"><a xlink:href="src/routes/icons/seeker.svg.svelte.ts" xlink:title="seeker.svg.svelte.ts">
<path fill="#ddfeff" stroke="black" d="M240,-252C240,-252 154,-252 154,-252 151,-252 148,-249 148,-246 148,-246 148,-240 148,-240 148,-237 151,-234 154,-234 154,-234 240,-234 240,-234 243,-234 246,-237 246,-240 246,-240 246,-246 246,-246 246,-249 243,-252 240,-252"/>
<text text-anchor="start" x="156" y="-240.8" font-family="Helvetica,sans-Serif" font-size="9.00">seeker.svg.svelte.ts</text>
</a>
</g>
</g>
<!-- src/routes/icons/+page.svelte.ts&#45;&gt;src/routes/icons/seeker.svg.svelte.ts -->
<g id="edge12" class="edge">
<title>src/routes/icons/+page.svelte.ts&#45;&gt;src/routes/icons/seeker.svg.svelte.ts</title>
<path fill="none" stroke="#000000" stroke-width="2" stroke-opacity="0.200000" d="M119.61,-233.04C126.65,-233.95 134.11,-234.93 141.5,-235.89"/>
<polygon fill="#000000" fill-opacity="0.200000" stroke="#000000" stroke-width="2" stroke-opacity="0.200000" points="141.46,-238 147.68,-236.7 142.01,-233.84 141.46,-238"/>
</g>
<!-- src/routes/icons/SortableSlotsBar.svelte.ts -->
<g id="node20" class="node">
<title>src/routes/icons/SortableSlotsBar.svelte.ts</title>
<g id="a_node20"><a xlink:href="src/routes/icons/SortableSlotsBar.svelte.ts" xlink:title="SortableSlotsBar.svelte.ts">
<path fill="#ddfeff" stroke="black" d="M252,-282C252,-282 142,-282 142,-282 139,-282 136,-279 136,-276 136,-276 136,-270 136,-270 136,-267 139,-264 142,-264 142,-264 252,-264 252,-264 255,-264 258,-267 258,-270 258,-270 258,-276 258,-276 258,-279 255,-282 252,-282"/>
<text text-anchor="start" x="144" y="-270.8" font-family="Helvetica,sans-Serif" font-size="9.00">SortableSlotsBar.svelte.ts</text>
</a>
</g>
</g>
<!-- src/routes/icons/+page.svelte.ts&#45;&gt;src/routes/icons/SortableSlotsBar.svelte.ts -->
<g id="edge13" class="edge">
<title>src/routes/icons/+page.svelte.ts&#45;&gt;src/routes/icons/SortableSlotsBar.svelte.ts</title>
<path fill="none" stroke="#000000" stroke-width="2" stroke-opacity="0.200000" d="M95.45,-237.21C106.26,-243.77 121.61,-252.38 136,-258 139.83,-259.5 143.86,-260.88 147.94,-262.15"/>
<polygon fill="#000000" fill-opacity="0.200000" stroke="#000000" stroke-width="2" stroke-opacity="0.200000" points="147.58,-264.24 153.93,-263.93 148.78,-260.21 147.58,-264.24"/>
</g>
<!-- src/routes/icons/survivor.svg.svelte.ts -->
<g id="node21" class="node">
<title>src/routes/icons/survivor.svg.svelte.ts</title>
<g id="a_node21"><a xlink:href="src/routes/icons/survivor.svg.svelte.ts" xlink:title="survivor.svg.svelte.ts">
<path fill="#ddfeff" stroke="black" d="M241.5,-312C241.5,-312 152.5,-312 152.5,-312 149.5,-312 146.5,-309 146.5,-306 146.5,-306 146.5,-300 146.5,-300 146.5,-297 149.5,-294 152.5,-294 152.5,-294 241.5,-294 241.5,-294 244.5,-294 247.5,-297 247.5,-300 247.5,-300 247.5,-306 247.5,-306 247.5,-309 244.5,-312 241.5,-312"/>
<text text-anchor="start" x="154.5" y="-300.8" font-family="Helvetica,sans-Serif" font-size="9.00">survivor.svg.svelte.ts</text>
</a>
</g>
</g>
<!-- src/routes/icons/+page.svelte.ts&#45;&gt;src/routes/icons/survivor.svg.svelte.ts -->
<g id="edge14" class="edge">
<title>src/routes/icons/+page.svelte.ts&#45;&gt;src/routes/icons/survivor.svg.svelte.ts</title>
<path fill="none" stroke="#000000" stroke-width="2" stroke-opacity="0.200000" d="M86.89,-237.28C95.83,-250.61 114.14,-274.99 136,-288 138.18,-289.3 140.47,-290.48 142.83,-291.57"/>
<polygon fill="#000000" fill-opacity="0.200000" stroke="#000000" stroke-width="2" stroke-opacity="0.200000" points="142.09,-293.54 148.44,-293.91 143.71,-289.66 142.09,-293.54"/>
</g>
<!-- src/routes/packs/+page.server.ts -->
<g id="node22" class="node">
<title>src/routes/packs/+page.server.ts</title>
<g id="a_node22"><a xlink:href="src/routes/packs/+page.server.ts" xlink:title="+page.server.ts">
<path fill="#ddfeff" stroke="black" d="M114,-616C114,-616 46,-616 46,-616 43,-616 40,-613 40,-610 40,-610 40,-604 40,-604 40,-601 43,-598 46,-598 46,-598 114,-598 114,-598 117,-598 120,-601 120,-604 120,-604 120,-610 120,-610 120,-613 117,-616 114,-616"/>
<text text-anchor="start" x="48" y="-604.8" font-family="Helvetica,sans-Serif" font-size="9.00">+page.server.ts</text>
</a>
</g>
</g>
<!-- src/routes/packs/+page.server.ts&#45;&gt;src/lib/server/ahdb.packs.json -->
<g id="edge15" class="edge">
<title>src/routes/packs/+page.server.ts&#45;&gt;src/lib/server/ahdb.packs.json</title>
<path fill="none" stroke="#000000" stroke-width="2" stroke-opacity="0.200000" d="M109.88,-597.94C115.88,-596.02 122.16,-593.97 128,-592 192.75,-570.19 268.04,-543.07 309.05,-528.14"/>
<polygon fill="#000000" fill-opacity="0.200000" stroke="#000000" stroke-width="2" stroke-opacity="0.200000" points="309.92,-530.06 314.84,-526.03 308.49,-526.11 309.92,-530.06"/>
</g>
<!-- src/routes/packs/+page.svelte.ts -->
<g id="node23" class="node">
<title>src/routes/packs/+page.svelte.ts</title>
<g id="a_node23"><a xlink:href="src/routes/packs/+page.svelte.ts" xlink:title="no&#45;orphans">
<path fill="#ccffcc" stroke="orange" d="M113.5,-586C113.5,-586 46.5,-586 46.5,-586 43.5,-586 40.5,-583 40.5,-580 40.5,-580 40.5,-574 40.5,-574 40.5,-571 43.5,-568 46.5,-568 46.5,-568 113.5,-568 113.5,-568 116.5,-568 119.5,-571 119.5,-574 119.5,-574 119.5,-580 119.5,-580 119.5,-583 116.5,-586 113.5,-586"/>
<text text-anchor="start" x="48.5" y="-574.8" font-family="Helvetica,sans-Serif" font-size="9.00" fill="orange">+page.svelte.ts</text>
</a>
</g>
</g>
</g>
</svg>
