<?xml version="1.0" encoding="UTF-8" standalone="no"?>
<!DOCTYPE svg PUBLIC "-//W3C//DTD SVG 1.1//EN"
 "http://www.w3.org/Graphics/SVG/1.1/DTD/svg11.dtd">
<!-- Generated by graphviz version 2.50.0 (20211204.2007)
 -->
<!-- Title: dependency&#45;cruiser output Pages: 1 -->
<svg width="622pt" height="748pt"
 viewBox="0.00 0.00 621.50 748.00" xmlns="http://www.w3.org/2000/svg" xmlns:xlink="http://www.w3.org/1999/xlink">
<g id="graph0" class="graph" transform="scale(1 1) rotate(0) translate(4 744)">
<title>dependency&#45;cruiser output</title>
<polygon fill="white" stroke="transparent" points="-4,4 -4,-744 617.5,-744 617.5,4 -4,4"/>
<g id="clust1" class="cluster">
<title>cluster_src</title>
<path fill="#ffffff" stroke="black" stroke-width="2" d="M20,-8C20,-8 593.5,-8 593.5,-8 599.5,-8 605.5,-14 605.5,-20 605.5,-20 605.5,-720 605.5,-720 605.5,-726 599.5,-732 593.5,-732 593.5,-732 20,-732 20,-732 14,-732 8,-726 8,-720 8,-720 8,-20 8,-20 8,-14 14,-8 20,-8"/>
<text text-anchor="middle" x="306.75" y="-720.8" font-family="Helvetica,sans-Serif" font-weight="bold" font-size="9.00">src</text>
</g>
<g id="clust4" class="cluster">
<title>cluster_src/lib</title>
<path fill="#ffffff" stroke="black" stroke-width="2" d="M161,-174C161,-174 507,-174 507,-174 513,-174 519,-180 519,-186 519,-186 519,-518 519,-518 519,-524 513,-530 507,-530 507,-530 161,-530 161,-530 155,-530 149,-524 149,-518 149,-518 149,-186 149,-186 149,-180 155,-174 161,-174"/>
<text text-anchor="middle" x="334" y="-518.8" font-family="Helvetica,sans-Serif" font-weight="bold" font-size="9.00">lib</text>
</g>
<g id="clust6" class="cluster">
<title>cluster_src/lib/Components</title>
<path fill="#ffffff" stroke="black" stroke-width="2" d="M182.5,-452C182.5,-452 409.5,-452 409.5,-452 415.5,-452 421.5,-458 421.5,-464 421.5,-464 421.5,-492 421.5,-492 421.5,-498 415.5,-504 409.5,-504 409.5,-504 182.5,-504 182.5,-504 176.5,-504 170.5,-498 170.5,-492 170.5,-492 170.5,-464 170.5,-464 170.5,-458 176.5,-452 182.5,-452"/>
<text text-anchor="middle" x="296" y="-492.8" font-family="Helvetica,sans-Serif" font-weight="bold" font-size="9.00">Components</text>
</g>
<g id="clust7" class="cluster">
<title>cluster_src/lib/ViewModels</title>
<path fill="#ffffff" stroke="black" stroke-width="2" d="M453,-452C453,-452 499,-452 499,-452 505,-452 511,-458 511,-464 511,-464 511,-492 511,-492 511,-498 505,-504 499,-504 499,-504 453,-504 453,-504 447,-504 441,-498 441,-492 441,-492 441,-464 441,-464 441,-458 447,-452 453,-452"/>
<text text-anchor="middle" x="476" y="-492.8" font-family="Helvetica,sans-Serif" font-weight="bold" font-size="9.00">ViewModels</text>
</g>
<g id="clust5" class="cluster">
<title>cluster_src/lib/BinderStorage</title>
<path fill="#ffffff" stroke="black" stroke-width="2" d="M191.5,-392C191.5,-392 245.5,-392 245.5,-392 251.5,-392 257.5,-398 257.5,-404 257.5,-404 257.5,-432 257.5,-432 257.5,-438 251.5,-444 245.5,-444 245.5,-444 191.5,-444 191.5,-444 185.5,-444 179.5,-438 179.5,-432 179.5,-432 179.5,-404 179.5,-404 179.5,-398 185.5,-392 191.5,-392"/>
<text text-anchor="middle" x="218.5" y="-432.8" font-family="Helvetica,sans-Serif" font-weight="bold" font-size="9.00">BinderStorage</text>
</g>
<g id="clust10" class="cluster">
<title>cluster_src/lib/userEditsCollection</title>
<path fill="#ffffff" stroke="black" stroke-width="2" d="M169,-332C169,-332 268,-332 268,-332 274,-332 280,-338 280,-344 280,-344 280,-372 280,-372 280,-378 274,-384 268,-384 268,-384 169,-384 169,-384 163,-384 157,-378 157,-372 157,-372 157,-344 157,-344 157,-338 163,-332 169,-332"/>
<text text-anchor="middle" x="218.5" y="-372.8" font-family="Helvetica,sans-Serif" font-weight="bold" font-size="9.00">userEditsCollection</text>
</g>
<g id="clust8" class="cluster">
<title>cluster_src/lib/server</title>
<path fill="#ffffff" stroke="black" stroke-width="2" d="M180,-182C180,-182 257,-182 257,-182 263,-182 269,-188 269,-194 269,-194 269,-312 269,-312 269,-318 263,-324 257,-324 257,-324 180,-324 180,-324 174,-324 168,-318 168,-312 168,-312 168,-194 168,-194 168,-188 174,-182 180,-182"/>
<text text-anchor="middle" x="218.5" y="-312.8" font-family="Helvetica,sans-Serif" font-weight="bold" font-size="9.00">server</text>
</g>
<g id="clust9" class="cluster">
<title>cluster_src/lib/server/collection</title>
<path fill="#ffffff" stroke="black" stroke-width="2" d="M194.5,-246C194.5,-246 242.5,-246 242.5,-246 248.5,-246 254.5,-252 254.5,-258 254.5,-258 254.5,-286 254.5,-286 254.5,-292 248.5,-298 242.5,-298 242.5,-298 194.5,-298 194.5,-298 188.5,-298 182.5,-292 182.5,-286 182.5,-286 182.5,-258 182.5,-258 182.5,-252 188.5,-246 194.5,-246"/>
<text text-anchor="middle" x="218.5" y="-286.8" font-family="Helvetica,sans-Serif" font-weight="bold" font-size="9.00">collection</text>
</g>
<g id="clust2" class="cluster">
<title>cluster_src/gathering</title>
<path fill="#ffffff" stroke="black" stroke-width="2" d="M28,-538C28,-538 585.5,-538 585.5,-538 591.5,-538 597.5,-544 597.5,-550 597.5,-550 597.5,-694 597.5,-694 597.5,-700 591.5,-706 585.5,-706 585.5,-706 28,-706 28,-706 22,-706 16,-700 16,-694 16,-694 16,-550 16,-550 16,-544 22,-538 28,-538"/>
<text text-anchor="middle" x="306.75" y="-694.8" font-family="Helvetica,sans-Serif" font-weight="bold" font-size="9.00">gathering</text>
</g>
<g id="clust3" class="cluster">
<title>cluster_src/gathering/CollectionEditor</title>
<path fill="#ffffff" stroke="black" stroke-width="2" d="M36,-548C36,-548 270.5,-548 270.5,-548 276.5,-548 282.5,-554 282.5,-560 282.5,-560 282.5,-618 282.5,-618 282.5,-624 276.5,-630 270.5,-630 270.5,-630 36,-630 36,-630 30,-630 24,-624 24,-618 24,-618 24,-560 24,-560 24,-554 30,-548 36,-548"/>
<text text-anchor="middle" x="153.25" y="-618.8" font-family="Helvetica,sans-Serif" font-weight="bold" font-size="9.00">CollectionEditor</text>
</g>
<g id="clust11" class="cluster">
<title>cluster_src/routes</title>
<path fill="#ffffff" stroke="black" stroke-width="2" d="M34.5,-16C34.5,-16 289.5,-16 289.5,-16 295.5,-16 301.5,-22 301.5,-28 301.5,-28 301.5,-154 301.5,-154 301.5,-160 295.5,-166 289.5,-166 289.5,-166 34.5,-166 34.5,-166 28.5,-166 22.5,-160 22.5,-154 22.5,-154 22.5,-28 22.5,-28 22.5,-22 28.5,-16 34.5,-16"/>
<text text-anchor="middle" x="162" y="-154.8" font-family="Helvetica,sans-Serif" font-weight="bold" font-size="9.00">routes</text>
</g>
<g id="clust12" class="cluster">
<title>cluster_src/routes/collection</title>
<path fill="#ffffff" stroke="black" stroke-width="2" d="M42.5,-24C42.5,-24 281.5,-24 281.5,-24 287.5,-24 293.5,-30 293.5,-36 293.5,-36 293.5,-128 293.5,-128 293.5,-134 287.5,-140 281.5,-140 281.5,-140 42.5,-140 42.5,-140 36.5,-140 30.5,-134 30.5,-128 30.5,-128 30.5,-36 30.5,-36 30.5,-30 36.5,-24 42.5,-24"/>
<text text-anchor="middle" x="162" y="-128.8" font-family="Helvetica,sans-Serif" font-weight="bold" font-size="9.00">collection</text>
</g>
<g id="clust13" class="cluster">
<title>cluster_src/routes/collection/couz</title>
<path fill="#ffffff" stroke="black" stroke-width="2" d="M50.5,-32C50.5,-32 273.5,-32 273.5,-32 279.5,-32 285.5,-38 285.5,-44 285.5,-44 285.5,-102 285.5,-102 285.5,-108 279.5,-114 273.5,-114 273.5,-114 50.5,-114 50.5,-114 44.5,-114 38.5,-108 38.5,-102 38.5,-102 38.5,-44 38.5,-44 38.5,-38 44.5,-32 50.5,-32"/>
<text text-anchor="middle" x="162" y="-102.8" font-family="Helvetica,sans-Serif" font-weight="bold" font-size="9.00">couz</text>
</g>
<!-- src/gathering/Collection.ts -->
<g id="node1" class="node">
<title>src/gathering/Collection.ts</title>
<g id="a_node1"><a xlink:href="src/gathering/Collection.ts" xlink:title="Collection.ts">
<path fill="#ddfeff" stroke="black" d="M504,-666C504,-666 448,-666 448,-666 445,-666 442,-663 442,-660 442,-660 442,-654 442,-654 442,-651 445,-648 448,-648 448,-648 504,-648 504,-648 507,-648 510,-651 510,-654 510,-654 510,-660 510,-660 510,-663 507,-666 504,-666"/>
<text text-anchor="start" x="450" y="-654.8" font-family="Helvetica,sans-Serif" font-size="9.00">Collection.ts</text>
</a>
</g>
</g>
<!-- src/gathering/Pack.ts -->
<g id="node2" class="node">
<title>src/gathering/Pack.ts</title>
<g id="a_node2"><a xlink:href="src/gathering/Pack.ts" xlink:title="Pack.ts">
<path fill="#ddfeff" stroke="black" d="M583.5,-617C583.5,-617 541.5,-617 541.5,-617 538.5,-617 535.5,-614 535.5,-611 535.5,-611 535.5,-605 535.5,-605 535.5,-602 538.5,-599 541.5,-599 541.5,-599 583.5,-599 583.5,-599 586.5,-599 589.5,-602 589.5,-605 589.5,-605 589.5,-611 589.5,-611 589.5,-614 586.5,-617 583.5,-617"/>
<text text-anchor="start" x="547" y="-605.8" font-family="Helvetica,sans-Serif" font-size="9.00">Pack.ts</text>
</a>
</g>
</g>
<!-- src/gathering/Collection.ts&#45;&gt;src/gathering/Pack.ts -->
<g id="edge1" class="edge">
<title>src/gathering/Collection.ts&#45;&gt;src/gathering/Pack.ts</title>
<path fill="none" stroke="#000000" stroke-opacity="0.200000" d="M500.65,-647.81C507.83,-644.7 515.64,-640.99 522.5,-637 530.52,-632.34 538.85,-626.33 545.74,-620.99"/>
<polygon fill="none" stroke="#000000" stroke-opacity="0.200000" points="547.29,-622.44 550.7,-617.07 544.69,-619.14 547.29,-622.44"/>
</g>
<!-- src/gathering/CollectionEditor/CollectionEditor.test.ts -->
<g id="node3" class="node">
<title>src/gathering/CollectionEditor/CollectionEditor.test.ts</title>
<g id="a_node3"><a xlink:href="src/gathering/CollectionEditor/CollectionEditor.test.ts" xlink:title="CollectionEditor.test.ts">
<path fill="#ddfeff" stroke="black" d="M135,-604C135,-604 38,-604 38,-604 35,-604 32,-601 32,-598 32,-598 32,-592 32,-592 32,-589 35,-586 38,-586 38,-586 135,-586 135,-586 138,-586 141,-589 141,-592 141,-592 141,-598 141,-598 141,-601 138,-604 135,-604"/>
<text text-anchor="start" x="40" y="-592.8" font-family="Helvetica,sans-Serif" font-size="9.00">CollectionEditor.test.ts</text>
</a>
</g>
</g>
<!-- src/gathering/CollectionEditor/CollectionEditor.test.ts&#45;&gt;src/gathering/Collection.ts -->
<g id="edge4" class="edge">
<title>src/gathering/CollectionEditor/CollectionEditor.test.ts&#45;&gt;src/gathering/Collection.ts</title>
<path fill="none" stroke="#000000" stroke-opacity="0.200000" d="M96.15,-604.04C107.28,-615.09 127.74,-633.49 149,-643 260.17,-692.75 300.84,-688.59 421.5,-672 428.3,-671.06 435.46,-669.49 442.25,-667.7"/>
<polygon fill="none" stroke="#000000" stroke-opacity="0.200000" points="443.14,-669.64 448.36,-666.01 442.02,-665.59 443.14,-669.64"/>
</g>
<!-- src/gathering/CollectionEditor/CollectionEditor.ts -->
<g id="node4" class="node">
<title>src/gathering/CollectionEditor/CollectionEditor.ts</title>
<g id="a_node4"><a xlink:href="src/gathering/CollectionEditor/CollectionEditor.ts" xlink:title="CollectionEditor.ts">
<path fill="#ddfeff" stroke="black" d="M258.5,-604C258.5,-604 178.5,-604 178.5,-604 175.5,-604 172.5,-601 172.5,-598 172.5,-598 172.5,-592 172.5,-592 172.5,-589 175.5,-586 178.5,-586 178.5,-586 258.5,-586 258.5,-586 261.5,-586 264.5,-589 264.5,-592 264.5,-592 264.5,-598 264.5,-598 264.5,-601 261.5,-604 258.5,-604"/>
<text text-anchor="start" x="180.5" y="-592.8" font-family="Helvetica,sans-Serif" font-size="9.00">CollectionEditor.ts</text>
</a>
</g>
</g>
<!-- src/gathering/CollectionEditor/CollectionEditor.test.ts&#45;&gt;src/gathering/CollectionEditor/CollectionEditor.ts -->
<g id="edge2" class="edge">
<title>src/gathering/CollectionEditor/CollectionEditor.test.ts&#45;&gt;src/gathering/CollectionEditor/CollectionEditor.ts</title>
<path fill="none" stroke="#000000" stroke-width="2" stroke-opacity="0.200000" d="M141.13,-595C149.38,-595 157.88,-595 166.08,-595"/>
<polygon fill="#000000" fill-opacity="0.200000" stroke="#000000" stroke-width="2" stroke-opacity="0.200000" points="166.28,-597.1 172.28,-595 166.28,-592.9 166.28,-597.1"/>
</g>
<!-- src/gathering/CollectionEditor/PackRepositoryMock.ts -->
<g id="node5" class="node">
<title>src/gathering/CollectionEditor/PackRepositoryMock.ts</title>
<g id="a_node5"><a xlink:href="src/gathering/CollectionEditor/PackRepositoryMock.ts" xlink:title="PackRepositoryMock.ts">
<path fill="#ddfeff" stroke="black" d="M268.5,-574C268.5,-574 168.5,-574 168.5,-574 165.5,-574 162.5,-571 162.5,-568 162.5,-568 162.5,-562 162.5,-562 162.5,-559 165.5,-556 168.5,-556 168.5,-556 268.5,-556 268.5,-556 271.5,-556 274.5,-559 274.5,-562 274.5,-562 274.5,-568 274.5,-568 274.5,-571 271.5,-574 268.5,-574"/>
<text text-anchor="start" x="170.5" y="-562.8" font-family="Helvetica,sans-Serif" font-size="9.00">PackRepositoryMock.ts</text>
</a>
</g>
</g>
<!-- src/gathering/CollectionEditor/CollectionEditor.test.ts&#45;&gt;src/gathering/CollectionEditor/PackRepositoryMock.ts -->
<g id="edge3" class="edge">
<title>src/gathering/CollectionEditor/CollectionEditor.test.ts&#45;&gt;src/gathering/CollectionEditor/PackRepositoryMock.ts</title>
<path fill="none" stroke="#000000" stroke-width="2" stroke-opacity="0.200000" d="M123.89,-585.97C132.14,-583.97 140.86,-581.88 149,-580 155.54,-578.49 162.44,-576.93 169.24,-575.42"/>
<polygon fill="#000000" fill-opacity="0.200000" stroke="#000000" stroke-width="2" stroke-opacity="0.200000" points="170.04,-577.39 175.44,-574.05 169.13,-573.29 170.04,-577.39"/>
</g>
<!-- src/gathering/CollectionEntity.ts -->
<g id="node6" class="node">
<title>src/gathering/CollectionEntity.ts</title>
<g id="a_node6"><a xlink:href="src/gathering/CollectionEntity.ts" xlink:title="CollectionEntity.ts">
<path fill="#ddfeff" stroke="black" d="M400,-606C400,-606 323,-606 323,-606 320,-606 317,-603 317,-600 317,-600 317,-594 317,-594 317,-591 320,-588 323,-588 323,-588 400,-588 400,-588 403,-588 406,-591 406,-594 406,-594 406,-600 406,-600 406,-603 403,-606 400,-606"/>
<text text-anchor="start" x="325" y="-594.8" font-family="Helvetica,sans-Serif" font-size="9.00">CollectionEntity.ts</text>
</a>
</g>
</g>
<!-- src/gathering/CollectionEditor/CollectionEditor.test.ts&#45;&gt;src/gathering/CollectionEntity.ts -->
<g id="edge5" class="edge">
<title>src/gathering/CollectionEditor/CollectionEditor.test.ts&#45;&gt;src/gathering/CollectionEntity.ts</title>
<path fill="none" stroke="#000000" stroke-width="2" stroke-opacity="0.200000" d="M118.21,-604.02C127.96,-606.47 138.85,-608.78 149,-610 216.29,-618.09 234.12,-617.34 301.5,-610 307.37,-609.36 313.5,-608.38 319.51,-607.23"/>
<polygon fill="#000000" fill-opacity="0.200000" stroke="#000000" stroke-width="2" stroke-opacity="0.200000" points="319.99,-609.27 325.45,-606.03 319.16,-605.16 319.99,-609.27"/>
</g>
<!-- src/gathering/ICollectionEditor.ts -->
<g id="node7" class="node">
<title>src/gathering/ICollectionEditor.ts</title>
<g id="a_node7"><a xlink:href="src/gathering/ICollectionEditor.ts" xlink:title="ICollectionEditor.ts">
<path fill="#ddfeff" stroke="black" d="M402.5,-636C402.5,-636 320.5,-636 320.5,-636 317.5,-636 314.5,-633 314.5,-630 314.5,-630 314.5,-624 314.5,-624 314.5,-621 317.5,-618 320.5,-618 320.5,-618 402.5,-618 402.5,-618 405.5,-618 408.5,-621 408.5,-624 408.5,-624 408.5,-630 408.5,-630 408.5,-633 405.5,-636 402.5,-636"/>
<text text-anchor="start" x="322.5" y="-624.8" font-family="Helvetica,sans-Serif" font-size="9.00">ICollectionEditor.ts</text>
</a>
</g>
</g>
<!-- src/gathering/CollectionEditor/CollectionEditor.test.ts&#45;&gt;src/gathering/ICollectionEditor.ts -->
<g id="edge6" class="edge">
<title>src/gathering/CollectionEditor/CollectionEditor.test.ts&#45;&gt;src/gathering/ICollectionEditor.ts</title>
<path fill="none" stroke="#000000" stroke-opacity="0.200000" d="M109.3,-604.1C120.88,-608.5 135.48,-613.39 149,-616 202.51,-626.32 264.95,-628.38 308.05,-628.28"/>
<polygon fill="none" stroke="#000000" stroke-opacity="0.200000" points="308.27,-630.38 314.26,-628.25 308.25,-626.18 308.27,-630.38"/>
</g>
<!-- src/gathering/ICollectionOutput.ts -->
<g id="node8" class="node">
<title>src/gathering/ICollectionOutput.ts</title>
<g id="a_node8"><a xlink:href="src/gathering/ICollectionOutput.ts" xlink:title="ICollectionOutput.ts">
<path fill="#ddfeff" stroke="black" d="M404,-666C404,-666 319,-666 319,-666 316,-666 313,-663 313,-660 313,-660 313,-654 313,-654 313,-651 316,-648 319,-648 319,-648 404,-648 404,-648 407,-648 410,-651 410,-654 410,-654 410,-660 410,-660 410,-663 407,-666 404,-666"/>
<text text-anchor="start" x="321" y="-654.8" font-family="Helvetica,sans-Serif" font-size="9.00">ICollectionOutput.ts</text>
</a>
</g>
</g>
<!-- src/gathering/CollectionEditor/CollectionEditor.test.ts&#45;&gt;src/gathering/ICollectionOutput.ts -->
<g id="edge7" class="edge">
<title>src/gathering/CollectionEditor/CollectionEditor.test.ts&#45;&gt;src/gathering/ICollectionOutput.ts</title>
<path fill="none" stroke="#000000" stroke-opacity="0.200000" d="M102.09,-604.05C114.21,-611.14 132.13,-620.67 149,-626 201.21,-642.51 263.5,-650.28 306.91,-653.91"/>
<polygon fill="none" stroke="#000000" stroke-opacity="0.200000" points="306.75,-656.01 312.9,-654.4 307.09,-651.82 306.75,-656.01"/>
</g>
<!-- src/gathering/CollectionEditor/CollectionEditor.ts&#45;&gt;src/gathering/Pack.ts -->
<g id="edge11" class="edge">
<title>src/gathering/CollectionEditor/CollectionEditor.ts&#45;&gt;src/gathering/Pack.ts</title>
<path fill="none" stroke="#000000" stroke-opacity="0.200000" d="M264.69,-587.18C278.97,-585.06 294.86,-583.05 309.5,-582 403.92,-575.22 431.9,-554.57 522.5,-582 531.19,-584.63 539.71,-589.91 546.56,-595.02"/>
<polygon fill="none" stroke="#000000" stroke-opacity="0.200000" points="545.43,-596.81 551.45,-598.86 548.03,-593.5 545.43,-596.81"/>
</g>
<!-- src/gathering/CollectionEditor/CollectionEditor.ts&#45;&gt;src/gathering/CollectionEntity.ts -->
<g id="edge8" class="edge">
<title>src/gathering/CollectionEditor/CollectionEditor.ts&#45;&gt;src/gathering/CollectionEntity.ts</title>
<path fill="none" stroke="#000000" stroke-width="2" stroke-opacity="0.200000" d="M264.5,-595.64C279.17,-595.85 295.54,-596.08 310.55,-596.29"/>
<polygon fill="#000000" fill-opacity="0.200000" stroke="#000000" stroke-width="2" stroke-opacity="0.200000" points="310.86,-598.4 316.89,-596.38 310.92,-594.2 310.86,-598.4"/>
</g>
<!-- src/gathering/CollectionEditor/CollectionEditor.ts&#45;&gt;src/gathering/ICollectionEditor.ts -->
<g id="edge9" class="edge">
<title>src/gathering/CollectionEditor/CollectionEditor.ts&#45;&gt;src/gathering/ICollectionEditor.ts</title>
<path fill="none" stroke="#000000" stroke-opacity="0.200000" d="M264.77,-599.64C276.87,-601.57 289.83,-604.26 301.5,-608 305.29,-609.21 305.8,-610.54 309.5,-612 313.19,-613.45 317.08,-614.84 321,-616.15"/>
<polygon fill="none" stroke="#000000" stroke-opacity="0.200000" points="320.39,-618.15 326.74,-617.99 321.68,-614.16 320.39,-618.15"/>
</g>
<!-- src/gathering/CollectionEditor/CollectionEditor.ts&#45;&gt;src/gathering/ICollectionOutput.ts -->
<g id="edge10" class="edge">
<title>src/gathering/CollectionEditor/CollectionEditor.ts&#45;&gt;src/gathering/ICollectionOutput.ts</title>
<path fill="none" stroke="#000000" stroke-opacity="0.200000" d="M264.52,-592.95C277.88,-594.58 291.57,-598.78 301.5,-608 312.87,-618.56 298.83,-630.73 309.5,-642 310.17,-642.71 310.88,-643.39 311.61,-644.04"/>
<polygon fill="none" stroke="#000000" stroke-opacity="0.200000" points="310.75,-646.01 316.83,-647.86 313.23,-642.62 310.75,-646.01"/>
</g>
<!-- src/gathering/CollectionEditor/PackRepositoryMock.ts&#45;&gt;src/gathering/Pack.ts -->
<g id="edge13" class="edge">
<title>src/gathering/CollectionEditor/PackRepositoryMock.ts&#45;&gt;src/gathering/Pack.ts</title>
<path fill="none" stroke="#000000" stroke-opacity="0.200000" d="M255.96,-555.9C314.91,-543.13 433.52,-525.58 522.5,-565 535.56,-570.79 546.12,-583.35 552.93,-593.41"/>
<polygon fill="none" stroke="#000000" stroke-opacity="0.200000" points="551.32,-594.77 556.33,-598.68 554.85,-592.5 551.32,-594.77"/>
</g>
<!-- src/gathering/IPackRepository.ts -->
<g id="node9" class="node">
<title>src/gathering/IPackRepository.ts</title>
<g id="a_node9"><a xlink:href="src/gathering/IPackRepository.ts" xlink:title="IPackRepository.ts">
<path fill="#ddfeff" stroke="black" d="M516.5,-606C516.5,-606 435.5,-606 435.5,-606 432.5,-606 429.5,-603 429.5,-600 429.5,-600 429.5,-594 429.5,-594 429.5,-591 432.5,-588 435.5,-588 435.5,-588 516.5,-588 516.5,-588 519.5,-588 522.5,-591 522.5,-594 522.5,-594 522.5,-600 522.5,-600 522.5,-603 519.5,-606 516.5,-606"/>
<text text-anchor="start" x="437.5" y="-594.8" font-family="Helvetica,sans-Serif" font-size="9.00">IPackRepository.ts</text>
</a>
</g>
</g>
<!-- src/gathering/CollectionEditor/PackRepositoryMock.ts&#45;&gt;src/gathering/IPackRepository.ts -->
<g id="edge12" class="edge">
<title>src/gathering/CollectionEditor/PackRepositoryMock.ts&#45;&gt;src/gathering/IPackRepository.ts</title>
<path fill="none" stroke="#000000" stroke-opacity="0.200000" d="M274.74,-566.83C315.55,-568.86 372.32,-573.12 421.5,-582 427.69,-583.12 434.21,-584.64 440.47,-586.29"/>
<polygon fill="none" stroke="#000000" stroke-opacity="0.200000" points="440.29,-588.42 446.63,-587.97 441.4,-584.37 440.29,-588.42"/>
</g>
<!-- src/gathering/CollectionEntity.ts&#45;&gt;src/gathering/Pack.ts -->
<g id="edge15" class="edge">
<title>src/gathering/CollectionEntity.ts&#45;&gt;src/gathering/Pack.ts</title>
<path fill="none" stroke="#000000" stroke-opacity="0.200000" d="M396,-606.02C406.63,-608.47 418.48,-610.78 429.5,-612 470.58,-616.54 481.22,-614.11 522.5,-612 524.54,-611.9 526.64,-611.76 528.75,-611.6"/>
<polygon fill="none" stroke="#000000" stroke-opacity="0.200000" points="529.29,-613.67 535.09,-611.08 528.94,-609.48 529.29,-613.67"/>
</g>
<!-- src/gathering/CollectionEntity.ts&#45;&gt;src/gathering/IPackRepository.ts -->
<g id="edge14" class="edge">
<title>src/gathering/CollectionEntity.ts&#45;&gt;src/gathering/IPackRepository.ts</title>
<path fill="none" stroke="#000000" stroke-opacity="0.200000" d="M406.32,-597C411.85,-597 417.54,-597 423.18,-597"/>
<polygon fill="none" stroke="#000000" stroke-opacity="0.200000" points="423.26,-599.1 429.26,-597 423.26,-594.9 423.26,-599.1"/>
</g>
<!-- src/gathering/ICollectionEditor.ts&#45;&gt;src/gathering/Pack.ts -->
<g id="edge16" class="edge">
<title>src/gathering/ICollectionEditor.ts&#45;&gt;src/gathering/Pack.ts</title>
<path fill="none" stroke="#000000" stroke-opacity="0.200000" d="M408.57,-626.12C440.65,-625.03 484.36,-622.55 522.5,-617 524.69,-616.68 526.94,-616.3 529.2,-615.88"/>
<polygon fill="none" stroke="#000000" stroke-opacity="0.200000" points="529.7,-617.92 535.18,-614.69 528.88,-613.8 529.7,-617.92"/>
</g>
<!-- src/gathering/ICollectionOutput.ts&#45;&gt;src/gathering/Collection.ts -->
<g id="edge17" class="edge">
<title>src/gathering/ICollectionOutput.ts&#45;&gt;src/gathering/Collection.ts</title>
<path fill="none" stroke="#000000" stroke-opacity="0.200000" d="M410.21,-657C418.7,-657 427.47,-657 435.69,-657"/>
<polygon fill="none" stroke="#000000" stroke-opacity="0.200000" points="435.87,-659.1 441.87,-657 435.87,-654.9 435.87,-659.1"/>
</g>
<!-- src/gathering/IPackRepository.ts&#45;&gt;src/gathering/Pack.ts -->
<g id="edge18" class="edge">
<title>src/gathering/IPackRepository.ts&#45;&gt;src/gathering/Pack.ts</title>
<path fill="none" stroke="#000000" stroke-opacity="0.200000" d="M522.71,-602.95C524.89,-603.23 527.06,-603.52 529.18,-603.79"/>
<polygon fill="none" stroke="#000000" stroke-opacity="0.200000" points="529.22,-605.92 535.44,-604.61 529.76,-601.75 529.22,-605.92"/>
</g>
<!-- src/lib/BinderStorage/index.ts -->
<g id="node10" class="node">
<title>src/lib/BinderStorage/index.ts</title>
<g id="a_node10"><a xlink:href="src/lib/BinderStorage/index.ts" xlink:title="index.ts">
<path fill="#ddfeff" stroke="black" d="M239.5,-418C239.5,-418 197.5,-418 197.5,-418 194.5,-418 191.5,-415 191.5,-412 191.5,-412 191.5,-406 191.5,-406 191.5,-403 194.5,-400 197.5,-400 197.5,-400 239.5,-400 239.5,-400 242.5,-400 245.5,-403 245.5,-406 245.5,-406 245.5,-412 245.5,-412 245.5,-415 242.5,-418 239.5,-418"/>
<text text-anchor="start" x="202.5" y="-406.8" font-family="Helvetica,sans-Serif" font-size="9.00">index.ts</text>
</a>
</g>
</g>
<!-- src/lib/Components/Binder.svelte.ts -->
<g id="node11" class="node">
<title>src/lib/Components/Binder.svelte.ts</title>
<g id="a_node11"><a xlink:href="src/lib/Components/Binder.svelte.ts" xlink:title="Binder.svelte.ts">
<path fill="#ddfeff" stroke="black" d="M252.5,-478C252.5,-478 184.5,-478 184.5,-478 181.5,-478 178.5,-475 178.5,-472 178.5,-472 178.5,-466 178.5,-466 178.5,-463 181.5,-460 184.5,-460 184.5,-460 252.5,-460 252.5,-460 255.5,-460 258.5,-463 258.5,-466 258.5,-466 258.5,-472 258.5,-472 258.5,-475 255.5,-478 252.5,-478"/>
<text text-anchor="start" x="186.5" y="-466.8" font-family="Helvetica,sans-Serif" font-size="9.00">Binder.svelte.ts</text>
</a>
</g>
</g>
<!-- src/lib/Components/PocketSheet.svelte.ts -->
<g id="node12" class="node">
<title>src/lib/Components/PocketSheet.svelte.ts</title>
<g id="a_node12"><a xlink:href="src/lib/Components/PocketSheet.svelte.ts" xlink:title="PocketSheet.svelte.ts">
<path fill="#ddfeff" stroke="black" d="M407.5,-478C407.5,-478 315.5,-478 315.5,-478 312.5,-478 309.5,-475 309.5,-472 309.5,-472 309.5,-466 309.5,-466 309.5,-463 312.5,-460 315.5,-460 315.5,-460 407.5,-460 407.5,-460 410.5,-460 413.5,-463 413.5,-466 413.5,-466 413.5,-472 413.5,-472 413.5,-475 410.5,-478 407.5,-478"/>
<text text-anchor="start" x="317.5" y="-466.8" font-family="Helvetica,sans-Serif" font-size="9.00">PocketSheet.svelte.ts</text>
</a>
</g>
</g>
<!-- src/lib/Components/Binder.svelte.ts&#45;&gt;src/lib/Components/PocketSheet.svelte.ts -->
<g id="edge19" class="edge">
<title>src/lib/Components/Binder.svelte.ts&#45;&gt;src/lib/Components/PocketSheet.svelte.ts</title>
<path fill="none" stroke="#000000" stroke-width="2" stroke-opacity="0.200000" d="M258.78,-469C272.47,-469 288.12,-469 302.98,-469"/>
<polygon fill="#000000" fill-opacity="0.200000" stroke="#000000" stroke-width="2" stroke-opacity="0.200000" points="303.3,-471.1 309.3,-469 303.3,-466.9 303.3,-471.1"/>
</g>
<!-- src/lib/ViewModels/binder.ts -->
<g id="node13" class="node">
<title>src/lib/ViewModels/binder.ts</title>
<g id="a_node13"><a xlink:href="src/lib/ViewModels/binder.ts" xlink:title="binder.ts">
<path fill="#ddfeff" stroke="black" d="M497,-478C497,-478 455,-478 455,-478 452,-478 449,-475 449,-472 449,-472 449,-466 449,-466 449,-463 452,-460 455,-460 455,-460 497,-460 497,-460 500,-460 503,-463 503,-466 503,-466 503,-472 503,-472 503,-475 500,-478 497,-478"/>
<text text-anchor="start" x="457.5" y="-466.8" font-family="Helvetica,sans-Serif" font-size="9.00">binder.ts</text>
</a>
</g>
</g>
<!-- src/lib/Components/Binder.svelte.ts&#45;&gt;src/lib/ViewModels/binder.ts -->
<g id="edge20" class="edge">
<title>src/lib/Components/Binder.svelte.ts&#45;&gt;src/lib/ViewModels/binder.ts</title>
<path fill="none" stroke="#000000" stroke-opacity="0.200000" d="M258.75,-476.99C274.46,-479.81 292.77,-482.62 309.5,-484 359.11,-488.11 372.19,-490.78 421.5,-484 428.59,-483.02 436.07,-481.35 443.11,-479.47"/>
<polygon fill="none" stroke="#000000" stroke-opacity="0.200000" points="443.69,-481.49 448.91,-477.85 442.56,-477.45 443.69,-481.49"/>
</g>
<!-- src/lib/Components/PocketSheet.svelte.ts&#45;&gt;src/lib/ViewModels/binder.ts -->
<g id="edge21" class="edge">
<title>src/lib/Components/PocketSheet.svelte.ts&#45;&gt;src/lib/ViewModels/binder.ts</title>
<path fill="none" stroke="#000000" stroke-opacity="0.200000" d="M413.81,-469C423.7,-469 433.79,-469 442.86,-469"/>
<polygon fill="none" stroke="#000000" stroke-opacity="0.200000" points="442.95,-471.1 448.95,-469 442.95,-466.9 442.95,-471.1"/>
</g>
<!-- src/lib/server/ahdb.cards.json -->
<g id="node14" class="node">
<title>src/lib/server/ahdb.cards.json</title>
<g id="a_node14"><a xlink:href="src/lib/server/ahdb.cards.json" xlink:title="ahdb.cards.json">
<path fill="#ffee44" stroke="black" d="M254,-238C254,-238 183,-238 183,-238 180,-238 177,-235 177,-232 177,-232 177,-226 177,-226 177,-223 180,-220 183,-220 183,-220 254,-220 254,-220 257,-220 260,-223 260,-226 260,-226 260,-232 260,-232 260,-235 257,-238 254,-238"/>
<text text-anchor="start" x="185" y="-226.8" font-family="Helvetica,sans-Serif" font-size="9.00">ahdb.cards.json</text>
</a>
</g>
</g>
<!-- src/lib/server/ahdb.packs.json -->
<g id="node15" class="node">
<title>src/lib/server/ahdb.packs.json</title>
<g id="a_node15"><a xlink:href="src/lib/server/ahdb.packs.json" xlink:title="ahdb.packs.json">
<path fill="#ffee44" stroke="black" d="M255,-208C255,-208 182,-208 182,-208 179,-208 176,-205 176,-202 176,-202 176,-196 176,-196 176,-193 179,-190 182,-190 182,-190 255,-190 255,-190 258,-190 261,-193 261,-196 261,-196 261,-202 261,-202 261,-205 258,-208 255,-208"/>
<text text-anchor="start" x="184" y="-196.8" font-family="Helvetica,sans-Serif" font-size="9.00">ahdb.packs.json</text>
</a>
</g>
</g>
<!-- src/lib/server/collection/couz.json -->
<g id="node16" class="node">
<title>src/lib/server/collection/couz.json</title>
<g id="a_node16"><a xlink:href="src/lib/server/collection/couz.json" xlink:title="couz.json">
<path fill="#ffee44" stroke="black" d="M240.5,-272C240.5,-272 196.5,-272 196.5,-272 193.5,-272 190.5,-269 190.5,-266 190.5,-266 190.5,-260 190.5,-260 190.5,-257 193.5,-254 196.5,-254 196.5,-254 240.5,-254 240.5,-254 243.5,-254 246.5,-257 246.5,-260 246.5,-260 246.5,-266 246.5,-266 246.5,-269 243.5,-272 240.5,-272"/>
<text text-anchor="start" x="198.5" y="-260.8" font-family="Helvetica,sans-Serif" font-size="9.00">couz.json</text>
</a>
</g>
</g>
<!-- src/lib/userEditsCollection/userEditsCollection.ts -->
<g id="node17" class="node">
<title>src/lib/userEditsCollection/userEditsCollection.ts</title>
<g id="a_node17"><a xlink:href="src/lib/userEditsCollection/userEditsCollection.ts" xlink:title="userEditsCollection.ts">
<path fill="#ddfeff" stroke="black" d="M266,-358C266,-358 171,-358 171,-358 168,-358 165,-355 165,-352 165,-352 165,-346 165,-346 165,-343 168,-340 171,-340 171,-340 266,-340 266,-340 269,-340 272,-343 272,-346 272,-346 272,-352 272,-352 272,-355 269,-358 266,-358"/>
<text text-anchor="start" x="173" y="-346.8" font-family="Helvetica,sans-Serif" font-size="9.00">userEditsCollection.ts</text>
</a>
</g>
</g>
<!-- src/routes/collection/couz/+page.server.ts -->
<g id="node18" class="node">
<title>src/routes/collection/couz/+page.server.ts</title>
<g id="a_node18"><a xlink:href="src/routes/collection/couz/+page.server.ts" xlink:title="+page.server.ts">
<path fill="#ddfeff" stroke="black" d="M120.5,-88C120.5,-88 52.5,-88 52.5,-88 49.5,-88 46.5,-85 46.5,-82 46.5,-82 46.5,-76 46.5,-76 46.5,-73 49.5,-70 52.5,-70 52.5,-70 120.5,-70 120.5,-70 123.5,-70 126.5,-73 126.5,-76 126.5,-76 126.5,-82 126.5,-82 126.5,-85 123.5,-88 120.5,-88"/>
<text text-anchor="start" x="54.5" y="-76.8" font-family="Helvetica,sans-Serif" font-size="9.00">+page.server.ts</text>
</a>
</g>
</g>
<!-- src/routes/collection/couz/+page.server.ts&#45;&gt;src/lib/BinderStorage/index.ts -->
<g id="edge22" class="edge">
<title>src/routes/collection/couz/+page.server.ts&#45;&gt;src/lib/BinderStorage/index.ts</title>
<path fill="none" stroke="#000000" stroke-opacity="0.200000" d="M88.1,-88.18C91.31,-134.37 107.79,-340.82 149,-387 158.15,-397.25 172.08,-402.76 185,-405.7"/>
<polygon fill="none" stroke="#000000" stroke-opacity="0.200000" points="184.94,-407.83 191.23,-406.95 185.76,-403.71 184.94,-407.83"/>
</g>
<!-- src/routes/collection/couz/+page.server.ts&#45;&gt;src/lib/server/ahdb.cards.json -->
<g id="edge23" class="edge">
<title>src/routes/collection/couz/+page.server.ts&#45;&gt;src/lib/server/ahdb.cards.json</title>
<path fill="none" stroke="#000000" stroke-width="2" stroke-opacity="0.200000" d="M88.84,-88.26C92.91,-112.91 107.53,-180.5 149,-214 155.26,-219.06 162.86,-222.51 170.69,-224.84"/>
<polygon fill="#000000" fill-opacity="0.200000" stroke="#000000" stroke-width="2" stroke-opacity="0.200000" points="170.37,-226.92 176.7,-226.41 171.43,-222.86 170.37,-226.92"/>
</g>
<!-- src/routes/collection/couz/+page.server.ts&#45;&gt;src/lib/server/ahdb.packs.json -->
<g id="edge24" class="edge">
<title>src/routes/collection/couz/+page.server.ts&#45;&gt;src/lib/server/ahdb.packs.json</title>
<path fill="none" stroke="#000000" stroke-width="2" stroke-opacity="0.200000" d="M97.27,-88.02C119.95,-108.96 176.26,-160.94 202.99,-185.6"/>
<polygon fill="#000000" fill-opacity="0.200000" stroke="#000000" stroke-width="2" stroke-opacity="0.200000" points="201.78,-187.35 207.62,-189.88 204.63,-184.26 201.78,-187.35"/>
</g>
<!-- src/routes/collection/couz/+page.server.ts&#45;&gt;src/lib/server/collection/couz.json -->
<g id="edge25" class="edge">
<title>src/routes/collection/couz/+page.server.ts&#45;&gt;src/lib/server/collection/couz.json</title>
<path fill="none" stroke="#000000" stroke-width="2" stroke-opacity="0.200000" d="M87.8,-88.16C89.25,-116.96 97.89,-206.37 149,-250 158.64,-258.23 171.86,-261.9 184.12,-263.37"/>
<polygon fill="#000000" fill-opacity="0.200000" stroke="#000000" stroke-width="2" stroke-opacity="0.200000" points="184.25,-265.49 190.41,-263.95 184.63,-261.31 184.25,-265.49"/>
</g>
<!-- src/routes/collection/couz/+page.svelte.ts -->
<g id="node19" class="node">
<title>src/routes/collection/couz/+page.svelte.ts</title>
<g id="a_node19"><a xlink:href="src/routes/collection/couz/+page.svelte.ts" xlink:title="+page.svelte.ts">
<path fill="#ddfeff" stroke="black" d="M120,-58C120,-58 53,-58 53,-58 50,-58 47,-55 47,-52 47,-52 47,-46 47,-46 47,-43 50,-40 53,-40 53,-40 120,-40 120,-40 123,-40 126,-43 126,-46 126,-46 126,-52 126,-52 126,-55 123,-58 120,-58"/>
<text text-anchor="start" x="55" y="-46.8" font-family="Helvetica,sans-Serif" font-size="9.00">+page.svelte.ts</text>
</a>
</g>
</g>
<!-- src/routes/collection/couz/+page.svelte.ts&#45;&gt;src/lib/userEditsCollection/userEditsCollection.ts -->
<g id="edge28" class="edge">
<title>src/routes/collection/couz/+page.svelte.ts&#45;&gt;src/lib/userEditsCollection/userEditsCollection.ts</title>
<path fill="none" stroke="#000000" stroke-width="2" stroke-opacity="0.200000" d="M126.21,-53.46C131.94,-55.78 137.19,-59.14 141,-64 157.27,-84.72 136.45,-277.84 149,-301 157.81,-317.26 174.81,-329.22 189.67,-337.14"/>
<polygon fill="#000000" fill-opacity="0.200000" stroke="#000000" stroke-width="2" stroke-opacity="0.200000" points="188.73,-339.01 195.03,-339.87 190.64,-335.27 188.73,-339.01"/>
</g>
<!-- src/routes/collection/couz/arrow&#45;down.svg.svelte.ts -->
<g id="node20" class="node">
<title>src/routes/collection/couz/arrow&#45;down.svg.svelte.ts</title>
<g id="a_node20"><a xlink:href="src/routes/collection/couz/arrow-down.svg.svelte.ts" xlink:title="arrow&#45;down.svg.svelte.ts">
<path fill="#ddfeff" stroke="black" d="M271.5,-58C271.5,-58 165.5,-58 165.5,-58 162.5,-58 159.5,-55 159.5,-52 159.5,-52 159.5,-46 159.5,-46 159.5,-43 162.5,-40 165.5,-40 165.5,-40 271.5,-40 271.5,-40 274.5,-40 277.5,-43 277.5,-46 277.5,-46 277.5,-52 277.5,-52 277.5,-55 274.5,-58 271.5,-58"/>
<text text-anchor="start" x="167.5" y="-46.8" font-family="Helvetica,sans-Serif" font-size="9.00">arrow&#45;down.svg.svelte.ts</text>
</a>
</g>
</g>
<!-- src/routes/collection/couz/+page.svelte.ts&#45;&gt;src/routes/collection/couz/arrow&#45;down.svg.svelte.ts -->
<g id="edge26" class="edge">
<title>src/routes/collection/couz/+page.svelte.ts&#45;&gt;src/routes/collection/couz/arrow&#45;down.svg.svelte.ts</title>
<path fill="none" stroke="#000000" stroke-width="2" stroke-opacity="0.200000" d="M126.15,-49C134.62,-49 143.82,-49 152.99,-49"/>
<polygon fill="#000000" fill-opacity="0.200000" stroke="#000000" stroke-width="2" stroke-opacity="0.200000" points="153.02,-51.1 159.02,-49 153.02,-46.9 153.02,-51.1"/>
</g>
<!-- src/routes/collection/couz/arrow&#45;up.svg.svelte.ts -->
<g id="node21" class="node">
<title>src/routes/collection/couz/arrow&#45;up.svg.svelte.ts</title>
<g id="a_node21"><a xlink:href="src/routes/collection/couz/arrow-up.svg.svelte.ts" xlink:title="arrow&#45;up.svg.svelte.ts">
<path fill="#ddfeff" stroke="black" d="M265.5,-88C265.5,-88 171.5,-88 171.5,-88 168.5,-88 165.5,-85 165.5,-82 165.5,-82 165.5,-76 165.5,-76 165.5,-73 168.5,-70 171.5,-70 171.5,-70 265.5,-70 265.5,-70 268.5,-70 271.5,-73 271.5,-76 271.5,-76 271.5,-82 271.5,-82 271.5,-85 268.5,-88 265.5,-88"/>
<text text-anchor="start" x="173.5" y="-76.8" font-family="Helvetica,sans-Serif" font-size="9.00">arrow&#45;up.svg.svelte.ts</text>
</a>
</g>
</g>
<!-- src/routes/collection/couz/+page.svelte.ts&#45;&gt;src/routes/collection/couz/arrow&#45;up.svg.svelte.ts -->
<g id="edge27" class="edge">
<title>src/routes/collection/couz/+page.svelte.ts&#45;&gt;src/routes/collection/couz/arrow&#45;up.svg.svelte.ts</title>
<path fill="none" stroke="#000000" stroke-width="2" stroke-opacity="0.200000" d="M123.89,-58.03C132.14,-60.03 140.86,-62.12 149,-64 155.54,-65.51 162.44,-67.07 169.24,-68.58"/>
<polygon fill="#000000" fill-opacity="0.200000" stroke="#000000" stroke-width="2" stroke-opacity="0.200000" points="169.13,-70.71 175.44,-69.95 170.04,-66.61 169.13,-70.71"/>
</g>
</g>
</svg>
